<?xml version="1.0" encoding="utf-8" standalone="no"?>
<!DOCTYPE svg PUBLIC "-//W3C//DTD SVG 1.1//EN"
  "http://www.w3.org/Graphics/SVG/1.1/DTD/svg11.dtd">
<svg xmlns:xlink="http://www.w3.org/1999/xlink" width="432pt" height="288pt" viewBox="0 0 432 288" xmlns="http://www.w3.org/2000/svg" version="1.1">
 <metadata>
  <rdf:RDF xmlns:dc="http://purl.org/dc/elements/1.1/" xmlns:cc="http://creativecommons.org/ns#" xmlns:rdf="http://www.w3.org/1999/02/22-rdf-syntax-ns#">
   <cc:Work>
    <dc:type rdf:resource="http://purl.org/dc/dcmitype/StillImage"/>
    <dc:date>2024-11-15T08:20:48.191097</dc:date>
    <dc:format>image/svg+xml</dc:format>
    <dc:creator>
     <cc:Agent>
      <dc:title>Matplotlib v3.8.4, https://matplotlib.org/</dc:title>
     </cc:Agent>
    </dc:creator>
   </cc:Work>
  </rdf:RDF>
 </metadata>
 <defs>
  <style type="text/css">*{stroke-linejoin: round; stroke-linecap: butt}</style>
 </defs>
 <g id="figure_1">
  <g id="patch_1">
   <path d="M 0 288 
L 432 288 
L 432 0 
L 0 0 
z
" style="fill: #ffffff"/>
  </g>
  <g id="axes_1">
   <g id="patch_2">
    <path d="M 54 256.32 
L 388.8 256.32 
L 388.8 34.56 
L 54 34.56 
z
" style="fill: #ffffff"/>
   </g>
   <g id="PolyCollection_1">
    <defs>
     <path id="ma7ee9d1aa9" d="M 69.218182 -241.788901 
L 69.218182 -241.76589 
L 73.022727 -241.762225 
L 76.827273 -239.837143 
L 80.631818 -227.782762 
L 84.436364 -197.122361 
L 88.240909 -174.061395 
L 92.045455 -149.620664 
L 95.85 -129.167599 
L 99.654545 -120.890112 
L 103.459091 -107.725763 
L 107.263636 -107.327786 
L 111.068182 -104.151163 
L 114.872727 -92.129074 
L 118.677273 -85.575603 
L 122.481818 -81.698604 
L 126.286364 -81.169953 
L 130.090909 -81.110808 
L 133.895455 -69.399388 
L 137.7 -71.09049 
L 141.504545 -71.44695 
L 145.309091 -73.412368 
L 149.113636 -64.428332 
L 152.918182 -61.161802 
L 156.722727 -60.595413 
L 160.527273 -67.633771 
L 164.331818 -60.684859 
L 168.136364 -57.169775 
L 171.940909 -55.975702 
L 175.745455 -54.047775 
L 179.55 -55.424518 
L 183.354545 -59.69404 
L 187.159091 -59.186039 
L 190.963636 -53.474786 
L 194.768182 -50.969598 
L 198.572727 -53.02001 
L 202.377273 -61.808838 
L 206.181818 -53.605053 
L 209.986364 -55.903691 
L 213.790909 -53.365424 
L 217.595455 -53.763968 
L 221.4 -56.689717 
L 225.204545 -54.060529 
L 229.009091 -52.813689 
L 232.813636 -50.759663 
L 236.618182 -54.158788 
L 240.422727 -50.155888 
L 244.227273 -54.958257 
L 248.031818 -48.284081 
L 251.836364 -51.010183 
L 255.640909 -50.358174 
L 259.445455 -48.863415 
L 263.25 -43.933885 
L 267.054545 -49.394553 
L 270.859091 -50.950991 
L 274.663636 -46.220306 
L 278.468182 -46.448898 
L 282.272727 -48.103449 
L 286.077273 -48.275102 
L 289.881818 -43.384651 
L 293.686364 -53.273144 
L 297.490909 -47.372365 
L 301.295455 -46.373427 
L 305.1 -47.601271 
L 308.904545 -47.162217 
L 312.709091 -44.176272 
L 316.513636 -45.046224 
L 320.318182 -44.957872 
L 324.122727 -46.419607 
L 327.927273 -43.670672 
L 331.731818 -44.315716 
L 335.536364 -43.959452 
L 339.340909 -45.539467 
L 343.145455 -45.819684 
L 346.95 -45.686269 
L 350.754545 -43.520682 
L 354.559091 -42.714901 
L 358.363636 -42.623305 
L 362.168182 -42.304235 
L 365.972727 -43.960452 
L 369.777273 -41.76 
L 373.581818 -41.952097 
L 373.581818 -87.597756 
L 373.581818 -87.597756 
L 369.777273 -78.444356 
L 365.972727 -95.457789 
L 362.168182 -76.767985 
L 358.363636 -68.618877 
L 354.559091 -96.924759 
L 350.754545 -115.461145 
L 346.95 -80.919503 
L 343.145455 -95.461181 
L 339.340909 -123.475456 
L 335.536364 -91.590987 
L 331.731818 -78.076042 
L 327.927273 -127.494015 
L 324.122727 -88.364969 
L 320.318182 -134.811443 
L 316.513636 -89.881995 
L 312.709091 -69.138578 
L 308.904545 -93.058376 
L 305.1 -91.232463 
L 301.295455 -79.462028 
L 297.490909 -68.730241 
L 293.686364 -111.26762 
L 289.881818 -143.867779 
L 286.077273 -113.018093 
L 282.272727 -111.843864 
L 278.468182 -132.082226 
L 274.663636 -123.851495 
L 270.859091 -73.42594 
L 267.054545 -85.309339 
L 263.25 -71.288181 
L 259.445455 -83.189639 
L 255.640909 -94.777284 
L 251.836364 -93.969598 
L 248.031818 -105.411252 
L 244.227273 -93.970251 
L 240.422727 -75.412865 
L 236.618182 -146.122342 
L 232.813636 -98.257023 
L 229.009091 -113.100707 
L 225.204545 -124.609815 
L 221.4 -131.617218 
L 217.595455 -141.629529 
L 213.790909 -133.679337 
L 209.986364 -109.668814 
L 206.181818 -120.881082 
L 202.377273 -132.198046 
L 198.572727 -116.760371 
L 194.768182 -95.167458 
L 190.963636 -102.569634 
L 187.159091 -93.897134 
L 183.354545 -106.449841 
L 179.55 -82.551828 
L 175.745455 -126.793624 
L 171.940909 -94.251353 
L 168.136364 -148.346599 
L 164.331818 -113.389134 
L 160.527273 -155.41966 
L 156.722727 -108.964834 
L 152.918182 -94.256786 
L 149.113636 -107.238861 
L 145.309091 -161.568881 
L 141.504545 -108.71411 
L 137.7 -133.866903 
L 133.895455 -120.568145 
L 130.090909 -119.287191 
L 126.286364 -133.335416 
L 122.481818 -112.500421 
L 118.677273 -126.939771 
L 114.872727 -145.477772 
L 111.068182 -138.346396 
L 107.263636 -134.323385 
L 103.459091 -156.288388 
L 99.654545 -164.300255 
L 95.85 -170.369273 
L 92.045455 -204.969754 
L 88.240909 -197.951496 
L 84.436364 -222.186193 
L 80.631818 -238.122816 
L 76.827273 -241.767733 
L 73.022727 -241.784543 
L 69.218182 -241.788901 
z
" style="stroke: #c20017; stroke-opacity: 0.4"/>
    </defs>
    <g clip-path="url(#p91a22db0bd)">
     <use xlink:href="#ma7ee9d1aa9" x="0" y="288" style="fill: #c20017; fill-opacity: 0.4; stroke: #c20017; stroke-opacity: 0.4"/>
    </g>
   </g>
   <g id="PolyCollection_2">
    <defs>
     <path id="m708ec81afc" d="M 69.218182 -241.793688 
L 69.218182 -241.766604 
L 73.022727 -241.547521 
L 76.827273 -241.115152 
L 80.631818 -240.464738 
L 84.436364 -239.236115 
L 88.240909 -233.474351 
L 92.045455 -228.556992 
L 95.85 -220.421208 
L 99.654545 -217.448769 
L 103.459091 -214.53165 
L 107.263636 -207.467288 
L 111.068182 -202.633583 
L 114.872727 -203.874581 
L 118.677273 -201.090177 
L 122.481818 -198.149906 
L 126.286364 -198.871098 
L 130.090909 -198.196287 
L 133.895455 -193.409566 
L 137.7 -188.478961 
L 141.504545 -187.558579 
L 145.309091 -186.533857 
L 149.113636 -184.19934 
L 152.918182 -183.201604 
L 156.722727 -180.688285 
L 160.527273 -178.125875 
L 164.331818 -178.466998 
L 168.136364 -175.426304 
L 171.940909 -171.032055 
L 175.745455 -171.460329 
L 179.55 -167.959215 
L 183.354545 -168.787108 
L 187.159091 -169.749553 
L 190.963636 -165.494805 
L 194.768182 -169.136691 
L 198.572727 -165.665103 
L 202.377273 -161.91261 
L 206.181818 -161.617977 
L 209.986364 -162.494283 
L 213.790909 -158.478105 
L 217.595455 -157.361234 
L 221.4 -159.590942 
L 225.204545 -157.830738 
L 229.009091 -155.099077 
L 232.813636 -153.077455 
L 236.618182 -151.543744 
L 240.422727 -156.065731 
L 244.227273 -155.262655 
L 248.031818 -150.526152 
L 251.836364 -148.777985 
L 255.640909 -150.913302 
L 259.445455 -146.418874 
L 263.25 -143.39957 
L 267.054545 -145.612582 
L 270.859091 -145.004403 
L 274.663636 -145.513284 
L 278.468182 -142.71724 
L 282.272727 -140.265157 
L 286.077273 -143.38997 
L 289.881818 -141.867911 
L 293.686364 -144.050915 
L 297.490909 -138.675954 
L 301.295455 -140.16224 
L 305.1 -134.632802 
L 308.904545 -140.432538 
L 312.709091 -145.685534 
L 316.513636 -140.936108 
L 320.318182 -141.273096 
L 324.122727 -136.1846 
L 327.927273 -134.421648 
L 331.731818 -136.93018 
L 335.536364 -137.244659 
L 339.340909 -137.904881 
L 343.145455 -135.316181 
L 346.95 -132.468783 
L 350.754545 -136.984675 
L 354.559091 -136.113248 
L 358.363636 -134.241995 
L 362.168182 -133.48747 
L 365.972727 -137.546884 
L 369.777273 -137.237814 
L 373.581818 -129.595292 
L 373.581818 -183.828625 
L 373.581818 -183.828625 
L 369.777273 -187.370768 
L 365.972727 -186.213485 
L 362.168182 -187.245338 
L 358.363636 -182.381005 
L 354.559091 -187.21546 
L 350.754545 -189.843432 
L 346.95 -190.719306 
L 343.145455 -194.085146 
L 339.340909 -189.128587 
L 335.536364 -184.315682 
L 331.731818 -188.197031 
L 327.927273 -189.407037 
L 324.122727 -183.896444 
L 320.318182 -186.28746 
L 316.513636 -186.592051 
L 312.709091 -186.953157 
L 308.904545 -191.13908 
L 305.1 -188.241616 
L 301.295455 -188.321149 
L 297.490909 -191.51662 
L 293.686364 -189.277364 
L 289.881818 -190.35702 
L 286.077273 -190.379808 
L 282.272727 -187.989668 
L 278.468182 -188.759178 
L 274.663636 -192.016301 
L 270.859091 -192.41995 
L 267.054545 -192.117353 
L 263.25 -192.395376 
L 259.445455 -193.532422 
L 255.640909 -195.617289 
L 251.836364 -196.294875 
L 248.031818 -196.273763 
L 244.227273 -201.356681 
L 240.422727 -199.907237 
L 236.618182 -199.161774 
L 232.813636 -202.919636 
L 229.009091 -203.970931 
L 225.204545 -207.885956 
L 221.4 -212.608207 
L 217.595455 -207.89615 
L 213.790909 -210.206058 
L 209.986364 -209.424963 
L 206.181818 -210.244554 
L 202.377273 -210.169325 
L 198.572727 -210.883124 
L 194.768182 -208.402006 
L 190.963636 -210.94781 
L 187.159091 -209.260857 
L 183.354545 -210.467464 
L 179.55 -209.693058 
L 175.745455 -212.211022 
L 171.940909 -211.006425 
L 168.136364 -213.468105 
L 164.331818 -215.114128 
L 160.527273 -218.060728 
L 156.722727 -216.432983 
L 152.918182 -222.129371 
L 149.113636 -223.740826 
L 145.309091 -227.548108 
L 141.504545 -225.150843 
L 137.7 -226.56162 
L 133.895455 -227.999859 
L 130.090909 -228.851522 
L 126.286364 -229.433307 
L 122.481818 -232.565823 
L 118.677273 -232.083906 
L 114.872727 -233.463571 
L 111.068182 -234.501303 
L 107.263636 -235.983998 
L 103.459091 -237.590636 
L 99.654545 -238.802061 
L 95.85 -240.174968 
L 92.045455 -241.032545 
L 88.240909 -241.355064 
L 84.436364 -241.697552 
L 80.631818 -241.751561 
L 76.827273 -241.756833 
L 73.022727 -241.819191 
L 69.218182 -241.793688 
z
" style="stroke: #cac100; stroke-opacity: 0.4"/>
    </defs>
    <g clip-path="url(#p91a22db0bd)">
     <use xlink:href="#m708ec81afc" x="0" y="288" style="fill: #cac100; fill-opacity: 0.4; stroke: #cac100; stroke-opacity: 0.4"/>
    </g>
   </g>
   <g id="PolyCollection_3">
    <defs>
     <path id="md32a9e2550" d="M 69.218182 -241.793827 
L 69.218182 -241.765213 
L 73.022727 -241.758299 
L 76.827273 -241.622814 
L 80.631818 -239.861938 
L 84.436364 -235.250335 
L 88.240909 -233.045218 
L 92.045455 -223.35504 
L 95.85 -220.013093 
L 99.654545 -211.474957 
L 103.459091 -204.924712 
L 107.263636 -193.947717 
L 111.068182 -198.936952 
L 114.872727 -185.814396 
L 118.677273 -187.21351 
L 122.481818 -174.419041 
L 126.286364 -178.796323 
L 130.090909 -178.199824 
L 133.895455 -167.965538 
L 137.7 -169.870217 
L 141.504545 -162.769057 
L 145.309091 -162.354357 
L 149.113636 -153.144959 
L 152.918182 -153.182316 
L 156.722727 -152.720554 
L 160.527273 -147.887926 
L 164.331818 -143.213301 
L 168.136364 -143.157552 
L 171.940909 -141.319814 
L 175.745455 -144.362835 
L 179.55 -140.321634 
L 183.354545 -142.641683 
L 187.159091 -135.921974 
L 190.963636 -131.078237 
L 194.768182 -127.85904 
L 198.572727 -129.563045 
L 202.377273 -130.456766 
L 206.181818 -131.115565 
L 209.986364 -122.409875 
L 213.790909 -124.340646 
L 217.595455 -117.849257 
L 221.4 -116.244736 
L 225.204545 -120.434083 
L 229.009091 -116.481861 
L 232.813636 -109.269216 
L 236.618182 -110.156272 
L 240.422727 -110.165178 
L 244.227273 -114.231858 
L 248.031818 -115.578834 
L 251.836364 -112.415998 
L 255.640909 -112.195857 
L 259.445455 -105.28457 
L 263.25 -105.771678 
L 267.054545 -103.500335 
L 270.859091 -107.542975 
L 274.663636 -105.196143 
L 278.468182 -108.433536 
L 282.272727 -100.271221 
L 286.077273 -96.374727 
L 289.881818 -103.01407 
L 293.686364 -101.41398 
L 297.490909 -108.077999 
L 301.295455 -103.126285 
L 305.1 -104.188076 
L 308.904545 -103.868509 
L 312.709091 -106.726928 
L 316.513636 -95.467964 
L 320.318182 -100.475102 
L 324.122727 -95.490912 
L 327.927273 -100.89199 
L 331.731818 -97.244232 
L 335.536364 -93.648921 
L 339.340909 -92.604542 
L 343.145455 -96.793251 
L 346.95 -95.083955 
L 350.754545 -96.104521 
L 354.559091 -95.716318 
L 358.363636 -88.440982 
L 362.168182 -92.879742 
L 365.972727 -90.874937 
L 369.777273 -91.045712 
L 373.581818 -89.351819 
L 373.581818 -107.434765 
L 373.581818 -107.434765 
L 369.777273 -106.914239 
L 365.972727 -110.950429 
L 362.168182 -116.892285 
L 358.363636 -108.766771 
L 354.559091 -118.397318 
L 350.754545 -119.657666 
L 346.95 -122.429994 
L 343.145455 -121.308336 
L 339.340909 -120.767117 
L 335.536364 -122.425444 
L 331.731818 -120.843028 
L 327.927273 -120.566481 
L 324.122727 -120.255067 
L 320.318182 -131.820732 
L 316.513636 -124.582667 
L 312.709091 -122.968286 
L 308.904545 -128.054121 
L 305.1 -126.581256 
L 301.295455 -131.003187 
L 297.490909 -129.380094 
L 293.686364 -130.425895 
L 289.881818 -131.634803 
L 286.077273 -124.994464 
L 282.272727 -122.157632 
L 278.468182 -128.651399 
L 274.663636 -136.715846 
L 270.859091 -130.938972 
L 267.054545 -141.497805 
L 263.25 -128.813502 
L 259.445455 -136.655739 
L 255.640909 -136.85848 
L 251.836364 -138.037474 
L 248.031818 -140.973845 
L 244.227273 -150.05914 
L 240.422727 -145.379927 
L 236.618182 -141.728402 
L 232.813636 -150.391803 
L 229.009091 -147.959511 
L 225.204545 -159.787226 
L 221.4 -164.403376 
L 217.595455 -150.875357 
L 213.790909 -148.290834 
L 209.986364 -152.318513 
L 206.181818 -159.217727 
L 202.377273 -153.589281 
L 198.572727 -171.253719 
L 194.768182 -183.598324 
L 190.963636 -185.52818 
L 187.159091 -172.894704 
L 183.354545 -187.646263 
L 179.55 -185.606328 
L 175.745455 -187.221005 
L 171.940909 -176.344928 
L 168.136364 -197.028141 
L 164.331818 -174.059351 
L 160.527273 -186.750097 
L 156.722727 -193.095758 
L 152.918182 -193.128514 
L 149.113636 -192.461285 
L 145.309091 -202.81671 
L 141.504545 -199.746629 
L 137.7 -207.892033 
L 133.895455 -211.787725 
L 130.090909 -214.745556 
L 126.286364 -215.091852 
L 122.481818 -221.782474 
L 118.677273 -222.598104 
L 114.872727 -231.193127 
L 111.068182 -229.386952 
L 107.263636 -227.940859 
L 103.459091 -226.534858 
L 99.654545 -233.7986 
L 95.85 -232.632832 
L 92.045455 -239.014406 
L 88.240909 -240.331684 
L 84.436364 -243.36 
L 80.631818 -241.677969 
L 76.827273 -241.778882 
L 73.022727 -241.786354 
L 69.218182 -241.793827 
z
" style="stroke: #23aa00; stroke-opacity: 0.4"/>
    </defs>
    <g clip-path="url(#p91a22db0bd)">
     <use xlink:href="#md32a9e2550" x="0" y="288" style="fill: #23aa00; fill-opacity: 0.4; stroke: #23aa00; stroke-opacity: 0.4"/>
    </g>
   </g>
   <g id="matplotlib.axis_1">
    <g id="xtick_1">
     <g id="line2d_1">
      <defs>
       <path id="m0691fcecb3" d="M 0 0 
L 0 3.5 
" style="stroke: #000000; stroke-width: 0.8"/>
      </defs>
      <g>
       <use xlink:href="#m0691fcecb3" x="69.218182" y="256.32" style="stroke: #000000; stroke-width: 0.8"/>
      </g>
     </g>
     <g id="text_1">
      <!-- 0 -->
      <g transform="translate(62.219432 280.036563) scale(0.22 -0.22)">
       <defs>
        <path id="DejaVuSans-30" d="M 2034 4250 
Q 1547 4250 1301 3770 
Q 1056 3291 1056 2328 
Q 1056 1369 1301 889 
Q 1547 409 2034 409 
Q 2525 409 2770 889 
Q 3016 1369 3016 2328 
Q 3016 3291 2770 3770 
Q 2525 4250 2034 4250 
z
M 2034 4750 
Q 2819 4750 3233 4129 
Q 3647 3509 3647 2328 
Q 3647 1150 3233 529 
Q 2819 -91 2034 -91 
Q 1250 -91 836 529 
Q 422 1150 422 2328 
Q 422 3509 836 4129 
Q 1250 4750 2034 4750 
z
" transform="scale(0.015625)"/>
       </defs>
       <use xlink:href="#DejaVuSans-30"/>
      </g>
     </g>
    </g>
    <g id="xtick_2">
     <g id="line2d_2">
      <g>
       <use xlink:href="#m0691fcecb3" x="145.309091" y="256.32" style="stroke: #000000; stroke-width: 0.8"/>
      </g>
     </g>
     <g id="text_2">
      <!-- 500 -->
      <g transform="translate(124.312841 280.036563) scale(0.22 -0.22)">
       <defs>
        <path id="DejaVuSans-35" d="M 691 4666 
L 3169 4666 
L 3169 4134 
L 1269 4134 
L 1269 2991 
Q 1406 3038 1543 3061 
Q 1681 3084 1819 3084 
Q 2600 3084 3056 2656 
Q 3513 2228 3513 1497 
Q 3513 744 3044 326 
Q 2575 -91 1722 -91 
Q 1428 -91 1123 -41 
Q 819 9 494 109 
L 494 744 
Q 775 591 1075 516 
Q 1375 441 1709 441 
Q 2250 441 2565 725 
Q 2881 1009 2881 1497 
Q 2881 1984 2565 2268 
Q 2250 2553 1709 2553 
Q 1456 2553 1204 2497 
Q 953 2441 691 2322 
L 691 4666 
z
" transform="scale(0.015625)"/>
       </defs>
       <use xlink:href="#DejaVuSans-35"/>
       <use xlink:href="#DejaVuSans-30" x="63.623047"/>
       <use xlink:href="#DejaVuSans-30" x="127.246094"/>
      </g>
     </g>
    </g>
    <g id="xtick_3">
     <g id="line2d_3">
      <g>
       <use xlink:href="#m0691fcecb3" x="221.4" y="256.32" style="stroke: #000000; stroke-width: 0.8"/>
      </g>
     </g>
     <g id="text_3">
      <!-- 1000 -->
      <g transform="translate(193.405 280.036563) scale(0.22 -0.22)">
       <defs>
        <path id="DejaVuSans-31" d="M 794 531 
L 1825 531 
L 1825 4091 
L 703 3866 
L 703 4441 
L 1819 4666 
L 2450 4666 
L 2450 531 
L 3481 531 
L 3481 0 
L 794 0 
L 794 531 
z
" transform="scale(0.015625)"/>
       </defs>
       <use xlink:href="#DejaVuSans-31"/>
       <use xlink:href="#DejaVuSans-30" x="63.623047"/>
       <use xlink:href="#DejaVuSans-30" x="127.246094"/>
       <use xlink:href="#DejaVuSans-30" x="190.869141"/>
      </g>
     </g>
    </g>
    <g id="xtick_4">
     <g id="line2d_4">
      <g>
       <use xlink:href="#m0691fcecb3" x="297.490909" y="256.32" style="stroke: #000000; stroke-width: 0.8"/>
      </g>
     </g>
     <g id="text_4">
      <!-- 1500 -->
      <g transform="translate(269.495909 280.036563) scale(0.22 -0.22)">
       <use xlink:href="#DejaVuSans-31"/>
       <use xlink:href="#DejaVuSans-35" x="63.623047"/>
       <use xlink:href="#DejaVuSans-30" x="127.246094"/>
       <use xlink:href="#DejaVuSans-30" x="190.869141"/>
      </g>
     </g>
    </g>
    <g id="xtick_5">
     <g id="line2d_5">
      <g>
       <use xlink:href="#m0691fcecb3" x="373.581818" y="256.32" style="stroke: #000000; stroke-width: 0.8"/>
      </g>
     </g>
     <g id="text_5">
      <!-- 2000 -->
      <g transform="translate(345.586818 280.036563) scale(0.22 -0.22)">
       <defs>
        <path id="DejaVuSans-32" d="M 1228 531 
L 3431 531 
L 3431 0 
L 469 0 
L 469 531 
Q 828 903 1448 1529 
Q 2069 2156 2228 2338 
Q 2531 2678 2651 2914 
Q 2772 3150 2772 3378 
Q 2772 3750 2511 3984 
Q 2250 4219 1831 4219 
Q 1534 4219 1204 4116 
Q 875 4013 500 3803 
L 500 4441 
Q 881 4594 1212 4672 
Q 1544 4750 1819 4750 
Q 2544 4750 2975 4387 
Q 3406 4025 3406 3419 
Q 3406 3131 3298 2873 
Q 3191 2616 2906 2266 
Q 2828 2175 2409 1742 
Q 1991 1309 1228 531 
z
" transform="scale(0.015625)"/>
       </defs>
       <use xlink:href="#DejaVuSans-32"/>
       <use xlink:href="#DejaVuSans-30" x="63.623047"/>
       <use xlink:href="#DejaVuSans-30" x="127.246094"/>
       <use xlink:href="#DejaVuSans-30" x="190.869141"/>
      </g>
     </g>
    </g>
    <g id="text_6">
     <!-- Iterations -->
     <g transform="translate(169.010781 305.328438) scale(0.22 -0.22)">
      <defs>
       <path id="DejaVuSans-49" d="M 628 4666 
L 1259 4666 
L 1259 0 
L 628 0 
L 628 4666 
z
" transform="scale(0.015625)"/>
       <path id="DejaVuSans-74" d="M 1172 4494 
L 1172 3500 
L 2356 3500 
L 2356 3053 
L 1172 3053 
L 1172 1153 
Q 1172 725 1289 603 
Q 1406 481 1766 481 
L 2356 481 
L 2356 0 
L 1766 0 
Q 1100 0 847 248 
Q 594 497 594 1153 
L 594 3053 
L 172 3053 
L 172 3500 
L 594 3500 
L 594 4494 
L 1172 4494 
z
" transform="scale(0.015625)"/>
       <path id="DejaVuSans-65" d="M 3597 1894 
L 3597 1613 
L 953 1613 
Q 991 1019 1311 708 
Q 1631 397 2203 397 
Q 2534 397 2845 478 
Q 3156 559 3463 722 
L 3463 178 
Q 3153 47 2828 -22 
Q 2503 -91 2169 -91 
Q 1331 -91 842 396 
Q 353 884 353 1716 
Q 353 2575 817 3079 
Q 1281 3584 2069 3584 
Q 2775 3584 3186 3129 
Q 3597 2675 3597 1894 
z
M 3022 2063 
Q 3016 2534 2758 2815 
Q 2500 3097 2075 3097 
Q 1594 3097 1305 2825 
Q 1016 2553 972 2059 
L 3022 2063 
z
" transform="scale(0.015625)"/>
       <path id="DejaVuSans-72" d="M 2631 2963 
Q 2534 3019 2420 3045 
Q 2306 3072 2169 3072 
Q 1681 3072 1420 2755 
Q 1159 2438 1159 1844 
L 1159 0 
L 581 0 
L 581 3500 
L 1159 3500 
L 1159 2956 
Q 1341 3275 1631 3429 
Q 1922 3584 2338 3584 
Q 2397 3584 2469 3576 
Q 2541 3569 2628 3553 
L 2631 2963 
z
" transform="scale(0.015625)"/>
       <path id="DejaVuSans-61" d="M 2194 1759 
Q 1497 1759 1228 1600 
Q 959 1441 959 1056 
Q 959 750 1161 570 
Q 1363 391 1709 391 
Q 2188 391 2477 730 
Q 2766 1069 2766 1631 
L 2766 1759 
L 2194 1759 
z
M 3341 1997 
L 3341 0 
L 2766 0 
L 2766 531 
Q 2569 213 2275 61 
Q 1981 -91 1556 -91 
Q 1019 -91 701 211 
Q 384 513 384 1019 
Q 384 1609 779 1909 
Q 1175 2209 1959 2209 
L 2766 2209 
L 2766 2266 
Q 2766 2663 2505 2880 
Q 2244 3097 1772 3097 
Q 1472 3097 1187 3025 
Q 903 2953 641 2809 
L 641 3341 
Q 956 3463 1253 3523 
Q 1550 3584 1831 3584 
Q 2591 3584 2966 3190 
Q 3341 2797 3341 1997 
z
" transform="scale(0.015625)"/>
       <path id="DejaVuSans-69" d="M 603 3500 
L 1178 3500 
L 1178 0 
L 603 0 
L 603 3500 
z
M 603 4863 
L 1178 4863 
L 1178 4134 
L 603 4134 
L 603 4863 
z
" transform="scale(0.015625)"/>
       <path id="DejaVuSans-6f" d="M 1959 3097 
Q 1497 3097 1228 2736 
Q 959 2375 959 1747 
Q 959 1119 1226 758 
Q 1494 397 1959 397 
Q 2419 397 2687 759 
Q 2956 1122 2956 1747 
Q 2956 2369 2687 2733 
Q 2419 3097 1959 3097 
z
M 1959 3584 
Q 2709 3584 3137 3096 
Q 3566 2609 3566 1747 
Q 3566 888 3137 398 
Q 2709 -91 1959 -91 
Q 1206 -91 779 398 
Q 353 888 353 1747 
Q 353 2609 779 3096 
Q 1206 3584 1959 3584 
z
" transform="scale(0.015625)"/>
       <path id="DejaVuSans-6e" d="M 3513 2113 
L 3513 0 
L 2938 0 
L 2938 2094 
Q 2938 2591 2744 2837 
Q 2550 3084 2163 3084 
Q 1697 3084 1428 2787 
Q 1159 2491 1159 1978 
L 1159 0 
L 581 0 
L 581 3500 
L 1159 3500 
L 1159 2956 
Q 1366 3272 1645 3428 
Q 1925 3584 2291 3584 
Q 2894 3584 3203 3211 
Q 3513 2838 3513 2113 
z
" transform="scale(0.015625)"/>
       <path id="DejaVuSans-73" d="M 2834 3397 
L 2834 2853 
Q 2591 2978 2328 3040 
Q 2066 3103 1784 3103 
Q 1356 3103 1142 2972 
Q 928 2841 928 2578 
Q 928 2378 1081 2264 
Q 1234 2150 1697 2047 
L 1894 2003 
Q 2506 1872 2764 1633 
Q 3022 1394 3022 966 
Q 3022 478 2636 193 
Q 2250 -91 1575 -91 
Q 1294 -91 989 -36 
Q 684 19 347 128 
L 347 722 
Q 666 556 975 473 
Q 1284 391 1588 391 
Q 1994 391 2212 530 
Q 2431 669 2431 922 
Q 2431 1156 2273 1281 
Q 2116 1406 1581 1522 
L 1381 1569 
Q 847 1681 609 1914 
Q 372 2147 372 2553 
Q 372 3047 722 3315 
Q 1072 3584 1716 3584 
Q 2034 3584 2315 3537 
Q 2597 3491 2834 3397 
z
" transform="scale(0.015625)"/>
      </defs>
      <use xlink:href="#DejaVuSans-49"/>
      <use xlink:href="#DejaVuSans-74" x="29.492188"/>
      <use xlink:href="#DejaVuSans-65" x="68.701172"/>
      <use xlink:href="#DejaVuSans-72" x="130.224609"/>
      <use xlink:href="#DejaVuSans-61" x="171.337891"/>
      <use xlink:href="#DejaVuSans-74" x="232.617188"/>
      <use xlink:href="#DejaVuSans-69" x="271.826172"/>
      <use xlink:href="#DejaVuSans-6f" x="299.609375"/>
      <use xlink:href="#DejaVuSans-6e" x="360.791016"/>
      <use xlink:href="#DejaVuSans-73" x="424.169922"/>
     </g>
    </g>
   </g>
   <g id="matplotlib.axis_2">
    <g id="ytick_1">
     <g id="line2d_6">
      <defs>
       <path id="m06c0afd848" d="M 0 0 
L -3.5 0 
" style="stroke: #000000; stroke-width: 0.8"/>
      </defs>
      <g>
       <use xlink:href="#m06c0afd848" x="54" y="253.912821" style="stroke: #000000; stroke-width: 0.8"/>
      </g>
     </g>
     <g id="text_7">
      <!-- 0.0 -->
      <g transform="translate(12.013125 262.271102) scale(0.22 -0.22)">
       <defs>
        <path id="DejaVuSans-2e" d="M 684 794 
L 1344 794 
L 1344 0 
L 684 0 
L 684 794 
z
" transform="scale(0.015625)"/>
       </defs>
       <use xlink:href="#DejaVuSans-30"/>
       <use xlink:href="#DejaVuSans-2e" x="63.623047"/>
       <use xlink:href="#DejaVuSans-30" x="95.410156"/>
      </g>
     </g>
    </g>
    <g id="ytick_2">
     <g id="line2d_7">
      <g>
       <use xlink:href="#m06c0afd848" x="54" y="223.948609" style="stroke: #000000; stroke-width: 0.8"/>
      </g>
     </g>
     <g id="text_8">
      <!-- 0.1 -->
      <g transform="translate(12.013125 232.30689) scale(0.22 -0.22)">
       <use xlink:href="#DejaVuSans-30"/>
       <use xlink:href="#DejaVuSans-2e" x="63.623047"/>
       <use xlink:href="#DejaVuSans-31" x="95.410156"/>
      </g>
     </g>
    </g>
    <g id="ytick_3">
     <g id="line2d_8">
      <g>
       <use xlink:href="#m06c0afd848" x="54" y="193.984397" style="stroke: #000000; stroke-width: 0.8"/>
      </g>
     </g>
     <g id="text_9">
      <!-- 0.2 -->
      <g transform="translate(12.013125 202.342678) scale(0.22 -0.22)">
       <use xlink:href="#DejaVuSans-30"/>
       <use xlink:href="#DejaVuSans-2e" x="63.623047"/>
       <use xlink:href="#DejaVuSans-32" x="95.410156"/>
      </g>
     </g>
    </g>
    <g id="ytick_4">
     <g id="line2d_9">
      <g>
       <use xlink:href="#m06c0afd848" x="54" y="164.020184" style="stroke: #000000; stroke-width: 0.8"/>
      </g>
     </g>
     <g id="text_10">
      <!-- 0.3 -->
      <g transform="translate(12.013125 172.378466) scale(0.22 -0.22)">
       <defs>
        <path id="DejaVuSans-33" d="M 2597 2516 
Q 3050 2419 3304 2112 
Q 3559 1806 3559 1356 
Q 3559 666 3084 287 
Q 2609 -91 1734 -91 
Q 1441 -91 1130 -33 
Q 819 25 488 141 
L 488 750 
Q 750 597 1062 519 
Q 1375 441 1716 441 
Q 2309 441 2620 675 
Q 2931 909 2931 1356 
Q 2931 1769 2642 2001 
Q 2353 2234 1838 2234 
L 1294 2234 
L 1294 2753 
L 1863 2753 
Q 2328 2753 2575 2939 
Q 2822 3125 2822 3475 
Q 2822 3834 2567 4026 
Q 2313 4219 1838 4219 
Q 1578 4219 1281 4162 
Q 984 4106 628 3988 
L 628 4550 
Q 988 4650 1302 4700 
Q 1616 4750 1894 4750 
Q 2613 4750 3031 4423 
Q 3450 4097 3450 3541 
Q 3450 3153 3228 2886 
Q 3006 2619 2597 2516 
z
" transform="scale(0.015625)"/>
       </defs>
       <use xlink:href="#DejaVuSans-30"/>
       <use xlink:href="#DejaVuSans-2e" x="63.623047"/>
       <use xlink:href="#DejaVuSans-33" x="95.410156"/>
      </g>
     </g>
    </g>
    <g id="ytick_5">
     <g id="line2d_10">
      <g>
       <use xlink:href="#m06c0afd848" x="54" y="134.055972" style="stroke: #000000; stroke-width: 0.8"/>
      </g>
     </g>
     <g id="text_11">
      <!-- 0.4 -->
      <g transform="translate(12.013125 142.414253) scale(0.22 -0.22)">
       <defs>
        <path id="DejaVuSans-34" d="M 2419 4116 
L 825 1625 
L 2419 1625 
L 2419 4116 
z
M 2253 4666 
L 3047 4666 
L 3047 1625 
L 3713 1625 
L 3713 1100 
L 3047 1100 
L 3047 0 
L 2419 0 
L 2419 1100 
L 313 1100 
L 313 1709 
L 2253 4666 
z
" transform="scale(0.015625)"/>
       </defs>
       <use xlink:href="#DejaVuSans-30"/>
       <use xlink:href="#DejaVuSans-2e" x="63.623047"/>
       <use xlink:href="#DejaVuSans-34" x="95.410156"/>
      </g>
     </g>
    </g>
    <g id="ytick_6">
     <g id="line2d_11">
      <g>
       <use xlink:href="#m06c0afd848" x="54" y="104.09176" style="stroke: #000000; stroke-width: 0.8"/>
      </g>
     </g>
     <g id="text_12">
      <!-- 0.5 -->
      <g transform="translate(12.013125 112.450041) scale(0.22 -0.22)">
       <use xlink:href="#DejaVuSans-30"/>
       <use xlink:href="#DejaVuSans-2e" x="63.623047"/>
       <use xlink:href="#DejaVuSans-35" x="95.410156"/>
      </g>
     </g>
    </g>
    <g id="ytick_7">
     <g id="line2d_12">
      <g>
       <use xlink:href="#m06c0afd848" x="54" y="74.127548" style="stroke: #000000; stroke-width: 0.8"/>
      </g>
     </g>
     <g id="text_13">
      <!-- 0.6 -->
      <g transform="translate(12.013125 82.485829) scale(0.22 -0.22)">
       <defs>
        <path id="DejaVuSans-36" d="M 2113 2584 
Q 1688 2584 1439 2293 
Q 1191 2003 1191 1497 
Q 1191 994 1439 701 
Q 1688 409 2113 409 
Q 2538 409 2786 701 
Q 3034 994 3034 1497 
Q 3034 2003 2786 2293 
Q 2538 2584 2113 2584 
z
M 3366 4563 
L 3366 3988 
Q 3128 4100 2886 4159 
Q 2644 4219 2406 4219 
Q 1781 4219 1451 3797 
Q 1122 3375 1075 2522 
Q 1259 2794 1537 2939 
Q 1816 3084 2150 3084 
Q 2853 3084 3261 2657 
Q 3669 2231 3669 1497 
Q 3669 778 3244 343 
Q 2819 -91 2113 -91 
Q 1303 -91 875 529 
Q 447 1150 447 2328 
Q 447 3434 972 4092 
Q 1497 4750 2381 4750 
Q 2619 4750 2861 4703 
Q 3103 4656 3366 4563 
z
" transform="scale(0.015625)"/>
       </defs>
       <use xlink:href="#DejaVuSans-30"/>
       <use xlink:href="#DejaVuSans-2e" x="63.623047"/>
       <use xlink:href="#DejaVuSans-36" x="95.410156"/>
      </g>
     </g>
    </g>
    <g id="ytick_8">
     <g id="line2d_13">
      <g>
       <use xlink:href="#m06c0afd848" x="54" y="44.163335" style="stroke: #000000; stroke-width: 0.8"/>
      </g>
     </g>
     <g id="text_14">
      <!-- 0.7 -->
      <g transform="translate(12.013125 52.521617) scale(0.22 -0.22)">
       <defs>
        <path id="DejaVuSans-37" d="M 525 4666 
L 3525 4666 
L 3525 4397 
L 1831 0 
L 1172 0 
L 2766 4134 
L 525 4134 
L 525 4666 
z
" transform="scale(0.015625)"/>
       </defs>
       <use xlink:href="#DejaVuSans-30"/>
       <use xlink:href="#DejaVuSans-2e" x="63.623047"/>
       <use xlink:href="#DejaVuSans-37" x="95.410156"/>
      </g>
     </g>
    </g>
    <g id="text_15">
     <!-- Cross-Entropy -->
     <g transform="translate(3.437812 222.28875) rotate(-90) scale(0.22 -0.22)">
      <defs>
       <path id="DejaVuSans-43" d="M 4122 4306 
L 4122 3641 
Q 3803 3938 3442 4084 
Q 3081 4231 2675 4231 
Q 1875 4231 1450 3742 
Q 1025 3253 1025 2328 
Q 1025 1406 1450 917 
Q 1875 428 2675 428 
Q 3081 428 3442 575 
Q 3803 722 4122 1019 
L 4122 359 
Q 3791 134 3420 21 
Q 3050 -91 2638 -91 
Q 1578 -91 968 557 
Q 359 1206 359 2328 
Q 359 3453 968 4101 
Q 1578 4750 2638 4750 
Q 3056 4750 3426 4639 
Q 3797 4528 4122 4306 
z
" transform="scale(0.015625)"/>
       <path id="DejaVuSans-2d" d="M 313 2009 
L 1997 2009 
L 1997 1497 
L 313 1497 
L 313 2009 
z
" transform="scale(0.015625)"/>
       <path id="DejaVuSans-45" d="M 628 4666 
L 3578 4666 
L 3578 4134 
L 1259 4134 
L 1259 2753 
L 3481 2753 
L 3481 2222 
L 1259 2222 
L 1259 531 
L 3634 531 
L 3634 0 
L 628 0 
L 628 4666 
z
" transform="scale(0.015625)"/>
       <path id="DejaVuSans-70" d="M 1159 525 
L 1159 -1331 
L 581 -1331 
L 581 3500 
L 1159 3500 
L 1159 2969 
Q 1341 3281 1617 3432 
Q 1894 3584 2278 3584 
Q 2916 3584 3314 3078 
Q 3713 2572 3713 1747 
Q 3713 922 3314 415 
Q 2916 -91 2278 -91 
Q 1894 -91 1617 61 
Q 1341 213 1159 525 
z
M 3116 1747 
Q 3116 2381 2855 2742 
Q 2594 3103 2138 3103 
Q 1681 3103 1420 2742 
Q 1159 2381 1159 1747 
Q 1159 1113 1420 752 
Q 1681 391 2138 391 
Q 2594 391 2855 752 
Q 3116 1113 3116 1747 
z
" transform="scale(0.015625)"/>
       <path id="DejaVuSans-79" d="M 2059 -325 
Q 1816 -950 1584 -1140 
Q 1353 -1331 966 -1331 
L 506 -1331 
L 506 -850 
L 844 -850 
Q 1081 -850 1212 -737 
Q 1344 -625 1503 -206 
L 1606 56 
L 191 3500 
L 800 3500 
L 1894 763 
L 2988 3500 
L 3597 3500 
L 2059 -325 
z
" transform="scale(0.015625)"/>
      </defs>
      <use xlink:href="#DejaVuSans-43"/>
      <use xlink:href="#DejaVuSans-72" x="69.824219"/>
      <use xlink:href="#DejaVuSans-6f" x="108.6875"/>
      <use xlink:href="#DejaVuSans-73" x="169.869141"/>
      <use xlink:href="#DejaVuSans-73" x="221.96875"/>
      <use xlink:href="#DejaVuSans-2d" x="274.068359"/>
      <use xlink:href="#DejaVuSans-45" x="310.152344"/>
      <use xlink:href="#DejaVuSans-6e" x="373.335938"/>
      <use xlink:href="#DejaVuSans-74" x="436.714844"/>
      <use xlink:href="#DejaVuSans-72" x="475.923828"/>
      <use xlink:href="#DejaVuSans-6f" x="514.787109"/>
      <use xlink:href="#DejaVuSans-70" x="575.96875"/>
      <use xlink:href="#DejaVuSans-79" x="639.445312"/>
     </g>
    </g>
   </g>
   <g id="line2d_14">
    <path d="M 69.218182 46.218917 
L 73.022727 46.225496 
L 76.827273 46.760535 
L 80.631818 55.044681 
L 84.436364 79.244883 
L 88.240909 100.071138 
L 92.045455 113.030468 
L 95.85 138.741695 
L 99.654545 148.393824 
L 103.459091 153.906754 
L 107.263636 166.314952 
L 111.068182 173.039955 
L 114.872727 173.030835 
L 118.677273 181.401145 
L 122.481818 190.977586 
L 126.286364 185.950813 
L 130.090909 191.206915 
L 133.895455 196.164379 
L 137.7 185.874051 
L 141.504545 198.229908 
L 145.309091 193.943605 
L 149.113636 207.848876 
L 152.918182 213.160728 
L 156.722727 212.072316 
L 160.527273 198.10572 
L 164.331818 205.97059 
L 168.136364 206.252147 
L 171.940909 214.825161 
L 175.745455 205.20536 
L 179.55 218.25999 
L 183.354545 210.308047 
L 187.159091 213.261888 
L 190.963636 217.127786 
L 194.768182 219.591647 
L 198.572727 214.871498 
L 202.377273 208.22128 
L 206.181818 208.396378 
L 209.986364 214.378261 
L 213.790909 202.086032 
L 217.595455 210.756994 
L 221.4 205.1094 
L 225.204545 205.858062 
L 229.009091 205.017773 
L 232.813636 218.689251 
L 236.618182 207.309973 
L 240.422727 223.655901 
L 244.227273 216.616989 
L 248.031818 219.143645 
L 251.836364 219.451237 
L 255.640909 221.86499 
L 259.445455 224.644409 
L 263.25 229.727884 
L 267.054545 224.804551 
L 270.859091 228.62315 
L 274.663636 220.167673 
L 278.468182 218.15063 
L 282.272727 221.688789 
L 286.077273 216.807243 
L 289.881818 212.560176 
L 293.686364 213.779571 
L 297.490909 230.315332 
L 301.295455 226.800095 
L 305.1 225.828552 
L 308.904545 225.144672 
L 312.709091 231.620351 
L 316.513636 226.69273 
L 320.318182 218.533208 
L 324.122727 224.23379 
L 327.927273 218.170382 
L 331.731818 232.171516 
L 335.536364 224.589404 
L 339.340909 219.447806 
L 343.145455 225.271546 
L 346.95 226.77737 
L 350.754545 217.420698 
L 354.559091 224.085832 
L 358.363636 232.608521 
L 362.168182 232.53532 
L 365.972727 225.895747 
L 369.777273 229.501097 
L 373.581818 230.180818 
" clip-path="url(#p91a22db0bd)" style="fill: none; stroke: #c20017; stroke-width: 1.5; stroke-linecap: square"/>
   </g>
   <g id="line2d_15">
    <path d="M 69.218182 46.216862 
L 73.022727 46.27332 
L 76.827273 46.482081 
L 80.631818 46.780035 
L 84.436364 47.310852 
L 88.240909 49.127629 
L 92.045455 51.412783 
L 95.85 55.757699 
L 99.654545 58.863762 
L 103.459091 62.07078 
L 107.263636 65.547252 
L 111.068182 68.192526 
L 114.872727 69.862649 
L 118.677273 70.354454 
L 122.481818 72.73275 
L 126.286364 73.759239 
L 130.090909 75.968406 
L 133.895455 78.066511 
L 137.7 79.910711 
L 141.504545 82.219103 
L 145.309091 83.849174 
L 149.113636 83.935004 
L 152.918182 88.779298 
L 156.722727 91.193595 
L 160.527273 93.593993 
L 164.331818 92.083875 
L 168.136364 96.576845 
L 171.940909 98.493031 
L 175.745455 98.39514 
L 179.55 101.196537 
L 183.354545 99.57558 
L 187.159091 102.75298 
L 190.963636 101.915579 
L 194.768182 102.726801 
L 198.572727 103.129297 
L 202.377273 104.110532 
L 206.181818 105.323641 
L 209.986364 104.906831 
L 213.790909 104.984238 
L 217.595455 106.772712 
L 221.4 105.844528 
L 225.204545 105.45579 
L 229.009091 109.788029 
L 232.813636 112.319051 
L 236.618182 113.958415 
L 240.422727 113.154667 
L 244.227273 113.394278 
L 248.031818 118.148523 
L 251.836364 117.277295 
L 255.640909 117.914602 
L 259.445455 119.657432 
L 263.25 121.622502 
L 267.054545 119.012952 
L 270.859091 120.911804 
L 274.663636 120.453083 
L 278.468182 119.605159 
L 282.272727 123.154911 
L 286.077273 123.462612 
L 289.881818 123.112102 
L 293.686364 123.33307 
L 297.490909 125.557052 
L 301.295455 124.741924 
L 305.1 127.101575 
L 308.904545 123.573741 
L 312.709091 124.446207 
L 316.513636 125.702673 
L 320.318182 125.719606 
L 324.122727 128.302989 
L 327.927273 127.454516 
L 331.731818 124.451275 
L 335.536364 127.518946 
L 339.340909 125.112796 
L 343.145455 124.953126 
L 346.95 129.177131 
L 350.754545 126.628977 
L 354.559091 128.411836 
L 358.363636 131.026715 
L 362.168182 130.931194 
L 365.972727 127.530981 
L 369.777273 129.704521 
L 373.581818 133.4371 
" clip-path="url(#p91a22db0bd)" style="fill: none; stroke: #cac100; stroke-width: 1.5; stroke-linecap: square"/>
   </g>
   <g id="line2d_16">
    <path d="M 69.218182 46.217366 
L 73.022727 46.224937 
L 76.827273 46.270298 
L 80.631818 46.980673 
L 84.436364 49.179932 
L 88.240909 51.520668 
L 92.045455 56.423102 
L 95.85 60.547187 
L 99.654545 66.267359 
L 103.459091 71.279011 
L 107.263636 76.143967 
L 111.068182 76.335607 
L 114.872727 81.0321 
L 118.677273 82.965789 
L 122.481818 90.77883 
L 126.286364 91.47388 
L 130.090909 92.675409 
L 133.895455 97.851477 
L 137.7 100.594147 
L 141.504545 105.888935 
L 145.309091 104.767585 
L 149.113636 116.804864 
L 152.918182 116.560883 
L 156.722727 115.840852 
L 160.527273 120.784711 
L 164.331818 129.398717 
L 168.136364 120.619237 
L 171.940909 129.686393 
L 175.745455 126.368993 
L 179.55 127.008803 
L 183.354545 131.476959 
L 187.159091 138.786072 
L 190.963636 136.261591 
L 194.768182 137.763314 
L 198.572727 145.176073 
L 202.377273 146.674141 
L 206.181818 145.991881 
L 209.986364 151.193991 
L 213.790909 152.359895 
L 217.595455 152.819178 
L 221.4 150.795252 
L 225.204545 153.263375 
L 229.009091 158.461741 
L 232.813636 161.746067 
L 236.618182 158.334475 
L 240.422727 161.046416 
L 244.227273 160.594753 
L 248.031818 161.993075 
L 251.836364 165.874805 
L 255.640909 165.722172 
L 259.445455 169.208829 
L 263.25 172.55934 
L 267.054545 169.325138 
L 270.859091 172.327358 
L 274.663636 169.552535 
L 278.468182 171.225026 
L 282.272727 175.833651 
L 286.077273 177.714918 
L 289.881818 174.668544 
L 293.686364 174.156935 
L 297.490909 173.251157 
L 301.295455 173.849635 
L 305.1 175.579818 
L 308.904545 174.357347 
L 312.709091 174.5516 
L 316.513636 179.202419 
L 320.318182 173.32503 
L 324.122727 180.371035 
L 327.927273 180.784887 
L 331.731818 182.389526 
L 335.536364 180.786087 
L 339.340909 181.044268 
L 343.145455 181.120192 
L 346.95 179.87534 
L 350.754545 180.000471 
L 354.559091 183.364842 
L 358.363636 187.928121 
L 362.168182 182.512592 
L 365.972727 187.180917 
L 369.777273 187.141575 
L 373.581818 188.53492 
" clip-path="url(#p91a22db0bd)" style="fill: none; stroke: #23aa00; stroke-width: 1.5; stroke-linecap: square"/>
   </g>
   <g id="patch_3">
    <path d="M 54 256.32 
L 54 34.56 
" style="fill: none; stroke: #000000; stroke-width: 0.8; stroke-linejoin: miter; stroke-linecap: square"/>
   </g>
   <g id="patch_4">
    <path d="M 54 256.32 
L 388.8 256.32 
" style="fill: none; stroke: #000000; stroke-width: 0.8; stroke-linejoin: miter; stroke-linecap: square"/>
   </g>
   <g id="text_16">
    <!-- Cue Accumulation -->
    <g transform="translate(101.556375 28.56) scale(0.264 -0.264)">
     <defs>
      <path id="DejaVuSans-75" d="M 544 1381 
L 544 3500 
L 1119 3500 
L 1119 1403 
Q 1119 906 1312 657 
Q 1506 409 1894 409 
Q 2359 409 2629 706 
Q 2900 1003 2900 1516 
L 2900 3500 
L 3475 3500 
L 3475 0 
L 2900 0 
L 2900 538 
Q 2691 219 2414 64 
Q 2138 -91 1772 -91 
Q 1169 -91 856 284 
Q 544 659 544 1381 
z
M 1991 3584 
L 1991 3584 
z
" transform="scale(0.015625)"/>
      <path id="DejaVuSans-20" transform="scale(0.015625)"/>
      <path id="DejaVuSans-41" d="M 2188 4044 
L 1331 1722 
L 3047 1722 
L 2188 4044 
z
M 1831 4666 
L 2547 4666 
L 4325 0 
L 3669 0 
L 3244 1197 
L 1141 1197 
L 716 0 
L 50 0 
L 1831 4666 
z
" transform="scale(0.015625)"/>
      <path id="DejaVuSans-63" d="M 3122 3366 
L 3122 2828 
Q 2878 2963 2633 3030 
Q 2388 3097 2138 3097 
Q 1578 3097 1268 2742 
Q 959 2388 959 1747 
Q 959 1106 1268 751 
Q 1578 397 2138 397 
Q 2388 397 2633 464 
Q 2878 531 3122 666 
L 3122 134 
Q 2881 22 2623 -34 
Q 2366 -91 2075 -91 
Q 1284 -91 818 406 
Q 353 903 353 1747 
Q 353 2603 823 3093 
Q 1294 3584 2113 3584 
Q 2378 3584 2631 3529 
Q 2884 3475 3122 3366 
z
" transform="scale(0.015625)"/>
      <path id="DejaVuSans-6d" d="M 3328 2828 
Q 3544 3216 3844 3400 
Q 4144 3584 4550 3584 
Q 5097 3584 5394 3201 
Q 5691 2819 5691 2113 
L 5691 0 
L 5113 0 
L 5113 2094 
Q 5113 2597 4934 2840 
Q 4756 3084 4391 3084 
Q 3944 3084 3684 2787 
Q 3425 2491 3425 1978 
L 3425 0 
L 2847 0 
L 2847 2094 
Q 2847 2600 2669 2842 
Q 2491 3084 2119 3084 
Q 1678 3084 1418 2786 
Q 1159 2488 1159 1978 
L 1159 0 
L 581 0 
L 581 3500 
L 1159 3500 
L 1159 2956 
Q 1356 3278 1631 3431 
Q 1906 3584 2284 3584 
Q 2666 3584 2933 3390 
Q 3200 3197 3328 2828 
z
" transform="scale(0.015625)"/>
      <path id="DejaVuSans-6c" d="M 603 4863 
L 1178 4863 
L 1178 0 
L 603 0 
L 603 4863 
z
" transform="scale(0.015625)"/>
     </defs>
     <use xlink:href="#DejaVuSans-43"/>
     <use xlink:href="#DejaVuSans-75" x="69.824219"/>
     <use xlink:href="#DejaVuSans-65" x="133.203125"/>
     <use xlink:href="#DejaVuSans-20" x="194.726562"/>
     <use xlink:href="#DejaVuSans-41" x="226.513672"/>
     <use xlink:href="#DejaVuSans-63" x="293.171875"/>
     <use xlink:href="#DejaVuSans-63" x="348.152344"/>
     <use xlink:href="#DejaVuSans-75" x="403.132812"/>
     <use xlink:href="#DejaVuSans-6d" x="466.511719"/>
     <use xlink:href="#DejaVuSans-75" x="563.923828"/>
     <use xlink:href="#DejaVuSans-6c" x="627.302734"/>
     <use xlink:href="#DejaVuSans-61" x="655.085938"/>
     <use xlink:href="#DejaVuSans-74" x="716.365234"/>
     <use xlink:href="#DejaVuSans-69" x="755.574219"/>
     <use xlink:href="#DejaVuSans-6f" x="783.357422"/>
     <use xlink:href="#DejaVuSans-6e" x="844.539062"/>
    </g>
   </g>
   <g id="legend_1">
    <g id="patch_5">
     <path d="M 205.54 149.035625 
L 373.4 149.035625 
Q 377.8 149.035625 377.8 144.635625 
L 377.8 49.96 
Q 377.8 45.56 373.4 45.56 
L 205.54 45.56 
Q 201.14 45.56 201.14 49.96 
L 201.14 144.635625 
Q 201.14 149.035625 205.54 149.035625 
z
" style="fill: #ffffff; opacity: 0.8; stroke: #cccccc; stroke-linejoin: miter"/>
    </g>
    <g id="line2d_17">
     <path d="M 209.94 63.376563 
L 231.94 63.376563 
L 253.94 63.376563 
" style="fill: none; stroke: #c20017; stroke-width: 1.5; stroke-linecap: square"/>
    </g>
    <g id="text_17">
     <!-- BPTT -->
     <g transform="translate(271.54 71.076563) scale(0.22 -0.22)">
      <defs>
       <path id="DejaVuSans-42" d="M 1259 2228 
L 1259 519 
L 2272 519 
Q 2781 519 3026 730 
Q 3272 941 3272 1375 
Q 3272 1813 3026 2020 
Q 2781 2228 2272 2228 
L 1259 2228 
z
M 1259 4147 
L 1259 2741 
L 2194 2741 
Q 2656 2741 2882 2914 
Q 3109 3088 3109 3444 
Q 3109 3797 2882 3972 
Q 2656 4147 2194 4147 
L 1259 4147 
z
M 628 4666 
L 2241 4666 
Q 2963 4666 3353 4366 
Q 3744 4066 3744 3513 
Q 3744 3084 3544 2831 
Q 3344 2578 2956 2516 
Q 3422 2416 3680 2098 
Q 3938 1781 3938 1306 
Q 3938 681 3513 340 
Q 3088 0 2303 0 
L 628 0 
L 628 4666 
z
" transform="scale(0.015625)"/>
       <path id="DejaVuSans-50" d="M 1259 4147 
L 1259 2394 
L 2053 2394 
Q 2494 2394 2734 2622 
Q 2975 2850 2975 3272 
Q 2975 3691 2734 3919 
Q 2494 4147 2053 4147 
L 1259 4147 
z
M 628 4666 
L 2053 4666 
Q 2838 4666 3239 4311 
Q 3641 3956 3641 3272 
Q 3641 2581 3239 2228 
Q 2838 1875 2053 1875 
L 1259 1875 
L 1259 0 
L 628 0 
L 628 4666 
z
" transform="scale(0.015625)"/>
       <path id="DejaVuSans-54" d="M -19 4666 
L 3928 4666 
L 3928 4134 
L 2272 4134 
L 2272 0 
L 1638 0 
L 1638 4134 
L -19 4134 
L -19 4666 
z
" transform="scale(0.015625)"/>
      </defs>
      <use xlink:href="#DejaVuSans-42"/>
      <use xlink:href="#DejaVuSans-50" x="68.603516"/>
      <use xlink:href="#DejaVuSans-54" x="128.90625"/>
      <use xlink:href="#DejaVuSans-54" x="188.240234"/>
     </g>
    </g>
    <g id="line2d_18">
     <path d="M 209.94 95.668438 
L 231.94 95.668438 
L 253.94 95.668438 
" style="fill: none; stroke: #cac100; stroke-width: 1.5; stroke-linecap: square"/>
    </g>
    <g id="text_18">
     <!-- E-prop -->
     <g transform="translate(271.54 103.368438) scale(0.22 -0.22)">
      <use xlink:href="#DejaVuSans-45"/>
      <use xlink:href="#DejaVuSans-2d" x="63.183594"/>
      <use xlink:href="#DejaVuSans-70" x="99.267578"/>
      <use xlink:href="#DejaVuSans-72" x="162.744141"/>
      <use xlink:href="#DejaVuSans-6f" x="201.607422"/>
      <use xlink:href="#DejaVuSans-70" x="262.789062"/>
     </g>
    </g>
    <g id="line2d_19">
     <path d="M 209.94 127.960313 
L 231.94 127.960313 
L 253.94 127.960313 
" style="fill: none; stroke: #23aa00; stroke-width: 1.5; stroke-linecap: square"/>
    </g>
    <g id="text_19">
     <!-- Diffusion -->
     <g transform="translate(271.54 135.660313) scale(0.22 -0.22)">
      <defs>
       <path id="DejaVuSans-44" d="M 1259 4147 
L 1259 519 
L 2022 519 
Q 2988 519 3436 956 
Q 3884 1394 3884 2338 
Q 3884 3275 3436 3711 
Q 2988 4147 2022 4147 
L 1259 4147 
z
M 628 4666 
L 1925 4666 
Q 3281 4666 3915 4102 
Q 4550 3538 4550 2338 
Q 4550 1131 3912 565 
Q 3275 0 1925 0 
L 628 0 
L 628 4666 
z
" transform="scale(0.015625)"/>
       <path id="DejaVuSans-66" d="M 2375 4863 
L 2375 4384 
L 1825 4384 
Q 1516 4384 1395 4259 
Q 1275 4134 1275 3809 
L 1275 3500 
L 2222 3500 
L 2222 3053 
L 1275 3053 
L 1275 0 
L 697 0 
L 697 3053 
L 147 3053 
L 147 3500 
L 697 3500 
L 697 3744 
Q 697 4328 969 4595 
Q 1241 4863 1831 4863 
L 2375 4863 
z
" transform="scale(0.015625)"/>
      </defs>
      <use xlink:href="#DejaVuSans-44"/>
      <use xlink:href="#DejaVuSans-69" x="77.001953"/>
      <use xlink:href="#DejaVuSans-66" x="104.785156"/>
      <use xlink:href="#DejaVuSans-66" x="139.990234"/>
      <use xlink:href="#DejaVuSans-75" x="175.195312"/>
      <use xlink:href="#DejaVuSans-73" x="238.574219"/>
      <use xlink:href="#DejaVuSans-69" x="290.673828"/>
      <use xlink:href="#DejaVuSans-6f" x="318.457031"/>
      <use xlink:href="#DejaVuSans-6e" x="379.638672"/>
     </g>
    </g>
   </g>
  </g>
 </g>
 <defs>
  <clipPath id="p91a22db0bd">
   <rect x="54" y="34.56" width="334.8" height="221.76"/>
  </clipPath>
 </defs>
</svg>
