<?xml version="1.0" encoding="utf-8" standalone="no"?>
<!DOCTYPE svg PUBLIC "-//W3C//DTD SVG 1.1//EN"
  "http://www.w3.org/Graphics/SVG/1.1/DTD/svg11.dtd">
<svg xmlns:xlink="http://www.w3.org/1999/xlink" width="432pt" height="288pt" viewBox="0 0 432 288" xmlns="http://www.w3.org/2000/svg" version="1.1">
 <metadata>
  <rdf:RDF xmlns:dc="http://purl.org/dc/elements/1.1/" xmlns:cc="http://creativecommons.org/ns#" xmlns:rdf="http://www.w3.org/1999/02/22-rdf-syntax-ns#">
   <cc:Work>
    <dc:type rdf:resource="http://purl.org/dc/dcmitype/StillImage"/>
    <dc:date>2024-11-13T12:01:34.034009</dc:date>
    <dc:format>image/svg+xml</dc:format>
    <dc:creator>
     <cc:Agent>
      <dc:title>Matplotlib v3.8.4, https://matplotlib.org/</dc:title>
     </cc:Agent>
    </dc:creator>
   </cc:Work>
  </rdf:RDF>
 </metadata>
 <defs>
  <style type="text/css">*{stroke-linejoin: round; stroke-linecap: butt}</style>
 </defs>
 <g id="figure_1">
  <g id="patch_1">
   <path d="M 0 288 
L 432 288 
L 432 0 
L 0 0 
z
" style="fill: #ffffff"/>
  </g>
  <g id="axes_1">
   <g id="patch_2">
    <path d="M 54 256.32 
L 388.8 256.32 
L 388.8 34.56 
L 54 34.56 
z
" style="fill: #ffffff"/>
   </g>
   <g id="PolyCollection_1">
    <defs>
     <path id="m724bb80725" d="M 69.218182 -240.813263 
L 69.218182 -240.811724 
L 73.022727 -240.808228 
L 76.827273 -228.111013 
L 80.631818 -215.405309 
L 84.436364 -198.412364 
L 88.240909 -180.939966 
L 92.045455 -168.17312 
L 95.85 -151.74409 
L 99.654545 -133.304858 
L 103.459091 -105.114619 
L 107.263636 -90.769879 
L 111.068182 -78.353191 
L 114.872727 -80.675157 
L 118.677273 -67.392225 
L 122.481818 -63.893099 
L 126.286364 -57.874532 
L 130.090909 -51.795081 
L 133.895455 -55.515027 
L 137.7 -51.084323 
L 141.504545 -51.917939 
L 145.309091 -50.301879 
L 149.113636 -46.296676 
L 152.918182 -47.463098 
L 156.722727 -44.895227 
L 160.527273 -45.739913 
L 164.331818 -43.743876 
L 168.136364 -43.434874 
L 171.940909 -43.424632 
L 175.745455 -41.524607 
L 179.55 -40.436145 
L 183.354545 -42.464003 
L 187.159091 -41.47643 
L 190.963636 -39.128079 
L 194.768182 -39.314882 
L 198.572727 -40.214471 
L 202.377273 -38.547941 
L 206.181818 -37.750202 
L 209.986364 -38.881648 
L 213.790909 -37.287737 
L 217.595455 -38.183314 
L 221.4 -37.707775 
L 225.204545 -37.181234 
L 229.009091 -37.337262 
L 232.813636 -36.664343 
L 236.618182 -36.310153 
L 240.422727 -37.4423 
L 244.227273 -36.402995 
L 248.031818 -35.756412 
L 251.836364 -36.946925 
L 255.640909 -36.411982 
L 259.445455 -36.209704 
L 263.25 -36.127949 
L 267.054545 -35.207646 
L 270.859091 -36.123313 
L 274.663636 -35.403191 
L 278.468182 -35.823705 
L 282.272727 -35.13411 
L 286.077273 -35.188205 
L 289.881818 -34.614278 
L 293.686364 -35.281981 
L 297.490909 -34.472747 
L 301.295455 -35.06163 
L 305.1 -34.443887 
L 308.904545 -34.450871 
L 312.709091 -34.53318 
L 316.513636 -34.262989 
L 320.318182 -34.110271 
L 324.122727 -34.200864 
L 327.927273 -34.849896 
L 331.731818 -34.195592 
L 335.536364 -33.985084 
L 339.340909 -33.833936 
L 343.145455 -33.931527 
L 346.95 -33.852831 
L 350.754545 -33.685581 
L 354.559091 -33.47265 
L 358.363636 -33.827939 
L 362.168182 -33.81198 
L 365.972727 -33.536539 
L 369.777273 -33.64553 
L 373.581818 -33.688026 
L 373.581818 -38.702793 
L 373.581818 -38.702793 
L 369.777273 -39.034186 
L 365.972727 -42.311386 
L 362.168182 -43.337078 
L 358.363636 -63.358598 
L 354.559091 -39.482486 
L 350.754545 -37.364588 
L 346.95 -42.527459 
L 343.145455 -38.988188 
L 339.340909 -38.083825 
L 335.536364 -36.375052 
L 331.731818 -40.258702 
L 327.927273 -53.044533 
L 324.122727 -78.673406 
L 320.318182 -44.411314 
L 316.513636 -44.005786 
L 312.709091 -41.088539 
L 308.904545 -46.546011 
L 305.1 -46.47018 
L 301.295455 -55.601926 
L 297.490909 -57.172891 
L 293.686364 -46.2316 
L 289.881818 -57.136493 
L 286.077273 -68.992907 
L 282.272727 -231.312656 
L 278.468182 -95.551625 
L 274.663636 -103.144467 
L 270.859091 -145.656285 
L 267.054545 -154.932583 
L 263.25 -156.618287 
L 259.445455 -198.403353 
L 255.640909 -70.727172 
L 251.836364 -55.146925 
L 248.031818 -68.381044 
L 244.227273 -45.8575 
L 240.422727 -46.114123 
L 236.618182 -52.798112 
L 232.813636 -43.118129 
L 229.009091 -44.449628 
L 225.204545 -47.705917 
L 221.4 -41.801322 
L 217.595455 -49.372313 
L 213.790909 -50.240747 
L 209.986364 -51.886711 
L 206.181818 -63.68391 
L 202.377273 -63.16805 
L 198.572727 -59.418271 
L 194.768182 -50.689259 
L 190.963636 -80.468058 
L 187.159091 -69.17889 
L 183.354545 -84.79031 
L 179.55 -68.806564 
L 175.745455 -86.042576 
L 171.940909 -94.602039 
L 168.136364 -116.884654 
L 164.331818 -68.261759 
L 160.527273 -97.631442 
L 156.722727 -136.057828 
L 152.918182 -103.133963 
L 149.113636 -90.750728 
L 145.309091 -107.421085 
L 141.504545 -162.957324 
L 137.7 -102.987992 
L 133.895455 -137.501092 
L 130.090909 -99.420006 
L 126.286364 -117.581324 
L 122.481818 -149.440648 
L 118.677273 -172.197805 
L 114.872727 -117.933683 
L 111.068182 -160.981009 
L 107.263636 -180.515859 
L 103.459091 -189.634992 
L 99.654545 -187.380297 
L 95.85 -183.989643 
L 92.045455 -211.866764 
L 88.240909 -249.290176 
L 84.436364 -211.265861 
L 80.631818 -227.616223 
L 76.827273 -238.727593 
L 73.022727 -240.818401 
L 69.218182 -240.813263 
z
" style="stroke: #c20017; stroke-opacity: 0.4"/>
    </defs>
    <g clip-path="url(#p4940672d55)">
     <use xlink:href="#m724bb80725" x="0" y="288" style="fill: #c20017; fill-opacity: 0.4; stroke: #c20017; stroke-opacity: 0.4"/>
    </g>
   </g>
   <g id="PolyCollection_2">
    <defs>
     <path id="m7d0a8d8ed3" d="M 69.218182 -240.812987 
L 69.218182 -240.811733 
L 73.022727 -240.808936 
L 76.827273 -240.531373 
L 80.631818 -240.635001 
L 84.436364 -240.779491 
L 88.240909 -240.729499 
L 92.045455 -240.387515 
L 95.85 -240.147758 
L 99.654545 -239.20728 
L 103.459091 -236.761116 
L 107.263636 -232.043232 
L 111.068182 -220.596747 
L 114.872727 -210.823535 
L 118.677273 -207.136736 
L 122.481818 -203.807892 
L 126.286364 -200.598162 
L 130.090909 -200.767043 
L 133.895455 -199.051888 
L 137.7 -202.610689 
L 141.504545 -195.093343 
L 145.309091 -194.912401 
L 149.113636 -190.66642 
L 152.918182 -192.47312 
L 156.722727 -191.393245 
L 160.527273 -181.953607 
L 164.331818 -177.440644 
L 168.136364 -178.223925 
L 171.940909 -174.779535 
L 175.745455 -173.872989 
L 179.55 -181.2837 
L 183.354545 -183.898783 
L 187.159091 -177.987512 
L 190.963636 -177.93571 
L 194.768182 -170.812224 
L 198.572727 -166.838387 
L 202.377273 -163.037859 
L 206.181818 -160.694523 
L 209.986364 -160.458657 
L 213.790909 -154.0849 
L 217.595455 -151.771454 
L 221.4 -153.043448 
L 225.204545 -151.904428 
L 229.009091 -149.582823 
L 232.813636 -147.691138 
L 236.618182 -147.062586 
L 240.422727 -144.325573 
L 244.227273 -140.988921 
L 248.031818 -147.708039 
L 251.836364 -147.046047 
L 255.640909 -152.595493 
L 259.445455 -159.319633 
L 263.25 -152.279392 
L 267.054545 -151.709245 
L 270.859091 -154.582993 
L 274.663636 -146.986137 
L 278.468182 -152.613078 
L 282.272727 -151.169653 
L 286.077273 -153.210164 
L 289.881818 -153.82366 
L 293.686364 -154.260475 
L 297.490909 -156.810465 
L 301.295455 -156.670212 
L 305.1 -149.397796 
L 308.904545 -155.097964 
L 312.709091 -148.960845 
L 316.513636 -149.954614 
L 320.318182 -144.592941 
L 324.122727 -150.329942 
L 327.927273 -138.5947 
L 331.731818 -142.958068 
L 335.536364 -150.241921 
L 339.340909 -149.956841 
L 343.145455 -140.535559 
L 346.95 -138.40256 
L 350.754545 -140.954309 
L 354.559091 -139.079162 
L 358.363636 -134.971064 
L 362.168182 -137.774203 
L 365.972727 -131.112847 
L 369.777273 -139.664632 
L 373.581818 -127.611731 
L 373.581818 -236.131257 
L 373.581818 -236.131257 
L 369.777273 -236.18016 
L 365.972727 -235.618891 
L 362.168182 -235.85162 
L 358.363636 -237.122411 
L 354.559091 -237.143728 
L 350.754545 -237.25068 
L 346.95 -237.149946 
L 343.145455 -236.662173 
L 339.340909 -236.098495 
L 335.536364 -236.784252 
L 331.731818 -236.80526 
L 327.927273 -236.527824 
L 324.122727 -237.162372 
L 320.318182 -237.753225 
L 316.513636 -237.023275 
L 312.709091 -237.76611 
L 308.904545 -238.773482 
L 305.1 -237.476157 
L 301.295455 -237.589212 
L 297.490909 -237.809287 
L 293.686364 -237.746222 
L 289.881818 -238.374523 
L 286.077273 -239.332174 
L 282.272727 -238.440012 
L 278.468182 -238.414481 
L 274.663636 -238.222648 
L 270.859091 -238.586834 
L 267.054545 -237.61125 
L 263.25 -238.036567 
L 259.445455 -238.424353 
L 255.640909 -237.43704 
L 251.836364 -237.629669 
L 248.031818 -238.754458 
L 244.227273 -238.438176 
L 240.422727 -238.812724 
L 236.618182 -239.861195 
L 232.813636 -239.172467 
L 229.009091 -240.030105 
L 225.204545 -239.88886 
L 221.4 -240.328757 
L 217.595455 -240.455881 
L 213.790909 -240.656672 
L 209.986364 -240.690557 
L 206.181818 -240.667163 
L 202.377273 -240.678574 
L 198.572727 -240.699424 
L 194.768182 -240.675788 
L 190.963636 -240.796102 
L 187.159091 -240.804704 
L 183.354545 -240.770788 
L 179.55 -240.496902 
L 175.745455 -240.563473 
L 171.940909 -240.56944 
L 168.136364 -240.636115 
L 164.331818 -240.43636 
L 160.527273 -240.498045 
L 156.722727 -240.729421 
L 152.918182 -240.63363 
L 149.113636 -240.613812 
L 145.309091 -240.616879 
L 141.504545 -240.738782 
L 137.7 -240.72835 
L 133.895455 -240.922586 
L 130.090909 -240.830033 
L 126.286364 -241.416818 
L 122.481818 -240.824566 
L 118.677273 -240.948533 
L 114.872727 -240.812342 
L 111.068182 -240.913913 
L 107.263636 -240.799584 
L 103.459091 -240.780931 
L 99.654545 -241.076404 
L 95.85 -241.087841 
L 92.045455 -241.053154 
L 88.240909 -241.259132 
L 84.436364 -241.191212 
L 80.631818 -241.462784 
L 76.827273 -241.023367 
L 73.022727 -240.817308 
L 69.218182 -240.812987 
z
" style="stroke: #cac100; stroke-opacity: 0.4"/>
    </defs>
    <g clip-path="url(#p4940672d55)">
     <use xlink:href="#m7d0a8d8ed3" x="0" y="288" style="fill: #cac100; fill-opacity: 0.4; stroke: #cac100; stroke-opacity: 0.4"/>
    </g>
   </g>
   <g id="PolyCollection_3">
    <defs>
     <path id="mcd9bf600db" d="M 69.218182 -240.813372 
L 69.218182 -240.81175 
L 73.022727 -240.809606 
L 76.827273 -240.801078 
L 80.631818 -234.031978 
L 84.436364 -219.693105 
L 88.240909 -208.732286 
L 92.045455 -199.742281 
L 95.85 -179.530571 
L 99.654545 -168.623841 
L 103.459091 -168.375365 
L 107.263636 -156.879649 
L 111.068182 -150.447846 
L 114.872727 -147.849471 
L 118.677273 -145.238363 
L 122.481818 -145.346117 
L 126.286364 -135.107489 
L 130.090909 -130.27188 
L 133.895455 -123.292674 
L 137.7 -119.731916 
L 141.504545 -101.663032 
L 145.309091 -88.989816 
L 149.113636 -91.692549 
L 152.918182 -86.351279 
L 156.722727 -79.656969 
L 160.527273 -73.133279 
L 164.331818 -77.475614 
L 168.136364 -95.82771 
L 171.940909 -92.091847 
L 175.745455 -77.952388 
L 179.55 -75.375497 
L 183.354545 -92.198046 
L 187.159091 -89.23262 
L 190.963636 -87.314814 
L 194.768182 -80.859269 
L 198.572727 -83.298495 
L 202.377273 -78.583859 
L 206.181818 -104.951599 
L 209.986364 -93.115702 
L 213.790909 -89.590287 
L 217.595455 -82.070849 
L 221.4 -75.648044 
L 225.204545 -91.21575 
L 229.009091 -87.763582 
L 232.813636 -96.363224 
L 236.618182 -91.889665 
L 240.422727 -86.670283 
L 244.227273 -85.087238 
L 248.031818 -85.887969 
L 251.836364 -82.164217 
L 255.640909 -85.696614 
L 259.445455 -78.605733 
L 263.25 -73.773351 
L 267.054545 -77.312833 
L 270.859091 -81.544069 
L 274.663636 -80.15385 
L 278.468182 -84.478497 
L 282.272727 -79.049208 
L 286.077273 -84.156197 
L 289.881818 -79.376373 
L 293.686364 -77.849533 
L 297.490909 -75.160536 
L 301.295455 -72.39672 
L 305.1 -71.400449 
L 308.904545 -72.353922 
L 312.709091 -71.044907 
L 316.513636 -73.474987 
L 320.318182 -69.145263 
L 324.122727 -72.001661 
L 327.927273 -68.829332 
L 331.731818 -66.07587 
L 335.536364 -68.293844 
L 339.340909 -63.212357 
L 343.145455 -63.154439 
L 346.95 -63.18971 
L 350.754545 -65.254789 
L 354.559091 -69.336856 
L 358.363636 -64.250572 
L 362.168182 -75.081458 
L 365.972727 -66.805567 
L 369.777273 -66.722796 
L 373.581818 -57.949119 
L 373.581818 -115.261191 
L 373.581818 -115.261191 
L 369.777273 -101.944767 
L 365.972727 -96.29183 
L 362.168182 -123.59307 
L 358.363636 -98.988364 
L 354.559091 -99.956047 
L 350.754545 -103.073357 
L 346.95 -109.111027 
L 343.145455 -152.002315 
L 339.340909 -111.832341 
L 335.536364 -166.761773 
L 331.731818 -153.817391 
L 327.927273 -165.390837 
L 324.122727 -105.613744 
L 320.318182 -97.704218 
L 316.513636 -107.080713 
L 312.709091 -143.23236 
L 308.904545 -122.063578 
L 305.1 -134.779831 
L 301.295455 -108.58308 
L 297.490909 -114.920817 
L 293.686364 -106.55213 
L 289.881818 -124.744208 
L 286.077273 -137.805374 
L 282.272727 -134.349485 
L 278.468182 -161.080104 
L 274.663636 -153.065645 
L 270.859091 -149.381625 
L 267.054545 -156.273962 
L 263.25 -123.114374 
L 259.445455 -124.012235 
L 255.640909 -121.285639 
L 251.836364 -118.566095 
L 248.031818 -126.868454 
L 244.227273 -125.371713 
L 240.422727 -117.215165 
L 236.618182 -128.735772 
L 232.813636 -148.48082 
L 229.009091 -125.266214 
L 225.204545 -156.55719 
L 221.4 -137.224071 
L 217.595455 -128.12949 
L 213.790909 -127.817703 
L 209.986364 -145.005711 
L 206.181818 -140.641335 
L 202.377273 -170.860134 
L 198.572727 -160.208929 
L 194.768182 -191.334848 
L 190.963636 -198.20471 
L 187.159091 -164.116323 
L 183.354545 -172.621676 
L 179.55 -182.501125 
L 175.745455 -210.196211 
L 171.940909 -226.501529 
L 168.136364 -157.343943 
L 164.331818 -171.733657 
L 160.527273 -193.608779 
L 156.722727 -215.870595 
L 152.918182 -212.397868 
L 149.113636 -213.91351 
L 145.309091 -199.307426 
L 141.504545 -260.824033 
L 137.7 -208.294128 
L 133.895455 -231.125186 
L 130.090909 -247.300485 
L 126.286364 -217.632215 
L 122.481818 -239.911683 
L 118.677273 -233.327664 
L 114.872727 -232.615416 
L 111.068182 -237.389687 
L 107.263636 -231.503052 
L 103.459091 -227.187445 
L 99.654545 -213.002009 
L 95.85 -219.73904 
L 92.045455 -226.260744 
L 88.240909 -239.696547 
L 84.436364 -239.181454 
L 80.631818 -240.749532 
L 76.827273 -240.817599 
L 73.022727 -240.815207 
L 69.218182 -240.813372 
z
" style="stroke: #23aa00; stroke-opacity: 0.4"/>
    </defs>
    <g clip-path="url(#p4940672d55)">
     <use xlink:href="#mcd9bf600db" x="0" y="288" style="fill: #23aa00; fill-opacity: 0.4; stroke: #23aa00; stroke-opacity: 0.4"/>
    </g>
   </g>
   <g id="matplotlib.axis_1">
    <g id="xtick_1">
     <g id="line2d_1">
      <defs>
       <path id="m4b99638ae7" d="M 0 0 
L 0 3.5 
" style="stroke: #000000; stroke-width: 0.8"/>
      </defs>
      <g>
       <use xlink:href="#m4b99638ae7" x="69.218182" y="256.32" style="stroke: #000000; stroke-width: 0.8"/>
      </g>
     </g>
     <g id="text_1">
      <!-- 0 -->
      <g transform="translate(62.219432 280.036563) scale(0.22 -0.22)">
       <defs>
        <path id="DejaVuSans-30" d="M 2034 4250 
Q 1547 4250 1301 3770 
Q 1056 3291 1056 2328 
Q 1056 1369 1301 889 
Q 1547 409 2034 409 
Q 2525 409 2770 889 
Q 3016 1369 3016 2328 
Q 3016 3291 2770 3770 
Q 2525 4250 2034 4250 
z
M 2034 4750 
Q 2819 4750 3233 4129 
Q 3647 3509 3647 2328 
Q 3647 1150 3233 529 
Q 2819 -91 2034 -91 
Q 1250 -91 836 529 
Q 422 1150 422 2328 
Q 422 3509 836 4129 
Q 1250 4750 2034 4750 
z
" transform="scale(0.015625)"/>
       </defs>
       <use xlink:href="#DejaVuSans-30"/>
      </g>
     </g>
    </g>
    <g id="xtick_2">
     <g id="line2d_2">
      <g>
       <use xlink:href="#m4b99638ae7" x="145.309091" y="256.32" style="stroke: #000000; stroke-width: 0.8"/>
      </g>
     </g>
     <g id="text_2">
      <!-- 500 -->
      <g transform="translate(124.312841 280.036563) scale(0.22 -0.22)">
       <defs>
        <path id="DejaVuSans-35" d="M 691 4666 
L 3169 4666 
L 3169 4134 
L 1269 4134 
L 1269 2991 
Q 1406 3038 1543 3061 
Q 1681 3084 1819 3084 
Q 2600 3084 3056 2656 
Q 3513 2228 3513 1497 
Q 3513 744 3044 326 
Q 2575 -91 1722 -91 
Q 1428 -91 1123 -41 
Q 819 9 494 109 
L 494 744 
Q 775 591 1075 516 
Q 1375 441 1709 441 
Q 2250 441 2565 725 
Q 2881 1009 2881 1497 
Q 2881 1984 2565 2268 
Q 2250 2553 1709 2553 
Q 1456 2553 1204 2497 
Q 953 2441 691 2322 
L 691 4666 
z
" transform="scale(0.015625)"/>
       </defs>
       <use xlink:href="#DejaVuSans-35"/>
       <use xlink:href="#DejaVuSans-30" x="63.623047"/>
       <use xlink:href="#DejaVuSans-30" x="127.246094"/>
      </g>
     </g>
    </g>
    <g id="xtick_3">
     <g id="line2d_3">
      <g>
       <use xlink:href="#m4b99638ae7" x="221.4" y="256.32" style="stroke: #000000; stroke-width: 0.8"/>
      </g>
     </g>
     <g id="text_3">
      <!-- 1000 -->
      <g transform="translate(193.405 280.036563) scale(0.22 -0.22)">
       <defs>
        <path id="DejaVuSans-31" d="M 794 531 
L 1825 531 
L 1825 4091 
L 703 3866 
L 703 4441 
L 1819 4666 
L 2450 4666 
L 2450 531 
L 3481 531 
L 3481 0 
L 794 0 
L 794 531 
z
" transform="scale(0.015625)"/>
       </defs>
       <use xlink:href="#DejaVuSans-31"/>
       <use xlink:href="#DejaVuSans-30" x="63.623047"/>
       <use xlink:href="#DejaVuSans-30" x="127.246094"/>
       <use xlink:href="#DejaVuSans-30" x="190.869141"/>
      </g>
     </g>
    </g>
    <g id="xtick_4">
     <g id="line2d_4">
      <g>
       <use xlink:href="#m4b99638ae7" x="297.490909" y="256.32" style="stroke: #000000; stroke-width: 0.8"/>
      </g>
     </g>
     <g id="text_4">
      <!-- 1500 -->
      <g transform="translate(269.495909 280.036563) scale(0.22 -0.22)">
       <use xlink:href="#DejaVuSans-31"/>
       <use xlink:href="#DejaVuSans-35" x="63.623047"/>
       <use xlink:href="#DejaVuSans-30" x="127.246094"/>
       <use xlink:href="#DejaVuSans-30" x="190.869141"/>
      </g>
     </g>
    </g>
    <g id="xtick_5">
     <g id="line2d_5">
      <g>
       <use xlink:href="#m4b99638ae7" x="373.581818" y="256.32" style="stroke: #000000; stroke-width: 0.8"/>
      </g>
     </g>
     <g id="text_5">
      <!-- 2000 -->
      <g transform="translate(345.586818 280.036563) scale(0.22 -0.22)">
       <defs>
        <path id="DejaVuSans-32" d="M 1228 531 
L 3431 531 
L 3431 0 
L 469 0 
L 469 531 
Q 828 903 1448 1529 
Q 2069 2156 2228 2338 
Q 2531 2678 2651 2914 
Q 2772 3150 2772 3378 
Q 2772 3750 2511 3984 
Q 2250 4219 1831 4219 
Q 1534 4219 1204 4116 
Q 875 4013 500 3803 
L 500 4441 
Q 881 4594 1212 4672 
Q 1544 4750 1819 4750 
Q 2544 4750 2975 4387 
Q 3406 4025 3406 3419 
Q 3406 3131 3298 2873 
Q 3191 2616 2906 2266 
Q 2828 2175 2409 1742 
Q 1991 1309 1228 531 
z
" transform="scale(0.015625)"/>
       </defs>
       <use xlink:href="#DejaVuSans-32"/>
       <use xlink:href="#DejaVuSans-30" x="63.623047"/>
       <use xlink:href="#DejaVuSans-30" x="127.246094"/>
       <use xlink:href="#DejaVuSans-30" x="190.869141"/>
      </g>
     </g>
    </g>
    <g id="text_6">
     <!-- Iterations -->
     <g transform="translate(169.010781 305.328438) scale(0.22 -0.22)">
      <defs>
       <path id="DejaVuSans-49" d="M 628 4666 
L 1259 4666 
L 1259 0 
L 628 0 
L 628 4666 
z
" transform="scale(0.015625)"/>
       <path id="DejaVuSans-74" d="M 1172 4494 
L 1172 3500 
L 2356 3500 
L 2356 3053 
L 1172 3053 
L 1172 1153 
Q 1172 725 1289 603 
Q 1406 481 1766 481 
L 2356 481 
L 2356 0 
L 1766 0 
Q 1100 0 847 248 
Q 594 497 594 1153 
L 594 3053 
L 172 3053 
L 172 3500 
L 594 3500 
L 594 4494 
L 1172 4494 
z
" transform="scale(0.015625)"/>
       <path id="DejaVuSans-65" d="M 3597 1894 
L 3597 1613 
L 953 1613 
Q 991 1019 1311 708 
Q 1631 397 2203 397 
Q 2534 397 2845 478 
Q 3156 559 3463 722 
L 3463 178 
Q 3153 47 2828 -22 
Q 2503 -91 2169 -91 
Q 1331 -91 842 396 
Q 353 884 353 1716 
Q 353 2575 817 3079 
Q 1281 3584 2069 3584 
Q 2775 3584 3186 3129 
Q 3597 2675 3597 1894 
z
M 3022 2063 
Q 3016 2534 2758 2815 
Q 2500 3097 2075 3097 
Q 1594 3097 1305 2825 
Q 1016 2553 972 2059 
L 3022 2063 
z
" transform="scale(0.015625)"/>
       <path id="DejaVuSans-72" d="M 2631 2963 
Q 2534 3019 2420 3045 
Q 2306 3072 2169 3072 
Q 1681 3072 1420 2755 
Q 1159 2438 1159 1844 
L 1159 0 
L 581 0 
L 581 3500 
L 1159 3500 
L 1159 2956 
Q 1341 3275 1631 3429 
Q 1922 3584 2338 3584 
Q 2397 3584 2469 3576 
Q 2541 3569 2628 3553 
L 2631 2963 
z
" transform="scale(0.015625)"/>
       <path id="DejaVuSans-61" d="M 2194 1759 
Q 1497 1759 1228 1600 
Q 959 1441 959 1056 
Q 959 750 1161 570 
Q 1363 391 1709 391 
Q 2188 391 2477 730 
Q 2766 1069 2766 1631 
L 2766 1759 
L 2194 1759 
z
M 3341 1997 
L 3341 0 
L 2766 0 
L 2766 531 
Q 2569 213 2275 61 
Q 1981 -91 1556 -91 
Q 1019 -91 701 211 
Q 384 513 384 1019 
Q 384 1609 779 1909 
Q 1175 2209 1959 2209 
L 2766 2209 
L 2766 2266 
Q 2766 2663 2505 2880 
Q 2244 3097 1772 3097 
Q 1472 3097 1187 3025 
Q 903 2953 641 2809 
L 641 3341 
Q 956 3463 1253 3523 
Q 1550 3584 1831 3584 
Q 2591 3584 2966 3190 
Q 3341 2797 3341 1997 
z
" transform="scale(0.015625)"/>
       <path id="DejaVuSans-69" d="M 603 3500 
L 1178 3500 
L 1178 0 
L 603 0 
L 603 3500 
z
M 603 4863 
L 1178 4863 
L 1178 4134 
L 603 4134 
L 603 4863 
z
" transform="scale(0.015625)"/>
       <path id="DejaVuSans-6f" d="M 1959 3097 
Q 1497 3097 1228 2736 
Q 959 2375 959 1747 
Q 959 1119 1226 758 
Q 1494 397 1959 397 
Q 2419 397 2687 759 
Q 2956 1122 2956 1747 
Q 2956 2369 2687 2733 
Q 2419 3097 1959 3097 
z
M 1959 3584 
Q 2709 3584 3137 3096 
Q 3566 2609 3566 1747 
Q 3566 888 3137 398 
Q 2709 -91 1959 -91 
Q 1206 -91 779 398 
Q 353 888 353 1747 
Q 353 2609 779 3096 
Q 1206 3584 1959 3584 
z
" transform="scale(0.015625)"/>
       <path id="DejaVuSans-6e" d="M 3513 2113 
L 3513 0 
L 2938 0 
L 2938 2094 
Q 2938 2591 2744 2837 
Q 2550 3084 2163 3084 
Q 1697 3084 1428 2787 
Q 1159 2491 1159 1978 
L 1159 0 
L 581 0 
L 581 3500 
L 1159 3500 
L 1159 2956 
Q 1366 3272 1645 3428 
Q 1925 3584 2291 3584 
Q 2894 3584 3203 3211 
Q 3513 2838 3513 2113 
z
" transform="scale(0.015625)"/>
       <path id="DejaVuSans-73" d="M 2834 3397 
L 2834 2853 
Q 2591 2978 2328 3040 
Q 2066 3103 1784 3103 
Q 1356 3103 1142 2972 
Q 928 2841 928 2578 
Q 928 2378 1081 2264 
Q 1234 2150 1697 2047 
L 1894 2003 
Q 2506 1872 2764 1633 
Q 3022 1394 3022 966 
Q 3022 478 2636 193 
Q 2250 -91 1575 -91 
Q 1294 -91 989 -36 
Q 684 19 347 128 
L 347 722 
Q 666 556 975 473 
Q 1284 391 1588 391 
Q 1994 391 2212 530 
Q 2431 669 2431 922 
Q 2431 1156 2273 1281 
Q 2116 1406 1581 1522 
L 1381 1569 
Q 847 1681 609 1914 
Q 372 2147 372 2553 
Q 372 3047 722 3315 
Q 1072 3584 1716 3584 
Q 2034 3584 2315 3537 
Q 2597 3491 2834 3397 
z
" transform="scale(0.015625)"/>
      </defs>
      <use xlink:href="#DejaVuSans-49"/>
      <use xlink:href="#DejaVuSans-74" x="29.492188"/>
      <use xlink:href="#DejaVuSans-65" x="68.701172"/>
      <use xlink:href="#DejaVuSans-72" x="130.224609"/>
      <use xlink:href="#DejaVuSans-61" x="171.337891"/>
      <use xlink:href="#DejaVuSans-74" x="232.617188"/>
      <use xlink:href="#DejaVuSans-69" x="271.826172"/>
      <use xlink:href="#DejaVuSans-6f" x="299.609375"/>
      <use xlink:href="#DejaVuSans-6e" x="360.791016"/>
      <use xlink:href="#DejaVuSans-73" x="424.169922"/>
     </g>
    </g>
   </g>
   <g id="matplotlib.axis_2">
    <g id="ytick_1">
     <g id="line2d_6">
      <defs>
       <path id="ma8232dd80f" d="M 0 0 
L -3.5 0 
" style="stroke: #000000; stroke-width: 0.8"/>
      </defs>
      <g>
       <use xlink:href="#ma8232dd80f" x="54" y="256.32" style="stroke: #000000; stroke-width: 0.8"/>
      </g>
     </g>
     <g id="text_7">
      <!-- 0.0 -->
      <g transform="translate(12.013125 264.678281) scale(0.22 -0.22)">
       <defs>
        <path id="DejaVuSans-2e" d="M 684 794 
L 1344 794 
L 1344 0 
L 684 0 
L 684 794 
z
" transform="scale(0.015625)"/>
       </defs>
       <use xlink:href="#DejaVuSans-30"/>
       <use xlink:href="#DejaVuSans-2e" x="63.623047"/>
       <use xlink:href="#DejaVuSans-30" x="95.410156"/>
      </g>
     </g>
    </g>
    <g id="ytick_2">
     <g id="line2d_7">
      <g>
       <use xlink:href="#ma8232dd80f" x="54" y="226.148571" style="stroke: #000000; stroke-width: 0.8"/>
      </g>
     </g>
     <g id="text_8">
      <!-- 0.1 -->
      <g transform="translate(12.013125 234.506853) scale(0.22 -0.22)">
       <use xlink:href="#DejaVuSans-30"/>
       <use xlink:href="#DejaVuSans-2e" x="63.623047"/>
       <use xlink:href="#DejaVuSans-31" x="95.410156"/>
      </g>
     </g>
    </g>
    <g id="ytick_3">
     <g id="line2d_8">
      <g>
       <use xlink:href="#ma8232dd80f" x="54" y="195.977143" style="stroke: #000000; stroke-width: 0.8"/>
      </g>
     </g>
     <g id="text_9">
      <!-- 0.2 -->
      <g transform="translate(12.013125 204.335424) scale(0.22 -0.22)">
       <use xlink:href="#DejaVuSans-30"/>
       <use xlink:href="#DejaVuSans-2e" x="63.623047"/>
       <use xlink:href="#DejaVuSans-32" x="95.410156"/>
      </g>
     </g>
    </g>
    <g id="ytick_4">
     <g id="line2d_9">
      <g>
       <use xlink:href="#ma8232dd80f" x="54" y="165.805714" style="stroke: #000000; stroke-width: 0.8"/>
      </g>
     </g>
     <g id="text_10">
      <!-- 0.3 -->
      <g transform="translate(12.013125 174.163996) scale(0.22 -0.22)">
       <defs>
        <path id="DejaVuSans-33" d="M 2597 2516 
Q 3050 2419 3304 2112 
Q 3559 1806 3559 1356 
Q 3559 666 3084 287 
Q 2609 -91 1734 -91 
Q 1441 -91 1130 -33 
Q 819 25 488 141 
L 488 750 
Q 750 597 1062 519 
Q 1375 441 1716 441 
Q 2309 441 2620 675 
Q 2931 909 2931 1356 
Q 2931 1769 2642 2001 
Q 2353 2234 1838 2234 
L 1294 2234 
L 1294 2753 
L 1863 2753 
Q 2328 2753 2575 2939 
Q 2822 3125 2822 3475 
Q 2822 3834 2567 4026 
Q 2313 4219 1838 4219 
Q 1578 4219 1281 4162 
Q 984 4106 628 3988 
L 628 4550 
Q 988 4650 1302 4700 
Q 1616 4750 1894 4750 
Q 2613 4750 3031 4423 
Q 3450 4097 3450 3541 
Q 3450 3153 3228 2886 
Q 3006 2619 2597 2516 
z
" transform="scale(0.015625)"/>
       </defs>
       <use xlink:href="#DejaVuSans-30"/>
       <use xlink:href="#DejaVuSans-2e" x="63.623047"/>
       <use xlink:href="#DejaVuSans-33" x="95.410156"/>
      </g>
     </g>
    </g>
    <g id="ytick_5">
     <g id="line2d_10">
      <g>
       <use xlink:href="#ma8232dd80f" x="54" y="135.634286" style="stroke: #000000; stroke-width: 0.8"/>
      </g>
     </g>
     <g id="text_11">
      <!-- 0.4 -->
      <g transform="translate(12.013125 143.992567) scale(0.22 -0.22)">
       <defs>
        <path id="DejaVuSans-34" d="M 2419 4116 
L 825 1625 
L 2419 1625 
L 2419 4116 
z
M 2253 4666 
L 3047 4666 
L 3047 1625 
L 3713 1625 
L 3713 1100 
L 3047 1100 
L 3047 0 
L 2419 0 
L 2419 1100 
L 313 1100 
L 313 1709 
L 2253 4666 
z
" transform="scale(0.015625)"/>
       </defs>
       <use xlink:href="#DejaVuSans-30"/>
       <use xlink:href="#DejaVuSans-2e" x="63.623047"/>
       <use xlink:href="#DejaVuSans-34" x="95.410156"/>
      </g>
     </g>
    </g>
    <g id="ytick_6">
     <g id="line2d_11">
      <g>
       <use xlink:href="#ma8232dd80f" x="54" y="105.462857" style="stroke: #000000; stroke-width: 0.8"/>
      </g>
     </g>
     <g id="text_12">
      <!-- 0.5 -->
      <g transform="translate(12.013125 113.821138) scale(0.22 -0.22)">
       <use xlink:href="#DejaVuSans-30"/>
       <use xlink:href="#DejaVuSans-2e" x="63.623047"/>
       <use xlink:href="#DejaVuSans-35" x="95.410156"/>
      </g>
     </g>
    </g>
    <g id="ytick_7">
     <g id="line2d_12">
      <g>
       <use xlink:href="#ma8232dd80f" x="54" y="75.291429" style="stroke: #000000; stroke-width: 0.8"/>
      </g>
     </g>
     <g id="text_13">
      <!-- 0.6 -->
      <g transform="translate(12.013125 83.64971) scale(0.22 -0.22)">
       <defs>
        <path id="DejaVuSans-36" d="M 2113 2584 
Q 1688 2584 1439 2293 
Q 1191 2003 1191 1497 
Q 1191 994 1439 701 
Q 1688 409 2113 409 
Q 2538 409 2786 701 
Q 3034 994 3034 1497 
Q 3034 2003 2786 2293 
Q 2538 2584 2113 2584 
z
M 3366 4563 
L 3366 3988 
Q 3128 4100 2886 4159 
Q 2644 4219 2406 4219 
Q 1781 4219 1451 3797 
Q 1122 3375 1075 2522 
Q 1259 2794 1537 2939 
Q 1816 3084 2150 3084 
Q 2853 3084 3261 2657 
Q 3669 2231 3669 1497 
Q 3669 778 3244 343 
Q 2819 -91 2113 -91 
Q 1303 -91 875 529 
Q 447 1150 447 2328 
Q 447 3434 972 4092 
Q 1497 4750 2381 4750 
Q 2619 4750 2861 4703 
Q 3103 4656 3366 4563 
z
" transform="scale(0.015625)"/>
       </defs>
       <use xlink:href="#DejaVuSans-30"/>
       <use xlink:href="#DejaVuSans-2e" x="63.623047"/>
       <use xlink:href="#DejaVuSans-36" x="95.410156"/>
      </g>
     </g>
    </g>
    <g id="ytick_8">
     <g id="line2d_13">
      <g>
       <use xlink:href="#ma8232dd80f" x="54" y="45.12" style="stroke: #000000; stroke-width: 0.8"/>
      </g>
     </g>
     <g id="text_14">
      <!-- 0.7 -->
      <g transform="translate(12.013125 53.478281) scale(0.22 -0.22)">
       <defs>
        <path id="DejaVuSans-37" d="M 525 4666 
L 3525 4666 
L 3525 4397 
L 1831 0 
L 1172 0 
L 2766 4134 
L 525 4134 
L 525 4666 
z
" transform="scale(0.015625)"/>
       </defs>
       <use xlink:href="#DejaVuSans-30"/>
       <use xlink:href="#DejaVuSans-2e" x="63.623047"/>
       <use xlink:href="#DejaVuSans-37" x="95.410156"/>
      </g>
     </g>
    </g>
    <g id="text_15">
     <!-- Cross-Entropy -->
     <g transform="translate(3.437812 222.28875) rotate(-90) scale(0.22 -0.22)">
      <defs>
       <path id="DejaVuSans-43" d="M 4122 4306 
L 4122 3641 
Q 3803 3938 3442 4084 
Q 3081 4231 2675 4231 
Q 1875 4231 1450 3742 
Q 1025 3253 1025 2328 
Q 1025 1406 1450 917 
Q 1875 428 2675 428 
Q 3081 428 3442 575 
Q 3803 722 4122 1019 
L 4122 359 
Q 3791 134 3420 21 
Q 3050 -91 2638 -91 
Q 1578 -91 968 557 
Q 359 1206 359 2328 
Q 359 3453 968 4101 
Q 1578 4750 2638 4750 
Q 3056 4750 3426 4639 
Q 3797 4528 4122 4306 
z
" transform="scale(0.015625)"/>
       <path id="DejaVuSans-2d" d="M 313 2009 
L 1997 2009 
L 1997 1497 
L 313 1497 
L 313 2009 
z
" transform="scale(0.015625)"/>
       <path id="DejaVuSans-45" d="M 628 4666 
L 3578 4666 
L 3578 4134 
L 1259 4134 
L 1259 2753 
L 3481 2753 
L 3481 2222 
L 1259 2222 
L 1259 531 
L 3634 531 
L 3634 0 
L 628 0 
L 628 4666 
z
" transform="scale(0.015625)"/>
       <path id="DejaVuSans-70" d="M 1159 525 
L 1159 -1331 
L 581 -1331 
L 581 3500 
L 1159 3500 
L 1159 2969 
Q 1341 3281 1617 3432 
Q 1894 3584 2278 3584 
Q 2916 3584 3314 3078 
Q 3713 2572 3713 1747 
Q 3713 922 3314 415 
Q 2916 -91 2278 -91 
Q 1894 -91 1617 61 
Q 1341 213 1159 525 
z
M 3116 1747 
Q 3116 2381 2855 2742 
Q 2594 3103 2138 3103 
Q 1681 3103 1420 2742 
Q 1159 2381 1159 1747 
Q 1159 1113 1420 752 
Q 1681 391 2138 391 
Q 2594 391 2855 752 
Q 3116 1113 3116 1747 
z
" transform="scale(0.015625)"/>
       <path id="DejaVuSans-79" d="M 2059 -325 
Q 1816 -950 1584 -1140 
Q 1353 -1331 966 -1331 
L 506 -1331 
L 506 -850 
L 844 -850 
Q 1081 -850 1212 -737 
Q 1344 -625 1503 -206 
L 1606 56 
L 191 3500 
L 800 3500 
L 1894 763 
L 2988 3500 
L 3597 3500 
L 2059 -325 
z
" transform="scale(0.015625)"/>
      </defs>
      <use xlink:href="#DejaVuSans-43"/>
      <use xlink:href="#DejaVuSans-72" x="69.824219"/>
      <use xlink:href="#DejaVuSans-6f" x="108.6875"/>
      <use xlink:href="#DejaVuSans-73" x="169.869141"/>
      <use xlink:href="#DejaVuSans-73" x="221.96875"/>
      <use xlink:href="#DejaVuSans-2d" x="274.068359"/>
      <use xlink:href="#DejaVuSans-45" x="310.152344"/>
      <use xlink:href="#DejaVuSans-6e" x="373.335938"/>
      <use xlink:href="#DejaVuSans-74" x="436.714844"/>
      <use xlink:href="#DejaVuSans-72" x="475.923828"/>
      <use xlink:href="#DejaVuSans-6f" x="514.787109"/>
      <use xlink:href="#DejaVuSans-70" x="575.96875"/>
      <use xlink:href="#DejaVuSans-79" x="639.445312"/>
     </g>
    </g>
   </g>
   <g id="line2d_14">
    <path d="M 69.218182 47.187683 
L 73.022727 47.187438 
L 76.827273 54.95311 
L 80.631818 66.454355 
L 84.436364 82.003713 
L 88.240909 86.747556 
L 92.045455 104.912862 
L 95.85 120.827419 
L 99.654545 133.265057 
L 103.459091 138.85227 
L 107.263636 150.483321 
L 111.068182 161.56955 
L 114.872727 181.604606 
L 118.677273 187.062376 
L 122.481818 190.225447 
L 126.286364 208.253557 
L 130.090909 216.12459 
L 133.895455 210.814107 
L 137.7 219.281655 
L 141.504545 208.039135 
L 145.309091 220.978266 
L 149.113636 228.093805 
L 152.918182 226.055251 
L 156.722727 217.479892 
L 160.527273 227.456203 
L 164.331818 234.575494 
L 168.136364 225.442075 
L 171.940909 229.69688 
L 175.745455 233.807381 
L 179.55 237.476265 
L 183.354545 235.263021 
L 187.159091 236.958155 
L 190.963636 238.054478 
L 194.768182 244.138826 
L 198.572727 243.313097 
L 202.377273 241.326577 
L 206.181818 241.980985 
L 209.986364 243.969892 
L 213.790909 246.402243 
L 217.595455 245.511868 
L 221.4 248.368663 
L 225.204545 246.738959 
L 229.009091 247.627807 
L 232.813636 248.671511 
L 236.618182 247.695968 
L 240.422727 247.484805 
L 244.227273 248.851447 
L 248.031818 244.015864 
L 251.836364 244.019183 
L 255.640909 242.073239 
L 259.445455 221.047492 
L 263.25 229.050585 
L 267.054545 229.837919 
L 270.859091 229.908697 
L 274.663636 239.090847 
L 278.468182 240.131654 
L 282.272727 212.996478 
L 286.077273 241.556857 
L 289.881818 247.40031 
L 293.686364 250.145992 
L 297.490909 248.13471 
L 301.295455 247.531973 
L 305.1 248.699464 
L 308.904545 249.813131 
L 312.709091 250.274132 
L 316.513636 250.922559 
L 320.318182 251.198598 
L 324.122727 243.636416 
L 327.927273 246.695621 
L 331.731818 251.192411 
L 335.536364 253.212456 
L 339.340909 252.335659 
L 343.145455 252.551857 
L 346.95 251.061335 
L 350.754545 252.702434 
L 354.559091 252.173048 
L 358.363636 246.627487 
L 362.168182 251.020663 
L 365.972727 251.544608 
L 369.777273 252.133291 
L 373.581818 252.437064 
" clip-path="url(#p4940672d55)" style="fill: none; stroke: #c20017; stroke-width: 1.5; stroke-linecap: square"/>
   </g>
   <g id="line2d_15">
    <path d="M 69.218182 47.187726 
L 73.022727 47.188042 
L 76.827273 47.211431 
L 80.631818 47.065379 
L 84.436364 47.092325 
L 88.240909 47.104085 
L 92.045455 47.250212 
L 95.85 47.313043 
L 99.654545 47.524058 
L 103.459091 48.085609 
L 107.263636 49.060195 
L 111.068182 51.372348 
L 114.872727 53.41659 
L 118.677273 54.413711 
L 122.481818 55.516364 
L 126.286364 56.409804 
L 130.090909 56.661775 
L 133.895455 57.068098 
L 137.7 56.885918 
L 141.504545 58.689396 
L 145.309091 59.5929 
L 149.113636 60.77878 
L 152.918182 60.851279 
L 156.722727 61.542637 
L 160.527273 63.859722 
L 164.331818 65.426959 
L 168.136364 66.402411 
L 171.940909 67.500855 
L 175.745455 68.492242 
L 179.55 67.011476 
L 183.354545 67.075876 
L 187.159091 69.220429 
L 190.963636 69.231786 
L 194.768182 71.245825 
L 198.572727 70.481691 
L 202.377273 71.668656 
L 206.181818 73.370426 
L 209.986364 73.148923 
L 213.790909 74.436809 
L 217.595455 75.989627 
L 221.4 76.530045 
L 225.204545 78.230237 
L 229.009091 79.50565 
L 232.813636 79.314268 
L 236.618182 81.369619 
L 240.422727 81.990263 
L 244.227273 82.02042 
L 248.031818 81.642396 
L 251.836364 83.407999 
L 255.640909 83.503456 
L 259.445455 80.703047 
L 263.25 82.474955 
L 267.054545 83.792127 
L 270.859091 83.808377 
L 274.663636 86.606827 
L 278.468182 84.037853 
L 282.272727 85.304278 
L 286.077273 83.595693 
L 289.881818 82.18606 
L 293.686364 84.874648 
L 297.490909 85.644068 
L 301.295455 85.731861 
L 305.1 88.054801 
L 308.904545 87.650155 
L 312.709091 89.491906 
L 316.513636 87.901234 
L 320.318182 90.334877 
L 324.122727 91.160477 
L 327.927273 93.525599 
L 331.731818 92.883403 
L 335.536364 93.37138 
L 339.340909 94.663348 
L 343.145455 98.010816 
L 346.95 96.708475 
L 350.754545 98.563449 
L 354.559091 97.422781 
L 358.363636 97.945259 
L 362.168182 100.722837 
L 365.972727 99.220231 
L 369.777273 100.04511 
L 373.581818 102.174997 
" clip-path="url(#p4940672d55)" style="fill: none; stroke: #cac100; stroke-width: 1.5; stroke-linecap: square"/>
   </g>
   <g id="line2d_16">
    <path d="M 69.218182 47.187571 
L 73.022727 47.187805 
L 76.827273 47.189523 
L 80.631818 50.023324 
L 84.436364 58.860248 
L 88.240909 60.751212 
L 92.045455 78.20469 
L 95.85 90.078412 
L 99.654545 97.838611 
L 103.459091 99.085681 
L 107.263636 105.696322 
L 111.068182 100.602678 
L 114.872727 101.201848 
L 118.677273 97.278815 
L 122.481818 91.854438 
L 126.286364 109.962131 
L 130.090909 100.548132 
L 133.895455 124.997125 
L 137.7 128.379638 
L 141.504545 124.453032 
L 145.309091 143.809513 
L 149.113636 148.814209 
L 152.918182 154.008129 
L 156.722727 144.214097 
L 160.527273 153.041978 
L 164.331818 162.290498 
L 168.136364 167.865671 
L 171.940909 155.970326 
L 175.745455 157.911221 
L 179.55 164.287097 
L 183.354545 163.971335 
L 187.159091 162.374533 
L 190.963636 145.758671 
L 194.768182 155.513319 
L 198.572727 162.236282 
L 202.377273 163.735388 
L 206.181818 164.937706 
L 209.986364 166.935408 
L 213.790909 178.507068 
L 217.595455 175.933989 
L 221.4 183.800432 
L 225.204545 172.34734 
L 229.009091 182.7422 
L 232.813636 172.094375 
L 236.618182 178.663464 
L 240.422727 183.863703 
L 244.227273 177.764789 
L 248.031818 180.844785 
L 251.836364 184.14867 
L 255.640909 182.681654 
L 259.445455 184.081727 
L 263.25 187.947804 
L 267.054545 181.489331 
L 270.859091 182.511726 
L 274.663636 183.229734 
L 278.468182 182.527877 
L 282.272727 189.812133 
L 286.077273 186.715486 
L 289.881818 192.394095 
L 293.686364 197.902118 
L 297.490909 197.667855 
L 301.295455 196.882982 
L 305.1 194.48873 
L 308.904545 195.219707 
L 312.709091 192.932357 
L 316.513636 200.396854 
L 320.318182 203.003312 
L 324.122727 201.89668 
L 327.927273 191.705916 
L 331.731818 192.66934 
L 335.536364 191.052876 
L 339.340909 200.375953 
L 343.145455 196.752945 
L 346.95 204.406227 
L 350.754545 204.098904 
L 354.559091 205.513112 
L 358.363636 205.526735 
L 362.168182 197.060458 
L 365.972727 206.667397 
L 369.777273 207.292311 
L 373.581818 209.555222 
" clip-path="url(#p4940672d55)" style="fill: none; stroke: #23aa00; stroke-width: 1.5; stroke-linecap: square"/>
   </g>
   <g id="patch_3">
    <path d="M 54 256.32 
L 54 34.56 
" style="fill: none; stroke: #000000; stroke-width: 0.8; stroke-linejoin: miter; stroke-linecap: square"/>
   </g>
   <g id="patch_4">
    <path d="M 54 256.32 
L 388.8 256.32 
" style="fill: none; stroke: #000000; stroke-width: 0.8; stroke-linejoin: miter; stroke-linecap: square"/>
   </g>
   <g id="text_16">
    <!-- Delayed Match to Sample -->
    <g transform="translate(51.4335 28.56) scale(0.264 -0.264)">
     <defs>
      <path id="DejaVuSans-44" d="M 1259 4147 
L 1259 519 
L 2022 519 
Q 2988 519 3436 956 
Q 3884 1394 3884 2338 
Q 3884 3275 3436 3711 
Q 2988 4147 2022 4147 
L 1259 4147 
z
M 628 4666 
L 1925 4666 
Q 3281 4666 3915 4102 
Q 4550 3538 4550 2338 
Q 4550 1131 3912 565 
Q 3275 0 1925 0 
L 628 0 
L 628 4666 
z
" transform="scale(0.015625)"/>
      <path id="DejaVuSans-6c" d="M 603 4863 
L 1178 4863 
L 1178 0 
L 603 0 
L 603 4863 
z
" transform="scale(0.015625)"/>
      <path id="DejaVuSans-64" d="M 2906 2969 
L 2906 4863 
L 3481 4863 
L 3481 0 
L 2906 0 
L 2906 525 
Q 2725 213 2448 61 
Q 2172 -91 1784 -91 
Q 1150 -91 751 415 
Q 353 922 353 1747 
Q 353 2572 751 3078 
Q 1150 3584 1784 3584 
Q 2172 3584 2448 3432 
Q 2725 3281 2906 2969 
z
M 947 1747 
Q 947 1113 1208 752 
Q 1469 391 1925 391 
Q 2381 391 2643 752 
Q 2906 1113 2906 1747 
Q 2906 2381 2643 2742 
Q 2381 3103 1925 3103 
Q 1469 3103 1208 2742 
Q 947 2381 947 1747 
z
" transform="scale(0.015625)"/>
      <path id="DejaVuSans-20" transform="scale(0.015625)"/>
      <path id="DejaVuSans-4d" d="M 628 4666 
L 1569 4666 
L 2759 1491 
L 3956 4666 
L 4897 4666 
L 4897 0 
L 4281 0 
L 4281 4097 
L 3078 897 
L 2444 897 
L 1241 4097 
L 1241 0 
L 628 0 
L 628 4666 
z
" transform="scale(0.015625)"/>
      <path id="DejaVuSans-63" d="M 3122 3366 
L 3122 2828 
Q 2878 2963 2633 3030 
Q 2388 3097 2138 3097 
Q 1578 3097 1268 2742 
Q 959 2388 959 1747 
Q 959 1106 1268 751 
Q 1578 397 2138 397 
Q 2388 397 2633 464 
Q 2878 531 3122 666 
L 3122 134 
Q 2881 22 2623 -34 
Q 2366 -91 2075 -91 
Q 1284 -91 818 406 
Q 353 903 353 1747 
Q 353 2603 823 3093 
Q 1294 3584 2113 3584 
Q 2378 3584 2631 3529 
Q 2884 3475 3122 3366 
z
" transform="scale(0.015625)"/>
      <path id="DejaVuSans-68" d="M 3513 2113 
L 3513 0 
L 2938 0 
L 2938 2094 
Q 2938 2591 2744 2837 
Q 2550 3084 2163 3084 
Q 1697 3084 1428 2787 
Q 1159 2491 1159 1978 
L 1159 0 
L 581 0 
L 581 4863 
L 1159 4863 
L 1159 2956 
Q 1366 3272 1645 3428 
Q 1925 3584 2291 3584 
Q 2894 3584 3203 3211 
Q 3513 2838 3513 2113 
z
" transform="scale(0.015625)"/>
      <path id="DejaVuSans-53" d="M 3425 4513 
L 3425 3897 
Q 3066 4069 2747 4153 
Q 2428 4238 2131 4238 
Q 1616 4238 1336 4038 
Q 1056 3838 1056 3469 
Q 1056 3159 1242 3001 
Q 1428 2844 1947 2747 
L 2328 2669 
Q 3034 2534 3370 2195 
Q 3706 1856 3706 1288 
Q 3706 609 3251 259 
Q 2797 -91 1919 -91 
Q 1588 -91 1214 -16 
Q 841 59 441 206 
L 441 856 
Q 825 641 1194 531 
Q 1563 422 1919 422 
Q 2459 422 2753 634 
Q 3047 847 3047 1241 
Q 3047 1584 2836 1778 
Q 2625 1972 2144 2069 
L 1759 2144 
Q 1053 2284 737 2584 
Q 422 2884 422 3419 
Q 422 4038 858 4394 
Q 1294 4750 2059 4750 
Q 2388 4750 2728 4690 
Q 3069 4631 3425 4513 
z
" transform="scale(0.015625)"/>
      <path id="DejaVuSans-6d" d="M 3328 2828 
Q 3544 3216 3844 3400 
Q 4144 3584 4550 3584 
Q 5097 3584 5394 3201 
Q 5691 2819 5691 2113 
L 5691 0 
L 5113 0 
L 5113 2094 
Q 5113 2597 4934 2840 
Q 4756 3084 4391 3084 
Q 3944 3084 3684 2787 
Q 3425 2491 3425 1978 
L 3425 0 
L 2847 0 
L 2847 2094 
Q 2847 2600 2669 2842 
Q 2491 3084 2119 3084 
Q 1678 3084 1418 2786 
Q 1159 2488 1159 1978 
L 1159 0 
L 581 0 
L 581 3500 
L 1159 3500 
L 1159 2956 
Q 1356 3278 1631 3431 
Q 1906 3584 2284 3584 
Q 2666 3584 2933 3390 
Q 3200 3197 3328 2828 
z
" transform="scale(0.015625)"/>
     </defs>
     <use xlink:href="#DejaVuSans-44"/>
     <use xlink:href="#DejaVuSans-65" x="77.001953"/>
     <use xlink:href="#DejaVuSans-6c" x="138.525391"/>
     <use xlink:href="#DejaVuSans-61" x="166.308594"/>
     <use xlink:href="#DejaVuSans-79" x="227.587891"/>
     <use xlink:href="#DejaVuSans-65" x="286.767578"/>
     <use xlink:href="#DejaVuSans-64" x="348.291016"/>
     <use xlink:href="#DejaVuSans-20" x="411.767578"/>
     <use xlink:href="#DejaVuSans-4d" x="443.554688"/>
     <use xlink:href="#DejaVuSans-61" x="529.833984"/>
     <use xlink:href="#DejaVuSans-74" x="591.113281"/>
     <use xlink:href="#DejaVuSans-63" x="630.322266"/>
     <use xlink:href="#DejaVuSans-68" x="685.302734"/>
     <use xlink:href="#DejaVuSans-20" x="748.681641"/>
     <use xlink:href="#DejaVuSans-74" x="780.46875"/>
     <use xlink:href="#DejaVuSans-6f" x="819.677734"/>
     <use xlink:href="#DejaVuSans-20" x="880.859375"/>
     <use xlink:href="#DejaVuSans-53" x="912.646484"/>
     <use xlink:href="#DejaVuSans-61" x="976.123047"/>
     <use xlink:href="#DejaVuSans-6d" x="1037.402344"/>
     <use xlink:href="#DejaVuSans-70" x="1134.814453"/>
     <use xlink:href="#DejaVuSans-6c" x="1198.291016"/>
     <use xlink:href="#DejaVuSans-65" x="1226.074219"/>
    </g>
   </g>
   <g id="legend_1">
    <g id="patch_5">
     <path d="M 69.4 245.32 
L 237.26 245.32 
Q 241.66 245.32 241.66 240.92 
L 241.66 146.244375 
Q 241.66 141.844375 237.26 141.844375 
L 69.4 141.844375 
Q 65 141.844375 65 146.244375 
L 65 240.92 
Q 65 245.32 69.4 245.32 
z
" style="fill: #ffffff; opacity: 0.8; stroke: #cccccc; stroke-linejoin: miter"/>
    </g>
    <g id="line2d_17">
     <path d="M 73.8 159.660938 
L 95.8 159.660938 
L 117.8 159.660938 
" style="fill: none; stroke: #c20017; stroke-width: 1.5; stroke-linecap: square"/>
    </g>
    <g id="text_17">
     <!-- BPTT -->
     <g transform="translate(135.4 167.360938) scale(0.22 -0.22)">
      <defs>
       <path id="DejaVuSans-42" d="M 1259 2228 
L 1259 519 
L 2272 519 
Q 2781 519 3026 730 
Q 3272 941 3272 1375 
Q 3272 1813 3026 2020 
Q 2781 2228 2272 2228 
L 1259 2228 
z
M 1259 4147 
L 1259 2741 
L 2194 2741 
Q 2656 2741 2882 2914 
Q 3109 3088 3109 3444 
Q 3109 3797 2882 3972 
Q 2656 4147 2194 4147 
L 1259 4147 
z
M 628 4666 
L 2241 4666 
Q 2963 4666 3353 4366 
Q 3744 4066 3744 3513 
Q 3744 3084 3544 2831 
Q 3344 2578 2956 2516 
Q 3422 2416 3680 2098 
Q 3938 1781 3938 1306 
Q 3938 681 3513 340 
Q 3088 0 2303 0 
L 628 0 
L 628 4666 
z
" transform="scale(0.015625)"/>
       <path id="DejaVuSans-50" d="M 1259 4147 
L 1259 2394 
L 2053 2394 
Q 2494 2394 2734 2622 
Q 2975 2850 2975 3272 
Q 2975 3691 2734 3919 
Q 2494 4147 2053 4147 
L 1259 4147 
z
M 628 4666 
L 2053 4666 
Q 2838 4666 3239 4311 
Q 3641 3956 3641 3272 
Q 3641 2581 3239 2228 
Q 2838 1875 2053 1875 
L 1259 1875 
L 1259 0 
L 628 0 
L 628 4666 
z
" transform="scale(0.015625)"/>
       <path id="DejaVuSans-54" d="M -19 4666 
L 3928 4666 
L 3928 4134 
L 2272 4134 
L 2272 0 
L 1638 0 
L 1638 4134 
L -19 4134 
L -19 4666 
z
" transform="scale(0.015625)"/>
      </defs>
      <use xlink:href="#DejaVuSans-42"/>
      <use xlink:href="#DejaVuSans-50" x="68.603516"/>
      <use xlink:href="#DejaVuSans-54" x="128.90625"/>
      <use xlink:href="#DejaVuSans-54" x="188.240234"/>
     </g>
    </g>
    <g id="line2d_18">
     <path d="M 73.8 191.952813 
L 95.8 191.952813 
L 117.8 191.952813 
" style="fill: none; stroke: #cac100; stroke-width: 1.5; stroke-linecap: square"/>
    </g>
    <g id="text_18">
     <!-- E-prop -->
     <g transform="translate(135.4 199.652813) scale(0.22 -0.22)">
      <use xlink:href="#DejaVuSans-45"/>
      <use xlink:href="#DejaVuSans-2d" x="63.183594"/>
      <use xlink:href="#DejaVuSans-70" x="99.267578"/>
      <use xlink:href="#DejaVuSans-72" x="162.744141"/>
      <use xlink:href="#DejaVuSans-6f" x="201.607422"/>
      <use xlink:href="#DejaVuSans-70" x="262.789062"/>
     </g>
    </g>
    <g id="line2d_19">
     <path d="M 73.8 224.244688 
L 95.8 224.244688 
L 117.8 224.244688 
" style="fill: none; stroke: #23aa00; stroke-width: 1.5; stroke-linecap: square"/>
    </g>
    <g id="text_19">
     <!-- Diffusion -->
     <g transform="translate(135.4 231.944688) scale(0.22 -0.22)">
      <defs>
       <path id="DejaVuSans-66" d="M 2375 4863 
L 2375 4384 
L 1825 4384 
Q 1516 4384 1395 4259 
Q 1275 4134 1275 3809 
L 1275 3500 
L 2222 3500 
L 2222 3053 
L 1275 3053 
L 1275 0 
L 697 0 
L 697 3053 
L 147 3053 
L 147 3500 
L 697 3500 
L 697 3744 
Q 697 4328 969 4595 
Q 1241 4863 1831 4863 
L 2375 4863 
z
" transform="scale(0.015625)"/>
       <path id="DejaVuSans-75" d="M 544 1381 
L 544 3500 
L 1119 3500 
L 1119 1403 
Q 1119 906 1312 657 
Q 1506 409 1894 409 
Q 2359 409 2629 706 
Q 2900 1003 2900 1516 
L 2900 3500 
L 3475 3500 
L 3475 0 
L 2900 0 
L 2900 538 
Q 2691 219 2414 64 
Q 2138 -91 1772 -91 
Q 1169 -91 856 284 
Q 544 659 544 1381 
z
M 1991 3584 
L 1991 3584 
z
" transform="scale(0.015625)"/>
      </defs>
      <use xlink:href="#DejaVuSans-44"/>
      <use xlink:href="#DejaVuSans-69" x="77.001953"/>
      <use xlink:href="#DejaVuSans-66" x="104.785156"/>
      <use xlink:href="#DejaVuSans-66" x="139.990234"/>
      <use xlink:href="#DejaVuSans-75" x="175.195312"/>
      <use xlink:href="#DejaVuSans-73" x="238.574219"/>
      <use xlink:href="#DejaVuSans-69" x="290.673828"/>
      <use xlink:href="#DejaVuSans-6f" x="318.457031"/>
      <use xlink:href="#DejaVuSans-6e" x="379.638672"/>
     </g>
    </g>
   </g>
  </g>
 </g>
 <defs>
  <clipPath id="p4940672d55">
   <rect x="54" y="34.56" width="334.8" height="221.76"/>
  </clipPath>
 </defs>
</svg>
