<?xml version="1.0" encoding="utf-8" standalone="no"?>
<!DOCTYPE svg PUBLIC "-//W3C//DTD SVG 1.1//EN"
  "http://www.w3.org/Graphics/SVG/1.1/DTD/svg11.dtd">
<svg xmlns:xlink="http://www.w3.org/1999/xlink" width="432pt" height="288pt" viewBox="0 0 432 288" xmlns="http://www.w3.org/2000/svg" version="1.1">
 <metadata>
  <rdf:RDF xmlns:dc="http://purl.org/dc/elements/1.1/" xmlns:cc="http://creativecommons.org/ns#" xmlns:rdf="http://www.w3.org/1999/02/22-rdf-syntax-ns#">
   <cc:Work>
    <dc:type rdf:resource="http://purl.org/dc/dcmitype/StillImage"/>
    <dc:date>2024-11-15T08:43:59.529266</dc:date>
    <dc:format>image/svg+xml</dc:format>
    <dc:creator>
     <cc:Agent>
      <dc:title>Matplotlib v3.8.4, https://matplotlib.org/</dc:title>
     </cc:Agent>
    </dc:creator>
   </cc:Work>
  </rdf:RDF>
 </metadata>
 <defs>
  <style type="text/css">*{stroke-linejoin: round; stroke-linecap: butt}</style>
 </defs>
 <g id="figure_1">
  <g id="patch_1">
   <path d="M 0 288 
L 432 288 
L 432 0 
L 0 0 
z
" style="fill: #ffffff"/>
  </g>
  <g id="axes_1">
   <g id="patch_2">
    <path d="M 54 256.32 
L 388.8 256.32 
L 388.8 34.56 
L 54 34.56 
z
" style="fill: #ffffff"/>
   </g>
   <g id="PolyCollection_1">
    <defs>
     <path id="m152ded9c63" d="M 69.218182 -242.252894 
L 69.218182 -242.242777 
L 73.022727 -242.211712 
L 76.827273 -220.440495 
L 80.631818 -186.263183 
L 84.436364 -163.505884 
L 88.240909 -144.095174 
L 92.045455 -134.808232 
L 95.85 -126.457918 
L 99.654545 -117.413408 
L 103.459091 -126.796231 
L 107.263636 -108.940577 
L 111.068182 -106.457604 
L 114.872727 -96.275789 
L 118.677273 -86.858701 
L 122.481818 -76.930638 
L 126.286364 -75.336553 
L 130.090909 -80.126018 
L 133.895455 -97.422307 
L 137.7 -55.341576 
L 141.504545 -48.21089 
L 145.309091 -43.992863 
L 149.113636 -50.510318 
L 152.918182 -47.721566 
L 156.722727 -52.813177 
L 160.527273 -66.044424 
L 164.331818 -45.653401 
L 168.136364 -53.520427 
L 171.940909 -40.88849 
L 175.745455 -37.298146 
L 179.55 -41.55249 
L 183.354545 -42.631563 
L 187.159091 -46.832673 
L 190.963636 -40.857791 
L 194.768182 -40.916542 
L 198.572727 -40.620949 
L 202.377273 -37.838675 
L 206.181818 -38.816876 
L 209.986364 -37.498238 
L 213.790909 -36.960924 
L 217.595455 -35.569923 
L 221.4 -36.358799 
L 225.204545 -35.592437 
L 229.009091 -35.910894 
L 232.813636 -35.779892 
L 236.618182 -37.697928 
L 240.422727 -34.654464 
L 244.227273 -36.675718 
L 248.031818 -36.472867 
L 251.836364 -35.574057 
L 255.640909 -37.612971 
L 259.445455 -37.697962 
L 263.25 -39.498677 
L 267.054545 -35.700458 
L 270.859091 -38.007676 
L 274.663636 -33.946861 
L 278.468182 -35.435135 
L 282.272727 -35.216074 
L 286.077273 -34.245014 
L 289.881818 -36.408907 
L 293.686364 -35.63552 
L 297.490909 -35.303804 
L 301.295455 -36.601043 
L 305.1 -39.55272 
L 308.904545 -36.131303 
L 312.709091 -34.951732 
L 316.513636 -33.991439 
L 320.318182 -34.152788 
L 324.122727 -34.958426 
L 327.927273 -35.6696 
L 331.731818 -33.308649 
L 335.536364 -37.667018 
L 339.340909 -37.495091 
L 343.145455 -34.249988 
L 346.95 -34.73294 
L 350.754545 -34.440819 
L 354.559091 -34.784703 
L 358.363636 -33.775095 
L 362.168182 -33.806053 
L 365.972727 -34.592951 
L 369.777273 -33.388887 
L 373.581818 -33.491227 
L 373.581818 -35.466173 
L 373.581818 -35.466173 
L 369.777273 -37.431472 
L 365.972727 -40.863464 
L 362.168182 -37.459716 
L 358.363636 -38.022356 
L 354.559091 -41.132392 
L 350.754545 -41.889201 
L 346.95 -39.5506 
L 343.145455 -38.193918 
L 339.340909 -57.780423 
L 335.536364 -44.358524 
L 331.731818 -36.974319 
L 327.927273 -38.789466 
L 324.122727 -69.781527 
L 320.318182 -39.771152 
L 316.513636 -35.063632 
L 312.709091 -36.685107 
L 308.904545 -46.583161 
L 305.1 -51.329235 
L 301.295455 -40.183939 
L 297.490909 -53.287864 
L 293.686364 -38.129192 
L 289.881818 -43.812007 
L 286.077273 -42.62445 
L 282.272727 -41.984703 
L 278.468182 -41.22202 
L 274.663636 -43.169938 
L 270.859091 -46.843156 
L 267.054545 -40.578175 
L 263.25 -47.150121 
L 259.445455 -44.089239 
L 255.640909 -48.014454 
L 251.836364 -44.176317 
L 248.031818 -46.207884 
L 244.227273 -41.971598 
L 240.422727 -66.145415 
L 236.618182 -47.262721 
L 232.813636 -40.791402 
L 229.009091 -52.91393 
L 225.204545 -51.909432 
L 221.4 -43.75932 
L 217.595455 -41.720994 
L 213.790909 -57.017565 
L 209.986364 -50.767069 
L 206.181818 -43.826329 
L 202.377273 -47.619448 
L 198.572727 -61.227617 
L 194.768182 -54.919745 
L 190.963636 -53.103324 
L 187.159091 -57.999941 
L 183.354545 -51.532197 
L 179.55 -61.456833 
L 175.745455 -51.053929 
L 171.940909 -55.938475 
L 168.136364 -64.406086 
L 164.331818 -68.70069 
L 160.527273 -76.180974 
L 156.722727 -118.585962 
L 152.918182 -84.409422 
L 149.113636 -98.513987 
L 145.309091 -114.703471 
L 141.504545 -150.600545 
L 137.7 -109.543299 
L 133.895455 -233.13331 
L 130.090909 -102.122224 
L 126.286364 -129.90252 
L 122.481818 -154.302187 
L 118.677273 -143.19513 
L 114.872727 -133.958105 
L 111.068182 -135.571212 
L 107.263636 -169.619204 
L 103.459091 -160.283276 
L 99.654545 -172.850313 
L 95.85 -162.709405 
L 92.045455 -169.038074 
L 88.240909 -206.715269 
L 84.436364 -182.12115 
L 80.631818 -198.608206 
L 76.827273 -241.741262 
L 73.022727 -242.237659 
L 69.218182 -242.252894 
z
" style="stroke: #c20017; stroke-opacity: 0.4"/>
    </defs>
    <g clip-path="url(#p4431aa7b2b)">
     <use xlink:href="#m152ded9c63" x="0" y="288" style="fill: #c20017; fill-opacity: 0.4; stroke: #c20017; stroke-opacity: 0.4"/>
    </g>
   </g>
   <g id="PolyCollection_2">
    <defs>
     <path id="m7728e2d8d9" d="M 69.218182 -242.25336 
L 69.218182 -242.242952 
L 73.022727 -242.222756 
L 76.827273 -242.085601 
L 80.631818 -206.631393 
L 84.436364 -180.900564 
L 88.240909 -157.861979 
L 92.045455 -130.948439 
L 95.85 -132.090462 
L 99.654545 -114.491817 
L 103.459091 -108.946372 
L 107.263636 -110.78978 
L 111.068182 -100.70349 
L 114.872727 -107.868806 
L 118.677273 -118.79218 
L 122.481818 -106.480582 
L 126.286364 -97.901397 
L 130.090909 -102.087003 
L 133.895455 -89.861888 
L 137.7 -87.207953 
L 141.504545 -81.893651 
L 145.309091 -79.180631 
L 149.113636 -76.583458 
L 152.918182 -75.868358 
L 156.722727 -78.482931 
L 160.527273 -73.724264 
L 164.331818 -70.081949 
L 168.136364 -72.98528 
L 171.940909 -68.668286 
L 175.745455 -72.879946 
L 179.55 -74.331778 
L 183.354545 -70.719458 
L 187.159091 -70.823311 
L 190.963636 -73.50603 
L 194.768182 -74.316816 
L 198.572727 -73.95338 
L 202.377273 -72.614589 
L 206.181818 -66.492007 
L 209.986364 -69.685765 
L 213.790909 -70.601411 
L 217.595455 -67.587947 
L 221.4 -66.208564 
L 225.204545 -66.974049 
L 229.009091 -64.792574 
L 232.813636 -66.38676 
L 236.618182 -64.76575 
L 240.422727 -68.488775 
L 244.227273 -71.55283 
L 248.031818 -74.846574 
L 251.836364 -75.605942 
L 255.640909 -65.564066 
L 259.445455 -67.861059 
L 263.25 -67.667727 
L 267.054545 -66.61452 
L 270.859091 -66.728303 
L 274.663636 -66.250912 
L 278.468182 -65.669312 
L 282.272727 -67.117613 
L 286.077273 -62.181573 
L 289.881818 -60.844871 
L 293.686364 -61.062322 
L 297.490909 -62.001807 
L 301.295455 -59.077729 
L 305.1 -66.542418 
L 308.904545 -57.810742 
L 312.709091 -63.306654 
L 316.513636 -62.958991 
L 320.318182 -58.446891 
L 324.122727 -68.083049 
L 327.927273 -60.110838 
L 331.731818 -65.147458 
L 335.536364 -62.29652 
L 339.340909 -57.632704 
L 343.145455 -58.680345 
L 346.95 -61.70427 
L 350.754545 -59.288699 
L 354.559091 -58.905878 
L 358.363636 -62.455734 
L 362.168182 -61.788704 
L 365.972727 -61.324647 
L 369.777273 -59.8822 
L 373.581818 -66.086159 
L 373.581818 -76.59885 
L 373.581818 -76.59885 
L 369.777273 -71.190686 
L 365.972727 -68.550111 
L 362.168182 -81.345841 
L 358.363636 -97.482812 
L 354.559091 -72.587979 
L 350.754545 -86.649487 
L 346.95 -73.793353 
L 343.145455 -82.700674 
L 339.340909 -74.07208 
L 335.536364 -80.862373 
L 331.731818 -75.59055 
L 327.927273 -85.666433 
L 324.122727 -79.728128 
L 320.318182 -80.190103 
L 316.513636 -72.306944 
L 312.709091 -97.672176 
L 308.904545 -75.425749 
L 305.1 -81.67695 
L 301.295455 -78.654276 
L 297.490909 -78.934258 
L 293.686364 -78.400702 
L 289.881818 -71.017025 
L 286.077273 -78.570765 
L 282.272727 -103.690185 
L 278.468182 -91.993903 
L 274.663636 -88.892658 
L 270.859091 -78.526113 
L 267.054545 -80.11068 
L 263.25 -84.156256 
L 259.445455 -82.050234 
L 255.640909 -83.441946 
L 251.836364 -92.408704 
L 248.031818 -83.14625 
L 244.227273 -82.275034 
L 240.422727 -81.163557 
L 236.618182 -75.424255 
L 232.813636 -75.322304 
L 229.009091 -82.550666 
L 225.204545 -83.201809 
L 221.4 -78.55503 
L 217.595455 -100.580051 
L 213.790909 -84.082519 
L 209.986364 -81.065348 
L 206.181818 -88.976047 
L 202.377273 -92.323689 
L 198.572727 -89.762667 
L 194.768182 -80.985774 
L 190.963636 -88.609196 
L 187.159091 -83.655955 
L 183.354545 -85.441826 
L 179.55 -93.244156 
L 175.745455 -95.3597 
L 171.940909 -93.333862 
L 168.136364 -91.713037 
L 164.331818 -86.441388 
L 160.527273 -104.747786 
L 156.722727 -109.383228 
L 152.918182 -105.113459 
L 149.113636 -103.437897 
L 145.309091 -108.796638 
L 141.504545 -108.405626 
L 137.7 -140.943849 
L 133.895455 -194.530945 
L 130.090909 -130.929702 
L 126.286364 -138.895092 
L 122.481818 -143.211486 
L 118.677273 -147.826231 
L 114.872727 -150.088184 
L 111.068182 -137.098722 
L 107.263636 -161.367178 
L 103.459091 -132.570731 
L 99.654545 -134.968524 
L 95.85 -147.064893 
L 92.045455 -210.351827 
L 88.240909 -222.764564 
L 84.436364 -225.50934 
L 80.631818 -240.194456 
L 76.827273 -242.283446 
L 73.022727 -242.251039 
L 69.218182 -242.25336 
z
" style="stroke: #cac100; stroke-opacity: 0.4"/>
    </defs>
    <g clip-path="url(#p4431aa7b2b)">
     <use xlink:href="#m7728e2d8d9" x="0" y="288" style="fill: #cac100; fill-opacity: 0.4; stroke: #cac100; stroke-opacity: 0.4"/>
    </g>
   </g>
   <g id="PolyCollection_3">
    <defs>
     <path id="m9c7145be00" d="M 69.218182 -242.253429 
L 69.218182 -242.242786 
L 73.022727 -242.217896 
L 76.827273 -241.935152 
L 80.631818 -195.523494 
L 84.436364 -195.94885 
L 88.240909 -164.681053 
L 92.045455 -152.240287 
L 95.85 -140.972936 
L 99.654545 -135.062656 
L 103.459091 -127.078244 
L 107.263636 -120.535049 
L 111.068182 -112.092712 
L 114.872727 -110.256764 
L 118.677273 -113.782564 
L 122.481818 -112.698465 
L 126.286364 -106.089471 
L 130.090909 -100.562686 
L 133.895455 -94.913093 
L 137.7 -93.508814 
L 141.504545 -88.666148 
L 145.309091 -95.234474 
L 149.113636 -96.105872 
L 152.918182 -99.801503 
L 156.722727 -95.71675 
L 160.527273 -89.733462 
L 164.331818 -86.17636 
L 168.136364 -89.497349 
L 171.940909 -87.253592 
L 175.745455 -85.536049 
L 179.55 -91.913911 
L 183.354545 -80.861739 
L 187.159091 -84.023968 
L 190.963636 -81.162319 
L 194.768182 -81.337975 
L 198.572727 -84.935283 
L 202.377273 -83.936966 
L 206.181818 -81.37915 
L 209.986364 -77.367214 
L 213.790909 -77.971843 
L 217.595455 -88.987385 
L 221.4 -73.515958 
L 225.204545 -83.136033 
L 229.009091 -77.852129 
L 232.813636 -74.973584 
L 236.618182 -77.353297 
L 240.422727 -74.511163 
L 244.227273 -74.798545 
L 248.031818 -82.884762 
L 251.836364 -78.392769 
L 255.640909 -72.552203 
L 259.445455 -78.264898 
L 263.25 -74.760888 
L 267.054545 -72.631524 
L 270.859091 -70.247996 
L 274.663636 -67.787597 
L 278.468182 -70.021589 
L 282.272727 -75.058868 
L 286.077273 -70.451364 
L 289.881818 -76.941702 
L 293.686364 -69.997272 
L 297.490909 -72.158138 
L 301.295455 -71.986329 
L 305.1 -66.604382 
L 308.904545 -71.61567 
L 312.709091 -73.833677 
L 316.513636 -75.794122 
L 320.318182 -73.632874 
L 324.122727 -81.397128 
L 327.927273 -80.080337 
L 331.731818 -68.567009 
L 335.536364 -71.62825 
L 339.340909 -74.658884 
L 343.145455 -76.828988 
L 346.95 -69.554074 
L 350.754545 -69.089943 
L 354.559091 -76.458407 
L 358.363636 -67.816607 
L 362.168182 -65.691096 
L 365.972727 -76.888021 
L 369.777273 -62.856586 
L 373.581818 -74.309682 
L 373.581818 -87.728662 
L 373.581818 -87.728662 
L 369.777273 -87.475747 
L 365.972727 -89.822832 
L 362.168182 -92.348944 
L 358.363636 -81.158476 
L 354.559091 -113.309801 
L 350.754545 -94.264123 
L 346.95 -93.44326 
L 343.145455 -88.968158 
L 339.340909 -90.645584 
L 335.536364 -88.112633 
L 331.731818 -96.886649 
L 327.927273 -94.214048 
L 324.122727 -93.591196 
L 320.318182 -90.596234 
L 316.513636 -94.478056 
L 312.709091 -88.178292 
L 308.904545 -96.69795 
L 305.1 -102.416684 
L 301.295455 -92.562876 
L 297.490909 -86.753776 
L 293.686364 -100.920346 
L 289.881818 -93.020064 
L 286.077273 -101.365579 
L 282.272727 -107.21727 
L 278.468182 -104.587981 
L 274.663636 -113.116336 
L 270.859091 -109.320517 
L 267.054545 -108.877859 
L 263.25 -111.615228 
L 259.445455 -108.662185 
L 255.640909 -98.303669 
L 251.836364 -101.398219 
L 248.031818 -102.718179 
L 244.227273 -116.806145 
L 240.422727 -120.247243 
L 236.618182 -113.325574 
L 232.813636 -123.624529 
L 229.009091 -119.638752 
L 225.204545 -121.25899 
L 221.4 -109.775167 
L 217.595455 -105.473769 
L 213.790909 -116.233829 
L 209.986364 -100.631007 
L 206.181818 -104.37874 
L 202.377273 -118.014105 
L 198.572727 -107.542641 
L 194.768182 -112.413195 
L 190.963636 -99.438634 
L 187.159091 -107.204841 
L 183.354545 -109.343817 
L 179.55 -120.384911 
L 175.745455 -118.06166 
L 171.940909 -119.579845 
L 168.136364 -119.66525 
L 164.331818 -125.582671 
L 160.527273 -144.683754 
L 156.722727 -160.232484 
L 152.918182 -129.427986 
L 149.113636 -131.657407 
L 145.309091 -112.299785 
L 141.504545 -117.653957 
L 137.7 -117.420599 
L 133.895455 -139.982991 
L 130.090909 -128.163424 
L 126.286364 -128.187558 
L 122.481818 -152.247667 
L 118.677273 -161.475156 
L 114.872727 -154.671987 
L 111.068182 -189.056307 
L 107.263636 -249.808734 
L 103.459091 -157.610078 
L 99.654545 -187.608009 
L 95.85 -172.350655 
L 92.045455 -211.689292 
L 88.240909 -228.620413 
L 84.436364 -297.006409 
L 80.631818 -237.403888 
L 76.827273 -242.230669 
L 73.022727 -242.242108 
L 69.218182 -242.253429 
z
" style="stroke: #23aa00; stroke-opacity: 0.4"/>
    </defs>
    <g clip-path="url(#p4431aa7b2b)">
     <use xlink:href="#m9c7145be00" x="0" y="288" style="fill: #23aa00; fill-opacity: 0.4; stroke: #23aa00; stroke-opacity: 0.4"/>
    </g>
   </g>
   <g id="matplotlib.axis_1">
    <g id="xtick_1">
     <g id="line2d_1">
      <defs>
       <path id="m7d033bf662" d="M 0 0 
L 0 3.5 
" style="stroke: #000000; stroke-width: 0.8"/>
      </defs>
      <g>
       <use xlink:href="#m7d033bf662" x="69.218182" y="256.32" style="stroke: #000000; stroke-width: 0.8"/>
      </g>
     </g>
     <g id="text_1">
      <!-- 0 -->
      <g transform="translate(62.219432 280.036563) scale(0.22 -0.22)">
       <defs>
        <path id="DejaVuSans-30" d="M 2034 4250 
Q 1547 4250 1301 3770 
Q 1056 3291 1056 2328 
Q 1056 1369 1301 889 
Q 1547 409 2034 409 
Q 2525 409 2770 889 
Q 3016 1369 3016 2328 
Q 3016 3291 2770 3770 
Q 2525 4250 2034 4250 
z
M 2034 4750 
Q 2819 4750 3233 4129 
Q 3647 3509 3647 2328 
Q 3647 1150 3233 529 
Q 2819 -91 2034 -91 
Q 1250 -91 836 529 
Q 422 1150 422 2328 
Q 422 3509 836 4129 
Q 1250 4750 2034 4750 
z
" transform="scale(0.015625)"/>
       </defs>
       <use xlink:href="#DejaVuSans-30"/>
      </g>
     </g>
    </g>
    <g id="xtick_2">
     <g id="line2d_2">
      <g>
       <use xlink:href="#m7d033bf662" x="145.309091" y="256.32" style="stroke: #000000; stroke-width: 0.8"/>
      </g>
     </g>
     <g id="text_2">
      <!-- 500 -->
      <g transform="translate(124.312841 280.036563) scale(0.22 -0.22)">
       <defs>
        <path id="DejaVuSans-35" d="M 691 4666 
L 3169 4666 
L 3169 4134 
L 1269 4134 
L 1269 2991 
Q 1406 3038 1543 3061 
Q 1681 3084 1819 3084 
Q 2600 3084 3056 2656 
Q 3513 2228 3513 1497 
Q 3513 744 3044 326 
Q 2575 -91 1722 -91 
Q 1428 -91 1123 -41 
Q 819 9 494 109 
L 494 744 
Q 775 591 1075 516 
Q 1375 441 1709 441 
Q 2250 441 2565 725 
Q 2881 1009 2881 1497 
Q 2881 1984 2565 2268 
Q 2250 2553 1709 2553 
Q 1456 2553 1204 2497 
Q 953 2441 691 2322 
L 691 4666 
z
" transform="scale(0.015625)"/>
       </defs>
       <use xlink:href="#DejaVuSans-35"/>
       <use xlink:href="#DejaVuSans-30" x="63.623047"/>
       <use xlink:href="#DejaVuSans-30" x="127.246094"/>
      </g>
     </g>
    </g>
    <g id="xtick_3">
     <g id="line2d_3">
      <g>
       <use xlink:href="#m7d033bf662" x="221.4" y="256.32" style="stroke: #000000; stroke-width: 0.8"/>
      </g>
     </g>
     <g id="text_3">
      <!-- 1000 -->
      <g transform="translate(193.405 280.036563) scale(0.22 -0.22)">
       <defs>
        <path id="DejaVuSans-31" d="M 794 531 
L 1825 531 
L 1825 4091 
L 703 3866 
L 703 4441 
L 1819 4666 
L 2450 4666 
L 2450 531 
L 3481 531 
L 3481 0 
L 794 0 
L 794 531 
z
" transform="scale(0.015625)"/>
       </defs>
       <use xlink:href="#DejaVuSans-31"/>
       <use xlink:href="#DejaVuSans-30" x="63.623047"/>
       <use xlink:href="#DejaVuSans-30" x="127.246094"/>
       <use xlink:href="#DejaVuSans-30" x="190.869141"/>
      </g>
     </g>
    </g>
    <g id="xtick_4">
     <g id="line2d_4">
      <g>
       <use xlink:href="#m7d033bf662" x="297.490909" y="256.32" style="stroke: #000000; stroke-width: 0.8"/>
      </g>
     </g>
     <g id="text_4">
      <!-- 1500 -->
      <g transform="translate(269.495909 280.036563) scale(0.22 -0.22)">
       <use xlink:href="#DejaVuSans-31"/>
       <use xlink:href="#DejaVuSans-35" x="63.623047"/>
       <use xlink:href="#DejaVuSans-30" x="127.246094"/>
       <use xlink:href="#DejaVuSans-30" x="190.869141"/>
      </g>
     </g>
    </g>
    <g id="xtick_5">
     <g id="line2d_5">
      <g>
       <use xlink:href="#m7d033bf662" x="373.581818" y="256.32" style="stroke: #000000; stroke-width: 0.8"/>
      </g>
     </g>
     <g id="text_5">
      <!-- 2000 -->
      <g transform="translate(345.586818 280.036563) scale(0.22 -0.22)">
       <defs>
        <path id="DejaVuSans-32" d="M 1228 531 
L 3431 531 
L 3431 0 
L 469 0 
L 469 531 
Q 828 903 1448 1529 
Q 2069 2156 2228 2338 
Q 2531 2678 2651 2914 
Q 2772 3150 2772 3378 
Q 2772 3750 2511 3984 
Q 2250 4219 1831 4219 
Q 1534 4219 1204 4116 
Q 875 4013 500 3803 
L 500 4441 
Q 881 4594 1212 4672 
Q 1544 4750 1819 4750 
Q 2544 4750 2975 4387 
Q 3406 4025 3406 3419 
Q 3406 3131 3298 2873 
Q 3191 2616 2906 2266 
Q 2828 2175 2409 1742 
Q 1991 1309 1228 531 
z
" transform="scale(0.015625)"/>
       </defs>
       <use xlink:href="#DejaVuSans-32"/>
       <use xlink:href="#DejaVuSans-30" x="63.623047"/>
       <use xlink:href="#DejaVuSans-30" x="127.246094"/>
       <use xlink:href="#DejaVuSans-30" x="190.869141"/>
      </g>
     </g>
    </g>
    <g id="text_6">
     <!-- Iterations -->
     <g transform="translate(169.010781 305.328438) scale(0.22 -0.22)">
      <defs>
       <path id="DejaVuSans-49" d="M 628 4666 
L 1259 4666 
L 1259 0 
L 628 0 
L 628 4666 
z
" transform="scale(0.015625)"/>
       <path id="DejaVuSans-74" d="M 1172 4494 
L 1172 3500 
L 2356 3500 
L 2356 3053 
L 1172 3053 
L 1172 1153 
Q 1172 725 1289 603 
Q 1406 481 1766 481 
L 2356 481 
L 2356 0 
L 1766 0 
Q 1100 0 847 248 
Q 594 497 594 1153 
L 594 3053 
L 172 3053 
L 172 3500 
L 594 3500 
L 594 4494 
L 1172 4494 
z
" transform="scale(0.015625)"/>
       <path id="DejaVuSans-65" d="M 3597 1894 
L 3597 1613 
L 953 1613 
Q 991 1019 1311 708 
Q 1631 397 2203 397 
Q 2534 397 2845 478 
Q 3156 559 3463 722 
L 3463 178 
Q 3153 47 2828 -22 
Q 2503 -91 2169 -91 
Q 1331 -91 842 396 
Q 353 884 353 1716 
Q 353 2575 817 3079 
Q 1281 3584 2069 3584 
Q 2775 3584 3186 3129 
Q 3597 2675 3597 1894 
z
M 3022 2063 
Q 3016 2534 2758 2815 
Q 2500 3097 2075 3097 
Q 1594 3097 1305 2825 
Q 1016 2553 972 2059 
L 3022 2063 
z
" transform="scale(0.015625)"/>
       <path id="DejaVuSans-72" d="M 2631 2963 
Q 2534 3019 2420 3045 
Q 2306 3072 2169 3072 
Q 1681 3072 1420 2755 
Q 1159 2438 1159 1844 
L 1159 0 
L 581 0 
L 581 3500 
L 1159 3500 
L 1159 2956 
Q 1341 3275 1631 3429 
Q 1922 3584 2338 3584 
Q 2397 3584 2469 3576 
Q 2541 3569 2628 3553 
L 2631 2963 
z
" transform="scale(0.015625)"/>
       <path id="DejaVuSans-61" d="M 2194 1759 
Q 1497 1759 1228 1600 
Q 959 1441 959 1056 
Q 959 750 1161 570 
Q 1363 391 1709 391 
Q 2188 391 2477 730 
Q 2766 1069 2766 1631 
L 2766 1759 
L 2194 1759 
z
M 3341 1997 
L 3341 0 
L 2766 0 
L 2766 531 
Q 2569 213 2275 61 
Q 1981 -91 1556 -91 
Q 1019 -91 701 211 
Q 384 513 384 1019 
Q 384 1609 779 1909 
Q 1175 2209 1959 2209 
L 2766 2209 
L 2766 2266 
Q 2766 2663 2505 2880 
Q 2244 3097 1772 3097 
Q 1472 3097 1187 3025 
Q 903 2953 641 2809 
L 641 3341 
Q 956 3463 1253 3523 
Q 1550 3584 1831 3584 
Q 2591 3584 2966 3190 
Q 3341 2797 3341 1997 
z
" transform="scale(0.015625)"/>
       <path id="DejaVuSans-69" d="M 603 3500 
L 1178 3500 
L 1178 0 
L 603 0 
L 603 3500 
z
M 603 4863 
L 1178 4863 
L 1178 4134 
L 603 4134 
L 603 4863 
z
" transform="scale(0.015625)"/>
       <path id="DejaVuSans-6f" d="M 1959 3097 
Q 1497 3097 1228 2736 
Q 959 2375 959 1747 
Q 959 1119 1226 758 
Q 1494 397 1959 397 
Q 2419 397 2687 759 
Q 2956 1122 2956 1747 
Q 2956 2369 2687 2733 
Q 2419 3097 1959 3097 
z
M 1959 3584 
Q 2709 3584 3137 3096 
Q 3566 2609 3566 1747 
Q 3566 888 3137 398 
Q 2709 -91 1959 -91 
Q 1206 -91 779 398 
Q 353 888 353 1747 
Q 353 2609 779 3096 
Q 1206 3584 1959 3584 
z
" transform="scale(0.015625)"/>
       <path id="DejaVuSans-6e" d="M 3513 2113 
L 3513 0 
L 2938 0 
L 2938 2094 
Q 2938 2591 2744 2837 
Q 2550 3084 2163 3084 
Q 1697 3084 1428 2787 
Q 1159 2491 1159 1978 
L 1159 0 
L 581 0 
L 581 3500 
L 1159 3500 
L 1159 2956 
Q 1366 3272 1645 3428 
Q 1925 3584 2291 3584 
Q 2894 3584 3203 3211 
Q 3513 2838 3513 2113 
z
" transform="scale(0.015625)"/>
       <path id="DejaVuSans-73" d="M 2834 3397 
L 2834 2853 
Q 2591 2978 2328 3040 
Q 2066 3103 1784 3103 
Q 1356 3103 1142 2972 
Q 928 2841 928 2578 
Q 928 2378 1081 2264 
Q 1234 2150 1697 2047 
L 1894 2003 
Q 2506 1872 2764 1633 
Q 3022 1394 3022 966 
Q 3022 478 2636 193 
Q 2250 -91 1575 -91 
Q 1294 -91 989 -36 
Q 684 19 347 128 
L 347 722 
Q 666 556 975 473 
Q 1284 391 1588 391 
Q 1994 391 2212 530 
Q 2431 669 2431 922 
Q 2431 1156 2273 1281 
Q 2116 1406 1581 1522 
L 1381 1569 
Q 847 1681 609 1914 
Q 372 2147 372 2553 
Q 372 3047 722 3315 
Q 1072 3584 1716 3584 
Q 2034 3584 2315 3537 
Q 2597 3491 2834 3397 
z
" transform="scale(0.015625)"/>
      </defs>
      <use xlink:href="#DejaVuSans-49"/>
      <use xlink:href="#DejaVuSans-74" x="29.492188"/>
      <use xlink:href="#DejaVuSans-65" x="68.701172"/>
      <use xlink:href="#DejaVuSans-72" x="130.224609"/>
      <use xlink:href="#DejaVuSans-61" x="171.337891"/>
      <use xlink:href="#DejaVuSans-74" x="232.617188"/>
      <use xlink:href="#DejaVuSans-69" x="271.826172"/>
      <use xlink:href="#DejaVuSans-6f" x="299.609375"/>
      <use xlink:href="#DejaVuSans-6e" x="360.791016"/>
      <use xlink:href="#DejaVuSans-73" x="424.169922"/>
     </g>
    </g>
   </g>
   <g id="matplotlib.axis_2">
    <g id="ytick_1">
     <g id="line2d_6">
      <defs>
       <path id="m462f4c449f" d="M 0 0 
L -3.5 0 
" style="stroke: #000000; stroke-width: 0.8"/>
      </defs>
      <g>
       <use xlink:href="#m462f4c449f" x="54" y="256.32" style="stroke: #000000; stroke-width: 0.8"/>
      </g>
     </g>
     <g id="text_7">
      <!-- 0.0 -->
      <g transform="translate(12.013125 264.678281) scale(0.22 -0.22)">
       <defs>
        <path id="DejaVuSans-2e" d="M 684 794 
L 1344 794 
L 1344 0 
L 684 0 
L 684 794 
z
" transform="scale(0.015625)"/>
       </defs>
       <use xlink:href="#DejaVuSans-30"/>
       <use xlink:href="#DejaVuSans-2e" x="63.623047"/>
       <use xlink:href="#DejaVuSans-30" x="95.410156"/>
      </g>
     </g>
    </g>
    <g id="ytick_2">
     <g id="line2d_7">
      <g>
       <use xlink:href="#m462f4c449f" x="54" y="225.941918" style="stroke: #000000; stroke-width: 0.8"/>
      </g>
     </g>
     <g id="text_8">
      <!-- 0.1 -->
      <g transform="translate(12.013125 234.300199) scale(0.22 -0.22)">
       <use xlink:href="#DejaVuSans-30"/>
       <use xlink:href="#DejaVuSans-2e" x="63.623047"/>
       <use xlink:href="#DejaVuSans-31" x="95.410156"/>
      </g>
     </g>
    </g>
    <g id="ytick_3">
     <g id="line2d_8">
      <g>
       <use xlink:href="#m462f4c449f" x="54" y="195.563836" style="stroke: #000000; stroke-width: 0.8"/>
      </g>
     </g>
     <g id="text_9">
      <!-- 0.2 -->
      <g transform="translate(12.013125 203.922117) scale(0.22 -0.22)">
       <use xlink:href="#DejaVuSans-30"/>
       <use xlink:href="#DejaVuSans-2e" x="63.623047"/>
       <use xlink:href="#DejaVuSans-32" x="95.410156"/>
      </g>
     </g>
    </g>
    <g id="ytick_4">
     <g id="line2d_9">
      <g>
       <use xlink:href="#m462f4c449f" x="54" y="165.185753" style="stroke: #000000; stroke-width: 0.8"/>
      </g>
     </g>
     <g id="text_10">
      <!-- 0.3 -->
      <g transform="translate(12.013125 173.544035) scale(0.22 -0.22)">
       <defs>
        <path id="DejaVuSans-33" d="M 2597 2516 
Q 3050 2419 3304 2112 
Q 3559 1806 3559 1356 
Q 3559 666 3084 287 
Q 2609 -91 1734 -91 
Q 1441 -91 1130 -33 
Q 819 25 488 141 
L 488 750 
Q 750 597 1062 519 
Q 1375 441 1716 441 
Q 2309 441 2620 675 
Q 2931 909 2931 1356 
Q 2931 1769 2642 2001 
Q 2353 2234 1838 2234 
L 1294 2234 
L 1294 2753 
L 1863 2753 
Q 2328 2753 2575 2939 
Q 2822 3125 2822 3475 
Q 2822 3834 2567 4026 
Q 2313 4219 1838 4219 
Q 1578 4219 1281 4162 
Q 984 4106 628 3988 
L 628 4550 
Q 988 4650 1302 4700 
Q 1616 4750 1894 4750 
Q 2613 4750 3031 4423 
Q 3450 4097 3450 3541 
Q 3450 3153 3228 2886 
Q 3006 2619 2597 2516 
z
" transform="scale(0.015625)"/>
       </defs>
       <use xlink:href="#DejaVuSans-30"/>
       <use xlink:href="#DejaVuSans-2e" x="63.623047"/>
       <use xlink:href="#DejaVuSans-33" x="95.410156"/>
      </g>
     </g>
    </g>
    <g id="ytick_5">
     <g id="line2d_10">
      <g>
       <use xlink:href="#m462f4c449f" x="54" y="134.807671" style="stroke: #000000; stroke-width: 0.8"/>
      </g>
     </g>
     <g id="text_11">
      <!-- 0.4 -->
      <g transform="translate(12.013125 143.165952) scale(0.22 -0.22)">
       <defs>
        <path id="DejaVuSans-34" d="M 2419 4116 
L 825 1625 
L 2419 1625 
L 2419 4116 
z
M 2253 4666 
L 3047 4666 
L 3047 1625 
L 3713 1625 
L 3713 1100 
L 3047 1100 
L 3047 0 
L 2419 0 
L 2419 1100 
L 313 1100 
L 313 1709 
L 2253 4666 
z
" transform="scale(0.015625)"/>
       </defs>
       <use xlink:href="#DejaVuSans-30"/>
       <use xlink:href="#DejaVuSans-2e" x="63.623047"/>
       <use xlink:href="#DejaVuSans-34" x="95.410156"/>
      </g>
     </g>
    </g>
    <g id="ytick_6">
     <g id="line2d_11">
      <g>
       <use xlink:href="#m462f4c449f" x="54" y="104.429589" style="stroke: #000000; stroke-width: 0.8"/>
      </g>
     </g>
     <g id="text_12">
      <!-- 0.5 -->
      <g transform="translate(12.013125 112.78787) scale(0.22 -0.22)">
       <use xlink:href="#DejaVuSans-30"/>
       <use xlink:href="#DejaVuSans-2e" x="63.623047"/>
       <use xlink:href="#DejaVuSans-35" x="95.410156"/>
      </g>
     </g>
    </g>
    <g id="ytick_7">
     <g id="line2d_12">
      <g>
       <use xlink:href="#m462f4c449f" x="54" y="74.051507" style="stroke: #000000; stroke-width: 0.8"/>
      </g>
     </g>
     <g id="text_13">
      <!-- 0.6 -->
      <g transform="translate(12.013125 82.409788) scale(0.22 -0.22)">
       <defs>
        <path id="DejaVuSans-36" d="M 2113 2584 
Q 1688 2584 1439 2293 
Q 1191 2003 1191 1497 
Q 1191 994 1439 701 
Q 1688 409 2113 409 
Q 2538 409 2786 701 
Q 3034 994 3034 1497 
Q 3034 2003 2786 2293 
Q 2538 2584 2113 2584 
z
M 3366 4563 
L 3366 3988 
Q 3128 4100 2886 4159 
Q 2644 4219 2406 4219 
Q 1781 4219 1451 3797 
Q 1122 3375 1075 2522 
Q 1259 2794 1537 2939 
Q 1816 3084 2150 3084 
Q 2853 3084 3261 2657 
Q 3669 2231 3669 1497 
Q 3669 778 3244 343 
Q 2819 -91 2113 -91 
Q 1303 -91 875 529 
Q 447 1150 447 2328 
Q 447 3434 972 4092 
Q 1497 4750 2381 4750 
Q 2619 4750 2861 4703 
Q 3103 4656 3366 4563 
z
" transform="scale(0.015625)"/>
       </defs>
       <use xlink:href="#DejaVuSans-30"/>
       <use xlink:href="#DejaVuSans-2e" x="63.623047"/>
       <use xlink:href="#DejaVuSans-36" x="95.410156"/>
      </g>
     </g>
    </g>
    <g id="ytick_8">
     <g id="line2d_13">
      <g>
       <use xlink:href="#m462f4c449f" x="54" y="43.673425" style="stroke: #000000; stroke-width: 0.8"/>
      </g>
     </g>
     <g id="text_14">
      <!-- 0.7 -->
      <g transform="translate(12.013125 52.031706) scale(0.22 -0.22)">
       <defs>
        <path id="DejaVuSans-37" d="M 525 4666 
L 3525 4666 
L 3525 4397 
L 1831 0 
L 1172 0 
L 2766 4134 
L 525 4134 
L 525 4666 
z
" transform="scale(0.015625)"/>
       </defs>
       <use xlink:href="#DejaVuSans-30"/>
       <use xlink:href="#DejaVuSans-2e" x="63.623047"/>
       <use xlink:href="#DejaVuSans-37" x="95.410156"/>
      </g>
     </g>
    </g>
    <g id="text_15">
     <!-- Cross-Entropy -->
     <g transform="translate(3.437812 222.28875) rotate(-90) scale(0.22 -0.22)">
      <defs>
       <path id="DejaVuSans-43" d="M 4122 4306 
L 4122 3641 
Q 3803 3938 3442 4084 
Q 3081 4231 2675 4231 
Q 1875 4231 1450 3742 
Q 1025 3253 1025 2328 
Q 1025 1406 1450 917 
Q 1875 428 2675 428 
Q 3081 428 3442 575 
Q 3803 722 4122 1019 
L 4122 359 
Q 3791 134 3420 21 
Q 3050 -91 2638 -91 
Q 1578 -91 968 557 
Q 359 1206 359 2328 
Q 359 3453 968 4101 
Q 1578 4750 2638 4750 
Q 3056 4750 3426 4639 
Q 3797 4528 4122 4306 
z
" transform="scale(0.015625)"/>
       <path id="DejaVuSans-2d" d="M 313 2009 
L 1997 2009 
L 1997 1497 
L 313 1497 
L 313 2009 
z
" transform="scale(0.015625)"/>
       <path id="DejaVuSans-45" d="M 628 4666 
L 3578 4666 
L 3578 4134 
L 1259 4134 
L 1259 2753 
L 3481 2753 
L 3481 2222 
L 1259 2222 
L 1259 531 
L 3634 531 
L 3634 0 
L 628 0 
L 628 4666 
z
" transform="scale(0.015625)"/>
       <path id="DejaVuSans-70" d="M 1159 525 
L 1159 -1331 
L 581 -1331 
L 581 3500 
L 1159 3500 
L 1159 2969 
Q 1341 3281 1617 3432 
Q 1894 3584 2278 3584 
Q 2916 3584 3314 3078 
Q 3713 2572 3713 1747 
Q 3713 922 3314 415 
Q 2916 -91 2278 -91 
Q 1894 -91 1617 61 
Q 1341 213 1159 525 
z
M 3116 1747 
Q 3116 2381 2855 2742 
Q 2594 3103 2138 3103 
Q 1681 3103 1420 2742 
Q 1159 2381 1159 1747 
Q 1159 1113 1420 752 
Q 1681 391 2138 391 
Q 2594 391 2855 752 
Q 3116 1113 3116 1747 
z
" transform="scale(0.015625)"/>
       <path id="DejaVuSans-79" d="M 2059 -325 
Q 1816 -950 1584 -1140 
Q 1353 -1331 966 -1331 
L 506 -1331 
L 506 -850 
L 844 -850 
Q 1081 -850 1212 -737 
Q 1344 -625 1503 -206 
L 1606 56 
L 191 3500 
L 800 3500 
L 1894 763 
L 2988 3500 
L 3597 3500 
L 2059 -325 
z
" transform="scale(0.015625)"/>
      </defs>
      <use xlink:href="#DejaVuSans-43"/>
      <use xlink:href="#DejaVuSans-72" x="69.824219"/>
      <use xlink:href="#DejaVuSans-6f" x="108.6875"/>
      <use xlink:href="#DejaVuSans-73" x="169.869141"/>
      <use xlink:href="#DejaVuSans-73" x="221.96875"/>
      <use xlink:href="#DejaVuSans-2d" x="274.068359"/>
      <use xlink:href="#DejaVuSans-45" x="310.152344"/>
      <use xlink:href="#DejaVuSans-6e" x="373.335938"/>
      <use xlink:href="#DejaVuSans-74" x="436.714844"/>
      <use xlink:href="#DejaVuSans-72" x="475.923828"/>
      <use xlink:href="#DejaVuSans-6f" x="514.787109"/>
      <use xlink:href="#DejaVuSans-70" x="575.96875"/>
      <use xlink:href="#DejaVuSans-79" x="639.445312"/>
     </g>
    </g>
   </g>
   <g id="line2d_14">
    <path d="M 69.218182 45.754025 
L 73.022727 45.773458 
L 76.827273 57.3451 
L 80.631818 97.07614 
L 84.436364 117.574635 
L 88.240909 112.06989 
L 92.045455 138.646538 
L 95.85 145.29405 
L 99.654545 142.615073 
L 103.459091 144.489981 
L 107.263636 158.50536 
L 111.068182 167.296555 
L 114.872727 178.102141 
L 118.677273 171.894414 
L 122.481818 173.725957 
L 126.286364 183.337171 
L 130.090909 195.350533 
L 133.895455 147.36702 
L 137.7 205.369803 
L 141.504545 196.267621 
L 145.309091 207.220342 
L 149.113636 212.917662 
L 152.918182 219.054295 
L 156.722727 206.144407 
L 160.527273 218.243551 
L 164.331818 232.537007 
L 168.136364 229.989366 
L 171.940909 238.959629 
L 175.745455 243.078251 
L 179.55 236.143582 
L 183.354545 240.844104 
L 187.159091 236.511643 
L 190.963636 240.294642 
L 194.768182 239.888834 
L 198.572727 237.78445 
L 202.377273 245.18248 
L 206.181818 247.447925 
L 209.986364 243.918739 
L 213.790909 243.544061 
L 217.595455 249.16641 
L 221.4 248.142543 
L 225.204545 245.42826 
L 229.009091 245.583541 
L 232.813636 249.305068 
L 236.618182 247.096621 
L 240.422727 242.706432 
L 244.227273 249.081151 
L 248.031818 245.91606 
L 251.836364 249.369399 
L 255.640909 246.067553 
L 259.445455 246.499739 
L 263.25 245.124881 
L 267.054545 250.107 
L 270.859091 246.334552 
L 274.663636 249.822829 
L 278.468182 249.581946 
L 282.272727 249.950968 
L 286.077273 250.740143 
L 289.881818 247.843834 
L 293.686364 251.10879 
L 297.490909 245.832522 
L 301.295455 249.557275 
L 305.1 244.420829 
L 308.904545 246.517577 
L 312.709091 252.23348 
L 316.513636 253.41215 
L 320.318182 250.99693 
L 324.122727 239.6666 
L 327.927273 250.747088 
L 331.731818 252.800909 
L 335.536364 247.01274 
L 339.340909 243.988102 
L 343.145455 251.434102 
L 346.95 251.027305 
L 350.754545 249.886371 
L 354.559091 251.152457 
L 358.363636 252.702469 
L 362.168182 252.065011 
L 365.972727 251.003158 
L 369.777273 252.87587 
L 373.581818 253.704318 
" clip-path="url(#p4431aa7b2b)" style="fill: none; stroke: #c20017; stroke-width: 1.5; stroke-linecap: square"/>
   </g>
   <g id="line2d_15">
    <path d="M 69.218182 45.754049 
L 73.022727 45.764276 
L 76.827273 45.819491 
L 80.631818 58.47174 
L 84.436364 84.116753 
L 88.240909 107.762618 
L 92.045455 129.82489 
L 95.85 149.647087 
L 99.654545 161.253256 
L 103.459091 167.154676 
L 107.263636 153.539794 
L 111.068182 168.292982 
L 114.872727 161.71435 
L 118.677273 159.083993 
L 122.481818 158.831759 
L 126.286364 166.229828 
L 130.090909 172.664284 
L 133.895455 164.216846 
L 137.7 181.903952 
L 141.504545 193.899682 
L 145.309091 195.415298 
L 149.113636 198.348856 
L 152.918182 196.776866 
L 156.722727 194.315937 
L 160.527273 199.950433 
L 164.331818 207.406963 
L 168.136364 205.08866 
L 171.940909 207.425529 
L 175.745455 203.978034 
L 179.55 205.115217 
L 183.354545 208.299418 
L 187.159091 210.161823 
L 190.963636 208.313919 
L 194.768182 209.617537 
L 198.572727 206.463981 
L 202.377273 205.012964 
L 206.181818 210.08977 
L 209.986364 212.654483 
L 213.790909 210.508267 
L 217.595455 210.50047 
L 221.4 214.192009 
L 225.204545 213.684855 
L 229.009091 214.01841 
L 232.813636 217.297585 
L 236.618182 217.857971 
L 240.422727 213.110131 
L 244.227273 210.978059 
L 248.031818 209.97792 
L 251.836364 207.368854 
L 255.640909 215.24052 
L 259.445455 213.415376 
L 263.25 213.254625 
L 267.054545 214.795316 
L 270.859091 214.351781 
L 274.663636 212.383551 
L 278.468182 211.689192 
L 282.272727 207.110919 
L 286.077273 218.064365 
L 289.881818 222.376093 
L 293.686364 217.74282 
L 297.490909 216.977657 
L 301.295455 220.251998 
L 305.1 215.937696 
L 308.904545 221.406775 
L 312.709091 212.77913 
L 316.513636 220.541756 
L 320.318182 220.579167 
L 324.122727 215.251479 
L 327.927273 215.858929 
L 331.731818 217.361178 
L 335.536364 217.958516 
L 339.340909 222.908409 
L 343.145455 219.93926 
L 346.95 222.206104 
L 350.754545 218.241626 
L 354.559091 220.834839 
L 358.363636 214.997622 
L 362.168182 217.712471 
L 365.972727 222.700186 
L 369.777273 220.90699 
L 373.581818 217.041479 
" clip-path="url(#p4431aa7b2b)" style="fill: none; stroke: #cac100; stroke-width: 1.5; stroke-linecap: square"/>
   </g>
   <g id="line2d_16">
    <path d="M 69.218182 45.75406 
L 73.022727 45.768756 
L 76.827273 45.947647 
L 80.631818 69.615857 
L 84.436364 43.449665 
L 88.240909 93.266004 
L 92.045455 112.585136 
L 95.85 131.592824 
L 99.654545 134.121159 
L 103.459091 149.836558 
L 107.263636 114.485345 
L 111.068182 147.854675 
L 114.872727 154.062961 
L 118.677273 159.150604 
L 122.481818 158.189534 
L 126.286364 173.306228 
L 130.090909 177.502396 
L 133.895455 176.341778 
L 137.7 184.292571 
L 141.504545 182.716639 
L 145.309091 185.864732 
L 149.113636 180.178314 
L 152.918182 176.638332 
L 156.722727 171.964287 
L 160.527273 177.372057 
L 164.331818 183.089858 
L 168.136364 181.479764 
L 171.940909 186.919173 
L 175.745455 188.017801 
L 179.55 183.458132 
L 183.354545 191.110169 
L 187.159091 192.66475 
L 190.963636 196.837436 
L 194.768182 188.084996 
L 198.572727 190.016508 
L 202.377273 192.519117 
L 206.181818 195.045527 
L 209.986364 196.307262 
L 213.790909 194.123029 
L 217.595455 191.798234 
L 221.4 197.953975 
L 225.204545 192.495917 
L 229.009091 196.896309 
L 232.813636 192.266575 
L 236.618182 195.28732 
L 240.422727 194.693726 
L 244.227273 192.525038 
L 248.031818 194.013923 
L 251.836364 200.506036 
L 255.640909 201.66982 
L 259.445455 195.564131 
L 263.25 193.889621 
L 267.054545 194.488568 
L 270.859091 197.454941 
L 274.663636 201.432973 
L 278.468182 201.573059 
L 282.272727 198.326845 
L 286.077273 201.334306 
L 289.881818 202.734469 
L 293.686364 205.024329 
L 297.490909 207.582755 
L 301.295455 204.193982 
L 305.1 208.248414 
L 308.904545 203.20941 
L 312.709091 205.457068 
L 316.513636 202.510869 
L 320.318182 207.095283 
L 324.122727 200.919664 
L 327.927273 202.74083 
L 331.731818 204.228974 
L 335.536364 208.356981 
L 339.340909 205.781947 
L 343.145455 206.078809 
L 346.95 207.816107 
L 350.754545 207.431581 
L 354.559091 197.279291 
L 358.363636 213.969507 
L 362.168182 207.893609 
L 365.972727 205.857096 
L 369.777273 212.958515 
L 373.581818 206.937005 
" clip-path="url(#p4431aa7b2b)" style="fill: none; stroke: #23aa00; stroke-width: 1.5; stroke-linecap: square"/>
   </g>
   <g id="patch_3">
    <path d="M 54 256.32 
L 54 34.56 
" style="fill: none; stroke: #000000; stroke-width: 0.8; stroke-linejoin: miter; stroke-linecap: square"/>
   </g>
   <g id="patch_4">
    <path d="M 54 256.32 
L 388.8 256.32 
" style="fill: none; stroke: #000000; stroke-width: 0.8; stroke-linejoin: miter; stroke-linecap: square"/>
   </g>
   <g id="text_16">
    <!-- Delayed Match to Sample -->
    <g transform="translate(51.4335 28.56) scale(0.264 -0.264)">
     <defs>
      <path id="DejaVuSans-44" d="M 1259 4147 
L 1259 519 
L 2022 519 
Q 2988 519 3436 956 
Q 3884 1394 3884 2338 
Q 3884 3275 3436 3711 
Q 2988 4147 2022 4147 
L 1259 4147 
z
M 628 4666 
L 1925 4666 
Q 3281 4666 3915 4102 
Q 4550 3538 4550 2338 
Q 4550 1131 3912 565 
Q 3275 0 1925 0 
L 628 0 
L 628 4666 
z
" transform="scale(0.015625)"/>
      <path id="DejaVuSans-6c" d="M 603 4863 
L 1178 4863 
L 1178 0 
L 603 0 
L 603 4863 
z
" transform="scale(0.015625)"/>
      <path id="DejaVuSans-64" d="M 2906 2969 
L 2906 4863 
L 3481 4863 
L 3481 0 
L 2906 0 
L 2906 525 
Q 2725 213 2448 61 
Q 2172 -91 1784 -91 
Q 1150 -91 751 415 
Q 353 922 353 1747 
Q 353 2572 751 3078 
Q 1150 3584 1784 3584 
Q 2172 3584 2448 3432 
Q 2725 3281 2906 2969 
z
M 947 1747 
Q 947 1113 1208 752 
Q 1469 391 1925 391 
Q 2381 391 2643 752 
Q 2906 1113 2906 1747 
Q 2906 2381 2643 2742 
Q 2381 3103 1925 3103 
Q 1469 3103 1208 2742 
Q 947 2381 947 1747 
z
" transform="scale(0.015625)"/>
      <path id="DejaVuSans-20" transform="scale(0.015625)"/>
      <path id="DejaVuSans-4d" d="M 628 4666 
L 1569 4666 
L 2759 1491 
L 3956 4666 
L 4897 4666 
L 4897 0 
L 4281 0 
L 4281 4097 
L 3078 897 
L 2444 897 
L 1241 4097 
L 1241 0 
L 628 0 
L 628 4666 
z
" transform="scale(0.015625)"/>
      <path id="DejaVuSans-63" d="M 3122 3366 
L 3122 2828 
Q 2878 2963 2633 3030 
Q 2388 3097 2138 3097 
Q 1578 3097 1268 2742 
Q 959 2388 959 1747 
Q 959 1106 1268 751 
Q 1578 397 2138 397 
Q 2388 397 2633 464 
Q 2878 531 3122 666 
L 3122 134 
Q 2881 22 2623 -34 
Q 2366 -91 2075 -91 
Q 1284 -91 818 406 
Q 353 903 353 1747 
Q 353 2603 823 3093 
Q 1294 3584 2113 3584 
Q 2378 3584 2631 3529 
Q 2884 3475 3122 3366 
z
" transform="scale(0.015625)"/>
      <path id="DejaVuSans-68" d="M 3513 2113 
L 3513 0 
L 2938 0 
L 2938 2094 
Q 2938 2591 2744 2837 
Q 2550 3084 2163 3084 
Q 1697 3084 1428 2787 
Q 1159 2491 1159 1978 
L 1159 0 
L 581 0 
L 581 4863 
L 1159 4863 
L 1159 2956 
Q 1366 3272 1645 3428 
Q 1925 3584 2291 3584 
Q 2894 3584 3203 3211 
Q 3513 2838 3513 2113 
z
" transform="scale(0.015625)"/>
      <path id="DejaVuSans-53" d="M 3425 4513 
L 3425 3897 
Q 3066 4069 2747 4153 
Q 2428 4238 2131 4238 
Q 1616 4238 1336 4038 
Q 1056 3838 1056 3469 
Q 1056 3159 1242 3001 
Q 1428 2844 1947 2747 
L 2328 2669 
Q 3034 2534 3370 2195 
Q 3706 1856 3706 1288 
Q 3706 609 3251 259 
Q 2797 -91 1919 -91 
Q 1588 -91 1214 -16 
Q 841 59 441 206 
L 441 856 
Q 825 641 1194 531 
Q 1563 422 1919 422 
Q 2459 422 2753 634 
Q 3047 847 3047 1241 
Q 3047 1584 2836 1778 
Q 2625 1972 2144 2069 
L 1759 2144 
Q 1053 2284 737 2584 
Q 422 2884 422 3419 
Q 422 4038 858 4394 
Q 1294 4750 2059 4750 
Q 2388 4750 2728 4690 
Q 3069 4631 3425 4513 
z
" transform="scale(0.015625)"/>
      <path id="DejaVuSans-6d" d="M 3328 2828 
Q 3544 3216 3844 3400 
Q 4144 3584 4550 3584 
Q 5097 3584 5394 3201 
Q 5691 2819 5691 2113 
L 5691 0 
L 5113 0 
L 5113 2094 
Q 5113 2597 4934 2840 
Q 4756 3084 4391 3084 
Q 3944 3084 3684 2787 
Q 3425 2491 3425 1978 
L 3425 0 
L 2847 0 
L 2847 2094 
Q 2847 2600 2669 2842 
Q 2491 3084 2119 3084 
Q 1678 3084 1418 2786 
Q 1159 2488 1159 1978 
L 1159 0 
L 581 0 
L 581 3500 
L 1159 3500 
L 1159 2956 
Q 1356 3278 1631 3431 
Q 1906 3584 2284 3584 
Q 2666 3584 2933 3390 
Q 3200 3197 3328 2828 
z
" transform="scale(0.015625)"/>
     </defs>
     <use xlink:href="#DejaVuSans-44"/>
     <use xlink:href="#DejaVuSans-65" x="77.001953"/>
     <use xlink:href="#DejaVuSans-6c" x="138.525391"/>
     <use xlink:href="#DejaVuSans-61" x="166.308594"/>
     <use xlink:href="#DejaVuSans-79" x="227.587891"/>
     <use xlink:href="#DejaVuSans-65" x="286.767578"/>
     <use xlink:href="#DejaVuSans-64" x="348.291016"/>
     <use xlink:href="#DejaVuSans-20" x="411.767578"/>
     <use xlink:href="#DejaVuSans-4d" x="443.554688"/>
     <use xlink:href="#DejaVuSans-61" x="529.833984"/>
     <use xlink:href="#DejaVuSans-74" x="591.113281"/>
     <use xlink:href="#DejaVuSans-63" x="630.322266"/>
     <use xlink:href="#DejaVuSans-68" x="685.302734"/>
     <use xlink:href="#DejaVuSans-20" x="748.681641"/>
     <use xlink:href="#DejaVuSans-74" x="780.46875"/>
     <use xlink:href="#DejaVuSans-6f" x="819.677734"/>
     <use xlink:href="#DejaVuSans-20" x="880.859375"/>
     <use xlink:href="#DejaVuSans-53" x="912.646484"/>
     <use xlink:href="#DejaVuSans-61" x="976.123047"/>
     <use xlink:href="#DejaVuSans-6d" x="1037.402344"/>
     <use xlink:href="#DejaVuSans-70" x="1134.814453"/>
     <use xlink:href="#DejaVuSans-6c" x="1198.291016"/>
     <use xlink:href="#DejaVuSans-65" x="1226.074219"/>
    </g>
   </g>
   <g id="legend_1">
    <g id="patch_5">
     <path d="M 205.54 149.035625 
L 373.4 149.035625 
Q 377.8 149.035625 377.8 144.635625 
L 377.8 49.96 
Q 377.8 45.56 373.4 45.56 
L 205.54 45.56 
Q 201.14 45.56 201.14 49.96 
L 201.14 144.635625 
Q 201.14 149.035625 205.54 149.035625 
z
" style="fill: #ffffff; opacity: 0.8; stroke: #cccccc; stroke-linejoin: miter"/>
    </g>
    <g id="line2d_17">
     <path d="M 209.94 63.376563 
L 231.94 63.376563 
L 253.94 63.376563 
" style="fill: none; stroke: #c20017; stroke-width: 1.5; stroke-linecap: square"/>
    </g>
    <g id="text_17">
     <!-- BPTT -->
     <g transform="translate(271.54 71.076563) scale(0.22 -0.22)">
      <defs>
       <path id="DejaVuSans-42" d="M 1259 2228 
L 1259 519 
L 2272 519 
Q 2781 519 3026 730 
Q 3272 941 3272 1375 
Q 3272 1813 3026 2020 
Q 2781 2228 2272 2228 
L 1259 2228 
z
M 1259 4147 
L 1259 2741 
L 2194 2741 
Q 2656 2741 2882 2914 
Q 3109 3088 3109 3444 
Q 3109 3797 2882 3972 
Q 2656 4147 2194 4147 
L 1259 4147 
z
M 628 4666 
L 2241 4666 
Q 2963 4666 3353 4366 
Q 3744 4066 3744 3513 
Q 3744 3084 3544 2831 
Q 3344 2578 2956 2516 
Q 3422 2416 3680 2098 
Q 3938 1781 3938 1306 
Q 3938 681 3513 340 
Q 3088 0 2303 0 
L 628 0 
L 628 4666 
z
" transform="scale(0.015625)"/>
       <path id="DejaVuSans-50" d="M 1259 4147 
L 1259 2394 
L 2053 2394 
Q 2494 2394 2734 2622 
Q 2975 2850 2975 3272 
Q 2975 3691 2734 3919 
Q 2494 4147 2053 4147 
L 1259 4147 
z
M 628 4666 
L 2053 4666 
Q 2838 4666 3239 4311 
Q 3641 3956 3641 3272 
Q 3641 2581 3239 2228 
Q 2838 1875 2053 1875 
L 1259 1875 
L 1259 0 
L 628 0 
L 628 4666 
z
" transform="scale(0.015625)"/>
       <path id="DejaVuSans-54" d="M -19 4666 
L 3928 4666 
L 3928 4134 
L 2272 4134 
L 2272 0 
L 1638 0 
L 1638 4134 
L -19 4134 
L -19 4666 
z
" transform="scale(0.015625)"/>
      </defs>
      <use xlink:href="#DejaVuSans-42"/>
      <use xlink:href="#DejaVuSans-50" x="68.603516"/>
      <use xlink:href="#DejaVuSans-54" x="128.90625"/>
      <use xlink:href="#DejaVuSans-54" x="188.240234"/>
     </g>
    </g>
    <g id="line2d_18">
     <path d="M 209.94 95.668438 
L 231.94 95.668438 
L 253.94 95.668438 
" style="fill: none; stroke: #cac100; stroke-width: 1.5; stroke-linecap: square"/>
    </g>
    <g id="text_18">
     <!-- E-prop -->
     <g transform="translate(271.54 103.368438) scale(0.22 -0.22)">
      <use xlink:href="#DejaVuSans-45"/>
      <use xlink:href="#DejaVuSans-2d" x="63.183594"/>
      <use xlink:href="#DejaVuSans-70" x="99.267578"/>
      <use xlink:href="#DejaVuSans-72" x="162.744141"/>
      <use xlink:href="#DejaVuSans-6f" x="201.607422"/>
      <use xlink:href="#DejaVuSans-70" x="262.789062"/>
     </g>
    </g>
    <g id="line2d_19">
     <path d="M 209.94 127.960313 
L 231.94 127.960313 
L 253.94 127.960313 
" style="fill: none; stroke: #23aa00; stroke-width: 1.5; stroke-linecap: square"/>
    </g>
    <g id="text_19">
     <!-- Diffusion -->
     <g transform="translate(271.54 135.660313) scale(0.22 -0.22)">
      <defs>
       <path id="DejaVuSans-66" d="M 2375 4863 
L 2375 4384 
L 1825 4384 
Q 1516 4384 1395 4259 
Q 1275 4134 1275 3809 
L 1275 3500 
L 2222 3500 
L 2222 3053 
L 1275 3053 
L 1275 0 
L 697 0 
L 697 3053 
L 147 3053 
L 147 3500 
L 697 3500 
L 697 3744 
Q 697 4328 969 4595 
Q 1241 4863 1831 4863 
L 2375 4863 
z
" transform="scale(0.015625)"/>
       <path id="DejaVuSans-75" d="M 544 1381 
L 544 3500 
L 1119 3500 
L 1119 1403 
Q 1119 906 1312 657 
Q 1506 409 1894 409 
Q 2359 409 2629 706 
Q 2900 1003 2900 1516 
L 2900 3500 
L 3475 3500 
L 3475 0 
L 2900 0 
L 2900 538 
Q 2691 219 2414 64 
Q 2138 -91 1772 -91 
Q 1169 -91 856 284 
Q 544 659 544 1381 
z
M 1991 3584 
L 1991 3584 
z
" transform="scale(0.015625)"/>
      </defs>
      <use xlink:href="#DejaVuSans-44"/>
      <use xlink:href="#DejaVuSans-69" x="77.001953"/>
      <use xlink:href="#DejaVuSans-66" x="104.785156"/>
      <use xlink:href="#DejaVuSans-66" x="139.990234"/>
      <use xlink:href="#DejaVuSans-75" x="175.195312"/>
      <use xlink:href="#DejaVuSans-73" x="238.574219"/>
      <use xlink:href="#DejaVuSans-69" x="290.673828"/>
      <use xlink:href="#DejaVuSans-6f" x="318.457031"/>
      <use xlink:href="#DejaVuSans-6e" x="379.638672"/>
     </g>
    </g>
   </g>
  </g>
 </g>
 <defs>
  <clipPath id="p4431aa7b2b">
   <rect x="54" y="34.56" width="334.8" height="221.76"/>
  </clipPath>
 </defs>
</svg>
