<?xml version="1.0" encoding="utf-8" standalone="no"?>
<!DOCTYPE svg PUBLIC "-//W3C//DTD SVG 1.1//EN"
  "http://www.w3.org/Graphics/SVG/1.1/DTD/svg11.dtd">
<svg xmlns:xlink="http://www.w3.org/1999/xlink" width="432pt" height="288pt" viewBox="0 0 432 288" xmlns="http://www.w3.org/2000/svg" version="1.1">
 <metadata>
  <rdf:RDF xmlns:dc="http://purl.org/dc/elements/1.1/" xmlns:cc="http://creativecommons.org/ns#" xmlns:rdf="http://www.w3.org/1999/02/22-rdf-syntax-ns#">
   <cc:Work>
    <dc:type rdf:resource="http://purl.org/dc/dcmitype/StillImage"/>
    <dc:date>2024-11-15T08:44:51.255092</dc:date>
    <dc:format>image/svg+xml</dc:format>
    <dc:creator>
     <cc:Agent>
      <dc:title>Matplotlib v3.8.4, https://matplotlib.org/</dc:title>
     </cc:Agent>
    </dc:creator>
   </cc:Work>
  </rdf:RDF>
 </metadata>
 <defs>
  <style type="text/css">*{stroke-linejoin: round; stroke-linecap: butt}</style>
 </defs>
 <g id="figure_1">
  <g id="patch_1">
   <path d="M 0 288 
L 432 288 
L 432 0 
L 0 0 
z
" style="fill: #ffffff"/>
  </g>
  <g id="axes_1">
   <g id="patch_2">
    <path d="M 54 256.32 
L 388.8 256.32 
L 388.8 34.56 
L 54 34.56 
z
" style="fill: #ffffff"/>
   </g>
   <g id="PolyCollection_1">
    <defs>
     <path id="m8a0b43944e" d="M 69.218182 -243.357285 
L 69.218182 -243.27932 
L 73.022727 -243.191176 
L 76.827273 -239.438001 
L 80.631818 -213.926464 
L 84.436364 -164.814181 
L 88.240909 -146.362257 
L 92.045455 -116.261992 
L 95.85 -120.560137 
L 99.654545 -97.52034 
L 103.459091 -90.265958 
L 107.263636 -86.209348 
L 111.068182 -78.638785 
L 114.872727 -78.68093 
L 118.677273 -75.238579 
L 122.481818 -76.497213 
L 126.286364 -64.268557 
L 130.090909 -62.022819 
L 133.895455 -65.335371 
L 137.7 -63.644294 
L 141.504545 -65.794884 
L 145.309091 -54.756658 
L 149.113636 -60.057373 
L 152.918182 -62.46715 
L 156.722727 -59.159224 
L 160.527273 -52.383663 
L 164.331818 -55.094706 
L 168.136364 -54.83008 
L 171.940909 -52.700351 
L 175.745455 -55.728314 
L 179.55 -51.646736 
L 183.354545 -56.070495 
L 187.159091 -55.225959 
L 190.963636 -53.305916 
L 194.768182 -52.314162 
L 198.572727 -46.331766 
L 202.377273 -62.028857 
L 206.181818 -50.16825 
L 209.986364 -51.619612 
L 213.790909 -48.225864 
L 217.595455 -49.498907 
L 221.4 -49.402163 
L 225.204545 -49.493095 
L 229.009091 -47.135951 
L 232.813636 -48.731953 
L 236.618182 -50.322971 
L 240.422727 -45.087781 
L 244.227273 -46.353504 
L 248.031818 -46.138043 
L 251.836364 -42.697158 
L 255.640909 -44.542062 
L 259.445455 -46.405582 
L 263.25 -44.154515 
L 267.054545 -44.773191 
L 270.859091 -41.935222 
L 274.663636 -45.595323 
L 278.468182 -42.569405 
L 282.272727 -44.125965 
L 286.077273 -45.016517 
L 289.881818 -43.085861 
L 293.686364 -43.775481 
L 297.490909 -44.062439 
L 301.295455 -46.476457 
L 305.1 -44.581231 
L 308.904545 -44.740909 
L 312.709091 -43.093775 
L 316.513636 -43.782015 
L 320.318182 -45.047248 
L 324.122727 -41.76 
L 327.927273 -47.338545 
L 331.731818 -43.772006 
L 335.536364 -42.434679 
L 339.340909 -47.930464 
L 343.145455 -44.217361 
L 346.95 -47.116281 
L 350.754545 -45.211632 
L 354.559091 -41.881046 
L 358.363636 -43.3662 
L 362.168182 -44.45082 
L 365.972727 -42.400836 
L 369.777273 -42.369232 
L 373.581818 -43.721007 
L 373.581818 -46.865633 
L 373.581818 -46.865633 
L 369.777273 -46.675242 
L 365.972727 -58.553905 
L 362.168182 -52.000564 
L 358.363636 -63.524308 
L 354.559091 -49.17635 
L 350.754545 -57.417282 
L 346.95 -63.521843 
L 343.145455 -60.059345 
L 339.340909 -62.048884 
L 335.536364 -54.820242 
L 331.731818 -60.063624 
L 327.927273 -54.425556 
L 324.122727 -55.061481 
L 320.318182 -71.408091 
L 316.513636 -51.021239 
L 312.709091 -62.306049 
L 308.904545 -53.445084 
L 305.1 -57.223465 
L 301.295455 -67.181022 
L 297.490909 -62.021423 
L 293.686364 -69.129621 
L 289.881818 -55.974373 
L 286.077273 -56.391489 
L 282.272727 -66.190892 
L 278.468182 -73.084044 
L 274.663636 -74.192687 
L 270.859091 -76.769931 
L 267.054545 -58.533969 
L 263.25 -57.06463 
L 259.445455 -83.253582 
L 255.640909 -64.472617 
L 251.836364 -60.154276 
L 248.031818 -67.217785 
L 244.227273 -69.05269 
L 240.422727 -76.109578 
L 236.618182 -62.499632 
L 232.813636 -61.764654 
L 229.009091 -62.107418 
L 225.204545 -69.069553 
L 221.4 -67.983859 
L 217.595455 -70.303462 
L 213.790909 -65.737794 
L 209.986364 -79.473093 
L 206.181818 -77.323867 
L 202.377273 -72.445651 
L 198.572727 -77.996148 
L 194.768182 -74.438832 
L 190.963636 -86.061572 
L 187.159091 -69.030795 
L 183.354545 -82.177396 
L 179.55 -71.776754 
L 175.745455 -89.763596 
L 171.940909 -91.828378 
L 168.136364 -67.025135 
L 164.331818 -79.859673 
L 160.527273 -71.002901 
L 156.722727 -77.800716 
L 152.918182 -70.063103 
L 149.113636 -97.346449 
L 145.309091 -75.547346 
L 141.504545 -72.666492 
L 137.7 -89.766851 
L 133.895455 -89.924382 
L 130.090909 -93.328239 
L 126.286364 -91.040412 
L 122.481818 -103.299961 
L 118.677273 -120.367146 
L 114.872727 -100.750044 
L 111.068182 -121.52622 
L 107.263636 -135.815512 
L 103.459091 -123.943012 
L 99.654545 -129.692074 
L 95.85 -143.896839 
L 92.045455 -154.847152 
L 88.240909 -175.559432 
L 84.436364 -205.308426 
L 80.631818 -239.294438 
L 76.827273 -243.192896 
L 73.022727 -243.349242 
L 69.218182 -243.357285 
z
" style="stroke: #c20017; stroke-opacity: 0.4"/>
    </defs>
    <g clip-path="url(#pa66d7f522f)">
     <use xlink:href="#m8a0b43944e" x="0" y="288" style="fill: #c20017; fill-opacity: 0.4; stroke: #c20017; stroke-opacity: 0.4"/>
    </g>
   </g>
   <g id="PolyCollection_2">
    <defs>
     <path id="m73302220d4" d="M 69.218182 -243.36 
L 69.218182 -243.274142 
L 73.022727 -243.218168 
L 76.827273 -242.871607 
L 80.631818 -239.399922 
L 84.436364 -225.872024 
L 88.240909 -202.338784 
L 92.045455 -185.723606 
L 95.85 -180.358555 
L 99.654545 -166.774906 
L 103.459091 -154.137972 
L 107.263636 -148.42046 
L 111.068182 -138.71889 
L 114.872727 -140.513781 
L 118.677273 -134.935802 
L 122.481818 -135.89248 
L 126.286364 -128.719963 
L 130.090909 -128.3142 
L 133.895455 -121.199148 
L 137.7 -113.365625 
L 141.504545 -112.458416 
L 145.309091 -119.04198 
L 149.113636 -113.668984 
L 152.918182 -106.325693 
L 156.722727 -106.371106 
L 160.527273 -96.283021 
L 164.331818 -102.596573 
L 168.136364 -94.651057 
L 171.940909 -92.055646 
L 175.745455 -92.284158 
L 179.55 -89.587294 
L 183.354545 -85.698068 
L 187.159091 -89.921612 
L 190.963636 -99.153874 
L 194.768182 -90.761496 
L 198.572727 -83.216279 
L 202.377273 -91.780546 
L 206.181818 -90.120575 
L 209.986364 -88.309217 
L 213.790909 -88.601598 
L 217.595455 -89.463347 
L 221.4 -86.595138 
L 225.204545 -83.895729 
L 229.009091 -88.119194 
L 232.813636 -87.430882 
L 236.618182 -91.598803 
L 240.422727 -92.072593 
L 244.227273 -79.162493 
L 248.031818 -86.851919 
L 251.836364 -80.171822 
L 255.640909 -81.393458 
L 259.445455 -71.838666 
L 263.25 -77.922417 
L 267.054545 -79.023173 
L 270.859091 -78.538078 
L 274.663636 -77.099786 
L 278.468182 -76.38884 
L 282.272727 -77.593944 
L 286.077273 -79.129738 
L 289.881818 -79.726791 
L 293.686364 -79.732669 
L 297.490909 -82.213875 
L 301.295455 -77.670464 
L 305.1 -77.13444 
L 308.904545 -76.407668 
L 312.709091 -75.559107 
L 316.513636 -81.003545 
L 320.318182 -76.854613 
L 324.122727 -77.056337 
L 327.927273 -78.341642 
L 331.731818 -80.914695 
L 335.536364 -78.092561 
L 339.340909 -74.991027 
L 343.145455 -77.832428 
L 346.95 -74.653888 
L 350.754545 -73.7602 
L 354.559091 -73.160759 
L 358.363636 -72.319597 
L 362.168182 -80.460902 
L 365.972727 -73.694622 
L 369.777273 -72.7224 
L 373.581818 -78.433696 
L 373.581818 -87.592133 
L 373.581818 -87.592133 
L 369.777273 -89.480053 
L 365.972727 -81.479384 
L 362.168182 -85.751822 
L 358.363636 -81.909528 
L 354.559091 -82.164876 
L 350.754545 -89.806666 
L 346.95 -84.377168 
L 343.145455 -90.84718 
L 339.340909 -90.883782 
L 335.536364 -97.034608 
L 331.731818 -91.27942 
L 327.927273 -84.216169 
L 324.122727 -90.842717 
L 320.318182 -90.299591 
L 316.513636 -87.850984 
L 312.709091 -83.967047 
L 308.904545 -88.526995 
L 305.1 -95.426108 
L 301.295455 -88.90272 
L 297.490909 -93.565701 
L 293.686364 -98.222513 
L 289.881818 -103.146412 
L 286.077273 -93.286265 
L 282.272727 -92.843634 
L 278.468182 -97.022918 
L 274.663636 -96.068571 
L 270.859091 -93.827808 
L 267.054545 -91.389347 
L 263.25 -93.871484 
L 259.445455 -98.026438 
L 255.640909 -95.961567 
L 251.836364 -104.671714 
L 248.031818 -94.671586 
L 244.227273 -97.012417 
L 240.422727 -109.807779 
L 236.618182 -103.012212 
L 232.813636 -111.631359 
L 229.009091 -93.706685 
L 225.204545 -101.435402 
L 221.4 -101.945831 
L 217.595455 -101.954411 
L 213.790909 -102.640383 
L 209.986364 -106.229658 
L 206.181818 -99.759777 
L 202.377273 -108.107886 
L 198.572727 -108.094693 
L 194.768182 -110.722817 
L 190.963636 -109.046156 
L 187.159091 -110.829528 
L 183.354545 -117.731626 
L 179.55 -113.600889 
L 175.745455 -118.378292 
L 171.940909 -115.400949 
L 168.136364 -115.916343 
L 164.331818 -135.180066 
L 160.527273 -119.44454 
L 156.722727 -127.309485 
L 152.918182 -114.298286 
L 149.113636 -128.82587 
L 145.309091 -134.852781 
L 141.504545 -139.261253 
L 137.7 -135.748352 
L 133.895455 -135.120877 
L 130.090909 -156.576469 
L 126.286364 -141.915038 
L 122.481818 -160.697103 
L 118.677273 -152.853046 
L 114.872727 -155.578912 
L 111.068182 -169.390427 
L 107.263636 -165.871119 
L 103.459091 -179.388018 
L 99.654545 -187.0411 
L 95.85 -200.652138 
L 92.045455 -210.625176 
L 88.240909 -227.520301 
L 84.436364 -231.968046 
L 80.631818 -242.767435 
L 76.827273 -243.232856 
L 73.022727 -243.349587 
L 69.218182 -243.36 
z
" style="stroke: #cac100; stroke-opacity: 0.4"/>
    </defs>
    <g clip-path="url(#pa66d7f522f)">
     <use xlink:href="#m73302220d4" x="0" y="288" style="fill: #cac100; fill-opacity: 0.4; stroke: #cac100; stroke-opacity: 0.4"/>
    </g>
   </g>
   <g id="PolyCollection_3">
    <defs>
     <path id="m73ddae94a8" d="M 69.218182 -243.35799 
L 69.218182 -243.274009 
L 73.022727 -243.213848 
L 76.827273 -242.343007 
L 80.631818 -234.530527 
L 84.436364 -213.282619 
L 88.240909 -208.064227 
L 92.045455 -192.055112 
L 95.85 -192.270958 
L 99.654545 -162.794224 
L 103.459091 -158.099334 
L 107.263636 -153.311336 
L 111.068182 -148.622889 
L 114.872727 -142.380948 
L 118.677273 -142.091384 
L 122.481818 -146.463418 
L 126.286364 -122.322762 
L 130.090909 -127.156583 
L 133.895455 -122.827846 
L 137.7 -115.007384 
L 141.504545 -105.426691 
L 145.309091 -103.61784 
L 149.113636 -108.616888 
L 152.918182 -92.43131 
L 156.722727 -100.950572 
L 160.527273 -96.711646 
L 164.331818 -85.656362 
L 168.136364 -101.771391 
L 171.940909 -100.141822 
L 175.745455 -95.443937 
L 179.55 -84.504186 
L 183.354545 -90.222253 
L 187.159091 -91.098437 
L 190.963636 -92.989357 
L 194.768182 -90.250613 
L 198.572727 -86.07187 
L 202.377273 -97.31147 
L 206.181818 -81.608458 
L 209.986364 -86.699399 
L 213.790909 -86.401645 
L 217.595455 -82.722752 
L 221.4 -78.224371 
L 225.204545 -79.380458 
L 229.009091 -73.824812 
L 232.813636 -93.912547 
L 236.618182 -77.768078 
L 240.422727 -85.724343 
L 244.227273 -83.900701 
L 248.031818 -83.454344 
L 251.836364 -89.280587 
L 255.640909 -83.861531 
L 259.445455 -80.093732 
L 263.25 -85.443489 
L 267.054545 -80.046849 
L 270.859091 -82.74005 
L 274.663636 -84.816156 
L 278.468182 -75.703479 
L 282.272727 -77.377472 
L 286.077273 -72.535813 
L 289.881818 -76.380292 
L 293.686364 -84.804771 
L 297.490909 -83.572546 
L 301.295455 -72.296999 
L 305.1 -75.040664 
L 308.904545 -76.393758 
L 312.709091 -78.391796 
L 316.513636 -77.235868 
L 320.318182 -79.378414 
L 324.122727 -77.464709 
L 327.927273 -73.663179 
L 331.731818 -79.630407 
L 335.536364 -80.847134 
L 339.340909 -80.269934 
L 343.145455 -74.968716 
L 346.95 -70.165235 
L 350.754545 -77.156634 
L 354.559091 -73.34604 
L 358.363636 -68.299933 
L 362.168182 -71.431051 
L 365.972727 -66.624154 
L 369.777273 -75.667379 
L 373.581818 -73.101567 
L 373.581818 -111.259243 
L 373.581818 -111.259243 
L 369.777273 -89.061982 
L 365.972727 -90.215757 
L 362.168182 -97.064268 
L 358.363636 -91.729618 
L 354.559091 -98.922003 
L 350.754545 -97.20284 
L 346.95 -91.802868 
L 343.145455 -98.287509 
L 339.340909 -102.024499 
L 335.536364 -99.516675 
L 331.731818 -95.140361 
L 327.927273 -98.809299 
L 324.122727 -99.277897 
L 320.318182 -94.621129 
L 316.513636 -100.684869 
L 312.709091 -103.878894 
L 308.904545 -108.776252 
L 305.1 -109.160595 
L 301.295455 -111.102 
L 297.490909 -106.776628 
L 293.686364 -101.604254 
L 289.881818 -102.264438 
L 286.077273 -100.925859 
L 282.272727 -104.353512 
L 278.468182 -104.065586 
L 274.663636 -101.350345 
L 270.859091 -113.21806 
L 267.054545 -107.174458 
L 263.25 -99.812634 
L 259.445455 -106.026798 
L 255.640909 -114.763578 
L 251.836364 -99.470029 
L 248.031818 -107.971573 
L 244.227273 -115.727177 
L 240.422727 -106.949446 
L 236.618182 -113.233041 
L 232.813636 -110.225906 
L 229.009091 -115.664634 
L 225.204545 -111.95234 
L 221.4 -109.765659 
L 217.595455 -116.632332 
L 213.790909 -112.53755 
L 209.986364 -118.828989 
L 206.181818 -125.649985 
L 202.377273 -117.209352 
L 198.572727 -130.077136 
L 194.768182 -116.639694 
L 190.963636 -126.887668 
L 187.159091 -131.038729 
L 183.354545 -117.88188 
L 179.55 -129.451903 
L 175.745455 -123.545868 
L 171.940909 -133.678096 
L 168.136364 -139.004566 
L 164.331818 -147.006355 
L 160.527273 -142.556097 
L 156.722727 -156.963529 
L 152.918182 -147.383162 
L 149.113636 -143.870833 
L 145.309091 -142.340666 
L 141.504545 -154.956468 
L 137.7 -149.627736 
L 133.895455 -150.134783 
L 130.090909 -161.043641 
L 126.286364 -159.377667 
L 122.481818 -164.515798 
L 118.677273 -175.588514 
L 114.872727 -187.909082 
L 111.068182 -182.767646 
L 107.263636 -190.092301 
L 103.459091 -191.764416 
L 99.654545 -194.318343 
L 95.85 -204.406381 
L 92.045455 -221.964325 
L 88.240909 -226.382614 
L 84.436364 -237.705382 
L 80.631818 -242.913263 
L 76.827273 -243.229492 
L 73.022727 -243.346247 
L 69.218182 -243.35799 
z
" style="stroke: #23aa00; stroke-opacity: 0.4"/>
    </defs>
    <g clip-path="url(#pa66d7f522f)">
     <use xlink:href="#m73ddae94a8" x="0" y="288" style="fill: #23aa00; fill-opacity: 0.4; stroke: #23aa00; stroke-opacity: 0.4"/>
    </g>
   </g>
   <g id="matplotlib.axis_1">
    <g id="xtick_1">
     <g id="line2d_1">
      <defs>
       <path id="m793c33d854" d="M 0 0 
L 0 3.5 
" style="stroke: #000000; stroke-width: 0.8"/>
      </defs>
      <g>
       <use xlink:href="#m793c33d854" x="69.218182" y="256.32" style="stroke: #000000; stroke-width: 0.8"/>
      </g>
     </g>
     <g id="text_1">
      <!-- 0 -->
      <g transform="translate(62.219432 280.036563) scale(0.22 -0.22)">
       <defs>
        <path id="DejaVuSans-30" d="M 2034 4250 
Q 1547 4250 1301 3770 
Q 1056 3291 1056 2328 
Q 1056 1369 1301 889 
Q 1547 409 2034 409 
Q 2525 409 2770 889 
Q 3016 1369 3016 2328 
Q 3016 3291 2770 3770 
Q 2525 4250 2034 4250 
z
M 2034 4750 
Q 2819 4750 3233 4129 
Q 3647 3509 3647 2328 
Q 3647 1150 3233 529 
Q 2819 -91 2034 -91 
Q 1250 -91 836 529 
Q 422 1150 422 2328 
Q 422 3509 836 4129 
Q 1250 4750 2034 4750 
z
" transform="scale(0.015625)"/>
       </defs>
       <use xlink:href="#DejaVuSans-30"/>
      </g>
     </g>
    </g>
    <g id="xtick_2">
     <g id="line2d_2">
      <g>
       <use xlink:href="#m793c33d854" x="145.309091" y="256.32" style="stroke: #000000; stroke-width: 0.8"/>
      </g>
     </g>
     <g id="text_2">
      <!-- 500 -->
      <g transform="translate(124.312841 280.036563) scale(0.22 -0.22)">
       <defs>
        <path id="DejaVuSans-35" d="M 691 4666 
L 3169 4666 
L 3169 4134 
L 1269 4134 
L 1269 2991 
Q 1406 3038 1543 3061 
Q 1681 3084 1819 3084 
Q 2600 3084 3056 2656 
Q 3513 2228 3513 1497 
Q 3513 744 3044 326 
Q 2575 -91 1722 -91 
Q 1428 -91 1123 -41 
Q 819 9 494 109 
L 494 744 
Q 775 591 1075 516 
Q 1375 441 1709 441 
Q 2250 441 2565 725 
Q 2881 1009 2881 1497 
Q 2881 1984 2565 2268 
Q 2250 2553 1709 2553 
Q 1456 2553 1204 2497 
Q 953 2441 691 2322 
L 691 4666 
z
" transform="scale(0.015625)"/>
       </defs>
       <use xlink:href="#DejaVuSans-35"/>
       <use xlink:href="#DejaVuSans-30" x="63.623047"/>
       <use xlink:href="#DejaVuSans-30" x="127.246094"/>
      </g>
     </g>
    </g>
    <g id="xtick_3">
     <g id="line2d_3">
      <g>
       <use xlink:href="#m793c33d854" x="221.4" y="256.32" style="stroke: #000000; stroke-width: 0.8"/>
      </g>
     </g>
     <g id="text_3">
      <!-- 1000 -->
      <g transform="translate(193.405 280.036563) scale(0.22 -0.22)">
       <defs>
        <path id="DejaVuSans-31" d="M 794 531 
L 1825 531 
L 1825 4091 
L 703 3866 
L 703 4441 
L 1819 4666 
L 2450 4666 
L 2450 531 
L 3481 531 
L 3481 0 
L 794 0 
L 794 531 
z
" transform="scale(0.015625)"/>
       </defs>
       <use xlink:href="#DejaVuSans-31"/>
       <use xlink:href="#DejaVuSans-30" x="63.623047"/>
       <use xlink:href="#DejaVuSans-30" x="127.246094"/>
       <use xlink:href="#DejaVuSans-30" x="190.869141"/>
      </g>
     </g>
    </g>
    <g id="xtick_4">
     <g id="line2d_4">
      <g>
       <use xlink:href="#m793c33d854" x="297.490909" y="256.32" style="stroke: #000000; stroke-width: 0.8"/>
      </g>
     </g>
     <g id="text_4">
      <!-- 1500 -->
      <g transform="translate(269.495909 280.036563) scale(0.22 -0.22)">
       <use xlink:href="#DejaVuSans-31"/>
       <use xlink:href="#DejaVuSans-35" x="63.623047"/>
       <use xlink:href="#DejaVuSans-30" x="127.246094"/>
       <use xlink:href="#DejaVuSans-30" x="190.869141"/>
      </g>
     </g>
    </g>
    <g id="xtick_5">
     <g id="line2d_5">
      <g>
       <use xlink:href="#m793c33d854" x="373.581818" y="256.32" style="stroke: #000000; stroke-width: 0.8"/>
      </g>
     </g>
     <g id="text_5">
      <!-- 2000 -->
      <g transform="translate(345.586818 280.036563) scale(0.22 -0.22)">
       <defs>
        <path id="DejaVuSans-32" d="M 1228 531 
L 3431 531 
L 3431 0 
L 469 0 
L 469 531 
Q 828 903 1448 1529 
Q 2069 2156 2228 2338 
Q 2531 2678 2651 2914 
Q 2772 3150 2772 3378 
Q 2772 3750 2511 3984 
Q 2250 4219 1831 4219 
Q 1534 4219 1204 4116 
Q 875 4013 500 3803 
L 500 4441 
Q 881 4594 1212 4672 
Q 1544 4750 1819 4750 
Q 2544 4750 2975 4387 
Q 3406 4025 3406 3419 
Q 3406 3131 3298 2873 
Q 3191 2616 2906 2266 
Q 2828 2175 2409 1742 
Q 1991 1309 1228 531 
z
" transform="scale(0.015625)"/>
       </defs>
       <use xlink:href="#DejaVuSans-32"/>
       <use xlink:href="#DejaVuSans-30" x="63.623047"/>
       <use xlink:href="#DejaVuSans-30" x="127.246094"/>
       <use xlink:href="#DejaVuSans-30" x="190.869141"/>
      </g>
     </g>
    </g>
    <g id="text_6">
     <!-- Iterations -->
     <g transform="translate(169.010781 305.328438) scale(0.22 -0.22)">
      <defs>
       <path id="DejaVuSans-49" d="M 628 4666 
L 1259 4666 
L 1259 0 
L 628 0 
L 628 4666 
z
" transform="scale(0.015625)"/>
       <path id="DejaVuSans-74" d="M 1172 4494 
L 1172 3500 
L 2356 3500 
L 2356 3053 
L 1172 3053 
L 1172 1153 
Q 1172 725 1289 603 
Q 1406 481 1766 481 
L 2356 481 
L 2356 0 
L 1766 0 
Q 1100 0 847 248 
Q 594 497 594 1153 
L 594 3053 
L 172 3053 
L 172 3500 
L 594 3500 
L 594 4494 
L 1172 4494 
z
" transform="scale(0.015625)"/>
       <path id="DejaVuSans-65" d="M 3597 1894 
L 3597 1613 
L 953 1613 
Q 991 1019 1311 708 
Q 1631 397 2203 397 
Q 2534 397 2845 478 
Q 3156 559 3463 722 
L 3463 178 
Q 3153 47 2828 -22 
Q 2503 -91 2169 -91 
Q 1331 -91 842 396 
Q 353 884 353 1716 
Q 353 2575 817 3079 
Q 1281 3584 2069 3584 
Q 2775 3584 3186 3129 
Q 3597 2675 3597 1894 
z
M 3022 2063 
Q 3016 2534 2758 2815 
Q 2500 3097 2075 3097 
Q 1594 3097 1305 2825 
Q 1016 2553 972 2059 
L 3022 2063 
z
" transform="scale(0.015625)"/>
       <path id="DejaVuSans-72" d="M 2631 2963 
Q 2534 3019 2420 3045 
Q 2306 3072 2169 3072 
Q 1681 3072 1420 2755 
Q 1159 2438 1159 1844 
L 1159 0 
L 581 0 
L 581 3500 
L 1159 3500 
L 1159 2956 
Q 1341 3275 1631 3429 
Q 1922 3584 2338 3584 
Q 2397 3584 2469 3576 
Q 2541 3569 2628 3553 
L 2631 2963 
z
" transform="scale(0.015625)"/>
       <path id="DejaVuSans-61" d="M 2194 1759 
Q 1497 1759 1228 1600 
Q 959 1441 959 1056 
Q 959 750 1161 570 
Q 1363 391 1709 391 
Q 2188 391 2477 730 
Q 2766 1069 2766 1631 
L 2766 1759 
L 2194 1759 
z
M 3341 1997 
L 3341 0 
L 2766 0 
L 2766 531 
Q 2569 213 2275 61 
Q 1981 -91 1556 -91 
Q 1019 -91 701 211 
Q 384 513 384 1019 
Q 384 1609 779 1909 
Q 1175 2209 1959 2209 
L 2766 2209 
L 2766 2266 
Q 2766 2663 2505 2880 
Q 2244 3097 1772 3097 
Q 1472 3097 1187 3025 
Q 903 2953 641 2809 
L 641 3341 
Q 956 3463 1253 3523 
Q 1550 3584 1831 3584 
Q 2591 3584 2966 3190 
Q 3341 2797 3341 1997 
z
" transform="scale(0.015625)"/>
       <path id="DejaVuSans-69" d="M 603 3500 
L 1178 3500 
L 1178 0 
L 603 0 
L 603 3500 
z
M 603 4863 
L 1178 4863 
L 1178 4134 
L 603 4134 
L 603 4863 
z
" transform="scale(0.015625)"/>
       <path id="DejaVuSans-6f" d="M 1959 3097 
Q 1497 3097 1228 2736 
Q 959 2375 959 1747 
Q 959 1119 1226 758 
Q 1494 397 1959 397 
Q 2419 397 2687 759 
Q 2956 1122 2956 1747 
Q 2956 2369 2687 2733 
Q 2419 3097 1959 3097 
z
M 1959 3584 
Q 2709 3584 3137 3096 
Q 3566 2609 3566 1747 
Q 3566 888 3137 398 
Q 2709 -91 1959 -91 
Q 1206 -91 779 398 
Q 353 888 353 1747 
Q 353 2609 779 3096 
Q 1206 3584 1959 3584 
z
" transform="scale(0.015625)"/>
       <path id="DejaVuSans-6e" d="M 3513 2113 
L 3513 0 
L 2938 0 
L 2938 2094 
Q 2938 2591 2744 2837 
Q 2550 3084 2163 3084 
Q 1697 3084 1428 2787 
Q 1159 2491 1159 1978 
L 1159 0 
L 581 0 
L 581 3500 
L 1159 3500 
L 1159 2956 
Q 1366 3272 1645 3428 
Q 1925 3584 2291 3584 
Q 2894 3584 3203 3211 
Q 3513 2838 3513 2113 
z
" transform="scale(0.015625)"/>
       <path id="DejaVuSans-73" d="M 2834 3397 
L 2834 2853 
Q 2591 2978 2328 3040 
Q 2066 3103 1784 3103 
Q 1356 3103 1142 2972 
Q 928 2841 928 2578 
Q 928 2378 1081 2264 
Q 1234 2150 1697 2047 
L 1894 2003 
Q 2506 1872 2764 1633 
Q 3022 1394 3022 966 
Q 3022 478 2636 193 
Q 2250 -91 1575 -91 
Q 1294 -91 989 -36 
Q 684 19 347 128 
L 347 722 
Q 666 556 975 473 
Q 1284 391 1588 391 
Q 1994 391 2212 530 
Q 2431 669 2431 922 
Q 2431 1156 2273 1281 
Q 2116 1406 1581 1522 
L 1381 1569 
Q 847 1681 609 1914 
Q 372 2147 372 2553 
Q 372 3047 722 3315 
Q 1072 3584 1716 3584 
Q 2034 3584 2315 3537 
Q 2597 3491 2834 3397 
z
" transform="scale(0.015625)"/>
      </defs>
      <use xlink:href="#DejaVuSans-49"/>
      <use xlink:href="#DejaVuSans-74" x="29.492188"/>
      <use xlink:href="#DejaVuSans-65" x="68.701172"/>
      <use xlink:href="#DejaVuSans-72" x="130.224609"/>
      <use xlink:href="#DejaVuSans-61" x="171.337891"/>
      <use xlink:href="#DejaVuSans-74" x="232.617188"/>
      <use xlink:href="#DejaVuSans-69" x="271.826172"/>
      <use xlink:href="#DejaVuSans-6f" x="299.609375"/>
      <use xlink:href="#DejaVuSans-6e" x="360.791016"/>
      <use xlink:href="#DejaVuSans-73" x="424.169922"/>
     </g>
    </g>
   </g>
   <g id="matplotlib.axis_2">
    <g id="ytick_1">
     <g id="line2d_6">
      <defs>
       <path id="m5baf59023a" d="M 0 0 
L -3.5 0 
" style="stroke: #000000; stroke-width: 0.8"/>
      </defs>
      <g>
       <use xlink:href="#m5baf59023a" x="54" y="247.617308" style="stroke: #000000; stroke-width: 0.8"/>
      </g>
     </g>
     <g id="text_7">
      <!-- 0.0 -->
      <g transform="translate(12.013125 255.975589) scale(0.22 -0.22)">
       <defs>
        <path id="DejaVuSans-2e" d="M 684 794 
L 1344 794 
L 1344 0 
L 684 0 
L 684 794 
z
" transform="scale(0.015625)"/>
       </defs>
       <use xlink:href="#DejaVuSans-30"/>
       <use xlink:href="#DejaVuSans-2e" x="63.623047"/>
       <use xlink:href="#DejaVuSans-30" x="95.410156"/>
      </g>
     </g>
    </g>
    <g id="ytick_2">
     <g id="line2d_7">
      <g>
       <use xlink:href="#m5baf59023a" x="54" y="218.344294" style="stroke: #000000; stroke-width: 0.8"/>
      </g>
     </g>
     <g id="text_8">
      <!-- 0.1 -->
      <g transform="translate(12.013125 226.702575) scale(0.22 -0.22)">
       <use xlink:href="#DejaVuSans-30"/>
       <use xlink:href="#DejaVuSans-2e" x="63.623047"/>
       <use xlink:href="#DejaVuSans-31" x="95.410156"/>
      </g>
     </g>
    </g>
    <g id="ytick_3">
     <g id="line2d_8">
      <g>
       <use xlink:href="#m5baf59023a" x="54" y="189.07128" style="stroke: #000000; stroke-width: 0.8"/>
      </g>
     </g>
     <g id="text_9">
      <!-- 0.2 -->
      <g transform="translate(12.013125 197.429561) scale(0.22 -0.22)">
       <use xlink:href="#DejaVuSans-30"/>
       <use xlink:href="#DejaVuSans-2e" x="63.623047"/>
       <use xlink:href="#DejaVuSans-32" x="95.410156"/>
      </g>
     </g>
    </g>
    <g id="ytick_4">
     <g id="line2d_9">
      <g>
       <use xlink:href="#m5baf59023a" x="54" y="159.798266" style="stroke: #000000; stroke-width: 0.8"/>
      </g>
     </g>
     <g id="text_10">
      <!-- 0.3 -->
      <g transform="translate(12.013125 168.156547) scale(0.22 -0.22)">
       <defs>
        <path id="DejaVuSans-33" d="M 2597 2516 
Q 3050 2419 3304 2112 
Q 3559 1806 3559 1356 
Q 3559 666 3084 287 
Q 2609 -91 1734 -91 
Q 1441 -91 1130 -33 
Q 819 25 488 141 
L 488 750 
Q 750 597 1062 519 
Q 1375 441 1716 441 
Q 2309 441 2620 675 
Q 2931 909 2931 1356 
Q 2931 1769 2642 2001 
Q 2353 2234 1838 2234 
L 1294 2234 
L 1294 2753 
L 1863 2753 
Q 2328 2753 2575 2939 
Q 2822 3125 2822 3475 
Q 2822 3834 2567 4026 
Q 2313 4219 1838 4219 
Q 1578 4219 1281 4162 
Q 984 4106 628 3988 
L 628 4550 
Q 988 4650 1302 4700 
Q 1616 4750 1894 4750 
Q 2613 4750 3031 4423 
Q 3450 4097 3450 3541 
Q 3450 3153 3228 2886 
Q 3006 2619 2597 2516 
z
" transform="scale(0.015625)"/>
       </defs>
       <use xlink:href="#DejaVuSans-30"/>
       <use xlink:href="#DejaVuSans-2e" x="63.623047"/>
       <use xlink:href="#DejaVuSans-33" x="95.410156"/>
      </g>
     </g>
    </g>
    <g id="ytick_5">
     <g id="line2d_10">
      <g>
       <use xlink:href="#m5baf59023a" x="54" y="130.525251" style="stroke: #000000; stroke-width: 0.8"/>
      </g>
     </g>
     <g id="text_11">
      <!-- 0.4 -->
      <g transform="translate(12.013125 138.883533) scale(0.22 -0.22)">
       <defs>
        <path id="DejaVuSans-34" d="M 2419 4116 
L 825 1625 
L 2419 1625 
L 2419 4116 
z
M 2253 4666 
L 3047 4666 
L 3047 1625 
L 3713 1625 
L 3713 1100 
L 3047 1100 
L 3047 0 
L 2419 0 
L 2419 1100 
L 313 1100 
L 313 1709 
L 2253 4666 
z
" transform="scale(0.015625)"/>
       </defs>
       <use xlink:href="#DejaVuSans-30"/>
       <use xlink:href="#DejaVuSans-2e" x="63.623047"/>
       <use xlink:href="#DejaVuSans-34" x="95.410156"/>
      </g>
     </g>
    </g>
    <g id="ytick_6">
     <g id="line2d_11">
      <g>
       <use xlink:href="#m5baf59023a" x="54" y="101.252237" style="stroke: #000000; stroke-width: 0.8"/>
      </g>
     </g>
     <g id="text_12">
      <!-- 0.5 -->
      <g transform="translate(12.013125 109.610518) scale(0.22 -0.22)">
       <use xlink:href="#DejaVuSans-30"/>
       <use xlink:href="#DejaVuSans-2e" x="63.623047"/>
       <use xlink:href="#DejaVuSans-35" x="95.410156"/>
      </g>
     </g>
    </g>
    <g id="ytick_7">
     <g id="line2d_12">
      <g>
       <use xlink:href="#m5baf59023a" x="54" y="71.979223" style="stroke: #000000; stroke-width: 0.8"/>
      </g>
     </g>
     <g id="text_13">
      <!-- 0.6 -->
      <g transform="translate(12.013125 80.337504) scale(0.22 -0.22)">
       <defs>
        <path id="DejaVuSans-36" d="M 2113 2584 
Q 1688 2584 1439 2293 
Q 1191 2003 1191 1497 
Q 1191 994 1439 701 
Q 1688 409 2113 409 
Q 2538 409 2786 701 
Q 3034 994 3034 1497 
Q 3034 2003 2786 2293 
Q 2538 2584 2113 2584 
z
M 3366 4563 
L 3366 3988 
Q 3128 4100 2886 4159 
Q 2644 4219 2406 4219 
Q 1781 4219 1451 3797 
Q 1122 3375 1075 2522 
Q 1259 2794 1537 2939 
Q 1816 3084 2150 3084 
Q 2853 3084 3261 2657 
Q 3669 2231 3669 1497 
Q 3669 778 3244 343 
Q 2819 -91 2113 -91 
Q 1303 -91 875 529 
Q 447 1150 447 2328 
Q 447 3434 972 4092 
Q 1497 4750 2381 4750 
Q 2619 4750 2861 4703 
Q 3103 4656 3366 4563 
z
" transform="scale(0.015625)"/>
       </defs>
       <use xlink:href="#DejaVuSans-30"/>
       <use xlink:href="#DejaVuSans-2e" x="63.623047"/>
       <use xlink:href="#DejaVuSans-36" x="95.410156"/>
      </g>
     </g>
    </g>
    <g id="ytick_8">
     <g id="line2d_13">
      <g>
       <use xlink:href="#m5baf59023a" x="54" y="42.706209" style="stroke: #000000; stroke-width: 0.8"/>
      </g>
     </g>
     <g id="text_14">
      <!-- 0.7 -->
      <g transform="translate(12.013125 51.06449) scale(0.22 -0.22)">
       <defs>
        <path id="DejaVuSans-37" d="M 525 4666 
L 3525 4666 
L 3525 4397 
L 1831 0 
L 1172 0 
L 2766 4134 
L 525 4134 
L 525 4666 
z
" transform="scale(0.015625)"/>
       </defs>
       <use xlink:href="#DejaVuSans-30"/>
       <use xlink:href="#DejaVuSans-2e" x="63.623047"/>
       <use xlink:href="#DejaVuSans-37" x="95.410156"/>
      </g>
     </g>
    </g>
    <g id="text_15">
     <!-- Cross-Entorpy -->
     <g transform="translate(3.437812 222.53625) rotate(-90) scale(0.22 -0.22)">
      <defs>
       <path id="DejaVuSans-43" d="M 4122 4306 
L 4122 3641 
Q 3803 3938 3442 4084 
Q 3081 4231 2675 4231 
Q 1875 4231 1450 3742 
Q 1025 3253 1025 2328 
Q 1025 1406 1450 917 
Q 1875 428 2675 428 
Q 3081 428 3442 575 
Q 3803 722 4122 1019 
L 4122 359 
Q 3791 134 3420 21 
Q 3050 -91 2638 -91 
Q 1578 -91 968 557 
Q 359 1206 359 2328 
Q 359 3453 968 4101 
Q 1578 4750 2638 4750 
Q 3056 4750 3426 4639 
Q 3797 4528 4122 4306 
z
" transform="scale(0.015625)"/>
       <path id="DejaVuSans-2d" d="M 313 2009 
L 1997 2009 
L 1997 1497 
L 313 1497 
L 313 2009 
z
" transform="scale(0.015625)"/>
       <path id="DejaVuSans-45" d="M 628 4666 
L 3578 4666 
L 3578 4134 
L 1259 4134 
L 1259 2753 
L 3481 2753 
L 3481 2222 
L 1259 2222 
L 1259 531 
L 3634 531 
L 3634 0 
L 628 0 
L 628 4666 
z
" transform="scale(0.015625)"/>
       <path id="DejaVuSans-70" d="M 1159 525 
L 1159 -1331 
L 581 -1331 
L 581 3500 
L 1159 3500 
L 1159 2969 
Q 1341 3281 1617 3432 
Q 1894 3584 2278 3584 
Q 2916 3584 3314 3078 
Q 3713 2572 3713 1747 
Q 3713 922 3314 415 
Q 2916 -91 2278 -91 
Q 1894 -91 1617 61 
Q 1341 213 1159 525 
z
M 3116 1747 
Q 3116 2381 2855 2742 
Q 2594 3103 2138 3103 
Q 1681 3103 1420 2742 
Q 1159 2381 1159 1747 
Q 1159 1113 1420 752 
Q 1681 391 2138 391 
Q 2594 391 2855 752 
Q 3116 1113 3116 1747 
z
" transform="scale(0.015625)"/>
       <path id="DejaVuSans-79" d="M 2059 -325 
Q 1816 -950 1584 -1140 
Q 1353 -1331 966 -1331 
L 506 -1331 
L 506 -850 
L 844 -850 
Q 1081 -850 1212 -737 
Q 1344 -625 1503 -206 
L 1606 56 
L 191 3500 
L 800 3500 
L 1894 763 
L 2988 3500 
L 3597 3500 
L 2059 -325 
z
" transform="scale(0.015625)"/>
      </defs>
      <use xlink:href="#DejaVuSans-43"/>
      <use xlink:href="#DejaVuSans-72" x="69.824219"/>
      <use xlink:href="#DejaVuSans-6f" x="108.6875"/>
      <use xlink:href="#DejaVuSans-73" x="169.869141"/>
      <use xlink:href="#DejaVuSans-73" x="221.96875"/>
      <use xlink:href="#DejaVuSans-2d" x="274.068359"/>
      <use xlink:href="#DejaVuSans-45" x="310.152344"/>
      <use xlink:href="#DejaVuSans-6e" x="373.335938"/>
      <use xlink:href="#DejaVuSans-74" x="436.714844"/>
      <use xlink:href="#DejaVuSans-6f" x="475.923828"/>
      <use xlink:href="#DejaVuSans-72" x="537.105469"/>
      <use xlink:href="#DejaVuSans-70" x="578.21875"/>
      <use xlink:href="#DejaVuSans-79" x="641.695312"/>
     </g>
    </g>
   </g>
   <g id="line2d_14">
    <path d="M 69.218182 44.687054 
L 73.022727 44.731637 
L 76.827273 45.998291 
L 80.631818 62.433429 
L 84.436364 102.414488 
L 88.240909 130.751689 
L 92.045455 150.512736 
L 95.85 158.644649 
L 99.654545 168.676669 
L 103.459091 182.283525 
L 107.263636 185.057335 
L 111.068182 193.757136 
L 114.872727 198.152265 
L 118.677273 196.060232 
L 122.481818 197.156202 
L 126.286364 211.664621 
L 130.090909 210.968265 
L 133.895455 212.571317 
L 137.7 211.710686 
L 141.504545 218.421107 
L 145.309091 222.96012 
L 149.113636 213.463565 
L 152.918182 221.176087 
L 156.722727 220.759673 
L 160.527273 227.819454 
L 164.331818 222.902578 
L 168.136364 227.249477 
L 171.940909 220.054436 
L 175.745455 220.590742 
L 179.55 229.372532 
L 183.354545 222.558485 
L 187.159091 227.981492 
L 190.963636 216.303805 
L 194.768182 226.354477 
L 198.572727 226.419394 
L 202.377273 219.49799 
L 206.181818 227.800432 
L 209.986364 227.345486 
L 213.790909 232.601276 
L 217.595455 228.682735 
L 221.4 230.305685 
L 225.204545 228.462839 
L 229.009091 234.491717 
L 232.813636 232.040392 
L 236.618182 233.753338 
L 240.422727 229.682462 
L 244.227273 232.795965 
L 248.031818 233.681157 
L 251.836364 237.22772 
L 255.640909 235.119683 
L 259.445455 229.27199 
L 263.25 238.183505 
L 267.054545 235.425899 
L 270.859091 232.094509 
L 274.663636 232.560891 
L 278.468182 230.980275 
L 282.272727 234.041629 
L 286.077273 237.461465 
L 289.881818 238.15211 
L 293.686364 235.955043 
L 297.490909 234.196491 
L 301.295455 233.844034 
L 305.1 236.474189 
L 308.904545 238.320263 
L 312.709091 234.346891 
L 316.513636 239.720683 
L 320.318182 233.538077 
L 324.122727 238.994623 
L 327.927273 237.626636 
L 331.731818 236.913567 
L 335.536364 239.339653 
L 339.340909 231.720591 
L 343.145455 236.446476 
L 346.95 233.330534 
L 350.754545 237.082032 
L 354.559091 242.379681 
L 358.363636 238.404578 
L 362.168182 238.7941 
L 365.972727 239.058519 
L 369.777273 243.32108 
L 373.581818 242.814033 
" clip-path="url(#pa66d7f522f)" style="fill: none; stroke: #c20017; stroke-width: 1.5; stroke-linecap: square"/>
   </g>
   <g id="line2d_15">
    <path d="M 69.218182 44.689291 
L 73.022727 44.720313 
L 76.827273 44.922338 
L 80.631818 46.47767 
L 84.436364 60.021146 
L 88.240909 75.261168 
L 92.045455 90.906224 
L 95.85 100.285605 
L 99.654545 110.193799 
L 103.459091 119.852253 
L 107.263636 129.435874 
L 111.068182 133.104832 
L 114.872727 138.949214 
L 118.677273 142.158028 
L 122.481818 141.90203 
L 126.286364 152.769004 
L 130.090909 149.459642 
L 133.895455 159.670153 
L 137.7 163.888108 
L 141.504545 163.241854 
L 145.309091 164.101095 
L 149.113636 167.145191 
L 152.918182 177.327528 
L 156.722727 173.370108 
L 160.527273 178.439762 
L 164.331818 170.030301 
L 168.136364 183.237464 
L 171.940909 181.751349 
L 175.745455 184.904335 
L 179.55 186.514923 
L 183.354545 186.882915 
L 187.159091 190.013788 
L 190.963636 186.162552 
L 194.768182 189.10758 
L 198.572727 191.677872 
L 202.377273 188.670564 
L 206.181818 192.740905 
L 209.986364 190.031535 
L 213.790909 190.977687 
L 217.595455 191.82426 
L 221.4 193.209515 
L 225.204545 196.342733 
L 229.009091 197.247061 
L 232.813636 192.738094 
L 236.618182 192.216794 
L 240.422727 190.49501 
L 244.227273 199.551536 
L 248.031818 197.91442 
L 251.836364 197.521656 
L 255.640909 199.458608 
L 259.445455 203.713242 
L 263.25 199.947589 
L 267.054545 201.811838 
L 270.859091 202.054178 
L 274.663636 201.113573 
L 278.468182 203.222845 
L 282.272727 203.307625 
L 286.077273 202.045315 
L 289.881818 197.719299 
L 293.686364 199.721855 
L 297.490909 199.334454 
L 301.295455 204.036915 
L 305.1 202.237694 
L 308.904545 206.533532 
L 312.709091 207.782129 
L 316.513636 204.168035 
L 320.318182 204.157689 
L 324.122727 205.566434 
L 327.927273 206.796895 
L 331.731818 202.275271 
L 335.536364 200.486583 
L 339.340909 204.633207 
L 343.145455 205.023013 
L 346.95 208.40316 
L 350.754545 209.116586 
L 354.559091 210.450794 
L 358.363636 211.483885 
L 362.168182 205.196763 
L 365.972727 209.239558 
L 369.777273 207.132829 
L 373.581818 206.502894 
" clip-path="url(#pa66d7f522f)" style="fill: none; stroke: #cac100; stroke-width: 1.5; stroke-linecap: square"/>
   </g>
   <g id="line2d_16">
    <path d="M 69.218182 44.689465 
L 73.022727 44.725974 
L 76.827273 45.072911 
L 80.631818 47.789378 
L 84.436364 61.588775 
L 88.240909 70.938215 
L 92.045455 80.063754 
L 95.85 91.036211 
L 99.654545 106.483094 
L 103.459091 112.192774 
L 107.263636 116.156647 
L 111.068182 121.814479 
L 114.872727 123.43029 
L 118.677273 132.128349 
L 122.481818 134.952161 
L 126.286364 146.311316 
L 130.090909 143.963046 
L 133.895455 154.888639 
L 137.7 155.537321 
L 141.504545 161.344073 
L 145.309091 164.954404 
L 149.113636 162.672543 
L 152.918182 164.964767 
L 156.722727 164.062776 
L 160.527273 168.913357 
L 164.331818 173.580059 
L 168.136364 169.081793 
L 171.940909 176.80973 
L 175.745455 178.163198 
L 179.55 179.838993 
L 183.354545 185.34389 
L 187.159091 177.862565 
L 190.963636 175.954081 
L 194.768182 185.535822 
L 198.572727 179.918258 
L 202.377273 184.391285 
L 206.181818 182.131504 
L 209.986364 185.091593 
L 213.790909 188.658958 
L 217.595455 185.954303 
L 221.4 193.624659 
L 225.204545 190.375694 
L 229.009091 190.193247 
L 232.813636 187.53507 
L 236.618182 191.314195 
L 240.422727 193.676812 
L 244.227273 189.213219 
L 248.031818 192.151081 
L 251.836364 194.092859 
L 255.640909 192.065635 
L 259.445455 196.552631 
L 263.25 192.816785 
L 267.054545 193.441177 
L 270.859091 192.069896 
L 274.663636 194.059271 
L 278.468182 196.745575 
L 282.272727 197.93738 
L 286.077273 198.67675 
L 289.881818 197.950714 
L 293.686364 197.701996 
L 297.490909 194.821194 
L 301.295455 196.814557 
L 305.1 194.14573 
L 308.904545 193.52215 
L 312.709091 196.489489 
L 316.513636 199.552167 
L 320.318182 202.034338 
L 324.122727 198.51357 
L 327.927273 199.018295 
L 331.731818 200.47939 
L 335.536364 196.932009 
L 339.340909 198.168247 
L 343.145455 203.560484 
L 346.95 205.202094 
L 350.754545 200.605358 
L 354.559091 200.340223 
L 358.363636 205.991972 
L 362.168182 203.77182 
L 365.972727 209.95897 
L 369.777273 204.607848 
L 373.581818 196.988744 
" clip-path="url(#pa66d7f522f)" style="fill: none; stroke: #23aa00; stroke-width: 1.5; stroke-linecap: square"/>
   </g>
   <g id="patch_3">
    <path d="M 54 256.32 
L 54 34.56 
" style="fill: none; stroke: #000000; stroke-width: 0.8; stroke-linejoin: miter; stroke-linecap: square"/>
   </g>
   <g id="patch_4">
    <path d="M 54 256.32 
L 388.8 256.32 
" style="fill: none; stroke: #000000; stroke-width: 0.8; stroke-linejoin: miter; stroke-linecap: square"/>
   </g>
   <g id="text_16">
    <!-- Cue Accumulation -->
    <g transform="translate(101.556375 28.56) scale(0.264 -0.264)">
     <defs>
      <path id="DejaVuSans-75" d="M 544 1381 
L 544 3500 
L 1119 3500 
L 1119 1403 
Q 1119 906 1312 657 
Q 1506 409 1894 409 
Q 2359 409 2629 706 
Q 2900 1003 2900 1516 
L 2900 3500 
L 3475 3500 
L 3475 0 
L 2900 0 
L 2900 538 
Q 2691 219 2414 64 
Q 2138 -91 1772 -91 
Q 1169 -91 856 284 
Q 544 659 544 1381 
z
M 1991 3584 
L 1991 3584 
z
" transform="scale(0.015625)"/>
      <path id="DejaVuSans-20" transform="scale(0.015625)"/>
      <path id="DejaVuSans-41" d="M 2188 4044 
L 1331 1722 
L 3047 1722 
L 2188 4044 
z
M 1831 4666 
L 2547 4666 
L 4325 0 
L 3669 0 
L 3244 1197 
L 1141 1197 
L 716 0 
L 50 0 
L 1831 4666 
z
" transform="scale(0.015625)"/>
      <path id="DejaVuSans-63" d="M 3122 3366 
L 3122 2828 
Q 2878 2963 2633 3030 
Q 2388 3097 2138 3097 
Q 1578 3097 1268 2742 
Q 959 2388 959 1747 
Q 959 1106 1268 751 
Q 1578 397 2138 397 
Q 2388 397 2633 464 
Q 2878 531 3122 666 
L 3122 134 
Q 2881 22 2623 -34 
Q 2366 -91 2075 -91 
Q 1284 -91 818 406 
Q 353 903 353 1747 
Q 353 2603 823 3093 
Q 1294 3584 2113 3584 
Q 2378 3584 2631 3529 
Q 2884 3475 3122 3366 
z
" transform="scale(0.015625)"/>
      <path id="DejaVuSans-6d" d="M 3328 2828 
Q 3544 3216 3844 3400 
Q 4144 3584 4550 3584 
Q 5097 3584 5394 3201 
Q 5691 2819 5691 2113 
L 5691 0 
L 5113 0 
L 5113 2094 
Q 5113 2597 4934 2840 
Q 4756 3084 4391 3084 
Q 3944 3084 3684 2787 
Q 3425 2491 3425 1978 
L 3425 0 
L 2847 0 
L 2847 2094 
Q 2847 2600 2669 2842 
Q 2491 3084 2119 3084 
Q 1678 3084 1418 2786 
Q 1159 2488 1159 1978 
L 1159 0 
L 581 0 
L 581 3500 
L 1159 3500 
L 1159 2956 
Q 1356 3278 1631 3431 
Q 1906 3584 2284 3584 
Q 2666 3584 2933 3390 
Q 3200 3197 3328 2828 
z
" transform="scale(0.015625)"/>
      <path id="DejaVuSans-6c" d="M 603 4863 
L 1178 4863 
L 1178 0 
L 603 0 
L 603 4863 
z
" transform="scale(0.015625)"/>
     </defs>
     <use xlink:href="#DejaVuSans-43"/>
     <use xlink:href="#DejaVuSans-75" x="69.824219"/>
     <use xlink:href="#DejaVuSans-65" x="133.203125"/>
     <use xlink:href="#DejaVuSans-20" x="194.726562"/>
     <use xlink:href="#DejaVuSans-41" x="226.513672"/>
     <use xlink:href="#DejaVuSans-63" x="293.171875"/>
     <use xlink:href="#DejaVuSans-63" x="348.152344"/>
     <use xlink:href="#DejaVuSans-75" x="403.132812"/>
     <use xlink:href="#DejaVuSans-6d" x="466.511719"/>
     <use xlink:href="#DejaVuSans-75" x="563.923828"/>
     <use xlink:href="#DejaVuSans-6c" x="627.302734"/>
     <use xlink:href="#DejaVuSans-61" x="655.085938"/>
     <use xlink:href="#DejaVuSans-74" x="716.365234"/>
     <use xlink:href="#DejaVuSans-69" x="755.574219"/>
     <use xlink:href="#DejaVuSans-6f" x="783.357422"/>
     <use xlink:href="#DejaVuSans-6e" x="844.539062"/>
    </g>
   </g>
   <g id="legend_1">
    <g id="patch_5">
     <path d="M 205.54 149.035625 
L 373.4 149.035625 
Q 377.8 149.035625 377.8 144.635625 
L 377.8 49.96 
Q 377.8 45.56 373.4 45.56 
L 205.54 45.56 
Q 201.14 45.56 201.14 49.96 
L 201.14 144.635625 
Q 201.14 149.035625 205.54 149.035625 
z
" style="fill: #ffffff; opacity: 0.8; stroke: #cccccc; stroke-linejoin: miter"/>
    </g>
    <g id="line2d_17">
     <path d="M 209.94 63.376563 
L 231.94 63.376563 
L 253.94 63.376563 
" style="fill: none; stroke: #c20017; stroke-width: 1.5; stroke-linecap: square"/>
    </g>
    <g id="text_17">
     <!-- BPTT -->
     <g transform="translate(271.54 71.076563) scale(0.22 -0.22)">
      <defs>
       <path id="DejaVuSans-42" d="M 1259 2228 
L 1259 519 
L 2272 519 
Q 2781 519 3026 730 
Q 3272 941 3272 1375 
Q 3272 1813 3026 2020 
Q 2781 2228 2272 2228 
L 1259 2228 
z
M 1259 4147 
L 1259 2741 
L 2194 2741 
Q 2656 2741 2882 2914 
Q 3109 3088 3109 3444 
Q 3109 3797 2882 3972 
Q 2656 4147 2194 4147 
L 1259 4147 
z
M 628 4666 
L 2241 4666 
Q 2963 4666 3353 4366 
Q 3744 4066 3744 3513 
Q 3744 3084 3544 2831 
Q 3344 2578 2956 2516 
Q 3422 2416 3680 2098 
Q 3938 1781 3938 1306 
Q 3938 681 3513 340 
Q 3088 0 2303 0 
L 628 0 
L 628 4666 
z
" transform="scale(0.015625)"/>
       <path id="DejaVuSans-50" d="M 1259 4147 
L 1259 2394 
L 2053 2394 
Q 2494 2394 2734 2622 
Q 2975 2850 2975 3272 
Q 2975 3691 2734 3919 
Q 2494 4147 2053 4147 
L 1259 4147 
z
M 628 4666 
L 2053 4666 
Q 2838 4666 3239 4311 
Q 3641 3956 3641 3272 
Q 3641 2581 3239 2228 
Q 2838 1875 2053 1875 
L 1259 1875 
L 1259 0 
L 628 0 
L 628 4666 
z
" transform="scale(0.015625)"/>
       <path id="DejaVuSans-54" d="M -19 4666 
L 3928 4666 
L 3928 4134 
L 2272 4134 
L 2272 0 
L 1638 0 
L 1638 4134 
L -19 4134 
L -19 4666 
z
" transform="scale(0.015625)"/>
      </defs>
      <use xlink:href="#DejaVuSans-42"/>
      <use xlink:href="#DejaVuSans-50" x="68.603516"/>
      <use xlink:href="#DejaVuSans-54" x="128.90625"/>
      <use xlink:href="#DejaVuSans-54" x="188.240234"/>
     </g>
    </g>
    <g id="line2d_18">
     <path d="M 209.94 95.668438 
L 231.94 95.668438 
L 253.94 95.668438 
" style="fill: none; stroke: #cac100; stroke-width: 1.5; stroke-linecap: square"/>
    </g>
    <g id="text_18">
     <!-- E-prop -->
     <g transform="translate(271.54 103.368438) scale(0.22 -0.22)">
      <use xlink:href="#DejaVuSans-45"/>
      <use xlink:href="#DejaVuSans-2d" x="63.183594"/>
      <use xlink:href="#DejaVuSans-70" x="99.267578"/>
      <use xlink:href="#DejaVuSans-72" x="162.744141"/>
      <use xlink:href="#DejaVuSans-6f" x="201.607422"/>
      <use xlink:href="#DejaVuSans-70" x="262.789062"/>
     </g>
    </g>
    <g id="line2d_19">
     <path d="M 209.94 127.960313 
L 231.94 127.960313 
L 253.94 127.960313 
" style="fill: none; stroke: #23aa00; stroke-width: 1.5; stroke-linecap: square"/>
    </g>
    <g id="text_19">
     <!-- Diffusion -->
     <g transform="translate(271.54 135.660313) scale(0.22 -0.22)">
      <defs>
       <path id="DejaVuSans-44" d="M 1259 4147 
L 1259 519 
L 2022 519 
Q 2988 519 3436 956 
Q 3884 1394 3884 2338 
Q 3884 3275 3436 3711 
Q 2988 4147 2022 4147 
L 1259 4147 
z
M 628 4666 
L 1925 4666 
Q 3281 4666 3915 4102 
Q 4550 3538 4550 2338 
Q 4550 1131 3912 565 
Q 3275 0 1925 0 
L 628 0 
L 628 4666 
z
" transform="scale(0.015625)"/>
       <path id="DejaVuSans-66" d="M 2375 4863 
L 2375 4384 
L 1825 4384 
Q 1516 4384 1395 4259 
Q 1275 4134 1275 3809 
L 1275 3500 
L 2222 3500 
L 2222 3053 
L 1275 3053 
L 1275 0 
L 697 0 
L 697 3053 
L 147 3053 
L 147 3500 
L 697 3500 
L 697 3744 
Q 697 4328 969 4595 
Q 1241 4863 1831 4863 
L 2375 4863 
z
" transform="scale(0.015625)"/>
      </defs>
      <use xlink:href="#DejaVuSans-44"/>
      <use xlink:href="#DejaVuSans-69" x="77.001953"/>
      <use xlink:href="#DejaVuSans-66" x="104.785156"/>
      <use xlink:href="#DejaVuSans-66" x="139.990234"/>
      <use xlink:href="#DejaVuSans-75" x="175.195312"/>
      <use xlink:href="#DejaVuSans-73" x="238.574219"/>
      <use xlink:href="#DejaVuSans-69" x="290.673828"/>
      <use xlink:href="#DejaVuSans-6f" x="318.457031"/>
      <use xlink:href="#DejaVuSans-6e" x="379.638672"/>
     </g>
    </g>
   </g>
  </g>
 </g>
 <defs>
  <clipPath id="pa66d7f522f">
   <rect x="54" y="34.56" width="334.8" height="221.76"/>
  </clipPath>
 </defs>
</svg>
