<?xml version="1.0" encoding="utf-8" standalone="no"?>
<!DOCTYPE svg PUBLIC "-//W3C//DTD SVG 1.1//EN"
  "http://www.w3.org/Graphics/SVG/1.1/DTD/svg11.dtd">
<svg xmlns:xlink="http://www.w3.org/1999/xlink" width="432pt" height="288pt" viewBox="0 0 432 288" xmlns="http://www.w3.org/2000/svg" version="1.1">
 <metadata>
  <rdf:RDF xmlns:dc="http://purl.org/dc/elements/1.1/" xmlns:cc="http://creativecommons.org/ns#" xmlns:rdf="http://www.w3.org/1999/02/22-rdf-syntax-ns#">
   <cc:Work>
    <dc:type rdf:resource="http://purl.org/dc/dcmitype/StillImage"/>
    <dc:date>2024-11-15T08:37:07.304716</dc:date>
    <dc:format>image/svg+xml</dc:format>
    <dc:creator>
     <cc:Agent>
      <dc:title>Matplotlib v3.8.4, https://matplotlib.org/</dc:title>
     </cc:Agent>
    </dc:creator>
   </cc:Work>
  </rdf:RDF>
 </metadata>
 <defs>
  <style type="text/css">*{stroke-linejoin: round; stroke-linecap: butt}</style>
 </defs>
 <g id="figure_1">
  <g id="patch_1">
   <path d="M 0 288 
L 432 288 
L 432 0 
L 0 0 
z
" style="fill: #ffffff"/>
  </g>
  <g id="axes_1">
   <g id="patch_2">
    <path d="M 54 256.32 
L 388.8 256.32 
L 388.8 34.56 
L 54 34.56 
z
" style="fill: #ffffff"/>
   </g>
   <g id="PolyCollection_1">
    <defs>
     <path id="m8f0dbddc96" d="M 69.218182 -243.36 
L 69.218182 -238.85092 
L 73.070886 -155.350933 
L 76.92359 -174.66856 
L 80.776295 -96.926464 
L 84.628999 -65.548399 
L 88.481703 -59.965266 
L 92.334407 -52.445217 
L 96.187112 -49.727226 
L 100.039816 -49.5953 
L 103.89252 -47.490514 
L 107.745224 -47.732826 
L 111.597929 -46.363954 
L 115.450633 -46.554974 
L 119.303337 -45.943298 
L 123.156041 -45.652548 
L 127.008746 -45.239337 
L 130.86145 -45.241983 
L 134.714154 -44.273115 
L 138.566858 -44.223256 
L 142.419563 -44.471277 
L 146.272267 -43.999732 
L 150.124971 -43.455889 
L 153.977675 -43.682818 
L 157.83038 -43.316267 
L 161.683084 -43.189794 
L 165.535788 -43.02516 
L 169.388493 -43.537087 
L 173.241197 -43.139848 
L 177.093901 -42.964237 
L 180.946605 -42.920404 
L 184.79931 -42.782156 
L 188.652014 -42.612807 
L 192.504718 -42.88601 
L 196.357422 -42.808315 
L 200.210127 -42.709641 
L 204.062831 -42.735156 
L 207.915535 -42.510249 
L 211.768239 -42.442443 
L 215.620944 -42.549903 
L 219.473648 -42.393443 
L 223.326352 -42.625201 
L 227.179056 -42.424634 
L 231.031761 -42.231783 
L 234.884465 -42.599162 
L 238.737169 -42.254023 
L 242.589873 -42.299571 
L 246.442578 -42.207674 
L 250.295282 -42.175754 
L 254.147986 -42.395589 
L 258.00069 -42.250507 
L 261.853395 -42.311488 
L 265.706099 -42.346347 
L 269.558803 -42.148672 
L 273.411507 -42.191189 
L 277.264212 -42.023111 
L 281.116916 -42.192323 
L 284.96962 -42.171036 
L 288.822325 -42.037878 
L 292.675029 -41.968377 
L 296.527733 -42.052228 
L 300.380437 -41.956069 
L 304.233142 -42.012402 
L 308.085846 -41.941471 
L 311.93855 -42.045549 
L 315.791254 -41.909711 
L 319.643959 -41.972032 
L 323.496663 -41.971057 
L 327.349367 -42.047948 
L 331.202071 -41.800032 
L 335.054776 -41.858626 
L 338.90748 -41.795616 
L 342.760184 -41.880039 
L 346.612888 -41.910712 
L 350.465593 -41.981891 
L 354.318297 -41.862195 
L 358.171001 -41.889021 
L 362.023705 -41.815713 
L 365.87641 -41.826412 
L 369.729114 -41.76 
L 373.581818 -41.791936 
L 373.581818 -42.499102 
L 373.581818 -42.499102 
L 369.729114 -42.537745 
L 365.87641 -42.243844 
L 362.023705 -42.723155 
L 358.171001 -42.444646 
L 354.318297 -42.419827 
L 350.465593 -42.623692 
L 346.612888 -42.570092 
L 342.760184 -42.203991 
L 338.90748 -42.432563 
L 335.054776 -42.686757 
L 331.202071 -42.52363 
L 327.349367 -42.721506 
L 323.496663 -42.661923 
L 319.643959 -44.660737 
L 315.791254 -44.980669 
L 311.93855 -43.199663 
L 308.085846 -42.841936 
L 304.233142 -43.06827 
L 300.380437 -43.023355 
L 296.527733 -43.36537 
L 292.675029 -42.878181 
L 288.822325 -42.970091 
L 284.96962 -42.729542 
L 281.116916 -42.994806 
L 277.264212 -42.921925 
L 273.411507 -43.357466 
L 269.558803 -43.261445 
L 265.706099 -42.990106 
L 261.853395 -44.446562 
L 258.00069 -43.369787 
L 254.147986 -43.289106 
L 250.295282 -43.62125 
L 246.442578 -43.185706 
L 242.589873 -44.399565 
L 238.737169 -44.389417 
L 234.884465 -43.305036 
L 231.031761 -43.617841 
L 227.179056 -44.195449 
L 223.326352 -44.54025 
L 219.473648 -44.810373 
L 215.620944 -43.506197 
L 211.768239 -43.988079 
L 207.915535 -44.86829 
L 204.062831 -44.151449 
L 200.210127 -44.083464 
L 196.357422 -45.278736 
L 192.504718 -44.968882 
L 188.652014 -44.685902 
L 184.79931 -44.272284 
L 180.946605 -45.350724 
L 177.093901 -46.131043 
L 173.241197 -45.601657 
L 169.388493 -45.490113 
L 165.535788 -45.668042 
L 161.683084 -46.921117 
L 157.83038 -46.12218 
L 153.977675 -45.784661 
L 150.124971 -45.894982 
L 146.272267 -46.773548 
L 142.419563 -47.033096 
L 138.566858 -47.83629 
L 134.714154 -49.014121 
L 130.86145 -55.419945 
L 127.008746 -50.937927 
L 123.156041 -49.471962 
L 119.303337 -51.389915 
L 115.450633 -52.65794 
L 111.597929 -55.210515 
L 107.745224 -60.811433 
L 103.89252 -70.195555 
L 100.039816 -76.897958 
L 96.187112 -85.64589 
L 92.334407 -116.820526 
L 88.481703 -193.788224 
L 84.628999 -226.122031 
L 80.776295 -159.166832 
L 76.92359 -217.116861 
L 73.070886 -228.25223 
L 69.218182 -243.36 
z
" style="stroke: #c20017; stroke-opacity: 0.4"/>
    </defs>
    <g clip-path="url(#p22a9af2534)">
     <use xlink:href="#m8f0dbddc96" x="0" y="288" style="fill: #c20017; fill-opacity: 0.4; stroke: #c20017; stroke-opacity: 0.4"/>
    </g>
   </g>
   <g id="PolyCollection_2">
    <defs>
     <path id="m9c4345f24a" d="M 69.218182 -241.734404 
L 69.218182 -239.604716 
L 73.070886 -141.717268 
L 76.92359 -98.572433 
L 80.776295 -82.610982 
L 84.628999 -70.25306 
L 88.481703 -66.162887 
L 92.334407 -57.774684 
L 96.187112 -55.892603 
L 100.039816 -59.3765 
L 103.89252 -53.522023 
L 107.745224 -53.093217 
L 111.597929 -53.349104 
L 115.450633 -52.976427 
L 119.303337 -50.884921 
L 123.156041 -49.95295 
L 127.008746 -50.226023 
L 130.86145 -49.181734 
L 134.714154 -49.530168 
L 138.566858 -48.238974 
L 142.419563 -48.296149 
L 146.272267 -49.288202 
L 150.124971 -48.040027 
L 153.977675 -47.325573 
L 157.83038 -46.34034 
L 161.683084 -47.252204 
L 165.535788 -46.45298 
L 169.388493 -46.268666 
L 173.241197 -45.95293 
L 177.093901 -45.732356 
L 180.946605 -45.43387 
L 184.79931 -46.410163 
L 188.652014 -45.502053 
L 192.504718 -46.106135 
L 196.357422 -45.521398 
L 200.210127 -45.540923 
L 204.062831 -45.822644 
L 207.915535 -45.162867 
L 211.768239 -45.205984 
L 215.620944 -45.281998 
L 219.473648 -44.921339 
L 223.326352 -44.476103 
L 227.179056 -44.516038 
L 231.031761 -44.655053 
L 234.884465 -44.457891 
L 238.737169 -44.532679 
L 242.589873 -44.246224 
L 246.442578 -44.2448 
L 250.295282 -44.722009 
L 254.147986 -44.116621 
L 258.00069 -44.285463 
L 261.853395 -44.415546 
L 265.706099 -44.446657 
L 269.558803 -43.778617 
L 273.411507 -43.744409 
L 277.264212 -44.166011 
L 281.116916 -43.724706 
L 284.96962 -43.568716 
L 288.822325 -44.018754 
L 292.675029 -43.925937 
L 296.527733 -43.933597 
L 300.380437 -43.556079 
L 304.233142 -43.461085 
L 308.085846 -43.406627 
L 311.93855 -43.323054 
L 315.791254 -43.462024 
L 319.643959 -43.39177 
L 323.496663 -43.515672 
L 327.349367 -43.594145 
L 331.202071 -44.056231 
L 335.054776 -43.188399 
L 338.90748 -43.116061 
L 342.760184 -43.282655 
L 346.612888 -43.348159 
L 350.465593 -43.327907 
L 354.318297 -43.164942 
L 358.171001 -42.883776 
L 362.023705 -43.118103 
L 365.87641 -43.100726 
L 369.729114 -43.056376 
L 373.581818 -43.144805 
L 373.581818 -49.749672 
L 373.581818 -49.749672 
L 369.729114 -50.040221 
L 365.87641 -50.240011 
L 362.023705 -51.315428 
L 358.171001 -53.231529 
L 354.318297 -55.845392 
L 350.465593 -56.5125 
L 346.612888 -61.945578 
L 342.760184 -74.245134 
L 338.90748 -98.541152 
L 335.054776 -136.917572 
L 331.202071 -192.042337 
L 327.349367 -45.057596 
L 323.496663 -44.907076 
L 319.643959 -44.607626 
L 315.791254 -44.796534 
L 311.93855 -44.055232 
L 308.085846 -45.818684 
L 304.233142 -44.805576 
L 300.380437 -44.934836 
L 296.527733 -46.069949 
L 292.675029 -44.922872 
L 288.822325 -44.853546 
L 284.96962 -45.225124 
L 281.116916 -45.559687 
L 277.264212 -44.928866 
L 273.411507 -45.645961 
L 269.558803 -45.461 
L 265.706099 -45.223649 
L 261.853395 -45.415824 
L 258.00069 -45.799899 
L 254.147986 -45.518565 
L 250.295282 -47.017288 
L 246.442578 -47.270341 
L 242.589873 -46.238877 
L 238.737169 -47.604891 
L 234.884465 -47.01109 
L 231.031761 -45.885406 
L 227.179056 -46.400125 
L 223.326352 -47.638807 
L 219.473648 -45.966163 
L 215.620944 -47.05194 
L 211.768239 -46.227345 
L 207.915535 -46.762688 
L 204.062831 -46.904855 
L 200.210127 -47.973099 
L 196.357422 -48.611423 
L 192.504718 -47.037586 
L 188.652014 -47.264611 
L 184.79931 -49.361868 
L 180.946605 -47.908248 
L 177.093901 -47.707701 
L 173.241197 -48.01534 
L 169.388493 -49.208416 
L 165.535788 -51.061109 
L 161.683084 -51.822009 
L 157.83038 -49.317482 
L 153.977675 -49.343509 
L 150.124971 -52.131278 
L 146.272267 -56.098877 
L 142.419563 -50.929297 
L 138.566858 -51.806605 
L 134.714154 -52.185499 
L 130.86145 -54.801313 
L 127.008746 -54.221702 
L 123.156041 -54.411952 
L 119.303337 -56.166865 
L 115.450633 -58.037252 
L 111.597929 -59.388388 
L 107.745224 -75.142561 
L 103.89252 -82.92797 
L 100.039816 -68.874224 
L 96.187112 -67.325651 
L 92.334407 -71.295891 
L 88.481703 -84.092233 
L 84.628999 -94.660891 
L 80.776295 -106.032461 
L 76.92359 -138.149218 
L 73.070886 -211.24957 
L 69.218182 -241.734404 
z
" style="stroke: #cac100; stroke-opacity: 0.4"/>
    </defs>
    <g clip-path="url(#p22a9af2534)">
     <use xlink:href="#m9c4345f24a" x="0" y="288" style="fill: #cac100; fill-opacity: 0.4; stroke: #cac100; stroke-opacity: 0.4"/>
    </g>
   </g>
   <g id="PolyCollection_3">
    <defs>
     <path id="m7e1313546c" d="M 69.218182 -241.278673 
L 69.218182 -239.86875 
L 73.070886 -216.69074 
L 76.92359 -145.729003 
L 80.776295 -102.972497 
L 84.628999 -80.464653 
L 88.481703 -81.507122 
L 92.334407 -66.256855 
L 96.187112 -63.322038 
L 100.039816 -58.833116 
L 103.89252 -60.841721 
L 107.745224 -57.246396 
L 111.597929 -56.448443 
L 115.450633 -54.810865 
L 119.303337 -53.381858 
L 123.156041 -55.099536 
L 127.008746 -51.079514 
L 130.86145 -50.52744 
L 134.714154 -50.501191 
L 138.566858 -50.946929 
L 142.419563 -50.974761 
L 146.272267 -49.961344 
L 150.124971 -48.718757 
L 153.977675 -47.650434 
L 157.83038 -49.125393 
L 161.683084 -48.926853 
L 165.535788 -48.191415 
L 169.388493 -47.796697 
L 173.241197 -47.24163 
L 177.093901 -46.734658 
L 180.946605 -47.297431 
L 184.79931 -46.775254 
L 188.652014 -47.328108 
L 192.504718 -46.803358 
L 196.357422 -46.796719 
L 200.210127 -45.677943 
L 204.062831 -45.795622 
L 207.915535 -45.608313 
L 211.768239 -45.828607 
L 215.620944 -45.611622 
L 219.473648 -45.547591 
L 223.326352 -46.410401 
L 227.179056 -46.257143 
L 231.031761 -45.843905 
L 234.884465 -45.052745 
L 238.737169 -45.466721 
L 242.589873 -45.683438 
L 246.442578 -45.832852 
L 250.295282 -44.711982 
L 254.147986 -45.471035 
L 258.00069 -44.539212 
L 261.853395 -45.100183 
L 265.706099 -44.65111 
L 269.558803 -44.733901 
L 273.411507 -44.584519 
L 277.264212 -44.971323 
L 281.116916 -44.593371 
L 284.96962 -44.554928 
L 288.822325 -44.129884 
L 292.675029 -44.746237 
L 296.527733 -44.469818 
L 300.380437 -43.889479 
L 304.233142 -44.112745 
L 308.085846 -44.722278 
L 311.93855 -44.398082 
L 315.791254 -44.413193 
L 319.643959 -44.319553 
L 323.496663 -43.613453 
L 327.349367 -43.79739 
L 331.202071 -43.834442 
L 335.054776 -43.770862 
L 338.90748 -44.28509 
L 342.760184 -43.964966 
L 346.612888 -44.012414 
L 350.465593 -43.718224 
L 354.318297 -43.861625 
L 358.171001 -44.015016 
L 362.023705 -43.421057 
L 365.87641 -43.691359 
L 369.729114 -43.640384 
L 373.581818 -43.861545 
L 373.581818 -45.500864 
L 373.581818 -45.500864 
L 369.729114 -45.166496 
L 365.87641 -46.003369 
L 362.023705 -45.984756 
L 358.171001 -45.714032 
L 354.318297 -45.831917 
L 350.465593 -46.401369 
L 346.612888 -45.375038 
L 342.760184 -47.208696 
L 338.90748 -46.417023 
L 335.054776 -46.159988 
L 331.202071 -45.95232 
L 327.349367 -46.288047 
L 323.496663 -45.521809 
L 319.643959 -46.585629 
L 315.791254 -45.8036 
L 311.93855 -47.318534 
L 308.085846 -46.183801 
L 304.233142 -47.883124 
L 300.380437 -47.910756 
L 296.527733 -48.100764 
L 292.675029 -46.71842 
L 288.822325 -47.513304 
L 284.96962 -46.732387 
L 281.116916 -48.492511 
L 277.264212 -47.836722 
L 273.411507 -47.185555 
L 269.558803 -47.307443 
L 265.706099 -46.970418 
L 261.853395 -48.613762 
L 258.00069 -48.493272 
L 254.147986 -49.707691 
L 250.295282 -50.019301 
L 246.442578 -49.946337 
L 242.589873 -50.001595 
L 238.737169 -52.878139 
L 234.884465 -50.812932 
L 231.031761 -50.091986 
L 227.179056 -48.269563 
L 223.326352 -50.983723 
L 219.473648 -50.247442 
L 215.620944 -52.997825 
L 211.768239 -50.551663 
L 207.915535 -49.769807 
L 204.062831 -53.11023 
L 200.210127 -51.724693 
L 196.357422 -52.711558 
L 192.504718 -53.093766 
L 188.652014 -54.064443 
L 184.79931 -51.078654 
L 180.946605 -52.312764 
L 177.093901 -54.197375 
L 173.241197 -59.454825 
L 169.388493 -58.84503 
L 165.535788 -56.514786 
L 161.683084 -62.827798 
L 157.83038 -60.734359 
L 153.977675 -57.485955 
L 150.124971 -58.316939 
L 146.272267 -58.41618 
L 142.419563 -60.845831 
L 138.566858 -62.403513 
L 134.714154 -62.712123 
L 130.86145 -62.916457 
L 127.008746 -69.92966 
L 123.156041 -64.443601 
L 119.303337 -65.784922 
L 115.450633 -71.579366 
L 111.597929 -71.161195 
L 107.745224 -74.582629 
L 103.89252 -81.527635 
L 100.039816 -84.995091 
L 96.187112 -89.120697 
L 92.334407 -88.93768 
L 88.481703 -105.965637 
L 84.628999 -128.818086 
L 80.776295 -139.891507 
L 76.92359 -189.388548 
L 73.070886 -231.368429 
L 69.218182 -241.278673 
z
" style="stroke: #23aa00; stroke-opacity: 0.4"/>
    </defs>
    <g clip-path="url(#p22a9af2534)">
     <use xlink:href="#m7e1313546c" x="0" y="288" style="fill: #23aa00; fill-opacity: 0.4; stroke: #23aa00; stroke-opacity: 0.4"/>
    </g>
   </g>
   <g id="matplotlib.axis_1">
    <g id="xtick_1">
     <g id="line2d_1">
      <defs>
       <path id="mbf5eaced26" d="M 0 0 
L 0 3.5 
" style="stroke: #000000; stroke-width: 0.8"/>
      </defs>
      <g>
       <use xlink:href="#mbf5eaced26" x="69.218182" y="256.32" style="stroke: #000000; stroke-width: 0.8"/>
      </g>
     </g>
     <g id="text_1">
      <!-- 0 -->
      <g transform="translate(62.219432 280.036563) scale(0.22 -0.22)">
       <defs>
        <path id="DejaVuSans-30" d="M 2034 4250 
Q 1547 4250 1301 3770 
Q 1056 3291 1056 2328 
Q 1056 1369 1301 889 
Q 1547 409 2034 409 
Q 2525 409 2770 889 
Q 3016 1369 3016 2328 
Q 3016 3291 2770 3770 
Q 2525 4250 2034 4250 
z
M 2034 4750 
Q 2819 4750 3233 4129 
Q 3647 3509 3647 2328 
Q 3647 1150 3233 529 
Q 2819 -91 2034 -91 
Q 1250 -91 836 529 
Q 422 1150 422 2328 
Q 422 3509 836 4129 
Q 1250 4750 2034 4750 
z
" transform="scale(0.015625)"/>
       </defs>
       <use xlink:href="#DejaVuSans-30"/>
      </g>
     </g>
    </g>
    <g id="xtick_2">
     <g id="line2d_2">
      <g>
       <use xlink:href="#mbf5eaced26" x="146.272267" y="256.32" style="stroke: #000000; stroke-width: 0.8"/>
      </g>
     </g>
     <g id="text_2">
      <!-- 500 -->
      <g transform="translate(125.276017 280.036563) scale(0.22 -0.22)">
       <defs>
        <path id="DejaVuSans-35" d="M 691 4666 
L 3169 4666 
L 3169 4134 
L 1269 4134 
L 1269 2991 
Q 1406 3038 1543 3061 
Q 1681 3084 1819 3084 
Q 2600 3084 3056 2656 
Q 3513 2228 3513 1497 
Q 3513 744 3044 326 
Q 2575 -91 1722 -91 
Q 1428 -91 1123 -41 
Q 819 9 494 109 
L 494 744 
Q 775 591 1075 516 
Q 1375 441 1709 441 
Q 2250 441 2565 725 
Q 2881 1009 2881 1497 
Q 2881 1984 2565 2268 
Q 2250 2553 1709 2553 
Q 1456 2553 1204 2497 
Q 953 2441 691 2322 
L 691 4666 
z
" transform="scale(0.015625)"/>
       </defs>
       <use xlink:href="#DejaVuSans-35"/>
       <use xlink:href="#DejaVuSans-30" x="63.623047"/>
       <use xlink:href="#DejaVuSans-30" x="127.246094"/>
      </g>
     </g>
    </g>
    <g id="xtick_3">
     <g id="line2d_3">
      <g>
       <use xlink:href="#mbf5eaced26" x="223.326352" y="256.32" style="stroke: #000000; stroke-width: 0.8"/>
      </g>
     </g>
     <g id="text_3">
      <!-- 1000 -->
      <g transform="translate(195.331352 280.036563) scale(0.22 -0.22)">
       <defs>
        <path id="DejaVuSans-31" d="M 794 531 
L 1825 531 
L 1825 4091 
L 703 3866 
L 703 4441 
L 1819 4666 
L 2450 4666 
L 2450 531 
L 3481 531 
L 3481 0 
L 794 0 
L 794 531 
z
" transform="scale(0.015625)"/>
       </defs>
       <use xlink:href="#DejaVuSans-31"/>
       <use xlink:href="#DejaVuSans-30" x="63.623047"/>
       <use xlink:href="#DejaVuSans-30" x="127.246094"/>
       <use xlink:href="#DejaVuSans-30" x="190.869141"/>
      </g>
     </g>
    </g>
    <g id="xtick_4">
     <g id="line2d_4">
      <g>
       <use xlink:href="#mbf5eaced26" x="300.380437" y="256.32" style="stroke: #000000; stroke-width: 0.8"/>
      </g>
     </g>
     <g id="text_4">
      <!-- 1500 -->
      <g transform="translate(272.385437 280.036563) scale(0.22 -0.22)">
       <use xlink:href="#DejaVuSans-31"/>
       <use xlink:href="#DejaVuSans-35" x="63.623047"/>
       <use xlink:href="#DejaVuSans-30" x="127.246094"/>
       <use xlink:href="#DejaVuSans-30" x="190.869141"/>
      </g>
     </g>
    </g>
    <g id="xtick_5">
     <g id="line2d_5">
      <g>
       <use xlink:href="#mbf5eaced26" x="377.434522" y="256.32" style="stroke: #000000; stroke-width: 0.8"/>
      </g>
     </g>
     <g id="text_5">
      <!-- 2000 -->
      <g transform="translate(349.439522 280.036563) scale(0.22 -0.22)">
       <defs>
        <path id="DejaVuSans-32" d="M 1228 531 
L 3431 531 
L 3431 0 
L 469 0 
L 469 531 
Q 828 903 1448 1529 
Q 2069 2156 2228 2338 
Q 2531 2678 2651 2914 
Q 2772 3150 2772 3378 
Q 2772 3750 2511 3984 
Q 2250 4219 1831 4219 
Q 1534 4219 1204 4116 
Q 875 4013 500 3803 
L 500 4441 
Q 881 4594 1212 4672 
Q 1544 4750 1819 4750 
Q 2544 4750 2975 4387 
Q 3406 4025 3406 3419 
Q 3406 3131 3298 2873 
Q 3191 2616 2906 2266 
Q 2828 2175 2409 1742 
Q 1991 1309 1228 531 
z
" transform="scale(0.015625)"/>
       </defs>
       <use xlink:href="#DejaVuSans-32"/>
       <use xlink:href="#DejaVuSans-30" x="63.623047"/>
       <use xlink:href="#DejaVuSans-30" x="127.246094"/>
       <use xlink:href="#DejaVuSans-30" x="190.869141"/>
      </g>
     </g>
    </g>
    <g id="text_6">
     <!-- Iterations -->
     <g transform="translate(169.010781 305.328438) scale(0.22 -0.22)">
      <defs>
       <path id="DejaVuSans-49" d="M 628 4666 
L 1259 4666 
L 1259 0 
L 628 0 
L 628 4666 
z
" transform="scale(0.015625)"/>
       <path id="DejaVuSans-74" d="M 1172 4494 
L 1172 3500 
L 2356 3500 
L 2356 3053 
L 1172 3053 
L 1172 1153 
Q 1172 725 1289 603 
Q 1406 481 1766 481 
L 2356 481 
L 2356 0 
L 1766 0 
Q 1100 0 847 248 
Q 594 497 594 1153 
L 594 3053 
L 172 3053 
L 172 3500 
L 594 3500 
L 594 4494 
L 1172 4494 
z
" transform="scale(0.015625)"/>
       <path id="DejaVuSans-65" d="M 3597 1894 
L 3597 1613 
L 953 1613 
Q 991 1019 1311 708 
Q 1631 397 2203 397 
Q 2534 397 2845 478 
Q 3156 559 3463 722 
L 3463 178 
Q 3153 47 2828 -22 
Q 2503 -91 2169 -91 
Q 1331 -91 842 396 
Q 353 884 353 1716 
Q 353 2575 817 3079 
Q 1281 3584 2069 3584 
Q 2775 3584 3186 3129 
Q 3597 2675 3597 1894 
z
M 3022 2063 
Q 3016 2534 2758 2815 
Q 2500 3097 2075 3097 
Q 1594 3097 1305 2825 
Q 1016 2553 972 2059 
L 3022 2063 
z
" transform="scale(0.015625)"/>
       <path id="DejaVuSans-72" d="M 2631 2963 
Q 2534 3019 2420 3045 
Q 2306 3072 2169 3072 
Q 1681 3072 1420 2755 
Q 1159 2438 1159 1844 
L 1159 0 
L 581 0 
L 581 3500 
L 1159 3500 
L 1159 2956 
Q 1341 3275 1631 3429 
Q 1922 3584 2338 3584 
Q 2397 3584 2469 3576 
Q 2541 3569 2628 3553 
L 2631 2963 
z
" transform="scale(0.015625)"/>
       <path id="DejaVuSans-61" d="M 2194 1759 
Q 1497 1759 1228 1600 
Q 959 1441 959 1056 
Q 959 750 1161 570 
Q 1363 391 1709 391 
Q 2188 391 2477 730 
Q 2766 1069 2766 1631 
L 2766 1759 
L 2194 1759 
z
M 3341 1997 
L 3341 0 
L 2766 0 
L 2766 531 
Q 2569 213 2275 61 
Q 1981 -91 1556 -91 
Q 1019 -91 701 211 
Q 384 513 384 1019 
Q 384 1609 779 1909 
Q 1175 2209 1959 2209 
L 2766 2209 
L 2766 2266 
Q 2766 2663 2505 2880 
Q 2244 3097 1772 3097 
Q 1472 3097 1187 3025 
Q 903 2953 641 2809 
L 641 3341 
Q 956 3463 1253 3523 
Q 1550 3584 1831 3584 
Q 2591 3584 2966 3190 
Q 3341 2797 3341 1997 
z
" transform="scale(0.015625)"/>
       <path id="DejaVuSans-69" d="M 603 3500 
L 1178 3500 
L 1178 0 
L 603 0 
L 603 3500 
z
M 603 4863 
L 1178 4863 
L 1178 4134 
L 603 4134 
L 603 4863 
z
" transform="scale(0.015625)"/>
       <path id="DejaVuSans-6f" d="M 1959 3097 
Q 1497 3097 1228 2736 
Q 959 2375 959 1747 
Q 959 1119 1226 758 
Q 1494 397 1959 397 
Q 2419 397 2687 759 
Q 2956 1122 2956 1747 
Q 2956 2369 2687 2733 
Q 2419 3097 1959 3097 
z
M 1959 3584 
Q 2709 3584 3137 3096 
Q 3566 2609 3566 1747 
Q 3566 888 3137 398 
Q 2709 -91 1959 -91 
Q 1206 -91 779 398 
Q 353 888 353 1747 
Q 353 2609 779 3096 
Q 1206 3584 1959 3584 
z
" transform="scale(0.015625)"/>
       <path id="DejaVuSans-6e" d="M 3513 2113 
L 3513 0 
L 2938 0 
L 2938 2094 
Q 2938 2591 2744 2837 
Q 2550 3084 2163 3084 
Q 1697 3084 1428 2787 
Q 1159 2491 1159 1978 
L 1159 0 
L 581 0 
L 581 3500 
L 1159 3500 
L 1159 2956 
Q 1366 3272 1645 3428 
Q 1925 3584 2291 3584 
Q 2894 3584 3203 3211 
Q 3513 2838 3513 2113 
z
" transform="scale(0.015625)"/>
       <path id="DejaVuSans-73" d="M 2834 3397 
L 2834 2853 
Q 2591 2978 2328 3040 
Q 2066 3103 1784 3103 
Q 1356 3103 1142 2972 
Q 928 2841 928 2578 
Q 928 2378 1081 2264 
Q 1234 2150 1697 2047 
L 1894 2003 
Q 2506 1872 2764 1633 
Q 3022 1394 3022 966 
Q 3022 478 2636 193 
Q 2250 -91 1575 -91 
Q 1294 -91 989 -36 
Q 684 19 347 128 
L 347 722 
Q 666 556 975 473 
Q 1284 391 1588 391 
Q 1994 391 2212 530 
Q 2431 669 2431 922 
Q 2431 1156 2273 1281 
Q 2116 1406 1581 1522 
L 1381 1569 
Q 847 1681 609 1914 
Q 372 2147 372 2553 
Q 372 3047 722 3315 
Q 1072 3584 1716 3584 
Q 2034 3584 2315 3537 
Q 2597 3491 2834 3397 
z
" transform="scale(0.015625)"/>
      </defs>
      <use xlink:href="#DejaVuSans-49"/>
      <use xlink:href="#DejaVuSans-74" x="29.492188"/>
      <use xlink:href="#DejaVuSans-65" x="68.701172"/>
      <use xlink:href="#DejaVuSans-72" x="130.224609"/>
      <use xlink:href="#DejaVuSans-61" x="171.337891"/>
      <use xlink:href="#DejaVuSans-74" x="232.617188"/>
      <use xlink:href="#DejaVuSans-69" x="271.826172"/>
      <use xlink:href="#DejaVuSans-6f" x="299.609375"/>
      <use xlink:href="#DejaVuSans-6e" x="360.791016"/>
      <use xlink:href="#DejaVuSans-73" x="424.169922"/>
     </g>
    </g>
   </g>
   <g id="matplotlib.axis_2">
    <g id="ytick_1">
     <g id="line2d_6">
      <defs>
       <path id="m51aa85f5d0" d="M 0 0 
L -3.5 0 
" style="stroke: #000000; stroke-width: 0.8"/>
      </defs>
      <g>
       <use xlink:href="#m51aa85f5d0" x="54" y="247.242379" style="stroke: #000000; stroke-width: 0.8"/>
      </g>
     </g>
     <g id="text_7">
      <!-- 0.00 -->
      <g transform="translate(-1.984375 255.60066) scale(0.22 -0.22)">
       <defs>
        <path id="DejaVuSans-2e" d="M 684 794 
L 1344 794 
L 1344 0 
L 684 0 
L 684 794 
z
" transform="scale(0.015625)"/>
       </defs>
       <use xlink:href="#DejaVuSans-30"/>
       <use xlink:href="#DejaVuSans-2e" x="63.623047"/>
       <use xlink:href="#DejaVuSans-30" x="95.410156"/>
       <use xlink:href="#DejaVuSans-30" x="159.033203"/>
      </g>
     </g>
    </g>
    <g id="ytick_2">
     <g id="line2d_7">
      <g>
       <use xlink:href="#m51aa85f5d0" x="54" y="197.272259" style="stroke: #000000; stroke-width: 0.8"/>
      </g>
     </g>
     <g id="text_8">
      <!-- 0.25 -->
      <g transform="translate(-1.984375 205.63054) scale(0.22 -0.22)">
       <use xlink:href="#DejaVuSans-30"/>
       <use xlink:href="#DejaVuSans-2e" x="63.623047"/>
       <use xlink:href="#DejaVuSans-32" x="95.410156"/>
       <use xlink:href="#DejaVuSans-35" x="159.033203"/>
      </g>
     </g>
    </g>
    <g id="ytick_3">
     <g id="line2d_8">
      <g>
       <use xlink:href="#m51aa85f5d0" x="54" y="147.302139" style="stroke: #000000; stroke-width: 0.8"/>
      </g>
     </g>
     <g id="text_9">
      <!-- 0.50 -->
      <g transform="translate(-1.984375 155.66042) scale(0.22 -0.22)">
       <use xlink:href="#DejaVuSans-30"/>
       <use xlink:href="#DejaVuSans-2e" x="63.623047"/>
       <use xlink:href="#DejaVuSans-35" x="95.410156"/>
       <use xlink:href="#DejaVuSans-30" x="159.033203"/>
      </g>
     </g>
    </g>
    <g id="ytick_4">
     <g id="line2d_9">
      <g>
       <use xlink:href="#m51aa85f5d0" x="54" y="97.332019" style="stroke: #000000; stroke-width: 0.8"/>
      </g>
     </g>
     <g id="text_10">
      <!-- 0.75 -->
      <g transform="translate(-1.984375 105.690301) scale(0.22 -0.22)">
       <defs>
        <path id="DejaVuSans-37" d="M 525 4666 
L 3525 4666 
L 3525 4397 
L 1831 0 
L 1172 0 
L 2766 4134 
L 525 4134 
L 525 4666 
z
" transform="scale(0.015625)"/>
       </defs>
       <use xlink:href="#DejaVuSans-30"/>
       <use xlink:href="#DejaVuSans-2e" x="63.623047"/>
       <use xlink:href="#DejaVuSans-37" x="95.410156"/>
       <use xlink:href="#DejaVuSans-35" x="159.033203"/>
      </g>
     </g>
    </g>
    <g id="ytick_5">
     <g id="line2d_10">
      <g>
       <use xlink:href="#m51aa85f5d0" x="54" y="47.361899" style="stroke: #000000; stroke-width: 0.8"/>
      </g>
     </g>
     <g id="text_11">
      <!-- 1.00 -->
      <g transform="translate(-1.984375 55.720181) scale(0.22 -0.22)">
       <use xlink:href="#DejaVuSans-31"/>
       <use xlink:href="#DejaVuSans-2e" x="63.623047"/>
       <use xlink:href="#DejaVuSans-30" x="95.410156"/>
       <use xlink:href="#DejaVuSans-30" x="159.033203"/>
      </g>
     </g>
    </g>
    <g id="text_12">
     <!-- nMSE -->
     <g transform="translate(-10.559688 175.836094) rotate(-90) scale(0.22 -0.22)">
      <defs>
       <path id="DejaVuSans-4d" d="M 628 4666 
L 1569 4666 
L 2759 1491 
L 3956 4666 
L 4897 4666 
L 4897 0 
L 4281 0 
L 4281 4097 
L 3078 897 
L 2444 897 
L 1241 4097 
L 1241 0 
L 628 0 
L 628 4666 
z
" transform="scale(0.015625)"/>
       <path id="DejaVuSans-53" d="M 3425 4513 
L 3425 3897 
Q 3066 4069 2747 4153 
Q 2428 4238 2131 4238 
Q 1616 4238 1336 4038 
Q 1056 3838 1056 3469 
Q 1056 3159 1242 3001 
Q 1428 2844 1947 2747 
L 2328 2669 
Q 3034 2534 3370 2195 
Q 3706 1856 3706 1288 
Q 3706 609 3251 259 
Q 2797 -91 1919 -91 
Q 1588 -91 1214 -16 
Q 841 59 441 206 
L 441 856 
Q 825 641 1194 531 
Q 1563 422 1919 422 
Q 2459 422 2753 634 
Q 3047 847 3047 1241 
Q 3047 1584 2836 1778 
Q 2625 1972 2144 2069 
L 1759 2144 
Q 1053 2284 737 2584 
Q 422 2884 422 3419 
Q 422 4038 858 4394 
Q 1294 4750 2059 4750 
Q 2388 4750 2728 4690 
Q 3069 4631 3425 4513 
z
" transform="scale(0.015625)"/>
       <path id="DejaVuSans-45" d="M 628 4666 
L 3578 4666 
L 3578 4134 
L 1259 4134 
L 1259 2753 
L 3481 2753 
L 3481 2222 
L 1259 2222 
L 1259 531 
L 3634 531 
L 3634 0 
L 628 0 
L 628 4666 
z
" transform="scale(0.015625)"/>
      </defs>
      <use xlink:href="#DejaVuSans-6e"/>
      <use xlink:href="#DejaVuSans-4d" x="63.378906"/>
      <use xlink:href="#DejaVuSans-53" x="149.658203"/>
      <use xlink:href="#DejaVuSans-45" x="213.134766"/>
     </g>
    </g>
   </g>
   <g id="line2d_11">
    <path d="M 69.218182 46.946267 
L 73.070886 81.661215 
L 76.92359 95.353115 
L 80.776295 168.620155 
L 84.628999 178.53137 
L 88.481703 193.049063 
L 92.334407 215.755527 
L 96.187112 227.762181 
L 100.039816 230.4961 
L 103.89252 234.284403 
L 107.745224 236.554307 
L 111.597929 238.538775 
L 115.450633 239.864936 
L 119.303337 240.209824 
L 123.156041 240.825225 
L 127.008746 240.106807 
L 130.86145 239.320863 
L 134.714154 241.460303 
L 138.566858 242.126619 
L 142.419563 242.630174 
L 146.272267 242.899112 
L 150.124971 243.491134 
L 153.977675 243.434982 
L 157.83038 243.846537 
L 161.683084 243.649013 
L 165.535788 244.054496 
L 169.388493 243.862702 
L 173.241197 244.005192 
L 177.093901 244.064315 
L 180.946605 244.29848 
L 184.79931 244.64566 
L 188.652014 244.703523 
L 192.504718 244.391883 
L 196.357422 244.449991 
L 200.210127 244.74071 
L 204.062831 244.61345 
L 207.915535 244.762058 
L 211.768239 244.964952 
L 215.620944 245.064663 
L 219.473648 244.7786 
L 223.326352 244.804536 
L 227.179056 245.067358 
L 231.031761 245.25014 
L 234.884465 245.07569 
L 238.737169 245.036877 
L 242.589873 244.97029 
L 246.442578 245.418987 
L 250.295282 245.299114 
L 254.147986 245.30233 
L 258.00069 245.235696 
L 261.853395 245.067653 
L 265.706099 245.428915 
L 269.558803 245.444489 
L 273.411507 245.378687 
L 277.264212 245.654316 
L 281.116916 245.513361 
L 284.96962 245.641299 
L 288.822325 245.62622 
L 292.675029 245.711733 
L 296.527733 245.497651 
L 300.380437 245.623929 
L 304.233142 245.66566 
L 308.085846 245.699513 
L 311.93855 245.585203 
L 315.791254 245.206375 
L 319.643959 245.235849 
L 323.496663 245.732298 
L 327.349367 245.716187 
L 331.202071 245.85443 
L 335.054776 245.769434 
L 338.90748 245.90008 
L 342.760184 245.959451 
L 346.612888 245.883643 
L 350.465593 245.764312 
L 354.318297 245.912963 
L 358.171001 245.919877 
L 362.023705 245.938318 
L 365.87641 246.00572 
L 369.729114 245.979112 
L 373.581818 245.953363 
" clip-path="url(#p22a9af2534)" style="fill: none; stroke: #c20017; stroke-width: 1.5; stroke-linecap: square"/>
   </g>
   <g id="line2d_12">
    <path d="M 69.218182 47.184334 
L 73.070886 107.111818 
L 76.92359 173.159221 
L 80.776295 197.37363 
L 84.628999 206.608528 
L 88.481703 211.936218 
L 92.334407 222.6349 
L 96.187112 226.518067 
L 100.039816 225.045393 
L 103.89252 223.96718 
L 107.745224 225.498692 
L 111.597929 232.672473 
L 115.450633 232.433809 
L 119.303337 234.858154 
L 123.156041 235.638299 
L 127.008746 235.502404 
L 130.86145 236.338047 
L 134.714154 237.282932 
L 138.566858 237.795423 
L 142.419563 238.068477 
L 146.272267 236.493686 
L 150.124971 238.29247 
L 153.977675 239.68608 
L 157.83038 239.883308 
L 161.683084 238.665254 
L 165.535788 239.494095 
L 169.388493 240.492655 
L 173.241197 240.975778 
L 177.093901 241.283754 
L 180.946605 241.129991 
L 184.79931 240.145892 
L 188.652014 241.506253 
L 192.504718 241.395292 
L 196.357422 241.321524 
L 200.210127 241.051468 
L 204.062831 241.67736 
L 207.915535 242.068184 
L 211.768239 242.375438 
L 215.620944 241.916486 
L 219.473648 242.529485 
L 223.326352 242.162714 
L 227.179056 242.755653 
L 231.031761 242.731363 
L 234.884465 242.555515 
L 238.737169 242.361356 
L 242.589873 242.940474 
L 246.442578 242.4228 
L 250.295282 242.235029 
L 254.147986 243.206914 
L 258.00069 242.874781 
L 261.853395 243.085887 
L 265.706099 243.271 
L 269.558803 243.332635 
L 273.411507 243.291512 
L 277.264212 243.445366 
L 281.116916 243.084511 
L 284.96962 243.582638 
L 288.822325 243.545952 
L 292.675029 243.531683 
L 296.527733 243.27158 
L 300.380437 243.698676 
L 304.233142 243.872947 
L 308.085846 243.555653 
L 311.93855 244.244869 
L 315.791254 243.792488 
L 319.643959 244.105518 
L 323.496663 243.886909 
L 327.349367 243.785614 
L 331.202071 206.601788 
L 335.054776 221.063733 
L 338.90748 230.615162 
L 342.760184 236.442685 
L 346.612888 239.134615 
L 350.465593 241.152569 
L 354.318297 241.137985 
L 358.171001 241.955542 
L 362.023705 242.465558 
L 365.87641 242.740861 
L 369.729114 243.028845 
L 373.581818 242.812927 
" clip-path="url(#p22a9af2534)" style="fill: none; stroke: #cac100; stroke-width: 1.5; stroke-linecap: square"/>
   </g>
   <g id="line2d_13">
    <path d="M 69.218182 47.278176 
L 73.070886 64.431785 
L 76.92359 123.56852 
L 80.776295 170.696207 
L 84.628999 189.562126 
L 88.481703 198.877444 
L 92.334407 213.708861 
L 96.187112 214.450994 
L 100.039816 219.783701 
L 103.89252 218.627919 
L 107.745224 224.684658 
L 111.597929 224.1346 
L 115.450633 226.704616 
L 119.303337 229.425929 
L 123.156041 229.316571 
L 127.008746 230.123521 
L 130.86145 233.031256 
L 134.714154 233.092711 
L 138.566858 233.472961 
L 142.419563 234.080524 
L 146.272267 234.586578 
L 150.124971 235.52457 
L 153.977675 236.977862 
L 157.83038 235.09101 
L 161.683084 234.638007 
L 165.535788 236.598471 
L 169.388493 236.005091 
L 173.241197 237.182362 
L 177.093901 238.784357 
L 180.946605 238.877942 
L 184.79931 239.215112 
L 188.652014 238.441008 
L 192.504718 239.116607 
L 196.357422 239.163677 
L 200.210127 239.627298 
L 204.062831 239.508074 
L 207.915535 240.819932 
L 211.768239 240.244421 
L 215.620944 239.888467 
L 219.473648 240.827749 
L 223.326352 240.199592 
L 227.179056 241.103459 
L 231.031761 240.538567 
L 234.884465 240.874439 
L 238.737169 239.29823 
L 242.589873 240.819862 
L 246.442578 240.745462 
L 250.295282 241.724947 
L 254.147986 241.14481 
L 258.00069 241.975184 
L 261.853395 241.413831 
L 265.706099 242.504067 
L 269.558803 242.20091 
L 273.411507 242.231789 
L 277.264212 241.749817 
L 281.116916 242.15778 
L 284.96962 242.558502 
L 288.822325 242.38761 
L 292.675029 242.644814 
L 296.527733 242.057408 
L 300.380437 242.637716 
L 304.233142 242.212233 
L 308.085846 242.663883 
L 311.93855 242.523122 
L 315.791254 242.970604 
L 319.643959 242.539636 
L 323.496663 243.366573 
L 327.349367 242.955561 
L 331.202071 243.067727 
L 335.054776 243.367192 
L 338.90748 242.958232 
L 342.760184 242.763328 
L 346.612888 243.479996 
L 350.465593 243.121083 
L 354.318297 243.352946 
L 358.171001 243.098414 
L 362.023705 243.565463 
L 365.87641 243.55906 
L 369.729114 243.755523 
L 373.581818 243.626813 
" clip-path="url(#p22a9af2534)" style="fill: none; stroke: #23aa00; stroke-width: 1.5; stroke-linecap: square"/>
   </g>
   <g id="patch_3">
    <path d="M 54 256.32 
L 54 34.56 
" style="fill: none; stroke: #000000; stroke-width: 0.8; stroke-linejoin: miter; stroke-linecap: square"/>
   </g>
   <g id="patch_4">
    <path d="M 54 256.32 
L 388.8 256.32 
" style="fill: none; stroke: #000000; stroke-width: 0.8; stroke-linejoin: miter; stroke-linecap: square"/>
   </g>
   <g id="text_13">
    <!-- Pattern Generation -->
    <g transform="translate(96.080438 28.56) scale(0.264 -0.264)">
     <defs>
      <path id="DejaVuSans-50" d="M 1259 4147 
L 1259 2394 
L 2053 2394 
Q 2494 2394 2734 2622 
Q 2975 2850 2975 3272 
Q 2975 3691 2734 3919 
Q 2494 4147 2053 4147 
L 1259 4147 
z
M 628 4666 
L 2053 4666 
Q 2838 4666 3239 4311 
Q 3641 3956 3641 3272 
Q 3641 2581 3239 2228 
Q 2838 1875 2053 1875 
L 1259 1875 
L 1259 0 
L 628 0 
L 628 4666 
z
" transform="scale(0.015625)"/>
      <path id="DejaVuSans-20" transform="scale(0.015625)"/>
      <path id="DejaVuSans-47" d="M 3809 666 
L 3809 1919 
L 2778 1919 
L 2778 2438 
L 4434 2438 
L 4434 434 
Q 4069 175 3628 42 
Q 3188 -91 2688 -91 
Q 1594 -91 976 548 
Q 359 1188 359 2328 
Q 359 3472 976 4111 
Q 1594 4750 2688 4750 
Q 3144 4750 3555 4637 
Q 3966 4525 4313 4306 
L 4313 3634 
Q 3963 3931 3569 4081 
Q 3175 4231 2741 4231 
Q 1884 4231 1454 3753 
Q 1025 3275 1025 2328 
Q 1025 1384 1454 906 
Q 1884 428 2741 428 
Q 3075 428 3337 486 
Q 3600 544 3809 666 
z
" transform="scale(0.015625)"/>
     </defs>
     <use xlink:href="#DejaVuSans-50"/>
     <use xlink:href="#DejaVuSans-61" x="55.802734"/>
     <use xlink:href="#DejaVuSans-74" x="117.082031"/>
     <use xlink:href="#DejaVuSans-74" x="156.291016"/>
     <use xlink:href="#DejaVuSans-65" x="195.5"/>
     <use xlink:href="#DejaVuSans-72" x="257.023438"/>
     <use xlink:href="#DejaVuSans-6e" x="296.386719"/>
     <use xlink:href="#DejaVuSans-20" x="359.765625"/>
     <use xlink:href="#DejaVuSans-47" x="391.552734"/>
     <use xlink:href="#DejaVuSans-65" x="469.042969"/>
     <use xlink:href="#DejaVuSans-6e" x="530.566406"/>
     <use xlink:href="#DejaVuSans-65" x="593.945312"/>
     <use xlink:href="#DejaVuSans-72" x="655.46875"/>
     <use xlink:href="#DejaVuSans-61" x="696.582031"/>
     <use xlink:href="#DejaVuSans-74" x="757.861328"/>
     <use xlink:href="#DejaVuSans-69" x="797.070312"/>
     <use xlink:href="#DejaVuSans-6f" x="824.853516"/>
     <use xlink:href="#DejaVuSans-6e" x="886.035156"/>
    </g>
   </g>
   <g id="legend_1">
    <g id="patch_5">
     <path d="M 205.54 149.035625 
L 373.4 149.035625 
Q 377.8 149.035625 377.8 144.635625 
L 377.8 49.96 
Q 377.8 45.56 373.4 45.56 
L 205.54 45.56 
Q 201.14 45.56 201.14 49.96 
L 201.14 144.635625 
Q 201.14 149.035625 205.54 149.035625 
z
" style="fill: #ffffff; opacity: 0.8; stroke: #cccccc; stroke-linejoin: miter"/>
    </g>
    <g id="line2d_14">
     <path d="M 209.94 63.376563 
L 231.94 63.376563 
L 253.94 63.376563 
" style="fill: none; stroke: #c20017; stroke-width: 1.5; stroke-linecap: square"/>
    </g>
    <g id="text_14">
     <!-- BPTT -->
     <g transform="translate(271.54 71.076563) scale(0.22 -0.22)">
      <defs>
       <path id="DejaVuSans-42" d="M 1259 2228 
L 1259 519 
L 2272 519 
Q 2781 519 3026 730 
Q 3272 941 3272 1375 
Q 3272 1813 3026 2020 
Q 2781 2228 2272 2228 
L 1259 2228 
z
M 1259 4147 
L 1259 2741 
L 2194 2741 
Q 2656 2741 2882 2914 
Q 3109 3088 3109 3444 
Q 3109 3797 2882 3972 
Q 2656 4147 2194 4147 
L 1259 4147 
z
M 628 4666 
L 2241 4666 
Q 2963 4666 3353 4366 
Q 3744 4066 3744 3513 
Q 3744 3084 3544 2831 
Q 3344 2578 2956 2516 
Q 3422 2416 3680 2098 
Q 3938 1781 3938 1306 
Q 3938 681 3513 340 
Q 3088 0 2303 0 
L 628 0 
L 628 4666 
z
" transform="scale(0.015625)"/>
       <path id="DejaVuSans-54" d="M -19 4666 
L 3928 4666 
L 3928 4134 
L 2272 4134 
L 2272 0 
L 1638 0 
L 1638 4134 
L -19 4134 
L -19 4666 
z
" transform="scale(0.015625)"/>
      </defs>
      <use xlink:href="#DejaVuSans-42"/>
      <use xlink:href="#DejaVuSans-50" x="68.603516"/>
      <use xlink:href="#DejaVuSans-54" x="128.90625"/>
      <use xlink:href="#DejaVuSans-54" x="188.240234"/>
     </g>
    </g>
    <g id="line2d_15">
     <path d="M 209.94 95.668438 
L 231.94 95.668438 
L 253.94 95.668438 
" style="fill: none; stroke: #cac100; stroke-width: 1.5; stroke-linecap: square"/>
    </g>
    <g id="text_15">
     <!-- E-prop -->
     <g transform="translate(271.54 103.368438) scale(0.22 -0.22)">
      <defs>
       <path id="DejaVuSans-2d" d="M 313 2009 
L 1997 2009 
L 1997 1497 
L 313 1497 
L 313 2009 
z
" transform="scale(0.015625)"/>
       <path id="DejaVuSans-70" d="M 1159 525 
L 1159 -1331 
L 581 -1331 
L 581 3500 
L 1159 3500 
L 1159 2969 
Q 1341 3281 1617 3432 
Q 1894 3584 2278 3584 
Q 2916 3584 3314 3078 
Q 3713 2572 3713 1747 
Q 3713 922 3314 415 
Q 2916 -91 2278 -91 
Q 1894 -91 1617 61 
Q 1341 213 1159 525 
z
M 3116 1747 
Q 3116 2381 2855 2742 
Q 2594 3103 2138 3103 
Q 1681 3103 1420 2742 
Q 1159 2381 1159 1747 
Q 1159 1113 1420 752 
Q 1681 391 2138 391 
Q 2594 391 2855 752 
Q 3116 1113 3116 1747 
z
" transform="scale(0.015625)"/>
      </defs>
      <use xlink:href="#DejaVuSans-45"/>
      <use xlink:href="#DejaVuSans-2d" x="63.183594"/>
      <use xlink:href="#DejaVuSans-70" x="99.267578"/>
      <use xlink:href="#DejaVuSans-72" x="162.744141"/>
      <use xlink:href="#DejaVuSans-6f" x="201.607422"/>
      <use xlink:href="#DejaVuSans-70" x="262.789062"/>
     </g>
    </g>
    <g id="line2d_16">
     <path d="M 209.94 127.960313 
L 231.94 127.960313 
L 253.94 127.960313 
" style="fill: none; stroke: #23aa00; stroke-width: 1.5; stroke-linecap: square"/>
    </g>
    <g id="text_16">
     <!-- Diffusion -->
     <g transform="translate(271.54 135.660313) scale(0.22 -0.22)">
      <defs>
       <path id="DejaVuSans-44" d="M 1259 4147 
L 1259 519 
L 2022 519 
Q 2988 519 3436 956 
Q 3884 1394 3884 2338 
Q 3884 3275 3436 3711 
Q 2988 4147 2022 4147 
L 1259 4147 
z
M 628 4666 
L 1925 4666 
Q 3281 4666 3915 4102 
Q 4550 3538 4550 2338 
Q 4550 1131 3912 565 
Q 3275 0 1925 0 
L 628 0 
L 628 4666 
z
" transform="scale(0.015625)"/>
       <path id="DejaVuSans-66" d="M 2375 4863 
L 2375 4384 
L 1825 4384 
Q 1516 4384 1395 4259 
Q 1275 4134 1275 3809 
L 1275 3500 
L 2222 3500 
L 2222 3053 
L 1275 3053 
L 1275 0 
L 697 0 
L 697 3053 
L 147 3053 
L 147 3500 
L 697 3500 
L 697 3744 
Q 697 4328 969 4595 
Q 1241 4863 1831 4863 
L 2375 4863 
z
" transform="scale(0.015625)"/>
       <path id="DejaVuSans-75" d="M 544 1381 
L 544 3500 
L 1119 3500 
L 1119 1403 
Q 1119 906 1312 657 
Q 1506 409 1894 409 
Q 2359 409 2629 706 
Q 2900 1003 2900 1516 
L 2900 3500 
L 3475 3500 
L 3475 0 
L 2900 0 
L 2900 538 
Q 2691 219 2414 64 
Q 2138 -91 1772 -91 
Q 1169 -91 856 284 
Q 544 659 544 1381 
z
M 1991 3584 
L 1991 3584 
z
" transform="scale(0.015625)"/>
      </defs>
      <use xlink:href="#DejaVuSans-44"/>
      <use xlink:href="#DejaVuSans-69" x="77.001953"/>
      <use xlink:href="#DejaVuSans-66" x="104.785156"/>
      <use xlink:href="#DejaVuSans-66" x="139.990234"/>
      <use xlink:href="#DejaVuSans-75" x="175.195312"/>
      <use xlink:href="#DejaVuSans-73" x="238.574219"/>
      <use xlink:href="#DejaVuSans-69" x="290.673828"/>
      <use xlink:href="#DejaVuSans-6f" x="318.457031"/>
      <use xlink:href="#DejaVuSans-6e" x="379.638672"/>
     </g>
    </g>
   </g>
  </g>
 </g>
 <defs>
  <clipPath id="p22a9af2534">
   <rect x="54" y="34.56" width="334.8" height="221.76"/>
  </clipPath>
 </defs>
</svg>
