<?xml version="1.0" encoding="utf-8" standalone="no"?>
<!DOCTYPE svg PUBLIC "-//W3C//DTD SVG 1.1//EN"
  "http://www.w3.org/Graphics/SVG/1.1/DTD/svg11.dtd">
<svg xmlns:xlink="http://www.w3.org/1999/xlink" width="432pt" height="576pt" viewBox="0 0 432 576" xmlns="http://www.w3.org/2000/svg" version="1.1">
 <metadata>
  <rdf:RDF xmlns:dc="http://purl.org/dc/elements/1.1/" xmlns:cc="http://creativecommons.org/ns#" xmlns:rdf="http://www.w3.org/1999/02/22-rdf-syntax-ns#">
   <cc:Work>
    <dc:type rdf:resource="http://purl.org/dc/dcmitype/StillImage"/>
    <dc:date>2024-11-15T08:20:49.127530</dc:date>
    <dc:format>image/svg+xml</dc:format>
    <dc:creator>
     <cc:Agent>
      <dc:title>Matplotlib v3.8.4, https://matplotlib.org/</dc:title>
     </cc:Agent>
    </dc:creator>
   </cc:Work>
  </rdf:RDF>
 </metadata>
 <defs>
  <style type="text/css">*{stroke-linejoin: round; stroke-linecap: butt}</style>
 </defs>
 <g id="figure_1">
  <g id="patch_1">
   <path d="M 0 576 
L 432 576 
L 432 0 
L 0 0 
z
" style="fill: #ffffff"/>
  </g>
  <g id="axes_1">
   <g id="patch_2">
    <path d="M 90.65 232.3 
L 395.378182 232.3 
L 395.378182 49.92 
L 90.65 49.92 
z
" style="fill: #ffffff"/>
   </g>
   <g id="PolyCollection_1">
    <defs>
     <path id="mad0f2de882" d="M 104.501281 -515.698363 
L 104.501281 -515.678071 
L 107.964101 -515.671409 
L 111.426921 -515.537651 
L 114.889742 -514.0435 
L 118.352562 -508.105376 
L 121.815382 -502.13608 
L 125.278202 -498.373072 
L 128.741023 -497.823139 
L 132.203843 -490.593695 
L 135.666663 -490.187364 
L 139.129483 -483.511879 
L 142.592304 -481.42866 
L 146.055124 -473.508961 
L 149.517944 -475.898952 
L 152.980764 -473.380572 
L 156.443585 -467.136885 
L 159.906405 -465.882674 
L 163.369225 -460.129811 
L 166.832045 -458.550825 
L 170.294866 -461.609925 
L 173.757686 -458.068319 
L 177.220506 -451.719982 
L 180.683326 -453.690116 
L 184.146147 -449.94801 
L 187.608967 -450.296359 
L 191.071787 -445.448266 
L 194.534607 -448.343151 
L 197.997428 -439.560416 
L 201.460248 -439.131345 
L 204.923068 -439.004674 
L 208.385888 -434.97261 
L 211.848709 -430.323245 
L 215.311529 -431.941257 
L 218.774349 -432.584631 
L 222.237169 -435.198709 
L 225.69999 -429.55888 
L 229.16281 -426.904925 
L 232.62563 -423.722606 
L 236.08845 -429.888745 
L 239.551271 -426.131021 
L 243.014091 -422.930897 
L 246.476911 -427.594871 
L 249.939731 -420.586446 
L 253.402552 -416.837636 
L 256.865372 -418.144234 
L 260.328192 -423.790707 
L 263.791012 -422.766343 
L 267.253833 -420.770199 
L 270.716653 -417.703632 
L 274.179473 -417.329428 
L 277.642293 -421.658125 
L 281.105114 -418.988781 
L 284.567934 -413.327956 
L 288.030754 -418.117713 
L 291.493574 -415.430721 
L 294.956395 -415.52163 
L 298.419215 -413.202847 
L 301.882035 -414.688815 
L 305.344855 -412.06785 
L 308.807676 -413.70302 
L 312.270496 -411.826439 
L 315.733316 -413.85383 
L 319.196136 -409.702862 
L 322.658957 -411.089345 
L 326.121777 -407.857645 
L 329.584597 -409.530371 
L 333.047417 -413.359303 
L 336.510238 -408.710901 
L 339.973058 -408.373682 
L 343.435878 -407.203482 
L 346.898698 -407.368207 
L 350.361519 -405.692964 
L 353.824339 -404.14889 
L 357.287159 -404.980485 
L 360.749979 -404.563309 
L 364.2128 -403.683598 
L 367.67562 -402.987657 
L 371.13844 -403.744807 
L 374.60126 -398.673484 
L 378.064081 -398.333979 
L 381.526901 -400.953149 
L 381.526901 -420.00166 
L 381.526901 -420.00166 
L 378.064081 -416.236251 
L 374.60126 -416.731269 
L 371.13844 -415.167393 
L 367.67562 -421.636196 
L 364.2128 -419.700266 
L 360.749979 -416.951231 
L 357.287159 -414.328367 
L 353.824339 -420.569094 
L 350.361519 -425.332238 
L 346.898698 -425.492157 
L 343.435878 -418.395065 
L 339.973058 -422.456632 
L 336.510238 -423.58737 
L 333.047417 -424.782432 
L 329.584597 -423.384822 
L 326.121777 -434.127565 
L 322.658957 -427.215043 
L 319.196136 -427.614194 
L 315.733316 -429.525556 
L 312.270496 -426.597513 
L 308.807676 -425.169293 
L 305.344855 -427.712029 
L 301.882035 -426.743385 
L 298.419215 -426.257992 
L 294.956395 -433.674362 
L 291.493574 -427.451246 
L 288.030754 -441.589422 
L 284.567934 -429.173013 
L 281.105114 -435.903464 
L 277.642293 -436.522171 
L 274.179473 -439.988012 
L 270.716653 -434.491954 
L 267.253833 -433.264867 
L 263.791012 -437.089186 
L 260.328192 -434.501186 
L 256.865372 -435.893774 
L 253.402552 -443.272183 
L 249.939731 -435.579421 
L 246.476911 -436.711695 
L 243.014091 -444.527567 
L 239.551271 -443.716832 
L 236.08845 -443.599993 
L 232.62563 -446.880589 
L 229.16281 -446.60029 
L 225.69999 -445.005783 
L 222.237169 -444.114531 
L 218.774349 -447.687182 
L 215.311529 -453.408635 
L 211.848709 -451.857027 
L 208.385888 -455.66908 
L 204.923068 -452.763679 
L 201.460248 -454.586959 
L 197.997428 -456.842369 
L 194.534607 -456.603918 
L 191.071787 -457.868127 
L 187.608967 -456.868336 
L 184.146147 -466.023238 
L 180.683326 -465.0746 
L 177.220506 -469.192618 
L 173.757686 -474.033664 
L 170.294866 -465.998525 
L 166.832045 -467.670226 
L 163.369225 -474.698591 
L 159.906405 -476.052787 
L 156.443585 -478.914096 
L 152.980764 -479.888956 
L 149.517944 -486.021596 
L 146.055124 -488.594457 
L 142.592304 -491.419444 
L 139.129483 -495.654419 
L 135.666663 -498.101029 
L 132.203843 -504.441821 
L 128.741023 -502.090068 
L 125.278202 -511.901789 
L 121.815382 -511.496852 
L 118.352562 -513.866442 
L 114.889742 -515.598624 
L 111.426921 -515.685362 
L 107.964101 -515.696437 
L 104.501281 -515.698363 
z
" style="stroke: #62d643; stroke-opacity: 0.4"/>
    </defs>
    <g clip-path="url(#pa609ad86bb)">
     <use xlink:href="#mad0f2de882" x="0" y="576" style="fill: #62d643; fill-opacity: 0.4; stroke: #62d643; stroke-opacity: 0.4"/>
    </g>
   </g>
   <g id="PolyCollection_2">
    <defs>
     <path id="m2846d8571a" d="M 104.501281 -515.698153 
L 104.501281 -515.678153 
L 107.964101 -515.674914 
L 111.426921 -515.55071 
L 114.889742 -514.019501 
L 118.352562 -510.843084 
L 121.815382 -503.830474 
L 125.278202 -501.000458 
L 128.741023 -496.482931 
L 132.203843 -495.112144 
L 135.666663 -480.488462 
L 139.129483 -481.750096 
L 142.592304 -474.714913 
L 146.055124 -473.4475 
L 149.517944 -467.434804 
L 152.980764 -462.208218 
L 156.443585 -453.901549 
L 159.906405 -457.084571 
L 163.369225 -454.748585 
L 166.832045 -455.789858 
L 170.294866 -442.576196 
L 173.757686 -451.267856 
L 177.220506 -436.673198 
L 180.683326 -444.43417 
L 184.146147 -441.172097 
L 187.608967 -437.044124 
L 191.071787 -432.485425 
L 194.534607 -431.622939 
L 197.997428 -427.836482 
L 201.460248 -425.128351 
L 204.923068 -433.070153 
L 208.385888 -425.763997 
L 211.848709 -424.643878 
L 215.311529 -420.963707 
L 218.774349 -419.943414 
L 222.237169 -420.970643 
L 225.69999 -416.333438 
L 229.16281 -417.830984 
L 232.62563 -414.721876 
L 236.08845 -412.132216 
L 239.551271 -411.866153 
L 243.014091 -408.657488 
L 246.476911 -407.338176 
L 249.939731 -405.240298 
L 253.402552 -401.888219 
L 256.865372 -400.098601 
L 260.328192 -409.537574 
L 263.791012 -401.116039 
L 267.253833 -403.134742 
L 270.716653 -404.484795 
L 274.179473 -407.206577 
L 277.642293 -399.460707 
L 281.105114 -412.349052 
L 284.567934 -403.465879 
L 288.030754 -405.209348 
L 291.493574 -408.882176 
L 294.956395 -402.554326 
L 298.419215 -400.614943 
L 301.882035 -403.83543 
L 305.344855 -406.617915 
L 308.807676 -401.861011 
L 312.270496 -406.678276 
L 315.733316 -404.467294 
L 319.196136 -404.875501 
L 322.658957 -405.508737 
L 326.121777 -403.666644 
L 329.584597 -402.290705 
L 333.047417 -400.207939 
L 336.510238 -406.771371 
L 339.973058 -402.651759 
L 343.435878 -400.494235 
L 346.898698 -389.277424 
L 350.361519 -391.058773 
L 353.824339 -396.541664 
L 357.287159 -400.260195 
L 360.749979 -392.867175 
L 364.2128 -396.700567 
L 367.67562 -394.105347 
L 371.13844 -388.040763 
L 374.60126 -398.469252 
L 378.064081 -389.312103 
L 381.526901 -393.409396 
L 381.526901 -409.965267 
L 381.526901 -409.965267 
L 378.064081 -416.488382 
L 374.60126 -412.338885 
L 371.13844 -411.593135 
L 367.67562 -413.905481 
L 364.2128 -410.617733 
L 360.749979 -411.714546 
L 357.287159 -407.893906 
L 353.824339 -415.892211 
L 350.361519 -416.024051 
L 346.898698 -412.506492 
L 343.435878 -413.346457 
L 339.973058 -419.534062 
L 336.510238 -415.113885 
L 333.047417 -412.37613 
L 329.584597 -418.014188 
L 326.121777 -415.228662 
L 322.658957 -417.282873 
L 319.196136 -419.132886 
L 315.733316 -415.800898 
L 312.270496 -420.350561 
L 308.807676 -421.007405 
L 305.344855 -418.721051 
L 301.882035 -422.455616 
L 298.419215 -425.232062 
L 294.956395 -424.083351 
L 291.493574 -428.423476 
L 288.030754 -426.281556 
L 284.567934 -429.241318 
L 281.105114 -430.040382 
L 277.642293 -427.010401 
L 274.179473 -429.342284 
L 270.716653 -431.644589 
L 267.253833 -429.435398 
L 263.791012 -435.693185 
L 260.328192 -434.238233 
L 256.865372 -434.338568 
L 253.402552 -435.04249 
L 249.939731 -440.590251 
L 246.476911 -437.986294 
L 243.014091 -440.152273 
L 239.551271 -435.17012 
L 236.08845 -443.202484 
L 232.62563 -440.073643 
L 229.16281 -446.160641 
L 225.69999 -445.075711 
L 222.237169 -447.880799 
L 218.774349 -446.408515 
L 215.311529 -448.156075 
L 211.848709 -452.265369 
L 208.385888 -457.060234 
L 204.923068 -456.872423 
L 201.460248 -455.893974 
L 197.997428 -454.69185 
L 194.534607 -457.291823 
L 191.071787 -456.131951 
L 187.608967 -458.290473 
L 184.146147 -456.323284 
L 180.683326 -461.30219 
L 177.220506 -462.784358 
L 173.757686 -473.959969 
L 170.294866 -467.423266 
L 166.832045 -476.489919 
L 163.369225 -497.380753 
L 159.906405 -468.724755 
L 156.443585 -482.714201 
L 152.980764 -475.588887 
L 149.517944 -485.496028 
L 146.055124 -485.520455 
L 142.592304 -495.15424 
L 139.129483 -489.226513 
L 135.666663 -495.105237 
L 132.203843 -503.838227 
L 128.741023 -503.415347 
L 125.278202 -507.715522 
L 121.815382 -512.720804 
L 118.352562 -514.118982 
L 114.889742 -515.596329 
L 111.426921 -515.68659 
L 107.964101 -515.696067 
L 104.501281 -515.698153 
z
" style="stroke: #3bcf14; stroke-opacity: 0.4"/>
    </defs>
    <g clip-path="url(#pa609ad86bb)">
     <use xlink:href="#m2846d8571a" x="0" y="576" style="fill: #3bcf14; fill-opacity: 0.4; stroke: #3bcf14; stroke-opacity: 0.4"/>
    </g>
   </g>
   <g id="PolyCollection_3">
    <defs>
     <path id="mc831e73d0e" d="M 104.501281 -515.698117 
L 104.501281 -515.678145 
L 107.964101 -515.676609 
L 111.426921 -515.545983 
L 114.889742 -513.928909 
L 118.352562 -510.126417 
L 121.815382 -508.501785 
L 125.278202 -501.763749 
L 128.741023 -499.954795 
L 132.203843 -491.032167 
L 135.666663 -484.65011 
L 139.129483 -485.873872 
L 142.592304 -482.953152 
L 146.055124 -468.634246 
L 149.517944 -468.532401 
L 152.980764 -467.103205 
L 156.443585 -466.413879 
L 159.906405 -463.330379 
L 163.369225 -460.576743 
L 166.832045 -458.189077 
L 170.294866 -449.318136 
L 173.757686 -449.409296 
L 177.220506 -440.275573 
L 180.683326 -441.772696 
L 184.146147 -441.713067 
L 187.608967 -437.327646 
L 191.071787 -433.856709 
L 194.534607 -432.269661 
L 197.997428 -430.11555 
L 201.460248 -432.9837 
L 204.923068 -431.415911 
L 208.385888 -433.328863 
L 211.848709 -428.516049 
L 215.311529 -422.757114 
L 218.774349 -419.854212 
L 222.237169 -422.545814 
L 225.69999 -423.302829 
L 229.16281 -424.844011 
L 232.62563 -416.65306 
L 236.08845 -421.208068 
L 239.551271 -414.061504 
L 243.014091 -415.534166 
L 246.476911 -413.685128 
L 249.939731 -412.437529 
L 253.402552 -411.830194 
L 256.865372 -417.893541 
L 260.328192 -411.092306 
L 263.791012 -410.120295 
L 267.253833 -415.76626 
L 270.716653 -411.67644 
L 274.179473 -409.53206 
L 277.642293 -402.1892 
L 281.105114 -402.26168 
L 284.567934 -401.077777 
L 288.030754 -407.139444 
L 291.493574 -401.822903 
L 294.956395 -405.35754 
L 298.419215 -405.31775 
L 301.882035 -401.735299 
L 305.344855 -401.015631 
L 308.807676 -406.669151 
L 312.270496 -406.65857 
L 315.733316 -399.207441 
L 319.196136 -404.732357 
L 322.658957 -401.324222 
L 326.121777 -403.018403 
L 329.584597 -395.399007 
L 333.047417 -402.262342 
L 336.510238 -394.491483 
L 339.973058 -400.371567 
L 343.435878 -398.590488 
L 346.898698 -395.257545 
L 350.361519 -392.944027 
L 353.824339 -394.877403 
L 357.287159 -393.866766 
L 360.749979 -397.038866 
L 364.2128 -394.856691 
L 367.67562 -387.925789 
L 371.13844 -391.818584 
L 374.60126 -390.544518 
L 378.064081 -387.720676 
L 381.526901 -388.894333 
L 381.526901 -404.249921 
L 381.526901 -404.249921 
L 378.064081 -403.674054 
L 374.60126 -409.021775 
L 371.13844 -413.19309 
L 367.67562 -405.729493 
L 364.2128 -414.100877 
L 360.749979 -411.744212 
L 357.287159 -413.88751 
L 353.824339 -412.511828 
L 350.361519 -414.650946 
L 346.898698 -418.415014 
L 343.435878 -416.213458 
L 339.973058 -417.062118 
L 336.510238 -414.514243 
L 333.047417 -417.397378 
L 329.584597 -414.66923 
L 326.121777 -414.811233 
L 322.658957 -419.292752 
L 319.196136 -422.226889 
L 315.733316 -424.94792 
L 312.270496 -423.774105 
L 308.807676 -423.61891 
L 305.344855 -424.952811 
L 301.882035 -419.262906 
L 298.419215 -417.759662 
L 294.956395 -422.471892 
L 291.493574 -429.506363 
L 288.030754 -424.274488 
L 284.567934 -428.237619 
L 281.105114 -422.596704 
L 277.642293 -429.300721 
L 274.179473 -429.345112 
L 270.716653 -431.774224 
L 267.253833 -433.427966 
L 263.791012 -440.114348 
L 260.328192 -437.308399 
L 256.865372 -433.706118 
L 253.402552 -441.652707 
L 249.939731 -440.090113 
L 246.476911 -448.314571 
L 243.014091 -451.376184 
L 239.551271 -437.374472 
L 236.08845 -436.698837 
L 232.62563 -443.002485 
L 229.16281 -434.826896 
L 225.69999 -442.117715 
L 222.237169 -445.383192 
L 218.774349 -451.87642 
L 215.311529 -464.518745 
L 211.848709 -444.760784 
L 208.385888 -443.547675 
L 204.923068 -454.58244 
L 201.460248 -459.648056 
L 197.997428 -459.891154 
L 194.534607 -468.181914 
L 191.071787 -458.25876 
L 187.608967 -471.260672 
L 184.146147 -477.27181 
L 180.683326 -475.978499 
L 177.220506 -468.728655 
L 173.757686 -480.742218 
L 170.294866 -477.190651 
L 166.832045 -489.59801 
L 163.369225 -478.643331 
L 159.906405 -488.410049 
L 156.443585 -488.63988 
L 152.980764 -484.744746 
L 149.517944 -495.582365 
L 146.055124 -488.690379 
L 142.592304 -504.578697 
L 139.129483 -495.313659 
L 135.666663 -499.974664 
L 132.203843 -504.473812 
L 128.741023 -505.929074 
L 125.278202 -509.894556 
L 121.815382 -512.628224 
L 118.352562 -513.9996 
L 114.889742 -515.588049 
L 111.426921 -515.688072 
L 107.964101 -515.69681 
L 104.501281 -515.698117 
z
" style="stroke: #1d8a00; stroke-opacity: 0.4"/>
    </defs>
    <g clip-path="url(#pa609ad86bb)">
     <use xlink:href="#mc831e73d0e" x="0" y="576" style="fill: #1d8a00; fill-opacity: 0.4; stroke: #1d8a00; stroke-opacity: 0.4"/>
    </g>
   </g>
   <g id="PolyCollection_4">
    <defs>
     <path id="mff593ef4d5" d="M 104.501281 -515.698221 
L 104.501281 -515.678301 
L 107.964101 -515.676174 
L 111.426921 -515.508082 
L 114.889742 -513.574229 
L 118.352562 -510.380034 
L 121.815382 -507.956496 
L 125.278202 -508.792327 
L 128.741023 -506.145184 
L 132.203843 -501.198861 
L 135.666663 -488.73632 
L 139.129483 -482.730411 
L 142.592304 -489.66802 
L 146.055124 -485.210204 
L 149.517944 -480.801538 
L 152.980764 -475.530141 
L 156.443585 -465.541673 
L 159.906405 -466.982051 
L 163.369225 -457.543108 
L 166.832045 -458.786193 
L 170.294866 -460.0626 
L 173.757686 -457.759667 
L 177.220506 -449.849474 
L 180.683326 -448.048796 
L 184.146147 -456.669675 
L 187.608967 -448.791213 
L 191.071787 -466.475361 
L 194.534607 -446.468358 
L 197.997428 -456.862633 
L 201.460248 -441.857431 
L 204.923068 -455.571276 
L 208.385888 -436.090162 
L 211.848709 -448.770744 
L 215.311529 -436.487719 
L 218.774349 -437.562718 
L 222.237169 -452.753577 
L 225.69999 -429.724704 
L 229.16281 -435.738843 
L 232.62563 -436.903083 
L 236.08845 -433.139181 
L 239.551271 -431.398515 
L 243.014091 -423.813851 
L 246.476911 -422.457251 
L 249.939731 -424.648934 
L 253.402552 -420.718984 
L 256.865372 -422.211766 
L 260.328192 -419.177475 
L 263.791012 -424.511968 
L 267.253833 -423.915877 
L 270.716653 -415.36378 
L 274.179473 -412.627061 
L 277.642293 -416.923343 
L 281.105114 -417.448136 
L 284.567934 -415.035389 
L 288.030754 -416.425134 
L 291.493574 -415.727553 
L 294.956395 -417.314612 
L 298.419215 -414.690064 
L 301.882035 -412.128455 
L 305.344855 -420.84793 
L 308.807676 -419.677416 
L 312.270496 -407.116438 
L 315.733316 -400.884175 
L 319.196136 -410.901558 
L 322.658957 -411.793842 
L 326.121777 -408.812367 
L 329.584597 -415.655364 
L 333.047417 -414.620129 
L 336.510238 -406.072453 
L 339.973058 -405.757882 
L 343.435878 -409.181253 
L 346.898698 -411.322598 
L 350.361519 -403.743509 
L 353.824339 -417.271291 
L 357.287159 -411.610778 
L 360.749979 -412.552939 
L 364.2128 -413.594128 
L 367.67562 -411.885487 
L 371.13844 -406.561247 
L 374.60126 -412.140315 
L 378.064081 -403.816461 
L 381.526901 -394.260286 
L 381.526901 -434.400773 
L 381.526901 -434.400773 
L 378.064081 -425.400873 
L 374.60126 -429.687475 
L 371.13844 -423.027123 
L 367.67562 -425.922983 
L 364.2128 -442.164177 
L 360.749979 -430.767606 
L 357.287159 -448.021682 
L 353.824339 -456.527021 
L 350.361519 -452.833976 
L 346.898698 -449.48248 
L 343.435878 -431.105865 
L 339.973058 -432.456878 
L 336.510238 -438.456033 
L 333.047417 -450.207915 
L 329.584597 -431.051187 
L 326.121777 -425.716259 
L 322.658957 -439.065984 
L 319.196136 -437.326173 
L 315.733316 -425.648651 
L 312.270496 -427.821269 
L 308.807676 -437.182659 
L 305.344855 -449.22082 
L 301.882035 -460.328835 
L 298.419215 -454.028746 
L 294.956395 -453.165375 
L 291.493574 -450.128582 
L 288.030754 -457.54721 
L 284.567934 -439.859868 
L 281.105114 -435.499289 
L 277.642293 -439.077204 
L 274.179473 -444.233798 
L 270.716653 -440.220031 
L 267.253833 -448.474712 
L 263.791012 -452.743174 
L 260.328192 -448.313772 
L 256.865372 -454.792353 
L 253.402552 -456.652949 
L 249.939731 -445.545002 
L 246.476911 -451.941156 
L 243.014091 -466.436598 
L 239.551271 -454.532135 
L 236.08845 -453.202516 
L 232.62563 -456.476718 
L 229.16281 -475.108157 
L 225.69999 -496.623106 
L 222.237169 -479.680398 
L 218.774349 -485.920408 
L 215.311529 -483.322782 
L 211.848709 -482.533243 
L 208.385888 -463.561246 
L 204.923068 -482.549197 
L 201.460248 -481.49723 
L 197.997428 -490.499716 
L 194.534607 -490.398495 
L 191.071787 -493.574892 
L 187.608967 -494.501022 
L 184.146147 -502.056232 
L 180.683326 -500.525153 
L 177.220506 -502.653623 
L 173.757686 -490.721945 
L 170.294866 -501.014772 
L 166.832045 -503.758997 
L 163.369225 -494.755899 
L 159.906405 -509.896922 
L 156.443585 -497.561999 
L 152.980764 -511.683825 
L 149.517944 -502.312399 
L 146.055124 -504.750954 
L 142.592304 -510.560233 
L 139.129483 -505.696412 
L 135.666663 -512.682651 
L 132.203843 -515.078517 
L 128.741023 -512.845774 
L 125.278202 -512.002598 
L 121.815382 -514.509171 
L 118.352562 -514.767683 
L 114.889742 -517.780342 
L 111.426921 -515.689882 
L 107.964101 -515.698827 
L 104.501281 -515.698221 
z
" style="stroke: #156400; stroke-opacity: 0.4"/>
    </defs>
    <g clip-path="url(#pa609ad86bb)">
     <use xlink:href="#mff593ef4d5" x="0" y="576" style="fill: #156400; fill-opacity: 0.4; stroke: #156400; stroke-opacity: 0.4"/>
    </g>
   </g>
   <g id="matplotlib.axis_1">
    <g id="xtick_1">
     <g id="line2d_1">
      <defs>
       <path id="m5dc1c6075a" d="M 0 0 
L 0 3.5 
" style="stroke: #000000; stroke-width: 0.8"/>
      </defs>
      <g>
       <use xlink:href="#m5dc1c6075a" x="104.501281" y="232.3" style="stroke: #000000; stroke-width: 0.8"/>
      </g>
     </g>
     <g id="text_1">
      <!-- 0 -->
      <g transform="translate(97.502531 256.016562) scale(0.22 -0.22)">
       <defs>
        <path id="DejaVuSans-30" d="M 2034 4250 
Q 1547 4250 1301 3770 
Q 1056 3291 1056 2328 
Q 1056 1369 1301 889 
Q 1547 409 2034 409 
Q 2525 409 2770 889 
Q 3016 1369 3016 2328 
Q 3016 3291 2770 3770 
Q 2525 4250 2034 4250 
z
M 2034 4750 
Q 2819 4750 3233 4129 
Q 3647 3509 3647 2328 
Q 3647 1150 3233 529 
Q 2819 -91 2034 -91 
Q 1250 -91 836 529 
Q 422 1150 422 2328 
Q 422 3509 836 4129 
Q 1250 4750 2034 4750 
z
" transform="scale(0.015625)"/>
       </defs>
       <use xlink:href="#DejaVuSans-30"/>
      </g>
     </g>
    </g>
    <g id="xtick_2">
     <g id="line2d_2">
      <g>
       <use xlink:href="#m5dc1c6075a" x="243.014091" y="232.3" style="stroke: #000000; stroke-width: 0.8"/>
      </g>
     </g>
     <g id="text_2">
      <!-- 1000 -->
      <g transform="translate(215.019091 256.016562) scale(0.22 -0.22)">
       <defs>
        <path id="DejaVuSans-31" d="M 794 531 
L 1825 531 
L 1825 4091 
L 703 3866 
L 703 4441 
L 1819 4666 
L 2450 4666 
L 2450 531 
L 3481 531 
L 3481 0 
L 794 0 
L 794 531 
z
" transform="scale(0.015625)"/>
       </defs>
       <use xlink:href="#DejaVuSans-31"/>
       <use xlink:href="#DejaVuSans-30" x="63.623047"/>
       <use xlink:href="#DejaVuSans-30" x="127.246094"/>
       <use xlink:href="#DejaVuSans-30" x="190.869141"/>
      </g>
     </g>
    </g>
    <g id="xtick_3">
     <g id="line2d_3">
      <g>
       <use xlink:href="#m5dc1c6075a" x="381.526901" y="232.3" style="stroke: #000000; stroke-width: 0.8"/>
      </g>
     </g>
     <g id="text_3">
      <!-- 2000 -->
      <g transform="translate(353.531901 256.016562) scale(0.22 -0.22)">
       <defs>
        <path id="DejaVuSans-32" d="M 1228 531 
L 3431 531 
L 3431 0 
L 469 0 
L 469 531 
Q 828 903 1448 1529 
Q 2069 2156 2228 2338 
Q 2531 2678 2651 2914 
Q 2772 3150 2772 3378 
Q 2772 3750 2511 3984 
Q 2250 4219 1831 4219 
Q 1534 4219 1204 4116 
Q 875 4013 500 3803 
L 500 4441 
Q 881 4594 1212 4672 
Q 1544 4750 1819 4750 
Q 2544 4750 2975 4387 
Q 3406 4025 3406 3419 
Q 3406 3131 3298 2873 
Q 3191 2616 2906 2266 
Q 2828 2175 2409 1742 
Q 1991 1309 1228 531 
z
" transform="scale(0.015625)"/>
       </defs>
       <use xlink:href="#DejaVuSans-32"/>
       <use xlink:href="#DejaVuSans-30" x="63.623047"/>
       <use xlink:href="#DejaVuSans-30" x="127.246094"/>
       <use xlink:href="#DejaVuSans-30" x="190.869141"/>
      </g>
     </g>
    </g>
    <g id="text_4">
     <!-- Iterations -->
     <g transform="translate(190.624872 281.308437) scale(0.22 -0.22)">
      <defs>
       <path id="DejaVuSans-49" d="M 628 4666 
L 1259 4666 
L 1259 0 
L 628 0 
L 628 4666 
z
" transform="scale(0.015625)"/>
       <path id="DejaVuSans-74" d="M 1172 4494 
L 1172 3500 
L 2356 3500 
L 2356 3053 
L 1172 3053 
L 1172 1153 
Q 1172 725 1289 603 
Q 1406 481 1766 481 
L 2356 481 
L 2356 0 
L 1766 0 
Q 1100 0 847 248 
Q 594 497 594 1153 
L 594 3053 
L 172 3053 
L 172 3500 
L 594 3500 
L 594 4494 
L 1172 4494 
z
" transform="scale(0.015625)"/>
       <path id="DejaVuSans-65" d="M 3597 1894 
L 3597 1613 
L 953 1613 
Q 991 1019 1311 708 
Q 1631 397 2203 397 
Q 2534 397 2845 478 
Q 3156 559 3463 722 
L 3463 178 
Q 3153 47 2828 -22 
Q 2503 -91 2169 -91 
Q 1331 -91 842 396 
Q 353 884 353 1716 
Q 353 2575 817 3079 
Q 1281 3584 2069 3584 
Q 2775 3584 3186 3129 
Q 3597 2675 3597 1894 
z
M 3022 2063 
Q 3016 2534 2758 2815 
Q 2500 3097 2075 3097 
Q 1594 3097 1305 2825 
Q 1016 2553 972 2059 
L 3022 2063 
z
" transform="scale(0.015625)"/>
       <path id="DejaVuSans-72" d="M 2631 2963 
Q 2534 3019 2420 3045 
Q 2306 3072 2169 3072 
Q 1681 3072 1420 2755 
Q 1159 2438 1159 1844 
L 1159 0 
L 581 0 
L 581 3500 
L 1159 3500 
L 1159 2956 
Q 1341 3275 1631 3429 
Q 1922 3584 2338 3584 
Q 2397 3584 2469 3576 
Q 2541 3569 2628 3553 
L 2631 2963 
z
" transform="scale(0.015625)"/>
       <path id="DejaVuSans-61" d="M 2194 1759 
Q 1497 1759 1228 1600 
Q 959 1441 959 1056 
Q 959 750 1161 570 
Q 1363 391 1709 391 
Q 2188 391 2477 730 
Q 2766 1069 2766 1631 
L 2766 1759 
L 2194 1759 
z
M 3341 1997 
L 3341 0 
L 2766 0 
L 2766 531 
Q 2569 213 2275 61 
Q 1981 -91 1556 -91 
Q 1019 -91 701 211 
Q 384 513 384 1019 
Q 384 1609 779 1909 
Q 1175 2209 1959 2209 
L 2766 2209 
L 2766 2266 
Q 2766 2663 2505 2880 
Q 2244 3097 1772 3097 
Q 1472 3097 1187 3025 
Q 903 2953 641 2809 
L 641 3341 
Q 956 3463 1253 3523 
Q 1550 3584 1831 3584 
Q 2591 3584 2966 3190 
Q 3341 2797 3341 1997 
z
" transform="scale(0.015625)"/>
       <path id="DejaVuSans-69" d="M 603 3500 
L 1178 3500 
L 1178 0 
L 603 0 
L 603 3500 
z
M 603 4863 
L 1178 4863 
L 1178 4134 
L 603 4134 
L 603 4863 
z
" transform="scale(0.015625)"/>
       <path id="DejaVuSans-6f" d="M 1959 3097 
Q 1497 3097 1228 2736 
Q 959 2375 959 1747 
Q 959 1119 1226 758 
Q 1494 397 1959 397 
Q 2419 397 2687 759 
Q 2956 1122 2956 1747 
Q 2956 2369 2687 2733 
Q 2419 3097 1959 3097 
z
M 1959 3584 
Q 2709 3584 3137 3096 
Q 3566 2609 3566 1747 
Q 3566 888 3137 398 
Q 2709 -91 1959 -91 
Q 1206 -91 779 398 
Q 353 888 353 1747 
Q 353 2609 779 3096 
Q 1206 3584 1959 3584 
z
" transform="scale(0.015625)"/>
       <path id="DejaVuSans-6e" d="M 3513 2113 
L 3513 0 
L 2938 0 
L 2938 2094 
Q 2938 2591 2744 2837 
Q 2550 3084 2163 3084 
Q 1697 3084 1428 2787 
Q 1159 2491 1159 1978 
L 1159 0 
L 581 0 
L 581 3500 
L 1159 3500 
L 1159 2956 
Q 1366 3272 1645 3428 
Q 1925 3584 2291 3584 
Q 2894 3584 3203 3211 
Q 3513 2838 3513 2113 
z
" transform="scale(0.015625)"/>
       <path id="DejaVuSans-73" d="M 2834 3397 
L 2834 2853 
Q 2591 2978 2328 3040 
Q 2066 3103 1784 3103 
Q 1356 3103 1142 2972 
Q 928 2841 928 2578 
Q 928 2378 1081 2264 
Q 1234 2150 1697 2047 
L 1894 2003 
Q 2506 1872 2764 1633 
Q 3022 1394 3022 966 
Q 3022 478 2636 193 
Q 2250 -91 1575 -91 
Q 1294 -91 989 -36 
Q 684 19 347 128 
L 347 722 
Q 666 556 975 473 
Q 1284 391 1588 391 
Q 1994 391 2212 530 
Q 2431 669 2431 922 
Q 2431 1156 2273 1281 
Q 2116 1406 1581 1522 
L 1381 1569 
Q 847 1681 609 1914 
Q 372 2147 372 2553 
Q 372 3047 722 3315 
Q 1072 3584 1716 3584 
Q 2034 3584 2315 3537 
Q 2597 3491 2834 3397 
z
" transform="scale(0.015625)"/>
      </defs>
      <use xlink:href="#DejaVuSans-49"/>
      <use xlink:href="#DejaVuSans-74" x="29.492188"/>
      <use xlink:href="#DejaVuSans-65" x="68.701172"/>
      <use xlink:href="#DejaVuSans-72" x="130.224609"/>
      <use xlink:href="#DejaVuSans-61" x="171.337891"/>
      <use xlink:href="#DejaVuSans-74" x="232.617188"/>
      <use xlink:href="#DejaVuSans-69" x="271.826172"/>
      <use xlink:href="#DejaVuSans-6f" x="299.609375"/>
      <use xlink:href="#DejaVuSans-6e" x="360.791016"/>
      <use xlink:href="#DejaVuSans-73" x="424.169922"/>
     </g>
    </g>
   </g>
   <g id="matplotlib.axis_2">
    <g id="ytick_1">
     <g id="line2d_4">
      <defs>
       <path id="m39c07b6ae4" d="M 0 0 
L -3.5 0 
" style="stroke: #000000; stroke-width: 0.8"/>
      </defs>
      <g>
       <use xlink:href="#m39c07b6ae4" x="90.65" y="207.486395" style="stroke: #000000; stroke-width: 0.8"/>
      </g>
     </g>
     <g id="text_5">
      <!-- 0.1 -->
      <g transform="translate(48.663125 215.844676) scale(0.22 -0.22)">
       <defs>
        <path id="DejaVuSans-2e" d="M 684 794 
L 1344 794 
L 1344 0 
L 684 0 
L 684 794 
z
" transform="scale(0.015625)"/>
       </defs>
       <use xlink:href="#DejaVuSans-30"/>
       <use xlink:href="#DejaVuSans-2e" x="63.623047"/>
       <use xlink:href="#DejaVuSans-31" x="95.410156"/>
      </g>
     </g>
    </g>
    <g id="ytick_2">
     <g id="line2d_5">
      <g>
       <use xlink:href="#m39c07b6ae4" x="90.65" y="182.672789" style="stroke: #000000; stroke-width: 0.8"/>
      </g>
     </g>
     <g id="text_6">
      <!-- 0.2 -->
      <g transform="translate(48.663125 191.03107) scale(0.22 -0.22)">
       <use xlink:href="#DejaVuSans-30"/>
       <use xlink:href="#DejaVuSans-2e" x="63.623047"/>
       <use xlink:href="#DejaVuSans-32" x="95.410156"/>
      </g>
     </g>
    </g>
    <g id="ytick_3">
     <g id="line2d_6">
      <g>
       <use xlink:href="#m39c07b6ae4" x="90.65" y="157.859184" style="stroke: #000000; stroke-width: 0.8"/>
      </g>
     </g>
     <g id="text_7">
      <!-- 0.3 -->
      <g transform="translate(48.663125 166.217465) scale(0.22 -0.22)">
       <defs>
        <path id="DejaVuSans-33" d="M 2597 2516 
Q 3050 2419 3304 2112 
Q 3559 1806 3559 1356 
Q 3559 666 3084 287 
Q 2609 -91 1734 -91 
Q 1441 -91 1130 -33 
Q 819 25 488 141 
L 488 750 
Q 750 597 1062 519 
Q 1375 441 1716 441 
Q 2309 441 2620 675 
Q 2931 909 2931 1356 
Q 2931 1769 2642 2001 
Q 2353 2234 1838 2234 
L 1294 2234 
L 1294 2753 
L 1863 2753 
Q 2328 2753 2575 2939 
Q 2822 3125 2822 3475 
Q 2822 3834 2567 4026 
Q 2313 4219 1838 4219 
Q 1578 4219 1281 4162 
Q 984 4106 628 3988 
L 628 4550 
Q 988 4650 1302 4700 
Q 1616 4750 1894 4750 
Q 2613 4750 3031 4423 
Q 3450 4097 3450 3541 
Q 3450 3153 3228 2886 
Q 3006 2619 2597 2516 
z
" transform="scale(0.015625)"/>
       </defs>
       <use xlink:href="#DejaVuSans-30"/>
       <use xlink:href="#DejaVuSans-2e" x="63.623047"/>
       <use xlink:href="#DejaVuSans-33" x="95.410156"/>
      </g>
     </g>
    </g>
    <g id="ytick_4">
     <g id="line2d_7">
      <g>
       <use xlink:href="#m39c07b6ae4" x="90.65" y="133.045578" style="stroke: #000000; stroke-width: 0.8"/>
      </g>
     </g>
     <g id="text_8">
      <!-- 0.4 -->
      <g transform="translate(48.663125 141.403859) scale(0.22 -0.22)">
       <defs>
        <path id="DejaVuSans-34" d="M 2419 4116 
L 825 1625 
L 2419 1625 
L 2419 4116 
z
M 2253 4666 
L 3047 4666 
L 3047 1625 
L 3713 1625 
L 3713 1100 
L 3047 1100 
L 3047 0 
L 2419 0 
L 2419 1100 
L 313 1100 
L 313 1709 
L 2253 4666 
z
" transform="scale(0.015625)"/>
       </defs>
       <use xlink:href="#DejaVuSans-30"/>
       <use xlink:href="#DejaVuSans-2e" x="63.623047"/>
       <use xlink:href="#DejaVuSans-34" x="95.410156"/>
      </g>
     </g>
    </g>
    <g id="ytick_5">
     <g id="line2d_8">
      <g>
       <use xlink:href="#m39c07b6ae4" x="90.65" y="108.231973" style="stroke: #000000; stroke-width: 0.8"/>
      </g>
     </g>
     <g id="text_9">
      <!-- 0.5 -->
      <g transform="translate(48.663125 116.590254) scale(0.22 -0.22)">
       <defs>
        <path id="DejaVuSans-35" d="M 691 4666 
L 3169 4666 
L 3169 4134 
L 1269 4134 
L 1269 2991 
Q 1406 3038 1543 3061 
Q 1681 3084 1819 3084 
Q 2600 3084 3056 2656 
Q 3513 2228 3513 1497 
Q 3513 744 3044 326 
Q 2575 -91 1722 -91 
Q 1428 -91 1123 -41 
Q 819 9 494 109 
L 494 744 
Q 775 591 1075 516 
Q 1375 441 1709 441 
Q 2250 441 2565 725 
Q 2881 1009 2881 1497 
Q 2881 1984 2565 2268 
Q 2250 2553 1709 2553 
Q 1456 2553 1204 2497 
Q 953 2441 691 2322 
L 691 4666 
z
" transform="scale(0.015625)"/>
       </defs>
       <use xlink:href="#DejaVuSans-30"/>
       <use xlink:href="#DejaVuSans-2e" x="63.623047"/>
       <use xlink:href="#DejaVuSans-35" x="95.410156"/>
      </g>
     </g>
    </g>
    <g id="ytick_6">
     <g id="line2d_9">
      <g>
       <use xlink:href="#m39c07b6ae4" x="90.65" y="83.418367" style="stroke: #000000; stroke-width: 0.8"/>
      </g>
     </g>
     <g id="text_10">
      <!-- 0.6 -->
      <g transform="translate(48.663125 91.776649) scale(0.22 -0.22)">
       <defs>
        <path id="DejaVuSans-36" d="M 2113 2584 
Q 1688 2584 1439 2293 
Q 1191 2003 1191 1497 
Q 1191 994 1439 701 
Q 1688 409 2113 409 
Q 2538 409 2786 701 
Q 3034 994 3034 1497 
Q 3034 2003 2786 2293 
Q 2538 2584 2113 2584 
z
M 3366 4563 
L 3366 3988 
Q 3128 4100 2886 4159 
Q 2644 4219 2406 4219 
Q 1781 4219 1451 3797 
Q 1122 3375 1075 2522 
Q 1259 2794 1537 2939 
Q 1816 3084 2150 3084 
Q 2853 3084 3261 2657 
Q 3669 2231 3669 1497 
Q 3669 778 3244 343 
Q 2819 -91 2113 -91 
Q 1303 -91 875 529 
Q 447 1150 447 2328 
Q 447 3434 972 4092 
Q 1497 4750 2381 4750 
Q 2619 4750 2861 4703 
Q 3103 4656 3366 4563 
z
" transform="scale(0.015625)"/>
       </defs>
       <use xlink:href="#DejaVuSans-30"/>
       <use xlink:href="#DejaVuSans-2e" x="63.623047"/>
       <use xlink:href="#DejaVuSans-36" x="95.410156"/>
      </g>
     </g>
    </g>
    <g id="ytick_7">
     <g id="line2d_10">
      <g>
       <use xlink:href="#m39c07b6ae4" x="90.65" y="58.604762" style="stroke: #000000; stroke-width: 0.8"/>
      </g>
     </g>
     <g id="text_11">
      <!-- 0.7 -->
      <g transform="translate(48.663125 66.963043) scale(0.22 -0.22)">
       <defs>
        <path id="DejaVuSans-37" d="M 525 4666 
L 3525 4666 
L 3525 4397 
L 1831 0 
L 1172 0 
L 2766 4134 
L 525 4134 
L 525 4666 
z
" transform="scale(0.015625)"/>
       </defs>
       <use xlink:href="#DejaVuSans-30"/>
       <use xlink:href="#DejaVuSans-2e" x="63.623047"/>
       <use xlink:href="#DejaVuSans-37" x="95.410156"/>
      </g>
     </g>
    </g>
    <g id="text_12">
     <!-- Cross-Entropy -->
     <g transform="translate(40.087813 217.95875) rotate(-90) scale(0.22 -0.22)">
      <defs>
       <path id="DejaVuSans-43" d="M 4122 4306 
L 4122 3641 
Q 3803 3938 3442 4084 
Q 3081 4231 2675 4231 
Q 1875 4231 1450 3742 
Q 1025 3253 1025 2328 
Q 1025 1406 1450 917 
Q 1875 428 2675 428 
Q 3081 428 3442 575 
Q 3803 722 4122 1019 
L 4122 359 
Q 3791 134 3420 21 
Q 3050 -91 2638 -91 
Q 1578 -91 968 557 
Q 359 1206 359 2328 
Q 359 3453 968 4101 
Q 1578 4750 2638 4750 
Q 3056 4750 3426 4639 
Q 3797 4528 4122 4306 
z
" transform="scale(0.015625)"/>
       <path id="DejaVuSans-2d" d="M 313 2009 
L 1997 2009 
L 1997 1497 
L 313 1497 
L 313 2009 
z
" transform="scale(0.015625)"/>
       <path id="DejaVuSans-45" d="M 628 4666 
L 3578 4666 
L 3578 4134 
L 1259 4134 
L 1259 2753 
L 3481 2753 
L 3481 2222 
L 1259 2222 
L 1259 531 
L 3634 531 
L 3634 0 
L 628 0 
L 628 4666 
z
" transform="scale(0.015625)"/>
       <path id="DejaVuSans-70" d="M 1159 525 
L 1159 -1331 
L 581 -1331 
L 581 3500 
L 1159 3500 
L 1159 2969 
Q 1341 3281 1617 3432 
Q 1894 3584 2278 3584 
Q 2916 3584 3314 3078 
Q 3713 2572 3713 1747 
Q 3713 922 3314 415 
Q 2916 -91 2278 -91 
Q 1894 -91 1617 61 
Q 1341 213 1159 525 
z
M 3116 1747 
Q 3116 2381 2855 2742 
Q 2594 3103 2138 3103 
Q 1681 3103 1420 2742 
Q 1159 2381 1159 1747 
Q 1159 1113 1420 752 
Q 1681 391 2138 391 
Q 2594 391 2855 752 
Q 3116 1113 3116 1747 
z
" transform="scale(0.015625)"/>
       <path id="DejaVuSans-79" d="M 2059 -325 
Q 1816 -950 1584 -1140 
Q 1353 -1331 966 -1331 
L 506 -1331 
L 506 -850 
L 844 -850 
Q 1081 -850 1212 -737 
Q 1344 -625 1503 -206 
L 1606 56 
L 191 3500 
L 800 3500 
L 1894 763 
L 2988 3500 
L 3597 3500 
L 2059 -325 
z
" transform="scale(0.015625)"/>
      </defs>
      <use xlink:href="#DejaVuSans-43"/>
      <use xlink:href="#DejaVuSans-72" x="69.824219"/>
      <use xlink:href="#DejaVuSans-6f" x="108.6875"/>
      <use xlink:href="#DejaVuSans-73" x="169.869141"/>
      <use xlink:href="#DejaVuSans-73" x="221.96875"/>
      <use xlink:href="#DejaVuSans-2d" x="274.068359"/>
      <use xlink:href="#DejaVuSans-45" x="310.152344"/>
      <use xlink:href="#DejaVuSans-6e" x="373.335938"/>
      <use xlink:href="#DejaVuSans-74" x="436.714844"/>
      <use xlink:href="#DejaVuSans-72" x="475.923828"/>
      <use xlink:href="#DejaVuSans-6f" x="514.787109"/>
      <use xlink:href="#DejaVuSans-70" x="575.96875"/>
      <use xlink:href="#DejaVuSans-79" x="639.445312"/>
     </g>
    </g>
   </g>
   <g id="line2d_11">
    <path d="M 104.501281 60.31008 
L 107.964101 60.313949 
L 111.426921 60.373772 
L 114.889742 61.248666 
L 118.352562 64.947323 
L 121.815382 68.731804 
L 125.278202 71.18546 
L 128.741023 75.679906 
L 132.203843 77.615771 
L 135.666663 81.563661 
L 139.129483 86.587907 
L 142.592304 90.036062 
L 146.055124 93.170821 
L 149.517944 93.951388 
L 152.980764 98.860253 
L 156.443585 101.569659 
L 159.906405 105.334294 
L 163.369225 107.018428 
L 166.832045 112.181502 
L 170.294866 112.02006 
L 173.757686 112.418279 
L 177.220506 114.992074 
L 180.683326 117.084972 
L 184.146147 117.653644 
L 187.608967 121.649917 
L 191.071787 123.270518 
L 194.534607 123.556531 
L 197.997428 128.556673 
L 201.460248 130.323734 
L 204.923068 129.385423 
L 208.385888 133.73669 
L 211.848709 135.127821 
L 215.311529 135.758535 
L 218.774349 137.10322 
L 222.237169 136.801211 
L 225.69999 139.326846 
L 229.16281 139.445582 
L 232.62563 142.52741 
L 236.08845 140.275945 
L 239.551271 143.047232 
L 243.014091 144.179288 
L 246.476911 145.226688 
L 249.939731 147.863863 
L 253.402552 147.731503 
L 256.865372 149.577115 
L 260.328192 147.018634 
L 263.791012 146.557342 
L 267.253833 149.078582 
L 270.716653 151.113098 
L 274.179473 150.505423 
L 277.642293 147.646061 
L 281.105114 150.822723 
L 284.567934 154.657625 
L 288.030754 149.52063 
L 291.493574 155.559822 
L 294.956395 153.365901 
L 298.419215 155.711488 
L 301.882035 154.724889 
L 305.344855 157.703325 
L 308.807676 157.068075 
L 312.270496 157.743595 
L 315.733316 154.799016 
L 319.196136 158.145074 
L 322.658957 158.950922 
L 326.121777 157.786896 
L 329.584597 159.563626 
L 333.047417 158.694331 
L 336.510238 161.306231 
L 339.973058 161.41731 
L 343.435878 163.818151 
L 346.898698 160.4841 
L 350.361519 160.759609 
L 353.824339 163.558214 
L 357.287159 164.655126 
L 360.749979 164.525038 
L 364.2128 164.069111 
L 367.67562 163.880165 
L 371.13844 165.974949 
L 374.60126 166.001487 
L 378.064081 167.771125 
L 381.526901 164.757376 
" clip-path="url(#pa609ad86bb)" style="fill: none; stroke: #62d643; stroke-width: 1.5; stroke-linecap: square"/>
   </g>
   <g id="line2d_12">
    <path d="M 104.501281 60.310118 
L 107.964101 60.314206 
L 111.426921 60.366403 
L 114.889742 61.254123 
L 118.352562 63.571649 
L 121.815382 67.055676 
L 125.278202 71.520437 
L 128.741023 74.625191 
L 132.203843 77.796452 
L 135.666663 86.926777 
L 139.129483 90.681698 
L 142.592304 92.319343 
L 146.055124 98.501139 
L 149.517944 99.91742 
L 152.980764 106.496739 
L 156.443585 108.653652 
L 159.906405 112.722638 
L 163.369225 103.135625 
L 166.832045 109.627224 
L 170.294866 119.516117 
L 173.757686 113.294433 
L 177.220506 122.767706 
L 180.683326 121.733768 
L 184.146147 127.239482 
L 187.608967 127.07615 
L 191.071787 128.91321 
L 194.534607 130.553658 
L 197.997428 133.064521 
L 201.460248 134.566548 
L 204.923068 131.705951 
L 208.385888 134.689415 
L 211.848709 139.32251 
L 215.311529 140.534838 
L 218.774349 143.368461 
L 222.237169 143.785093 
L 225.69999 146.20365 
L 229.16281 142.715637 
L 232.62563 147.327156 
L 236.08845 148.299239 
L 239.551271 151.218953 
L 243.014091 151.008884 
L 246.476911 153.946979 
L 249.939731 154.176679 
L 253.402552 154.590971 
L 256.865372 154.834481 
L 260.328192 154.787452 
L 263.791012 157.496064 
L 267.253833 158.612659 
L 270.716653 159.154802 
L 274.179473 154.54494 
L 277.642293 158.078815 
L 281.105114 155.664118 
L 284.567934 156.787404 
L 288.030754 157.549712 
L 291.493574 156.269576 
L 294.956395 159.802407 
L 298.419215 160.493558 
L 301.882035 162.245362 
L 305.344855 163.45926 
L 308.807676 161.814506 
L 312.270496 163.281205 
L 315.733316 166.245952 
L 319.196136 163.139307 
L 322.658957 164.426679 
L 326.121777 167.431828 
L 329.584597 167.454215 
L 333.047417 169.261819 
L 336.510238 165.490267 
L 339.973058 165.953312 
L 343.435878 169.677544 
L 346.898698 170.962316 
L 350.361519 172.380184 
L 353.824339 171.080607 
L 357.287159 171.96028 
L 360.749979 172.477541 
L 364.2128 171.377012 
L 367.67562 170.99527 
L 371.13844 172.415765 
L 374.60126 170.520244 
L 378.064081 169.987038 
L 381.526901 171.549287 
" clip-path="url(#pa609ad86bb)" style="fill: none; stroke: #3bcf14; stroke-width: 1.5; stroke-linecap: square"/>
   </g>
   <g id="line2d_13">
    <path d="M 104.501281 60.310171 
L 107.964101 60.312946 
L 111.426921 60.366276 
L 114.889742 61.095873 
L 118.352562 63.848262 
L 121.815382 65.555227 
L 125.278202 69.540658 
L 128.741023 73.287095 
L 132.203843 78.682655 
L 135.666663 83.876436 
L 139.129483 85.526046 
L 142.592304 86.003182 
L 146.055124 95.783404 
L 149.517944 93.766722 
L 152.980764 100.816091 
L 156.443585 98.353646 
L 159.906405 100.97897 
L 163.369225 105.177688 
L 166.832045 105.905481 
L 170.294866 115.029875 
L 173.757686 111.870372 
L 177.220506 123.056013 
L 180.683326 119.842627 
L 184.146147 118.464987 
L 187.608967 122.918561 
L 191.071787 129.586383 
L 194.534607 124.02807 
L 197.997428 130.06143 
L 201.460248 129.477411 
L 204.923068 132.469248 
L 208.385888 137.124278 
L 211.848709 139.599347 
L 215.311529 135.270885 
L 218.774349 141.628415 
L 222.237169 143.54405 
L 225.69999 143.456595 
L 229.16281 145.080161 
L 232.62563 146.214362 
L 236.08845 147.182358 
L 239.551271 149.523687 
L 243.014091 147.050196 
L 246.476911 146.40684 
L 249.939731 151.170989 
L 253.402552 152.433861 
L 256.865372 149.615045 
L 260.328192 153.304286 
L 263.791012 150.57352 
L 267.253833 151.436168 
L 270.716653 156.509706 
L 274.179473 156.805097 
L 277.642293 160.856141 
L 281.105114 163.268457 
L 284.567934 161.603223 
L 288.030754 160.579957 
L 291.493574 159.106231 
L 294.956395 161.325692 
L 298.419215 165.323757 
L 301.882035 166.094061 
L 305.344855 164.472474 
L 308.807676 160.998104 
L 312.270496 162.759576 
L 315.733316 163.820254 
L 319.196136 163.275032 
L 322.658957 167.646167 
L 326.121777 167.565432 
L 329.584597 171.542277 
L 333.047417 165.522941 
L 336.510238 172.721388 
L 339.973058 169.573213 
L 343.435878 169.134687 
L 346.898698 168.784998 
L 350.361519 172.170174 
L 353.824339 171.469353 
L 357.287159 172.737382 
L 360.749979 170.727251 
L 364.2128 173.907221 
L 367.67562 179.589073 
L 371.13844 174.275611 
L 374.60126 178.618574 
L 378.064081 178.793116 
L 381.526901 179.533908 
" clip-path="url(#pa609ad86bb)" style="fill: none; stroke: #1d8a00; stroke-width: 1.5; stroke-linecap: square"/>
   </g>
   <g id="line2d_14">
    <path d="M 104.501281 60.309991 
L 107.964101 60.31228 
L 111.426921 60.384462 
L 114.889742 60.55926 
L 118.352562 63.397085 
L 121.815382 64.794015 
L 125.278202 65.81723 
L 128.741023 66.400236 
L 132.203843 67.437316 
L 135.666663 72.92662 
L 139.129483 77.696329 
L 142.592304 78.696386 
L 146.055124 81.427374 
L 149.517944 83.773849 
L 152.980764 82.195206 
L 156.443585 89.739086 
L 159.906405 91.082385 
L 163.369225 95.73672 
L 166.832045 98.41365 
L 170.294866 95.085874 
L 173.757686 98.144172 
L 177.220506 102.743874 
L 180.683326 103.683462 
L 184.146147 97.7563 
L 187.608967 109.780185 
L 191.071787 100.205233 
L 194.534607 108.678142 
L 197.997428 101.594383 
L 201.460248 114.53539 
L 204.923068 107.120338 
L 208.385888 126.992105 
L 211.848709 111.832597 
L 215.311529 119.385421 
L 218.774349 116.18189 
L 222.237169 115.326156 
L 225.69999 116.273836 
L 229.16281 121.675868 
L 232.62563 131.559927 
L 236.08845 133.086563 
L 239.551271 132.277626 
L 243.014091 135.316462 
L 246.476911 139.313026 
L 249.939731 140.835036 
L 253.402552 136.278542 
L 256.865372 137.586676 
L 260.328192 141.680106 
L 263.791012 139.568423 
L 267.253833 137.982708 
L 270.716653 148.01319 
L 274.179473 150.627206 
L 277.642293 145.913806 
L 281.105114 147.895019 
L 284.567934 147.646129 
L 288.030754 142.368832 
L 291.493574 148.566442 
L 294.956395 142.913695 
L 298.419215 140.874004 
L 301.882035 137.977926 
L 305.344855 145.041497 
L 308.807676 151.23227 
L 312.270496 158.943544 
L 315.733316 159.639622 
L 319.196136 152.160647 
L 322.658957 154.527805 
L 326.121777 157.521612 
L 329.584597 154.075853 
L 333.047417 145.437322 
L 336.510238 156.430323 
L 339.973058 159.378188 
L 343.435878 155.401268 
L 346.898698 147.570986 
L 350.361519 147.980372 
L 353.824339 141.345684 
L 357.287159 150.598763 
L 360.749979 155.368329 
L 364.2128 147.920428 
L 367.67562 155.295035 
L 371.13844 160.23687 
L 374.60126 154.03997 
L 378.064081 157.234861 
L 381.526901 159.832664 
" clip-path="url(#pa609ad86bb)" style="fill: none; stroke: #156400; stroke-width: 1.5; stroke-linecap: square"/>
   </g>
   <g id="patch_3">
    <path d="M 90.65 232.3 
L 90.65 49.92 
" style="fill: none; stroke: #000000; stroke-width: 0.8; stroke-linejoin: miter; stroke-linecap: square"/>
   </g>
   <g id="patch_4">
    <path d="M 90.65 232.3 
L 395.378182 232.3 
" style="fill: none; stroke: #000000; stroke-width: 0.8; stroke-linejoin: miter; stroke-linecap: square"/>
   </g>
   <g id="text_13">
    <!-- Cue Accumulation -->
    <g transform="translate(123.170466 43.92) scale(0.264 -0.264)">
     <defs>
      <path id="DejaVuSans-75" d="M 544 1381 
L 544 3500 
L 1119 3500 
L 1119 1403 
Q 1119 906 1312 657 
Q 1506 409 1894 409 
Q 2359 409 2629 706 
Q 2900 1003 2900 1516 
L 2900 3500 
L 3475 3500 
L 3475 0 
L 2900 0 
L 2900 538 
Q 2691 219 2414 64 
Q 2138 -91 1772 -91 
Q 1169 -91 856 284 
Q 544 659 544 1381 
z
M 1991 3584 
L 1991 3584 
z
" transform="scale(0.015625)"/>
      <path id="DejaVuSans-20" transform="scale(0.015625)"/>
      <path id="DejaVuSans-41" d="M 2188 4044 
L 1331 1722 
L 3047 1722 
L 2188 4044 
z
M 1831 4666 
L 2547 4666 
L 4325 0 
L 3669 0 
L 3244 1197 
L 1141 1197 
L 716 0 
L 50 0 
L 1831 4666 
z
" transform="scale(0.015625)"/>
      <path id="DejaVuSans-63" d="M 3122 3366 
L 3122 2828 
Q 2878 2963 2633 3030 
Q 2388 3097 2138 3097 
Q 1578 3097 1268 2742 
Q 959 2388 959 1747 
Q 959 1106 1268 751 
Q 1578 397 2138 397 
Q 2388 397 2633 464 
Q 2878 531 3122 666 
L 3122 134 
Q 2881 22 2623 -34 
Q 2366 -91 2075 -91 
Q 1284 -91 818 406 
Q 353 903 353 1747 
Q 353 2603 823 3093 
Q 1294 3584 2113 3584 
Q 2378 3584 2631 3529 
Q 2884 3475 3122 3366 
z
" transform="scale(0.015625)"/>
      <path id="DejaVuSans-6d" d="M 3328 2828 
Q 3544 3216 3844 3400 
Q 4144 3584 4550 3584 
Q 5097 3584 5394 3201 
Q 5691 2819 5691 2113 
L 5691 0 
L 5113 0 
L 5113 2094 
Q 5113 2597 4934 2840 
Q 4756 3084 4391 3084 
Q 3944 3084 3684 2787 
Q 3425 2491 3425 1978 
L 3425 0 
L 2847 0 
L 2847 2094 
Q 2847 2600 2669 2842 
Q 2491 3084 2119 3084 
Q 1678 3084 1418 2786 
Q 1159 2488 1159 1978 
L 1159 0 
L 581 0 
L 581 3500 
L 1159 3500 
L 1159 2956 
Q 1356 3278 1631 3431 
Q 1906 3584 2284 3584 
Q 2666 3584 2933 3390 
Q 3200 3197 3328 2828 
z
" transform="scale(0.015625)"/>
      <path id="DejaVuSans-6c" d="M 603 4863 
L 1178 4863 
L 1178 0 
L 603 0 
L 603 4863 
z
" transform="scale(0.015625)"/>
     </defs>
     <use xlink:href="#DejaVuSans-43"/>
     <use xlink:href="#DejaVuSans-75" x="69.824219"/>
     <use xlink:href="#DejaVuSans-65" x="133.203125"/>
     <use xlink:href="#DejaVuSans-20" x="194.726562"/>
     <use xlink:href="#DejaVuSans-41" x="226.513672"/>
     <use xlink:href="#DejaVuSans-63" x="293.171875"/>
     <use xlink:href="#DejaVuSans-63" x="348.152344"/>
     <use xlink:href="#DejaVuSans-75" x="403.132812"/>
     <use xlink:href="#DejaVuSans-6d" x="466.511719"/>
     <use xlink:href="#DejaVuSans-75" x="563.923828"/>
     <use xlink:href="#DejaVuSans-6c" x="627.302734"/>
     <use xlink:href="#DejaVuSans-61" x="655.085938"/>
     <use xlink:href="#DejaVuSans-74" x="716.365234"/>
     <use xlink:href="#DejaVuSans-69" x="755.574219"/>
     <use xlink:href="#DejaVuSans-6f" x="783.357422"/>
     <use xlink:href="#DejaVuSans-6e" x="844.539062"/>
    </g>
   </g>
   <g id="legend_1">
    <g id="patch_5">
     <path d="M 106.05 221.3 
L 256.609063 221.3 
Q 261.009063 221.3 261.009063 216.9 
L 261.009063 89.9325 
Q 261.009063 85.5325 256.609063 85.5325 
L 106.05 85.5325 
Q 101.65 85.5325 101.65 89.9325 
L 101.65 216.9 
Q 101.65 221.3 106.05 221.3 
z
" style="fill: #ffffff; opacity: 0.8; stroke: #cccccc; stroke-linejoin: miter"/>
    </g>
    <g id="line2d_15">
     <path d="M 110.45 103.349062 
L 132.45 103.349062 
L 154.45 103.349062 
" style="fill: none; stroke: #62d643; stroke-width: 1.5; stroke-linecap: square"/>
    </g>
    <g id="text_14">
     <!-- k=0.25 -->
     <g transform="translate(172.05 111.049062) scale(0.22 -0.22)">
      <defs>
       <path id="DejaVuSans-6b" d="M 581 4863 
L 1159 4863 
L 1159 1991 
L 2875 3500 
L 3609 3500 
L 1753 1863 
L 3688 0 
L 2938 0 
L 1159 1709 
L 1159 0 
L 581 0 
L 581 4863 
z
" transform="scale(0.015625)"/>
       <path id="DejaVuSans-3d" d="M 678 2906 
L 4684 2906 
L 4684 2381 
L 678 2381 
L 678 2906 
z
M 678 1631 
L 4684 1631 
L 4684 1100 
L 678 1100 
L 678 1631 
z
" transform="scale(0.015625)"/>
      </defs>
      <use xlink:href="#DejaVuSans-6b"/>
      <use xlink:href="#DejaVuSans-3d" x="57.910156"/>
      <use xlink:href="#DejaVuSans-30" x="141.699219"/>
      <use xlink:href="#DejaVuSans-2e" x="205.322266"/>
      <use xlink:href="#DejaVuSans-32" x="237.109375"/>
      <use xlink:href="#DejaVuSans-35" x="300.732422"/>
     </g>
    </g>
    <g id="line2d_16">
     <path d="M 110.45 135.640937 
L 132.45 135.640937 
L 154.45 135.640937 
" style="fill: none; stroke: #3bcf14; stroke-width: 1.5; stroke-linecap: square"/>
    </g>
    <g id="text_15">
     <!-- k=0.50 -->
     <g transform="translate(172.05 143.340937) scale(0.22 -0.22)">
      <use xlink:href="#DejaVuSans-6b"/>
      <use xlink:href="#DejaVuSans-3d" x="57.910156"/>
      <use xlink:href="#DejaVuSans-30" x="141.699219"/>
      <use xlink:href="#DejaVuSans-2e" x="205.322266"/>
      <use xlink:href="#DejaVuSans-35" x="237.109375"/>
      <use xlink:href="#DejaVuSans-30" x="300.732422"/>
     </g>
    </g>
    <g id="line2d_17">
     <path d="M 110.45 167.932812 
L 132.45 167.932812 
L 154.45 167.932812 
" style="fill: none; stroke: #1d8a00; stroke-width: 1.5; stroke-linecap: square"/>
    </g>
    <g id="text_16">
     <!-- k=0.75 -->
     <g transform="translate(172.05 175.632812) scale(0.22 -0.22)">
      <use xlink:href="#DejaVuSans-6b"/>
      <use xlink:href="#DejaVuSans-3d" x="57.910156"/>
      <use xlink:href="#DejaVuSans-30" x="141.699219"/>
      <use xlink:href="#DejaVuSans-2e" x="205.322266"/>
      <use xlink:href="#DejaVuSans-37" x="237.109375"/>
      <use xlink:href="#DejaVuSans-35" x="300.732422"/>
     </g>
    </g>
    <g id="line2d_18">
     <path d="M 110.45 200.224687 
L 132.45 200.224687 
L 154.45 200.224687 
" style="fill: none; stroke: #156400; stroke-width: 1.5; stroke-linecap: square"/>
    </g>
    <g id="text_17">
     <!-- k=0.90 -->
     <g transform="translate(172.05 207.924687) scale(0.22 -0.22)">
      <defs>
       <path id="DejaVuSans-39" d="M 703 97 
L 703 672 
Q 941 559 1184 500 
Q 1428 441 1663 441 
Q 2288 441 2617 861 
Q 2947 1281 2994 2138 
Q 2813 1869 2534 1725 
Q 2256 1581 1919 1581 
Q 1219 1581 811 2004 
Q 403 2428 403 3163 
Q 403 3881 828 4315 
Q 1253 4750 1959 4750 
Q 2769 4750 3195 4129 
Q 3622 3509 3622 2328 
Q 3622 1225 3098 567 
Q 2575 -91 1691 -91 
Q 1453 -91 1209 -44 
Q 966 3 703 97 
z
M 1959 2075 
Q 2384 2075 2632 2365 
Q 2881 2656 2881 3163 
Q 2881 3666 2632 3958 
Q 2384 4250 1959 4250 
Q 1534 4250 1286 3958 
Q 1038 3666 1038 3163 
Q 1038 2656 1286 2365 
Q 1534 2075 1959 2075 
z
" transform="scale(0.015625)"/>
      </defs>
      <use xlink:href="#DejaVuSans-6b"/>
      <use xlink:href="#DejaVuSans-3d" x="57.910156"/>
      <use xlink:href="#DejaVuSans-30" x="141.699219"/>
      <use xlink:href="#DejaVuSans-2e" x="205.322266"/>
      <use xlink:href="#DejaVuSans-39" x="237.109375"/>
      <use xlink:href="#DejaVuSans-30" x="300.732422"/>
     </g>
    </g>
   </g>
  </g>
  <g id="axes_2">
   <g id="patch_6">
    <path d="M 90.65 499.48 
L 395.378182 499.48 
L 395.378182 317.1 
L 90.65 317.1 
z
" style="fill: #ffffff"/>
   </g>
   <g id="matplotlib.axis_3">
    <g id="xtick_4">
     <g id="line2d_19">
      <g>
       <use xlink:href="#m5dc1c6075a" x="128.741023" y="499.48" style="stroke: #000000; stroke-width: 0.8"/>
      </g>
     </g>
     <g id="text_18">
      <!-- 0.25 -->
      <g transform="translate(104.248835 523.196563) scale(0.22 -0.22)">
       <use xlink:href="#DejaVuSans-30"/>
       <use xlink:href="#DejaVuSans-2e" x="63.623047"/>
       <use xlink:href="#DejaVuSans-32" x="95.410156"/>
       <use xlink:href="#DejaVuSans-35" x="159.033203"/>
      </g>
     </g>
    </g>
    <g id="xtick_5">
     <g id="line2d_20">
      <g>
       <use xlink:href="#m5dc1c6075a" x="204.923068" y="499.48" style="stroke: #000000; stroke-width: 0.8"/>
      </g>
     </g>
     <g id="text_19">
      <!-- 0.50 -->
      <g transform="translate(180.430881 523.196563) scale(0.22 -0.22)">
       <use xlink:href="#DejaVuSans-30"/>
       <use xlink:href="#DejaVuSans-2e" x="63.623047"/>
       <use xlink:href="#DejaVuSans-35" x="95.410156"/>
       <use xlink:href="#DejaVuSans-30" x="159.033203"/>
      </g>
     </g>
    </g>
    <g id="xtick_6">
     <g id="line2d_21">
      <g>
       <use xlink:href="#m5dc1c6075a" x="281.105114" y="499.48" style="stroke: #000000; stroke-width: 0.8"/>
      </g>
     </g>
     <g id="text_20">
      <!-- 0.75 -->
      <g transform="translate(256.612926 523.196563) scale(0.22 -0.22)">
       <use xlink:href="#DejaVuSans-30"/>
       <use xlink:href="#DejaVuSans-2e" x="63.623047"/>
       <use xlink:href="#DejaVuSans-37" x="95.410156"/>
       <use xlink:href="#DejaVuSans-35" x="159.033203"/>
      </g>
     </g>
    </g>
    <g id="xtick_7">
     <g id="line2d_22">
      <g>
       <use xlink:href="#m5dc1c6075a" x="357.287159" y="499.48" style="stroke: #000000; stroke-width: 0.8"/>
      </g>
     </g>
     <g id="text_21">
      <!-- 0.90 -->
      <g transform="translate(332.794972 523.196563) scale(0.22 -0.22)">
       <use xlink:href="#DejaVuSans-30"/>
       <use xlink:href="#DejaVuSans-2e" x="63.623047"/>
       <use xlink:href="#DejaVuSans-39" x="95.410156"/>
       <use xlink:href="#DejaVuSans-30" x="159.033203"/>
      </g>
     </g>
    </g>
    <g id="text_22">
     <!-- k value -->
     <g transform="translate(203.101278 548.488438) scale(0.22 -0.22)">
      <defs>
       <path id="DejaVuSans-76" d="M 191 3500 
L 800 3500 
L 1894 563 
L 2988 3500 
L 3597 3500 
L 2284 0 
L 1503 0 
L 191 3500 
z
" transform="scale(0.015625)"/>
      </defs>
      <use xlink:href="#DejaVuSans-6b"/>
      <use xlink:href="#DejaVuSans-20" x="57.910156"/>
      <use xlink:href="#DejaVuSans-76" x="89.697266"/>
      <use xlink:href="#DejaVuSans-61" x="148.876953"/>
      <use xlink:href="#DejaVuSans-6c" x="210.15625"/>
      <use xlink:href="#DejaVuSans-75" x="237.939453"/>
      <use xlink:href="#DejaVuSans-65" x="301.318359"/>
     </g>
    </g>
   </g>
   <g id="matplotlib.axis_4">
    <g id="ytick_8">
     <g id="line2d_23">
      <g>
       <use xlink:href="#m39c07b6ae4" x="90.65" y="453.885" style="stroke: #000000; stroke-width: 0.8"/>
      </g>
     </g>
     <g id="text_23">
      <!-- 0.1 -->
      <g transform="translate(48.663125 462.243281) scale(0.22 -0.22)">
       <use xlink:href="#DejaVuSans-30"/>
       <use xlink:href="#DejaVuSans-2e" x="63.623047"/>
       <use xlink:href="#DejaVuSans-31" x="95.410156"/>
      </g>
     </g>
    </g>
    <g id="ytick_9">
     <g id="line2d_24">
      <g>
       <use xlink:href="#m39c07b6ae4" x="90.65" y="408.29" style="stroke: #000000; stroke-width: 0.8"/>
      </g>
     </g>
     <g id="text_24">
      <!-- 0.2 -->
      <g transform="translate(48.663125 416.648281) scale(0.22 -0.22)">
       <use xlink:href="#DejaVuSans-30"/>
       <use xlink:href="#DejaVuSans-2e" x="63.623047"/>
       <use xlink:href="#DejaVuSans-32" x="95.410156"/>
      </g>
     </g>
    </g>
    <g id="ytick_10">
     <g id="line2d_25">
      <g>
       <use xlink:href="#m39c07b6ae4" x="90.65" y="362.695" style="stroke: #000000; stroke-width: 0.8"/>
      </g>
     </g>
     <g id="text_25">
      <!-- 0.3 -->
      <g transform="translate(48.663125 371.053281) scale(0.22 -0.22)">
       <use xlink:href="#DejaVuSans-30"/>
       <use xlink:href="#DejaVuSans-2e" x="63.623047"/>
       <use xlink:href="#DejaVuSans-33" x="95.410156"/>
      </g>
     </g>
    </g>
    <g id="ytick_11">
     <g id="line2d_26">
      <g>
       <use xlink:href="#m39c07b6ae4" x="90.65" y="317.1" style="stroke: #000000; stroke-width: 0.8"/>
      </g>
     </g>
     <g id="text_26">
      <!-- 0.4 -->
      <g transform="translate(48.663125 325.458281) scale(0.22 -0.22)">
       <use xlink:href="#DejaVuSans-30"/>
       <use xlink:href="#DejaVuSans-2e" x="63.623047"/>
       <use xlink:href="#DejaVuSans-34" x="95.410156"/>
      </g>
     </g>
    </g>
    <g id="text_27">
     <!-- Cross-Entropy -->
     <g transform="translate(40.087813 485.13875) rotate(-90) scale(0.22 -0.22)">
      <use xlink:href="#DejaVuSans-43"/>
      <use xlink:href="#DejaVuSans-72" x="69.824219"/>
      <use xlink:href="#DejaVuSans-6f" x="108.6875"/>
      <use xlink:href="#DejaVuSans-73" x="169.869141"/>
      <use xlink:href="#DejaVuSans-73" x="221.96875"/>
      <use xlink:href="#DejaVuSans-2d" x="274.068359"/>
      <use xlink:href="#DejaVuSans-45" x="310.152344"/>
      <use xlink:href="#DejaVuSans-6e" x="373.335938"/>
      <use xlink:href="#DejaVuSans-74" x="436.714844"/>
      <use xlink:href="#DejaVuSans-72" x="475.923828"/>
      <use xlink:href="#DejaVuSans-6f" x="514.787109"/>
      <use xlink:href="#DejaVuSans-70" x="575.96875"/>
      <use xlink:href="#DejaVuSans-79" x="639.445312"/>
     </g>
    </g>
   </g>
   <g id="patch_7">
    <path d="M 123.027369 386.539844 
L 134.454676 386.539844 
L 134.454676 367.461224 
L 123.027369 367.461224 
L 123.027369 386.539844 
z
" clip-path="url(#pe3f35ed971)" style="fill: #62d643; stroke: #62d643; stroke-linejoin: miter"/>
   </g>
   <g id="line2d_27">
    <path d="M 128.741023 386.539844 
L 128.741023 396.211712 
" clip-path="url(#pe3f35ed971)" style="fill: none; stroke: #000000; stroke-linecap: square"/>
   </g>
   <g id="line2d_28">
    <path d="M 128.741023 367.461224 
L 128.741023 357.229318 
" clip-path="url(#pe3f35ed971)" style="fill: none; stroke: #000000; stroke-linecap: square"/>
   </g>
   <g id="line2d_29">
    <path d="M 125.884196 396.211712 
L 131.597849 396.211712 
" clip-path="url(#pe3f35ed971)" style="fill: none; stroke: #000000; stroke-linecap: square"/>
   </g>
   <g id="line2d_30">
    <path d="M 125.884196 357.229318 
L 131.597849 357.229318 
" clip-path="url(#pe3f35ed971)" style="fill: none; stroke: #000000; stroke-linecap: square"/>
   </g>
   <g id="line2d_31"/>
   <g id="patch_8">
    <path d="M 199.209415 388.323854 
L 210.636722 388.323854 
L 210.636722 380.079057 
L 199.209415 380.079057 
L 199.209415 388.323854 
z
" clip-path="url(#pe3f35ed971)" style="fill: #3bcf14; stroke: #3bcf14; stroke-linejoin: miter"/>
   </g>
   <g id="line2d_32">
    <path d="M 204.923068 388.323854 
L 204.923068 388.323854 
" clip-path="url(#pe3f35ed971)" style="fill: none; stroke: #000000; stroke-linecap: square"/>
   </g>
   <g id="line2d_33">
    <path d="M 204.923068 380.079057 
L 204.923068 377.127201 
" clip-path="url(#pe3f35ed971)" style="fill: none; stroke: #000000; stroke-linecap: square"/>
   </g>
   <g id="line2d_34">
    <path d="M 202.066241 388.323854 
L 207.779895 388.323854 
" clip-path="url(#pe3f35ed971)" style="fill: none; stroke: #000000; stroke-linecap: square"/>
   </g>
   <g id="line2d_35">
    <path d="M 202.066241 377.127201 
L 207.779895 377.127201 
" clip-path="url(#pe3f35ed971)" style="fill: none; stroke: #000000; stroke-linecap: square"/>
   </g>
   <g id="line2d_36">
    <defs>
     <path id="me55b411034" d="M 0 3 
C 0.795609 3 1.55874 2.683901 2.12132 2.12132 
C 2.683901 1.55874 3 0.795609 3 0 
C 3 -0.795609 2.683901 -1.55874 2.12132 -2.12132 
C 1.55874 -2.683901 0.795609 -3 0 -3 
C -0.795609 -3 -1.55874 -2.683901 -2.12132 -2.12132 
C -2.683901 -1.55874 -3 -0.795609 -3 0 
C -3 0.795609 -2.683901 1.55874 -2.12132 2.12132 
C -1.55874 2.683901 -0.795609 3 0 3 
z
" style="stroke: #000000"/>
    </defs>
    <g clip-path="url(#pe3f35ed971)">
     <use xlink:href="#me55b411034" x="204.923068" y="413.092767" style="fill-opacity: 0; stroke: #000000"/>
    </g>
   </g>
   <g id="patch_9">
    <path d="M 275.39146 413.079342 
L 286.818767 413.079342 
L 286.818767 393.233373 
L 275.39146 393.233373 
L 275.39146 413.079342 
z
" clip-path="url(#pe3f35ed971)" style="fill: #1d8a00; stroke: #1d8a00; stroke-linejoin: miter"/>
   </g>
   <g id="line2d_37">
    <path d="M 281.105114 413.079342 
L 281.105114 417.274431 
" clip-path="url(#pe3f35ed971)" style="fill: none; stroke: #000000; stroke-linecap: square"/>
   </g>
   <g id="line2d_38">
    <path d="M 281.105114 393.233373 
L 281.105114 386.966057 
" clip-path="url(#pe3f35ed971)" style="fill: none; stroke: #000000; stroke-linecap: square"/>
   </g>
   <g id="line2d_39">
    <path d="M 278.248287 417.274431 
L 283.96194 417.274431 
" clip-path="url(#pe3f35ed971)" style="fill: none; stroke: #000000; stroke-linecap: square"/>
   </g>
   <g id="line2d_40">
    <path d="M 278.248287 386.966057 
L 283.96194 386.966057 
" clip-path="url(#pe3f35ed971)" style="fill: none; stroke: #000000; stroke-linecap: square"/>
   </g>
   <g id="line2d_41"/>
   <g id="patch_10">
    <path d="M 351.573506 366.252375 
L 363.000812 366.252375 
L 363.000812 361.01925 
L 351.573506 361.01925 
L 351.573506 366.252375 
z
" clip-path="url(#pe3f35ed971)" style="fill: #156400; stroke: #156400; stroke-linejoin: miter"/>
   </g>
   <g id="line2d_42">
    <path d="M 357.287159 366.252375 
L 357.287159 366.252375 
" clip-path="url(#pe3f35ed971)" style="fill: none; stroke: #000000; stroke-linecap: square"/>
   </g>
   <g id="line2d_43">
    <path d="M 357.287159 361.01925 
L 357.287159 361.01925 
" clip-path="url(#pe3f35ed971)" style="fill: none; stroke: #000000; stroke-linecap: square"/>
   </g>
   <g id="line2d_44">
    <path d="M 354.430332 366.252375 
L 360.143986 366.252375 
" clip-path="url(#pe3f35ed971)" style="fill: none; stroke: #000000; stroke-linecap: square"/>
   </g>
   <g id="line2d_45">
    <path d="M 354.430332 361.01925 
L 360.143986 361.01925 
" clip-path="url(#pe3f35ed971)" style="fill: none; stroke: #000000; stroke-linecap: square"/>
   </g>
   <g id="line2d_46">
    <g clip-path="url(#pe3f35ed971)">
     <use xlink:href="#me55b411034" x="357.287159" y="416.656249" style="fill-opacity: 0; stroke: #000000"/>
     <use xlink:href="#me55b411034" x="357.287159" y="325.766849" style="fill-opacity: 0; stroke: #000000"/>
    </g>
   </g>
   <g id="line2d_47">
    <path d="M 123.027369 369.41004 
L 134.454676 369.41004 
" clip-path="url(#pe3f35ed971)" style="fill: none; stroke: #000000"/>
   </g>
   <g id="line2d_48">
    <path d="M 199.209415 380.629943 
L 210.636722 380.629943 
" clip-path="url(#pe3f35ed971)" style="fill: none; stroke: #000000"/>
   </g>
   <g id="line2d_49">
    <path d="M 275.39146 402.058325 
L 286.818767 402.058325 
" clip-path="url(#pe3f35ed971)" style="fill: none; stroke: #000000"/>
   </g>
   <g id="line2d_50">
    <path d="M 351.573506 361.911625 
L 363.000812 361.911625 
" clip-path="url(#pe3f35ed971)" style="fill: none; stroke: #000000"/>
   </g>
   <g id="patch_11">
    <path d="M 90.65 499.48 
L 90.65 317.1 
" style="fill: none; stroke: #000000; stroke-width: 0.8; stroke-linejoin: miter; stroke-linecap: square"/>
   </g>
   <g id="patch_12">
    <path d="M 90.65 499.48 
L 395.378182 499.48 
" style="fill: none; stroke: #000000; stroke-width: 0.8; stroke-linejoin: miter; stroke-linecap: square"/>
   </g>
  </g>
 </g>
 <defs>
  <clipPath id="pa609ad86bb">
   <rect x="90.65" y="49.92" width="304.728182" height="182.38"/>
  </clipPath>
  <clipPath id="pe3f35ed971">
   <rect x="90.65" y="317.1" width="304.728182" height="182.38"/>
  </clipPath>
 </defs>
</svg>
