<?xml version="1.0" encoding="utf-8" standalone="no"?>
<!DOCTYPE svg PUBLIC "-//W3C//DTD SVG 1.1//EN"
  "http://www.w3.org/Graphics/SVG/1.1/DTD/svg11.dtd">
<svg xmlns:xlink="http://www.w3.org/1999/xlink" width="432pt" height="576pt" viewBox="0 0 432 576" xmlns="http://www.w3.org/2000/svg" version="1.1">
 <metadata>
  <rdf:RDF xmlns:dc="http://purl.org/dc/elements/1.1/" xmlns:cc="http://creativecommons.org/ns#" xmlns:rdf="http://www.w3.org/1999/02/22-rdf-syntax-ns#">
   <cc:Work>
    <dc:type rdf:resource="http://purl.org/dc/dcmitype/StillImage"/>
    <dc:date>2024-11-13T13:29:12.947783</dc:date>
    <dc:format>image/svg+xml</dc:format>
    <dc:creator>
     <cc:Agent>
      <dc:title>Matplotlib v3.8.4, https://matplotlib.org/</dc:title>
     </cc:Agent>
    </dc:creator>
   </cc:Work>
  </rdf:RDF>
 </metadata>
 <defs>
  <style type="text/css">*{stroke-linejoin: round; stroke-linecap: butt}</style>
 </defs>
 <g id="figure_1">
  <g id="patch_1">
   <path d="M 0 576 
L 432 576 
L 432 0 
L 0 0 
z
" style="fill: #ffffff"/>
  </g>
  <g id="axes_1">
   <g id="patch_2">
    <path d="M 90.65 236.44 
L 395.378182 236.44 
L 395.378182 49.92 
L 90.65 49.92 
z
" style="fill: #ffffff"/>
   </g>
   <g id="PolyCollection_1">
    <defs>
     <path id="m1f138caa8f" d="M 104.501281 -515.460014 
L 104.501281 -515.458508 
L 107.964101 -515.45846 
L 111.426921 -515.425062 
L 114.889742 -503.99842 
L 118.352562 -492.518469 
L 121.815382 -483.005144 
L 125.278202 -473.744491 
L 128.741023 -470.277868 
L 132.203843 -461.403556 
L 135.666663 -467.434996 
L 139.129483 -462.76767 
L 142.592304 -457.974702 
L 146.055124 -456.846159 
L 149.517944 -450.252481 
L 152.980764 -450.674709 
L 156.443585 -449.940812 
L 159.906405 -443.972558 
L 163.369225 -438.477096 
L 166.832045 -441.896532 
L 170.294866 -434.196118 
L 173.757686 -430.469118 
L 177.220506 -420.249269 
L 180.683326 -422.408962 
L 184.146147 -422.209749 
L 187.608967 -425.026595 
L 191.071787 -415.400309 
L 194.534607 -416.341965 
L 197.997428 -428.518196 
L 201.460248 -418.594827 
L 204.923068 -419.975574 
L 208.385888 -410.538313 
L 211.848709 -429.801191 
L 215.311529 -431.859741 
L 218.774349 -416.190347 
L 222.237169 -417.325792 
L 225.69999 -419.40109 
L 229.16281 -417.96358 
L 232.62563 -406.782327 
L 236.08845 -413.029649 
L 239.551271 -421.479116 
L 243.014091 -419.289296 
L 246.476911 -407.672417 
L 249.939731 -405.909728 
L 253.402552 -408.826766 
L 256.865372 -407.308484 
L 260.328192 -406.173891 
L 263.791012 -406.755962 
L 267.253833 -402.022098 
L 270.716653 -405.043285 
L 274.179473 -398.271308 
L 277.642293 -405.76261 
L 281.105114 -402.307195 
L 284.567934 -402.677411 
L 288.030754 -401.045607 
L 291.493574 -404.997618 
L 294.956395 -401.368301 
L 298.419215 -400.343743 
L 301.882035 -404.367107 
L 305.344855 -402.801866 
L 308.807676 -402.974171 
L 312.270496 -402.148575 
L 315.733316 -405.910758 
L 319.196136 -404.633406 
L 322.658957 -402.940923 
L 326.121777 -407.475878 
L 329.584597 -400.352274 
L 333.047417 -397.723663 
L 336.510238 -402.460336 
L 339.973058 -396.852949 
L 343.435878 -399.593821 
L 346.898698 -394.470618 
L 350.361519 -397.74688 
L 353.824339 -397.76712 
L 357.287159 -392.816584 
L 360.749979 -401.200695 
L 364.2128 -403.112628 
L 367.67562 -397.550062 
L 371.13844 -399.421449 
L 374.60126 -399.680717 
L 378.064081 -396.901474 
L 381.526901 -397.275005 
L 381.526901 -412.476118 
L 381.526901 -412.476118 
L 378.064081 -411.385119 
L 374.60126 -410.220724 
L 371.13844 -429.155176 
L 367.67562 -451.690423 
L 364.2128 -434.689943 
L 360.749979 -420.52957 
L 357.287159 -435.164954 
L 353.824339 -422.456723 
L 350.361519 -421.157882 
L 346.898698 -424.293194 
L 343.435878 -417.484268 
L 339.973058 -427.889733 
L 336.510238 -415.306166 
L 333.047417 -416.422912 
L 329.584597 -434.906613 
L 326.121777 -438.529971 
L 322.658957 -432.657905 
L 319.196136 -425.789153 
L 315.733316 -436.570046 
L 312.270496 -439.757878 
L 308.807676 -447.674528 
L 305.344855 -434.395536 
L 301.882035 -431.693566 
L 298.419215 -416.095784 
L 294.956395 -435.357856 
L 291.493574 -424.904515 
L 288.030754 -435.954084 
L 284.567934 -436.733515 
L 281.105114 -435.144482 
L 277.642293 -445.472063 
L 274.179473 -467.521749 
L 270.716653 -420.68305 
L 267.253833 -439.159995 
L 263.791012 -435.797932 
L 260.328192 -446.263195 
L 256.865372 -454.520364 
L 253.402552 -470.788928 
L 249.939731 -438.600766 
L 246.476911 -458.21468 
L 243.014091 -463.771355 
L 239.551271 -465.982181 
L 236.08845 -471.319945 
L 232.62563 -436.20409 
L 229.16281 -452.482576 
L 225.69999 -453.462489 
L 222.237169 -443.638493 
L 218.774349 -441.254002 
L 215.311529 -440.221742 
L 211.848709 -437.1996 
L 208.385888 -437.627631 
L 204.923068 -459.630591 
L 201.460248 -442.931861 
L 197.997428 -464.029997 
L 194.534607 -468.638822 
L 191.071787 -464.193149 
L 187.608967 -463.65829 
L 184.146147 -460.356967 
L 180.683326 -451.376623 
L 177.220506 -480.046605 
L 173.757686 -461.424544 
L 170.294866 -467.451769 
L 166.832045 -470.320449 
L 163.369225 -481.303997 
L 159.906405 -495.36959 
L 156.443585 -513.461262 
L 152.980764 -500.576923 
L 149.517944 -499.570078 
L 146.055124 -494.844284 
L 142.592304 -503.34112 
L 139.129483 -511.252164 
L 135.666663 -511.204799 
L 132.203843 -506.132252 
L 128.741023 -513.695197 
L 125.278202 -503.199881 
L 121.815382 -509.078914 
L 118.352562 -515.669646 
L 114.889742 -514.592883 
L 111.426921 -515.46471 
L 107.964101 -515.459437 
L 104.501281 -515.460014 
z
" style="stroke: #62d643; stroke-opacity: 0.4"/>
    </defs>
    <g clip-path="url(#p8133842376)">
     <use xlink:href="#m1f138caa8f" x="0" y="576" style="fill: #62d643; fill-opacity: 0.4; stroke: #62d643; stroke-opacity: 0.4"/>
    </g>
   </g>
   <g id="PolyCollection_2">
    <defs>
     <path id="m55770cc71e" d="M 104.501281 -515.460014 
L 104.501281 -515.458508 
L 107.964101 -515.457316 
L 111.426921 -515.450007 
L 114.889742 -505.545523 
L 118.352562 -497.384159 
L 121.815382 -483.534204 
L 125.278202 -474.57828 
L 128.741023 -469.049384 
L 132.203843 -465.712516 
L 135.666663 -462.938745 
L 139.129483 -459.03911 
L 142.592304 -461.022704 
L 146.055124 -458.980791 
L 149.517944 -445.272342 
L 152.980764 -446.221732 
L 156.443585 -438.944715 
L 159.906405 -428.464814 
L 163.369225 -426.478265 
L 166.832045 -420.280879 
L 170.294866 -424.345709 
L 173.757686 -425.560533 
L 177.220506 -418.268327 
L 180.683326 -419.167488 
L 184.146147 -415.61286 
L 187.608967 -417.801852 
L 191.071787 -413.931721 
L 194.534607 -414.30675 
L 197.997428 -405.377665 
L 201.460248 -415.503164 
L 204.923068 -409.872512 
L 208.385888 -413.846716 
L 211.848709 -417.867418 
L 215.311529 -407.545375 
L 218.774349 -410.281925 
L 222.237169 -411.773631 
L 225.69999 -403.378266 
L 229.16281 -406.912219 
L 232.62563 -398.704633 
L 236.08845 -401.810137 
L 239.551271 -416.169714 
L 243.014091 -397.043325 
L 246.476911 -395.497134 
L 249.939731 -400.343701 
L 253.402552 -398.093274 
L 256.865372 -381.680978 
L 260.328192 -400.294885 
L 263.791012 -386.410622 
L 267.253833 -385.479322 
L 270.716653 -387.169039 
L 274.179473 -394.770436 
L 277.642293 -387.47721 
L 281.105114 -381.806725 
L 284.567934 -388.689535 
L 288.030754 -377.588299 
L 291.493574 -385.425009 
L 294.956395 -378.444973 
L 298.419215 -393.7621 
L 301.882035 -384.404033 
L 305.344855 -369.296484 
L 308.807676 -386.329716 
L 312.270496 -387.942514 
L 315.733316 -383.643639 
L 319.196136 -379.690969 
L 322.658957 -391.430974 
L 326.121777 -381.075655 
L 329.584597 -381.519649 
L 333.047417 -385.300676 
L 336.510238 -385.150891 
L 339.973058 -385.210721 
L 343.435878 -379.555722 
L 346.898698 -381.926407 
L 350.361519 -379.85214 
L 353.824339 -381.409901 
L 357.287159 -380.987378 
L 360.749979 -383.809738 
L 364.2128 -375.558001 
L 367.67562 -379.998216 
L 371.13844 -382.425318 
L 374.60126 -380.365875 
L 378.064081 -378.702793 
L 381.526901 -377.245649 
L 381.526901 -415.518826 
L 381.526901 -415.518826 
L 378.064081 -403.501013 
L 374.60126 -419.746194 
L 371.13844 -414.632002 
L 367.67562 -414.603874 
L 364.2128 -395.301691 
L 360.749979 -406.652941 
L 357.287159 -399.5568 
L 353.824339 -399.234756 
L 350.361519 -392.61438 
L 346.898698 -392.728667 
L 343.435878 -405.564264 
L 339.973058 -410.266304 
L 336.510238 -403.596912 
L 333.047417 -418.197539 
L 329.584597 -409.776143 
L 326.121777 -424.822051 
L 322.658957 -462.584986 
L 319.196136 -409.673502 
L 315.733316 -409.676149 
L 312.270496 -422.751318 
L 308.807676 -403.693254 
L 305.344855 -397.92466 
L 301.882035 -415.040127 
L 298.419215 -449.84867 
L 294.956395 -444.982967 
L 291.493574 -406.745411 
L 288.030754 -407.088277 
L 284.567934 -400.041844 
L 281.105114 -407.019048 
L 277.642293 -411.962567 
L 274.179473 -402.989005 
L 270.716653 -410.403629 
L 267.253833 -406.881117 
L 263.791012 -419.583114 
L 260.328192 -415.424203 
L 256.865372 -415.697854 
L 253.402552 -418.445791 
L 249.939731 -419.409608 
L 246.476911 -416.09081 
L 243.014091 -420.935298 
L 239.551271 -431.122879 
L 236.08845 -434.098503 
L 232.62563 -439.848846 
L 229.16281 -440.964352 
L 225.69999 -441.125757 
L 222.237169 -427.351453 
L 218.774349 -423.845422 
L 215.311529 -439.857658 
L 211.848709 -438.324628 
L 208.385888 -438.853319 
L 204.923068 -428.274236 
L 201.460248 -451.99488 
L 197.997428 -447.874052 
L 194.534607 -438.439812 
L 191.071787 -442.466439 
L 187.608967 -470.855141 
L 184.146147 -463.731695 
L 180.683326 -481.731228 
L 177.220506 -457.008248 
L 173.757686 -458.3731 
L 170.294866 -462.414891 
L 166.832045 -453.257463 
L 163.369225 -469.213808 
L 159.906405 -456.241719 
L 156.443585 -469.868622 
L 152.980764 -465.767816 
L 149.517944 -473.848236 
L 146.055124 -484.93528 
L 142.592304 -505.139813 
L 139.129483 -520.583835 
L 135.666663 -511.630853 
L 132.203843 -504.247046 
L 128.741023 -497.842361 
L 125.278202 -491.538442 
L 121.815382 -505.853944 
L 118.352562 -515.807847 
L 114.889742 -515.133939 
L 111.426921 -515.463611 
L 107.964101 -515.45944 
L 104.501281 -515.460014 
z
" style="stroke: #3bcf14; stroke-opacity: 0.4"/>
    </defs>
    <g clip-path="url(#p8133842376)">
     <use xlink:href="#m55770cc71e" x="0" y="576" style="fill: #3bcf14; fill-opacity: 0.4; stroke: #3bcf14; stroke-opacity: 0.4"/>
    </g>
   </g>
   <g id="PolyCollection_3">
    <defs>
     <path id="mbccae52d58" d="M 104.501281 -515.460014 
L 104.501281 -515.458508 
L 107.964101 -515.457495 
L 111.426921 -515.448549 
L 114.889742 -511.789977 
L 118.352562 -497.85674 
L 121.815382 -488.112918 
L 125.278202 -482.78019 
L 128.741023 -471.035313 
L 132.203843 -469.16651 
L 135.666663 -463.586898 
L 139.129483 -460.982688 
L 142.592304 -457.60132 
L 146.055124 -452.530472 
L 149.517944 -447.751042 
L 152.980764 -463.386699 
L 156.443585 -433.563138 
L 159.906405 -432.374729 
L 163.369225 -426.595199 
L 166.832045 -420.427863 
L 170.294866 -418.014392 
L 173.757686 -420.041657 
L 177.220506 -411.30113 
L 180.683326 -400.50437 
L 184.146147 -409.797987 
L 187.608967 -408.742848 
L 191.071787 -410.70424 
L 194.534607 -403.707611 
L 197.997428 -395.506166 
L 201.460248 -381.921913 
L 204.923068 -396.247643 
L 208.385888 -401.692267 
L 211.848709 -401.575305 
L 215.311529 -403.55523 
L 218.774349 -400.9126 
L 222.237169 -398.548863 
L 225.69999 -394.737918 
L 229.16281 -396.551882 
L 232.62563 -390.375283 
L 236.08845 -388.136722 
L 239.551271 -386.922632 
L 243.014091 -381.266725 
L 246.476911 -388.392779 
L 249.939731 -383.961864 
L 253.402552 -398.974271 
L 256.865372 -389.573042 
L 260.328192 -383.968774 
L 263.791012 -398.290116 
L 267.253833 -390.353639 
L 270.716653 -388.898097 
L 274.179473 -396.470201 
L 277.642293 -388.284839 
L 281.105114 -385.528964 
L 284.567934 -383.738636 
L 288.030754 -385.796638 
L 291.493574 -385.466406 
L 294.956395 -384.438095 
L 298.419215 -379.288573 
L 301.882035 -383.65275 
L 305.344855 -379.61346 
L 308.807676 -378.289495 
L 312.270496 -376.313537 
L 315.733316 -374.750038 
L 319.196136 -376.879645 
L 322.658957 -378.341931 
L 326.121777 -374.391942 
L 329.584597 -376.057968 
L 333.047417 -377.638267 
L 336.510238 -377.571742 
L 339.973058 -377.349696 
L 343.435878 -377.319381 
L 346.898698 -375.568584 
L 350.361519 -376.318528 
L 353.824339 -373.23699 
L 357.287159 -376.223503 
L 360.749979 -371.852913 
L 364.2128 -373.877007 
L 367.67562 -376.606587 
L 371.13844 -375.555655 
L 374.60126 -366.291238 
L 378.064081 -371.729705 
L 381.526901 -366.824861 
L 381.526901 -379.573026 
L 381.526901 -379.573026 
L 378.064081 -396.049922 
L 374.60126 -394.878061 
L 371.13844 -390.03015 
L 367.67562 -398.485185 
L 364.2128 -393.099117 
L 360.749979 -402.380849 
L 357.287159 -409.985698 
L 353.824339 -459.703895 
L 350.361519 -409.622177 
L 346.898698 -478.4121 
L 343.435878 -464.590391 
L 339.973058 -470.003497 
L 336.510238 -393.109111 
L 333.047417 -392.337418 
L 329.584597 -406.492802 
L 326.121777 -436.918446 
L 322.658957 -421.806875 
L 319.196136 -434.306398 
L 315.733316 -398.990627 
L 312.270496 -391.679989 
L 308.807676 -395.607942 
L 305.344855 -385.521496 
L 301.882035 -405.213748 
L 298.419215 -402.348063 
L 294.956395 -398.234732 
L 291.493574 -405.789972 
L 288.030754 -415.813152 
L 284.567934 -406.228279 
L 281.105114 -408.686926 
L 277.642293 -408.469271 
L 274.179473 -409.999165 
L 270.716653 -409.433676 
L 267.253833 -409.329408 
L 263.791012 -418.761995 
L 260.328192 -412.935703 
L 256.865372 -424.037975 
L 253.402552 -441.529869 
L 249.939731 -420.930515 
L 246.476911 -446.565567 
L 243.014091 -435.048291 
L 239.551271 -421.603798 
L 236.08845 -420.522981 
L 232.62563 -436.630431 
L 229.16281 -435.578792 
L 225.69999 -465.998494 
L 222.237169 -453.418713 
L 218.774349 -486.264658 
L 215.311529 -491.14414 
L 211.848709 -440.339303 
L 208.385888 -457.542959 
L 204.923068 -453.538331 
L 201.460248 -460.319508 
L 197.997428 -449.451874 
L 194.534607 -449.633465 
L 191.071787 -456.919663 
L 187.608967 -479.009744 
L 184.146147 -490.630111 
L 180.683326 -462.16995 
L 177.220506 -468.096795 
L 173.757686 -480.396952 
L 170.294866 -555.100711 
L 166.832045 -474.604984 
L 163.369225 -491.549202 
L 159.906405 -495.163362 
L 156.443585 -494.535494 
L 152.980764 -494.746547 
L 149.517944 -503.813704 
L 146.055124 -510.876046 
L 142.592304 -513.991578 
L 139.129483 -510.156373 
L 135.666663 -504.937033 
L 132.203843 -497.920096 
L 128.741023 -502.003842 
L 125.278202 -505.092675 
L 121.815382 -514.252613 
L 118.352562 -513.16234 
L 114.889742 -515.434031 
L 111.426921 -515.463397 
L 107.964101 -515.459467 
L 104.501281 -515.460014 
z
" style="stroke: #1d8a00; stroke-opacity: 0.4"/>
    </defs>
    <g clip-path="url(#p8133842376)">
     <use xlink:href="#mbccae52d58" x="0" y="576" style="fill: #1d8a00; fill-opacity: 0.4; stroke: #1d8a00; stroke-opacity: 0.4"/>
    </g>
   </g>
   <g id="PolyCollection_4">
    <defs>
     <path id="m9e4dc706f3" d="M 104.501281 -515.460014 
L 104.501281 -515.458508 
L 107.964101 -515.457458 
L 111.426921 -515.451605 
L 114.889742 -511.618253 
L 118.352562 -501.781566 
L 121.815382 -489.591873 
L 125.278202 -479.67278 
L 128.741023 -436.030845 
L 132.203843 -423.652397 
L 135.666663 -408.885055 
L 139.129483 -415.798441 
L 142.592304 -415.107156 
L 146.055124 -411.276446 
L 149.517944 -413.718011 
L 152.980764 -412.2996 
L 156.443585 -402.030221 
L 159.906405 -412.762268 
L 163.369225 -431.900087 
L 166.832045 -410.356474 
L 170.294866 -421.594908 
L 173.757686 -428.385825 
L 177.220506 -447.875346 
L 180.683326 -463.488265 
L 184.146147 -456.037036 
L 187.608967 -437.418952 
L 191.071787 -432.031833 
L 194.534607 -423.886236 
L 197.997428 -415.480659 
L 201.460248 -421.714125 
L 204.923068 -414.199085 
L 208.385888 -408.939024 
L 211.848709 -407.24803 
L 215.311529 -405.676502 
L 218.774349 -412.361213 
L 222.237169 -411.456464 
L 225.69999 -408.361866 
L 229.16281 -403.925413 
L 232.62563 -403.223026 
L 236.08845 -413.360045 
L 239.551271 -416.72728 
L 243.014091 -428.741259 
L 246.476911 -436.106642 
L 249.939731 -446.26126 
L 253.402552 -435.137957 
L 256.865372 -431.24567 
L 260.328192 -432.489757 
L 263.791012 -433.803959 
L 267.253833 -421.503993 
L 270.716653 -431.659182 
L 274.179473 -430.600455 
L 277.642293 -406.293291 
L 281.105114 -397.495154 
L 284.567934 -428.175497 
L 288.030754 -406.686153 
L 291.493574 -400.558366 
L 294.956395 -394.609101 
L 298.419215 -404.840644 
L 301.882035 -409.475284 
L 305.344855 -419.417806 
L 308.807676 -396.951993 
L 312.270496 -396.383402 
L 315.733316 -404.869335 
L 319.196136 -389.290332 
L 322.658957 -400.460626 
L 326.121777 -414.464922 
L 329.584597 -407.89666 
L 333.047417 -390.482849 
L 336.510238 -381.926994 
L 339.973058 -386.707755 
L 343.435878 -380.731152 
L 346.898698 -376.597917 
L 350.361519 -374.851426 
L 353.824339 -376.900355 
L 357.287159 -389.588623 
L 360.749979 -383.075791 
L 364.2128 -387.404852 
L 367.67562 -394.18308 
L 371.13844 -400.512549 
L 374.60126 -395.151963 
L 378.064081 -395.81149 
L 381.526901 -385.235683 
L 381.526901 -455.879804 
L 381.526901 -455.879804 
L 378.064081 -466.934139 
L 374.60126 -484.759239 
L 371.13844 -476.840437 
L 367.67562 -461.996318 
L 364.2128 -476.39997 
L 360.749979 -454.110916 
L 357.287159 -492.27878 
L 353.824339 -465.836342 
L 350.361519 -464.505018 
L 346.898698 -463.235235 
L 343.435878 -463.482822 
L 339.973058 -472.423057 
L 336.510238 -472.162364 
L 333.047417 -478.135062 
L 329.584597 -477.559542 
L 326.121777 -485.187947 
L 322.658957 -476.455596 
L 319.196136 -480.075211 
L 315.733316 -486.765168 
L 312.270496 -480.349236 
L 308.807676 -488.583542 
L 305.344855 -473.782419 
L 301.882035 -487.82738 
L 298.419215 -487.823892 
L 294.956395 -482.883883 
L 291.493574 -491.607394 
L 288.030754 -489.487351 
L 284.567934 -498.398277 
L 281.105114 -497.002099 
L 277.642293 -498.048889 
L 274.179473 -507.988426 
L 270.716653 -500.591087 
L 267.253833 -492.81642 
L 263.791012 -495.494738 
L 260.328192 -495.193569 
L 256.865372 -503.65645 
L 253.402552 -506.355566 
L 249.939731 -483.46704 
L 246.476911 -486.696215 
L 243.014091 -484.793696 
L 239.551271 -522.183109 
L 236.08845 -485.012705 
L 232.62563 -490.813369 
L 229.16281 -494.466502 
L 225.69999 -491.142724 
L 222.237169 -501.166046 
L 218.774349 -526.716001 
L 215.311529 -490.843484 
L 211.848709 -501.504679 
L 208.385888 -511.49849 
L 204.923068 -511.583461 
L 201.460248 -515.420557 
L 197.997428 -515.750853 
L 194.534607 -518.50962 
L 191.071787 -548.609804 
L 187.608967 -503.128681 
L 184.146147 -508.510024 
L 180.683326 -501.242482 
L 177.220506 -514.837422 
L 173.757686 -497.807033 
L 170.294866 -497.886395 
L 166.832045 -501.777736 
L 163.369225 -508.964708 
L 159.906405 -527.081485 
L 156.443585 -485.86636 
L 152.980764 -497.534358 
L 149.517944 -506.225669 
L 146.055124 -503.636974 
L 142.592304 -467.724314 
L 139.129483 -480.060427 
L 135.666663 -493.474725 
L 132.203843 -495.594859 
L 128.741023 -507.485636 
L 125.278202 -517.353976 
L 121.815382 -515.302071 
L 118.352562 -516.097564 
L 114.889742 -515.441573 
L 111.426921 -515.463784 
L 107.964101 -515.459576 
L 104.501281 -515.460014 
z
" style="stroke: #156400; stroke-opacity: 0.4"/>
    </defs>
    <g clip-path="url(#p8133842376)">
     <use xlink:href="#m9e4dc706f3" x="0" y="576" style="fill: #156400; fill-opacity: 0.4; stroke: #156400; stroke-opacity: 0.4"/>
    </g>
   </g>
   <g id="matplotlib.axis_1">
    <g id="xtick_1">
     <g id="line2d_1">
      <defs>
       <path id="mcda5fe0afc" d="M 0 0 
L 0 3.5 
" style="stroke: #000000; stroke-width: 0.8"/>
      </defs>
      <g>
       <use xlink:href="#mcda5fe0afc" x="104.501281" y="236.44" style="stroke: #000000; stroke-width: 0.8"/>
      </g>
     </g>
     <g id="text_1">
      <!-- 0 -->
      <g transform="translate(97.502531 260.156563) scale(0.22 -0.22)">
       <defs>
        <path id="DejaVuSans-30" d="M 2034 4250 
Q 1547 4250 1301 3770 
Q 1056 3291 1056 2328 
Q 1056 1369 1301 889 
Q 1547 409 2034 409 
Q 2525 409 2770 889 
Q 3016 1369 3016 2328 
Q 3016 3291 2770 3770 
Q 2525 4250 2034 4250 
z
M 2034 4750 
Q 2819 4750 3233 4129 
Q 3647 3509 3647 2328 
Q 3647 1150 3233 529 
Q 2819 -91 2034 -91 
Q 1250 -91 836 529 
Q 422 1150 422 2328 
Q 422 3509 836 4129 
Q 1250 4750 2034 4750 
z
" transform="scale(0.015625)"/>
       </defs>
       <use xlink:href="#DejaVuSans-30"/>
      </g>
     </g>
    </g>
    <g id="xtick_2">
     <g id="line2d_2">
      <g>
       <use xlink:href="#mcda5fe0afc" x="243.014091" y="236.44" style="stroke: #000000; stroke-width: 0.8"/>
      </g>
     </g>
     <g id="text_2">
      <!-- 1000 -->
      <g transform="translate(215.019091 260.156563) scale(0.22 -0.22)">
       <defs>
        <path id="DejaVuSans-31" d="M 794 531 
L 1825 531 
L 1825 4091 
L 703 3866 
L 703 4441 
L 1819 4666 
L 2450 4666 
L 2450 531 
L 3481 531 
L 3481 0 
L 794 0 
L 794 531 
z
" transform="scale(0.015625)"/>
       </defs>
       <use xlink:href="#DejaVuSans-31"/>
       <use xlink:href="#DejaVuSans-30" x="63.623047"/>
       <use xlink:href="#DejaVuSans-30" x="127.246094"/>
       <use xlink:href="#DejaVuSans-30" x="190.869141"/>
      </g>
     </g>
    </g>
    <g id="xtick_3">
     <g id="line2d_3">
      <g>
       <use xlink:href="#mcda5fe0afc" x="381.526901" y="236.44" style="stroke: #000000; stroke-width: 0.8"/>
      </g>
     </g>
     <g id="text_3">
      <!-- 2000 -->
      <g transform="translate(353.531901 260.156563) scale(0.22 -0.22)">
       <defs>
        <path id="DejaVuSans-32" d="M 1228 531 
L 3431 531 
L 3431 0 
L 469 0 
L 469 531 
Q 828 903 1448 1529 
Q 2069 2156 2228 2338 
Q 2531 2678 2651 2914 
Q 2772 3150 2772 3378 
Q 2772 3750 2511 3984 
Q 2250 4219 1831 4219 
Q 1534 4219 1204 4116 
Q 875 4013 500 3803 
L 500 4441 
Q 881 4594 1212 4672 
Q 1544 4750 1819 4750 
Q 2544 4750 2975 4387 
Q 3406 4025 3406 3419 
Q 3406 3131 3298 2873 
Q 3191 2616 2906 2266 
Q 2828 2175 2409 1742 
Q 1991 1309 1228 531 
z
" transform="scale(0.015625)"/>
       </defs>
       <use xlink:href="#DejaVuSans-32"/>
       <use xlink:href="#DejaVuSans-30" x="63.623047"/>
       <use xlink:href="#DejaVuSans-30" x="127.246094"/>
       <use xlink:href="#DejaVuSans-30" x="190.869141"/>
      </g>
     </g>
    </g>
    <g id="text_4">
     <!-- Iterations -->
     <g transform="translate(190.624872 285.448438) scale(0.22 -0.22)">
      <defs>
       <path id="DejaVuSans-49" d="M 628 4666 
L 1259 4666 
L 1259 0 
L 628 0 
L 628 4666 
z
" transform="scale(0.015625)"/>
       <path id="DejaVuSans-74" d="M 1172 4494 
L 1172 3500 
L 2356 3500 
L 2356 3053 
L 1172 3053 
L 1172 1153 
Q 1172 725 1289 603 
Q 1406 481 1766 481 
L 2356 481 
L 2356 0 
L 1766 0 
Q 1100 0 847 248 
Q 594 497 594 1153 
L 594 3053 
L 172 3053 
L 172 3500 
L 594 3500 
L 594 4494 
L 1172 4494 
z
" transform="scale(0.015625)"/>
       <path id="DejaVuSans-65" d="M 3597 1894 
L 3597 1613 
L 953 1613 
Q 991 1019 1311 708 
Q 1631 397 2203 397 
Q 2534 397 2845 478 
Q 3156 559 3463 722 
L 3463 178 
Q 3153 47 2828 -22 
Q 2503 -91 2169 -91 
Q 1331 -91 842 396 
Q 353 884 353 1716 
Q 353 2575 817 3079 
Q 1281 3584 2069 3584 
Q 2775 3584 3186 3129 
Q 3597 2675 3597 1894 
z
M 3022 2063 
Q 3016 2534 2758 2815 
Q 2500 3097 2075 3097 
Q 1594 3097 1305 2825 
Q 1016 2553 972 2059 
L 3022 2063 
z
" transform="scale(0.015625)"/>
       <path id="DejaVuSans-72" d="M 2631 2963 
Q 2534 3019 2420 3045 
Q 2306 3072 2169 3072 
Q 1681 3072 1420 2755 
Q 1159 2438 1159 1844 
L 1159 0 
L 581 0 
L 581 3500 
L 1159 3500 
L 1159 2956 
Q 1341 3275 1631 3429 
Q 1922 3584 2338 3584 
Q 2397 3584 2469 3576 
Q 2541 3569 2628 3553 
L 2631 2963 
z
" transform="scale(0.015625)"/>
       <path id="DejaVuSans-61" d="M 2194 1759 
Q 1497 1759 1228 1600 
Q 959 1441 959 1056 
Q 959 750 1161 570 
Q 1363 391 1709 391 
Q 2188 391 2477 730 
Q 2766 1069 2766 1631 
L 2766 1759 
L 2194 1759 
z
M 3341 1997 
L 3341 0 
L 2766 0 
L 2766 531 
Q 2569 213 2275 61 
Q 1981 -91 1556 -91 
Q 1019 -91 701 211 
Q 384 513 384 1019 
Q 384 1609 779 1909 
Q 1175 2209 1959 2209 
L 2766 2209 
L 2766 2266 
Q 2766 2663 2505 2880 
Q 2244 3097 1772 3097 
Q 1472 3097 1187 3025 
Q 903 2953 641 2809 
L 641 3341 
Q 956 3463 1253 3523 
Q 1550 3584 1831 3584 
Q 2591 3584 2966 3190 
Q 3341 2797 3341 1997 
z
" transform="scale(0.015625)"/>
       <path id="DejaVuSans-69" d="M 603 3500 
L 1178 3500 
L 1178 0 
L 603 0 
L 603 3500 
z
M 603 4863 
L 1178 4863 
L 1178 4134 
L 603 4134 
L 603 4863 
z
" transform="scale(0.015625)"/>
       <path id="DejaVuSans-6f" d="M 1959 3097 
Q 1497 3097 1228 2736 
Q 959 2375 959 1747 
Q 959 1119 1226 758 
Q 1494 397 1959 397 
Q 2419 397 2687 759 
Q 2956 1122 2956 1747 
Q 2956 2369 2687 2733 
Q 2419 3097 1959 3097 
z
M 1959 3584 
Q 2709 3584 3137 3096 
Q 3566 2609 3566 1747 
Q 3566 888 3137 398 
Q 2709 -91 1959 -91 
Q 1206 -91 779 398 
Q 353 888 353 1747 
Q 353 2609 779 3096 
Q 1206 3584 1959 3584 
z
" transform="scale(0.015625)"/>
       <path id="DejaVuSans-6e" d="M 3513 2113 
L 3513 0 
L 2938 0 
L 2938 2094 
Q 2938 2591 2744 2837 
Q 2550 3084 2163 3084 
Q 1697 3084 1428 2787 
Q 1159 2491 1159 1978 
L 1159 0 
L 581 0 
L 581 3500 
L 1159 3500 
L 1159 2956 
Q 1366 3272 1645 3428 
Q 1925 3584 2291 3584 
Q 2894 3584 3203 3211 
Q 3513 2838 3513 2113 
z
" transform="scale(0.015625)"/>
       <path id="DejaVuSans-73" d="M 2834 3397 
L 2834 2853 
Q 2591 2978 2328 3040 
Q 2066 3103 1784 3103 
Q 1356 3103 1142 2972 
Q 928 2841 928 2578 
Q 928 2378 1081 2264 
Q 1234 2150 1697 2047 
L 1894 2003 
Q 2506 1872 2764 1633 
Q 3022 1394 3022 966 
Q 3022 478 2636 193 
Q 2250 -91 1575 -91 
Q 1294 -91 989 -36 
Q 684 19 347 128 
L 347 722 
Q 666 556 975 473 
Q 1284 391 1588 391 
Q 1994 391 2212 530 
Q 2431 669 2431 922 
Q 2431 1156 2273 1281 
Q 2116 1406 1581 1522 
L 1381 1569 
Q 847 1681 609 1914 
Q 372 2147 372 2553 
Q 372 3047 722 3315 
Q 1072 3584 1716 3584 
Q 2034 3584 2315 3537 
Q 2597 3491 2834 3397 
z
" transform="scale(0.015625)"/>
      </defs>
      <use xlink:href="#DejaVuSans-49"/>
      <use xlink:href="#DejaVuSans-74" x="29.492188"/>
      <use xlink:href="#DejaVuSans-65" x="68.701172"/>
      <use xlink:href="#DejaVuSans-72" x="130.224609"/>
      <use xlink:href="#DejaVuSans-61" x="171.337891"/>
      <use xlink:href="#DejaVuSans-74" x="232.617188"/>
      <use xlink:href="#DejaVuSans-69" x="271.826172"/>
      <use xlink:href="#DejaVuSans-6f" x="299.609375"/>
      <use xlink:href="#DejaVuSans-6e" x="360.791016"/>
      <use xlink:href="#DejaVuSans-73" x="424.169922"/>
     </g>
    </g>
   </g>
   <g id="matplotlib.axis_2">
    <g id="ytick_1">
     <g id="line2d_4">
      <defs>
       <path id="m53b795016c" d="M 0 0 
L -3.5 0 
" style="stroke: #000000; stroke-width: 0.8"/>
      </defs>
      <g>
       <use xlink:href="#m53b795016c" x="90.65" y="211.063129" style="stroke: #000000; stroke-width: 0.8"/>
      </g>
     </g>
     <g id="text_5">
      <!-- 0.1 -->
      <g transform="translate(48.663125 219.421411) scale(0.22 -0.22)">
       <defs>
        <path id="DejaVuSans-2e" d="M 684 794 
L 1344 794 
L 1344 0 
L 684 0 
L 684 794 
z
" transform="scale(0.015625)"/>
       </defs>
       <use xlink:href="#DejaVuSans-30"/>
       <use xlink:href="#DejaVuSans-2e" x="63.623047"/>
       <use xlink:href="#DejaVuSans-31" x="95.410156"/>
      </g>
     </g>
    </g>
    <g id="ytick_2">
     <g id="line2d_5">
      <g>
       <use xlink:href="#m53b795016c" x="90.65" y="185.686259" style="stroke: #000000; stroke-width: 0.8"/>
      </g>
     </g>
     <g id="text_6">
      <!-- 0.2 -->
      <g transform="translate(48.663125 194.04454) scale(0.22 -0.22)">
       <use xlink:href="#DejaVuSans-30"/>
       <use xlink:href="#DejaVuSans-2e" x="63.623047"/>
       <use xlink:href="#DejaVuSans-32" x="95.410156"/>
      </g>
     </g>
    </g>
    <g id="ytick_3">
     <g id="line2d_6">
      <g>
       <use xlink:href="#m53b795016c" x="90.65" y="160.309388" style="stroke: #000000; stroke-width: 0.8"/>
      </g>
     </g>
     <g id="text_7">
      <!-- 0.3 -->
      <g transform="translate(48.663125 168.667669) scale(0.22 -0.22)">
       <defs>
        <path id="DejaVuSans-33" d="M 2597 2516 
Q 3050 2419 3304 2112 
Q 3559 1806 3559 1356 
Q 3559 666 3084 287 
Q 2609 -91 1734 -91 
Q 1441 -91 1130 -33 
Q 819 25 488 141 
L 488 750 
Q 750 597 1062 519 
Q 1375 441 1716 441 
Q 2309 441 2620 675 
Q 2931 909 2931 1356 
Q 2931 1769 2642 2001 
Q 2353 2234 1838 2234 
L 1294 2234 
L 1294 2753 
L 1863 2753 
Q 2328 2753 2575 2939 
Q 2822 3125 2822 3475 
Q 2822 3834 2567 4026 
Q 2313 4219 1838 4219 
Q 1578 4219 1281 4162 
Q 984 4106 628 3988 
L 628 4550 
Q 988 4650 1302 4700 
Q 1616 4750 1894 4750 
Q 2613 4750 3031 4423 
Q 3450 4097 3450 3541 
Q 3450 3153 3228 2886 
Q 3006 2619 2597 2516 
z
" transform="scale(0.015625)"/>
       </defs>
       <use xlink:href="#DejaVuSans-30"/>
       <use xlink:href="#DejaVuSans-2e" x="63.623047"/>
       <use xlink:href="#DejaVuSans-33" x="95.410156"/>
      </g>
     </g>
    </g>
    <g id="ytick_4">
     <g id="line2d_7">
      <g>
       <use xlink:href="#m53b795016c" x="90.65" y="134.932517" style="stroke: #000000; stroke-width: 0.8"/>
      </g>
     </g>
     <g id="text_8">
      <!-- 0.4 -->
      <g transform="translate(48.663125 143.290798) scale(0.22 -0.22)">
       <defs>
        <path id="DejaVuSans-34" d="M 2419 4116 
L 825 1625 
L 2419 1625 
L 2419 4116 
z
M 2253 4666 
L 3047 4666 
L 3047 1625 
L 3713 1625 
L 3713 1100 
L 3047 1100 
L 3047 0 
L 2419 0 
L 2419 1100 
L 313 1100 
L 313 1709 
L 2253 4666 
z
" transform="scale(0.015625)"/>
       </defs>
       <use xlink:href="#DejaVuSans-30"/>
       <use xlink:href="#DejaVuSans-2e" x="63.623047"/>
       <use xlink:href="#DejaVuSans-34" x="95.410156"/>
      </g>
     </g>
    </g>
    <g id="ytick_5">
     <g id="line2d_8">
      <g>
       <use xlink:href="#m53b795016c" x="90.65" y="109.555646" style="stroke: #000000; stroke-width: 0.8"/>
      </g>
     </g>
     <g id="text_9">
      <!-- 0.5 -->
      <g transform="translate(48.663125 117.913928) scale(0.22 -0.22)">
       <defs>
        <path id="DejaVuSans-35" d="M 691 4666 
L 3169 4666 
L 3169 4134 
L 1269 4134 
L 1269 2991 
Q 1406 3038 1543 3061 
Q 1681 3084 1819 3084 
Q 2600 3084 3056 2656 
Q 3513 2228 3513 1497 
Q 3513 744 3044 326 
Q 2575 -91 1722 -91 
Q 1428 -91 1123 -41 
Q 819 9 494 109 
L 494 744 
Q 775 591 1075 516 
Q 1375 441 1709 441 
Q 2250 441 2565 725 
Q 2881 1009 2881 1497 
Q 2881 1984 2565 2268 
Q 2250 2553 1709 2553 
Q 1456 2553 1204 2497 
Q 953 2441 691 2322 
L 691 4666 
z
" transform="scale(0.015625)"/>
       </defs>
       <use xlink:href="#DejaVuSans-30"/>
       <use xlink:href="#DejaVuSans-2e" x="63.623047"/>
       <use xlink:href="#DejaVuSans-35" x="95.410156"/>
      </g>
     </g>
    </g>
    <g id="ytick_6">
     <g id="line2d_9">
      <g>
       <use xlink:href="#m53b795016c" x="90.65" y="84.178776" style="stroke: #000000; stroke-width: 0.8"/>
      </g>
     </g>
     <g id="text_10">
      <!-- 0.6 -->
      <g transform="translate(48.663125 92.537057) scale(0.22 -0.22)">
       <defs>
        <path id="DejaVuSans-36" d="M 2113 2584 
Q 1688 2584 1439 2293 
Q 1191 2003 1191 1497 
Q 1191 994 1439 701 
Q 1688 409 2113 409 
Q 2538 409 2786 701 
Q 3034 994 3034 1497 
Q 3034 2003 2786 2293 
Q 2538 2584 2113 2584 
z
M 3366 4563 
L 3366 3988 
Q 3128 4100 2886 4159 
Q 2644 4219 2406 4219 
Q 1781 4219 1451 3797 
Q 1122 3375 1075 2522 
Q 1259 2794 1537 2939 
Q 1816 3084 2150 3084 
Q 2853 3084 3261 2657 
Q 3669 2231 3669 1497 
Q 3669 778 3244 343 
Q 2819 -91 2113 -91 
Q 1303 -91 875 529 
Q 447 1150 447 2328 
Q 447 3434 972 4092 
Q 1497 4750 2381 4750 
Q 2619 4750 2861 4703 
Q 3103 4656 3366 4563 
z
" transform="scale(0.015625)"/>
       </defs>
       <use xlink:href="#DejaVuSans-30"/>
       <use xlink:href="#DejaVuSans-2e" x="63.623047"/>
       <use xlink:href="#DejaVuSans-36" x="95.410156"/>
      </g>
     </g>
    </g>
    <g id="ytick_7">
     <g id="line2d_10">
      <g>
       <use xlink:href="#m53b795016c" x="90.65" y="58.801905" style="stroke: #000000; stroke-width: 0.8"/>
      </g>
     </g>
     <g id="text_11">
      <!-- 0.7 -->
      <g transform="translate(48.663125 67.160186) scale(0.22 -0.22)">
       <defs>
        <path id="DejaVuSans-37" d="M 525 4666 
L 3525 4666 
L 3525 4397 
L 1831 0 
L 1172 0 
L 2766 4134 
L 525 4134 
L 525 4666 
z
" transform="scale(0.015625)"/>
       </defs>
       <use xlink:href="#DejaVuSans-30"/>
       <use xlink:href="#DejaVuSans-2e" x="63.623047"/>
       <use xlink:href="#DejaVuSans-37" x="95.410156"/>
      </g>
     </g>
    </g>
    <g id="text_12">
     <!-- Cross-Entropy -->
     <g transform="translate(40.087813 220.02875) rotate(-90) scale(0.22 -0.22)">
      <defs>
       <path id="DejaVuSans-43" d="M 4122 4306 
L 4122 3641 
Q 3803 3938 3442 4084 
Q 3081 4231 2675 4231 
Q 1875 4231 1450 3742 
Q 1025 3253 1025 2328 
Q 1025 1406 1450 917 
Q 1875 428 2675 428 
Q 3081 428 3442 575 
Q 3803 722 4122 1019 
L 4122 359 
Q 3791 134 3420 21 
Q 3050 -91 2638 -91 
Q 1578 -91 968 557 
Q 359 1206 359 2328 
Q 359 3453 968 4101 
Q 1578 4750 2638 4750 
Q 3056 4750 3426 4639 
Q 3797 4528 4122 4306 
z
" transform="scale(0.015625)"/>
       <path id="DejaVuSans-2d" d="M 313 2009 
L 1997 2009 
L 1997 1497 
L 313 1497 
L 313 2009 
z
" transform="scale(0.015625)"/>
       <path id="DejaVuSans-45" d="M 628 4666 
L 3578 4666 
L 3578 4134 
L 1259 4134 
L 1259 2753 
L 3481 2753 
L 3481 2222 
L 1259 2222 
L 1259 531 
L 3634 531 
L 3634 0 
L 628 0 
L 628 4666 
z
" transform="scale(0.015625)"/>
       <path id="DejaVuSans-70" d="M 1159 525 
L 1159 -1331 
L 581 -1331 
L 581 3500 
L 1159 3500 
L 1159 2969 
Q 1341 3281 1617 3432 
Q 1894 3584 2278 3584 
Q 2916 3584 3314 3078 
Q 3713 2572 3713 1747 
Q 3713 922 3314 415 
Q 2916 -91 2278 -91 
Q 1894 -91 1617 61 
Q 1341 213 1159 525 
z
M 3116 1747 
Q 3116 2381 2855 2742 
Q 2594 3103 2138 3103 
Q 1681 3103 1420 2742 
Q 1159 2381 1159 1747 
Q 1159 1113 1420 752 
Q 1681 391 2138 391 
Q 2594 391 2855 752 
Q 3116 1113 3116 1747 
z
" transform="scale(0.015625)"/>
       <path id="DejaVuSans-79" d="M 2059 -325 
Q 1816 -950 1584 -1140 
Q 1353 -1331 966 -1331 
L 506 -1331 
L 506 -850 
L 844 -850 
Q 1081 -850 1212 -737 
Q 1344 -625 1503 -206 
L 1606 56 
L 191 3500 
L 800 3500 
L 1894 763 
L 2988 3500 
L 3597 3500 
L 2059 -325 
z
" transform="scale(0.015625)"/>
      </defs>
      <use xlink:href="#DejaVuSans-43"/>
      <use xlink:href="#DejaVuSans-72" x="69.824219"/>
      <use xlink:href="#DejaVuSans-6f" x="108.6875"/>
      <use xlink:href="#DejaVuSans-73" x="169.869141"/>
      <use xlink:href="#DejaVuSans-73" x="221.96875"/>
      <use xlink:href="#DejaVuSans-2d" x="274.068359"/>
      <use xlink:href="#DejaVuSans-45" x="310.152344"/>
      <use xlink:href="#DejaVuSans-6e" x="373.335938"/>
      <use xlink:href="#DejaVuSans-74" x="436.714844"/>
      <use xlink:href="#DejaVuSans-72" x="475.923828"/>
      <use xlink:href="#DejaVuSans-6f" x="514.787109"/>
      <use xlink:href="#DejaVuSans-70" x="575.96875"/>
      <use xlink:href="#DejaVuSans-79" x="639.445312"/>
     </g>
    </g>
   </g>
   <g id="line2d_11">
    <path d="M 104.501281 60.540848 
L 107.964101 60.540948 
L 111.426921 60.548374 
L 114.889742 66.639274 
L 118.352562 70.443245 
L 121.815382 81.340275 
L 125.278202 88.856152 
L 128.741023 88.827824 
L 132.203843 93.720613 
L 135.666663 86.023094 
L 139.129483 89.162631 
L 142.592304 96.513373 
L 146.055124 99.01009 
L 149.517944 102.801653 
L 152.980764 102.952248 
L 156.443585 95.904484 
L 159.906405 101.245691 
L 163.369225 114.971671 
L 166.832045 122.903717 
L 170.294866 127.360944 
L 173.757686 131.771603 
L 177.220506 132.854145 
L 180.683326 141.084241 
L 184.146147 138.767349 
L 187.608967 131.379479 
L 191.071787 137.546425 
L 194.534607 141.073213 
L 197.997428 134.004929 
L 201.460248 146.283357 
L 204.923068 137.471502 
L 208.385888 149.270059 
L 211.848709 142.840733 
L 215.311529 140.872852 
L 218.774349 146.951507 
L 222.237169 147.764971 
L 225.69999 143.680178 
L 229.16281 142.512272 
L 232.62563 153.074845 
L 236.08845 143.171664 
L 239.551271 135.34857 
L 243.014091 133.739505 
L 246.476911 147.771206 
L 249.939731 151.794725 
L 253.402552 139.902891 
L 256.865372 150.52782 
L 260.328192 153.274904 
L 263.791012 155.37955 
L 267.253833 157.603405 
L 270.716653 160.646108 
L 274.179473 152.07531 
L 277.642293 155.519267 
L 281.105114 158.923553 
L 284.567934 162.174406 
L 288.030754 160.525163 
L 291.493574 160.985308 
L 294.956395 162.241013 
L 298.419215 166.490931 
L 301.882035 162.972833 
L 305.344855 158.573329 
L 308.807676 154.046459 
L 312.270496 156.890293 
L 315.733316 158.00332 
L 319.196136 161.184276 
L 322.658957 160.848571 
L 326.121777 157.033304 
L 329.584597 161.02325 
L 333.047417 169.391296 
L 336.510238 166.008555 
L 339.973058 164.211542 
L 343.435878 168.720211 
L 346.898698 168.289043 
L 350.361519 167.788761 
L 353.824339 169.30703 
L 357.287159 167.304586 
L 360.749979 167.764057 
L 364.2128 162.939719 
L 367.67562 161.101645 
L 371.13844 168.137223 
L 374.60126 171.430335 
L 378.064081 171.787777 
L 381.526901 171.10436 
" clip-path="url(#p8133842376)" style="fill: none; stroke: #62d643; stroke-width: 1.5; stroke-linecap: square"/>
   </g>
   <g id="line2d_12">
    <path d="M 104.501281 60.540848 
L 107.964101 60.54125 
L 111.426921 60.54207 
L 114.889742 64.967136 
L 118.352562 66.80865 
L 121.815382 81.100725 
L 125.278202 91.312853 
L 128.741023 96.817308 
L 132.203843 95.342895 
L 135.666663 89.737148 
L 139.129483 87.123317 
L 142.592304 98.607515 
L 146.055124 106.432726 
L 149.517944 116.571914 
L 152.980764 122.305899 
L 156.443585 126.909472 
L 159.906405 137.500786 
L 163.369225 130.482636 
L 166.832045 136.264694 
L 170.294866 132.446871 
L 173.757686 132.970918 
L 177.220506 136.55777 
L 180.683326 136.351693 
L 184.146147 139.435478 
L 187.608967 139.43392 
L 191.071787 149.240662 
L 194.534607 151.261906 
L 197.997428 150.185724 
L 201.460248 142.914206 
L 204.923068 158.708008 
L 208.385888 153.965119 
L 211.848709 148.250025 
L 215.311529 151.739115 
L 218.774349 158.105423 
L 222.237169 156.011555 
L 225.69999 156.250574 
L 229.16281 156.653437 
L 232.62563 157.814957 
L 236.08845 160.951168 
L 239.551271 154.187468 
L 243.014091 167.568361 
L 246.476911 169.127341 
L 249.939731 164.904257 
L 253.402552 168.297765 
L 256.865372 175.3252 
L 260.328192 167.035225 
L 263.791012 171.53013 
L 267.253833 177.743758 
L 270.716653 179.485114 
L 274.179473 177.025133 
L 277.642293 176.894014 
L 281.105114 182.612923 
L 284.567934 180.601623 
L 288.030754 182.643191 
L 291.493574 182.081091 
L 294.956395 175.267055 
L 298.419215 163.511048 
L 301.882035 176.397448 
L 305.344855 189.031918 
L 308.807676 180.56209 
L 312.270496 175.155761 
L 315.733316 178.705585 
L 319.196136 184.150305 
L 322.658957 160.587554 
L 326.121777 172.173794 
L 329.584597 182.620299 
L 333.047417 174.529043 
L 336.510238 181.664979 
L 339.973058 178.539803 
L 343.435878 187.249349 
L 346.898698 188.973156 
L 350.361519 190.125416 
L 353.824339 186.580735 
L 357.287159 188.510056 
L 360.749979 182.639717 
L 364.2128 190.732224 
L 367.67562 177.736017 
L 371.13844 175.624047 
L 374.60126 180.288633 
L 378.064081 185.364354 
L 381.526901 182.303016 
" clip-path="url(#p8133842376)" style="fill: none; stroke: #3bcf14; stroke-width: 1.5; stroke-linecap: square"/>
   </g>
   <g id="line2d_13">
    <path d="M 104.501281 60.540848 
L 107.964101 60.541186 
L 111.426921 60.542527 
L 114.889742 62.124246 
L 118.352562 71.06045 
L 121.815382 71.58409 
L 125.278202 83.269936 
L 128.741023 90.645119 
L 132.203843 96.076056 
L 135.666663 94.927275 
L 139.129483 96.298567 
L 142.592304 88.370658 
L 146.055124 91.899053 
L 149.517944 101.389192 
L 152.980764 98.545989 
L 156.443585 115.313221 
L 159.906405 116.810776 
L 163.369225 129.434391 
L 166.832045 136.361095 
L 170.294866 110.897074 
L 173.757686 131.259973 
L 177.220506 145.708374 
L 180.683326 154.977879 
L 184.146147 130.680277 
L 187.608967 134.924384 
L 191.071787 148.038769 
L 194.534607 157.473183 
L 197.997428 157.213474 
L 201.460248 153.555069 
L 204.923068 155.802027 
L 208.385888 150.666799 
L 211.848709 158.562734 
L 215.311529 129.360312 
L 218.774349 138.089899 
L 222.237169 151.553177 
L 225.69999 150.609275 
L 229.16281 158.729272 
L 232.62563 164.863423 
L 236.08845 172.596923 
L 239.551271 166.400251 
L 243.014091 174.672497 
L 246.476911 157.915395 
L 249.939731 174.203228 
L 253.402552 158.280819 
L 256.865372 171.973197 
L 260.328192 175.967422 
L 263.791012 165.247705 
L 267.253833 176.025056 
L 270.716653 177.348485 
L 274.179473 173.731916 
L 277.642293 177.868814 
L 281.105114 179.869917 
L 284.567934 179.873127 
L 288.030754 177.449368 
L 291.493574 182.108988 
L 294.956395 185.337994 
L 298.419215 188.651263 
L 301.882035 184.987512 
L 305.344855 193.362587 
L 308.807676 190.927912 
L 312.270496 193.090549 
L 315.733316 191.330487 
L 319.196136 181.922831 
L 322.658957 182.047204 
L 326.121777 182.495043 
L 329.584597 190.175103 
L 333.047417 192.80799 
L 336.510238 192.248274 
L 339.973058 172.856847 
L 343.435878 171.679617 
L 346.898698 166.94794 
L 350.361519 184.086304 
L 353.824339 176.234694 
L 357.287159 188.257929 
L 360.749979 190.814171 
L 364.2128 194.318879 
L 367.67562 190.49346 
L 371.13844 194.226141 
L 374.60126 195.029107 
L 378.064081 193.388939 
L 381.526901 202.56685 
" clip-path="url(#p8133842376)" style="fill: none; stroke: #1d8a00; stroke-width: 1.5; stroke-linecap: square"/>
   </g>
   <g id="line2d_14">
    <path d="M 104.501281 60.540848 
L 107.964101 60.541265 
L 111.426921 60.541559 
L 114.889742 62.178944 
L 118.352562 65.712547 
L 121.815382 68.344874 
L 125.278202 73.269981 
L 128.741023 98.244426 
L 132.203843 107.52098 
L 135.666663 119.410822 
L 139.129483 125.538455 
L 142.592304 132.328565 
L 146.055124 116.597437 
L 149.517944 111.128479 
L 152.980764 120.339549 
L 156.443585 132.146275 
L 159.906405 103.272357 
L 163.369225 99.690026 
L 166.832045 113.434136 
L 170.294866 112.697125 
L 173.757686 109.743471 
L 177.220506 91.395829 
L 180.683326 86.158424 
L 184.146147 91.737177 
L 187.608967 108.421694 
L 191.071787 94.031126 
L 194.534607 102.500019 
L 197.997428 109.337975 
L 201.460248 98.470341 
L 204.923068 107.418199 
L 208.385888 106.194988 
L 211.848709 115.275308 
L 215.311529 118.514649 
L 218.774349 96.95189 
L 222.237169 106.275767 
L 225.69999 112.42365 
L 229.16281 113.758989 
L 232.62563 118.446007 
L 236.08845 120.212781 
L 239.551271 97.107517 
L 243.014091 115.41934 
L 246.476911 111.655492 
L 249.939731 106.42888 
L 253.402552 108.943675 
L 256.865372 103.195447 
L 260.328192 104.445026 
L 263.791012 113.923968 
L 267.253833 118.999301 
L 270.716653 116.516116 
L 274.179473 112.00799 
L 277.642293 127.864506 
L 281.105114 132.666209 
L 284.567934 117.704556 
L 288.030754 125.462245 
L 291.493574 117.659457 
L 294.956395 131.472126 
L 298.419215 127.180289 
L 301.882035 128.056003 
L 305.344855 131.427541 
L 308.807676 128.735708 
L 312.270496 131.184046 
L 315.733316 130.851191 
L 319.196136 138.321603 
L 322.658957 136.057772 
L 326.121777 126.33102 
L 329.584597 135.408781 
L 333.047417 139.242325 
L 336.510238 145.596434 
L 339.973058 147.299079 
L 343.435878 151.483212 
L 346.898698 156.252259 
L 350.361519 156.554216 
L 353.824339 149.286098 
L 357.287159 126.832841 
L 360.749979 159.218239 
L 364.2128 142.169389 
L 367.67562 155.609069 
L 371.13844 152.176508 
L 374.60126 137.236062 
L 378.064081 157.238923 
L 381.526901 164.802487 
" clip-path="url(#p8133842376)" style="fill: none; stroke: #156400; stroke-width: 1.5; stroke-linecap: square"/>
   </g>
   <g id="patch_3">
    <path d="M 90.65 236.44 
L 90.65 49.92 
" style="fill: none; stroke: #000000; stroke-width: 0.8; stroke-linejoin: miter; stroke-linecap: square"/>
   </g>
   <g id="patch_4">
    <path d="M 90.65 236.44 
L 395.378182 236.44 
" style="fill: none; stroke: #000000; stroke-width: 0.8; stroke-linejoin: miter; stroke-linecap: square"/>
   </g>
   <g id="text_13">
    <!-- Delayed Match to Sample -->
    <g transform="translate(73.047591 43.92) scale(0.264 -0.264)">
     <defs>
      <path id="DejaVuSans-44" d="M 1259 4147 
L 1259 519 
L 2022 519 
Q 2988 519 3436 956 
Q 3884 1394 3884 2338 
Q 3884 3275 3436 3711 
Q 2988 4147 2022 4147 
L 1259 4147 
z
M 628 4666 
L 1925 4666 
Q 3281 4666 3915 4102 
Q 4550 3538 4550 2338 
Q 4550 1131 3912 565 
Q 3275 0 1925 0 
L 628 0 
L 628 4666 
z
" transform="scale(0.015625)"/>
      <path id="DejaVuSans-6c" d="M 603 4863 
L 1178 4863 
L 1178 0 
L 603 0 
L 603 4863 
z
" transform="scale(0.015625)"/>
      <path id="DejaVuSans-64" d="M 2906 2969 
L 2906 4863 
L 3481 4863 
L 3481 0 
L 2906 0 
L 2906 525 
Q 2725 213 2448 61 
Q 2172 -91 1784 -91 
Q 1150 -91 751 415 
Q 353 922 353 1747 
Q 353 2572 751 3078 
Q 1150 3584 1784 3584 
Q 2172 3584 2448 3432 
Q 2725 3281 2906 2969 
z
M 947 1747 
Q 947 1113 1208 752 
Q 1469 391 1925 391 
Q 2381 391 2643 752 
Q 2906 1113 2906 1747 
Q 2906 2381 2643 2742 
Q 2381 3103 1925 3103 
Q 1469 3103 1208 2742 
Q 947 2381 947 1747 
z
" transform="scale(0.015625)"/>
      <path id="DejaVuSans-20" transform="scale(0.015625)"/>
      <path id="DejaVuSans-4d" d="M 628 4666 
L 1569 4666 
L 2759 1491 
L 3956 4666 
L 4897 4666 
L 4897 0 
L 4281 0 
L 4281 4097 
L 3078 897 
L 2444 897 
L 1241 4097 
L 1241 0 
L 628 0 
L 628 4666 
z
" transform="scale(0.015625)"/>
      <path id="DejaVuSans-63" d="M 3122 3366 
L 3122 2828 
Q 2878 2963 2633 3030 
Q 2388 3097 2138 3097 
Q 1578 3097 1268 2742 
Q 959 2388 959 1747 
Q 959 1106 1268 751 
Q 1578 397 2138 397 
Q 2388 397 2633 464 
Q 2878 531 3122 666 
L 3122 134 
Q 2881 22 2623 -34 
Q 2366 -91 2075 -91 
Q 1284 -91 818 406 
Q 353 903 353 1747 
Q 353 2603 823 3093 
Q 1294 3584 2113 3584 
Q 2378 3584 2631 3529 
Q 2884 3475 3122 3366 
z
" transform="scale(0.015625)"/>
      <path id="DejaVuSans-68" d="M 3513 2113 
L 3513 0 
L 2938 0 
L 2938 2094 
Q 2938 2591 2744 2837 
Q 2550 3084 2163 3084 
Q 1697 3084 1428 2787 
Q 1159 2491 1159 1978 
L 1159 0 
L 581 0 
L 581 4863 
L 1159 4863 
L 1159 2956 
Q 1366 3272 1645 3428 
Q 1925 3584 2291 3584 
Q 2894 3584 3203 3211 
Q 3513 2838 3513 2113 
z
" transform="scale(0.015625)"/>
      <path id="DejaVuSans-53" d="M 3425 4513 
L 3425 3897 
Q 3066 4069 2747 4153 
Q 2428 4238 2131 4238 
Q 1616 4238 1336 4038 
Q 1056 3838 1056 3469 
Q 1056 3159 1242 3001 
Q 1428 2844 1947 2747 
L 2328 2669 
Q 3034 2534 3370 2195 
Q 3706 1856 3706 1288 
Q 3706 609 3251 259 
Q 2797 -91 1919 -91 
Q 1588 -91 1214 -16 
Q 841 59 441 206 
L 441 856 
Q 825 641 1194 531 
Q 1563 422 1919 422 
Q 2459 422 2753 634 
Q 3047 847 3047 1241 
Q 3047 1584 2836 1778 
Q 2625 1972 2144 2069 
L 1759 2144 
Q 1053 2284 737 2584 
Q 422 2884 422 3419 
Q 422 4038 858 4394 
Q 1294 4750 2059 4750 
Q 2388 4750 2728 4690 
Q 3069 4631 3425 4513 
z
" transform="scale(0.015625)"/>
      <path id="DejaVuSans-6d" d="M 3328 2828 
Q 3544 3216 3844 3400 
Q 4144 3584 4550 3584 
Q 5097 3584 5394 3201 
Q 5691 2819 5691 2113 
L 5691 0 
L 5113 0 
L 5113 2094 
Q 5113 2597 4934 2840 
Q 4756 3084 4391 3084 
Q 3944 3084 3684 2787 
Q 3425 2491 3425 1978 
L 3425 0 
L 2847 0 
L 2847 2094 
Q 2847 2600 2669 2842 
Q 2491 3084 2119 3084 
Q 1678 3084 1418 2786 
Q 1159 2488 1159 1978 
L 1159 0 
L 581 0 
L 581 3500 
L 1159 3500 
L 1159 2956 
Q 1356 3278 1631 3431 
Q 1906 3584 2284 3584 
Q 2666 3584 2933 3390 
Q 3200 3197 3328 2828 
z
" transform="scale(0.015625)"/>
     </defs>
     <use xlink:href="#DejaVuSans-44"/>
     <use xlink:href="#DejaVuSans-65" x="77.001953"/>
     <use xlink:href="#DejaVuSans-6c" x="138.525391"/>
     <use xlink:href="#DejaVuSans-61" x="166.308594"/>
     <use xlink:href="#DejaVuSans-79" x="227.587891"/>
     <use xlink:href="#DejaVuSans-65" x="286.767578"/>
     <use xlink:href="#DejaVuSans-64" x="348.291016"/>
     <use xlink:href="#DejaVuSans-20" x="411.767578"/>
     <use xlink:href="#DejaVuSans-4d" x="443.554688"/>
     <use xlink:href="#DejaVuSans-61" x="529.833984"/>
     <use xlink:href="#DejaVuSans-74" x="591.113281"/>
     <use xlink:href="#DejaVuSans-63" x="630.322266"/>
     <use xlink:href="#DejaVuSans-68" x="685.302734"/>
     <use xlink:href="#DejaVuSans-20" x="748.681641"/>
     <use xlink:href="#DejaVuSans-74" x="780.46875"/>
     <use xlink:href="#DejaVuSans-6f" x="819.677734"/>
     <use xlink:href="#DejaVuSans-20" x="880.859375"/>
     <use xlink:href="#DejaVuSans-53" x="912.646484"/>
     <use xlink:href="#DejaVuSans-61" x="976.123047"/>
     <use xlink:href="#DejaVuSans-6d" x="1037.402344"/>
     <use xlink:href="#DejaVuSans-70" x="1134.814453"/>
     <use xlink:href="#DejaVuSans-6c" x="1198.291016"/>
     <use xlink:href="#DejaVuSans-65" x="1226.074219"/>
    </g>
   </g>
   <g id="legend_1">
    <g id="patch_5">
     <path d="M 106.05 225.44 
L 256.609063 225.44 
Q 261.009063 225.44 261.009063 221.04 
L 261.009063 94.0725 
Q 261.009063 89.6725 256.609063 89.6725 
L 106.05 89.6725 
Q 101.65 89.6725 101.65 94.0725 
L 101.65 221.04 
Q 101.65 225.44 106.05 225.44 
z
" style="fill: #ffffff; opacity: 0.8; stroke: #cccccc; stroke-linejoin: miter"/>
    </g>
    <g id="line2d_15">
     <path d="M 110.45 107.489062 
L 132.45 107.489062 
L 154.45 107.489062 
" style="fill: none; stroke: #62d643; stroke-width: 1.5; stroke-linecap: square"/>
    </g>
    <g id="text_14">
     <!-- k=0.25 -->
     <g transform="translate(172.05 115.189062) scale(0.22 -0.22)">
      <defs>
       <path id="DejaVuSans-6b" d="M 581 4863 
L 1159 4863 
L 1159 1991 
L 2875 3500 
L 3609 3500 
L 1753 1863 
L 3688 0 
L 2938 0 
L 1159 1709 
L 1159 0 
L 581 0 
L 581 4863 
z
" transform="scale(0.015625)"/>
       <path id="DejaVuSans-3d" d="M 678 2906 
L 4684 2906 
L 4684 2381 
L 678 2381 
L 678 2906 
z
M 678 1631 
L 4684 1631 
L 4684 1100 
L 678 1100 
L 678 1631 
z
" transform="scale(0.015625)"/>
      </defs>
      <use xlink:href="#DejaVuSans-6b"/>
      <use xlink:href="#DejaVuSans-3d" x="57.910156"/>
      <use xlink:href="#DejaVuSans-30" x="141.699219"/>
      <use xlink:href="#DejaVuSans-2e" x="205.322266"/>
      <use xlink:href="#DejaVuSans-32" x="237.109375"/>
      <use xlink:href="#DejaVuSans-35" x="300.732422"/>
     </g>
    </g>
    <g id="line2d_16">
     <path d="M 110.45 139.780937 
L 132.45 139.780937 
L 154.45 139.780937 
" style="fill: none; stroke: #3bcf14; stroke-width: 1.5; stroke-linecap: square"/>
    </g>
    <g id="text_15">
     <!-- k=0.50 -->
     <g transform="translate(172.05 147.480937) scale(0.22 -0.22)">
      <use xlink:href="#DejaVuSans-6b"/>
      <use xlink:href="#DejaVuSans-3d" x="57.910156"/>
      <use xlink:href="#DejaVuSans-30" x="141.699219"/>
      <use xlink:href="#DejaVuSans-2e" x="205.322266"/>
      <use xlink:href="#DejaVuSans-35" x="237.109375"/>
      <use xlink:href="#DejaVuSans-30" x="300.732422"/>
     </g>
    </g>
    <g id="line2d_17">
     <path d="M 110.45 172.072812 
L 132.45 172.072812 
L 154.45 172.072812 
" style="fill: none; stroke: #1d8a00; stroke-width: 1.5; stroke-linecap: square"/>
    </g>
    <g id="text_16">
     <!-- k=0.75 -->
     <g transform="translate(172.05 179.772812) scale(0.22 -0.22)">
      <use xlink:href="#DejaVuSans-6b"/>
      <use xlink:href="#DejaVuSans-3d" x="57.910156"/>
      <use xlink:href="#DejaVuSans-30" x="141.699219"/>
      <use xlink:href="#DejaVuSans-2e" x="205.322266"/>
      <use xlink:href="#DejaVuSans-37" x="237.109375"/>
      <use xlink:href="#DejaVuSans-35" x="300.732422"/>
     </g>
    </g>
    <g id="line2d_18">
     <path d="M 110.45 204.364688 
L 132.45 204.364688 
L 154.45 204.364688 
" style="fill: none; stroke: #156400; stroke-width: 1.5; stroke-linecap: square"/>
    </g>
    <g id="text_17">
     <!-- k=0.90 -->
     <g transform="translate(172.05 212.064687) scale(0.22 -0.22)">
      <defs>
       <path id="DejaVuSans-39" d="M 703 97 
L 703 672 
Q 941 559 1184 500 
Q 1428 441 1663 441 
Q 2288 441 2617 861 
Q 2947 1281 2994 2138 
Q 2813 1869 2534 1725 
Q 2256 1581 1919 1581 
Q 1219 1581 811 2004 
Q 403 2428 403 3163 
Q 403 3881 828 4315 
Q 1253 4750 1959 4750 
Q 2769 4750 3195 4129 
Q 3622 3509 3622 2328 
Q 3622 1225 3098 567 
Q 2575 -91 1691 -91 
Q 1453 -91 1209 -44 
Q 966 3 703 97 
z
M 1959 2075 
Q 2384 2075 2632 2365 
Q 2881 2656 2881 3163 
Q 2881 3666 2632 3958 
Q 2384 4250 1959 4250 
Q 1534 4250 1286 3958 
Q 1038 3666 1038 3163 
Q 1038 2656 1286 2365 
Q 1534 2075 1959 2075 
z
" transform="scale(0.015625)"/>
      </defs>
      <use xlink:href="#DejaVuSans-6b"/>
      <use xlink:href="#DejaVuSans-3d" x="57.910156"/>
      <use xlink:href="#DejaVuSans-30" x="141.699219"/>
      <use xlink:href="#DejaVuSans-2e" x="205.322266"/>
      <use xlink:href="#DejaVuSans-39" x="237.109375"/>
      <use xlink:href="#DejaVuSans-30" x="300.732422"/>
     </g>
    </g>
   </g>
  </g>
  <g id="axes_2">
   <g id="patch_6">
    <path d="M 90.65 499.48 
L 395.378182 499.48 
L 395.378182 312.96 
L 90.65 312.96 
z
" style="fill: #ffffff"/>
   </g>
   <g id="matplotlib.axis_3">
    <g id="xtick_4">
     <g id="line2d_19">
      <g>
       <use xlink:href="#mcda5fe0afc" x="128.741023" y="499.48" style="stroke: #000000; stroke-width: 0.8"/>
      </g>
     </g>
     <g id="text_18">
      <!-- 0.25 -->
      <g transform="translate(104.248835 523.196563) scale(0.22 -0.22)">
       <use xlink:href="#DejaVuSans-30"/>
       <use xlink:href="#DejaVuSans-2e" x="63.623047"/>
       <use xlink:href="#DejaVuSans-32" x="95.410156"/>
       <use xlink:href="#DejaVuSans-35" x="159.033203"/>
      </g>
     </g>
    </g>
    <g id="xtick_5">
     <g id="line2d_20">
      <g>
       <use xlink:href="#mcda5fe0afc" x="204.923068" y="499.48" style="stroke: #000000; stroke-width: 0.8"/>
      </g>
     </g>
     <g id="text_19">
      <!-- 0.50 -->
      <g transform="translate(180.430881 523.196563) scale(0.22 -0.22)">
       <use xlink:href="#DejaVuSans-30"/>
       <use xlink:href="#DejaVuSans-2e" x="63.623047"/>
       <use xlink:href="#DejaVuSans-35" x="95.410156"/>
       <use xlink:href="#DejaVuSans-30" x="159.033203"/>
      </g>
     </g>
    </g>
    <g id="xtick_6">
     <g id="line2d_21">
      <g>
       <use xlink:href="#mcda5fe0afc" x="281.105114" y="499.48" style="stroke: #000000; stroke-width: 0.8"/>
      </g>
     </g>
     <g id="text_20">
      <!-- 0.75 -->
      <g transform="translate(256.612926 523.196563) scale(0.22 -0.22)">
       <use xlink:href="#DejaVuSans-30"/>
       <use xlink:href="#DejaVuSans-2e" x="63.623047"/>
       <use xlink:href="#DejaVuSans-37" x="95.410156"/>
       <use xlink:href="#DejaVuSans-35" x="159.033203"/>
      </g>
     </g>
    </g>
    <g id="xtick_7">
     <g id="line2d_22">
      <g>
       <use xlink:href="#mcda5fe0afc" x="357.287159" y="499.48" style="stroke: #000000; stroke-width: 0.8"/>
      </g>
     </g>
     <g id="text_21">
      <!-- 0.90 -->
      <g transform="translate(332.794972 523.196563) scale(0.22 -0.22)">
       <use xlink:href="#DejaVuSans-30"/>
       <use xlink:href="#DejaVuSans-2e" x="63.623047"/>
       <use xlink:href="#DejaVuSans-39" x="95.410156"/>
       <use xlink:href="#DejaVuSans-30" x="159.033203"/>
      </g>
     </g>
    </g>
    <g id="text_22">
     <!-- k value -->
     <g transform="translate(203.101278 548.488438) scale(0.22 -0.22)">
      <defs>
       <path id="DejaVuSans-76" d="M 191 3500 
L 800 3500 
L 1894 563 
L 2988 3500 
L 3597 3500 
L 2284 0 
L 1503 0 
L 191 3500 
z
" transform="scale(0.015625)"/>
       <path id="DejaVuSans-75" d="M 544 1381 
L 544 3500 
L 1119 3500 
L 1119 1403 
Q 1119 906 1312 657 
Q 1506 409 1894 409 
Q 2359 409 2629 706 
Q 2900 1003 2900 1516 
L 2900 3500 
L 3475 3500 
L 3475 0 
L 2900 0 
L 2900 538 
Q 2691 219 2414 64 
Q 2138 -91 1772 -91 
Q 1169 -91 856 284 
Q 544 659 544 1381 
z
M 1991 3584 
L 1991 3584 
z
" transform="scale(0.015625)"/>
      </defs>
      <use xlink:href="#DejaVuSans-6b"/>
      <use xlink:href="#DejaVuSans-20" x="57.910156"/>
      <use xlink:href="#DejaVuSans-76" x="89.697266"/>
      <use xlink:href="#DejaVuSans-61" x="148.876953"/>
      <use xlink:href="#DejaVuSans-6c" x="210.15625"/>
      <use xlink:href="#DejaVuSans-75" x="237.939453"/>
      <use xlink:href="#DejaVuSans-65" x="301.318359"/>
     </g>
    </g>
   </g>
   <g id="matplotlib.axis_4">
    <g id="ytick_8">
     <g id="line2d_23">
      <g>
       <use xlink:href="#m53b795016c" x="90.65" y="463.838437" style="stroke: #000000; stroke-width: 0.8"/>
      </g>
     </g>
     <g id="text_23">
      <!-- 0.1 -->
      <g transform="translate(48.663125 472.196718) scale(0.22 -0.22)">
       <use xlink:href="#DejaVuSans-30"/>
       <use xlink:href="#DejaVuSans-2e" x="63.623047"/>
       <use xlink:href="#DejaVuSans-31" x="95.410156"/>
      </g>
     </g>
    </g>
    <g id="ytick_9">
     <g id="line2d_24">
      <g>
       <use xlink:href="#m53b795016c" x="90.65" y="428.196873" style="stroke: #000000; stroke-width: 0.8"/>
      </g>
     </g>
     <g id="text_24">
      <!-- 0.2 -->
      <g transform="translate(48.663125 436.555154) scale(0.22 -0.22)">
       <use xlink:href="#DejaVuSans-30"/>
       <use xlink:href="#DejaVuSans-2e" x="63.623047"/>
       <use xlink:href="#DejaVuSans-32" x="95.410156"/>
      </g>
     </g>
    </g>
    <g id="ytick_10">
     <g id="line2d_25">
      <g>
       <use xlink:href="#m53b795016c" x="90.65" y="392.55531" style="stroke: #000000; stroke-width: 0.8"/>
      </g>
     </g>
     <g id="text_25">
      <!-- 0.3 -->
      <g transform="translate(48.663125 400.913591) scale(0.22 -0.22)">
       <use xlink:href="#DejaVuSans-30"/>
       <use xlink:href="#DejaVuSans-2e" x="63.623047"/>
       <use xlink:href="#DejaVuSans-33" x="95.410156"/>
      </g>
     </g>
    </g>
    <g id="ytick_11">
     <g id="line2d_26">
      <g>
       <use xlink:href="#m53b795016c" x="90.65" y="356.913746" style="stroke: #000000; stroke-width: 0.8"/>
      </g>
     </g>
     <g id="text_26">
      <!-- 0.4 -->
      <g transform="translate(48.663125 365.272027) scale(0.22 -0.22)">
       <use xlink:href="#DejaVuSans-30"/>
       <use xlink:href="#DejaVuSans-2e" x="63.623047"/>
       <use xlink:href="#DejaVuSans-34" x="95.410156"/>
      </g>
     </g>
    </g>
    <g id="ytick_12">
     <g id="line2d_27">
      <g>
       <use xlink:href="#m53b795016c" x="90.65" y="321.272183" style="stroke: #000000; stroke-width: 0.8"/>
      </g>
     </g>
     <g id="text_27">
      <!-- 0.5 -->
      <g transform="translate(48.663125 329.630464) scale(0.22 -0.22)">
       <use xlink:href="#DejaVuSans-30"/>
       <use xlink:href="#DejaVuSans-2e" x="63.623047"/>
       <use xlink:href="#DejaVuSans-35" x="95.410156"/>
      </g>
     </g>
    </g>
    <g id="text_28">
     <!-- Cross-Entropy -->
     <g transform="translate(40.087813 483.06875) rotate(-90) scale(0.22 -0.22)">
      <use xlink:href="#DejaVuSans-43"/>
      <use xlink:href="#DejaVuSans-72" x="69.824219"/>
      <use xlink:href="#DejaVuSans-6f" x="108.6875"/>
      <use xlink:href="#DejaVuSans-73" x="169.869141"/>
      <use xlink:href="#DejaVuSans-73" x="221.96875"/>
      <use xlink:href="#DejaVuSans-2d" x="274.068359"/>
      <use xlink:href="#DejaVuSans-45" x="310.152344"/>
      <use xlink:href="#DejaVuSans-6e" x="373.335938"/>
      <use xlink:href="#DejaVuSans-74" x="436.714844"/>
      <use xlink:href="#DejaVuSans-72" x="475.923828"/>
      <use xlink:href="#DejaVuSans-6f" x="514.787109"/>
      <use xlink:href="#DejaVuSans-70" x="575.96875"/>
      <use xlink:href="#DejaVuSans-79" x="639.445312"/>
     </g>
    </g>
   </g>
   <g id="patch_7">
    <path d="M 123.027369 414.074985 
L 134.454676 414.074985 
L 134.454676 401.436541 
L 123.027369 401.436541 
L 123.027369 414.074985 
z
" clip-path="url(#pd9c88ab517)" style="fill: #62d643; stroke: #62d643; stroke-linejoin: miter"/>
   </g>
   <g id="line2d_28">
    <path d="M 128.741023 414.074985 
L 128.741023 419.506063 
" clip-path="url(#pd9c88ab517)" style="fill: none; stroke: #000000; stroke-linecap: square"/>
   </g>
   <g id="line2d_29">
    <path d="M 128.741023 401.436541 
L 128.741023 395.978409 
" clip-path="url(#pd9c88ab517)" style="fill: none; stroke: #000000; stroke-linecap: square"/>
   </g>
   <g id="line2d_30">
    <path d="M 125.884196 419.506063 
L 131.597849 419.506063 
" clip-path="url(#pd9c88ab517)" style="fill: none; stroke: #000000; stroke-linecap: square"/>
   </g>
   <g id="line2d_31">
    <path d="M 125.884196 395.978409 
L 131.597849 395.978409 
" clip-path="url(#pd9c88ab517)" style="fill: none; stroke: #000000; stroke-linecap: square"/>
   </g>
   <g id="line2d_32"/>
   <g id="patch_8">
    <path d="M 199.209415 438.168972 
L 210.636722 438.168972 
L 210.636722 408.613347 
L 199.209415 408.613347 
L 199.209415 438.168972 
z
" clip-path="url(#pd9c88ab517)" style="fill: #3bcf14; stroke: #3bcf14; stroke-linejoin: miter"/>
   </g>
   <g id="line2d_33">
    <path d="M 204.923068 438.168972 
L 204.923068 448.646357 
" clip-path="url(#pd9c88ab517)" style="fill: none; stroke: #000000; stroke-linecap: square"/>
   </g>
   <g id="line2d_34">
    <path d="M 204.923068 408.613347 
L 204.923068 388.842391 
" clip-path="url(#pd9c88ab517)" style="fill: none; stroke: #000000; stroke-linecap: square"/>
   </g>
   <g id="line2d_35">
    <path d="M 202.066241 448.646357 
L 207.779895 448.646357 
" clip-path="url(#pd9c88ab517)" style="fill: none; stroke: #000000; stroke-linecap: square"/>
   </g>
   <g id="line2d_36">
    <path d="M 202.066241 388.842391 
L 207.779895 388.842391 
" clip-path="url(#pd9c88ab517)" style="fill: none; stroke: #000000; stroke-linecap: square"/>
   </g>
   <g id="line2d_37"/>
   <g id="patch_9">
    <path d="M 275.39146 454.101796 
L 286.818767 454.101796 
L 286.818767 448.00894 
L 275.39146 448.00894 
L 275.39146 454.101796 
z
" clip-path="url(#pd9c88ab517)" style="fill: #1d8a00; stroke: #1d8a00; stroke-linejoin: miter"/>
   </g>
   <g id="line2d_38">
    <path d="M 281.105114 454.101796 
L 281.105114 462.958017 
" clip-path="url(#pd9c88ab517)" style="fill: none; stroke: #000000; stroke-linecap: square"/>
   </g>
   <g id="line2d_39">
    <path d="M 281.105114 448.00894 
L 281.105114 442.100392 
" clip-path="url(#pd9c88ab517)" style="fill: none; stroke: #000000; stroke-linecap: square"/>
   </g>
   <g id="line2d_40">
    <path d="M 278.248287 462.958017 
L 283.96194 462.958017 
" clip-path="url(#pd9c88ab517)" style="fill: none; stroke: #000000; stroke-linecap: square"/>
   </g>
   <g id="line2d_41">
    <path d="M 278.248287 442.100392 
L 283.96194 442.100392 
" clip-path="url(#pd9c88ab517)" style="fill: none; stroke: #000000; stroke-linecap: square"/>
   </g>
   <g id="line2d_42"/>
   <g id="patch_10">
    <path d="M 351.573506 422.883066 
L 363.000812 422.883066 
L 363.000812 400.138892 
L 351.573506 400.138892 
L 351.573506 422.883066 
z
" clip-path="url(#pd9c88ab517)" style="fill: #156400; stroke: #156400; stroke-linejoin: miter"/>
   </g>
   <g id="line2d_43">
    <path d="M 357.287159 422.883066 
L 357.287159 438.440429 
" clip-path="url(#pd9c88ab517)" style="fill: none; stroke: #000000; stroke-linecap: square"/>
   </g>
   <g id="line2d_44">
    <path d="M 357.287159 400.138892 
L 357.287159 400.138892 
" clip-path="url(#pd9c88ab517)" style="fill: none; stroke: #000000; stroke-linecap: square"/>
   </g>
   <g id="line2d_45">
    <path d="M 354.430332 438.440429 
L 360.143986 438.440429 
" clip-path="url(#pd9c88ab517)" style="fill: none; stroke: #000000; stroke-linecap: square"/>
   </g>
   <g id="line2d_46">
    <path d="M 354.430332 400.138892 
L 360.143986 400.138892 
" clip-path="url(#pd9c88ab517)" style="fill: none; stroke: #000000; stroke-linecap: square"/>
   </g>
   <g id="line2d_47">
    <defs>
     <path id="m6bf2227790" d="M 0 3 
C 0.795609 3 1.55874 2.683901 2.12132 2.12132 
C 2.683901 1.55874 3 0.795609 3 0 
C 3 -0.795609 2.683901 -1.55874 2.12132 -2.12132 
C 1.55874 -2.683901 0.795609 -3 0 -3 
C -0.795609 -3 -1.55874 -2.683901 -2.12132 -2.12132 
C -2.683901 -1.55874 -3 -0.795609 -3 0 
C -3 0.795609 -2.683901 1.55874 -2.12132 2.12132 
C -1.55874 2.683901 -0.795609 3 0 3 
z
" style="stroke: #000000"/>
    </defs>
    <g clip-path="url(#pd9c88ab517)">
     <use xlink:href="#m6bf2227790" x="357.287159" y="320.102763" style="fill-opacity: 0; stroke: #000000"/>
    </g>
   </g>
   <g id="line2d_48">
    <path d="M 123.027369 407.587707 
L 134.454676 407.587707 
" clip-path="url(#pd9c88ab517)" style="fill: none; stroke: #000000"/>
   </g>
   <g id="line2d_49">
    <path d="M 199.209415 432.954647 
L 210.636722 432.954647 
" clip-path="url(#pd9c88ab517)" style="fill: none; stroke: #000000"/>
   </g>
   <g id="line2d_50">
    <path d="M 275.39146 452.358336 
L 286.818767 452.358336 
" clip-path="url(#pd9c88ab517)" style="fill: none; stroke: #000000"/>
   </g>
   <g id="line2d_51">
    <path d="M 351.573506 412.763963 
L 363.000812 412.763963 
" clip-path="url(#pd9c88ab517)" style="fill: none; stroke: #000000"/>
   </g>
   <g id="patch_11">
    <path d="M 90.65 499.48 
L 90.65 312.96 
" style="fill: none; stroke: #000000; stroke-width: 0.8; stroke-linejoin: miter; stroke-linecap: square"/>
   </g>
   <g id="patch_12">
    <path d="M 90.65 499.48 
L 395.378182 499.48 
" style="fill: none; stroke: #000000; stroke-width: 0.8; stroke-linejoin: miter; stroke-linecap: square"/>
   </g>
  </g>
 </g>
 <defs>
  <clipPath id="p8133842376">
   <rect x="90.65" y="49.92" width="304.728182" height="186.52"/>
  </clipPath>
  <clipPath id="pd9c88ab517">
   <rect x="90.65" y="312.96" width="304.728182" height="186.52"/>
  </clipPath>
 </defs>
</svg>
