<?xml version="1.0" encoding="utf-8" standalone="no"?>
<!DOCTYPE svg PUBLIC "-//W3C//DTD SVG 1.1//EN"
  "http://www.w3.org/Graphics/SVG/1.1/DTD/svg11.dtd">
<svg xmlns:xlink="http://www.w3.org/1999/xlink" width="432pt" height="576pt" viewBox="0 0 432 576" xmlns="http://www.w3.org/2000/svg" version="1.1">
 <metadata>
  <rdf:RDF xmlns:dc="http://purl.org/dc/elements/1.1/" xmlns:cc="http://creativecommons.org/ns#" xmlns:rdf="http://www.w3.org/1999/02/22-rdf-syntax-ns#">
   <cc:Work>
    <dc:type rdf:resource="http://purl.org/dc/dcmitype/StillImage"/>
    <dc:date>2024-11-13T14:57:25.133422</dc:date>
    <dc:format>image/svg+xml</dc:format>
    <dc:creator>
     <cc:Agent>
      <dc:title>Matplotlib v3.8.4, https://matplotlib.org/</dc:title>
     </cc:Agent>
    </dc:creator>
   </cc:Work>
  </rdf:RDF>
 </metadata>
 <defs>
  <style type="text/css">*{stroke-linejoin: round; stroke-linecap: butt}</style>
 </defs>
 <g id="figure_1">
  <g id="patch_1">
   <path d="M 0 576 
L 432 576 
L 432 0 
L 0 0 
z
" style="fill: #ffffff"/>
  </g>
  <g id="axes_1">
   <g id="patch_2">
    <path d="M 104.69 232.3 
L 391.525478 232.3 
L 391.525478 49.92 
L 104.69 49.92 
z
" style="fill: #ffffff"/>
   </g>
   <g id="PolyCollection_1">
    <defs>
     <path id="m6804d3fdac" d="M 117.727976 -517.79 
L 117.727976 -517.447251 
L 121.02873 -460.929649 
L 124.329483 -418.552479 
L 127.630237 -395.251331 
L 130.93099 -385.036026 
L 134.231744 -378.05676 
L 137.532497 -372.615213 
L 140.833251 -368.822081 
L 144.134004 -367.653486 
L 147.434758 -364.922521 
L 150.735511 -364.954936 
L 154.036265 -362.193544 
L 157.337018 -362.078411 
L 160.637772 -361.483858 
L 163.938525 -360.921483 
L 167.239278 -359.236598 
L 170.540032 -360.137781 
L 173.840785 -359.786762 
L 177.141539 -359.757654 
L 180.442292 -359.036945 
L 183.743046 -360.350578 
L 187.043799 -360.044582 
L 190.344553 -357.801692 
L 193.645306 -358.641645 
L 196.94606 -357.520654 
L 200.246813 -357.34772 
L 203.547567 -358.729047 
L 206.84832 -357.128438 
L 210.149074 -357.746416 
L 213.449827 -357.502853 
L 216.750581 -356.271114 
L 220.051334 -357.475197 
L 223.352088 -356.14703 
L 226.652841 -356.028931 
L 229.953595 -356.302218 
L 233.254348 -356.879275 
L 236.555102 -356.273236 
L 239.855855 -355.800265 
L 243.156609 -355.799683 
L 246.457362 -354.947311 
L 249.758116 -356.01206 
L 253.058869 -355.271119 
L 256.359622 -355.416464 
L 259.660376 -354.8103 
L 262.961129 -355.119768 
L 266.261883 -355.178975 
L 269.562636 -354.990705 
L 272.86339 -354.482964 
L 276.164143 -354.21184 
L 279.464897 -354.743527 
L 282.76565 -354.823988 
L 286.066404 -354.664191 
L 289.367157 -354.517229 
L 292.667911 -354.259873 
L 295.968664 -354.985964 
L 299.269418 -355.376737 
L 302.570171 -353.752918 
L 305.870925 -354.256276 
L 309.171678 -354.708117 
L 312.472432 -353.953659 
L 315.773185 -354.027139 
L 319.073939 -354.562267 
L 322.374692 -353.994739 
L 325.675446 -353.60286 
L 328.976199 -354.367169 
L 332.276953 -353.437286 
L 335.577706 -354.065776 
L 338.87846 -353.639301 
L 342.179213 -353.982844 
L 345.479966 -353.483628 
L 348.78072 -353.410651 
L 352.081473 -353.526177 
L 355.382227 -353.818362 
L 358.68298 -353.261209 
L 361.983734 -353.688698 
L 365.284487 -353.660806 
L 368.585241 -353.698382 
L 371.885994 -353.563791 
L 375.186748 -353.795068 
L 378.487501 -353.677024 
L 378.487501 -355.343739 
L 378.487501 -355.343739 
L 375.186748 -356.237808 
L 371.885994 -355.421794 
L 368.585241 -355.407984 
L 365.284487 -354.491112 
L 361.983734 -355.937586 
L 358.68298 -355.044661 
L 355.382227 -354.642491 
L 352.081473 -354.799723 
L 348.78072 -354.990946 
L 345.479966 -355.170443 
L 342.179213 -355.952599 
L 338.87846 -356.036378 
L 335.577706 -355.624218 
L 332.276953 -355.619932 
L 328.976199 -355.686681 
L 325.675446 -355.623544 
L 322.374692 -357.677514 
L 319.073939 -356.044077 
L 315.773185 -354.845131 
L 312.472432 -355.352746 
L 309.171678 -357.059557 
L 305.870925 -355.435472 
L 302.570171 -356.174242 
L 299.269418 -356.296057 
L 295.968664 -357.7352 
L 292.667911 -356.666607 
L 289.367157 -356.761912 
L 286.066404 -356.310276 
L 282.76565 -357.022666 
L 279.464897 -356.611983 
L 276.164143 -356.534587 
L 272.86339 -356.38444 
L 269.562636 -357.536029 
L 266.261883 -358.398551 
L 262.961129 -357.259193 
L 259.660376 -357.257439 
L 256.359622 -359.769208 
L 253.058869 -357.758965 
L 249.758116 -357.430007 
L 246.457362 -357.641079 
L 243.156609 -358.45612 
L 239.855855 -358.914711 
L 236.555102 -359.839077 
L 233.254348 -359.860007 
L 229.953595 -360.080654 
L 226.652841 -361.111291 
L 223.352088 -360.432242 
L 220.051334 -359.221755 
L 216.750581 -359.501703 
L 213.449827 -360.392078 
L 210.149074 -361.187923 
L 206.84832 -360.316204 
L 203.547567 -359.838699 
L 200.246813 -359.993366 
L 196.94606 -361.191375 
L 193.645306 -360.426592 
L 190.344553 -361.768986 
L 187.043799 -362.683249 
L 183.743046 -362.715575 
L 180.442292 -362.871478 
L 177.141539 -367.969313 
L 173.840785 -363.282553 
L 170.540032 -365.609881 
L 167.239278 -366.373887 
L 163.938525 -368.353769 
L 160.637772 -367.120751 
L 157.337018 -367.716173 
L 154.036265 -371.892041 
L 150.735511 -373.004515 
L 147.434758 -379.050706 
L 144.134004 -385.850578 
L 140.833251 -388.295275 
L 137.532497 -385.745403 
L 134.231744 -389.692401 
L 130.93099 -398.552859 
L 127.630237 -416.221107 
L 124.329483 -441.891985 
L 121.02873 -479.882906 
L 117.727976 -517.79 
z
" style="stroke: #62d643; stroke-opacity: 0.4"/>
    </defs>
    <g clip-path="url(#p8f6d98bc12)">
     <use xlink:href="#m6804d3fdac" x="0" y="576" style="fill: #62d643; fill-opacity: 0.4; stroke: #62d643; stroke-opacity: 0.4"/>
    </g>
   </g>
   <g id="PolyCollection_2">
    <defs>
     <path id="mbebc7c7ae7" d="M 117.727976 -517.697467 
L 117.727976 -517.444363 
L 121.02873 -490.065771 
L 124.329483 -417.603667 
L 127.630237 -396.315572 
L 130.93099 -386.009783 
L 134.231744 -378.257305 
L 137.532497 -377.239869 
L 140.833251 -373.020671 
L 144.134004 -366.958388 
L 147.434758 -364.995006 
L 150.735511 -362.604277 
L 154.036265 -361.858473 
L 157.337018 -360.803523 
L 160.637772 -360.319778 
L 163.938525 -360.708392 
L 167.239278 -357.557064 
L 170.540032 -358.119729 
L 173.840785 -356.650195 
L 177.141539 -358.467383 
L 180.442292 -359.02307 
L 183.743046 -356.472192 
L 187.043799 -356.480081 
L 190.344553 -356.816317 
L 193.645306 -356.336415 
L 196.94606 -356.426461 
L 200.246813 -356.116066 
L 203.547567 -355.769401 
L 206.84832 -354.886305 
L 210.149074 -355.211306 
L 213.449827 -355.48339 
L 216.750581 -354.809375 
L 220.051334 -355.464859 
L 223.352088 -355.004331 
L 226.652841 -355.653365 
L 229.953595 -356.099128 
L 233.254348 -354.188435 
L 236.555102 -354.956583 
L 239.855855 -355.657788 
L 243.156609 -354.369119 
L 246.457362 -354.905071 
L 249.758116 -354.136264 
L 253.058869 -354.230332 
L 256.359622 -353.724766 
L 259.660376 -354.516576 
L 262.961129 -354.79259 
L 266.261883 -355.043524 
L 269.562636 -354.321121 
L 272.86339 -353.846739 
L 276.164143 -353.687981 
L 279.464897 -354.065435 
L 282.76565 -353.231941 
L 286.066404 -352.728903 
L 289.367157 -353.416801 
L 292.667911 -353.804974 
L 295.968664 -353.291027 
L 299.269418 -353.34167 
L 302.570171 -353.182071 
L 305.870925 -353.147521 
L 309.171678 -353.152424 
L 312.472432 -352.848892 
L 315.773185 -353.11649 
L 319.073939 -353.323534 
L 322.374692 -353.195969 
L 325.675446 -352.989304 
L 328.976199 -353.206349 
L 332.276953 -352.508589 
L 335.577706 -353.168014 
L 338.87846 -352.61031 
L 342.179213 -353.362788 
L 345.479966 -352.404529 
L 348.78072 -352.584582 
L 352.081473 -352.60565 
L 355.382227 -352.420524 
L 358.68298 -352.664109 
L 361.983734 -352.300982 
L 365.284487 -353.503918 
L 368.585241 -352.641411 
L 371.885994 -352.475969 
L 375.186748 -352.941887 
L 378.487501 -352.395737 
L 378.487501 -355.185829 
L 378.487501 -355.185829 
L 375.186748 -354.622205 
L 371.885994 -354.00621 
L 368.585241 -354.938465 
L 365.284487 -354.014713 
L 361.983734 -354.916698 
L 358.68298 -355.223905 
L 355.382227 -354.651861 
L 352.081473 -354.472129 
L 348.78072 -354.69846 
L 345.479966 -355.017436 
L 342.179213 -354.446885 
L 338.87846 -354.621339 
L 335.577706 -355.148998 
L 332.276953 -355.28392 
L 328.976199 -357.543021 
L 325.675446 -356.311008 
L 322.374692 -356.913486 
L 319.073939 -355.00634 
L 315.773185 -358.354196 
L 312.472432 -356.22573 
L 309.171678 -355.810632 
L 305.870925 -356.091914 
L 302.570171 -356.932028 
L 299.269418 -355.504659 
L 295.968664 -355.993353 
L 292.667911 -355.71321 
L 289.367157 -355.435615 
L 286.066404 -356.255037 
L 282.76565 -357.153086 
L 279.464897 -356.328176 
L 276.164143 -355.728248 
L 272.86339 -355.594387 
L 269.562636 -356.077793 
L 266.261883 -356.466911 
L 262.961129 -356.38193 
L 259.660376 -358.46637 
L 256.359622 -355.994509 
L 253.058869 -356.535315 
L 249.758116 -357.996482 
L 246.457362 -358.113299 
L 243.156609 -357.703047 
L 239.855855 -357.458486 
L 236.555102 -358.145481 
L 233.254348 -357.65078 
L 229.953595 -361.751313 
L 226.652841 -358.085383 
L 223.352088 -360.419751 
L 220.051334 -358.689705 
L 216.750581 -358.290534 
L 213.449827 -357.421536 
L 210.149074 -360.025189 
L 206.84832 -360.486238 
L 203.547567 -358.679645 
L 200.246813 -358.653613 
L 196.94606 -361.566112 
L 193.645306 -361.363932 
L 190.344553 -365.184864 
L 187.043799 -359.534746 
L 183.743046 -362.182253 
L 180.442292 -362.006833 
L 177.141539 -363.405174 
L 173.840785 -362.251764 
L 170.540032 -364.896815 
L 167.239278 -364.848181 
L 163.938525 -368.911952 
L 160.637772 -368.763528 
L 157.337018 -366.028781 
L 154.036265 -370.942075 
L 150.735511 -373.655306 
L 147.434758 -373.438774 
L 144.134004 -375.738211 
L 140.833251 -379.416269 
L 137.532497 -385.222729 
L 134.231744 -393.596289 
L 130.93099 -405.974887 
L 127.630237 -427.184915 
L 124.329483 -456.302393 
L 121.02873 -505.858277 
L 117.727976 -517.697467 
z
" style="stroke: #3bcf14; stroke-opacity: 0.4"/>
    </defs>
    <g clip-path="url(#p8f6d98bc12)">
     <use xlink:href="#mbebc7c7ae7" x="0" y="576" style="fill: #3bcf14; fill-opacity: 0.4; stroke: #3bcf14; stroke-opacity: 0.4"/>
    </g>
   </g>
   <g id="PolyCollection_3">
    <defs>
     <path id="m73596789aa" d="M 117.727976 -517.735234 
L 117.727976 -517.469752 
L 121.02873 -493.278059 
L 124.329483 -427.318527 
L 127.630237 -409.32382 
L 130.93099 -396.111643 
L 134.231744 -389.69519 
L 137.532497 -378.241579 
L 140.833251 -372.06037 
L 144.134004 -367.224367 
L 147.434758 -365.549838 
L 150.735511 -363.721005 
L 154.036265 -361.214737 
L 157.337018 -361.848557 
L 160.637772 -361.096851 
L 163.938525 -360.123131 
L 167.239278 -358.971534 
L 170.540032 -359.564839 
L 173.840785 -358.586688 
L 177.141539 -357.111672 
L 180.442292 -358.303204 
L 183.743046 -359.025659 
L 187.043799 -356.545937 
L 190.344553 -357.468405 
L 193.645306 -356.009197 
L 196.94606 -356.019825 
L 200.246813 -356.539456 
L 203.547567 -356.422292 
L 206.84832 -355.586787 
L 210.149074 -355.20534 
L 213.449827 -355.211895 
L 216.750581 -355.675898 
L 220.051334 -355.516142 
L 223.352088 -355.133398 
L 226.652841 -354.336587 
L 229.953595 -354.020101 
L 233.254348 -354.384006 
L 236.555102 -353.903798 
L 239.855855 -354.576167 
L 243.156609 -355.017705 
L 246.457362 -353.918506 
L 249.758116 -354.011759 
L 253.058869 -353.613433 
L 256.359622 -353.602271 
L 259.660376 -353.949857 
L 262.961129 -353.632919 
L 266.261883 -353.319994 
L 269.562636 -354.023524 
L 272.86339 -353.034477 
L 276.164143 -352.834841 
L 279.464897 -353.183481 
L 282.76565 -353.331161 
L 286.066404 -353.375485 
L 289.367157 -353.409406 
L 292.667911 -353.517133 
L 295.968664 -352.968609 
L 299.269418 -353.266321 
L 302.570171 -353.210466 
L 305.870925 -352.931442 
L 309.171678 -353.293947 
L 312.472432 -353.113215 
L 315.773185 -352.590754 
L 319.073939 -353.339473 
L 322.374692 -353.059457 
L 325.675446 -352.812571 
L 328.976199 -352.693158 
L 332.276953 -353.195757 
L 335.577706 -352.647317 
L 338.87846 -352.55252 
L 342.179213 -353.05692 
L 345.479966 -352.346151 
L 348.78072 -352.740388 
L 352.081473 -353.112614 
L 355.382227 -352.334892 
L 358.68298 -352.294275 
L 361.983734 -352.711396 
L 365.284487 -352.652797 
L 368.585241 -351.99 
L 371.885994 -352.186369 
L 375.186748 -352.271168 
L 378.487501 -352.581787 
L 378.487501 -354.031091 
L 378.487501 -354.031091 
L 375.186748 -353.894555 
L 371.885994 -354.000799 
L 368.585241 -354.494496 
L 365.284487 -353.652141 
L 361.983734 -353.51773 
L 358.68298 -354.397565 
L 355.382227 -354.186445 
L 352.081473 -355.127635 
L 348.78072 -353.964934 
L 345.479966 -354.226445 
L 342.179213 -355.146057 
L 338.87846 -355.119991 
L 335.577706 -354.063829 
L 332.276953 -354.840822 
L 328.976199 -355.142054 
L 325.675446 -354.661257 
L 322.374692 -354.47665 
L 319.073939 -354.290931 
L 315.773185 -354.466861 
L 312.472432 -354.982598 
L 309.171678 -354.922747 
L 305.870925 -354.51526 
L 302.570171 -355.259688 
L 299.269418 -354.870128 
L 295.968664 -355.66022 
L 292.667911 -357.134724 
L 289.367157 -355.445838 
L 286.066404 -356.160666 
L 282.76565 -355.143162 
L 279.464897 -356.623551 
L 276.164143 -355.764043 
L 272.86339 -355.591861 
L 269.562636 -355.6139 
L 266.261883 -356.07193 
L 262.961129 -356.285206 
L 259.660376 -356.645507 
L 256.359622 -356.449796 
L 253.058869 -355.849167 
L 249.758116 -357.02325 
L 246.457362 -358.056596 
L 243.156609 -357.246907 
L 239.855855 -356.169848 
L 236.555102 -357.087731 
L 233.254348 -356.314625 
L 229.953595 -357.026268 
L 226.652841 -357.314397 
L 223.352088 -360.831486 
L 220.051334 -357.410615 
L 216.750581 -357.397363 
L 213.449827 -361.53247 
L 210.149074 -358.224072 
L 206.84832 -358.59507 
L 203.547567 -358.223219 
L 200.246813 -360.218822 
L 196.94606 -359.727933 
L 193.645306 -359.402367 
L 190.344553 -361.014837 
L 187.043799 -361.591425 
L 183.743046 -362.79215 
L 180.442292 -366.135125 
L 177.141539 -364.284967 
L 173.840785 -363.562911 
L 170.540032 -366.726875 
L 167.239278 -370.370593 
L 163.938525 -366.730475 
L 160.637772 -368.702538 
L 157.337018 -368.859013 
L 154.036265 -369.575197 
L 150.735511 -372.281682 
L 147.434758 -376.265282 
L 144.134004 -380.131372 
L 140.833251 -380.49506 
L 137.532497 -389.828519 
L 134.231744 -398.288545 
L 130.93099 -418.442694 
L 127.630237 -442.760662 
L 124.329483 -480.003819 
L 121.02873 -512.198854 
L 117.727976 -517.735234 
z
" style="stroke: #1d8a00; stroke-opacity: 0.4"/>
    </defs>
    <g clip-path="url(#p8f6d98bc12)">
     <use xlink:href="#m73596789aa" x="0" y="576" style="fill: #1d8a00; fill-opacity: 0.4; stroke: #1d8a00; stroke-opacity: 0.4"/>
    </g>
   </g>
   <g id="PolyCollection_4">
    <defs>
     <path id="m2ae9a27030" d="M 117.727976 -517.731475 
L 117.727976 -517.458808 
L 121.02873 -478.15389 
L 124.329483 -419.432398 
L 127.630237 -405.983819 
L 130.93099 -388.197077 
L 134.231744 -381.47508 
L 137.532497 -375.69122 
L 140.833251 -369.502944 
L 144.134004 -368.940794 
L 147.434758 -364.094072 
L 150.735511 -362.872937 
L 154.036265 -362.612159 
L 157.337018 -361.643873 
L 160.637772 -360.058076 
L 163.938525 -360.000023 
L 167.239278 -359.534902 
L 170.540032 -358.82561 
L 173.840785 -357.164758 
L 177.141539 -357.922259 
L 180.442292 -357.586322 
L 183.743046 -357.783723 
L 187.043799 -357.404391 
L 190.344553 -356.535779 
L 193.645306 -356.072867 
L 196.94606 -355.961562 
L 200.246813 -357.071062 
L 203.547567 -356.614302 
L 206.84832 -355.68607 
L 210.149074 -354.989709 
L 213.449827 -354.941637 
L 216.750581 -355.791662 
L 220.051334 -355.258894 
L 223.352088 -355.557265 
L 226.652841 -355.226831 
L 229.953595 -354.745306 
L 233.254348 -355.226213 
L 236.555102 -354.139674 
L 239.855855 -354.21562 
L 243.156609 -354.730933 
L 246.457362 -354.221614 
L 249.758116 -354.754536 
L 253.058869 -354.941411 
L 256.359622 -354.03324 
L 259.660376 -353.943898 
L 262.961129 -353.756298 
L 266.261883 -355.087045 
L 269.562636 -353.791128 
L 272.86339 -353.708702 
L 276.164143 -353.825351 
L 279.464897 -353.856659 
L 282.76565 -353.149821 
L 286.066404 -353.66638 
L 289.367157 -353.650808 
L 292.667911 -353.80366 
L 295.968664 -354.105333 
L 299.269418 -353.334581 
L 302.570171 -354.431272 
L 305.870925 -353.462871 
L 309.171678 -353.862564 
L 312.472432 -354.184815 
L 315.773185 -353.555584 
L 319.073939 -353.148604 
L 322.374692 -353.168655 
L 325.675446 -353.81573 
L 328.976199 -352.972942 
L 332.276953 -353.620514 
L 335.577706 -353.114475 
L 338.87846 -352.736984 
L 342.179213 -352.413001 
L 345.479966 -352.545608 
L 348.78072 -353.134404 
L 352.081473 -353.107978 
L 355.382227 -352.661993 
L 358.68298 -353.342257 
L 361.983734 -352.975046 
L 365.284487 -352.44603 
L 368.585241 -352.567278 
L 371.885994 -352.652605 
L 375.186748 -352.679722 
L 378.487501 -352.664311 
L 378.487501 -354.428346 
L 378.487501 -354.428346 
L 375.186748 -354.335663 
L 371.885994 -355.342886 
L 368.585241 -355.232279 
L 365.284487 -357.000772 
L 361.983734 -354.657215 
L 358.68298 -356.032743 
L 355.382227 -355.446839 
L 352.081473 -355.559953 
L 348.78072 -354.56463 
L 345.479966 -357.506979 
L 342.179213 -355.740914 
L 338.87846 -355.623563 
L 335.577706 -355.311649 
L 332.276953 -355.073306 
L 328.976199 -356.265217 
L 325.675446 -355.349804 
L 322.374692 -355.264871 
L 319.073939 -355.233749 
L 315.773185 -357.458184 
L 312.472432 -355.527145 
L 309.171678 -355.202424 
L 305.870925 -356.60504 
L 302.570171 -355.678868 
L 299.269418 -356.782685 
L 295.968664 -355.51131 
L 292.667911 -355.968957 
L 289.367157 -355.778197 
L 286.066404 -357.01591 
L 282.76565 -356.829134 
L 279.464897 -355.781152 
L 276.164143 -358.794956 
L 272.86339 -356.665322 
L 269.562636 -361.298263 
L 266.261883 -356.857077 
L 262.961129 -360.274702 
L 259.660376 -356.823032 
L 256.359622 -356.419229 
L 253.058869 -356.428412 
L 249.758116 -356.022183 
L 246.457362 -356.5687 
L 243.156609 -357.965524 
L 239.855855 -356.990057 
L 236.555102 -358.389731 
L 233.254348 -356.666354 
L 229.953595 -357.793832 
L 226.652841 -357.986285 
L 223.352088 -357.836279 
L 220.051334 -359.744849 
L 216.750581 -358.30223 
L 213.449827 -357.971355 
L 210.149074 -361.168674 
L 206.84832 -358.765812 
L 203.547567 -358.817974 
L 200.246813 -360.848941 
L 196.94606 -360.183424 
L 193.645306 -361.698294 
L 190.344553 -362.872534 
L 187.043799 -360.808848 
L 183.743046 -360.395005 
L 180.442292 -364.627867 
L 177.141539 -362.647896 
L 173.840785 -365.377328 
L 170.540032 -364.98063 
L 167.239278 -365.64282 
L 163.938525 -367.356671 
L 160.637772 -365.864785 
L 157.337018 -367.826849 
L 154.036265 -370.198391 
L 150.735511 -376.733661 
L 147.434758 -377.018454 
L 144.134004 -377.742294 
L 140.833251 -384.181261 
L 137.532497 -391.142025 
L 134.231744 -396.940616 
L 130.93099 -414.241983 
L 127.630237 -447.516115 
L 124.329483 -477.147162 
L 121.02873 -512.434399 
L 117.727976 -517.731475 
z
" style="stroke: #156400; stroke-opacity: 0.4"/>
    </defs>
    <g clip-path="url(#p8f6d98bc12)">
     <use xlink:href="#m2ae9a27030" x="0" y="576" style="fill: #156400; fill-opacity: 0.4; stroke: #156400; stroke-opacity: 0.4"/>
    </g>
   </g>
   <g id="matplotlib.axis_1">
    <g id="xtick_1">
     <g id="line2d_1">
      <defs>
       <path id="m422e0e6af2" d="M 0 0 
L 0 3.5 
" style="stroke: #000000; stroke-width: 0.8"/>
      </defs>
      <g>
       <use xlink:href="#m422e0e6af2" x="117.727976" y="232.3" style="stroke: #000000; stroke-width: 0.8"/>
      </g>
     </g>
     <g id="text_1">
      <!-- 0 -->
      <g transform="translate(110.729226 256.016562) scale(0.22 -0.22)">
       <defs>
        <path id="DejaVuSans-30" d="M 2034 4250 
Q 1547 4250 1301 3770 
Q 1056 3291 1056 2328 
Q 1056 1369 1301 889 
Q 1547 409 2034 409 
Q 2525 409 2770 889 
Q 3016 1369 3016 2328 
Q 3016 3291 2770 3770 
Q 2525 4250 2034 4250 
z
M 2034 4750 
Q 2819 4750 3233 4129 
Q 3647 3509 3647 2328 
Q 3647 1150 3233 529 
Q 2819 -91 2034 -91 
Q 1250 -91 836 529 
Q 422 1150 422 2328 
Q 422 3509 836 4129 
Q 1250 4750 2034 4750 
z
" transform="scale(0.015625)"/>
       </defs>
       <use xlink:href="#DejaVuSans-30"/>
      </g>
     </g>
    </g>
    <g id="xtick_2">
     <g id="line2d_2">
      <g>
       <use xlink:href="#m422e0e6af2" x="249.758116" y="232.3" style="stroke: #000000; stroke-width: 0.8"/>
      </g>
     </g>
     <g id="text_2">
      <!-- 1000 -->
      <g transform="translate(221.763116 256.016562) scale(0.22 -0.22)">
       <defs>
        <path id="DejaVuSans-31" d="M 794 531 
L 1825 531 
L 1825 4091 
L 703 3866 
L 703 4441 
L 1819 4666 
L 2450 4666 
L 2450 531 
L 3481 531 
L 3481 0 
L 794 0 
L 794 531 
z
" transform="scale(0.015625)"/>
       </defs>
       <use xlink:href="#DejaVuSans-31"/>
       <use xlink:href="#DejaVuSans-30" x="63.623047"/>
       <use xlink:href="#DejaVuSans-30" x="127.246094"/>
       <use xlink:href="#DejaVuSans-30" x="190.869141"/>
      </g>
     </g>
    </g>
    <g id="xtick_3">
     <g id="line2d_3">
      <g>
       <use xlink:href="#m422e0e6af2" x="381.788255" y="232.3" style="stroke: #000000; stroke-width: 0.8"/>
      </g>
     </g>
     <g id="text_3">
      <!-- 2000 -->
      <g transform="translate(353.793255 256.016562) scale(0.22 -0.22)">
       <defs>
        <path id="DejaVuSans-32" d="M 1228 531 
L 3431 531 
L 3431 0 
L 469 0 
L 469 531 
Q 828 903 1448 1529 
Q 2069 2156 2228 2338 
Q 2531 2678 2651 2914 
Q 2772 3150 2772 3378 
Q 2772 3750 2511 3984 
Q 2250 4219 1831 4219 
Q 1534 4219 1204 4116 
Q 875 4013 500 3803 
L 500 4441 
Q 881 4594 1212 4672 
Q 1544 4750 1819 4750 
Q 2544 4750 2975 4387 
Q 3406 4025 3406 3419 
Q 3406 3131 3298 2873 
Q 3191 2616 2906 2266 
Q 2828 2175 2409 1742 
Q 1991 1309 1228 531 
z
" transform="scale(0.015625)"/>
       </defs>
       <use xlink:href="#DejaVuSans-32"/>
       <use xlink:href="#DejaVuSans-30" x="63.623047"/>
       <use xlink:href="#DejaVuSans-30" x="127.246094"/>
       <use xlink:href="#DejaVuSans-30" x="190.869141"/>
      </g>
     </g>
    </g>
    <g id="text_4">
     <!-- Iterations -->
     <g transform="translate(195.71852 281.308437) scale(0.22 -0.22)">
      <defs>
       <path id="DejaVuSans-49" d="M 628 4666 
L 1259 4666 
L 1259 0 
L 628 0 
L 628 4666 
z
" transform="scale(0.015625)"/>
       <path id="DejaVuSans-74" d="M 1172 4494 
L 1172 3500 
L 2356 3500 
L 2356 3053 
L 1172 3053 
L 1172 1153 
Q 1172 725 1289 603 
Q 1406 481 1766 481 
L 2356 481 
L 2356 0 
L 1766 0 
Q 1100 0 847 248 
Q 594 497 594 1153 
L 594 3053 
L 172 3053 
L 172 3500 
L 594 3500 
L 594 4494 
L 1172 4494 
z
" transform="scale(0.015625)"/>
       <path id="DejaVuSans-65" d="M 3597 1894 
L 3597 1613 
L 953 1613 
Q 991 1019 1311 708 
Q 1631 397 2203 397 
Q 2534 397 2845 478 
Q 3156 559 3463 722 
L 3463 178 
Q 3153 47 2828 -22 
Q 2503 -91 2169 -91 
Q 1331 -91 842 396 
Q 353 884 353 1716 
Q 353 2575 817 3079 
Q 1281 3584 2069 3584 
Q 2775 3584 3186 3129 
Q 3597 2675 3597 1894 
z
M 3022 2063 
Q 3016 2534 2758 2815 
Q 2500 3097 2075 3097 
Q 1594 3097 1305 2825 
Q 1016 2553 972 2059 
L 3022 2063 
z
" transform="scale(0.015625)"/>
       <path id="DejaVuSans-72" d="M 2631 2963 
Q 2534 3019 2420 3045 
Q 2306 3072 2169 3072 
Q 1681 3072 1420 2755 
Q 1159 2438 1159 1844 
L 1159 0 
L 581 0 
L 581 3500 
L 1159 3500 
L 1159 2956 
Q 1341 3275 1631 3429 
Q 1922 3584 2338 3584 
Q 2397 3584 2469 3576 
Q 2541 3569 2628 3553 
L 2631 2963 
z
" transform="scale(0.015625)"/>
       <path id="DejaVuSans-61" d="M 2194 1759 
Q 1497 1759 1228 1600 
Q 959 1441 959 1056 
Q 959 750 1161 570 
Q 1363 391 1709 391 
Q 2188 391 2477 730 
Q 2766 1069 2766 1631 
L 2766 1759 
L 2194 1759 
z
M 3341 1997 
L 3341 0 
L 2766 0 
L 2766 531 
Q 2569 213 2275 61 
Q 1981 -91 1556 -91 
Q 1019 -91 701 211 
Q 384 513 384 1019 
Q 384 1609 779 1909 
Q 1175 2209 1959 2209 
L 2766 2209 
L 2766 2266 
Q 2766 2663 2505 2880 
Q 2244 3097 1772 3097 
Q 1472 3097 1187 3025 
Q 903 2953 641 2809 
L 641 3341 
Q 956 3463 1253 3523 
Q 1550 3584 1831 3584 
Q 2591 3584 2966 3190 
Q 3341 2797 3341 1997 
z
" transform="scale(0.015625)"/>
       <path id="DejaVuSans-69" d="M 603 3500 
L 1178 3500 
L 1178 0 
L 603 0 
L 603 3500 
z
M 603 4863 
L 1178 4863 
L 1178 4134 
L 603 4134 
L 603 4863 
z
" transform="scale(0.015625)"/>
       <path id="DejaVuSans-6f" d="M 1959 3097 
Q 1497 3097 1228 2736 
Q 959 2375 959 1747 
Q 959 1119 1226 758 
Q 1494 397 1959 397 
Q 2419 397 2687 759 
Q 2956 1122 2956 1747 
Q 2956 2369 2687 2733 
Q 2419 3097 1959 3097 
z
M 1959 3584 
Q 2709 3584 3137 3096 
Q 3566 2609 3566 1747 
Q 3566 888 3137 398 
Q 2709 -91 1959 -91 
Q 1206 -91 779 398 
Q 353 888 353 1747 
Q 353 2609 779 3096 
Q 1206 3584 1959 3584 
z
" transform="scale(0.015625)"/>
       <path id="DejaVuSans-6e" d="M 3513 2113 
L 3513 0 
L 2938 0 
L 2938 2094 
Q 2938 2591 2744 2837 
Q 2550 3084 2163 3084 
Q 1697 3084 1428 2787 
Q 1159 2491 1159 1978 
L 1159 0 
L 581 0 
L 581 3500 
L 1159 3500 
L 1159 2956 
Q 1366 3272 1645 3428 
Q 1925 3584 2291 3584 
Q 2894 3584 3203 3211 
Q 3513 2838 3513 2113 
z
" transform="scale(0.015625)"/>
       <path id="DejaVuSans-73" d="M 2834 3397 
L 2834 2853 
Q 2591 2978 2328 3040 
Q 2066 3103 1784 3103 
Q 1356 3103 1142 2972 
Q 928 2841 928 2578 
Q 928 2378 1081 2264 
Q 1234 2150 1697 2047 
L 1894 2003 
Q 2506 1872 2764 1633 
Q 3022 1394 3022 966 
Q 3022 478 2636 193 
Q 2250 -91 1575 -91 
Q 1294 -91 989 -36 
Q 684 19 347 128 
L 347 722 
Q 666 556 975 473 
Q 1284 391 1588 391 
Q 1994 391 2212 530 
Q 2431 669 2431 922 
Q 2431 1156 2273 1281 
Q 2116 1406 1581 1522 
L 1381 1569 
Q 847 1681 609 1914 
Q 372 2147 372 2553 
Q 372 3047 722 3315 
Q 1072 3584 1716 3584 
Q 2034 3584 2315 3537 
Q 2597 3491 2834 3397 
z
" transform="scale(0.015625)"/>
      </defs>
      <use xlink:href="#DejaVuSans-49"/>
      <use xlink:href="#DejaVuSans-74" x="29.492188"/>
      <use xlink:href="#DejaVuSans-65" x="68.701172"/>
      <use xlink:href="#DejaVuSans-72" x="130.224609"/>
      <use xlink:href="#DejaVuSans-61" x="171.337891"/>
      <use xlink:href="#DejaVuSans-74" x="232.617188"/>
      <use xlink:href="#DejaVuSans-69" x="271.826172"/>
      <use xlink:href="#DejaVuSans-6f" x="299.609375"/>
      <use xlink:href="#DejaVuSans-6e" x="360.791016"/>
      <use xlink:href="#DejaVuSans-73" x="424.169922"/>
     </g>
    </g>
   </g>
   <g id="matplotlib.axis_2">
    <g id="ytick_1">
     <g id="line2d_4">
      <defs>
       <path id="md75c9c3bb1" d="M 0 0 
L -3.5 0 
" style="stroke: #000000; stroke-width: 0.8"/>
      </defs>
      <g>
       <use xlink:href="#md75c9c3bb1" x="104.69" y="226.915857" style="stroke: #000000; stroke-width: 0.8"/>
      </g>
     </g>
     <g id="text_5">
      <!-- 0.00 -->
      <g transform="translate(48.705625 235.274139) scale(0.22 -0.22)">
       <defs>
        <path id="DejaVuSans-2e" d="M 684 794 
L 1344 794 
L 1344 0 
L 684 0 
L 684 794 
z
" transform="scale(0.015625)"/>
       </defs>
       <use xlink:href="#DejaVuSans-30"/>
       <use xlink:href="#DejaVuSans-2e" x="63.623047"/>
       <use xlink:href="#DejaVuSans-30" x="95.410156"/>
       <use xlink:href="#DejaVuSans-30" x="159.033203"/>
      </g>
     </g>
    </g>
    <g id="ytick_2">
     <g id="line2d_5">
      <g>
       <use xlink:href="#md75c9c3bb1" x="104.69" y="184.73543" style="stroke: #000000; stroke-width: 0.8"/>
      </g>
     </g>
     <g id="text_6">
      <!-- 0.25 -->
      <g transform="translate(48.705625 193.093711) scale(0.22 -0.22)">
       <defs>
        <path id="DejaVuSans-35" d="M 691 4666 
L 3169 4666 
L 3169 4134 
L 1269 4134 
L 1269 2991 
Q 1406 3038 1543 3061 
Q 1681 3084 1819 3084 
Q 2600 3084 3056 2656 
Q 3513 2228 3513 1497 
Q 3513 744 3044 326 
Q 2575 -91 1722 -91 
Q 1428 -91 1123 -41 
Q 819 9 494 109 
L 494 744 
Q 775 591 1075 516 
Q 1375 441 1709 441 
Q 2250 441 2565 725 
Q 2881 1009 2881 1497 
Q 2881 1984 2565 2268 
Q 2250 2553 1709 2553 
Q 1456 2553 1204 2497 
Q 953 2441 691 2322 
L 691 4666 
z
" transform="scale(0.015625)"/>
       </defs>
       <use xlink:href="#DejaVuSans-30"/>
       <use xlink:href="#DejaVuSans-2e" x="63.623047"/>
       <use xlink:href="#DejaVuSans-32" x="95.410156"/>
       <use xlink:href="#DejaVuSans-35" x="159.033203"/>
      </g>
     </g>
    </g>
    <g id="ytick_3">
     <g id="line2d_6">
      <g>
       <use xlink:href="#md75c9c3bb1" x="104.69" y="142.555002" style="stroke: #000000; stroke-width: 0.8"/>
      </g>
     </g>
     <g id="text_7">
      <!-- 0.50 -->
      <g transform="translate(48.705625 150.913283) scale(0.22 -0.22)">
       <use xlink:href="#DejaVuSans-30"/>
       <use xlink:href="#DejaVuSans-2e" x="63.623047"/>
       <use xlink:href="#DejaVuSans-35" x="95.410156"/>
       <use xlink:href="#DejaVuSans-30" x="159.033203"/>
      </g>
     </g>
    </g>
    <g id="ytick_4">
     <g id="line2d_7">
      <g>
       <use xlink:href="#md75c9c3bb1" x="104.69" y="100.374574" style="stroke: #000000; stroke-width: 0.8"/>
      </g>
     </g>
     <g id="text_8">
      <!-- 0.75 -->
      <g transform="translate(48.705625 108.732856) scale(0.22 -0.22)">
       <defs>
        <path id="DejaVuSans-37" d="M 525 4666 
L 3525 4666 
L 3525 4397 
L 1831 0 
L 1172 0 
L 2766 4134 
L 525 4134 
L 525 4666 
z
" transform="scale(0.015625)"/>
       </defs>
       <use xlink:href="#DejaVuSans-30"/>
       <use xlink:href="#DejaVuSans-2e" x="63.623047"/>
       <use xlink:href="#DejaVuSans-37" x="95.410156"/>
       <use xlink:href="#DejaVuSans-35" x="159.033203"/>
      </g>
     </g>
    </g>
    <g id="ytick_5">
     <g id="line2d_8">
      <g>
       <use xlink:href="#md75c9c3bb1" x="104.69" y="58.194147" style="stroke: #000000; stroke-width: 0.8"/>
      </g>
     </g>
     <g id="text_9">
      <!-- 1.00 -->
      <g transform="translate(48.705625 66.552428) scale(0.22 -0.22)">
       <use xlink:href="#DejaVuSans-31"/>
       <use xlink:href="#DejaVuSans-2e" x="63.623047"/>
       <use xlink:href="#DejaVuSans-30" x="95.410156"/>
       <use xlink:href="#DejaVuSans-30" x="159.033203"/>
      </g>
     </g>
    </g>
    <g id="text_10">
     <!-- nMSE -->
     <g transform="translate(40.130313 171.506094) rotate(-90) scale(0.22 -0.22)">
      <defs>
       <path id="DejaVuSans-4d" d="M 628 4666 
L 1569 4666 
L 2759 1491 
L 3956 4666 
L 4897 4666 
L 4897 0 
L 4281 0 
L 4281 4097 
L 3078 897 
L 2444 897 
L 1241 4097 
L 1241 0 
L 628 0 
L 628 4666 
z
" transform="scale(0.015625)"/>
       <path id="DejaVuSans-53" d="M 3425 4513 
L 3425 3897 
Q 3066 4069 2747 4153 
Q 2428 4238 2131 4238 
Q 1616 4238 1336 4038 
Q 1056 3838 1056 3469 
Q 1056 3159 1242 3001 
Q 1428 2844 1947 2747 
L 2328 2669 
Q 3034 2534 3370 2195 
Q 3706 1856 3706 1288 
Q 3706 609 3251 259 
Q 2797 -91 1919 -91 
Q 1588 -91 1214 -16 
Q 841 59 441 206 
L 441 856 
Q 825 641 1194 531 
Q 1563 422 1919 422 
Q 2459 422 2753 634 
Q 3047 847 3047 1241 
Q 3047 1584 2836 1778 
Q 2625 1972 2144 2069 
L 1759 2144 
Q 1053 2284 737 2584 
Q 422 2884 422 3419 
Q 422 4038 858 4394 
Q 1294 4750 2059 4750 
Q 2388 4750 2728 4690 
Q 3069 4631 3425 4513 
z
" transform="scale(0.015625)"/>
       <path id="DejaVuSans-45" d="M 628 4666 
L 3578 4666 
L 3578 4134 
L 1259 4134 
L 1259 2753 
L 3481 2753 
L 3481 2222 
L 1259 2222 
L 1259 531 
L 3634 531 
L 3634 0 
L 628 0 
L 628 4666 
z
" transform="scale(0.015625)"/>
      </defs>
      <use xlink:href="#DejaVuSans-6e"/>
      <use xlink:href="#DejaVuSans-4d" x="63.378906"/>
      <use xlink:href="#DejaVuSans-53" x="149.658203"/>
      <use xlink:href="#DejaVuSans-45" x="213.134766"/>
     </g>
    </g>
   </g>
   <g id="line2d_9">
    <path d="M 117.727976 58.399535 
L 121.02873 105.364618 
L 124.329483 147.970829 
L 127.630237 170.132354 
L 130.93099 184.302992 
L 134.231744 192.052217 
L 137.532497 197.820746 
L 140.833251 197.377636 
L 144.134004 201.1019 
L 147.434758 202.826778 
L 150.735511 206.996463 
L 154.036265 209.097253 
L 157.337018 210.883665 
L 160.637772 212.248895 
L 163.938525 212.10037 
L 167.239278 212.847227 
L 170.540032 213.96308 
L 173.840785 214.581 
L 177.141539 212.252258 
L 180.442292 215.063042 
L 183.743046 214.424564 
L 187.043799 215.098025 
L 190.344553 216.036609 
L 193.645306 216.567974 
L 196.94606 216.451924 
L 200.246813 217.441185 
L 203.547567 216.701949 
L 206.84832 217.601603 
L 210.149074 217.187181 
L 213.449827 217.243081 
L 216.750581 218.249282 
L 220.051334 217.583479 
L 223.352088 218.062865 
L 226.652841 217.937832 
L 229.953595 218.009298 
L 233.254348 217.638364 
L 236.555102 218.131073 
L 239.855855 218.53111 
L 243.156609 218.824815 
L 246.457362 219.59085 
L 249.758116 219.166329 
L 253.058869 219.334929 
L 256.359622 219.196358 
L 259.660376 219.984465 
L 262.961129 220.186643 
L 266.261883 219.810758 
L 269.562636 219.860611 
L 272.86339 220.55953 
L 276.164143 220.629268 
L 279.464897 220.510138 
L 282.76565 220.255247 
L 286.066404 220.535445 
L 289.367157 220.664835 
L 292.667911 220.81479 
L 295.968664 219.865786 
L 299.269418 220.216532 
L 302.570171 221.128769 
L 305.870925 221.210388 
L 309.171678 220.524994 
L 312.472432 221.212185 
L 315.773185 221.662973 
L 319.073939 220.73462 
L 322.374692 220.891005 
L 325.675446 221.244034 
L 328.976199 221.028964 
L 332.276953 221.464946 
L 335.577706 221.212888 
L 338.87846 221.1135 
L 342.179213 220.880008 
L 345.479966 221.688217 
L 348.78072 221.608357 
L 352.081473 221.895994 
L 355.382227 221.69227 
L 358.68298 221.765725 
L 361.983734 221.076492 
L 365.284487 221.909506 
L 368.585241 221.621674 
L 371.885994 221.623915 
L 375.186748 221.070666 
L 378.487501 221.630263 
" clip-path="url(#p8f6d98bc12)" style="fill: none; stroke: #62d643; stroke-width: 1.5; stroke-linecap: square"/>
   </g>
   <g id="line2d_10">
    <path d="M 117.727976 58.42959 
L 121.02873 76.794681 
L 124.329483 136.779298 
L 127.630237 162.141398 
L 130.93099 178.714602 
L 134.231744 189.520006 
L 137.532497 194.173042 
L 140.833251 200.019825 
L 144.134004 203.934573 
L 147.434758 205.915811 
L 150.735511 208.145756 
L 154.036265 209.546288 
L 157.337018 211.879263 
L 160.637772 211.164831 
L 163.938525 212.392172 
L 167.239278 214.956902 
L 170.540032 214.35272 
L 173.840785 216.112571 
L 177.141539 215.700941 
L 180.442292 215.471916 
L 183.743046 216.759353 
L 187.043799 217.604535 
L 190.344553 215.983656 
L 193.645306 217.593811 
L 196.94606 217.028948 
L 200.246813 218.679808 
L 203.547567 218.70491 
L 206.84832 218.781429 
L 210.149074 218.202127 
L 213.449827 219.346399 
L 216.750581 219.585759 
L 220.051334 218.774025 
L 223.352088 218.089505 
L 226.652841 219.442472 
L 229.953595 218.308378 
L 233.254348 219.95862 
L 236.555102 219.221035 
L 239.855855 219.653805 
L 243.156609 220.288241 
L 246.457362 219.504938 
L 249.758116 219.913229 
L 253.058869 220.67782 
L 256.359622 220.915831 
L 259.660376 219.533692 
L 262.961129 220.43012 
L 266.261883 220.363371 
L 269.562636 220.865651 
L 272.86339 221.271817 
L 276.164143 221.301886 
L 279.464897 220.542692 
L 282.76565 220.905051 
L 286.066404 221.333802 
L 289.367157 221.416833 
L 292.667911 221.281126 
L 295.968664 221.470555 
L 299.269418 221.610291 
L 302.570171 221.144877 
L 305.870925 221.295802 
L 309.171678 221.265165 
L 312.472432 221.175019 
L 315.773185 220.569185 
L 319.073939 221.692587 
L 322.374692 220.863308 
L 325.675446 221.383629 
L 328.976199 221.36632 
L 332.276953 222.121752 
L 335.577706 221.77377 
L 338.87846 222.309042 
L 342.179213 222.106833 
L 345.479966 222.365454 
L 348.78072 222.393226 
L 352.081473 222.467947 
L 355.382227 222.401664 
L 358.68298 222.281857 
L 361.983734 222.510707 
L 365.284487 222.202576 
L 368.585241 222.338315 
L 371.885994 222.598985 
L 375.186748 222.344776 
L 378.487501 222.192282 
" clip-path="url(#p8f6d98bc12)" style="fill: none; stroke: #3bcf14; stroke-width: 1.5; stroke-linecap: square"/>
   </g>
   <g id="line2d_11">
    <path d="M 117.727976 58.412168 
L 121.02873 72.396856 
L 124.329483 117.684342 
L 127.630237 150.223614 
L 130.93099 169.790412 
L 134.231744 181.984951 
L 137.532497 191.598617 
L 140.833251 199.377027 
L 144.134004 202.912144 
L 147.434758 204.900613 
L 150.735511 208.514213 
L 154.036265 210.984413 
L 157.337018 210.869603 
L 160.637772 211.09963 
L 163.938525 212.689688 
L 167.239278 213.010915 
L 170.540032 212.879745 
L 173.840785 214.542248 
L 177.141539 214.91594 
L 180.442292 214.297709 
L 183.743046 215.464457 
L 187.043799 216.471468 
L 190.344553 217.05835 
L 193.645306 218.257957 
L 196.94606 218.195055 
L 200.246813 217.663881 
L 203.547567 218.559332 
L 206.84832 218.917814 
L 210.149074 219.250604 
L 213.449827 217.873022 
L 216.750581 219.717455 
L 220.051334 219.328004 
L 223.352088 218.565252 
L 226.652841 219.949742 
L 229.953595 220.244948 
L 233.254348 220.488074 
L 236.555102 220.448217 
L 239.855855 220.7396 
L 243.156609 219.838376 
L 246.457362 220.525902 
L 249.758116 220.703804 
L 253.058869 221.184975 
L 256.359622 220.937025 
L 259.660376 220.726506 
L 262.961129 221.240623 
L 266.261883 221.453846 
L 269.562636 220.960333 
L 272.86339 221.608957 
L 276.164143 221.395383 
L 279.464897 221.333784 
L 282.76565 221.859245 
L 286.066404 221.150639 
L 289.367157 221.488029 
L 292.667911 221.110366 
L 295.968664 222.0338 
L 299.269418 221.800471 
L 302.570171 222.033296 
L 305.870925 222.29358 
L 309.171678 221.824962 
L 312.472432 221.969567 
L 315.773185 222.565371 
L 319.073939 222.181987 
L 322.374692 222.097811 
L 325.675446 222.164548 
L 328.976199 222.107692 
L 332.276953 222.046706 
L 335.577706 222.646826 
L 338.87846 222.354005 
L 342.179213 222.206234 
L 345.479966 222.493726 
L 348.78072 222.553951 
L 352.081473 221.87865 
L 355.382227 222.926324 
L 358.68298 222.736348 
L 361.983734 222.895709 
L 365.284487 222.892319 
L 368.585241 222.840542 
L 371.885994 223.014395 
L 375.186748 222.89053 
L 378.487501 222.777454 
" clip-path="url(#p8f6d98bc12)" style="fill: none; stroke: #1d8a00; stroke-width: 1.5; stroke-linecap: square"/>
   </g>
   <g id="line2d_12">
    <path d="M 117.727976 58.397304 
L 121.02873 82.987093 
L 124.329483 128.331678 
L 127.630237 153.630003 
L 130.93099 174.719306 
L 134.231744 186.404649 
L 137.532497 191.759881 
L 140.833251 198.785118 
L 144.134004 202.488885 
L 147.434758 204.068567 
L 150.735511 205.918519 
L 154.036265 208.434247 
L 157.337018 211.183391 
L 160.637772 212.062647 
L 163.938525 211.978374 
L 167.239278 213.060931 
L 170.540032 214.278307 
L 173.840785 214.914409 
L 177.141539 215.33376 
L 180.442292 215.018301 
L 183.743046 217.189197 
L 187.043799 217.179395 
L 190.344553 216.763472 
L 193.645306 217.143899 
L 196.94606 217.861649 
L 200.246813 217.2929 
L 203.547567 218.337938 
L 206.84832 218.534442 
L 210.149074 218.002839 
L 213.449827 219.571473 
L 216.750581 219.092333 
L 220.051334 218.810814 
L 223.352088 219.236098 
L 226.652841 219.378892 
L 229.953595 219.657093 
L 233.254348 219.931106 
L 236.555102 220.046556 
L 239.855855 220.68688 
L 243.156609 219.764854 
L 246.457362 220.677827 
L 249.758116 220.474701 
L 253.058869 220.264779 
L 256.359622 220.993478 
L 259.660376 220.810956 
L 262.961129 219.348688 
L 266.261883 219.95572 
L 269.562636 219.68341 
L 272.86339 220.700533 
L 276.164143 220.134558 
L 279.464897 221.075347 
L 282.76565 220.88632 
L 286.066404 220.230806 
L 289.367157 221.334533 
L 292.667911 221.428188 
L 295.968664 221.096219 
L 299.269418 221.22727 
L 302.570171 220.880161 
L 305.870925 221.234183 
L 309.171678 221.668578 
L 312.472432 221.123158 
L 315.773185 220.958332 
L 319.073939 221.572342 
L 322.374692 221.739855 
L 325.675446 221.278253 
L 328.976199 221.307404 
L 332.276953 221.565974 
L 335.577706 221.791651 
L 338.87846 221.610234 
L 342.179213 222.051611 
L 345.479966 221.362353 
L 348.78072 222.131965 
L 352.081473 221.691175 
L 355.382227 221.960162 
L 358.68298 221.57946 
L 361.983734 222.188093 
L 365.284487 221.812266 
L 368.585241 222.288138 
L 371.885994 221.962273 
L 375.186748 222.489867 
L 378.487501 222.244967 
" clip-path="url(#p8f6d98bc12)" style="fill: none; stroke: #156400; stroke-width: 1.5; stroke-linecap: square"/>
   </g>
   <g id="patch_3">
    <path d="M 104.69 232.3 
L 104.69 49.92 
" style="fill: none; stroke: #000000; stroke-width: 0.8; stroke-linejoin: miter; stroke-linecap: square"/>
   </g>
   <g id="patch_4">
    <path d="M 104.69 232.3 
L 391.525478 232.3 
" style="fill: none; stroke: #000000; stroke-width: 0.8; stroke-linejoin: miter; stroke-linecap: square"/>
   </g>
   <g id="text_11">
    <!-- Pattern Generation -->
    <g transform="translate(122.788176 43.92) scale(0.264 -0.264)">
     <defs>
      <path id="DejaVuSans-50" d="M 1259 4147 
L 1259 2394 
L 2053 2394 
Q 2494 2394 2734 2622 
Q 2975 2850 2975 3272 
Q 2975 3691 2734 3919 
Q 2494 4147 2053 4147 
L 1259 4147 
z
M 628 4666 
L 2053 4666 
Q 2838 4666 3239 4311 
Q 3641 3956 3641 3272 
Q 3641 2581 3239 2228 
Q 2838 1875 2053 1875 
L 1259 1875 
L 1259 0 
L 628 0 
L 628 4666 
z
" transform="scale(0.015625)"/>
      <path id="DejaVuSans-20" transform="scale(0.015625)"/>
      <path id="DejaVuSans-47" d="M 3809 666 
L 3809 1919 
L 2778 1919 
L 2778 2438 
L 4434 2438 
L 4434 434 
Q 4069 175 3628 42 
Q 3188 -91 2688 -91 
Q 1594 -91 976 548 
Q 359 1188 359 2328 
Q 359 3472 976 4111 
Q 1594 4750 2688 4750 
Q 3144 4750 3555 4637 
Q 3966 4525 4313 4306 
L 4313 3634 
Q 3963 3931 3569 4081 
Q 3175 4231 2741 4231 
Q 1884 4231 1454 3753 
Q 1025 3275 1025 2328 
Q 1025 1384 1454 906 
Q 1884 428 2741 428 
Q 3075 428 3337 486 
Q 3600 544 3809 666 
z
" transform="scale(0.015625)"/>
     </defs>
     <use xlink:href="#DejaVuSans-50"/>
     <use xlink:href="#DejaVuSans-61" x="55.802734"/>
     <use xlink:href="#DejaVuSans-74" x="117.082031"/>
     <use xlink:href="#DejaVuSans-74" x="156.291016"/>
     <use xlink:href="#DejaVuSans-65" x="195.5"/>
     <use xlink:href="#DejaVuSans-72" x="257.023438"/>
     <use xlink:href="#DejaVuSans-6e" x="296.386719"/>
     <use xlink:href="#DejaVuSans-20" x="359.765625"/>
     <use xlink:href="#DejaVuSans-47" x="391.552734"/>
     <use xlink:href="#DejaVuSans-65" x="469.042969"/>
     <use xlink:href="#DejaVuSans-6e" x="530.566406"/>
     <use xlink:href="#DejaVuSans-65" x="593.945312"/>
     <use xlink:href="#DejaVuSans-72" x="655.46875"/>
     <use xlink:href="#DejaVuSans-61" x="696.582031"/>
     <use xlink:href="#DejaVuSans-74" x="757.861328"/>
     <use xlink:href="#DejaVuSans-69" x="797.070312"/>
     <use xlink:href="#DejaVuSans-6f" x="824.853516"/>
     <use xlink:href="#DejaVuSans-6e" x="886.035156"/>
    </g>
   </g>
   <g id="legend_1">
    <g id="patch_5">
     <path d="M 225.566415 196.6875 
L 376.125478 196.6875 
Q 380.525478 196.6875 380.525478 192.2875 
L 380.525478 65.32 
Q 380.525478 60.92 376.125478 60.92 
L 225.566415 60.92 
Q 221.166415 60.92 221.166415 65.32 
L 221.166415 192.2875 
Q 221.166415 196.6875 225.566415 196.6875 
z
" style="fill: #ffffff; opacity: 0.8; stroke: #cccccc; stroke-linejoin: miter"/>
    </g>
    <g id="line2d_13">
     <path d="M 229.966415 78.736562 
L 251.966415 78.736562 
L 273.966415 78.736562 
" style="fill: none; stroke: #62d643; stroke-width: 1.5; stroke-linecap: square"/>
    </g>
    <g id="text_12">
     <!-- k=0.25 -->
     <g transform="translate(291.566415 86.436562) scale(0.22 -0.22)">
      <defs>
       <path id="DejaVuSans-6b" d="M 581 4863 
L 1159 4863 
L 1159 1991 
L 2875 3500 
L 3609 3500 
L 1753 1863 
L 3688 0 
L 2938 0 
L 1159 1709 
L 1159 0 
L 581 0 
L 581 4863 
z
" transform="scale(0.015625)"/>
       <path id="DejaVuSans-3d" d="M 678 2906 
L 4684 2906 
L 4684 2381 
L 678 2381 
L 678 2906 
z
M 678 1631 
L 4684 1631 
L 4684 1100 
L 678 1100 
L 678 1631 
z
" transform="scale(0.015625)"/>
      </defs>
      <use xlink:href="#DejaVuSans-6b"/>
      <use xlink:href="#DejaVuSans-3d" x="57.910156"/>
      <use xlink:href="#DejaVuSans-30" x="141.699219"/>
      <use xlink:href="#DejaVuSans-2e" x="205.322266"/>
      <use xlink:href="#DejaVuSans-32" x="237.109375"/>
      <use xlink:href="#DejaVuSans-35" x="300.732422"/>
     </g>
    </g>
    <g id="line2d_14">
     <path d="M 229.966415 111.028437 
L 251.966415 111.028437 
L 273.966415 111.028437 
" style="fill: none; stroke: #3bcf14; stroke-width: 1.5; stroke-linecap: square"/>
    </g>
    <g id="text_13">
     <!-- k=0.50 -->
     <g transform="translate(291.566415 118.728437) scale(0.22 -0.22)">
      <use xlink:href="#DejaVuSans-6b"/>
      <use xlink:href="#DejaVuSans-3d" x="57.910156"/>
      <use xlink:href="#DejaVuSans-30" x="141.699219"/>
      <use xlink:href="#DejaVuSans-2e" x="205.322266"/>
      <use xlink:href="#DejaVuSans-35" x="237.109375"/>
      <use xlink:href="#DejaVuSans-30" x="300.732422"/>
     </g>
    </g>
    <g id="line2d_15">
     <path d="M 229.966415 143.320312 
L 251.966415 143.320312 
L 273.966415 143.320312 
" style="fill: none; stroke: #1d8a00; stroke-width: 1.5; stroke-linecap: square"/>
    </g>
    <g id="text_14">
     <!-- k=0.75 -->
     <g transform="translate(291.566415 151.020312) scale(0.22 -0.22)">
      <use xlink:href="#DejaVuSans-6b"/>
      <use xlink:href="#DejaVuSans-3d" x="57.910156"/>
      <use xlink:href="#DejaVuSans-30" x="141.699219"/>
      <use xlink:href="#DejaVuSans-2e" x="205.322266"/>
      <use xlink:href="#DejaVuSans-37" x="237.109375"/>
      <use xlink:href="#DejaVuSans-35" x="300.732422"/>
     </g>
    </g>
    <g id="line2d_16">
     <path d="M 229.966415 175.612188 
L 251.966415 175.612188 
L 273.966415 175.612188 
" style="fill: none; stroke: #156400; stroke-width: 1.5; stroke-linecap: square"/>
    </g>
    <g id="text_15">
     <!-- k=0.90 -->
     <g transform="translate(291.566415 183.312187) scale(0.22 -0.22)">
      <defs>
       <path id="DejaVuSans-39" d="M 703 97 
L 703 672 
Q 941 559 1184 500 
Q 1428 441 1663 441 
Q 2288 441 2617 861 
Q 2947 1281 2994 2138 
Q 2813 1869 2534 1725 
Q 2256 1581 1919 1581 
Q 1219 1581 811 2004 
Q 403 2428 403 3163 
Q 403 3881 828 4315 
Q 1253 4750 1959 4750 
Q 2769 4750 3195 4129 
Q 3622 3509 3622 2328 
Q 3622 1225 3098 567 
Q 2575 -91 1691 -91 
Q 1453 -91 1209 -44 
Q 966 3 703 97 
z
M 1959 2075 
Q 2384 2075 2632 2365 
Q 2881 2656 2881 3163 
Q 2881 3666 2632 3958 
Q 2384 4250 1959 4250 
Q 1534 4250 1286 3958 
Q 1038 3666 1038 3163 
Q 1038 2656 1286 2365 
Q 1534 2075 1959 2075 
z
" transform="scale(0.015625)"/>
      </defs>
      <use xlink:href="#DejaVuSans-6b"/>
      <use xlink:href="#DejaVuSans-3d" x="57.910156"/>
      <use xlink:href="#DejaVuSans-30" x="141.699219"/>
      <use xlink:href="#DejaVuSans-2e" x="205.322266"/>
      <use xlink:href="#DejaVuSans-39" x="237.109375"/>
      <use xlink:href="#DejaVuSans-30" x="300.732422"/>
     </g>
    </g>
   </g>
  </g>
  <g id="axes_2">
   <g id="patch_6">
    <path d="M 104.69 499.48 
L 391.525478 499.48 
L 391.525478 317.1 
L 104.69 317.1 
z
" style="fill: #ffffff"/>
   </g>
   <g id="matplotlib.axis_3">
    <g id="xtick_4">
     <g id="line2d_17">
      <g>
       <use xlink:href="#m422e0e6af2" x="140.544435" y="499.48" style="stroke: #000000; stroke-width: 0.8"/>
      </g>
     </g>
     <g id="text_16">
      <!-- 0.25 -->
      <g transform="translate(116.052247 523.196563) scale(0.22 -0.22)">
       <use xlink:href="#DejaVuSans-30"/>
       <use xlink:href="#DejaVuSans-2e" x="63.623047"/>
       <use xlink:href="#DejaVuSans-32" x="95.410156"/>
       <use xlink:href="#DejaVuSans-35" x="159.033203"/>
      </g>
     </g>
    </g>
    <g id="xtick_5">
     <g id="line2d_18">
      <g>
       <use xlink:href="#m422e0e6af2" x="212.253304" y="499.48" style="stroke: #000000; stroke-width: 0.8"/>
      </g>
     </g>
     <g id="text_17">
      <!-- 0.50 -->
      <g transform="translate(187.761117 523.196563) scale(0.22 -0.22)">
       <use xlink:href="#DejaVuSans-30"/>
       <use xlink:href="#DejaVuSans-2e" x="63.623047"/>
       <use xlink:href="#DejaVuSans-35" x="95.410156"/>
       <use xlink:href="#DejaVuSans-30" x="159.033203"/>
      </g>
     </g>
    </g>
    <g id="xtick_6">
     <g id="line2d_19">
      <g>
       <use xlink:href="#m422e0e6af2" x="283.962173" y="499.48" style="stroke: #000000; stroke-width: 0.8"/>
      </g>
     </g>
     <g id="text_18">
      <!-- 0.75 -->
      <g transform="translate(259.469986 523.196563) scale(0.22 -0.22)">
       <use xlink:href="#DejaVuSans-30"/>
       <use xlink:href="#DejaVuSans-2e" x="63.623047"/>
       <use xlink:href="#DejaVuSans-37" x="95.410156"/>
       <use xlink:href="#DejaVuSans-35" x="159.033203"/>
      </g>
     </g>
    </g>
    <g id="xtick_7">
     <g id="line2d_20">
      <g>
       <use xlink:href="#m422e0e6af2" x="355.671043" y="499.48" style="stroke: #000000; stroke-width: 0.8"/>
      </g>
     </g>
     <g id="text_19">
      <!-- 0.90 -->
      <g transform="translate(331.178855 523.196563) scale(0.22 -0.22)">
       <use xlink:href="#DejaVuSans-30"/>
       <use xlink:href="#DejaVuSans-2e" x="63.623047"/>
       <use xlink:href="#DejaVuSans-39" x="95.410156"/>
       <use xlink:href="#DejaVuSans-30" x="159.033203"/>
      </g>
     </g>
    </g>
    <g id="text_20">
     <!-- k value -->
     <g transform="translate(208.194926 548.488438) scale(0.22 -0.22)">
      <defs>
       <path id="DejaVuSans-76" d="M 191 3500 
L 800 3500 
L 1894 563 
L 2988 3500 
L 3597 3500 
L 2284 0 
L 1503 0 
L 191 3500 
z
" transform="scale(0.015625)"/>
       <path id="DejaVuSans-6c" d="M 603 4863 
L 1178 4863 
L 1178 0 
L 603 0 
L 603 4863 
z
" transform="scale(0.015625)"/>
       <path id="DejaVuSans-75" d="M 544 1381 
L 544 3500 
L 1119 3500 
L 1119 1403 
Q 1119 906 1312 657 
Q 1506 409 1894 409 
Q 2359 409 2629 706 
Q 2900 1003 2900 1516 
L 2900 3500 
L 3475 3500 
L 3475 0 
L 2900 0 
L 2900 538 
Q 2691 219 2414 64 
Q 2138 -91 1772 -91 
Q 1169 -91 856 284 
Q 544 659 544 1381 
z
M 1991 3584 
L 1991 3584 
z
" transform="scale(0.015625)"/>
      </defs>
      <use xlink:href="#DejaVuSans-6b"/>
      <use xlink:href="#DejaVuSans-20" x="57.910156"/>
      <use xlink:href="#DejaVuSans-76" x="89.697266"/>
      <use xlink:href="#DejaVuSans-61" x="148.876953"/>
      <use xlink:href="#DejaVuSans-6c" x="210.15625"/>
      <use xlink:href="#DejaVuSans-75" x="237.939453"/>
      <use xlink:href="#DejaVuSans-65" x="301.318359"/>
     </g>
    </g>
   </g>
   <g id="matplotlib.axis_4">
    <g id="ytick_6">
     <g id="line2d_21">
      <g>
       <use xlink:href="#md75c9c3bb1" x="104.69" y="474.497988" style="stroke: #000000; stroke-width: 0.8"/>
      </g>
     </g>
     <g id="text_21">
      <!-- 0.02 -->
      <g transform="translate(48.705625 482.856269) scale(0.22 -0.22)">
       <use xlink:href="#DejaVuSans-30"/>
       <use xlink:href="#DejaVuSans-2e" x="63.623047"/>
       <use xlink:href="#DejaVuSans-30" x="95.410156"/>
       <use xlink:href="#DejaVuSans-32" x="159.033203"/>
      </g>
     </g>
    </g>
    <g id="ytick_7">
     <g id="line2d_22">
      <g>
       <use xlink:href="#md75c9c3bb1" x="104.69" y="395.798994" style="stroke: #000000; stroke-width: 0.8"/>
      </g>
     </g>
     <g id="text_22">
      <!-- 0.03 -->
      <g transform="translate(48.705625 404.157275) scale(0.22 -0.22)">
       <defs>
        <path id="DejaVuSans-33" d="M 2597 2516 
Q 3050 2419 3304 2112 
Q 3559 1806 3559 1356 
Q 3559 666 3084 287 
Q 2609 -91 1734 -91 
Q 1441 -91 1130 -33 
Q 819 25 488 141 
L 488 750 
Q 750 597 1062 519 
Q 1375 441 1716 441 
Q 2309 441 2620 675 
Q 2931 909 2931 1356 
Q 2931 1769 2642 2001 
Q 2353 2234 1838 2234 
L 1294 2234 
L 1294 2753 
L 1863 2753 
Q 2328 2753 2575 2939 
Q 2822 3125 2822 3475 
Q 2822 3834 2567 4026 
Q 2313 4219 1838 4219 
Q 1578 4219 1281 4162 
Q 984 4106 628 3988 
L 628 4550 
Q 988 4650 1302 4700 
Q 1616 4750 1894 4750 
Q 2613 4750 3031 4423 
Q 3450 4097 3450 3541 
Q 3450 3153 3228 2886 
Q 3006 2619 2597 2516 
z
" transform="scale(0.015625)"/>
       </defs>
       <use xlink:href="#DejaVuSans-30"/>
       <use xlink:href="#DejaVuSans-2e" x="63.623047"/>
       <use xlink:href="#DejaVuSans-30" x="95.410156"/>
       <use xlink:href="#DejaVuSans-33" x="159.033203"/>
      </g>
     </g>
    </g>
    <g id="ytick_8">
     <g id="line2d_23">
      <g>
       <use xlink:href="#md75c9c3bb1" x="104.69" y="317.1" style="stroke: #000000; stroke-width: 0.8"/>
      </g>
     </g>
     <g id="text_23">
      <!-- 0.04 -->
      <g transform="translate(48.705625 325.458281) scale(0.22 -0.22)">
       <defs>
        <path id="DejaVuSans-34" d="M 2419 4116 
L 825 1625 
L 2419 1625 
L 2419 4116 
z
M 2253 4666 
L 3047 4666 
L 3047 1625 
L 3713 1625 
L 3713 1100 
L 3047 1100 
L 3047 0 
L 2419 0 
L 2419 1100 
L 313 1100 
L 313 1709 
L 2253 4666 
z
" transform="scale(0.015625)"/>
       </defs>
       <use xlink:href="#DejaVuSans-30"/>
       <use xlink:href="#DejaVuSans-2e" x="63.623047"/>
       <use xlink:href="#DejaVuSans-30" x="95.410156"/>
       <use xlink:href="#DejaVuSans-34" x="159.033203"/>
      </g>
     </g>
    </g>
    <g id="text_24">
     <!-- nMSE -->
     <g transform="translate(40.130313 438.686094) rotate(-90) scale(0.22 -0.22)">
      <use xlink:href="#DejaVuSans-6e"/>
      <use xlink:href="#DejaVuSans-4d" x="63.378906"/>
      <use xlink:href="#DejaVuSans-53" x="149.658203"/>
      <use xlink:href="#DejaVuSans-45" x="213.134766"/>
     </g>
    </g>
   </g>
   <g id="patch_7">
    <path d="M 135.166269 411.92424 
L 145.9226 411.92424 
L 145.9226 366.826687 
L 135.166269 366.826687 
L 135.166269 411.92424 
z
" clip-path="url(#p5af303b08b)" style="fill: #62d643; stroke: #62d643; stroke-linejoin: miter"/>
   </g>
   <g id="line2d_24">
    <path d="M 140.544435 411.92424 
L 140.544435 419.099444 
" clip-path="url(#p5af303b08b)" style="fill: none; stroke: #000000; stroke-linecap: square"/>
   </g>
   <g id="line2d_25">
    <path d="M 140.544435 366.826687 
L 140.544435 333.19549 
" clip-path="url(#p5af303b08b)" style="fill: none; stroke: #000000; stroke-linecap: square"/>
   </g>
   <g id="line2d_26">
    <path d="M 137.855352 419.099444 
L 143.233517 419.099444 
" clip-path="url(#p5af303b08b)" style="fill: none; stroke: #000000; stroke-linecap: square"/>
   </g>
   <g id="line2d_27">
    <path d="M 137.855352 333.19549 
L 143.233517 333.19549 
" clip-path="url(#p5af303b08b)" style="fill: none; stroke: #000000; stroke-linecap: square"/>
   </g>
   <g id="line2d_28"/>
   <g id="patch_8">
    <path d="M 206.875139 420.898713 
L 217.631469 420.898713 
L 217.631469 390.133977 
L 206.875139 390.133977 
L 206.875139 420.898713 
z
" clip-path="url(#p5af303b08b)" style="fill: #3bcf14; stroke: #3bcf14; stroke-linejoin: miter"/>
   </g>
   <g id="line2d_29">
    <path d="M 212.253304 420.898713 
L 212.253304 420.898713 
" clip-path="url(#p5af303b08b)" style="fill: none; stroke: #000000; stroke-linecap: square"/>
   </g>
   <g id="line2d_30">
    <path d="M 212.253304 390.133977 
L 212.253304 390.133977 
" clip-path="url(#p5af303b08b)" style="fill: none; stroke: #000000; stroke-linecap: square"/>
   </g>
   <g id="line2d_31">
    <path d="M 209.564221 420.898713 
L 214.942387 420.898713 
" clip-path="url(#p5af303b08b)" style="fill: none; stroke: #000000; stroke-linecap: square"/>
   </g>
   <g id="line2d_32">
    <path d="M 209.564221 390.133977 
L 214.942387 390.133977 
" clip-path="url(#p5af303b08b)" style="fill: none; stroke: #000000; stroke-linecap: square"/>
   </g>
   <g id="line2d_33">
    <defs>
     <path id="m82cfac6057" d="M 0 3 
C 0.795609 3 1.55874 2.683901 2.12132 2.12132 
C 2.683901 1.55874 3 0.795609 3 0 
C 3 -0.795609 2.683901 -1.55874 2.12132 -2.12132 
C 1.55874 -2.683901 0.795609 -3 0 -3 
C -0.795609 -3 -1.55874 -2.683901 -2.12132 -2.12132 
C -2.683901 -1.55874 -3 -0.795609 -3 0 
C -3 0.795609 -2.683901 1.55874 -2.12132 2.12132 
C -1.55874 2.683901 -0.795609 3 0 3 
z
" style="stroke: #000000"/>
    </defs>
    <g clip-path="url(#p5af303b08b)">
     <use xlink:href="#m82cfac6057" x="212.253304" y="491.56169" style="fill-opacity: 0; stroke: #000000"/>
     <use xlink:href="#m82cfac6057" x="212.253304" y="336.575699" style="fill-opacity: 0; stroke: #000000"/>
    </g>
   </g>
   <g id="patch_9">
    <path d="M 278.584008 458.139221 
L 289.340339 458.139221 
L 289.340339 408.274558 
L 278.584008 408.274558 
L 278.584008 458.139221 
z
" clip-path="url(#p5af303b08b)" style="fill: #1d8a00; stroke: #1d8a00; stroke-linejoin: miter"/>
   </g>
   <g id="line2d_34">
    <path d="M 283.962173 458.139221 
L 283.962173 471.403879 
" clip-path="url(#p5af303b08b)" style="fill: none; stroke: #000000; stroke-linecap: square"/>
   </g>
   <g id="line2d_35">
    <path d="M 283.962173 408.274558 
L 283.962173 399.367896 
" clip-path="url(#p5af303b08b)" style="fill: none; stroke: #000000; stroke-linecap: square"/>
   </g>
   <g id="line2d_36">
    <path d="M 281.273091 471.403879 
L 286.651256 471.403879 
" clip-path="url(#p5af303b08b)" style="fill: none; stroke: #000000; stroke-linecap: square"/>
   </g>
   <g id="line2d_37">
    <path d="M 281.273091 399.367896 
L 286.651256 399.367896 
" clip-path="url(#p5af303b08b)" style="fill: none; stroke: #000000; stroke-linecap: square"/>
   </g>
   <g id="line2d_38"/>
   <g id="patch_10">
    <path d="M 350.292878 445.509803 
L 361.049208 445.509803 
L 361.049208 384.499548 
L 350.292878 384.499548 
L 350.292878 445.509803 
z
" clip-path="url(#p5af303b08b)" style="fill: #156400; stroke: #156400; stroke-linejoin: miter"/>
   </g>
   <g id="line2d_39">
    <path d="M 355.671043 445.509803 
L 355.671043 469.749659 
" clip-path="url(#p5af303b08b)" style="fill: none; stroke: #000000; stroke-linecap: square"/>
   </g>
   <g id="line2d_40">
    <path d="M 355.671043 384.499548 
L 355.671043 382.149562 
" clip-path="url(#p5af303b08b)" style="fill: none; stroke: #000000; stroke-linecap: square"/>
   </g>
   <g id="line2d_41">
    <path d="M 352.98196 469.749659 
L 358.360125 469.749659 
" clip-path="url(#p5af303b08b)" style="fill: none; stroke: #000000; stroke-linecap: square"/>
   </g>
   <g id="line2d_42">
    <path d="M 352.98196 382.149562 
L 358.360125 382.149562 
" clip-path="url(#p5af303b08b)" style="fill: none; stroke: #000000; stroke-linecap: square"/>
   </g>
   <g id="line2d_43"/>
   <g id="line2d_44">
    <path d="M 135.166269 395.720941 
L 145.9226 395.720941 
" clip-path="url(#p5af303b08b)" style="fill: none; stroke: #000000"/>
   </g>
   <g id="line2d_45">
    <path d="M 206.875139 418.671377 
L 217.631469 418.671377 
" clip-path="url(#p5af303b08b)" style="fill: none; stroke: #000000"/>
   </g>
   <g id="line2d_46">
    <path d="M 278.584008 457.130503 
L 289.340339 457.130503 
" clip-path="url(#p5af303b08b)" style="fill: none; stroke: #000000"/>
   </g>
   <g id="line2d_47">
    <path d="M 350.292878 388.220164 
L 361.049208 388.220164 
" clip-path="url(#p5af303b08b)" style="fill: none; stroke: #000000"/>
   </g>
   <g id="patch_11">
    <path d="M 104.69 499.48 
L 104.69 317.1 
" style="fill: none; stroke: #000000; stroke-width: 0.8; stroke-linejoin: miter; stroke-linecap: square"/>
   </g>
   <g id="patch_12">
    <path d="M 104.69 499.48 
L 391.525478 499.48 
" style="fill: none; stroke: #000000; stroke-width: 0.8; stroke-linejoin: miter; stroke-linecap: square"/>
   </g>
  </g>
 </g>
 <defs>
  <clipPath id="p8f6d98bc12">
   <rect x="104.69" y="49.92" width="286.835478" height="182.38"/>
  </clipPath>
  <clipPath id="p5af303b08b">
   <rect x="104.69" y="317.1" width="286.835478" height="182.38"/>
  </clipPath>
 </defs>
</svg>
