<?xml version="1.0" encoding="utf-8" standalone="no"?>
<!DOCTYPE svg PUBLIC "-//W3C//DTD SVG 1.1//EN"
  "http://www.w3.org/Graphics/SVG/1.1/DTD/svg11.dtd">
<svg xmlns:xlink="http://www.w3.org/1999/xlink" width="432pt" height="288pt" viewBox="0 0 432 288" xmlns="http://www.w3.org/2000/svg" version="1.1">
 <metadata>
  <rdf:RDF xmlns:dc="http://purl.org/dc/elements/1.1/" xmlns:cc="http://creativecommons.org/ns#" xmlns:rdf="http://www.w3.org/1999/02/22-rdf-syntax-ns#">
   <cc:Work>
    <dc:type rdf:resource="http://purl.org/dc/dcmitype/StillImage"/>
    <dc:date>2024-11-13T14:57:24.540354</dc:date>
    <dc:format>image/svg+xml</dc:format>
    <dc:creator>
     <cc:Agent>
      <dc:title>Matplotlib v3.8.4, https://matplotlib.org/</dc:title>
     </cc:Agent>
    </dc:creator>
   </cc:Work>
  </rdf:RDF>
 </metadata>
 <defs>
  <style type="text/css">*{stroke-linejoin: round; stroke-linecap: butt}</style>
 </defs>
 <g id="figure_1">
  <g id="patch_1">
   <path d="M 0 288 
L 432 288 
L 432 0 
L 0 0 
z
" style="fill: #ffffff"/>
  </g>
  <g id="axes_1">
   <g id="patch_2">
    <path d="M 54 256.32 
L 388.8 256.32 
L 388.8 34.56 
L 54 34.56 
z
" style="fill: #ffffff"/>
   </g>
   <g id="PolyCollection_1">
    <defs>
     <path id="mbac43402a6" d="M 69.218182 -238.642965 
L 69.218182 -238.36638 
L 73.070886 -199.442635 
L 76.92359 -119.755473 
L 80.776295 -74.39335 
L 84.628999 -63.270106 
L 88.481703 -53.549139 
L 92.334407 -52.380966 
L 96.187112 -47.037036 
L 100.039816 -46.41932 
L 103.89252 -45.637671 
L 107.745224 -45.30061 
L 111.597929 -44.559622 
L 115.450633 -44.92366 
L 119.303337 -44.034162 
L 123.156041 -44.384367 
L 127.008746 -43.816456 
L 130.86145 -43.923019 
L 134.714154 -43.826227 
L 138.566858 -43.402844 
L 142.419563 -43.414007 
L 146.272267 -43.408242 
L 150.124971 -43.116412 
L 153.977675 -43.367232 
L 157.83038 -43.278362 
L 161.683084 -43.117746 
L 165.535788 -43.225488 
L 169.388493 -43.050112 
L 173.241197 -42.887362 
L 177.093901 -42.692643 
L 180.946605 -42.429913 
L 184.79931 -42.344997 
L 188.652014 -42.41206 
L 192.504718 -42.460677 
L 196.357422 -42.232537 
L 200.210127 -42.287779 
L 204.062831 -42.28643 
L 207.915535 -42.277479 
L 211.768239 -42.279698 
L 215.620944 -42.214939 
L 219.473648 -42.17345 
L 223.326352 -42.136391 
L 227.179056 -42.198593 
L 231.031761 -42.128661 
L 234.884465 -42.218862 
L 238.737169 -42.145941 
L 242.589873 -42.060218 
L 246.442578 -42.136625 
L 250.295282 -42.062764 
L 254.147986 -42.089331 
L 258.00069 -42.027093 
L 261.853395 -42.03182 
L 265.706099 -42.147167 
L 269.558803 -42.017055 
L 273.411507 -42.028838 
L 277.264212 -42.00246 
L 281.116916 -42.004651 
L 284.96962 -41.998168 
L 288.822325 -42.008947 
L 292.675029 -41.904044 
L 296.527733 -42.007645 
L 300.380437 -41.887997 
L 304.233142 -41.967997 
L 308.085846 -41.910767 
L 311.93855 -41.973369 
L 315.791254 -41.805385 
L 319.643959 -41.854122 
L 323.496663 -41.833171 
L 327.349367 -41.818803 
L 331.202071 -41.854603 
L 335.054776 -41.90382 
L 338.90748 -41.926045 
L 342.760184 -41.889712 
L 346.612888 -41.78082 
L 350.465593 -41.765253 
L 354.318297 -41.842025 
L 358.171001 -41.781756 
L 362.023705 -41.866572 
L 365.87641 -41.76 
L 369.729114 -41.802204 
L 373.581818 -41.788171 
L 373.581818 -42.238921 
L 373.581818 -42.238921 
L 369.729114 -42.058076 
L 365.87641 -42.079956 
L 362.023705 -42.121823 
L 358.171001 -42.161341 
L 354.318297 -41.994241 
L 350.465593 -42.147229 
L 346.612888 -42.072037 
L 342.760184 -42.087072 
L 338.90748 -42.075745 
L 335.054776 -42.039867 
L 331.202071 -42.263498 
L 327.349367 -42.085055 
L 323.496663 -42.154903 
L 319.643959 -42.162191 
L 315.791254 -42.199966 
L 311.93855 -42.27421 
L 308.085846 -42.150672 
L 304.233142 -42.298804 
L 300.380437 -42.191903 
L 296.527733 -42.326449 
L 292.675029 -42.372079 
L 288.822325 -42.330463 
L 284.96962 -42.178727 
L 281.116916 -42.394057 
L 277.264212 -42.297622 
L 273.411507 -42.252374 
L 269.558803 -42.38117 
L 265.706099 -42.45201 
L 261.853395 -42.838962 
L 258.00069 -42.462906 
L 254.147986 -42.617491 
L 250.295282 -42.465253 
L 246.442578 -42.387075 
L 242.589873 -42.465298 
L 238.737169 -42.48767 
L 234.884465 -42.549487 
L 231.031761 -42.533439 
L 227.179056 -42.750378 
L 223.326352 -42.721852 
L 219.473648 -42.984932 
L 215.620944 -43.210729 
L 211.768239 -43.329552 
L 207.915535 -44.108399 
L 204.062831 -44.294073 
L 200.210127 -44.768908 
L 196.357422 -44.295578 
L 192.504718 -44.210356 
L 188.652014 -44.009455 
L 184.79931 -43.716577 
L 180.946605 -43.273624 
L 177.093901 -44.137971 
L 173.241197 -43.75657 
L 169.388493 -45.720498 
L 165.535788 -44.153987 
L 161.683084 -44.66223 
L 157.83038 -44.127441 
L 153.977675 -43.995076 
L 150.124971 -45.966224 
L 146.272267 -43.912601 
L 142.419563 -44.138926 
L 138.566858 -45.889908 
L 134.714154 -45.573283 
L 130.86145 -44.452079 
L 127.008746 -45.152003 
L 123.156041 -46.871942 
L 119.303337 -45.076561 
L 115.450633 -45.834518 
L 111.597929 -47.17782 
L 107.745224 -46.811785 
L 103.89252 -49.640621 
L 100.039816 -50.960604 
L 96.187112 -57.718385 
L 92.334407 -65.441286 
L 88.481703 -92.508587 
L 84.628999 -89.039839 
L 80.776295 -126.424402 
L 76.92359 -184.726955 
L 73.070886 -241.158928 
L 69.218182 -238.642965 
z
" style="stroke: #c20017; stroke-opacity: 0.4"/>
    </defs>
    <g clip-path="url(#pfd9c342727)">
     <use xlink:href="#mbac43402a6" x="0" y="288" style="fill: #c20017; fill-opacity: 0.4; stroke: #c20017; stroke-opacity: 0.4"/>
    </g>
   </g>
   <g id="PolyCollection_2">
    <defs>
     <path id="mc3510832d3" d="M 69.218182 -238.807236 
L 69.218182 -238.395706 
L 73.070886 -166.444817 
L 76.92359 -116.769902 
L 80.776295 -99.764025 
L 84.628999 -90.910734 
L 88.481703 -84.071046 
L 92.334407 -80.250493 
L 96.187112 -71.280191 
L 100.039816 -73.988656 
L 103.89252 -74.654072 
L 107.745224 -79.00761 
L 111.597929 -75.161767 
L 115.450633 -76.78442 
L 119.303337 -71.241438 
L 123.156041 -75.495241 
L 127.008746 -75.45502 
L 130.86145 -70.853816 
L 134.714154 -68.188325 
L 138.566858 -68.337452 
L 142.419563 -68.423298 
L 146.272267 -69.966229 
L 150.124971 -67.410004 
L 153.977675 -63.337343 
L 157.83038 -64.98276 
L 161.683084 -63.05118 
L 165.535788 -65.56007 
L 169.388493 -66.147617 
L 173.241197 -65.086796 
L 177.093901 -63.885108 
L 180.946605 -61.490391 
L 184.79931 -63.410895 
L 188.652014 -62.461633 
L 192.504718 -61.728611 
L 196.357422 -62.332151 
L 200.210127 -62.441937 
L 204.062831 -62.959784 
L 207.915535 -61.274081 
L 211.768239 -62.048439 
L 215.620944 -58.836849 
L 219.473648 -59.639196 
L 223.326352 -60.344437 
L 227.179056 -60.831539 
L 231.031761 -60.434402 
L 234.884465 -61.078641 
L 238.737169 -60.332922 
L 242.589873 -59.239578 
L 246.442578 -60.310089 
L 250.295282 -58.293732 
L 254.147986 -58.182253 
L 258.00069 -58.906515 
L 261.853395 -58.600654 
L 265.706099 -59.254412 
L 269.558803 -58.314512 
L 273.411507 -58.149843 
L 277.264212 -57.760873 
L 281.116916 -55.979318 
L 284.96962 -55.567151 
L 288.822325 -56.073395 
L 292.675029 -55.566792 
L 296.527733 -56.722506 
L 300.380437 -57.279072 
L 304.233142 -57.722515 
L 308.085846 -56.117696 
L 311.93855 -55.580157 
L 315.791254 -55.6659 
L 319.643959 -55.314065 
L 323.496663 -54.706665 
L 327.349367 -53.77067 
L 331.202071 -54.856591 
L 335.054776 -54.020902 
L 338.90748 -53.905204 
L 342.760184 -55.101851 
L 346.612888 -52.967208 
L 350.465593 -54.102416 
L 354.318297 -53.953396 
L 358.171001 -53.138335 
L 362.023705 -52.688802 
L 365.87641 -53.538419 
L 369.729114 -53.36615 
L 373.581818 -53.583311 
L 373.581818 -61.713693 
L 373.581818 -61.713693 
L 369.729114 -63.518611 
L 365.87641 -63.875313 
L 362.023705 -66.890992 
L 358.171001 -65.257917 
L 354.318297 -64.044888 
L 350.465593 -64.779285 
L 346.612888 -63.373238 
L 342.760184 -66.111007 
L 338.90748 -64.817875 
L 335.054776 -61.233816 
L 331.202071 -63.686191 
L 327.349367 -66.181975 
L 323.496663 -65.89313 
L 319.643959 -65.34051 
L 315.791254 -63.158582 
L 311.93855 -66.164592 
L 308.085846 -67.127097 
L 304.233142 -69.545956 
L 300.380437 -69.609197 
L 296.527733 -67.714172 
L 292.675029 -67.956624 
L 288.822325 -67.431956 
L 284.96962 -66.94152 
L 281.116916 -68.640748 
L 277.264212 -70.772127 
L 273.411507 -69.622216 
L 269.558803 -69.91701 
L 265.706099 -70.984558 
L 261.853395 -69.379647 
L 258.00069 -71.150174 
L 254.147986 -71.376104 
L 250.295282 -72.397236 
L 246.442578 -74.523568 
L 242.589873 -73.218022 
L 238.737169 -71.358437 
L 234.884465 -77.125254 
L 231.031761 -72.892134 
L 227.179056 -72.57706 
L 223.326352 -74.543042 
L 219.473648 -74.672545 
L 215.620944 -74.683278 
L 211.768239 -72.652626 
L 207.915535 -78.366201 
L 204.062831 -80.646648 
L 200.210127 -79.335654 
L 196.357422 -75.676141 
L 192.504718 -80.198084 
L 188.652014 -80.652959 
L 184.79931 -78.540565 
L 180.946605 -84.505266 
L 177.093901 -82.489339 
L 173.241197 -90.212237 
L 169.388493 -80.865094 
L 165.535788 -83.757049 
L 161.683084 -85.986024 
L 157.83038 -81.585161 
L 153.977675 -89.88764 
L 150.124971 -92.200769 
L 146.272267 -86.243154 
L 142.419563 -90.725531 
L 138.566858 -89.66914 
L 134.714154 -95.516103 
L 130.86145 -111.119267 
L 127.008746 -100.251831 
L 123.156041 -109.592503 
L 119.303337 -97.70327 
L 115.450633 -103.45825 
L 111.597929 -106.630859 
L 107.745224 -98.518406 
L 103.89252 -110.976926 
L 100.039816 -104.509208 
L 96.187112 -119.244013 
L 92.334407 -115.752577 
L 88.481703 -116.370544 
L 84.628999 -123.247993 
L 80.776295 -131.602121 
L 76.92359 -160.621853 
L 73.070886 -200.741438 
L 69.218182 -238.807236 
z
" style="stroke: #cac100; stroke-opacity: 0.4"/>
    </defs>
    <g clip-path="url(#pfd9c342727)">
     <use xlink:href="#mc3510832d3" x="0" y="288" style="fill: #cac100; fill-opacity: 0.4; stroke: #cac100; stroke-opacity: 0.4"/>
    </g>
   </g>
   <g id="PolyCollection_3">
    <defs>
     <path id="mc0b358dd24" d="M 69.218182 -238.794456 
L 69.218182 -238.386745 
L 73.070886 -211.667925 
L 76.92359 -137.61918 
L 80.776295 -112.627587 
L 84.628999 -96.657845 
L 88.481703 -87.978228 
L 92.334407 -75.333255 
L 96.187112 -68.800712 
L 100.039816 -62.742868 
L 103.89252 -61.301239 
L 107.745224 -58.718993 
L 111.597929 -55.525204 
L 115.450633 -55.494629 
L 119.303337 -53.785068 
L 123.156041 -53.907402 
L 127.008746 -52.643824 
L 130.86145 -52.962556 
L 134.714154 -50.910759 
L 138.566858 -49.138026 
L 142.419563 -50.092212 
L 146.272267 -49.929079 
L 150.124971 -48.374193 
L 153.977675 -49.546843 
L 157.83038 -48.296315 
L 161.683084 -48.17117 
L 165.535788 -48.00514 
L 169.388493 -48.185752 
L 173.241197 -47.466399 
L 177.093901 -47.805092 
L 180.946605 -47.434609 
L 184.79931 -47.2756 
L 188.652014 -47.251143 
L 192.504718 -46.860837 
L 196.357422 -46.354265 
L 200.210127 -46.220094 
L 204.062831 -46.838819 
L 207.915535 -46.286405 
L 211.768239 -45.925857 
L 215.620944 -46.519177 
L 219.473648 -46.095033 
L 223.326352 -45.898753 
L 227.179056 -45.835508 
L 231.031761 -45.468025 
L 234.884465 -45.776959 
L 238.737169 -45.726565 
L 242.589873 -45.543722 
L 246.442578 -46.347466 
L 250.295282 -45.147199 
L 254.147986 -45.465528 
L 258.00069 -45.250321 
L 261.853395 -45.572325 
L 265.706099 -45.265371 
L 269.558803 -45.692361 
L 273.411507 -45.718214 
L 277.264212 -45.439027 
L 281.116916 -45.4138 
L 284.96962 -45.123238 
L 288.822325 -45.401487 
L 292.675029 -45.595291 
L 296.527733 -45.168709 
L 300.380437 -44.92181 
L 304.233142 -45.19237 
L 308.085846 -44.51612 
L 311.93855 -44.880796 
L 315.791254 -45.241156 
L 319.643959 -45.396709 
L 323.496663 -44.766942 
L 327.349367 -44.495535 
L 331.202071 -44.65245 
L 335.054776 -44.703835 
L 338.90748 -44.448852 
L 342.760184 -44.73674 
L 346.612888 -44.221651 
L 350.465593 -44.742472 
L 354.318297 -43.926713 
L 358.171001 -44.614856 
L 362.023705 -44.581186 
L 365.87641 -44.135398 
L 369.729114 -44.246972 
L 373.581818 -44.090943 
L 373.581818 -47.359468 
L 373.581818 -47.359468 
L 369.729114 -46.612527 
L 365.87641 -47.088509 
L 362.023705 -47.26673 
L 358.171001 -46.685323 
L 354.318297 -46.622865 
L 350.465593 -47.850591 
L 346.612888 -46.905364 
L 342.760184 -48.098655 
L 338.90748 -47.001694 
L 335.054776 -47.58779 
L 331.202071 -47.836988 
L 327.349367 -48.072829 
L 323.496663 -47.178638 
L 319.643959 -48.296092 
L 315.791254 -48.022158 
L 311.93855 -47.823488 
L 308.085846 -47.551891 
L 304.233142 -47.625741 
L 300.380437 -47.469912 
L 296.527733 -49.147932 
L 292.675029 -48.125577 
L 288.822325 -48.254574 
L 284.96962 -48.541744 
L 281.116916 -47.873279 
L 277.264212 -50.533989 
L 273.411507 -50.486009 
L 269.558803 -48.578602 
L 265.706099 -49.904101 
L 261.853395 -48.219267 
L 258.00069 -49.62569 
L 254.147986 -48.885069 
L 250.295282 -49.00788 
L 246.442578 -48.898224 
L 242.589873 -49.457514 
L 238.737169 -49.739763 
L 234.884465 -49.795333 
L 231.031761 -50.61508 
L 227.179056 -51.924839 
L 223.326352 -63.228841 
L 219.473648 -51.535589 
L 215.620944 -50.850656 
L 211.768239 -49.814597 
L 207.915535 -50.816049 
L 204.062831 -50.200054 
L 200.210127 -50.912698 
L 196.357422 -51.229827 
L 192.504718 -53.91228 
L 188.652014 -51.983397 
L 184.79931 -52.576107 
L 180.946605 -55.054946 
L 177.093901 -53.137866 
L 173.241197 -52.60244 
L 169.388493 -53.207553 
L 165.535788 -55.686123 
L 161.683084 -54.687681 
L 157.83038 -54.029671 
L 153.977675 -54.729558 
L 150.124971 -55.658218 
L 146.272267 -56.904429 
L 142.419563 -59.756919 
L 138.566858 -60.293673 
L 134.714154 -59.185274 
L 130.86145 -62.116235 
L 127.008746 -65.397829 
L 123.156041 -64.925416 
L 119.303337 -63.427362 
L 115.450633 -65.662909 
L 111.597929 -67.366487 
L 107.745224 -74.159415 
L 103.89252 -72.629324 
L 100.039816 -76.814834 
L 96.187112 -84.115362 
L 92.334407 -88.883205 
L 88.481703 -106.592877 
L 84.628999 -121.589719 
L 80.776295 -147.850634 
L 76.92359 -206.308136 
L 73.070886 -243.36 
L 69.218182 -238.794456 
z
" style="stroke: #23aa00; stroke-opacity: 0.4"/>
    </defs>
    <g clip-path="url(#pfd9c342727)">
     <use xlink:href="#mc0b358dd24" x="0" y="288" style="fill: #23aa00; fill-opacity: 0.4; stroke: #23aa00; stroke-opacity: 0.4"/>
    </g>
   </g>
   <g id="matplotlib.axis_1">
    <g id="xtick_1">
     <g id="line2d_1">
      <defs>
       <path id="mb34eb8b81f" d="M 0 0 
L 0 3.5 
" style="stroke: #000000; stroke-width: 0.8"/>
      </defs>
      <g>
       <use xlink:href="#mb34eb8b81f" x="69.218182" y="256.32" style="stroke: #000000; stroke-width: 0.8"/>
      </g>
     </g>
     <g id="text_1">
      <!-- 0 -->
      <g transform="translate(62.219432 280.036563) scale(0.22 -0.22)">
       <defs>
        <path id="DejaVuSans-30" d="M 2034 4250 
Q 1547 4250 1301 3770 
Q 1056 3291 1056 2328 
Q 1056 1369 1301 889 
Q 1547 409 2034 409 
Q 2525 409 2770 889 
Q 3016 1369 3016 2328 
Q 3016 3291 2770 3770 
Q 2525 4250 2034 4250 
z
M 2034 4750 
Q 2819 4750 3233 4129 
Q 3647 3509 3647 2328 
Q 3647 1150 3233 529 
Q 2819 -91 2034 -91 
Q 1250 -91 836 529 
Q 422 1150 422 2328 
Q 422 3509 836 4129 
Q 1250 4750 2034 4750 
z
" transform="scale(0.015625)"/>
       </defs>
       <use xlink:href="#DejaVuSans-30"/>
      </g>
     </g>
    </g>
    <g id="xtick_2">
     <g id="line2d_2">
      <g>
       <use xlink:href="#mb34eb8b81f" x="146.272267" y="256.32" style="stroke: #000000; stroke-width: 0.8"/>
      </g>
     </g>
     <g id="text_2">
      <!-- 500 -->
      <g transform="translate(125.276017 280.036563) scale(0.22 -0.22)">
       <defs>
        <path id="DejaVuSans-35" d="M 691 4666 
L 3169 4666 
L 3169 4134 
L 1269 4134 
L 1269 2991 
Q 1406 3038 1543 3061 
Q 1681 3084 1819 3084 
Q 2600 3084 3056 2656 
Q 3513 2228 3513 1497 
Q 3513 744 3044 326 
Q 2575 -91 1722 -91 
Q 1428 -91 1123 -41 
Q 819 9 494 109 
L 494 744 
Q 775 591 1075 516 
Q 1375 441 1709 441 
Q 2250 441 2565 725 
Q 2881 1009 2881 1497 
Q 2881 1984 2565 2268 
Q 2250 2553 1709 2553 
Q 1456 2553 1204 2497 
Q 953 2441 691 2322 
L 691 4666 
z
" transform="scale(0.015625)"/>
       </defs>
       <use xlink:href="#DejaVuSans-35"/>
       <use xlink:href="#DejaVuSans-30" x="63.623047"/>
       <use xlink:href="#DejaVuSans-30" x="127.246094"/>
      </g>
     </g>
    </g>
    <g id="xtick_3">
     <g id="line2d_3">
      <g>
       <use xlink:href="#mb34eb8b81f" x="223.326352" y="256.32" style="stroke: #000000; stroke-width: 0.8"/>
      </g>
     </g>
     <g id="text_3">
      <!-- 1000 -->
      <g transform="translate(195.331352 280.036563) scale(0.22 -0.22)">
       <defs>
        <path id="DejaVuSans-31" d="M 794 531 
L 1825 531 
L 1825 4091 
L 703 3866 
L 703 4441 
L 1819 4666 
L 2450 4666 
L 2450 531 
L 3481 531 
L 3481 0 
L 794 0 
L 794 531 
z
" transform="scale(0.015625)"/>
       </defs>
       <use xlink:href="#DejaVuSans-31"/>
       <use xlink:href="#DejaVuSans-30" x="63.623047"/>
       <use xlink:href="#DejaVuSans-30" x="127.246094"/>
       <use xlink:href="#DejaVuSans-30" x="190.869141"/>
      </g>
     </g>
    </g>
    <g id="xtick_4">
     <g id="line2d_4">
      <g>
       <use xlink:href="#mb34eb8b81f" x="300.380437" y="256.32" style="stroke: #000000; stroke-width: 0.8"/>
      </g>
     </g>
     <g id="text_4">
      <!-- 1500 -->
      <g transform="translate(272.385437 280.036563) scale(0.22 -0.22)">
       <use xlink:href="#DejaVuSans-31"/>
       <use xlink:href="#DejaVuSans-35" x="63.623047"/>
       <use xlink:href="#DejaVuSans-30" x="127.246094"/>
       <use xlink:href="#DejaVuSans-30" x="190.869141"/>
      </g>
     </g>
    </g>
    <g id="xtick_5">
     <g id="line2d_5">
      <g>
       <use xlink:href="#mb34eb8b81f" x="377.434522" y="256.32" style="stroke: #000000; stroke-width: 0.8"/>
      </g>
     </g>
     <g id="text_5">
      <!-- 2000 -->
      <g transform="translate(349.439522 280.036563) scale(0.22 -0.22)">
       <defs>
        <path id="DejaVuSans-32" d="M 1228 531 
L 3431 531 
L 3431 0 
L 469 0 
L 469 531 
Q 828 903 1448 1529 
Q 2069 2156 2228 2338 
Q 2531 2678 2651 2914 
Q 2772 3150 2772 3378 
Q 2772 3750 2511 3984 
Q 2250 4219 1831 4219 
Q 1534 4219 1204 4116 
Q 875 4013 500 3803 
L 500 4441 
Q 881 4594 1212 4672 
Q 1544 4750 1819 4750 
Q 2544 4750 2975 4387 
Q 3406 4025 3406 3419 
Q 3406 3131 3298 2873 
Q 3191 2616 2906 2266 
Q 2828 2175 2409 1742 
Q 1991 1309 1228 531 
z
" transform="scale(0.015625)"/>
       </defs>
       <use xlink:href="#DejaVuSans-32"/>
       <use xlink:href="#DejaVuSans-30" x="63.623047"/>
       <use xlink:href="#DejaVuSans-30" x="127.246094"/>
       <use xlink:href="#DejaVuSans-30" x="190.869141"/>
      </g>
     </g>
    </g>
    <g id="text_6">
     <!-- Iterations -->
     <g transform="translate(169.010781 305.328438) scale(0.22 -0.22)">
      <defs>
       <path id="DejaVuSans-49" d="M 628 4666 
L 1259 4666 
L 1259 0 
L 628 0 
L 628 4666 
z
" transform="scale(0.015625)"/>
       <path id="DejaVuSans-74" d="M 1172 4494 
L 1172 3500 
L 2356 3500 
L 2356 3053 
L 1172 3053 
L 1172 1153 
Q 1172 725 1289 603 
Q 1406 481 1766 481 
L 2356 481 
L 2356 0 
L 1766 0 
Q 1100 0 847 248 
Q 594 497 594 1153 
L 594 3053 
L 172 3053 
L 172 3500 
L 594 3500 
L 594 4494 
L 1172 4494 
z
" transform="scale(0.015625)"/>
       <path id="DejaVuSans-65" d="M 3597 1894 
L 3597 1613 
L 953 1613 
Q 991 1019 1311 708 
Q 1631 397 2203 397 
Q 2534 397 2845 478 
Q 3156 559 3463 722 
L 3463 178 
Q 3153 47 2828 -22 
Q 2503 -91 2169 -91 
Q 1331 -91 842 396 
Q 353 884 353 1716 
Q 353 2575 817 3079 
Q 1281 3584 2069 3584 
Q 2775 3584 3186 3129 
Q 3597 2675 3597 1894 
z
M 3022 2063 
Q 3016 2534 2758 2815 
Q 2500 3097 2075 3097 
Q 1594 3097 1305 2825 
Q 1016 2553 972 2059 
L 3022 2063 
z
" transform="scale(0.015625)"/>
       <path id="DejaVuSans-72" d="M 2631 2963 
Q 2534 3019 2420 3045 
Q 2306 3072 2169 3072 
Q 1681 3072 1420 2755 
Q 1159 2438 1159 1844 
L 1159 0 
L 581 0 
L 581 3500 
L 1159 3500 
L 1159 2956 
Q 1341 3275 1631 3429 
Q 1922 3584 2338 3584 
Q 2397 3584 2469 3576 
Q 2541 3569 2628 3553 
L 2631 2963 
z
" transform="scale(0.015625)"/>
       <path id="DejaVuSans-61" d="M 2194 1759 
Q 1497 1759 1228 1600 
Q 959 1441 959 1056 
Q 959 750 1161 570 
Q 1363 391 1709 391 
Q 2188 391 2477 730 
Q 2766 1069 2766 1631 
L 2766 1759 
L 2194 1759 
z
M 3341 1997 
L 3341 0 
L 2766 0 
L 2766 531 
Q 2569 213 2275 61 
Q 1981 -91 1556 -91 
Q 1019 -91 701 211 
Q 384 513 384 1019 
Q 384 1609 779 1909 
Q 1175 2209 1959 2209 
L 2766 2209 
L 2766 2266 
Q 2766 2663 2505 2880 
Q 2244 3097 1772 3097 
Q 1472 3097 1187 3025 
Q 903 2953 641 2809 
L 641 3341 
Q 956 3463 1253 3523 
Q 1550 3584 1831 3584 
Q 2591 3584 2966 3190 
Q 3341 2797 3341 1997 
z
" transform="scale(0.015625)"/>
       <path id="DejaVuSans-69" d="M 603 3500 
L 1178 3500 
L 1178 0 
L 603 0 
L 603 3500 
z
M 603 4863 
L 1178 4863 
L 1178 4134 
L 603 4134 
L 603 4863 
z
" transform="scale(0.015625)"/>
       <path id="DejaVuSans-6f" d="M 1959 3097 
Q 1497 3097 1228 2736 
Q 959 2375 959 1747 
Q 959 1119 1226 758 
Q 1494 397 1959 397 
Q 2419 397 2687 759 
Q 2956 1122 2956 1747 
Q 2956 2369 2687 2733 
Q 2419 3097 1959 3097 
z
M 1959 3584 
Q 2709 3584 3137 3096 
Q 3566 2609 3566 1747 
Q 3566 888 3137 398 
Q 2709 -91 1959 -91 
Q 1206 -91 779 398 
Q 353 888 353 1747 
Q 353 2609 779 3096 
Q 1206 3584 1959 3584 
z
" transform="scale(0.015625)"/>
       <path id="DejaVuSans-6e" d="M 3513 2113 
L 3513 0 
L 2938 0 
L 2938 2094 
Q 2938 2591 2744 2837 
Q 2550 3084 2163 3084 
Q 1697 3084 1428 2787 
Q 1159 2491 1159 1978 
L 1159 0 
L 581 0 
L 581 3500 
L 1159 3500 
L 1159 2956 
Q 1366 3272 1645 3428 
Q 1925 3584 2291 3584 
Q 2894 3584 3203 3211 
Q 3513 2838 3513 2113 
z
" transform="scale(0.015625)"/>
       <path id="DejaVuSans-73" d="M 2834 3397 
L 2834 2853 
Q 2591 2978 2328 3040 
Q 2066 3103 1784 3103 
Q 1356 3103 1142 2972 
Q 928 2841 928 2578 
Q 928 2378 1081 2264 
Q 1234 2150 1697 2047 
L 1894 2003 
Q 2506 1872 2764 1633 
Q 3022 1394 3022 966 
Q 3022 478 2636 193 
Q 2250 -91 1575 -91 
Q 1294 -91 989 -36 
Q 684 19 347 128 
L 347 722 
Q 666 556 975 473 
Q 1284 391 1588 391 
Q 1994 391 2212 530 
Q 2431 669 2431 922 
Q 2431 1156 2273 1281 
Q 2116 1406 1581 1522 
L 1381 1569 
Q 847 1681 609 1914 
Q 372 2147 372 2553 
Q 372 3047 722 3315 
Q 1072 3584 1716 3584 
Q 2034 3584 2315 3537 
Q 2597 3491 2834 3397 
z
" transform="scale(0.015625)"/>
      </defs>
      <use xlink:href="#DejaVuSans-49"/>
      <use xlink:href="#DejaVuSans-74" x="29.492188"/>
      <use xlink:href="#DejaVuSans-65" x="68.701172"/>
      <use xlink:href="#DejaVuSans-72" x="130.224609"/>
      <use xlink:href="#DejaVuSans-61" x="171.337891"/>
      <use xlink:href="#DejaVuSans-74" x="232.617188"/>
      <use xlink:href="#DejaVuSans-69" x="271.826172"/>
      <use xlink:href="#DejaVuSans-6f" x="299.609375"/>
      <use xlink:href="#DejaVuSans-6e" x="360.791016"/>
      <use xlink:href="#DejaVuSans-73" x="424.169922"/>
     </g>
    </g>
   </g>
   <g id="matplotlib.axis_2">
    <g id="ytick_1">
     <g id="line2d_6">
      <defs>
       <path id="m23fb745533" d="M 0 0 
L -3.5 0 
" style="stroke: #000000; stroke-width: 0.8"/>
      </defs>
      <g>
       <use xlink:href="#m23fb745533" x="54" y="246.896368" style="stroke: #000000; stroke-width: 0.8"/>
      </g>
     </g>
     <g id="text_7">
      <!-- 0.00 -->
      <g transform="translate(-1.984375 255.254649) scale(0.22 -0.22)">
       <defs>
        <path id="DejaVuSans-2e" d="M 684 794 
L 1344 794 
L 1344 0 
L 684 0 
L 684 794 
z
" transform="scale(0.015625)"/>
       </defs>
       <use xlink:href="#DejaVuSans-30"/>
       <use xlink:href="#DejaVuSans-2e" x="63.623047"/>
       <use xlink:href="#DejaVuSans-30" x="95.410156"/>
       <use xlink:href="#DejaVuSans-30" x="159.033203"/>
      </g>
     </g>
    </g>
    <g id="ytick_2">
     <g id="line2d_7">
      <g>
       <use xlink:href="#m23fb745533" x="54" y="197.447003" style="stroke: #000000; stroke-width: 0.8"/>
      </g>
     </g>
     <g id="text_8">
      <!-- 0.25 -->
      <g transform="translate(-1.984375 205.805284) scale(0.22 -0.22)">
       <use xlink:href="#DejaVuSans-30"/>
       <use xlink:href="#DejaVuSans-2e" x="63.623047"/>
       <use xlink:href="#DejaVuSans-32" x="95.410156"/>
       <use xlink:href="#DejaVuSans-35" x="159.033203"/>
      </g>
     </g>
    </g>
    <g id="ytick_3">
     <g id="line2d_8">
      <g>
       <use xlink:href="#m23fb745533" x="54" y="147.997638" style="stroke: #000000; stroke-width: 0.8"/>
      </g>
     </g>
     <g id="text_9">
      <!-- 0.50 -->
      <g transform="translate(-1.984375 156.355919) scale(0.22 -0.22)">
       <use xlink:href="#DejaVuSans-30"/>
       <use xlink:href="#DejaVuSans-2e" x="63.623047"/>
       <use xlink:href="#DejaVuSans-35" x="95.410156"/>
       <use xlink:href="#DejaVuSans-30" x="159.033203"/>
      </g>
     </g>
    </g>
    <g id="ytick_4">
     <g id="line2d_9">
      <g>
       <use xlink:href="#m23fb745533" x="54" y="98.548273" style="stroke: #000000; stroke-width: 0.8"/>
      </g>
     </g>
     <g id="text_10">
      <!-- 0.75 -->
      <g transform="translate(-1.984375 106.906554) scale(0.22 -0.22)">
       <defs>
        <path id="DejaVuSans-37" d="M 525 4666 
L 3525 4666 
L 3525 4397 
L 1831 0 
L 1172 0 
L 2766 4134 
L 525 4134 
L 525 4666 
z
" transform="scale(0.015625)"/>
       </defs>
       <use xlink:href="#DejaVuSans-30"/>
       <use xlink:href="#DejaVuSans-2e" x="63.623047"/>
       <use xlink:href="#DejaVuSans-37" x="95.410156"/>
       <use xlink:href="#DejaVuSans-35" x="159.033203"/>
      </g>
     </g>
    </g>
    <g id="ytick_5">
     <g id="line2d_10">
      <g>
       <use xlink:href="#m23fb745533" x="54" y="49.098908" style="stroke: #000000; stroke-width: 0.8"/>
      </g>
     </g>
     <g id="text_11">
      <!-- 1.00 -->
      <g transform="translate(-1.984375 57.457189) scale(0.22 -0.22)">
       <use xlink:href="#DejaVuSans-31"/>
       <use xlink:href="#DejaVuSans-2e" x="63.623047"/>
       <use xlink:href="#DejaVuSans-30" x="95.410156"/>
       <use xlink:href="#DejaVuSans-30" x="159.033203"/>
      </g>
     </g>
    </g>
    <g id="text_12">
     <!-- nMSE -->
     <g transform="translate(-10.559688 175.836094) rotate(-90) scale(0.22 -0.22)">
      <defs>
       <path id="DejaVuSans-4d" d="M 628 4666 
L 1569 4666 
L 2759 1491 
L 3956 4666 
L 4897 4666 
L 4897 0 
L 4281 0 
L 4281 4097 
L 3078 897 
L 2444 897 
L 1241 4097 
L 1241 0 
L 628 0 
L 628 4666 
z
" transform="scale(0.015625)"/>
       <path id="DejaVuSans-53" d="M 3425 4513 
L 3425 3897 
Q 3066 4069 2747 4153 
Q 2428 4238 2131 4238 
Q 1616 4238 1336 4038 
Q 1056 3838 1056 3469 
Q 1056 3159 1242 3001 
Q 1428 2844 1947 2747 
L 2328 2669 
Q 3034 2534 3370 2195 
Q 3706 1856 3706 1288 
Q 3706 609 3251 259 
Q 2797 -91 1919 -91 
Q 1588 -91 1214 -16 
Q 841 59 441 206 
L 441 856 
Q 825 641 1194 531 
Q 1563 422 1919 422 
Q 2459 422 2753 634 
Q 3047 847 3047 1241 
Q 3047 1584 2836 1778 
Q 2625 1972 2144 2069 
L 1759 2144 
Q 1053 2284 737 2584 
Q 422 2884 422 3419 
Q 422 4038 858 4394 
Q 1294 4750 2059 4750 
Q 2388 4750 2728 4690 
Q 3069 4631 3425 4513 
z
" transform="scale(0.015625)"/>
       <path id="DejaVuSans-45" d="M 628 4666 
L 3578 4666 
L 3578 4134 
L 1259 4134 
L 1259 2753 
L 3481 2753 
L 3481 2222 
L 1259 2222 
L 1259 531 
L 3634 531 
L 3634 0 
L 628 0 
L 628 4666 
z
" transform="scale(0.015625)"/>
      </defs>
      <use xlink:href="#DejaVuSans-6e"/>
      <use xlink:href="#DejaVuSans-4d" x="63.378906"/>
      <use xlink:href="#DejaVuSans-53" x="149.658203"/>
      <use xlink:href="#DejaVuSans-45" x="213.134766"/>
     </g>
    </g>
   </g>
   <g id="line2d_11">
    <path d="M 69.218182 49.484064 
L 73.070886 62.775236 
L 76.92359 125.825518 
L 80.776295 183.544676 
L 84.628999 207.058265 
L 88.481703 216.703412 
L 92.334407 230.051243 
L 96.187112 236.033659 
L 100.039816 239.129836 
L 103.89252 239.702194 
L 107.745224 241.663388 
L 111.597929 242.029639 
L 115.450633 242.587952 
L 119.303337 243.27711 
L 123.156041 242.502473 
L 127.008746 243.630211 
L 130.86145 243.787202 
L 134.714154 243.678269 
L 138.566858 243.544015 
L 142.419563 244.248317 
L 146.272267 244.385437 
L 150.124971 243.958641 
L 153.977675 244.362336 
L 157.83038 244.302537 
L 161.683084 244.253951 
L 165.535788 244.301164 
L 169.388493 244.109761 
L 173.241197 244.739352 
L 177.093901 244.772745 
L 180.946605 245.153363 
L 184.79931 245.100251 
L 188.652014 244.966569 
L 192.504718 244.959601 
L 196.357422 244.990806 
L 200.210127 244.824731 
L 204.062831 245.009894 
L 207.915535 245.100018 
L 211.768239 245.314502 
L 215.620944 245.375746 
L 219.473648 245.351486 
L 223.326352 245.58571 
L 227.179056 245.54947 
L 231.031761 245.639696 
L 234.884465 245.603345 
L 238.737169 245.655899 
L 242.589873 245.72257 
L 246.442578 245.707333 
L 250.295282 245.7824 
L 254.147986 245.692576 
L 258.00069 245.786274 
L 261.853395 245.735789 
L 265.706099 245.715902 
L 269.558803 245.848184 
L 273.411507 245.891941 
L 277.264212 245.849961 
L 281.116916 245.773891 
L 284.96962 245.899827 
L 288.822325 245.837618 
L 292.675029 245.918588 
L 296.527733 245.855166 
L 300.380437 245.971702 
L 304.233142 245.884743 
L 308.085846 245.983779 
L 311.93855 245.864827 
L 315.791254 245.99094 
L 319.643959 246.02121 
L 323.496663 246.023136 
L 327.349367 246.055181 
L 331.202071 245.963533 
L 335.054776 246.032527 
L 338.90748 245.988104 
L 342.760184 246.027743 
L 346.612888 246.044301 
L 350.465593 246.041196 
L 354.318297 246.087874 
L 358.171001 246.04051 
L 362.023705 246.011229 
L 365.87641 246.056098 
L 369.729114 246.065191 
L 373.581818 246.007623 
" clip-path="url(#pfd9c342727)" style="fill: none; stroke: #c20017; stroke-width: 1.5; stroke-linecap: square"/>
   </g>
   <g id="line2d_12">
    <path d="M 69.218182 49.393937 
L 73.070886 104.083964 
L 76.92359 150.317096 
L 80.776295 168.45265 
L 84.628999 180.092328 
L 88.481703 188.196644 
L 92.334407 191.933734 
L 96.187112 194.031888 
L 100.039816 198.799306 
L 103.89252 195.511724 
L 107.745224 199.12345 
L 111.597929 197.205784 
L 115.450633 200.799473 
L 119.303337 203.363928 
L 123.156041 200.722389 
L 127.008746 204.270822 
L 130.86145 201.674986 
L 134.714154 206.806309 
L 138.566858 207.896321 
L 142.419563 209.227156 
L 146.272267 210.432457 
L 150.124971 208.316461 
L 153.977675 211.220591 
L 157.83038 214.088218 
L 161.683084 214.201656 
L 165.535788 214.095639 
L 169.388493 214.358005 
L 173.241197 211.641349 
L 177.093901 214.104508 
L 180.946605 215.314451 
L 184.79931 216.872997 
L 188.652014 217.449919 
L 192.504718 217.979347 
L 196.357422 219.424367 
L 200.210127 218.951398 
L 204.062831 219.539201 
L 207.915535 219.733043 
L 211.768239 220.427389 
L 215.620944 221.439794 
L 219.473648 220.91766 
L 223.326352 220.247881 
L 227.179056 221.342114 
L 231.031761 221.022395 
L 234.884465 220.825656 
L 238.737169 222.766482 
L 242.589873 222.136677 
L 246.442578 222.784384 
L 250.295282 222.383559 
L 254.147986 224.788573 
L 258.00069 222.930979 
L 261.853395 225.451906 
L 265.706099 224.721437 
L 269.558803 225.826144 
L 273.411507 225.745823 
L 277.264212 225.179378 
L 281.116916 226.663996 
L 284.96962 227.784417 
L 288.822325 227.472403 
L 292.675029 227.428171 
L 296.527733 226.807191 
L 300.380437 225.959229 
L 304.233142 226.834467 
L 308.085846 227.493109 
L 311.93855 228.495137 
L 315.791254 228.896937 
L 319.643959 228.894436 
L 323.496663 227.483372 
L 327.349367 228.517981 
L 331.202071 228.773849 
L 335.054776 230.498801 
L 338.90748 229.772434 
L 342.760184 228.337577 
L 346.612888 230.242537 
L 350.465593 229.8586 
L 354.318297 229.329688 
L 358.171001 230.101183 
L 362.023705 229.665638 
L 365.87641 229.456795 
L 369.729114 230.424077 
L 373.581818 230.165138 
" clip-path="url(#pfd9c342727)" style="fill: none; stroke: #cac100; stroke-width: 1.5; stroke-linecap: square"/>
   </g>
   <g id="line2d_13">
    <path d="M 69.218182 49.40347 
L 73.070886 61.575924 
L 76.92359 111.233914 
L 80.776295 156.676274 
L 84.628999 180.242734 
L 88.481703 193.381449 
L 92.334407 205.624646 
L 96.187112 211.842131 
L 100.039816 218.093831 
L 103.89252 221.227334 
L 107.745224 223.608359 
L 111.597929 227.119338 
L 115.450633 227.306725 
L 119.303337 229.372087 
L 123.156041 229.998167 
L 127.008746 231.169586 
L 130.86145 230.632942 
L 134.714154 232.809808 
L 138.566858 233.416011 
L 142.419563 233.569677 
L 146.272267 234.245974 
L 150.124971 235.298869 
L 153.977675 236.152061 
L 157.83038 236.70346 
L 161.683084 236.897474 
L 165.535788 236.363919 
L 169.388493 236.960513 
L 173.241197 237.711221 
L 177.093901 237.784721 
L 180.946605 237.492138 
L 184.79931 238.22125 
L 188.652014 238.430612 
L 192.504718 238.3081 
L 196.357422 239.04814 
L 200.210127 239.258729 
L 204.062831 239.571984 
L 207.915535 239.565207 
L 211.768239 239.787047 
L 215.620944 239.076325 
L 219.473648 239.584472 
L 223.326352 237.624861 
L 227.179056 239.652729 
L 231.031761 240.031858 
L 234.884465 240.141215 
L 238.737169 240.490007 
L 242.589873 240.59574 
L 246.442578 240.424741 
L 250.295282 240.672191 
L 254.147986 240.462008 
L 258.00069 240.816574 
L 261.853395 241.112461 
L 265.706099 240.591746 
L 269.558803 240.891116 
L 273.411507 240.463559 
L 277.264212 241.015653 
L 281.116916 241.273887 
L 284.96962 241.403673 
L 288.822325 241.359972 
L 292.675029 241.041108 
L 296.527733 240.995865 
L 300.380437 241.815165 
L 304.233142 241.525137 
L 308.085846 241.693692 
L 311.93855 241.647248 
L 315.791254 241.551878 
L 319.643959 241.305344 
L 323.496663 242.057405 
L 327.349367 241.791144 
L 331.202071 241.876744 
L 335.054776 241.749837 
L 338.90748 241.988037 
L 342.760184 241.596115 
L 346.612888 242.508946 
L 350.465593 241.791726 
L 354.318297 242.318284 
L 358.171001 242.291161 
L 362.023705 242.185571 
L 365.87641 242.436859 
L 369.729114 242.531653 
L 373.581818 242.337209 
" clip-path="url(#pfd9c342727)" style="fill: none; stroke: #23aa00; stroke-width: 1.5; stroke-linecap: square"/>
   </g>
   <g id="patch_3">
    <path d="M 54 256.32 
L 54 34.56 
" style="fill: none; stroke: #000000; stroke-width: 0.8; stroke-linejoin: miter; stroke-linecap: square"/>
   </g>
   <g id="patch_4">
    <path d="M 54 256.32 
L 388.8 256.32 
" style="fill: none; stroke: #000000; stroke-width: 0.8; stroke-linejoin: miter; stroke-linecap: square"/>
   </g>
   <g id="text_13">
    <!-- Pattern Generation -->
    <g transform="translate(96.080438 28.56) scale(0.264 -0.264)">
     <defs>
      <path id="DejaVuSans-50" d="M 1259 4147 
L 1259 2394 
L 2053 2394 
Q 2494 2394 2734 2622 
Q 2975 2850 2975 3272 
Q 2975 3691 2734 3919 
Q 2494 4147 2053 4147 
L 1259 4147 
z
M 628 4666 
L 2053 4666 
Q 2838 4666 3239 4311 
Q 3641 3956 3641 3272 
Q 3641 2581 3239 2228 
Q 2838 1875 2053 1875 
L 1259 1875 
L 1259 0 
L 628 0 
L 628 4666 
z
" transform="scale(0.015625)"/>
      <path id="DejaVuSans-20" transform="scale(0.015625)"/>
      <path id="DejaVuSans-47" d="M 3809 666 
L 3809 1919 
L 2778 1919 
L 2778 2438 
L 4434 2438 
L 4434 434 
Q 4069 175 3628 42 
Q 3188 -91 2688 -91 
Q 1594 -91 976 548 
Q 359 1188 359 2328 
Q 359 3472 976 4111 
Q 1594 4750 2688 4750 
Q 3144 4750 3555 4637 
Q 3966 4525 4313 4306 
L 4313 3634 
Q 3963 3931 3569 4081 
Q 3175 4231 2741 4231 
Q 1884 4231 1454 3753 
Q 1025 3275 1025 2328 
Q 1025 1384 1454 906 
Q 1884 428 2741 428 
Q 3075 428 3337 486 
Q 3600 544 3809 666 
z
" transform="scale(0.015625)"/>
     </defs>
     <use xlink:href="#DejaVuSans-50"/>
     <use xlink:href="#DejaVuSans-61" x="55.802734"/>
     <use xlink:href="#DejaVuSans-74" x="117.082031"/>
     <use xlink:href="#DejaVuSans-74" x="156.291016"/>
     <use xlink:href="#DejaVuSans-65" x="195.5"/>
     <use xlink:href="#DejaVuSans-72" x="257.023438"/>
     <use xlink:href="#DejaVuSans-6e" x="296.386719"/>
     <use xlink:href="#DejaVuSans-20" x="359.765625"/>
     <use xlink:href="#DejaVuSans-47" x="391.552734"/>
     <use xlink:href="#DejaVuSans-65" x="469.042969"/>
     <use xlink:href="#DejaVuSans-6e" x="530.566406"/>
     <use xlink:href="#DejaVuSans-65" x="593.945312"/>
     <use xlink:href="#DejaVuSans-72" x="655.46875"/>
     <use xlink:href="#DejaVuSans-61" x="696.582031"/>
     <use xlink:href="#DejaVuSans-74" x="757.861328"/>
     <use xlink:href="#DejaVuSans-69" x="797.070312"/>
     <use xlink:href="#DejaVuSans-6f" x="824.853516"/>
     <use xlink:href="#DejaVuSans-6e" x="886.035156"/>
    </g>
   </g>
   <g id="legend_1">
    <g id="patch_5">
     <path d="M 205.54 149.035625 
L 373.4 149.035625 
Q 377.8 149.035625 377.8 144.635625 
L 377.8 49.96 
Q 377.8 45.56 373.4 45.56 
L 205.54 45.56 
Q 201.14 45.56 201.14 49.96 
L 201.14 144.635625 
Q 201.14 149.035625 205.54 149.035625 
z
" style="fill: #ffffff; opacity: 0.8; stroke: #cccccc; stroke-linejoin: miter"/>
    </g>
    <g id="line2d_14">
     <path d="M 209.94 63.376563 
L 231.94 63.376563 
L 253.94 63.376563 
" style="fill: none; stroke: #c20017; stroke-width: 1.5; stroke-linecap: square"/>
    </g>
    <g id="text_14">
     <!-- BPTT -->
     <g transform="translate(271.54 71.076563) scale(0.22 -0.22)">
      <defs>
       <path id="DejaVuSans-42" d="M 1259 2228 
L 1259 519 
L 2272 519 
Q 2781 519 3026 730 
Q 3272 941 3272 1375 
Q 3272 1813 3026 2020 
Q 2781 2228 2272 2228 
L 1259 2228 
z
M 1259 4147 
L 1259 2741 
L 2194 2741 
Q 2656 2741 2882 2914 
Q 3109 3088 3109 3444 
Q 3109 3797 2882 3972 
Q 2656 4147 2194 4147 
L 1259 4147 
z
M 628 4666 
L 2241 4666 
Q 2963 4666 3353 4366 
Q 3744 4066 3744 3513 
Q 3744 3084 3544 2831 
Q 3344 2578 2956 2516 
Q 3422 2416 3680 2098 
Q 3938 1781 3938 1306 
Q 3938 681 3513 340 
Q 3088 0 2303 0 
L 628 0 
L 628 4666 
z
" transform="scale(0.015625)"/>
       <path id="DejaVuSans-54" d="M -19 4666 
L 3928 4666 
L 3928 4134 
L 2272 4134 
L 2272 0 
L 1638 0 
L 1638 4134 
L -19 4134 
L -19 4666 
z
" transform="scale(0.015625)"/>
      </defs>
      <use xlink:href="#DejaVuSans-42"/>
      <use xlink:href="#DejaVuSans-50" x="68.603516"/>
      <use xlink:href="#DejaVuSans-54" x="128.90625"/>
      <use xlink:href="#DejaVuSans-54" x="188.240234"/>
     </g>
    </g>
    <g id="line2d_15">
     <path d="M 209.94 95.668438 
L 231.94 95.668438 
L 253.94 95.668438 
" style="fill: none; stroke: #cac100; stroke-width: 1.5; stroke-linecap: square"/>
    </g>
    <g id="text_15">
     <!-- E-prop -->
     <g transform="translate(271.54 103.368438) scale(0.22 -0.22)">
      <defs>
       <path id="DejaVuSans-2d" d="M 313 2009 
L 1997 2009 
L 1997 1497 
L 313 1497 
L 313 2009 
z
" transform="scale(0.015625)"/>
       <path id="DejaVuSans-70" d="M 1159 525 
L 1159 -1331 
L 581 -1331 
L 581 3500 
L 1159 3500 
L 1159 2969 
Q 1341 3281 1617 3432 
Q 1894 3584 2278 3584 
Q 2916 3584 3314 3078 
Q 3713 2572 3713 1747 
Q 3713 922 3314 415 
Q 2916 -91 2278 -91 
Q 1894 -91 1617 61 
Q 1341 213 1159 525 
z
M 3116 1747 
Q 3116 2381 2855 2742 
Q 2594 3103 2138 3103 
Q 1681 3103 1420 2742 
Q 1159 2381 1159 1747 
Q 1159 1113 1420 752 
Q 1681 391 2138 391 
Q 2594 391 2855 752 
Q 3116 1113 3116 1747 
z
" transform="scale(0.015625)"/>
      </defs>
      <use xlink:href="#DejaVuSans-45"/>
      <use xlink:href="#DejaVuSans-2d" x="63.183594"/>
      <use xlink:href="#DejaVuSans-70" x="99.267578"/>
      <use xlink:href="#DejaVuSans-72" x="162.744141"/>
      <use xlink:href="#DejaVuSans-6f" x="201.607422"/>
      <use xlink:href="#DejaVuSans-70" x="262.789062"/>
     </g>
    </g>
    <g id="line2d_16">
     <path d="M 209.94 127.960313 
L 231.94 127.960313 
L 253.94 127.960313 
" style="fill: none; stroke: #23aa00; stroke-width: 1.5; stroke-linecap: square"/>
    </g>
    <g id="text_16">
     <!-- Diffusion -->
     <g transform="translate(271.54 135.660313) scale(0.22 -0.22)">
      <defs>
       <path id="DejaVuSans-44" d="M 1259 4147 
L 1259 519 
L 2022 519 
Q 2988 519 3436 956 
Q 3884 1394 3884 2338 
Q 3884 3275 3436 3711 
Q 2988 4147 2022 4147 
L 1259 4147 
z
M 628 4666 
L 1925 4666 
Q 3281 4666 3915 4102 
Q 4550 3538 4550 2338 
Q 4550 1131 3912 565 
Q 3275 0 1925 0 
L 628 0 
L 628 4666 
z
" transform="scale(0.015625)"/>
       <path id="DejaVuSans-66" d="M 2375 4863 
L 2375 4384 
L 1825 4384 
Q 1516 4384 1395 4259 
Q 1275 4134 1275 3809 
L 1275 3500 
L 2222 3500 
L 2222 3053 
L 1275 3053 
L 1275 0 
L 697 0 
L 697 3053 
L 147 3053 
L 147 3500 
L 697 3500 
L 697 3744 
Q 697 4328 969 4595 
Q 1241 4863 1831 4863 
L 2375 4863 
z
" transform="scale(0.015625)"/>
       <path id="DejaVuSans-75" d="M 544 1381 
L 544 3500 
L 1119 3500 
L 1119 1403 
Q 1119 906 1312 657 
Q 1506 409 1894 409 
Q 2359 409 2629 706 
Q 2900 1003 2900 1516 
L 2900 3500 
L 3475 3500 
L 3475 0 
L 2900 0 
L 2900 538 
Q 2691 219 2414 64 
Q 2138 -91 1772 -91 
Q 1169 -91 856 284 
Q 544 659 544 1381 
z
M 1991 3584 
L 1991 3584 
z
" transform="scale(0.015625)"/>
      </defs>
      <use xlink:href="#DejaVuSans-44"/>
      <use xlink:href="#DejaVuSans-69" x="77.001953"/>
      <use xlink:href="#DejaVuSans-66" x="104.785156"/>
      <use xlink:href="#DejaVuSans-66" x="139.990234"/>
      <use xlink:href="#DejaVuSans-75" x="175.195312"/>
      <use xlink:href="#DejaVuSans-73" x="238.574219"/>
      <use xlink:href="#DejaVuSans-69" x="290.673828"/>
      <use xlink:href="#DejaVuSans-6f" x="318.457031"/>
      <use xlink:href="#DejaVuSans-6e" x="379.638672"/>
     </g>
    </g>
   </g>
  </g>
 </g>
 <defs>
  <clipPath id="pfd9c342727">
   <rect x="54" y="34.56" width="334.8" height="221.76"/>
  </clipPath>
 </defs>
</svg>
