<?xml version="1.0" encoding="utf-8" standalone="no"?>
<!DOCTYPE svg PUBLIC "-//W3C//DTD SVG 1.1//EN"
  "http://www.w3.org/Graphics/SVG/1.1/DTD/svg11.dtd">
<svg xmlns:xlink="http://www.w3.org/1999/xlink" width="432pt" height="576pt" viewBox="0 0 432 576" xmlns="http://www.w3.org/2000/svg" version="1.1">
 <metadata>
  <rdf:RDF xmlns:dc="http://purl.org/dc/elements/1.1/" xmlns:cc="http://creativecommons.org/ns#" xmlns:rdf="http://www.w3.org/1999/02/22-rdf-syntax-ns#">
   <cc:Work>
    <dc:type rdf:resource="http://purl.org/dc/dcmitype/StillImage"/>
    <dc:date>2024-11-15T08:20:49.986947</dc:date>
    <dc:format>image/svg+xml</dc:format>
    <dc:creator>
     <cc:Agent>
      <dc:title>Matplotlib v3.8.4, https://matplotlib.org/</dc:title>
     </cc:Agent>
    </dc:creator>
   </cc:Work>
  </rdf:RDF>
 </metadata>
 <defs>
  <style type="text/css">*{stroke-linejoin: round; stroke-linecap: butt}</style>
 </defs>
 <g id="figure_1">
  <g id="patch_1">
   <path d="M 0 576 
L 432 576 
L 432 0 
L 0 0 
z
" style="fill: #ffffff"/>
  </g>
  <g id="axes_1">
   <g id="patch_2">
    <path d="M 90.65 244.74 
L 395.378182 244.74 
L 395.378182 49.92 
L 90.65 49.92 
z
" style="fill: #ffffff"/>
   </g>
   <g id="PolyCollection_1">
    <defs>
     <path id="m3b5dc974b4" d="M 104.501281 -514.989977 
L 104.501281 -514.968642 
L 107.964101 -514.967002 
L 111.426921 -514.827466 
L 114.889742 -513.100093 
L 118.352562 -509.038235 
L 121.815382 -507.302788 
L 125.278202 -500.105157 
L 128.741023 -498.172815 
L 132.203843 -488.641581 
L 135.666663 -481.824209 
L 139.129483 -483.131443 
L 142.592304 -480.011503 
L 146.055124 -464.715915 
L 149.517944 -464.607124 
L 152.980764 -463.080443 
L 156.443585 -462.344098 
L 159.906405 -459.050275 
L 163.369225 -456.108816 
L 166.832045 -453.558289 
L 170.294866 -444.082268 
L 173.757686 -444.179646 
L 177.220506 -434.422919 
L 180.683326 -436.022159 
L 184.146147 -435.958463 
L 187.608967 -431.273916 
L 191.071787 -427.566229 
L 194.534607 -425.87093 
L 197.997428 -423.569888 
L 201.460248 -426.633673 
L 204.923068 -424.958946 
L 208.385888 -427.00238 
L 211.848709 -421.861286 
L 215.311529 -415.709539 
L 218.774349 -412.608633 
L 222.237169 -415.483827 
L 225.69999 -416.292477 
L 229.16281 -417.938782 
L 232.62563 -409.189133 
L 236.08845 -414.054834 
L 239.551271 -406.420809 
L 243.014091 -407.993919 
L 246.476911 -406.01876 
L 249.939731 -404.686063 
L 253.402552 -404.037303 
L 256.865372 -410.514226 
L 260.328192 -403.249084 
L 263.791012 -402.210772 
L 267.253833 -408.241845 
L 270.716653 -403.873061 
L 274.179473 -401.582414 
L 277.642293 -393.738703 
L 281.105114 -393.816127 
L 284.567934 -392.551471 
L 288.030754 -399.026599 
L 291.493574 -393.347422 
L 294.956395 -397.123154 
L 298.419215 -397.08065 
L 301.882035 -393.253842 
L 305.344855 -392.485086 
L 308.807676 -398.524228 
L 312.270496 -398.512926 
L 315.733316 -390.553561 
L 319.196136 -396.455327 
L 322.658957 -392.814726 
L 326.121777 -394.624466 
L 329.584597 -386.485357 
L 333.047417 -393.816835 
L 336.510238 -385.515931 
L 339.973058 -391.797091 
L 343.435878 -389.894526 
L 346.898698 -386.334245 
L 350.361519 -383.862924 
L 353.824339 -385.928175 
L 357.287159 -384.848602 
L 360.749979 -388.237069 
L 364.2128 -385.90605 
L 367.67562 -378.502396 
L 371.13844 -382.660716 
L 374.60126 -381.299746 
L 378.064081 -378.283292 
L 381.526901 -379.537004 
L 381.526901 -395.939985 
L 381.526901 -395.939985 
L 378.064081 -395.324838 
L 374.60126 -401.037323 
L 371.13844 -405.49316 
L 367.67562 -397.520477 
L 364.2128 -406.462867 
L 360.749979 -403.945456 
L 357.287159 -406.234946 
L 353.824339 -404.76543 
L 350.361519 -407.050456 
L 346.898698 -411.071268 
L 343.435878 -408.719546 
L 339.973058 -409.626092 
L 336.510238 -406.904428 
L 333.047417 -409.984219 
L 329.584597 -407.069986 
L 326.121777 -407.221676 
L 322.658957 -412.008876 
L 319.196136 -415.143148 
L 315.733316 -418.049778 
L 312.270496 -416.795899 
L 308.807676 -416.630118 
L 305.344855 -418.055003 
L 301.882035 -411.976994 
L 298.419215 -410.371214 
L 294.956395 -415.404862 
L 291.493574 -422.919149 
L 288.030754 -417.330413 
L 284.567934 -421.563865 
L 281.105114 -415.538188 
L 277.642293 -422.69948 
L 274.179473 -422.746899 
L 270.716653 -425.341699 
L 267.253833 -427.108242 
L 263.791012 -434.250697 
L 260.328192 -431.253356 
L 256.865372 -427.405366 
L 253.402552 -435.893986 
L 249.939731 -434.224809 
L 246.476911 -443.01025 
L 243.014091 -446.280694 
L 239.551271 -431.323936 
L 236.08845 -430.602216 
L 232.62563 -437.335831 
L 229.16281 -428.602591 
L 225.69999 -436.390712 
L 222.237169 -439.878925 
L 218.774349 -446.81505 
L 215.311529 -460.319699 
L 211.848709 -439.214062 
L 208.385888 -437.918208 
L 204.923068 -449.705647 
L 201.460248 -455.116784 
L 197.997428 -455.376464 
L 194.534607 -464.23273 
L 191.071787 -453.632725 
L 187.608967 -467.521488 
L 184.146147 -473.942641 
L 180.683326 -472.561114 
L 177.220506 -464.816764 
L 173.757686 -477.649763 
L 170.294866 -473.855946 
L 166.832045 -487.109601 
L 163.369225 -475.407712 
L 159.906405 -485.84061 
L 156.443585 -486.086118 
L 152.980764 -481.9253 
L 149.517944 -493.502144 
L 146.055124 -486.140062 
L 142.592304 -503.11211 
L 139.129483 -493.21511 
L 135.666663 -498.194039 
L 132.203843 -503.000071 
L 128.741023 -504.554595 
L 125.278202 -508.790559 
L 121.815382 -511.710688 
L 118.352562 -513.175605 
L 114.889742 -514.872401 
L 111.426921 -514.979246 
L 107.964101 -514.98858 
L 104.501281 -514.989977 
z
" style="stroke: #23aa00; stroke-opacity: 0.4"/>
    </defs>
    <g clip-path="url(#p9adacb333b)">
     <use xlink:href="#m3b5dc974b4" x="0" y="576" style="fill: #23aa00; fill-opacity: 0.4; stroke: #23aa00; stroke-opacity: 0.4"/>
    </g>
   </g>
   <g id="PolyCollection_2">
    <defs>
     <path id="m1a46502ff2" d="M 104.501281 -514.989566 
L 104.501281 -514.976873 
L 107.964101 -514.97457 
L 111.426921 -514.893057 
L 114.889742 -512.7067 
L 118.352562 -509.118143 
L 121.815382 -504.996695 
L 125.278202 -502.684741 
L 128.741023 -494.081856 
L 132.203843 -488.974659 
L 135.666663 -478.470148 
L 139.129483 -471.805984 
L 142.592304 -465.878605 
L 146.055124 -462.004707 
L 149.517944 -463.132456 
L 152.980764 -454.307145 
L 156.443585 -456.74386 
L 159.906405 -452.935327 
L 163.369225 -451.297483 
L 166.832045 -452.921191 
L 170.294866 -452.987907 
L 173.757686 -452.29214 
L 177.220506 -450.701559 
L 180.683326 -440.702758 
L 184.146147 -444.407156 
L 187.608967 -441.345592 
L 191.071787 -440.838167 
L 194.534607 -438.796572 
L 197.997428 -433.188469 
L 201.460248 -425.263403 
L 204.923068 -429.727111 
L 208.385888 -425.870369 
L 211.848709 -427.066792 
L 215.311529 -427.611101 
L 218.774349 -421.517021 
L 222.237169 -421.035531 
L 225.69999 -416.003482 
L 229.16281 -421.751475 
L 232.62563 -403.821618 
L 236.08845 -408.710209 
L 239.551271 -408.599613 
L 243.014091 -408.081672 
L 246.476911 -410.158168 
L 249.939731 -417.034307 
L 253.402552 -418.074935 
L 256.865372 -407.829792 
L 260.328192 -411.021831 
L 263.791012 -405.386524 
L 267.253833 -408.882864 
L 270.716653 -406.505033 
L 274.179473 -403.531693 
L 277.642293 -404.249693 
L 281.105114 -404.104281 
L 284.567934 -401.846057 
L 288.030754 -405.922588 
L 291.493574 -408.567237 
L 294.956395 -404.220502 
L 298.419215 -404.74462 
L 301.882035 -403.519913 
L 305.344855 -402.126341 
L 308.807676 -406.50056 
L 312.270496 -400.802288 
L 315.733316 -403.254473 
L 319.196136 -399.070359 
L 322.658957 -398.830709 
L 326.121777 -403.740816 
L 329.584597 -399.84556 
L 333.047417 -402.105654 
L 336.510238 -394.640794 
L 339.973058 -389.857708 
L 343.435878 -402.016756 
L 346.898698 -401.529927 
L 350.361519 -394.914291 
L 353.824339 -389.056023 
L 357.287159 -393.766199 
L 360.749979 -388.996327 
L 364.2128 -393.330016 
L 367.67562 -387.44718 
L 371.13844 -384.971585 
L 374.60126 -382.69624 
L 378.064081 -386.086772 
L 381.526901 -384.502621 
L 381.526901 -410.119575 
L 381.526901 -410.119575 
L 378.064081 -403.310155 
L 374.60126 -403.755874 
L 371.13844 -411.668239 
L 367.67562 -406.909487 
L 364.2128 -407.841997 
L 360.749979 -407.728431 
L 357.287159 -408.153578 
L 353.824339 -412.906555 
L 350.361519 -430.930136 
L 346.898698 -410.354232 
L 343.435878 -413.752883 
L 339.973058 -423.470467 
L 336.510238 -413.661205 
L 333.047417 -414.138268 
L 329.584597 -414.076249 
L 326.121777 -414.391077 
L 322.658957 -413.493489 
L 319.196136 -413.41952 
L 315.733316 -417.76446 
L 312.270496 -417.547287 
L 308.807676 -421.830701 
L 305.344855 -415.806825 
L 301.882035 -421.516024 
L 298.419215 -419.223069 
L 294.956395 -420.884908 
L 291.493574 -423.579356 
L 288.030754 -428.191754 
L 284.567934 -421.935404 
L 281.105114 -428.503131 
L 277.642293 -424.592731 
L 274.179473 -429.232948 
L 270.716653 -430.98138 
L 267.253833 -419.814976 
L 263.791012 -421.096256 
L 260.328192 -423.643095 
L 256.865372 -427.359878 
L 253.402552 -423.00564 
L 249.939731 -433.048104 
L 246.476911 -419.005336 
L 243.014091 -427.395095 
L 239.551271 -430.210001 
L 236.08845 -428.460049 
L 232.62563 -434.144396 
L 229.16281 -434.91292 
L 225.69999 -434.293637 
L 222.237169 -430.384307 
L 218.774349 -431.046861 
L 215.311529 -438.504359 
L 211.848709 -436.345082 
L 208.385888 -443.80701 
L 204.923068 -463.932019 
L 201.460248 -449.475051 
L 197.997428 -443.427015 
L 194.534607 -464.982992 
L 191.071787 -450.653414 
L 187.608967 -464.022401 
L 184.146147 -469.674336 
L 180.683326 -490.6772 
L 177.220506 -476.478386 
L 173.757686 -470.791038 
L 170.294866 -474.893035 
L 166.832045 -484.359427 
L 163.369225 -479.863511 
L 159.906405 -490.754539 
L 156.443585 -484.740385 
L 152.980764 -481.055888 
L 149.517944 -498.200213 
L 146.055124 -497.472327 
L 142.592304 -495.191575 
L 139.129483 -500.813228 
L 135.666663 -502.172538 
L 132.203843 -509.600884 
L 128.741023 -510.082481 
L 125.278202 -511.805355 
L 121.815382 -513.453918 
L 118.352562 -514.80744 
L 114.889742 -514.797941 
L 111.426921 -514.983964 
L 107.964101 -514.989932 
L 104.501281 -514.989566 
z
" style="stroke: #f68917; stroke-opacity: 0.4"/>
    </defs>
    <g clip-path="url(#p9adacb333b)">
     <use xlink:href="#m1a46502ff2" x="0" y="576" style="fill: #f68917; fill-opacity: 0.4; stroke: #f68917; stroke-opacity: 0.4"/>
    </g>
   </g>
   <g id="PolyCollection_3">
    <defs>
     <path id="m82e59e8927" d="M 104.501281 -514.987743 
L 104.501281 -514.975756 
L 107.964101 -514.975246 
L 111.426921 -514.847307 
L 114.889742 -514.163526 
L 118.352562 -504.793763 
L 121.815382 -506.755566 
L 125.278202 -510.025593 
L 128.741023 -510.695408 
L 132.203843 -507.051178 
L 135.666663 -503.272184 
L 139.129483 -486.922296 
L 142.592304 -486.624854 
L 146.055124 -486.568724 
L 149.517944 -479.502262 
L 152.980764 -478.899903 
L 156.443585 -477.170422 
L 159.906405 -472.491122 
L 163.369225 -472.86056 
L 166.832045 -470.229816 
L 170.294866 -460.178668 
L 173.757686 -460.830446 
L 177.220506 -475.288925 
L 180.683326 -460.214118 
L 184.146147 -462.301505 
L 187.608967 -463.132412 
L 191.071787 -455.135321 
L 194.534607 -451.980744 
L 197.997428 -453.383368 
L 201.460248 -466.164604 
L 204.923068 -459.823624 
L 208.385888 -440.379788 
L 211.848709 -455.158451 
L 215.311529 -461.760821 
L 218.774349 -443.5785 
L 222.237169 -433.447066 
L 225.69999 -439.88065 
L 229.16281 -441.550785 
L 232.62563 -429.253501 
L 236.08845 -448.108502 
L 239.551271 -440.335105 
L 243.014091 -436.125698 
L 246.476911 -436.639425 
L 249.939731 -434.104212 
L 253.402552 -435.823904 
L 256.865372 -448.998154 
L 260.328192 -439.34493 
L 263.791012 -439.601611 
L 267.253833 -437.409779 
L 270.716653 -437.627825 
L 274.179473 -436.073732 
L 277.642293 -434.923065 
L 281.105114 -450.11306 
L 284.567934 -446.86325 
L 288.030754 -442.725799 
L 291.493574 -427.186391 
L 294.956395 -437.696405 
L 298.419215 -438.170826 
L 301.882035 -423.974863 
L 305.344855 -436.837141 
L 308.807676 -426.647521 
L 312.270496 -427.391239 
L 315.733316 -432.066696 
L 319.196136 -431.34828 
L 322.658957 -418.241861 
L 326.121777 -419.187867 
L 329.584597 -424.575351 
L 333.047417 -419.878723 
L 336.510238 -415.252759 
L 339.973058 -417.457168 
L 343.435878 -430.864785 
L 346.898698 -423.094586 
L 350.361519 -414.701754 
L 353.824339 -419.807166 
L 357.287159 -418.351064 
L 360.749979 -416.705762 
L 364.2128 -424.844475 
L 367.67562 -420.542315 
L 371.13844 -423.425703 
L 374.60126 -405.321202 
L 378.064081 -415.111014 
L 381.526901 -419.317589 
L 381.526901 -430.304646 
L 381.526901 -430.304646 
L 378.064081 -430.363919 
L 374.60126 -430.460039 
L 371.13844 -430.593966 
L 367.67562 -435.09807 
L 364.2128 -438.119518 
L 360.749979 -436.683631 
L 357.287159 -441.448281 
L 353.824339 -429.107425 
L 350.361519 -430.246027 
L 346.898698 -438.20117 
L 343.435878 -431.878884 
L 339.973058 -432.442386 
L 336.510238 -442.967736 
L 333.047417 -427.952679 
L 329.584597 -442.070811 
L 326.121777 -440.246969 
L 322.658957 -437.361088 
L 319.196136 -444.450562 
L 315.733316 -445.732548 
L 312.270496 -431.382226 
L 308.807676 -448.711302 
L 305.344855 -442.819938 
L 301.882035 -443.191589 
L 298.419215 -455.764198 
L 294.956395 -446.004811 
L 291.493574 -440.248241 
L 288.030754 -446.048152 
L 284.567934 -461.790356 
L 281.105114 -458.388798 
L 277.642293 -458.788954 
L 274.179473 -447.910758 
L 270.716653 -452.982353 
L 267.253833 -443.226114 
L 263.791012 -449.835717 
L 260.328192 -452.97414 
L 256.865372 -463.057623 
L 253.402552 -445.945509 
L 249.939731 -452.347513 
L 246.476911 -458.98167 
L 243.014091 -451.054239 
L 239.551271 -454.769472 
L 236.08845 -459.990993 
L 232.62563 -452.634167 
L 229.16281 -454.345838 
L 225.69999 -468.154135 
L 222.237169 -465.448173 
L 218.774349 -467.371651 
L 215.311529 -468.780098 
L 211.848709 -460.582442 
L 208.385888 -467.415844 
L 204.923068 -471.091806 
L 201.460248 -473.547261 
L 197.997428 -474.410335 
L 194.534607 -477.571802 
L 191.071787 -475.237898 
L 187.608967 -489.007053 
L 184.146147 -479.768549 
L 180.683326 -492.030144 
L 177.220506 -484.976566 
L 173.757686 -490.850563 
L 170.294866 -489.583181 
L 166.832045 -489.594519 
L 163.369225 -492.67063 
L 159.906405 -492.123114 
L 156.443585 -495.505528 
L 152.980764 -507.42859 
L 149.517944 -495.848586 
L 146.055124 -498.533479 
L 142.592304 -496.517291 
L 139.129483 -502.263679 
L 135.666663 -506.115926 
L 132.203843 -510.487696 
L 128.741023 -512.222514 
L 125.278202 -515.270609 
L 121.815382 -512.235579 
L 118.352562 -514.331195 
L 114.889742 -514.903824 
L 111.426921 -514.977666 
L 107.964101 -514.988071 
L 104.501281 -514.987743 
z
" style="stroke: #6e0385; stroke-opacity: 0.4"/>
    </defs>
    <g clip-path="url(#p9adacb333b)">
     <use xlink:href="#m82e59e8927" x="0" y="576" style="fill: #6e0385; fill-opacity: 0.4; stroke: #6e0385; stroke-opacity: 0.4"/>
    </g>
   </g>
   <g id="matplotlib.axis_1">
    <g id="xtick_1">
     <g id="line2d_1">
      <defs>
       <path id="m27a7ed0b9f" d="M 0 0 
L 0 3.5 
" style="stroke: #000000; stroke-width: 0.8"/>
      </defs>
      <g>
       <use xlink:href="#m27a7ed0b9f" x="104.501281" y="244.74" style="stroke: #000000; stroke-width: 0.8"/>
      </g>
     </g>
     <g id="text_1">
      <!-- 0 -->
      <g transform="translate(97.502531 268.456562) scale(0.22 -0.22)">
       <defs>
        <path id="DejaVuSans-30" d="M 2034 4250 
Q 1547 4250 1301 3770 
Q 1056 3291 1056 2328 
Q 1056 1369 1301 889 
Q 1547 409 2034 409 
Q 2525 409 2770 889 
Q 3016 1369 3016 2328 
Q 3016 3291 2770 3770 
Q 2525 4250 2034 4250 
z
M 2034 4750 
Q 2819 4750 3233 4129 
Q 3647 3509 3647 2328 
Q 3647 1150 3233 529 
Q 2819 -91 2034 -91 
Q 1250 -91 836 529 
Q 422 1150 422 2328 
Q 422 3509 836 4129 
Q 1250 4750 2034 4750 
z
" transform="scale(0.015625)"/>
       </defs>
       <use xlink:href="#DejaVuSans-30"/>
      </g>
     </g>
    </g>
    <g id="xtick_2">
     <g id="line2d_2">
      <g>
       <use xlink:href="#m27a7ed0b9f" x="243.014091" y="244.74" style="stroke: #000000; stroke-width: 0.8"/>
      </g>
     </g>
     <g id="text_2">
      <!-- 1000 -->
      <g transform="translate(215.019091 268.456562) scale(0.22 -0.22)">
       <defs>
        <path id="DejaVuSans-31" d="M 794 531 
L 1825 531 
L 1825 4091 
L 703 3866 
L 703 4441 
L 1819 4666 
L 2450 4666 
L 2450 531 
L 3481 531 
L 3481 0 
L 794 0 
L 794 531 
z
" transform="scale(0.015625)"/>
       </defs>
       <use xlink:href="#DejaVuSans-31"/>
       <use xlink:href="#DejaVuSans-30" x="63.623047"/>
       <use xlink:href="#DejaVuSans-30" x="127.246094"/>
       <use xlink:href="#DejaVuSans-30" x="190.869141"/>
      </g>
     </g>
    </g>
    <g id="xtick_3">
     <g id="line2d_3">
      <g>
       <use xlink:href="#m27a7ed0b9f" x="381.526901" y="244.74" style="stroke: #000000; stroke-width: 0.8"/>
      </g>
     </g>
     <g id="text_3">
      <!-- 2000 -->
      <g transform="translate(353.531901 268.456562) scale(0.22 -0.22)">
       <defs>
        <path id="DejaVuSans-32" d="M 1228 531 
L 3431 531 
L 3431 0 
L 469 0 
L 469 531 
Q 828 903 1448 1529 
Q 2069 2156 2228 2338 
Q 2531 2678 2651 2914 
Q 2772 3150 2772 3378 
Q 2772 3750 2511 3984 
Q 2250 4219 1831 4219 
Q 1534 4219 1204 4116 
Q 875 4013 500 3803 
L 500 4441 
Q 881 4594 1212 4672 
Q 1544 4750 1819 4750 
Q 2544 4750 2975 4387 
Q 3406 4025 3406 3419 
Q 3406 3131 3298 2873 
Q 3191 2616 2906 2266 
Q 2828 2175 2409 1742 
Q 1991 1309 1228 531 
z
" transform="scale(0.015625)"/>
       </defs>
       <use xlink:href="#DejaVuSans-32"/>
       <use xlink:href="#DejaVuSans-30" x="63.623047"/>
       <use xlink:href="#DejaVuSans-30" x="127.246094"/>
       <use xlink:href="#DejaVuSans-30" x="190.869141"/>
      </g>
     </g>
    </g>
    <g id="text_4">
     <!-- Iterations -->
     <g transform="translate(190.624872 293.748437) scale(0.22 -0.22)">
      <defs>
       <path id="DejaVuSans-49" d="M 628 4666 
L 1259 4666 
L 1259 0 
L 628 0 
L 628 4666 
z
" transform="scale(0.015625)"/>
       <path id="DejaVuSans-74" d="M 1172 4494 
L 1172 3500 
L 2356 3500 
L 2356 3053 
L 1172 3053 
L 1172 1153 
Q 1172 725 1289 603 
Q 1406 481 1766 481 
L 2356 481 
L 2356 0 
L 1766 0 
Q 1100 0 847 248 
Q 594 497 594 1153 
L 594 3053 
L 172 3053 
L 172 3500 
L 594 3500 
L 594 4494 
L 1172 4494 
z
" transform="scale(0.015625)"/>
       <path id="DejaVuSans-65" d="M 3597 1894 
L 3597 1613 
L 953 1613 
Q 991 1019 1311 708 
Q 1631 397 2203 397 
Q 2534 397 2845 478 
Q 3156 559 3463 722 
L 3463 178 
Q 3153 47 2828 -22 
Q 2503 -91 2169 -91 
Q 1331 -91 842 396 
Q 353 884 353 1716 
Q 353 2575 817 3079 
Q 1281 3584 2069 3584 
Q 2775 3584 3186 3129 
Q 3597 2675 3597 1894 
z
M 3022 2063 
Q 3016 2534 2758 2815 
Q 2500 3097 2075 3097 
Q 1594 3097 1305 2825 
Q 1016 2553 972 2059 
L 3022 2063 
z
" transform="scale(0.015625)"/>
       <path id="DejaVuSans-72" d="M 2631 2963 
Q 2534 3019 2420 3045 
Q 2306 3072 2169 3072 
Q 1681 3072 1420 2755 
Q 1159 2438 1159 1844 
L 1159 0 
L 581 0 
L 581 3500 
L 1159 3500 
L 1159 2956 
Q 1341 3275 1631 3429 
Q 1922 3584 2338 3584 
Q 2397 3584 2469 3576 
Q 2541 3569 2628 3553 
L 2631 2963 
z
" transform="scale(0.015625)"/>
       <path id="DejaVuSans-61" d="M 2194 1759 
Q 1497 1759 1228 1600 
Q 959 1441 959 1056 
Q 959 750 1161 570 
Q 1363 391 1709 391 
Q 2188 391 2477 730 
Q 2766 1069 2766 1631 
L 2766 1759 
L 2194 1759 
z
M 3341 1997 
L 3341 0 
L 2766 0 
L 2766 531 
Q 2569 213 2275 61 
Q 1981 -91 1556 -91 
Q 1019 -91 701 211 
Q 384 513 384 1019 
Q 384 1609 779 1909 
Q 1175 2209 1959 2209 
L 2766 2209 
L 2766 2266 
Q 2766 2663 2505 2880 
Q 2244 3097 1772 3097 
Q 1472 3097 1187 3025 
Q 903 2953 641 2809 
L 641 3341 
Q 956 3463 1253 3523 
Q 1550 3584 1831 3584 
Q 2591 3584 2966 3190 
Q 3341 2797 3341 1997 
z
" transform="scale(0.015625)"/>
       <path id="DejaVuSans-69" d="M 603 3500 
L 1178 3500 
L 1178 0 
L 603 0 
L 603 3500 
z
M 603 4863 
L 1178 4863 
L 1178 4134 
L 603 4134 
L 603 4863 
z
" transform="scale(0.015625)"/>
       <path id="DejaVuSans-6f" d="M 1959 3097 
Q 1497 3097 1228 2736 
Q 959 2375 959 1747 
Q 959 1119 1226 758 
Q 1494 397 1959 397 
Q 2419 397 2687 759 
Q 2956 1122 2956 1747 
Q 2956 2369 2687 2733 
Q 2419 3097 1959 3097 
z
M 1959 3584 
Q 2709 3584 3137 3096 
Q 3566 2609 3566 1747 
Q 3566 888 3137 398 
Q 2709 -91 1959 -91 
Q 1206 -91 779 398 
Q 353 888 353 1747 
Q 353 2609 779 3096 
Q 1206 3584 1959 3584 
z
" transform="scale(0.015625)"/>
       <path id="DejaVuSans-6e" d="M 3513 2113 
L 3513 0 
L 2938 0 
L 2938 2094 
Q 2938 2591 2744 2837 
Q 2550 3084 2163 3084 
Q 1697 3084 1428 2787 
Q 1159 2491 1159 1978 
L 1159 0 
L 581 0 
L 581 3500 
L 1159 3500 
L 1159 2956 
Q 1366 3272 1645 3428 
Q 1925 3584 2291 3584 
Q 2894 3584 3203 3211 
Q 3513 2838 3513 2113 
z
" transform="scale(0.015625)"/>
       <path id="DejaVuSans-73" d="M 2834 3397 
L 2834 2853 
Q 2591 2978 2328 3040 
Q 2066 3103 1784 3103 
Q 1356 3103 1142 2972 
Q 928 2841 928 2578 
Q 928 2378 1081 2264 
Q 1234 2150 1697 2047 
L 1894 2003 
Q 2506 1872 2764 1633 
Q 3022 1394 3022 966 
Q 3022 478 2636 193 
Q 2250 -91 1575 -91 
Q 1294 -91 989 -36 
Q 684 19 347 128 
L 347 722 
Q 666 556 975 473 
Q 1284 391 1588 391 
Q 1994 391 2212 530 
Q 2431 669 2431 922 
Q 2431 1156 2273 1281 
Q 2116 1406 1581 1522 
L 1381 1569 
Q 847 1681 609 1914 
Q 372 2147 372 2553 
Q 372 3047 722 3315 
Q 1072 3584 1716 3584 
Q 2034 3584 2315 3537 
Q 2597 3491 2834 3397 
z
" transform="scale(0.015625)"/>
      </defs>
      <use xlink:href="#DejaVuSans-49"/>
      <use xlink:href="#DejaVuSans-74" x="29.492188"/>
      <use xlink:href="#DejaVuSans-65" x="68.701172"/>
      <use xlink:href="#DejaVuSans-72" x="130.224609"/>
      <use xlink:href="#DejaVuSans-61" x="171.337891"/>
      <use xlink:href="#DejaVuSans-74" x="232.617188"/>
      <use xlink:href="#DejaVuSans-69" x="271.826172"/>
      <use xlink:href="#DejaVuSans-6f" x="299.609375"/>
      <use xlink:href="#DejaVuSans-6e" x="360.791016"/>
      <use xlink:href="#DejaVuSans-73" x="424.169922"/>
     </g>
    </g>
   </g>
   <g id="matplotlib.axis_2">
    <g id="ytick_1">
     <g id="line2d_4">
      <defs>
       <path id="m4c45b8dbf6" d="M 0 0 
L -3.5 0 
" style="stroke: #000000; stroke-width: 0.8"/>
      </defs>
      <g>
       <use xlink:href="#m4c45b8dbf6" x="90.65" y="218.233878" style="stroke: #000000; stroke-width: 0.8"/>
      </g>
     </g>
     <g id="text_5">
      <!-- 0.1 -->
      <g transform="translate(48.663125 226.592159) scale(0.22 -0.22)">
       <defs>
        <path id="DejaVuSans-2e" d="M 684 794 
L 1344 794 
L 1344 0 
L 684 0 
L 684 794 
z
" transform="scale(0.015625)"/>
       </defs>
       <use xlink:href="#DejaVuSans-30"/>
       <use xlink:href="#DejaVuSans-2e" x="63.623047"/>
       <use xlink:href="#DejaVuSans-31" x="95.410156"/>
      </g>
     </g>
    </g>
    <g id="ytick_2">
     <g id="line2d_5">
      <g>
       <use xlink:href="#m4c45b8dbf6" x="90.65" y="191.727755" style="stroke: #000000; stroke-width: 0.8"/>
      </g>
     </g>
     <g id="text_6">
      <!-- 0.2 -->
      <g transform="translate(48.663125 200.086036) scale(0.22 -0.22)">
       <use xlink:href="#DejaVuSans-30"/>
       <use xlink:href="#DejaVuSans-2e" x="63.623047"/>
       <use xlink:href="#DejaVuSans-32" x="95.410156"/>
      </g>
     </g>
    </g>
    <g id="ytick_3">
     <g id="line2d_6">
      <g>
       <use xlink:href="#m4c45b8dbf6" x="90.65" y="165.221633" style="stroke: #000000; stroke-width: 0.8"/>
      </g>
     </g>
     <g id="text_7">
      <!-- 0.3 -->
      <g transform="translate(48.663125 173.579914) scale(0.22 -0.22)">
       <defs>
        <path id="DejaVuSans-33" d="M 2597 2516 
Q 3050 2419 3304 2112 
Q 3559 1806 3559 1356 
Q 3559 666 3084 287 
Q 2609 -91 1734 -91 
Q 1441 -91 1130 -33 
Q 819 25 488 141 
L 488 750 
Q 750 597 1062 519 
Q 1375 441 1716 441 
Q 2309 441 2620 675 
Q 2931 909 2931 1356 
Q 2931 1769 2642 2001 
Q 2353 2234 1838 2234 
L 1294 2234 
L 1294 2753 
L 1863 2753 
Q 2328 2753 2575 2939 
Q 2822 3125 2822 3475 
Q 2822 3834 2567 4026 
Q 2313 4219 1838 4219 
Q 1578 4219 1281 4162 
Q 984 4106 628 3988 
L 628 4550 
Q 988 4650 1302 4700 
Q 1616 4750 1894 4750 
Q 2613 4750 3031 4423 
Q 3450 4097 3450 3541 
Q 3450 3153 3228 2886 
Q 3006 2619 2597 2516 
z
" transform="scale(0.015625)"/>
       </defs>
       <use xlink:href="#DejaVuSans-30"/>
       <use xlink:href="#DejaVuSans-2e" x="63.623047"/>
       <use xlink:href="#DejaVuSans-33" x="95.410156"/>
      </g>
     </g>
    </g>
    <g id="ytick_4">
     <g id="line2d_7">
      <g>
       <use xlink:href="#m4c45b8dbf6" x="90.65" y="138.71551" style="stroke: #000000; stroke-width: 0.8"/>
      </g>
     </g>
     <g id="text_8">
      <!-- 0.4 -->
      <g transform="translate(48.663125 147.073791) scale(0.22 -0.22)">
       <defs>
        <path id="DejaVuSans-34" d="M 2419 4116 
L 825 1625 
L 2419 1625 
L 2419 4116 
z
M 2253 4666 
L 3047 4666 
L 3047 1625 
L 3713 1625 
L 3713 1100 
L 3047 1100 
L 3047 0 
L 2419 0 
L 2419 1100 
L 313 1100 
L 313 1709 
L 2253 4666 
z
" transform="scale(0.015625)"/>
       </defs>
       <use xlink:href="#DejaVuSans-30"/>
       <use xlink:href="#DejaVuSans-2e" x="63.623047"/>
       <use xlink:href="#DejaVuSans-34" x="95.410156"/>
      </g>
     </g>
    </g>
    <g id="ytick_5">
     <g id="line2d_8">
      <g>
       <use xlink:href="#m4c45b8dbf6" x="90.65" y="112.209388" style="stroke: #000000; stroke-width: 0.8"/>
      </g>
     </g>
     <g id="text_9">
      <!-- 0.5 -->
      <g transform="translate(48.663125 120.567669) scale(0.22 -0.22)">
       <defs>
        <path id="DejaVuSans-35" d="M 691 4666 
L 3169 4666 
L 3169 4134 
L 1269 4134 
L 1269 2991 
Q 1406 3038 1543 3061 
Q 1681 3084 1819 3084 
Q 2600 3084 3056 2656 
Q 3513 2228 3513 1497 
Q 3513 744 3044 326 
Q 2575 -91 1722 -91 
Q 1428 -91 1123 -41 
Q 819 9 494 109 
L 494 744 
Q 775 591 1075 516 
Q 1375 441 1709 441 
Q 2250 441 2565 725 
Q 2881 1009 2881 1497 
Q 2881 1984 2565 2268 
Q 2250 2553 1709 2553 
Q 1456 2553 1204 2497 
Q 953 2441 691 2322 
L 691 4666 
z
" transform="scale(0.015625)"/>
       </defs>
       <use xlink:href="#DejaVuSans-30"/>
       <use xlink:href="#DejaVuSans-2e" x="63.623047"/>
       <use xlink:href="#DejaVuSans-35" x="95.410156"/>
      </g>
     </g>
    </g>
    <g id="ytick_6">
     <g id="line2d_9">
      <g>
       <use xlink:href="#m4c45b8dbf6" x="90.65" y="85.703265" style="stroke: #000000; stroke-width: 0.8"/>
      </g>
     </g>
     <g id="text_10">
      <!-- 0.6 -->
      <g transform="translate(48.663125 94.061547) scale(0.22 -0.22)">
       <defs>
        <path id="DejaVuSans-36" d="M 2113 2584 
Q 1688 2584 1439 2293 
Q 1191 2003 1191 1497 
Q 1191 994 1439 701 
Q 1688 409 2113 409 
Q 2538 409 2786 701 
Q 3034 994 3034 1497 
Q 3034 2003 2786 2293 
Q 2538 2584 2113 2584 
z
M 3366 4563 
L 3366 3988 
Q 3128 4100 2886 4159 
Q 2644 4219 2406 4219 
Q 1781 4219 1451 3797 
Q 1122 3375 1075 2522 
Q 1259 2794 1537 2939 
Q 1816 3084 2150 3084 
Q 2853 3084 3261 2657 
Q 3669 2231 3669 1497 
Q 3669 778 3244 343 
Q 2819 -91 2113 -91 
Q 1303 -91 875 529 
Q 447 1150 447 2328 
Q 447 3434 972 4092 
Q 1497 4750 2381 4750 
Q 2619 4750 2861 4703 
Q 3103 4656 3366 4563 
z
" transform="scale(0.015625)"/>
       </defs>
       <use xlink:href="#DejaVuSans-30"/>
       <use xlink:href="#DejaVuSans-2e" x="63.623047"/>
       <use xlink:href="#DejaVuSans-36" x="95.410156"/>
      </g>
     </g>
    </g>
    <g id="ytick_7">
     <g id="line2d_10">
      <g>
       <use xlink:href="#m4c45b8dbf6" x="90.65" y="59.197143" style="stroke: #000000; stroke-width: 0.8"/>
      </g>
     </g>
     <g id="text_11">
      <!-- 0.7 -->
      <g transform="translate(48.663125 67.555424) scale(0.22 -0.22)">
       <defs>
        <path id="DejaVuSans-37" d="M 525 4666 
L 3525 4666 
L 3525 4397 
L 1831 0 
L 1172 0 
L 2766 4134 
L 525 4134 
L 525 4666 
z
" transform="scale(0.015625)"/>
       </defs>
       <use xlink:href="#DejaVuSans-30"/>
       <use xlink:href="#DejaVuSans-2e" x="63.623047"/>
       <use xlink:href="#DejaVuSans-37" x="95.410156"/>
      </g>
     </g>
    </g>
    <g id="text_12">
     <!-- Cross-Entropy -->
     <g transform="translate(40.087813 224.17875) rotate(-90) scale(0.22 -0.22)">
      <defs>
       <path id="DejaVuSans-43" d="M 4122 4306 
L 4122 3641 
Q 3803 3938 3442 4084 
Q 3081 4231 2675 4231 
Q 1875 4231 1450 3742 
Q 1025 3253 1025 2328 
Q 1025 1406 1450 917 
Q 1875 428 2675 428 
Q 3081 428 3442 575 
Q 3803 722 4122 1019 
L 4122 359 
Q 3791 134 3420 21 
Q 3050 -91 2638 -91 
Q 1578 -91 968 557 
Q 359 1206 359 2328 
Q 359 3453 968 4101 
Q 1578 4750 2638 4750 
Q 3056 4750 3426 4639 
Q 3797 4528 4122 4306 
z
" transform="scale(0.015625)"/>
       <path id="DejaVuSans-2d" d="M 313 2009 
L 1997 2009 
L 1997 1497 
L 313 1497 
L 313 2009 
z
" transform="scale(0.015625)"/>
       <path id="DejaVuSans-45" d="M 628 4666 
L 3578 4666 
L 3578 4134 
L 1259 4134 
L 1259 2753 
L 3481 2753 
L 3481 2222 
L 1259 2222 
L 1259 531 
L 3634 531 
L 3634 0 
L 628 0 
L 628 4666 
z
" transform="scale(0.015625)"/>
       <path id="DejaVuSans-70" d="M 1159 525 
L 1159 -1331 
L 581 -1331 
L 581 3500 
L 1159 3500 
L 1159 2969 
Q 1341 3281 1617 3432 
Q 1894 3584 2278 3584 
Q 2916 3584 3314 3078 
Q 3713 2572 3713 1747 
Q 3713 922 3314 415 
Q 2916 -91 2278 -91 
Q 1894 -91 1617 61 
Q 1341 213 1159 525 
z
M 3116 1747 
Q 3116 2381 2855 2742 
Q 2594 3103 2138 3103 
Q 1681 3103 1420 2742 
Q 1159 2381 1159 1747 
Q 1159 1113 1420 752 
Q 1681 391 2138 391 
Q 2594 391 2855 752 
Q 3116 1113 3116 1747 
z
" transform="scale(0.015625)"/>
       <path id="DejaVuSans-79" d="M 2059 -325 
Q 1816 -950 1584 -1140 
Q 1353 -1331 966 -1331 
L 506 -1331 
L 506 -850 
L 844 -850 
Q 1081 -850 1212 -737 
Q 1344 -625 1503 -206 
L 1606 56 
L 191 3500 
L 800 3500 
L 1894 763 
L 2988 3500 
L 3597 3500 
L 2059 -325 
z
" transform="scale(0.015625)"/>
      </defs>
      <use xlink:href="#DejaVuSans-43"/>
      <use xlink:href="#DejaVuSans-72" x="69.824219"/>
      <use xlink:href="#DejaVuSans-6f" x="108.6875"/>
      <use xlink:href="#DejaVuSans-73" x="169.869141"/>
      <use xlink:href="#DejaVuSans-73" x="221.96875"/>
      <use xlink:href="#DejaVuSans-2d" x="274.068359"/>
      <use xlink:href="#DejaVuSans-45" x="310.152344"/>
      <use xlink:href="#DejaVuSans-6e" x="373.335938"/>
      <use xlink:href="#DejaVuSans-74" x="436.714844"/>
      <use xlink:href="#DejaVuSans-72" x="475.923828"/>
      <use xlink:href="#DejaVuSans-6f" x="514.787109"/>
      <use xlink:href="#DejaVuSans-70" x="575.96875"/>
      <use xlink:href="#DejaVuSans-79" x="639.445312"/>
     </g>
    </g>
   </g>
   <g id="line2d_11">
    <path d="M 104.501281 61.018877 
L 107.964101 61.021841 
L 111.426921 61.078808 
L 114.889742 61.85817 
L 118.352562 64.798298 
L 121.815382 66.621694 
L 125.278202 70.878968 
L 128.741023 74.880947 
L 132.203843 80.644533 
L 135.666663 86.192579 
L 139.129483 87.954707 
L 142.592304 88.464388 
L 146.055124 98.911712 
L 149.517944 96.757473 
L 152.980764 104.287674 
L 156.443585 101.657268 
L 159.906405 104.461663 
L 163.369225 108.946772 
L 166.832045 109.724208 
L 170.294866 119.47097 
L 173.757686 116.09596 
L 177.220506 128.044564 
L 180.683326 124.611995 
L 184.146147 123.140388 
L 187.608967 127.897737 
L 191.071787 135.020365 
L 194.534607 129.082925 
L 197.997428 135.527816 
L 201.460248 134.903961 
L 204.923068 138.099869 
L 208.385888 143.072415 
L 211.848709 145.716307 
L 215.311529 141.092603 
L 218.774349 147.883776 
L 222.237169 149.930075 
L 225.69999 149.836655 
L 229.16281 151.570963 
L 232.62563 152.782527 
L 236.08845 153.816549 
L 239.551271 156.317578 
L 243.014091 153.675372 
L 246.476911 152.988133 
L 249.939731 158.077242 
L 253.402552 159.426253 
L 256.865372 156.415168 
L 260.328192 160.356048 
L 263.791012 157.439019 
L 267.253833 158.360508 
L 270.716653 163.780108 
L 274.179473 164.095648 
L 277.642293 168.42301 
L 281.105114 170.999868 
L 284.567934 169.22105 
L 288.030754 168.127988 
L 291.493574 166.55374 
L 294.956395 168.924588 
L 298.419215 173.195359 
L 301.882035 174.018205 
L 305.344855 172.28601 
L 308.807676 168.574656 
L 312.270496 170.456277 
L 315.733316 171.589303 
L 319.196136 171.006892 
L 322.658957 175.676178 
L 326.121777 175.589937 
L 329.584597 179.838039 
L 333.047417 173.408129 
L 336.510238 181.097577 
L 339.973058 177.734667 
L 343.435878 177.26623 
L 346.898698 176.892689 
L 350.361519 180.508765 
L 353.824339 179.760141 
L 357.287159 181.114661 
L 360.749979 178.967421 
L 364.2128 182.364294 
L 367.67562 188.433701 
L 371.13844 182.757812 
L 374.60126 187.397005 
L 378.064081 187.583453 
L 381.526901 188.374773 
" clip-path="url(#p9adacb333b)" style="fill: none; stroke: #23aa00; stroke-width: 1.5; stroke-linecap: square"/>
   </g>
   <g id="line2d_12">
    <path d="M 104.501281 61.015992 
L 107.964101 61.015322 
L 111.426921 61.046209 
L 114.889742 62.226486 
L 118.352562 63.447023 
L 121.815382 67.144425 
L 125.278202 68.427828 
L 128.741023 73.821967 
L 132.203843 77.304012 
L 135.666663 85.856777 
L 139.129483 89.412002 
L 142.592304 94.740335 
L 146.055124 97.786107 
L 149.517944 93.581578 
L 152.980764 108.5355 
L 156.443585 104.327725 
L 159.906405 104.672074 
L 163.369225 111.439622 
L 166.832045 108.359792 
L 170.294866 112.466824 
L 173.757686 115.730205 
L 177.220506 109.507741 
L 180.683326 118.4228 
L 184.146147 120.907603 
L 187.608967 123.44275 
L 191.071787 130.854349 
L 194.534607 127.843424 
L 197.997428 138.930166 
L 201.460248 138.374815 
L 204.923068 133.389614 
L 208.385888 141.305259 
L 211.848709 144.089014 
L 215.311529 144.267567 
L 218.774349 149.83759 
L 222.237169 151.003912 
L 225.69999 150.894848 
L 229.16281 148.122895 
L 232.62563 155.807211 
L 236.08845 157.768514 
L 239.551271 155.668862 
L 243.014091 159.81958 
L 246.476911 160.832056 
L 249.939731 153.985245 
L 253.402552 155.217625 
L 256.865372 156.844389 
L 260.328192 159.224507 
L 263.791012 163.29562 
L 267.253833 162.871802 
L 270.716653 158.133817 
L 274.179473 161.235163 
L 277.642293 161.655784 
L 281.105114 160.159923 
L 284.567934 163.612093 
L 288.030754 161.552611 
L 291.493574 161.757305 
L 294.956395 163.372451 
L 298.419215 163.485059 
L 301.882035 162.868197 
L 305.344855 166.649697 
L 308.807676 162.509409 
L 312.270496 168.059822 
L 315.733316 166.312471 
L 319.196136 168.096317 
L 322.658957 168.842241 
L 326.121777 165.939706 
L 329.584597 170.228393 
L 333.047417 167.093813 
L 336.510238 171.1588 
L 339.973058 171.163452 
L 343.435878 169.375659 
L 346.898698 171.626477 
L 350.361519 169.837358 
L 353.824339 175.392786 
L 357.287159 175.009161 
L 360.749979 177.086663 
L 364.2128 173.885385 
L 367.67562 179.525355 
L 371.13844 177.758916 
L 374.60126 180.082047 
L 378.064081 182.350173 
L 381.526901 179.916209 
" clip-path="url(#p9adacb333b)" style="fill: none; stroke: #f68917; stroke-width: 1.5; stroke-linecap: square"/>
   </g>
   <g id="line2d_13">
    <path d="M 104.501281 61.017346 
L 107.964101 61.019141 
L 111.426921 61.094481 
L 114.889742 61.519302 
L 118.352562 65.682565 
L 121.815382 65.889515 
L 125.278202 63.324314 
L 128.741023 64.630307 
L 132.203843 67.296905 
L 135.666663 71.102271 
L 139.129483 79.712571 
L 142.592304 83.272591 
L 146.055124 83.118978 
L 149.517944 86.209755 
L 152.980764 82.670638 
L 156.443585 87.822974 
L 159.906405 91.268783 
L 163.369225 91.6245 
L 166.832045 94.948258 
L 170.294866 101.019707 
L 173.757686 100.81542 
L 177.220506 95.363026 
L 180.683326 101.016842 
L 184.146147 103.223182 
L 187.608967 97.636638 
L 191.071787 109.246805 
L 194.534607 109.50918 
L 197.997428 111.532356 
L 201.460248 106.869119 
L 204.923068 110.11067 
L 208.385888 119.369027 
L 211.848709 117.972222 
L 215.311529 110.089678 
L 218.774349 120.086836 
L 222.237169 126.91572 
L 225.69999 124.825583 
L 229.16281 129.114814 
L 232.62563 132.125322 
L 236.08845 121.534901 
L 239.551271 128.183225 
L 243.014091 130.768756 
L 246.476911 126.835075 
L 249.939731 132.105734 
L 253.402552 134.331901 
L 256.865372 121.436129 
L 260.328192 128.925216 
L 263.791012 131.159183 
L 267.253833 136.063211 
L 270.716653 131.848868 
L 274.179473 134.865556 
L 277.642293 130.688171 
L 281.105114 122.810542 
L 284.567934 121.037955 
L 288.030754 131.238481 
L 291.493574 140.850888 
L 294.956395 134.001549 
L 298.419215 130.476237 
L 301.882035 141.478543 
L 305.344855 136.21739 
L 308.807676 140.035976 
L 312.270496 146.585845 
L 315.733316 135.868677 
L 319.196136 139.244042 
L 322.658957 150.29163 
L 326.121777 148.942374 
L 329.584597 144.728291 
L 333.047417 151.27244 
L 336.510238 145.386523 
L 339.973058 150.818209 
L 343.435878 144.677924 
L 346.898698 145.993708 
L 350.361519 153.629301 
L 353.824339 150.434217 
L 357.287159 147.082098 
L 360.749979 150.949522 
L 364.2128 143.407502 
L 367.67562 147.620439 
L 371.13844 148.373425 
L 374.60126 156.716534 
L 378.064081 151.352543 
L 381.526901 151.012691 
" clip-path="url(#p9adacb333b)" style="fill: none; stroke: #6e0385; stroke-width: 1.5; stroke-linecap: square"/>
   </g>
   <g id="patch_3">
    <path d="M 90.65 244.74 
L 90.65 49.92 
" style="fill: none; stroke: #000000; stroke-width: 0.8; stroke-linejoin: miter; stroke-linecap: square"/>
   </g>
   <g id="patch_4">
    <path d="M 90.65 244.74 
L 395.378182 244.74 
" style="fill: none; stroke: #000000; stroke-width: 0.8; stroke-linejoin: miter; stroke-linecap: square"/>
   </g>
   <g id="text_13">
    <!-- Cue Accumulation -->
    <g transform="translate(123.170466 43.92) scale(0.264 -0.264)">
     <defs>
      <path id="DejaVuSans-75" d="M 544 1381 
L 544 3500 
L 1119 3500 
L 1119 1403 
Q 1119 906 1312 657 
Q 1506 409 1894 409 
Q 2359 409 2629 706 
Q 2900 1003 2900 1516 
L 2900 3500 
L 3475 3500 
L 3475 0 
L 2900 0 
L 2900 538 
Q 2691 219 2414 64 
Q 2138 -91 1772 -91 
Q 1169 -91 856 284 
Q 544 659 544 1381 
z
M 1991 3584 
L 1991 3584 
z
" transform="scale(0.015625)"/>
      <path id="DejaVuSans-20" transform="scale(0.015625)"/>
      <path id="DejaVuSans-41" d="M 2188 4044 
L 1331 1722 
L 3047 1722 
L 2188 4044 
z
M 1831 4666 
L 2547 4666 
L 4325 0 
L 3669 0 
L 3244 1197 
L 1141 1197 
L 716 0 
L 50 0 
L 1831 4666 
z
" transform="scale(0.015625)"/>
      <path id="DejaVuSans-63" d="M 3122 3366 
L 3122 2828 
Q 2878 2963 2633 3030 
Q 2388 3097 2138 3097 
Q 1578 3097 1268 2742 
Q 959 2388 959 1747 
Q 959 1106 1268 751 
Q 1578 397 2138 397 
Q 2388 397 2633 464 
Q 2878 531 3122 666 
L 3122 134 
Q 2881 22 2623 -34 
Q 2366 -91 2075 -91 
Q 1284 -91 818 406 
Q 353 903 353 1747 
Q 353 2603 823 3093 
Q 1294 3584 2113 3584 
Q 2378 3584 2631 3529 
Q 2884 3475 3122 3366 
z
" transform="scale(0.015625)"/>
      <path id="DejaVuSans-6d" d="M 3328 2828 
Q 3544 3216 3844 3400 
Q 4144 3584 4550 3584 
Q 5097 3584 5394 3201 
Q 5691 2819 5691 2113 
L 5691 0 
L 5113 0 
L 5113 2094 
Q 5113 2597 4934 2840 
Q 4756 3084 4391 3084 
Q 3944 3084 3684 2787 
Q 3425 2491 3425 1978 
L 3425 0 
L 2847 0 
L 2847 2094 
Q 2847 2600 2669 2842 
Q 2491 3084 2119 3084 
Q 1678 3084 1418 2786 
Q 1159 2488 1159 1978 
L 1159 0 
L 581 0 
L 581 3500 
L 1159 3500 
L 1159 2956 
Q 1356 3278 1631 3431 
Q 1906 3584 2284 3584 
Q 2666 3584 2933 3390 
Q 3200 3197 3328 2828 
z
" transform="scale(0.015625)"/>
      <path id="DejaVuSans-6c" d="M 603 4863 
L 1178 4863 
L 1178 0 
L 603 0 
L 603 4863 
z
" transform="scale(0.015625)"/>
     </defs>
     <use xlink:href="#DejaVuSans-43"/>
     <use xlink:href="#DejaVuSans-75" x="69.824219"/>
     <use xlink:href="#DejaVuSans-65" x="133.203125"/>
     <use xlink:href="#DejaVuSans-20" x="194.726562"/>
     <use xlink:href="#DejaVuSans-41" x="226.513672"/>
     <use xlink:href="#DejaVuSans-63" x="293.171875"/>
     <use xlink:href="#DejaVuSans-63" x="348.152344"/>
     <use xlink:href="#DejaVuSans-75" x="403.132812"/>
     <use xlink:href="#DejaVuSans-6d" x="466.511719"/>
     <use xlink:href="#DejaVuSans-75" x="563.923828"/>
     <use xlink:href="#DejaVuSans-6c" x="627.302734"/>
     <use xlink:href="#DejaVuSans-61" x="655.085938"/>
     <use xlink:href="#DejaVuSans-74" x="716.365234"/>
     <use xlink:href="#DejaVuSans-69" x="755.574219"/>
     <use xlink:href="#DejaVuSans-6f" x="783.357422"/>
     <use xlink:href="#DejaVuSans-6e" x="844.539062"/>
    </g>
   </g>
   <g id="legend_1">
    <g id="patch_5">
     <path d="M 106.05 233.74 
L 267.40625 233.74 
Q 271.80625 233.74 271.80625 229.34 
L 271.80625 134.664375 
Q 271.80625 130.264375 267.40625 130.264375 
L 106.05 130.264375 
Q 101.65 130.264375 101.65 134.664375 
L 101.65 229.34 
Q 101.65 233.74 106.05 233.74 
z
" style="fill: #ffffff; opacity: 0.8; stroke: #cccccc; stroke-linejoin: miter"/>
    </g>
    <g id="line2d_14">
     <path d="M 110.45 148.080937 
L 132.45 148.080937 
L 154.45 148.080937 
" style="fill: none; stroke: #23aa00; stroke-width: 1.5; stroke-linecap: square"/>
    </g>
    <g id="text_14">
     <!-- Local -->
     <g transform="translate(172.05 155.780937) scale(0.22 -0.22)">
      <defs>
       <path id="DejaVuSans-4c" d="M 628 4666 
L 1259 4666 
L 1259 531 
L 3531 531 
L 3531 0 
L 628 0 
L 628 4666 
z
" transform="scale(0.015625)"/>
      </defs>
      <use xlink:href="#DejaVuSans-4c"/>
      <use xlink:href="#DejaVuSans-6f" x="53.962891"/>
      <use xlink:href="#DejaVuSans-63" x="115.144531"/>
      <use xlink:href="#DejaVuSans-61" x="170.125"/>
      <use xlink:href="#DejaVuSans-6c" x="231.404297"/>
     </g>
    </g>
    <g id="line2d_15">
     <path d="M 110.45 180.372812 
L 132.45 180.372812 
L 154.45 180.372812 
" style="fill: none; stroke: #f68917; stroke-width: 1.5; stroke-linecap: square"/>
    </g>
    <g id="text_15">
     <!-- Sparse -->
     <g transform="translate(172.05 188.072812) scale(0.22 -0.22)">
      <defs>
       <path id="DejaVuSans-53" d="M 3425 4513 
L 3425 3897 
Q 3066 4069 2747 4153 
Q 2428 4238 2131 4238 
Q 1616 4238 1336 4038 
Q 1056 3838 1056 3469 
Q 1056 3159 1242 3001 
Q 1428 2844 1947 2747 
L 2328 2669 
Q 3034 2534 3370 2195 
Q 3706 1856 3706 1288 
Q 3706 609 3251 259 
Q 2797 -91 1919 -91 
Q 1588 -91 1214 -16 
Q 841 59 441 206 
L 441 856 
Q 825 641 1194 531 
Q 1563 422 1919 422 
Q 2459 422 2753 634 
Q 3047 847 3047 1241 
Q 3047 1584 2836 1778 
Q 2625 1972 2144 2069 
L 1759 2144 
Q 1053 2284 737 2584 
Q 422 2884 422 3419 
Q 422 4038 858 4394 
Q 1294 4750 2059 4750 
Q 2388 4750 2728 4690 
Q 3069 4631 3425 4513 
z
" transform="scale(0.015625)"/>
      </defs>
      <use xlink:href="#DejaVuSans-53"/>
      <use xlink:href="#DejaVuSans-70" x="63.476562"/>
      <use xlink:href="#DejaVuSans-61" x="126.953125"/>
      <use xlink:href="#DejaVuSans-72" x="188.232422"/>
      <use xlink:href="#DejaVuSans-73" x="229.345703"/>
      <use xlink:href="#DejaVuSans-65" x="281.445312"/>
     </g>
    </g>
    <g id="line2d_16">
     <path d="M 110.45 212.664687 
L 132.45 212.664687 
L 154.45 212.664687 
" style="fill: none; stroke: #6e0385; stroke-width: 1.5; stroke-linecap: square"/>
    </g>
    <g id="text_16">
     <!-- Shuffled -->
     <g transform="translate(172.05 220.364687) scale(0.22 -0.22)">
      <defs>
       <path id="DejaVuSans-68" d="M 3513 2113 
L 3513 0 
L 2938 0 
L 2938 2094 
Q 2938 2591 2744 2837 
Q 2550 3084 2163 3084 
Q 1697 3084 1428 2787 
Q 1159 2491 1159 1978 
L 1159 0 
L 581 0 
L 581 4863 
L 1159 4863 
L 1159 2956 
Q 1366 3272 1645 3428 
Q 1925 3584 2291 3584 
Q 2894 3584 3203 3211 
Q 3513 2838 3513 2113 
z
" transform="scale(0.015625)"/>
       <path id="DejaVuSans-66" d="M 2375 4863 
L 2375 4384 
L 1825 4384 
Q 1516 4384 1395 4259 
Q 1275 4134 1275 3809 
L 1275 3500 
L 2222 3500 
L 2222 3053 
L 1275 3053 
L 1275 0 
L 697 0 
L 697 3053 
L 147 3053 
L 147 3500 
L 697 3500 
L 697 3744 
Q 697 4328 969 4595 
Q 1241 4863 1831 4863 
L 2375 4863 
z
" transform="scale(0.015625)"/>
       <path id="DejaVuSans-64" d="M 2906 2969 
L 2906 4863 
L 3481 4863 
L 3481 0 
L 2906 0 
L 2906 525 
Q 2725 213 2448 61 
Q 2172 -91 1784 -91 
Q 1150 -91 751 415 
Q 353 922 353 1747 
Q 353 2572 751 3078 
Q 1150 3584 1784 3584 
Q 2172 3584 2448 3432 
Q 2725 3281 2906 2969 
z
M 947 1747 
Q 947 1113 1208 752 
Q 1469 391 1925 391 
Q 2381 391 2643 752 
Q 2906 1113 2906 1747 
Q 2906 2381 2643 2742 
Q 2381 3103 1925 3103 
Q 1469 3103 1208 2742 
Q 947 2381 947 1747 
z
" transform="scale(0.015625)"/>
      </defs>
      <use xlink:href="#DejaVuSans-53"/>
      <use xlink:href="#DejaVuSans-68" x="63.476562"/>
      <use xlink:href="#DejaVuSans-75" x="126.855469"/>
      <use xlink:href="#DejaVuSans-66" x="190.234375"/>
      <use xlink:href="#DejaVuSans-66" x="225.439453"/>
      <use xlink:href="#DejaVuSans-6c" x="260.644531"/>
      <use xlink:href="#DejaVuSans-65" x="288.427734"/>
      <use xlink:href="#DejaVuSans-64" x="349.951172"/>
     </g>
    </g>
   </g>
  </g>
  <g id="axes_2">
   <g id="patch_6">
    <path d="M 90.65 524.36 
L 395.378182 524.36 
L 395.378182 329.54 
L 90.65 329.54 
z
" style="fill: #ffffff"/>
   </g>
   <g id="matplotlib.axis_3">
    <g id="xtick_4">
     <g id="line2d_17">
      <g>
       <use xlink:href="#m27a7ed0b9f" x="141.43803" y="524.36" style="stroke: #000000; stroke-width: 0.8"/>
      </g>
     </g>
     <g id="text_17">
      <!-- Local -->
      <g transform="translate(112.925687 548.076563) scale(0.22 -0.22)">
       <use xlink:href="#DejaVuSans-4c"/>
       <use xlink:href="#DejaVuSans-6f" x="53.962891"/>
       <use xlink:href="#DejaVuSans-63" x="115.144531"/>
       <use xlink:href="#DejaVuSans-61" x="170.125"/>
       <use xlink:href="#DejaVuSans-6c" x="231.404297"/>
      </g>
     </g>
    </g>
    <g id="xtick_5">
     <g id="line2d_18">
      <g>
       <use xlink:href="#m27a7ed0b9f" x="243.014091" y="524.36" style="stroke: #000000; stroke-width: 0.8"/>
      </g>
     </g>
     <g id="text_18">
      <!-- Sparse -->
      <g transform="translate(205.28581 548.076563) scale(0.22 -0.22)">
       <use xlink:href="#DejaVuSans-53"/>
       <use xlink:href="#DejaVuSans-70" x="63.476562"/>
       <use xlink:href="#DejaVuSans-61" x="126.953125"/>
       <use xlink:href="#DejaVuSans-72" x="188.232422"/>
       <use xlink:href="#DejaVuSans-73" x="229.345703"/>
       <use xlink:href="#DejaVuSans-65" x="281.445312"/>
      </g>
     </g>
    </g>
    <g id="xtick_6">
     <g id="line2d_19">
      <g>
       <use xlink:href="#m27a7ed0b9f" x="344.590152" y="524.36" style="stroke: #000000; stroke-width: 0.8"/>
      </g>
     </g>
     <g id="text_19">
      <!-- Shuffled -->
      <g transform="translate(299.112027 548.076563) scale(0.22 -0.22)">
       <use xlink:href="#DejaVuSans-53"/>
       <use xlink:href="#DejaVuSans-68" x="63.476562"/>
       <use xlink:href="#DejaVuSans-75" x="126.855469"/>
       <use xlink:href="#DejaVuSans-66" x="190.234375"/>
       <use xlink:href="#DejaVuSans-66" x="225.439453"/>
       <use xlink:href="#DejaVuSans-6c" x="260.644531"/>
       <use xlink:href="#DejaVuSans-65" x="288.427734"/>
       <use xlink:href="#DejaVuSans-64" x="349.951172"/>
      </g>
     </g>
    </g>
   </g>
   <g id="matplotlib.axis_4">
    <g id="ytick_8">
     <g id="line2d_20">
      <g>
       <use xlink:href="#m4c45b8dbf6" x="90.65" y="493.43619" style="stroke: #000000; stroke-width: 0.8"/>
      </g>
     </g>
     <g id="text_20">
      <!-- 0.1 -->
      <g transform="translate(48.663125 501.794472) scale(0.22 -0.22)">
       <use xlink:href="#DejaVuSans-30"/>
       <use xlink:href="#DejaVuSans-2e" x="63.623047"/>
       <use xlink:href="#DejaVuSans-31" x="95.410156"/>
      </g>
     </g>
    </g>
    <g id="ytick_9">
     <g id="line2d_21">
      <g>
       <use xlink:href="#m4c45b8dbf6" x="90.65" y="462.512381" style="stroke: #000000; stroke-width: 0.8"/>
      </g>
     </g>
     <g id="text_21">
      <!-- 0.2 -->
      <g transform="translate(48.663125 470.870662) scale(0.22 -0.22)">
       <use xlink:href="#DejaVuSans-30"/>
       <use xlink:href="#DejaVuSans-2e" x="63.623047"/>
       <use xlink:href="#DejaVuSans-32" x="95.410156"/>
      </g>
     </g>
    </g>
    <g id="ytick_10">
     <g id="line2d_22">
      <g>
       <use xlink:href="#m4c45b8dbf6" x="90.65" y="431.588571" style="stroke: #000000; stroke-width: 0.8"/>
      </g>
     </g>
     <g id="text_22">
      <!-- 0.3 -->
      <g transform="translate(48.663125 439.946853) scale(0.22 -0.22)">
       <use xlink:href="#DejaVuSans-30"/>
       <use xlink:href="#DejaVuSans-2e" x="63.623047"/>
       <use xlink:href="#DejaVuSans-33" x="95.410156"/>
      </g>
     </g>
    </g>
    <g id="ytick_11">
     <g id="line2d_23">
      <g>
       <use xlink:href="#m4c45b8dbf6" x="90.65" y="400.664762" style="stroke: #000000; stroke-width: 0.8"/>
      </g>
     </g>
     <g id="text_23">
      <!-- 0.4 -->
      <g transform="translate(48.663125 409.023043) scale(0.22 -0.22)">
       <use xlink:href="#DejaVuSans-30"/>
       <use xlink:href="#DejaVuSans-2e" x="63.623047"/>
       <use xlink:href="#DejaVuSans-34" x="95.410156"/>
      </g>
     </g>
    </g>
    <g id="ytick_12">
     <g id="line2d_24">
      <g>
       <use xlink:href="#m4c45b8dbf6" x="90.65" y="369.740952" style="stroke: #000000; stroke-width: 0.8"/>
      </g>
     </g>
     <g id="text_24">
      <!-- 0.5 -->
      <g transform="translate(48.663125 378.099234) scale(0.22 -0.22)">
       <use xlink:href="#DejaVuSans-30"/>
       <use xlink:href="#DejaVuSans-2e" x="63.623047"/>
       <use xlink:href="#DejaVuSans-35" x="95.410156"/>
      </g>
     </g>
    </g>
    <g id="ytick_13">
     <g id="line2d_25">
      <g>
       <use xlink:href="#m4c45b8dbf6" x="90.65" y="338.817143" style="stroke: #000000; stroke-width: 0.8"/>
      </g>
     </g>
     <g id="text_25">
      <!-- 0.6 -->
      <g transform="translate(48.663125 347.175424) scale(0.22 -0.22)">
       <use xlink:href="#DejaVuSans-30"/>
       <use xlink:href="#DejaVuSans-2e" x="63.623047"/>
       <use xlink:href="#DejaVuSans-36" x="95.410156"/>
      </g>
     </g>
    </g>
    <g id="text_26">
     <!-- Cross-Entropy -->
     <g transform="translate(40.087813 503.79875) rotate(-90) scale(0.22 -0.22)">
      <use xlink:href="#DejaVuSans-43"/>
      <use xlink:href="#DejaVuSans-72" x="69.824219"/>
      <use xlink:href="#DejaVuSans-6f" x="108.6875"/>
      <use xlink:href="#DejaVuSans-73" x="169.869141"/>
      <use xlink:href="#DejaVuSans-73" x="221.96875"/>
      <use xlink:href="#DejaVuSans-2d" x="274.068359"/>
      <use xlink:href="#DejaVuSans-45" x="310.152344"/>
      <use xlink:href="#DejaVuSans-6e" x="373.335938"/>
      <use xlink:href="#DejaVuSans-74" x="436.714844"/>
      <use xlink:href="#DejaVuSans-72" x="475.923828"/>
      <use xlink:href="#DejaVuSans-6f" x="514.787109"/>
      <use xlink:href="#DejaVuSans-70" x="575.96875"/>
      <use xlink:href="#DejaVuSans-79" x="639.445312"/>
     </g>
    </g>
   </g>
   <g id="patch_7">
    <path d="M 133.819826 465.760647 
L 149.056235 465.760647 
L 149.056235 452.300553 
L 133.819826 452.300553 
L 133.819826 465.760647 
z
" clip-path="url(#ped0acb13f2)" style="fill: #23aa00; stroke: #23aa00; stroke-linejoin: miter"/>
   </g>
   <g id="line2d_26">
    <path d="M 141.43803 465.760647 
L 141.43803 468.605874 
" clip-path="url(#ped0acb13f2)" style="fill: none; stroke: #000000; stroke-linecap: square"/>
   </g>
   <g id="line2d_27">
    <path d="M 141.43803 452.300553 
L 141.43803 448.049884 
" clip-path="url(#ped0acb13f2)" style="fill: none; stroke: #000000; stroke-linecap: square"/>
   </g>
   <g id="line2d_28">
    <path d="M 137.628928 468.605874 
L 145.247133 468.605874 
" clip-path="url(#ped0acb13f2)" style="fill: none; stroke: #000000; stroke-linecap: square"/>
   </g>
   <g id="line2d_29">
    <path d="M 137.628928 448.049884 
L 145.247133 448.049884 
" clip-path="url(#ped0acb13f2)" style="fill: none; stroke: #000000; stroke-linecap: square"/>
   </g>
   <g id="line2d_30"/>
   <g id="patch_8">
    <path d="M 235.395886 461.069747 
L 250.632295 461.069747 
L 250.632295 435.77191 
L 235.395886 435.77191 
L 235.395886 461.069747 
z
" clip-path="url(#ped0acb13f2)" style="fill: #f68917; stroke: #f68917; stroke-linejoin: miter"/>
   </g>
   <g id="line2d_31">
    <path d="M 243.014091 461.069747 
L 243.014091 462.537074 
" clip-path="url(#ped0acb13f2)" style="fill: none; stroke: #000000; stroke-linecap: square"/>
   </g>
   <g id="line2d_32">
    <path d="M 243.014091 435.77191 
L 243.014091 431.503476 
" clip-path="url(#ped0acb13f2)" style="fill: none; stroke: #000000; stroke-linecap: square"/>
   </g>
   <g id="line2d_33">
    <path d="M 239.204989 462.537074 
L 246.823193 462.537074 
" clip-path="url(#ped0acb13f2)" style="fill: none; stroke: #000000; stroke-linecap: square"/>
   </g>
   <g id="line2d_34">
    <path d="M 239.204989 431.503476 
L 246.823193 431.503476 
" clip-path="url(#ped0acb13f2)" style="fill: none; stroke: #000000; stroke-linecap: square"/>
   </g>
   <g id="line2d_35"/>
   <g id="patch_9">
    <path d="M 336.971947 418.425267 
L 352.208356 418.425267 
L 352.208356 411.304025 
L 336.971947 411.304025 
L 336.971947 418.425267 
z
" clip-path="url(#ped0acb13f2)" style="fill: #6e0385; stroke: #6e0385; stroke-linejoin: miter"/>
   </g>
   <g id="line2d_36">
    <path d="M 344.590152 418.425267 
L 344.590152 422.426367 
" clip-path="url(#ped0acb13f2)" style="fill: none; stroke: #000000; stroke-linecap: square"/>
   </g>
   <g id="line2d_37">
    <path d="M 344.590152 411.304025 
L 344.590152 408.183884 
" clip-path="url(#ped0acb13f2)" style="fill: none; stroke: #000000; stroke-linecap: square"/>
   </g>
   <g id="line2d_38">
    <path d="M 340.781049 422.426367 
L 348.399254 422.426367 
" clip-path="url(#ped0acb13f2)" style="fill: none; stroke: #000000; stroke-linecap: square"/>
   </g>
   <g id="line2d_39">
    <path d="M 340.781049 408.183884 
L 348.399254 408.183884 
" clip-path="url(#ped0acb13f2)" style="fill: none; stroke: #000000; stroke-linecap: square"/>
   </g>
   <g id="line2d_40"/>
   <g id="line2d_41">
    <path d="M 133.819826 458.285884 
L 149.056235 458.285884 
" clip-path="url(#ped0acb13f2)" style="fill: none; stroke: #000000"/>
   </g>
   <g id="line2d_42">
    <path d="M 235.395886 452.779012 
L 250.632295 452.779012 
" clip-path="url(#ped0acb13f2)" style="fill: none; stroke: #000000"/>
   </g>
   <g id="line2d_43">
    <path d="M 336.971947 414.424167 
L 352.208356 414.424167 
" clip-path="url(#ped0acb13f2)" style="fill: none; stroke: #000000"/>
   </g>
   <g id="patch_10">
    <path d="M 90.65 524.36 
L 90.65 329.54 
" style="fill: none; stroke: #000000; stroke-width: 0.8; stroke-linejoin: miter; stroke-linecap: square"/>
   </g>
   <g id="patch_11">
    <path d="M 90.65 524.36 
L 395.378182 524.36 
" style="fill: none; stroke: #000000; stroke-width: 0.8; stroke-linejoin: miter; stroke-linecap: square"/>
   </g>
  </g>
 </g>
 <defs>
  <clipPath id="p9adacb333b">
   <rect x="90.65" y="49.92" width="304.728182" height="194.82"/>
  </clipPath>
  <clipPath id="ped0acb13f2">
   <rect x="90.65" y="329.54" width="304.728182" height="194.82"/>
  </clipPath>
 </defs>
</svg>
