<?xml version="1.0" encoding="utf-8" standalone="no"?>
<!DOCTYPE svg PUBLIC "-//W3C//DTD SVG 1.1//EN"
  "http://www.w3.org/Graphics/SVG/1.1/DTD/svg11.dtd">
<svg xmlns:xlink="http://www.w3.org/1999/xlink" width="432pt" height="576pt" viewBox="0 0 432 576" xmlns="http://www.w3.org/2000/svg" version="1.1">
 <metadata>
  <rdf:RDF xmlns:dc="http://purl.org/dc/elements/1.1/" xmlns:cc="http://creativecommons.org/ns#" xmlns:rdf="http://www.w3.org/1999/02/22-rdf-syntax-ns#">
   <cc:Work>
    <dc:type rdf:resource="http://purl.org/dc/dcmitype/StillImage"/>
    <dc:date>2024-11-13T13:29:32.697557</dc:date>
    <dc:format>image/svg+xml</dc:format>
    <dc:creator>
     <cc:Agent>
      <dc:title>Matplotlib v3.8.4, https://matplotlib.org/</dc:title>
     </cc:Agent>
    </dc:creator>
   </cc:Work>
  </rdf:RDF>
 </metadata>
 <defs>
  <style type="text/css">*{stroke-linejoin: round; stroke-linecap: butt}</style>
 </defs>
 <g id="figure_1">
  <g id="patch_1">
   <path d="M 0 576 
L 432 576 
L 432 0 
L 0 0 
z
" style="fill: #ffffff"/>
  </g>
  <g id="axes_1">
   <g id="patch_2">
    <path d="M 90.65 244.74 
L 395.378182 244.74 
L 395.378182 49.92 
L 90.65 49.92 
z
" style="fill: #ffffff"/>
   </g>
   <g id="PolyCollection_1">
    <defs>
     <path id="m7d0013c8e1" d="M 104.501281 -514.987289 
L 104.501281 -514.985863 
L 107.964101 -514.98398 
L 111.426921 -514.976488 
L 114.889742 -509.029716 
L 118.352562 -496.432769 
L 121.815382 -486.803499 
L 125.278202 -478.905624 
L 128.741023 -461.149287 
L 132.203843 -451.567536 
L 135.666663 -451.349245 
L 139.129483 -441.25006 
L 142.592304 -435.599609 
L 146.055124 -433.316892 
L 149.517944 -431.022988 
L 152.980764 -431.117652 
L 156.443585 -422.12284 
L 159.906405 -417.874674 
L 163.369225 -411.74332 
L 166.832045 -408.615133 
L 170.294866 -392.741305 
L 173.757686 -381.607666 
L 177.220506 -383.982063 
L 180.683326 -379.289665 
L 184.146147 -373.408598 
L 187.608967 -367.677423 
L 191.071787 -371.49224 
L 194.534607 -387.614874 
L 197.997428 -384.332853 
L 201.460248 -371.911094 
L 204.923068 -369.647251 
L 208.385888 -384.426151 
L 211.848709 -381.820973 
L 215.311529 -380.136147 
L 218.774349 -374.46484 
L 222.237169 -376.607741 
L 225.69999 -372.465852 
L 229.16281 -395.630369 
L 232.62563 -385.232328 
L 236.08845 -382.13519 
L 239.551271 -375.529233 
L 243.014091 -369.886688 
L 246.476911 -383.563188 
L 249.939731 -380.530398 
L 253.402552 -388.085332 
L 256.865372 -384.155234 
L 260.328192 -379.569915 
L 263.791012 -378.179183 
L 267.253833 -378.882639 
L 270.716653 -375.611259 
L 274.179473 -378.714531 
L 277.642293 -372.485069 
L 281.105114 -368.239738 
L 284.567934 -371.349234 
L 288.030754 -375.066448 
L 291.493574 -373.845117 
L 294.956395 -377.644394 
L 298.419215 -372.874669 
L 301.882035 -377.361248 
L 305.344855 -373.162089 
L 308.807676 -371.820734 
L 312.270496 -369.458404 
L 315.733316 -367.030343 
L 319.196136 -366.155102 
L 322.658957 -366.992744 
L 326.121777 -365.842752 
L 329.584597 -367.97762 
L 333.047417 -364.173882 
L 336.510238 -366.683277 
L 339.973058 -363.896331 
L 343.435878 -361.477368 
L 346.898698 -363.425896 
L 350.361519 -358.961722 
L 353.824339 -358.91084 
L 357.287159 -358.941826 
L 360.749979 -360.756034 
L 364.2128 -364.3422 
L 367.67562 -359.873812 
L 371.13844 -369.388933 
L 374.60126 -362.118419 
L 378.064081 -362.045703 
L 381.526901 -354.337876 
L 381.526901 -404.687524 
L 381.526901 -404.687524 
L 378.064081 -392.988814 
L 374.60126 -388.022611 
L 371.13844 -412.007224 
L 367.67562 -390.391563 
L 364.2128 -391.241689 
L 360.749979 -393.9803 
L 357.287159 -399.284498 
L 353.824339 -436.965237 
L 350.361519 -401.675219 
L 346.898698 -449.931677 
L 343.435878 -438.559813 
L 339.973058 -448.727285 
L 336.510238 -396.212074 
L 333.047417 -389.263419 
L 329.584597 -397.500832 
L 326.121777 -429.26068 
L 322.658957 -410.663538 
L 319.196136 -421.834987 
L 315.733316 -398.820687 
L 312.270496 -404.388499 
L 308.807676 -397.036463 
L 305.344855 -413.018519 
L 301.882035 -424.492979 
L 298.419215 -421.45692 
L 294.956395 -444.940232 
L 291.493574 -437.899391 
L 288.030754 -434.662916 
L 284.567934 -440.717953 
L 281.105114 -411.586681 
L 277.642293 -412.375467 
L 274.179473 -409.980105 
L 270.716653 -407.590939 
L 267.253833 -414.884705 
L 263.791012 -413.569792 
L 260.328192 -406.404124 
L 256.865372 -416.525176 
L 253.402552 -433.871543 
L 249.939731 -413.47711 
L 246.476911 -440.966774 
L 243.014091 -423.982294 
L 239.551271 -415.992547 
L 236.08845 -415.718637 
L 232.62563 -430.818599 
L 229.16281 -426.984419 
L 225.69999 -453.532158 
L 222.237169 -444.174889 
L 218.774349 -471.519548 
L 215.311529 -477.554841 
L 211.848709 -447.607603 
L 208.385888 -455.079703 
L 204.923068 -463.75897 
L 201.460248 -488.089583 
L 197.997428 -502.414087 
L 194.534607 -441.65795 
L 191.071787 -454.299563 
L 187.608967 -473.517236 
L 184.146147 -493.074627 
L 180.683326 -490.023777 
L 177.220506 -491.355294 
L 173.757686 -478.523596 
L 170.294866 -532.567001 
L 166.832045 -486.418569 
L 163.369225 -506.476049 
L 159.906405 -520.68633 
L 156.443585 -494.622241 
L 152.980764 -514.195139 
L 149.517944 -508.410964 
L 146.055124 -507.785243 
L 142.592304 -511.979522 
L 139.129483 -506.808012 
L 135.666663 -503.016676 
L 132.203843 -490.554525 
L 128.741023 -496.473123 
L 125.278202 -502.202553 
L 121.815382 -514.006139 
L 118.352562 -513.553621 
L 114.889742 -514.931204 
L 111.426921 -514.991002 
L 107.964101 -514.988901 
L 104.501281 -514.987289 
z
" style="stroke: #23aa00; stroke-opacity: 0.4"/>
    </defs>
    <g clip-path="url(#p63a66d8548)">
     <use xlink:href="#m7d0013c8e1" x="0" y="576" style="fill: #23aa00; fill-opacity: 0.4; stroke: #23aa00; stroke-opacity: 0.4"/>
    </g>
   </g>
   <g id="PolyCollection_2">
    <defs>
     <path id="m65b1358d37" d="M 104.501281 -514.987433 
L 104.501281 -514.98586 
L 107.964101 -514.984558 
L 111.426921 -514.979053 
L 114.889742 -510.540446 
L 118.352562 -498.941778 
L 121.815382 -489.057834 
L 125.278202 -475.996413 
L 128.741023 -467.238313 
L 132.203843 -465.792719 
L 135.666663 -458.023103 
L 139.129483 -448.883912 
L 142.592304 -442.68583 
L 146.055124 -432.625381 
L 149.517944 -426.538742 
L 152.980764 -421.937203 
L 156.443585 -416.387583 
L 159.906405 -421.605139 
L 163.369225 -429.299164 
L 166.832045 -456.322115 
L 170.294866 -465.41287 
L 173.757686 -447.388531 
L 177.220506 -456.731761 
L 180.683326 -440.090328 
L 184.146147 -441.091533 
L 187.608967 -429.337538 
L 191.071787 -421.523132 
L 194.534607 -415.77785 
L 197.997428 -409.573433 
L 201.460248 -407.293684 
L 204.923068 -408.661063 
L 208.385888 -407.909209 
L 211.848709 -409.182094 
L 215.311529 -407.045335 
L 218.774349 -406.761562 
L 222.237169 -401.04967 
L 225.69999 -399.573666 
L 229.16281 -398.389233 
L 232.62563 -405.171509 
L 236.08845 -403.386337 
L 239.551271 -401.035686 
L 243.014091 -402.257418 
L 246.476911 -403.694879 
L 249.939731 -404.663141 
L 253.402552 -411.734149 
L 256.865372 -411.473033 
L 260.328192 -403.579184 
L 263.791012 -405.592889 
L 267.253833 -394.662514 
L 270.716653 -402.533112 
L 274.179473 -395.702349 
L 277.642293 -389.816587 
L 281.105114 -393.509705 
L 284.567934 -391.473801 
L 288.030754 -381.376835 
L 291.493574 -384.352878 
L 294.956395 -384.983228 
L 298.419215 -391.440731 
L 301.882035 -387.671571 
L 305.344855 -380.649993 
L 308.807676 -387.179968 
L 312.270496 -387.119202 
L 315.733316 -387.257871 
L 319.196136 -386.317961 
L 322.658957 -392.568677 
L 326.121777 -381.204068 
L 329.584597 -383.124531 
L 333.047417 -385.72241 
L 336.510238 -391.088809 
L 339.973058 -390.619733 
L 343.435878 -377.615933 
L 346.898698 -381.693593 
L 350.361519 -384.691561 
L 353.824339 -383.324257 
L 357.287159 -374.776522 
L 360.749979 -376.206889 
L 364.2128 -371.443873 
L 367.67562 -369.371392 
L 371.13844 -370.102289 
L 374.60126 -369.549103 
L 378.064081 -375.797301 
L 381.526901 -372.49887 
L 381.526901 -409.416066 
L 381.526901 -409.416066 
L 378.064081 -426.023886 
L 374.60126 -406.205859 
L 371.13844 -401.63634 
L 367.67562 -405.622299 
L 364.2128 -435.122255 
L 360.749979 -416.809821 
L 357.287159 -398.996946 
L 353.824339 -395.95769 
L 350.361519 -400.471121 
L 346.898698 -413.879607 
L 343.435878 -410.776993 
L 339.973058 -404.789072 
L 336.510238 -421.046584 
L 333.047417 -407.512398 
L 329.584597 -402.664236 
L 326.121777 -413.387202 
L 322.658957 -402.893304 
L 319.196136 -400.778126 
L 315.733316 -419.353399 
L 312.270496 -413.471901 
L 308.807676 -413.335919 
L 305.344855 -413.818903 
L 301.882035 -418.924749 
L 298.419215 -415.686005 
L 294.956395 -421.914567 
L 291.493574 -401.695784 
L 288.030754 -398.731622 
L 284.567934 -407.194606 
L 281.105114 -406.384059 
L 277.642293 -409.20705 
L 274.179473 -423.429324 
L 270.716653 -420.800268 
L 267.253833 -434.805285 
L 263.791012 -428.849144 
L 260.328192 -423.698091 
L 256.865372 -418.970137 
L 253.402552 -432.762089 
L 249.939731 -425.269208 
L 246.476911 -438.384699 
L 243.014091 -435.114226 
L 239.551271 -434.356923 
L 236.08845 -459.596379 
L 232.62563 -452.40625 
L 229.16281 -460.758474 
L 225.69999 -467.150832 
L 222.237169 -456.71085 
L 218.774349 -452.895627 
L 215.311529 -461.325516 
L 211.848709 -467.989759 
L 208.385888 -468.048262 
L 204.923068 -468.391068 
L 201.460248 -472.096036 
L 197.997428 -470.073644 
L 194.534607 -481.845462 
L 191.071787 -480.403577 
L 187.608967 -486.397369 
L 184.146147 -482.394565 
L 180.683326 -492.241953 
L 177.220506 -485.821838 
L 173.757686 -490.162956 
L 170.294866 -496.35091 
L 166.832045 -516.528418 
L 163.369225 -503.982919 
L 159.906405 -495.419926 
L 156.443585 -503.219056 
L 152.980764 -540.353755 
L 149.517944 -507.312457 
L 146.055124 -511.740997 
L 142.592304 -504.847194 
L 139.129483 -502.773584 
L 135.666663 -506.363213 
L 132.203843 -500.750689 
L 128.741023 -503.828457 
L 125.278202 -513.194895 
L 121.815382 -513.991355 
L 118.352562 -514.833849 
L 114.889742 -514.989057 
L 111.426921 -514.99119 
L 107.964101 -514.986826 
L 104.501281 -514.987433 
z
" style="stroke: #f68917; stroke-opacity: 0.4"/>
    </defs>
    <g clip-path="url(#p63a66d8548)">
     <use xlink:href="#m65b1358d37" x="0" y="576" style="fill: #f68917; fill-opacity: 0.4; stroke: #f68917; stroke-opacity: 0.4"/>
    </g>
   </g>
   <g id="PolyCollection_3">
    <defs>
     <path id="m078339b027" d="M 104.501281 -514.987436 
L 104.501281 -514.98567 
L 107.964101 -514.98457 
L 111.426921 -514.980308 
L 114.889742 -510.074531 
L 118.352562 -497.08612 
L 121.815382 -486.034993 
L 125.278202 -475.332611 
L 128.741023 -465.968222 
L 132.203843 -470.561564 
L 135.666663 -471.205836 
L 139.129483 -466.439648 
L 142.592304 -468.434819 
L 146.055124 -460.060617 
L 149.517944 -449.376548 
L 152.980764 -446.057831 
L 156.443585 -443.293708 
L 159.906405 -443.082059 
L 163.369225 -441.541457 
L 166.832045 -439.100871 
L 170.294866 -435.764171 
L 173.757686 -437.060345 
L 177.220506 -431.62726 
L 180.683326 -430.772555 
L 184.146147 -429.927846 
L 187.608967 -431.494094 
L 191.071787 -428.927772 
L 194.534607 -430.62961 
L 197.997428 -445.016473 
L 201.460248 -431.826866 
L 204.923068 -422.732012 
L 208.385888 -415.344256 
L 211.848709 -417.487043 
L 215.311529 -430.775399 
L 218.774349 -420.72368 
L 222.237169 -422.47061 
L 225.69999 -436.441923 
L 229.16281 -424.069175 
L 232.62563 -438.419308 
L 236.08845 -433.209112 
L 239.551271 -437.093296 
L 243.014091 -450.875998 
L 246.476911 -426.032504 
L 249.939731 -421.368638 
L 253.402552 -424.749355 
L 256.865372 -422.666298 
L 260.328192 -417.984613 
L 263.791012 -422.177733 
L 267.253833 -418.839913 
L 270.716653 -423.010524 
L 274.179473 -409.501499 
L 277.642293 -417.835209 
L 281.105114 -418.479822 
L 284.567934 -410.384658 
L 288.030754 -410.334463 
L 291.493574 -408.423669 
L 294.956395 -414.798531 
L 298.419215 -397.475805 
L 301.882035 -407.177757 
L 305.344855 -404.965087 
L 308.807676 -404.158586 
L 312.270496 -402.744542 
L 315.733316 -411.335714 
L 319.196136 -403.831089 
L 322.658957 -396.679175 
L 326.121777 -396.736329 
L 329.584597 -399.021191 
L 333.047417 -406.141646 
L 336.510238 -413.043737 
L 339.973058 -400.354051 
L 343.435878 -399.013333 
L 346.898698 -399.681863 
L 350.361519 -395.749689 
L 353.824339 -399.12791 
L 357.287159 -393.43353 
L 360.749979 -396.392027 
L 364.2128 -401.582601 
L 367.67562 -397.749963 
L 371.13844 -391.845407 
L 374.60126 -395.893157 
L 378.064081 -389.684338 
L 381.526901 -388.252074 
L 381.526901 -446.673717 
L 381.526901 -446.673717 
L 378.064081 -445.937979 
L 374.60126 -457.588914 
L 371.13844 -443.782702 
L 367.67562 -449.586768 
L 364.2128 -451.299477 
L 360.749979 -449.737695 
L 357.287159 -446.022406 
L 353.824339 -445.848394 
L 350.361519 -448.307836 
L 346.898698 -460.287757 
L 343.435878 -458.711097 
L 339.973058 -454.80313 
L 336.510238 -452.120115 
L 333.047417 -457.37242 
L 329.584597 -461.623256 
L 326.121777 -467.200248 
L 322.658957 -463.436284 
L 319.196136 -458.739246 
L 315.733316 -454.995534 
L 312.270496 -468.289539 
L 308.807676 -455.821673 
L 305.344855 -459.433357 
L 301.882035 -457.156421 
L 298.419215 -455.080816 
L 294.956395 -456.208501 
L 291.493574 -459.802773 
L 288.030754 -460.202832 
L 284.567934 -460.506377 
L 281.105114 -472.425873 
L 277.642293 -473.987946 
L 274.179473 -482.448711 
L 270.716653 -480.848701 
L 267.253833 -474.406992 
L 263.791012 -465.553287 
L 260.328192 -476.951459 
L 256.865372 -477.958631 
L 253.402552 -477.498283 
L 249.939731 -482.652693 
L 246.476911 -481.507009 
L 243.014091 -484.460158 
L 239.551271 -484.225645 
L 236.08845 -485.71572 
L 232.62563 -483.656168 
L 229.16281 -483.52998 
L 225.69999 -484.976152 
L 222.237169 -481.339692 
L 218.774349 -483.491064 
L 215.311529 -486.066401 
L 211.848709 -488.573105 
L 208.385888 -487.054248 
L 204.923068 -485.504628 
L 201.460248 -488.780105 
L 197.997428 -488.637827 
L 194.534607 -488.952206 
L 191.071787 -490.072192 
L 187.608967 -489.166988 
L 184.146147 -492.268691 
L 180.683326 -490.017663 
L 177.220506 -491.820205 
L 173.757686 -492.283905 
L 170.294866 -495.010141 
L 166.832045 -495.21097 
L 163.369225 -502.210588 
L 159.906405 -500.173209 
L 156.443585 -499.382633 
L 152.980764 -497.768114 
L 149.517944 -498.566785 
L 146.055124 -500.665129 
L 142.592304 -499.630226 
L 139.129483 -501.567226 
L 135.666663 -515.093937 
L 132.203843 -503.965743 
L 128.741023 -507.451386 
L 125.278202 -510.454779 
L 121.815382 -514.136433 
L 118.352562 -514.978384 
L 114.889742 -514.996145 
L 111.426921 -514.990163 
L 107.964101 -514.987076 
L 104.501281 -514.987436 
z
" style="stroke: #6e0385; stroke-opacity: 0.4"/>
    </defs>
    <g clip-path="url(#p63a66d8548)">
     <use xlink:href="#m078339b027" x="0" y="576" style="fill: #6e0385; fill-opacity: 0.4; stroke: #6e0385; stroke-opacity: 0.4"/>
    </g>
   </g>
   <g id="matplotlib.axis_1">
    <g id="xtick_1">
     <g id="line2d_1">
      <defs>
       <path id="m9ecd50b291" d="M 0 0 
L 0 3.5 
" style="stroke: #000000; stroke-width: 0.8"/>
      </defs>
      <g>
       <use xlink:href="#m9ecd50b291" x="104.501281" y="244.74" style="stroke: #000000; stroke-width: 0.8"/>
      </g>
     </g>
     <g id="text_1">
      <!-- 0 -->
      <g transform="translate(97.502531 268.456562) scale(0.22 -0.22)">
       <defs>
        <path id="DejaVuSans-30" d="M 2034 4250 
Q 1547 4250 1301 3770 
Q 1056 3291 1056 2328 
Q 1056 1369 1301 889 
Q 1547 409 2034 409 
Q 2525 409 2770 889 
Q 3016 1369 3016 2328 
Q 3016 3291 2770 3770 
Q 2525 4250 2034 4250 
z
M 2034 4750 
Q 2819 4750 3233 4129 
Q 3647 3509 3647 2328 
Q 3647 1150 3233 529 
Q 2819 -91 2034 -91 
Q 1250 -91 836 529 
Q 422 1150 422 2328 
Q 422 3509 836 4129 
Q 1250 4750 2034 4750 
z
" transform="scale(0.015625)"/>
       </defs>
       <use xlink:href="#DejaVuSans-30"/>
      </g>
     </g>
    </g>
    <g id="xtick_2">
     <g id="line2d_2">
      <g>
       <use xlink:href="#m9ecd50b291" x="243.014091" y="244.74" style="stroke: #000000; stroke-width: 0.8"/>
      </g>
     </g>
     <g id="text_2">
      <!-- 1000 -->
      <g transform="translate(215.019091 268.456562) scale(0.22 -0.22)">
       <defs>
        <path id="DejaVuSans-31" d="M 794 531 
L 1825 531 
L 1825 4091 
L 703 3866 
L 703 4441 
L 1819 4666 
L 2450 4666 
L 2450 531 
L 3481 531 
L 3481 0 
L 794 0 
L 794 531 
z
" transform="scale(0.015625)"/>
       </defs>
       <use xlink:href="#DejaVuSans-31"/>
       <use xlink:href="#DejaVuSans-30" x="63.623047"/>
       <use xlink:href="#DejaVuSans-30" x="127.246094"/>
       <use xlink:href="#DejaVuSans-30" x="190.869141"/>
      </g>
     </g>
    </g>
    <g id="xtick_3">
     <g id="line2d_3">
      <g>
       <use xlink:href="#m9ecd50b291" x="381.526901" y="244.74" style="stroke: #000000; stroke-width: 0.8"/>
      </g>
     </g>
     <g id="text_3">
      <!-- 2000 -->
      <g transform="translate(353.531901 268.456562) scale(0.22 -0.22)">
       <defs>
        <path id="DejaVuSans-32" d="M 1228 531 
L 3431 531 
L 3431 0 
L 469 0 
L 469 531 
Q 828 903 1448 1529 
Q 2069 2156 2228 2338 
Q 2531 2678 2651 2914 
Q 2772 3150 2772 3378 
Q 2772 3750 2511 3984 
Q 2250 4219 1831 4219 
Q 1534 4219 1204 4116 
Q 875 4013 500 3803 
L 500 4441 
Q 881 4594 1212 4672 
Q 1544 4750 1819 4750 
Q 2544 4750 2975 4387 
Q 3406 4025 3406 3419 
Q 3406 3131 3298 2873 
Q 3191 2616 2906 2266 
Q 2828 2175 2409 1742 
Q 1991 1309 1228 531 
z
" transform="scale(0.015625)"/>
       </defs>
       <use xlink:href="#DejaVuSans-32"/>
       <use xlink:href="#DejaVuSans-30" x="63.623047"/>
       <use xlink:href="#DejaVuSans-30" x="127.246094"/>
       <use xlink:href="#DejaVuSans-30" x="190.869141"/>
      </g>
     </g>
    </g>
    <g id="text_4">
     <!-- Iterations -->
     <g transform="translate(190.624872 293.748437) scale(0.22 -0.22)">
      <defs>
       <path id="DejaVuSans-49" d="M 628 4666 
L 1259 4666 
L 1259 0 
L 628 0 
L 628 4666 
z
" transform="scale(0.015625)"/>
       <path id="DejaVuSans-74" d="M 1172 4494 
L 1172 3500 
L 2356 3500 
L 2356 3053 
L 1172 3053 
L 1172 1153 
Q 1172 725 1289 603 
Q 1406 481 1766 481 
L 2356 481 
L 2356 0 
L 1766 0 
Q 1100 0 847 248 
Q 594 497 594 1153 
L 594 3053 
L 172 3053 
L 172 3500 
L 594 3500 
L 594 4494 
L 1172 4494 
z
" transform="scale(0.015625)"/>
       <path id="DejaVuSans-65" d="M 3597 1894 
L 3597 1613 
L 953 1613 
Q 991 1019 1311 708 
Q 1631 397 2203 397 
Q 2534 397 2845 478 
Q 3156 559 3463 722 
L 3463 178 
Q 3153 47 2828 -22 
Q 2503 -91 2169 -91 
Q 1331 -91 842 396 
Q 353 884 353 1716 
Q 353 2575 817 3079 
Q 1281 3584 2069 3584 
Q 2775 3584 3186 3129 
Q 3597 2675 3597 1894 
z
M 3022 2063 
Q 3016 2534 2758 2815 
Q 2500 3097 2075 3097 
Q 1594 3097 1305 2825 
Q 1016 2553 972 2059 
L 3022 2063 
z
" transform="scale(0.015625)"/>
       <path id="DejaVuSans-72" d="M 2631 2963 
Q 2534 3019 2420 3045 
Q 2306 3072 2169 3072 
Q 1681 3072 1420 2755 
Q 1159 2438 1159 1844 
L 1159 0 
L 581 0 
L 581 3500 
L 1159 3500 
L 1159 2956 
Q 1341 3275 1631 3429 
Q 1922 3584 2338 3584 
Q 2397 3584 2469 3576 
Q 2541 3569 2628 3553 
L 2631 2963 
z
" transform="scale(0.015625)"/>
       <path id="DejaVuSans-61" d="M 2194 1759 
Q 1497 1759 1228 1600 
Q 959 1441 959 1056 
Q 959 750 1161 570 
Q 1363 391 1709 391 
Q 2188 391 2477 730 
Q 2766 1069 2766 1631 
L 2766 1759 
L 2194 1759 
z
M 3341 1997 
L 3341 0 
L 2766 0 
L 2766 531 
Q 2569 213 2275 61 
Q 1981 -91 1556 -91 
Q 1019 -91 701 211 
Q 384 513 384 1019 
Q 384 1609 779 1909 
Q 1175 2209 1959 2209 
L 2766 2209 
L 2766 2266 
Q 2766 2663 2505 2880 
Q 2244 3097 1772 3097 
Q 1472 3097 1187 3025 
Q 903 2953 641 2809 
L 641 3341 
Q 956 3463 1253 3523 
Q 1550 3584 1831 3584 
Q 2591 3584 2966 3190 
Q 3341 2797 3341 1997 
z
" transform="scale(0.015625)"/>
       <path id="DejaVuSans-69" d="M 603 3500 
L 1178 3500 
L 1178 0 
L 603 0 
L 603 3500 
z
M 603 4863 
L 1178 4863 
L 1178 4134 
L 603 4134 
L 603 4863 
z
" transform="scale(0.015625)"/>
       <path id="DejaVuSans-6f" d="M 1959 3097 
Q 1497 3097 1228 2736 
Q 959 2375 959 1747 
Q 959 1119 1226 758 
Q 1494 397 1959 397 
Q 2419 397 2687 759 
Q 2956 1122 2956 1747 
Q 2956 2369 2687 2733 
Q 2419 3097 1959 3097 
z
M 1959 3584 
Q 2709 3584 3137 3096 
Q 3566 2609 3566 1747 
Q 3566 888 3137 398 
Q 2709 -91 1959 -91 
Q 1206 -91 779 398 
Q 353 888 353 1747 
Q 353 2609 779 3096 
Q 1206 3584 1959 3584 
z
" transform="scale(0.015625)"/>
       <path id="DejaVuSans-6e" d="M 3513 2113 
L 3513 0 
L 2938 0 
L 2938 2094 
Q 2938 2591 2744 2837 
Q 2550 3084 2163 3084 
Q 1697 3084 1428 2787 
Q 1159 2491 1159 1978 
L 1159 0 
L 581 0 
L 581 3500 
L 1159 3500 
L 1159 2956 
Q 1366 3272 1645 3428 
Q 1925 3584 2291 3584 
Q 2894 3584 3203 3211 
Q 3513 2838 3513 2113 
z
" transform="scale(0.015625)"/>
       <path id="DejaVuSans-73" d="M 2834 3397 
L 2834 2853 
Q 2591 2978 2328 3040 
Q 2066 3103 1784 3103 
Q 1356 3103 1142 2972 
Q 928 2841 928 2578 
Q 928 2378 1081 2264 
Q 1234 2150 1697 2047 
L 1894 2003 
Q 2506 1872 2764 1633 
Q 3022 1394 3022 966 
Q 3022 478 2636 193 
Q 2250 -91 1575 -91 
Q 1294 -91 989 -36 
Q 684 19 347 128 
L 347 722 
Q 666 556 975 473 
Q 1284 391 1588 391 
Q 1994 391 2212 530 
Q 2431 669 2431 922 
Q 2431 1156 2273 1281 
Q 2116 1406 1581 1522 
L 1381 1569 
Q 847 1681 609 1914 
Q 372 2147 372 2553 
Q 372 3047 722 3315 
Q 1072 3584 1716 3584 
Q 2034 3584 2315 3537 
Q 2597 3491 2834 3397 
z
" transform="scale(0.015625)"/>
      </defs>
      <use xlink:href="#DejaVuSans-49"/>
      <use xlink:href="#DejaVuSans-74" x="29.492188"/>
      <use xlink:href="#DejaVuSans-65" x="68.701172"/>
      <use xlink:href="#DejaVuSans-72" x="130.224609"/>
      <use xlink:href="#DejaVuSans-61" x="171.337891"/>
      <use xlink:href="#DejaVuSans-74" x="232.617188"/>
      <use xlink:href="#DejaVuSans-69" x="271.826172"/>
      <use xlink:href="#DejaVuSans-6f" x="299.609375"/>
      <use xlink:href="#DejaVuSans-6e" x="360.791016"/>
      <use xlink:href="#DejaVuSans-73" x="424.169922"/>
     </g>
    </g>
   </g>
   <g id="matplotlib.axis_2">
    <g id="ytick_1">
     <g id="line2d_4">
      <defs>
       <path id="m5dbfabe707" d="M 0 0 
L -3.5 0 
" style="stroke: #000000; stroke-width: 0.8"/>
      </defs>
      <g>
       <use xlink:href="#m5dbfabe707" x="90.65" y="218.233878" style="stroke: #000000; stroke-width: 0.8"/>
      </g>
     </g>
     <g id="text_5">
      <!-- 0.1 -->
      <g transform="translate(48.663125 226.592159) scale(0.22 -0.22)">
       <defs>
        <path id="DejaVuSans-2e" d="M 684 794 
L 1344 794 
L 1344 0 
L 684 0 
L 684 794 
z
" transform="scale(0.015625)"/>
       </defs>
       <use xlink:href="#DejaVuSans-30"/>
       <use xlink:href="#DejaVuSans-2e" x="63.623047"/>
       <use xlink:href="#DejaVuSans-31" x="95.410156"/>
      </g>
     </g>
    </g>
    <g id="ytick_2">
     <g id="line2d_5">
      <g>
       <use xlink:href="#m5dbfabe707" x="90.65" y="191.727755" style="stroke: #000000; stroke-width: 0.8"/>
      </g>
     </g>
     <g id="text_6">
      <!-- 0.2 -->
      <g transform="translate(48.663125 200.086036) scale(0.22 -0.22)">
       <use xlink:href="#DejaVuSans-30"/>
       <use xlink:href="#DejaVuSans-2e" x="63.623047"/>
       <use xlink:href="#DejaVuSans-32" x="95.410156"/>
      </g>
     </g>
    </g>
    <g id="ytick_3">
     <g id="line2d_6">
      <g>
       <use xlink:href="#m5dbfabe707" x="90.65" y="165.221633" style="stroke: #000000; stroke-width: 0.8"/>
      </g>
     </g>
     <g id="text_7">
      <!-- 0.3 -->
      <g transform="translate(48.663125 173.579914) scale(0.22 -0.22)">
       <defs>
        <path id="DejaVuSans-33" d="M 2597 2516 
Q 3050 2419 3304 2112 
Q 3559 1806 3559 1356 
Q 3559 666 3084 287 
Q 2609 -91 1734 -91 
Q 1441 -91 1130 -33 
Q 819 25 488 141 
L 488 750 
Q 750 597 1062 519 
Q 1375 441 1716 441 
Q 2309 441 2620 675 
Q 2931 909 2931 1356 
Q 2931 1769 2642 2001 
Q 2353 2234 1838 2234 
L 1294 2234 
L 1294 2753 
L 1863 2753 
Q 2328 2753 2575 2939 
Q 2822 3125 2822 3475 
Q 2822 3834 2567 4026 
Q 2313 4219 1838 4219 
Q 1578 4219 1281 4162 
Q 984 4106 628 3988 
L 628 4550 
Q 988 4650 1302 4700 
Q 1616 4750 1894 4750 
Q 2613 4750 3031 4423 
Q 3450 4097 3450 3541 
Q 3450 3153 3228 2886 
Q 3006 2619 2597 2516 
z
" transform="scale(0.015625)"/>
       </defs>
       <use xlink:href="#DejaVuSans-30"/>
       <use xlink:href="#DejaVuSans-2e" x="63.623047"/>
       <use xlink:href="#DejaVuSans-33" x="95.410156"/>
      </g>
     </g>
    </g>
    <g id="ytick_4">
     <g id="line2d_7">
      <g>
       <use xlink:href="#m5dbfabe707" x="90.65" y="138.71551" style="stroke: #000000; stroke-width: 0.8"/>
      </g>
     </g>
     <g id="text_8">
      <!-- 0.4 -->
      <g transform="translate(48.663125 147.073791) scale(0.22 -0.22)">
       <defs>
        <path id="DejaVuSans-34" d="M 2419 4116 
L 825 1625 
L 2419 1625 
L 2419 4116 
z
M 2253 4666 
L 3047 4666 
L 3047 1625 
L 3713 1625 
L 3713 1100 
L 3047 1100 
L 3047 0 
L 2419 0 
L 2419 1100 
L 313 1100 
L 313 1709 
L 2253 4666 
z
" transform="scale(0.015625)"/>
       </defs>
       <use xlink:href="#DejaVuSans-30"/>
       <use xlink:href="#DejaVuSans-2e" x="63.623047"/>
       <use xlink:href="#DejaVuSans-34" x="95.410156"/>
      </g>
     </g>
    </g>
    <g id="ytick_5">
     <g id="line2d_8">
      <g>
       <use xlink:href="#m5dbfabe707" x="90.65" y="112.209388" style="stroke: #000000; stroke-width: 0.8"/>
      </g>
     </g>
     <g id="text_9">
      <!-- 0.5 -->
      <g transform="translate(48.663125 120.567669) scale(0.22 -0.22)">
       <defs>
        <path id="DejaVuSans-35" d="M 691 4666 
L 3169 4666 
L 3169 4134 
L 1269 4134 
L 1269 2991 
Q 1406 3038 1543 3061 
Q 1681 3084 1819 3084 
Q 2600 3084 3056 2656 
Q 3513 2228 3513 1497 
Q 3513 744 3044 326 
Q 2575 -91 1722 -91 
Q 1428 -91 1123 -41 
Q 819 9 494 109 
L 494 744 
Q 775 591 1075 516 
Q 1375 441 1709 441 
Q 2250 441 2565 725 
Q 2881 1009 2881 1497 
Q 2881 1984 2565 2268 
Q 2250 2553 1709 2553 
Q 1456 2553 1204 2497 
Q 953 2441 691 2322 
L 691 4666 
z
" transform="scale(0.015625)"/>
       </defs>
       <use xlink:href="#DejaVuSans-30"/>
       <use xlink:href="#DejaVuSans-2e" x="63.623047"/>
       <use xlink:href="#DejaVuSans-35" x="95.410156"/>
      </g>
     </g>
    </g>
    <g id="ytick_6">
     <g id="line2d_9">
      <g>
       <use xlink:href="#m5dbfabe707" x="90.65" y="85.703265" style="stroke: #000000; stroke-width: 0.8"/>
      </g>
     </g>
     <g id="text_10">
      <!-- 0.6 -->
      <g transform="translate(48.663125 94.061547) scale(0.22 -0.22)">
       <defs>
        <path id="DejaVuSans-36" d="M 2113 2584 
Q 1688 2584 1439 2293 
Q 1191 2003 1191 1497 
Q 1191 994 1439 701 
Q 1688 409 2113 409 
Q 2538 409 2786 701 
Q 3034 994 3034 1497 
Q 3034 2003 2786 2293 
Q 2538 2584 2113 2584 
z
M 3366 4563 
L 3366 3988 
Q 3128 4100 2886 4159 
Q 2644 4219 2406 4219 
Q 1781 4219 1451 3797 
Q 1122 3375 1075 2522 
Q 1259 2794 1537 2939 
Q 1816 3084 2150 3084 
Q 2853 3084 3261 2657 
Q 3669 2231 3669 1497 
Q 3669 778 3244 343 
Q 2819 -91 2113 -91 
Q 1303 -91 875 529 
Q 447 1150 447 2328 
Q 447 3434 972 4092 
Q 1497 4750 2381 4750 
Q 2619 4750 2861 4703 
Q 3103 4656 3366 4563 
z
" transform="scale(0.015625)"/>
       </defs>
       <use xlink:href="#DejaVuSans-30"/>
       <use xlink:href="#DejaVuSans-2e" x="63.623047"/>
       <use xlink:href="#DejaVuSans-36" x="95.410156"/>
      </g>
     </g>
    </g>
    <g id="ytick_7">
     <g id="line2d_10">
      <g>
       <use xlink:href="#m5dbfabe707" x="90.65" y="59.197143" style="stroke: #000000; stroke-width: 0.8"/>
      </g>
     </g>
     <g id="text_11">
      <!-- 0.7 -->
      <g transform="translate(48.663125 67.555424) scale(0.22 -0.22)">
       <defs>
        <path id="DejaVuSans-37" d="M 525 4666 
L 3525 4666 
L 3525 4397 
L 1831 0 
L 1172 0 
L 2766 4134 
L 525 4134 
L 525 4666 
z
" transform="scale(0.015625)"/>
       </defs>
       <use xlink:href="#DejaVuSans-30"/>
       <use xlink:href="#DejaVuSans-2e" x="63.623047"/>
       <use xlink:href="#DejaVuSans-37" x="95.410156"/>
      </g>
     </g>
    </g>
    <g id="text_12">
     <!-- Cross-Entropy -->
     <g transform="translate(40.087813 224.17875) rotate(-90) scale(0.22 -0.22)">
      <defs>
       <path id="DejaVuSans-43" d="M 4122 4306 
L 4122 3641 
Q 3803 3938 3442 4084 
Q 3081 4231 2675 4231 
Q 1875 4231 1450 3742 
Q 1025 3253 1025 2328 
Q 1025 1406 1450 917 
Q 1875 428 2675 428 
Q 3081 428 3442 575 
Q 3803 722 4122 1019 
L 4122 359 
Q 3791 134 3420 21 
Q 3050 -91 2638 -91 
Q 1578 -91 968 557 
Q 359 1206 359 2328 
Q 359 3453 968 4101 
Q 1578 4750 2638 4750 
Q 3056 4750 3426 4639 
Q 3797 4528 4122 4306 
z
" transform="scale(0.015625)"/>
       <path id="DejaVuSans-2d" d="M 313 2009 
L 1997 2009 
L 1997 1497 
L 313 1497 
L 313 2009 
z
" transform="scale(0.015625)"/>
       <path id="DejaVuSans-45" d="M 628 4666 
L 3578 4666 
L 3578 4134 
L 1259 4134 
L 1259 2753 
L 3481 2753 
L 3481 2222 
L 1259 2222 
L 1259 531 
L 3634 531 
L 3634 0 
L 628 0 
L 628 4666 
z
" transform="scale(0.015625)"/>
       <path id="DejaVuSans-70" d="M 1159 525 
L 1159 -1331 
L 581 -1331 
L 581 3500 
L 1159 3500 
L 1159 2969 
Q 1341 3281 1617 3432 
Q 1894 3584 2278 3584 
Q 2916 3584 3314 3078 
Q 3713 2572 3713 1747 
Q 3713 922 3314 415 
Q 2916 -91 2278 -91 
Q 1894 -91 1617 61 
Q 1341 213 1159 525 
z
M 3116 1747 
Q 3116 2381 2855 2742 
Q 2594 3103 2138 3103 
Q 1681 3103 1420 2742 
Q 1159 2381 1159 1747 
Q 1159 1113 1420 752 
Q 1681 391 2138 391 
Q 2594 391 2855 752 
Q 3116 1113 3116 1747 
z
" transform="scale(0.015625)"/>
       <path id="DejaVuSans-79" d="M 2059 -325 
Q 1816 -950 1584 -1140 
Q 1353 -1331 966 -1331 
L 506 -1331 
L 506 -850 
L 844 -850 
Q 1081 -850 1212 -737 
Q 1344 -625 1503 -206 
L 1606 56 
L 191 3500 
L 800 3500 
L 1894 763 
L 2988 3500 
L 3597 3500 
L 2059 -325 
z
" transform="scale(0.015625)"/>
      </defs>
      <use xlink:href="#DejaVuSans-43"/>
      <use xlink:href="#DejaVuSans-72" x="69.824219"/>
      <use xlink:href="#DejaVuSans-6f" x="108.6875"/>
      <use xlink:href="#DejaVuSans-73" x="169.869141"/>
      <use xlink:href="#DejaVuSans-73" x="221.96875"/>
      <use xlink:href="#DejaVuSans-2d" x="274.068359"/>
      <use xlink:href="#DejaVuSans-45" x="310.152344"/>
      <use xlink:href="#DejaVuSans-6e" x="373.335938"/>
      <use xlink:href="#DejaVuSans-74" x="436.714844"/>
      <use xlink:href="#DejaVuSans-72" x="475.923828"/>
      <use xlink:href="#DejaVuSans-6f" x="514.787109"/>
      <use xlink:href="#DejaVuSans-70" x="575.96875"/>
      <use xlink:href="#DejaVuSans-79" x="639.445312"/>
     </g>
    </g>
   </g>
   <g id="line2d_11">
    <path d="M 104.501281 61.01354 
L 107.964101 61.013745 
L 111.426921 61.015254 
L 114.889742 63.504798 
L 118.352562 71.268189 
L 121.815382 72.929433 
L 125.278202 88.262616 
L 128.741023 98.693887 
L 132.203843 105.511355 
L 135.666663 106.606928 
L 139.129483 112.41449 
L 142.592304 107.939636 
L 146.055124 108.466018 
L 149.517944 105.019565 
L 152.980764 100.254156 
L 156.443585 116.162078 
L 159.906405 107.891717 
L 163.369225 129.37058 
L 166.832045 132.342176 
L 170.294866 128.892585 
L 173.757686 145.897589 
L 177.220506 150.294301 
L 180.683326 154.85725 
L 184.146147 146.253023 
L 187.608967 154.00847 
L 191.071787 162.133454 
L 194.534607 167.03134 
L 197.997428 156.581073 
L 201.460248 158.286183 
L 204.923068 163.887501 
L 208.385888 163.610099 
L 211.848709 162.20728 
L 215.311529 147.609958 
L 218.774349 156.179585 
L 222.237169 162.085825 
L 225.69999 163.402815 
L 229.16281 164.459072 
L 232.62563 166.214088 
L 236.08845 176.379992 
L 239.551271 174.119498 
L 243.014091 181.030303 
L 246.476911 170.968564 
L 249.939731 180.100629 
L 253.402552 170.74633 
L 256.865372 176.517388 
L 260.328192 181.085889 
L 263.791012 175.727887 
L 267.253833 178.433716 
L 270.716653 181.336237 
L 274.179473 180.047438 
L 277.642293 181.277426 
L 281.105114 184.673841 
L 284.567934 178.999961 
L 288.030754 179.898154 
L 291.493574 180.528936 
L 294.956395 179.912342 
L 298.419215 186.311687 
L 301.882035 183.591229 
L 305.344855 188.579986 
L 308.807676 193.418879 
L 312.270496 193.213075 
L 315.733316 192.523551 
L 319.196136 190.420158 
L 322.658957 191.062335 
L 326.121777 189.052858 
L 329.584597 195.610548 
L 333.047417 197.900367 
L 336.510238 196.928171 
L 339.973058 187.975409 
L 343.435878 188.821793 
L 346.898698 187.401701 
L 350.361519 195.592186 
L 353.824339 192.409311 
L 357.287159 199.132851 
L 360.749979 198.862863 
L 364.2128 200.105269 
L 367.67562 200.117238 
L 371.13844 192.679467 
L 374.60126 201.119329 
L 378.064081 201.668326 
L 381.526901 203.656333 
" clip-path="url(#p63a66d8548)" style="fill: none; stroke: #23aa00; stroke-width: 1.5; stroke-linecap: square"/>
   </g>
   <g id="line2d_12">
    <path d="M 104.501281 61.013467 
L 107.964101 61.013907 
L 111.426921 61.014172 
L 114.889742 62.159859 
L 118.352562 68.746479 
L 121.815382 69.344138 
L 125.278202 78.17617 
L 128.741023 92.347475 
L 132.203843 93.552193 
L 135.666663 97.085232 
L 139.129483 102.885886 
L 142.592304 107.371497 
L 146.055124 109.542842 
L 149.517944 113.222948 
L 152.980764 94.083783 
L 156.443585 109.593033 
L 159.906405 107.92011 
L 163.369225 107.363953 
L 166.832045 85.116806 
L 170.294866 97.21565 
L 173.757686 102.464206 
L 177.220506 108.91853 
L 180.683326 119.352103 
L 184.146147 114.08486 
L 187.608967 121.953946 
L 191.071787 121.495669 
L 194.534607 128.32255 
L 197.997428 140.857761 
L 201.460248 140.977009 
L 204.923068 141.608506 
L 208.385888 145.728336 
L 211.848709 140.386114 
L 215.311529 142.08452 
L 218.774349 146.912115 
L 222.237169 145.670282 
L 225.69999 145.167869 
L 229.16281 149.710831 
L 232.62563 149.128111 
L 236.08845 153.613475 
L 239.551271 158.91635 
L 243.014091 158.373456 
L 246.476911 155.818928 
L 249.939731 162.837013 
L 253.402552 154.867882 
L 256.865372 161.042187 
L 260.328192 162.99054 
L 263.791012 160.046901 
L 267.253833 161.507141 
L 270.716653 163.395439 
L 274.179473 168.985016 
L 277.642293 174.652513 
L 281.105114 173.870166 
L 284.567934 176.249578 
L 288.030754 185.125358 
L 291.493574 179.722666 
L 294.956395 172.637033 
L 298.419215 173.737221 
L 301.882035 176.476074 
L 305.344855 176.010507 
L 308.807676 178.324152 
L 312.270496 178.578793 
L 315.733316 174.678674 
L 319.196136 182.572157 
L 322.658957 178.191138 
L 326.121777 177.456822 
L 329.584597 180.3068 
L 333.047417 179.37321 
L 336.510238 174.856152 
L 339.973058 180.725894 
L 343.435878 181.210731 
L 346.898698 180.197518 
L 350.361519 185.027286 
L 353.824339 186.643999 
L 357.287159 188.277426 
L 360.749979 181.088112 
L 364.2128 176.574515 
L 367.67562 186.892634 
L 371.13844 190.430647 
L 374.60126 190.020032 
L 378.064081 181.802861 
L 381.526901 185.074364 
" clip-path="url(#p63a66d8548)" style="fill: none; stroke: #f68917; stroke-width: 1.5; stroke-linecap: square"/>
   </g>
   <g id="line2d_13">
    <path d="M 104.501281 61.013505 
L 107.964101 61.0139 
L 111.426921 61.01421 
L 114.889742 62.828705 
L 118.352562 68.19069 
L 121.815382 73.406621 
L 125.278202 79.391151 
L 128.741023 84.779113 
L 132.203843 85.014905 
L 135.666663 79.016756 
L 139.129483 85.236748 
L 142.592304 91.717678 
L 146.055124 91.696795 
L 149.517944 97.310971 
L 152.980764 97.975709 
L 156.443585 99.067928 
L 159.906405 97.837139 
L 163.369225 97.727411 
L 166.832045 100.80034 
L 170.294866 103.112887 
L 173.757686 105.693955 
L 177.220506 106.858195 
L 180.683326 107.839569 
L 184.146147 109.195731 
L 187.608967 107.164453 
L 191.071787 111.661895 
L 194.534607 112.012793 
L 197.997428 106.70924 
L 201.460248 112.821754 
L 204.923068 117.253673 
L 208.385888 117.416117 
L 211.848709 119.503348 
L 215.311529 115.33973 
L 218.774349 119.892767 
L 222.237169 120.63463 
L 225.69999 115.143499 
L 229.16281 117.646673 
L 232.62563 109.894444 
L 236.08845 115.806684 
L 239.551271 114.710926 
L 243.014091 109.584597 
L 246.476911 122.341515 
L 249.939731 122.57579 
L 253.402552 116.902968 
L 256.865372 125.260068 
L 260.328192 126.936984 
L 263.791012 129.124386 
L 267.253833 129.117961 
L 270.716653 125.739081 
L 274.179473 131.503233 
L 277.642293 132.999659 
L 281.105114 130.994463 
L 284.567934 140.037173 
L 288.030754 140.438928 
L 291.493574 140.270632 
L 294.956395 142.986184 
L 298.419215 147.236955 
L 301.882035 146.073786 
L 305.344855 145.182919 
L 308.807676 145.233044 
L 312.270496 136.486784 
L 315.733316 138.765567 
L 319.196136 145.094632 
L 322.658957 149.230862 
L 326.121777 151.632972 
L 329.584597 147.072674 
L 333.047417 143.897366 
L 336.510238 142.629221 
L 339.973058 151.044255 
L 343.435878 149.943485 
L 346.898698 141.967839 
L 350.361519 151.901205 
L 353.824339 151.953326 
L 357.287159 156.454952 
L 360.749979 157.891851 
L 364.2128 152.356026 
L 367.67562 155.294676 
L 371.13844 160.583316 
L 374.60126 147.42055 
L 378.064081 156.111058 
L 381.526901 156.986102 
" clip-path="url(#p63a66d8548)" style="fill: none; stroke: #6e0385; stroke-width: 1.5; stroke-linecap: square"/>
   </g>
   <g id="patch_3">
    <path d="M 90.65 244.74 
L 90.65 49.92 
" style="fill: none; stroke: #000000; stroke-width: 0.8; stroke-linejoin: miter; stroke-linecap: square"/>
   </g>
   <g id="patch_4">
    <path d="M 90.65 244.74 
L 395.378182 244.74 
" style="fill: none; stroke: #000000; stroke-width: 0.8; stroke-linejoin: miter; stroke-linecap: square"/>
   </g>
   <g id="text_13">
    <!-- Delayed Match to Sample -->
    <g transform="translate(73.047591 43.92) scale(0.264 -0.264)">
     <defs>
      <path id="DejaVuSans-44" d="M 1259 4147 
L 1259 519 
L 2022 519 
Q 2988 519 3436 956 
Q 3884 1394 3884 2338 
Q 3884 3275 3436 3711 
Q 2988 4147 2022 4147 
L 1259 4147 
z
M 628 4666 
L 1925 4666 
Q 3281 4666 3915 4102 
Q 4550 3538 4550 2338 
Q 4550 1131 3912 565 
Q 3275 0 1925 0 
L 628 0 
L 628 4666 
z
" transform="scale(0.015625)"/>
      <path id="DejaVuSans-6c" d="M 603 4863 
L 1178 4863 
L 1178 0 
L 603 0 
L 603 4863 
z
" transform="scale(0.015625)"/>
      <path id="DejaVuSans-64" d="M 2906 2969 
L 2906 4863 
L 3481 4863 
L 3481 0 
L 2906 0 
L 2906 525 
Q 2725 213 2448 61 
Q 2172 -91 1784 -91 
Q 1150 -91 751 415 
Q 353 922 353 1747 
Q 353 2572 751 3078 
Q 1150 3584 1784 3584 
Q 2172 3584 2448 3432 
Q 2725 3281 2906 2969 
z
M 947 1747 
Q 947 1113 1208 752 
Q 1469 391 1925 391 
Q 2381 391 2643 752 
Q 2906 1113 2906 1747 
Q 2906 2381 2643 2742 
Q 2381 3103 1925 3103 
Q 1469 3103 1208 2742 
Q 947 2381 947 1747 
z
" transform="scale(0.015625)"/>
      <path id="DejaVuSans-20" transform="scale(0.015625)"/>
      <path id="DejaVuSans-4d" d="M 628 4666 
L 1569 4666 
L 2759 1491 
L 3956 4666 
L 4897 4666 
L 4897 0 
L 4281 0 
L 4281 4097 
L 3078 897 
L 2444 897 
L 1241 4097 
L 1241 0 
L 628 0 
L 628 4666 
z
" transform="scale(0.015625)"/>
      <path id="DejaVuSans-63" d="M 3122 3366 
L 3122 2828 
Q 2878 2963 2633 3030 
Q 2388 3097 2138 3097 
Q 1578 3097 1268 2742 
Q 959 2388 959 1747 
Q 959 1106 1268 751 
Q 1578 397 2138 397 
Q 2388 397 2633 464 
Q 2878 531 3122 666 
L 3122 134 
Q 2881 22 2623 -34 
Q 2366 -91 2075 -91 
Q 1284 -91 818 406 
Q 353 903 353 1747 
Q 353 2603 823 3093 
Q 1294 3584 2113 3584 
Q 2378 3584 2631 3529 
Q 2884 3475 3122 3366 
z
" transform="scale(0.015625)"/>
      <path id="DejaVuSans-68" d="M 3513 2113 
L 3513 0 
L 2938 0 
L 2938 2094 
Q 2938 2591 2744 2837 
Q 2550 3084 2163 3084 
Q 1697 3084 1428 2787 
Q 1159 2491 1159 1978 
L 1159 0 
L 581 0 
L 581 4863 
L 1159 4863 
L 1159 2956 
Q 1366 3272 1645 3428 
Q 1925 3584 2291 3584 
Q 2894 3584 3203 3211 
Q 3513 2838 3513 2113 
z
" transform="scale(0.015625)"/>
      <path id="DejaVuSans-53" d="M 3425 4513 
L 3425 3897 
Q 3066 4069 2747 4153 
Q 2428 4238 2131 4238 
Q 1616 4238 1336 4038 
Q 1056 3838 1056 3469 
Q 1056 3159 1242 3001 
Q 1428 2844 1947 2747 
L 2328 2669 
Q 3034 2534 3370 2195 
Q 3706 1856 3706 1288 
Q 3706 609 3251 259 
Q 2797 -91 1919 -91 
Q 1588 -91 1214 -16 
Q 841 59 441 206 
L 441 856 
Q 825 641 1194 531 
Q 1563 422 1919 422 
Q 2459 422 2753 634 
Q 3047 847 3047 1241 
Q 3047 1584 2836 1778 
Q 2625 1972 2144 2069 
L 1759 2144 
Q 1053 2284 737 2584 
Q 422 2884 422 3419 
Q 422 4038 858 4394 
Q 1294 4750 2059 4750 
Q 2388 4750 2728 4690 
Q 3069 4631 3425 4513 
z
" transform="scale(0.015625)"/>
      <path id="DejaVuSans-6d" d="M 3328 2828 
Q 3544 3216 3844 3400 
Q 4144 3584 4550 3584 
Q 5097 3584 5394 3201 
Q 5691 2819 5691 2113 
L 5691 0 
L 5113 0 
L 5113 2094 
Q 5113 2597 4934 2840 
Q 4756 3084 4391 3084 
Q 3944 3084 3684 2787 
Q 3425 2491 3425 1978 
L 3425 0 
L 2847 0 
L 2847 2094 
Q 2847 2600 2669 2842 
Q 2491 3084 2119 3084 
Q 1678 3084 1418 2786 
Q 1159 2488 1159 1978 
L 1159 0 
L 581 0 
L 581 3500 
L 1159 3500 
L 1159 2956 
Q 1356 3278 1631 3431 
Q 1906 3584 2284 3584 
Q 2666 3584 2933 3390 
Q 3200 3197 3328 2828 
z
" transform="scale(0.015625)"/>
     </defs>
     <use xlink:href="#DejaVuSans-44"/>
     <use xlink:href="#DejaVuSans-65" x="77.001953"/>
     <use xlink:href="#DejaVuSans-6c" x="138.525391"/>
     <use xlink:href="#DejaVuSans-61" x="166.308594"/>
     <use xlink:href="#DejaVuSans-79" x="227.587891"/>
     <use xlink:href="#DejaVuSans-65" x="286.767578"/>
     <use xlink:href="#DejaVuSans-64" x="348.291016"/>
     <use xlink:href="#DejaVuSans-20" x="411.767578"/>
     <use xlink:href="#DejaVuSans-4d" x="443.554688"/>
     <use xlink:href="#DejaVuSans-61" x="529.833984"/>
     <use xlink:href="#DejaVuSans-74" x="591.113281"/>
     <use xlink:href="#DejaVuSans-63" x="630.322266"/>
     <use xlink:href="#DejaVuSans-68" x="685.302734"/>
     <use xlink:href="#DejaVuSans-20" x="748.681641"/>
     <use xlink:href="#DejaVuSans-74" x="780.46875"/>
     <use xlink:href="#DejaVuSans-6f" x="819.677734"/>
     <use xlink:href="#DejaVuSans-20" x="880.859375"/>
     <use xlink:href="#DejaVuSans-53" x="912.646484"/>
     <use xlink:href="#DejaVuSans-61" x="976.123047"/>
     <use xlink:href="#DejaVuSans-6d" x="1037.402344"/>
     <use xlink:href="#DejaVuSans-70" x="1134.814453"/>
     <use xlink:href="#DejaVuSans-6c" x="1198.291016"/>
     <use xlink:href="#DejaVuSans-65" x="1226.074219"/>
    </g>
   </g>
   <g id="legend_1">
    <g id="patch_5">
     <path d="M 106.05 233.74 
L 267.40625 233.74 
Q 271.80625 233.74 271.80625 229.34 
L 271.80625 134.664375 
Q 271.80625 130.264375 267.40625 130.264375 
L 106.05 130.264375 
Q 101.65 130.264375 101.65 134.664375 
L 101.65 229.34 
Q 101.65 233.74 106.05 233.74 
z
" style="fill: #ffffff; opacity: 0.8; stroke: #cccccc; stroke-linejoin: miter"/>
    </g>
    <g id="line2d_14">
     <path d="M 110.45 148.080937 
L 132.45 148.080937 
L 154.45 148.080937 
" style="fill: none; stroke: #23aa00; stroke-width: 1.5; stroke-linecap: square"/>
    </g>
    <g id="text_14">
     <!-- Local -->
     <g transform="translate(172.05 155.780937) scale(0.22 -0.22)">
      <defs>
       <path id="DejaVuSans-4c" d="M 628 4666 
L 1259 4666 
L 1259 531 
L 3531 531 
L 3531 0 
L 628 0 
L 628 4666 
z
" transform="scale(0.015625)"/>
      </defs>
      <use xlink:href="#DejaVuSans-4c"/>
      <use xlink:href="#DejaVuSans-6f" x="53.962891"/>
      <use xlink:href="#DejaVuSans-63" x="115.144531"/>
      <use xlink:href="#DejaVuSans-61" x="170.125"/>
      <use xlink:href="#DejaVuSans-6c" x="231.404297"/>
     </g>
    </g>
    <g id="line2d_15">
     <path d="M 110.45 180.372812 
L 132.45 180.372812 
L 154.45 180.372812 
" style="fill: none; stroke: #f68917; stroke-width: 1.5; stroke-linecap: square"/>
    </g>
    <g id="text_15">
     <!-- Sparse -->
     <g transform="translate(172.05 188.072812) scale(0.22 -0.22)">
      <use xlink:href="#DejaVuSans-53"/>
      <use xlink:href="#DejaVuSans-70" x="63.476562"/>
      <use xlink:href="#DejaVuSans-61" x="126.953125"/>
      <use xlink:href="#DejaVuSans-72" x="188.232422"/>
      <use xlink:href="#DejaVuSans-73" x="229.345703"/>
      <use xlink:href="#DejaVuSans-65" x="281.445312"/>
     </g>
    </g>
    <g id="line2d_16">
     <path d="M 110.45 212.664687 
L 132.45 212.664687 
L 154.45 212.664687 
" style="fill: none; stroke: #6e0385; stroke-width: 1.5; stroke-linecap: square"/>
    </g>
    <g id="text_16">
     <!-- Shuffled -->
     <g transform="translate(172.05 220.364687) scale(0.22 -0.22)">
      <defs>
       <path id="DejaVuSans-75" d="M 544 1381 
L 544 3500 
L 1119 3500 
L 1119 1403 
Q 1119 906 1312 657 
Q 1506 409 1894 409 
Q 2359 409 2629 706 
Q 2900 1003 2900 1516 
L 2900 3500 
L 3475 3500 
L 3475 0 
L 2900 0 
L 2900 538 
Q 2691 219 2414 64 
Q 2138 -91 1772 -91 
Q 1169 -91 856 284 
Q 544 659 544 1381 
z
M 1991 3584 
L 1991 3584 
z
" transform="scale(0.015625)"/>
       <path id="DejaVuSans-66" d="M 2375 4863 
L 2375 4384 
L 1825 4384 
Q 1516 4384 1395 4259 
Q 1275 4134 1275 3809 
L 1275 3500 
L 2222 3500 
L 2222 3053 
L 1275 3053 
L 1275 0 
L 697 0 
L 697 3053 
L 147 3053 
L 147 3500 
L 697 3500 
L 697 3744 
Q 697 4328 969 4595 
Q 1241 4863 1831 4863 
L 2375 4863 
z
" transform="scale(0.015625)"/>
      </defs>
      <use xlink:href="#DejaVuSans-53"/>
      <use xlink:href="#DejaVuSans-68" x="63.476562"/>
      <use xlink:href="#DejaVuSans-75" x="126.855469"/>
      <use xlink:href="#DejaVuSans-66" x="190.234375"/>
      <use xlink:href="#DejaVuSans-66" x="225.439453"/>
      <use xlink:href="#DejaVuSans-6c" x="260.644531"/>
      <use xlink:href="#DejaVuSans-65" x="288.427734"/>
      <use xlink:href="#DejaVuSans-64" x="349.951172"/>
     </g>
    </g>
   </g>
  </g>
  <g id="axes_2">
   <g id="patch_6">
    <path d="M 90.65 524.36 
L 395.378182 524.36 
L 395.378182 329.54 
L 90.65 329.54 
z
" style="fill: #ffffff"/>
   </g>
   <g id="matplotlib.axis_3">
    <g id="xtick_4">
     <g id="line2d_17">
      <g>
       <use xlink:href="#m9ecd50b291" x="141.43803" y="524.36" style="stroke: #000000; stroke-width: 0.8"/>
      </g>
     </g>
     <g id="text_17">
      <!-- Local -->
      <g transform="translate(112.925687 548.076563) scale(0.22 -0.22)">
       <use xlink:href="#DejaVuSans-4c"/>
       <use xlink:href="#DejaVuSans-6f" x="53.962891"/>
       <use xlink:href="#DejaVuSans-63" x="115.144531"/>
       <use xlink:href="#DejaVuSans-61" x="170.125"/>
       <use xlink:href="#DejaVuSans-6c" x="231.404297"/>
      </g>
     </g>
    </g>
    <g id="xtick_5">
     <g id="line2d_18">
      <g>
       <use xlink:href="#m9ecd50b291" x="243.014091" y="524.36" style="stroke: #000000; stroke-width: 0.8"/>
      </g>
     </g>
     <g id="text_18">
      <!-- Sparse -->
      <g transform="translate(205.28581 548.076563) scale(0.22 -0.22)">
       <use xlink:href="#DejaVuSans-53"/>
       <use xlink:href="#DejaVuSans-70" x="63.476562"/>
       <use xlink:href="#DejaVuSans-61" x="126.953125"/>
       <use xlink:href="#DejaVuSans-72" x="188.232422"/>
       <use xlink:href="#DejaVuSans-73" x="229.345703"/>
       <use xlink:href="#DejaVuSans-65" x="281.445312"/>
      </g>
     </g>
    </g>
    <g id="xtick_6">
     <g id="line2d_19">
      <g>
       <use xlink:href="#m9ecd50b291" x="344.590152" y="524.36" style="stroke: #000000; stroke-width: 0.8"/>
      </g>
     </g>
     <g id="text_19">
      <!-- Shuffled -->
      <g transform="translate(299.112027 548.076563) scale(0.22 -0.22)">
       <use xlink:href="#DejaVuSans-53"/>
       <use xlink:href="#DejaVuSans-68" x="63.476562"/>
       <use xlink:href="#DejaVuSans-75" x="126.855469"/>
       <use xlink:href="#DejaVuSans-66" x="190.234375"/>
       <use xlink:href="#DejaVuSans-66" x="225.439453"/>
       <use xlink:href="#DejaVuSans-6c" x="260.644531"/>
       <use xlink:href="#DejaVuSans-65" x="288.427734"/>
       <use xlink:href="#DejaVuSans-64" x="349.951172"/>
      </g>
     </g>
    </g>
   </g>
   <g id="matplotlib.axis_4">
    <g id="ytick_8">
     <g id="line2d_20">
      <g>
       <use xlink:href="#m5dbfabe707" x="90.65" y="491.89" style="stroke: #000000; stroke-width: 0.8"/>
      </g>
     </g>
     <g id="text_20">
      <!-- 0.1 -->
      <g transform="translate(48.663125 500.248281) scale(0.22 -0.22)">
       <use xlink:href="#DejaVuSans-30"/>
       <use xlink:href="#DejaVuSans-2e" x="63.623047"/>
       <use xlink:href="#DejaVuSans-31" x="95.410156"/>
      </g>
     </g>
    </g>
    <g id="ytick_9">
     <g id="line2d_21">
      <g>
       <use xlink:href="#m5dbfabe707" x="90.65" y="459.42" style="stroke: #000000; stroke-width: 0.8"/>
      </g>
     </g>
     <g id="text_21">
      <!-- 0.2 -->
      <g transform="translate(48.663125 467.778281) scale(0.22 -0.22)">
       <use xlink:href="#DejaVuSans-30"/>
       <use xlink:href="#DejaVuSans-2e" x="63.623047"/>
       <use xlink:href="#DejaVuSans-32" x="95.410156"/>
      </g>
     </g>
    </g>
    <g id="ytick_10">
     <g id="line2d_22">
      <g>
       <use xlink:href="#m5dbfabe707" x="90.65" y="426.95" style="stroke: #000000; stroke-width: 0.8"/>
      </g>
     </g>
     <g id="text_22">
      <!-- 0.3 -->
      <g transform="translate(48.663125 435.308281) scale(0.22 -0.22)">
       <use xlink:href="#DejaVuSans-30"/>
       <use xlink:href="#DejaVuSans-2e" x="63.623047"/>
       <use xlink:href="#DejaVuSans-33" x="95.410156"/>
      </g>
     </g>
    </g>
    <g id="ytick_11">
     <g id="line2d_23">
      <g>
       <use xlink:href="#m5dbfabe707" x="90.65" y="394.48" style="stroke: #000000; stroke-width: 0.8"/>
      </g>
     </g>
     <g id="text_23">
      <!-- 0.4 -->
      <g transform="translate(48.663125 402.838281) scale(0.22 -0.22)">
       <use xlink:href="#DejaVuSans-30"/>
       <use xlink:href="#DejaVuSans-2e" x="63.623047"/>
       <use xlink:href="#DejaVuSans-34" x="95.410156"/>
      </g>
     </g>
    </g>
    <g id="ytick_12">
     <g id="line2d_24">
      <g>
       <use xlink:href="#m5dbfabe707" x="90.65" y="362.01" style="stroke: #000000; stroke-width: 0.8"/>
      </g>
     </g>
     <g id="text_24">
      <!-- 0.5 -->
      <g transform="translate(48.663125 370.368281) scale(0.22 -0.22)">
       <use xlink:href="#DejaVuSans-30"/>
       <use xlink:href="#DejaVuSans-2e" x="63.623047"/>
       <use xlink:href="#DejaVuSans-35" x="95.410156"/>
      </g>
     </g>
    </g>
    <g id="ytick_13">
     <g id="line2d_25">
      <g>
       <use xlink:href="#m5dbfabe707" x="90.65" y="329.54" style="stroke: #000000; stroke-width: 0.8"/>
      </g>
     </g>
     <g id="text_25">
      <!-- 0.6 -->
      <g transform="translate(48.663125 337.898281) scale(0.22 -0.22)">
       <use xlink:href="#DejaVuSans-30"/>
       <use xlink:href="#DejaVuSans-2e" x="63.623047"/>
       <use xlink:href="#DejaVuSans-36" x="95.410156"/>
      </g>
     </g>
    </g>
    <g id="text_26">
     <!-- Cross-Entropy -->
     <g transform="translate(40.087813 503.79875) rotate(-90) scale(0.22 -0.22)">
      <use xlink:href="#DejaVuSans-43"/>
      <use xlink:href="#DejaVuSans-72" x="69.824219"/>
      <use xlink:href="#DejaVuSans-6f" x="108.6875"/>
      <use xlink:href="#DejaVuSans-73" x="169.869141"/>
      <use xlink:href="#DejaVuSans-73" x="221.96875"/>
      <use xlink:href="#DejaVuSans-2d" x="274.068359"/>
      <use xlink:href="#DejaVuSans-45" x="310.152344"/>
      <use xlink:href="#DejaVuSans-6e" x="373.335938"/>
      <use xlink:href="#DejaVuSans-74" x="436.714844"/>
      <use xlink:href="#DejaVuSans-72" x="475.923828"/>
      <use xlink:href="#DejaVuSans-6f" x="514.787109"/>
      <use xlink:href="#DejaVuSans-70" x="575.96875"/>
      <use xlink:href="#DejaVuSans-79" x="639.445312"/>
     </g>
    </g>
   </g>
   <g id="patch_7">
    <path d="M 133.819826 485.928853 
L 149.056235 485.928853 
L 149.056235 472.3046 
L 133.819826 472.3046 
L 133.819826 485.928853 
z
" clip-path="url(#p2c6a706bec)" style="fill: #23aa00; stroke: #23aa00; stroke-linejoin: miter"/>
   </g>
   <g id="line2d_26">
    <path d="M 141.43803 485.928853 
L 141.43803 500.181882 
" clip-path="url(#p2c6a706bec)" style="fill: none; stroke: #000000; stroke-linecap: square"/>
   </g>
   <g id="line2d_27">
    <path d="M 141.43803 472.3046 
L 141.43803 469.435647 
" clip-path="url(#p2c6a706bec)" style="fill: none; stroke: #000000; stroke-linecap: square"/>
   </g>
   <g id="line2d_28">
    <path d="M 137.628928 500.181882 
L 145.247133 500.181882 
" clip-path="url(#p2c6a706bec)" style="fill: none; stroke: #000000; stroke-linecap: square"/>
   </g>
   <g id="line2d_29">
    <path d="M 137.628928 469.435647 
L 145.247133 469.435647 
" clip-path="url(#p2c6a706bec)" style="fill: none; stroke: #000000; stroke-linecap: square"/>
   </g>
   <g id="line2d_30">
    <defs>
     <path id="m2ed9eab242" d="M 0 3 
C 0.795609 3 1.55874 2.683901 2.12132 2.12132 
C 2.683901 1.55874 3 0.795609 3 0 
C 3 -0.795609 2.683901 -1.55874 2.12132 -2.12132 
C 1.55874 -2.683901 0.795609 -3 0 -3 
C -0.795609 -3 -1.55874 -2.683901 -2.12132 -2.12132 
C -2.683901 -1.55874 -3 -0.795609 -3 0 
C -3 0.795609 -2.683901 1.55874 -2.12132 2.12132 
C -1.55874 2.683901 -0.795609 3 0 3 
z
" style="stroke: #000000"/>
    </defs>
    <g clip-path="url(#p2c6a706bec)">
     <use xlink:href="#m2ed9eab242" x="141.43803" y="405.754986" style="fill-opacity: 0; stroke: #000000"/>
    </g>
   </g>
   <g id="patch_8">
    <path d="M 235.395886 468.65752 
L 250.632295 468.65752 
L 250.632295 435.823431 
L 235.395886 435.823431 
L 235.395886 468.65752 
z
" clip-path="url(#p2c6a706bec)" style="fill: #f68917; stroke: #f68917; stroke-linejoin: miter"/>
   </g>
   <g id="line2d_31">
    <path d="M 243.014091 468.65752 
L 243.014091 475.1386 
" clip-path="url(#p2c6a706bec)" style="fill: none; stroke: #000000; stroke-linecap: square"/>
   </g>
   <g id="line2d_32">
    <path d="M 243.014091 435.823431 
L 243.014091 426.817666 
" clip-path="url(#p2c6a706bec)" style="fill: none; stroke: #000000; stroke-linecap: square"/>
   </g>
   <g id="line2d_33">
    <path d="M 239.204989 475.1386 
L 246.823193 475.1386 
" clip-path="url(#p2c6a706bec)" style="fill: none; stroke: #000000; stroke-linecap: square"/>
   </g>
   <g id="line2d_34">
    <path d="M 239.204989 426.817666 
L 246.823193 426.817666 
" clip-path="url(#p2c6a706bec)" style="fill: none; stroke: #000000; stroke-linecap: square"/>
   </g>
   <g id="line2d_35"/>
   <g id="patch_9">
    <path d="M 336.971947 433.748442 
L 352.208356 433.748442 
L 352.208356 391.754069 
L 336.971947 391.754069 
L 336.971947 433.748442 
z
" clip-path="url(#p2c6a706bec)" style="fill: #6e0385; stroke: #6e0385; stroke-linejoin: miter"/>
   </g>
   <g id="line2d_36">
    <path d="M 344.590152 433.748442 
L 344.590152 459.743776 
" clip-path="url(#p2c6a706bec)" style="fill: none; stroke: #000000; stroke-linecap: square"/>
   </g>
   <g id="line2d_37">
    <path d="M 344.590152 391.754069 
L 344.590152 380.784229 
" clip-path="url(#p2c6a706bec)" style="fill: none; stroke: #000000; stroke-linecap: square"/>
   </g>
   <g id="line2d_38">
    <path d="M 340.781049 459.743776 
L 348.399254 459.743776 
" clip-path="url(#p2c6a706bec)" style="fill: none; stroke: #000000; stroke-linecap: square"/>
   </g>
   <g id="line2d_39">
    <path d="M 340.781049 380.784229 
L 348.399254 380.784229 
" clip-path="url(#p2c6a706bec)" style="fill: none; stroke: #000000; stroke-linecap: square"/>
   </g>
   <g id="line2d_40"/>
   <g id="line2d_41">
    <path d="M 133.819826 479.450274 
L 149.056235 479.450274 
" clip-path="url(#p2c6a706bec)" style="fill: none; stroke: #000000"/>
   </g>
   <g id="line2d_42">
    <path d="M 235.395886 449.910763 
L 250.632295 449.910763 
" clip-path="url(#p2c6a706bec)" style="fill: none; stroke: #000000"/>
   </g>
   <g id="line2d_43">
    <path d="M 336.971947 418.276861 
L 352.208356 418.276861 
" clip-path="url(#p2c6a706bec)" style="fill: none; stroke: #000000"/>
   </g>
   <g id="patch_10">
    <path d="M 90.65 524.36 
L 90.65 329.54 
" style="fill: none; stroke: #000000; stroke-width: 0.8; stroke-linejoin: miter; stroke-linecap: square"/>
   </g>
   <g id="patch_11">
    <path d="M 90.65 524.36 
L 395.378182 524.36 
" style="fill: none; stroke: #000000; stroke-width: 0.8; stroke-linejoin: miter; stroke-linecap: square"/>
   </g>
  </g>
 </g>
 <defs>
  <clipPath id="p63a66d8548">
   <rect x="90.65" y="49.92" width="304.728182" height="194.82"/>
  </clipPath>
  <clipPath id="p2c6a706bec">
   <rect x="90.65" y="329.54" width="304.728182" height="194.82"/>
  </clipPath>
 </defs>
</svg>
