<?xml version="1.0" encoding="utf-8" standalone="no"?>
<!DOCTYPE svg PUBLIC "-//W3C//DTD SVG 1.1//EN"
  "http://www.w3.org/Graphics/SVG/1.1/DTD/svg11.dtd">
<svg xmlns:xlink="http://www.w3.org/1999/xlink" width="432pt" height="576pt" viewBox="0 0 432 576" xmlns="http://www.w3.org/2000/svg" version="1.1">
 <metadata>
  <rdf:RDF xmlns:dc="http://purl.org/dc/elements/1.1/" xmlns:cc="http://creativecommons.org/ns#" xmlns:rdf="http://www.w3.org/1999/02/22-rdf-syntax-ns#">
   <cc:Work>
    <dc:type rdf:resource="http://purl.org/dc/dcmitype/StillImage"/>
    <dc:date>2024-11-13T14:57:25.635266</dc:date>
    <dc:format>image/svg+xml</dc:format>
    <dc:creator>
     <cc:Agent>
      <dc:title>Matplotlib v3.8.4, https://matplotlib.org/</dc:title>
     </cc:Agent>
    </dc:creator>
   </cc:Work>
  </rdf:RDF>
 </metadata>
 <defs>
  <style type="text/css">*{stroke-linejoin: round; stroke-linecap: butt}</style>
 </defs>
 <g id="figure_1">
  <g id="patch_1">
   <path d="M 0 576 
L 432 576 
L 432 0 
L 0 0 
z
" style="fill: #ffffff"/>
  </g>
  <g id="axes_1">
   <g id="patch_2">
    <path d="M 104.69 248.88 
L 391.525478 248.88 
L 391.525478 49.92 
L 104.69 49.92 
z
" style="fill: #ffffff"/>
   </g>
   <g id="PolyCollection_1">
    <defs>
     <path id="m605b3d07f8" d="M 117.727976 -516.821596 
L 117.727976 -516.532228 
L 121.02873 -490.163917 
L 124.329483 -418.269756 
L 127.630237 -398.655997 
L 130.93099 -384.255071 
L 134.231744 -377.261305 
L 137.532497 -364.777169 
L 140.833251 -358.039814 
L 144.134004 -352.768697 
L 147.434758 -350.943505 
L 150.735511 -348.950125 
L 154.036265 -346.218358 
L 157.337018 -346.909205 
L 160.637772 -346.089865 
L 163.938525 -345.028536 
L 167.239278 -343.773325 
L 170.540032 -344.420012 
L 173.840785 -343.353853 
L 177.141539 -341.746125 
L 180.442292 -343.044864 
L 183.743046 -343.832321 
L 187.043799 -341.129489 
L 190.344553 -342.134954 
L 193.645306 -340.544455 
L 196.94606 -340.55604 
L 200.246813 -341.122424 
L 203.547567 -340.994718 
L 206.84832 -340.08404 
L 210.149074 -339.668272 
L 213.449827 -339.675417 
L 216.750581 -340.181169 
L 220.051334 -340.007038 
L 223.352088 -339.589858 
L 226.652841 -338.721355 
L 229.953595 -338.376393 
L 233.254348 -338.77304 
L 236.555102 -338.249626 
L 239.855855 -338.982491 
L 243.156609 -339.463755 
L 246.457362 -338.265658 
L 249.758116 -338.3673 
L 253.058869 -337.933135 
L 256.359622 -337.92097 
L 259.660376 -338.299829 
L 262.961129 -337.954375 
L 266.261883 -337.613295 
L 269.562636 -338.380124 
L 272.86339 -337.302089 
L 276.164143 -337.084491 
L 279.464897 -337.464499 
L 282.76565 -337.625467 
L 286.066404 -337.673779 
L 289.367157 -337.710752 
L 292.667911 -337.828172 
L 295.968664 -337.230295 
L 299.269418 -337.554793 
L 302.570171 -337.493912 
L 305.870925 -337.189783 
L 309.171678 -337.584905 
L 312.472432 -337.387911 
L 315.773185 -336.818443 
L 319.073939 -337.634526 
L 322.374692 -337.329317 
L 325.675446 -337.060217 
L 328.976199 -336.93006 
L 332.276953 -337.477879 
L 335.577706 -336.880095 
L 338.87846 -336.776768 
L 342.179213 -337.326551 
L 345.479966 -336.551832 
L 348.78072 -336.981539 
L 352.081473 -337.387256 
L 355.382227 -336.53956 
L 358.68298 -336.495288 
L 361.983734 -336.949939 
L 365.284487 -336.886068 
L 368.585241 -336.163636 
L 371.885994 -336.377674 
L 375.186748 -336.470102 
L 378.487501 -336.808669 
L 378.487501 -338.388372 
L 378.487501 -338.388372 
L 375.186748 -338.239551 
L 371.885994 -338.355355 
L 368.585241 -338.893471 
L 365.284487 -337.975326 
L 361.983734 -337.828822 
L 358.68298 -338.787819 
L 355.382227 -338.557704 
L 352.081473 -339.583576 
L 348.78072 -338.316263 
L 345.479966 -338.601302 
L 342.179213 -339.603656 
L 338.87846 -339.575245 
L 335.577706 -338.424056 
L 332.276953 -339.270958 
L 328.976199 -339.599293 
L 325.675446 -339.075236 
L 322.374692 -338.874019 
L 319.073939 -338.671591 
L 315.773185 -338.86335 
L 312.472432 -339.42549 
L 309.171678 -339.360254 
L 305.870925 -338.916104 
L 302.570171 -339.727511 
L 299.269418 -339.302901 
L 295.968664 -340.16408 
L 292.667911 -341.771251 
L 289.367157 -339.930409 
L 286.066404 -340.709553 
L 282.76565 -339.6005 
L 279.464897 -341.214085 
L 276.164143 -340.277244 
L 272.86339 -340.08957 
L 269.562636 -340.113593 
L 266.261883 -340.612833 
L 262.961129 -340.845298 
L 259.660376 -341.238017 
L 256.359622 -341.024697 
L 253.058869 -340.370027 
L 249.758116 -341.649747 
L 246.457362 -342.776067 
L 243.156609 -341.893527 
L 239.855855 -340.719561 
L 236.555102 -341.720029 
L 233.254348 -340.877364 
L 229.953595 -341.653037 
L 226.652841 -341.967089 
L 223.352088 -345.800625 
L 220.051334 -342.071964 
L 216.750581 -342.05752 
L 213.449827 -346.564679 
L 210.149074 -342.958611 
L 206.84832 -343.36299 
L 203.547567 -342.957682 
L 200.246813 -345.132837 
L 196.94606 -344.59778 
L 193.645306 -344.242922 
L 190.344553 -346.000472 
L 187.043799 -346.628937 
L 183.743046 -347.937697 
L 180.442292 -351.581452 
L 177.141539 -349.564828 
L 173.840785 -348.777806 
L 170.540032 -352.226444 
L 167.239278 -356.198001 
L 163.938525 -352.230368 
L 160.637772 -354.379864 
L 157.337018 -354.550419 
L 154.036265 -355.33104 
L 150.735511 -358.281037 
L 147.434758 -362.623057 
L 144.134004 -366.836994 
L 140.833251 -367.233404 
L 137.532497 -377.406631 
L 134.231744 -386.627836 
L 130.93099 -408.595331 
L 127.630237 -435.101278 
L 124.329483 -475.695343 
L 121.02873 -510.787087 
L 117.727976 -516.821596 
z
" style="stroke: #23aa00; stroke-opacity: 0.4"/>
    </defs>
    <g clip-path="url(#pee75583855)">
     <use xlink:href="#m605b3d07f8" x="0" y="576" style="fill: #23aa00; fill-opacity: 0.4; stroke: #23aa00; stroke-opacity: 0.4"/>
    </g>
   </g>
   <g id="PolyCollection_2">
    <defs>
     <path id="mda35765717" d="M 117.727976 -516.817973 
L 117.727976 -516.480885 
L 121.02873 -486.245709 
L 124.329483 -417.253246 
L 127.630237 -389.312749 
L 130.93099 -374.904051 
L 134.231744 -364.034817 
L 137.532497 -355.993778 
L 140.833251 -353.136325 
L 144.134004 -350.418481 
L 147.434758 -349.06126 
L 150.735511 -347.192377 
L 154.036265 -348.875244 
L 157.337018 -345.735018 
L 160.637772 -345.023871 
L 163.938525 -345.48265 
L 167.239278 -344.284004 
L 170.540032 -342.775584 
L 173.840785 -343.099112 
L 177.141539 -341.729197 
L 180.442292 -341.613747 
L 183.743046 -343.319707 
L 187.043799 -341.432739 
L 190.344553 -339.977037 
L 193.645306 -340.490828 
L 196.94606 -340.271886 
L 200.246813 -340.796106 
L 203.547567 -339.465364 
L 206.84832 -339.642052 
L 210.149074 -339.238734 
L 213.449827 -339.311301 
L 216.750581 -339.736869 
L 220.051334 -338.762793 
L 223.352088 -339.669314 
L 226.652841 -339.128301 
L 229.953595 -339.357009 
L 233.254348 -339.295036 
L 236.555102 -338.496342 
L 239.855855 -338.452934 
L 243.156609 -338.128498 
L 246.457362 -338.394514 
L 249.758116 -338.230771 
L 253.058869 -337.887 
L 256.359622 -338.261502 
L 259.660376 -337.801556 
L 262.961129 -338.216082 
L 266.261883 -337.81927 
L 269.562636 -338.667429 
L 272.86339 -337.377937 
L 276.164143 -337.519613 
L 279.464897 -337.328218 
L 282.76565 -337.264045 
L 286.066404 -337.418207 
L 289.367157 -337.138568 
L 292.667911 -337.201979 
L 295.968664 -337.796197 
L 299.269418 -337.754972 
L 302.570171 -337.473517 
L 305.870925 -337.14794 
L 309.171678 -336.838733 
L 312.472432 -337.400603 
L 315.773185 -336.908921 
L 319.073939 -337.449333 
L 322.374692 -336.797766 
L 325.675446 -337.027849 
L 328.976199 -336.90835 
L 332.276953 -337.082126 
L 335.577706 -337.210987 
L 338.87846 -336.721577 
L 342.179213 -336.711008 
L 345.479966 -336.853951 
L 348.78072 -336.730557 
L 352.081473 -336.675154 
L 355.382227 -336.482342 
L 358.68298 -336.467379 
L 361.983734 -336.32543 
L 365.284487 -336.525198 
L 368.585241 -337.155496 
L 371.885994 -336.698613 
L 375.186748 -336.659263 
L 378.487501 -336.629318 
L 378.487501 -337.921871 
L 378.487501 -337.921871 
L 375.186748 -338.461804 
L 371.885994 -339.03393 
L 368.585241 -338.683408 
L 365.284487 -338.758795 
L 361.983734 -338.012179 
L 358.68298 -337.987905 
L 355.382227 -338.481658 
L 352.081473 -338.627621 
L 348.78072 -338.936694 
L 345.479966 -338.722518 
L 342.179213 -338.123123 
L 338.87846 -338.396673 
L 335.577706 -339.576999 
L 332.276953 -338.660693 
L 328.976199 -338.861374 
L 325.675446 -338.86938 
L 322.374692 -339.35037 
L 319.073939 -338.820645 
L 315.773185 -339.516339 
L 312.472432 -339.353086 
L 309.171678 -337.928053 
L 305.870925 -339.164013 
L 302.570171 -338.593785 
L 299.269418 -339.055839 
L 295.968664 -339.186941 
L 292.667911 -339.476118 
L 289.367157 -338.992311 
L 286.066404 -339.180213 
L 282.76565 -339.013846 
L 279.464897 -339.257444 
L 276.164143 -338.826585 
L 272.86339 -339.88902 
L 269.562636 -339.400843 
L 266.261883 -340.548647 
L 262.961129 -342.043098 
L 259.660376 -339.612889 
L 256.359622 -340.162645 
L 253.058869 -341.227182 
L 249.758116 -340.526597 
L 246.457362 -340.521777 
L 243.156609 -340.061414 
L 239.855855 -341.330066 
L 236.555102 -340.763895 
L 233.254348 -342.724868 
L 229.953595 -342.668004 
L 226.652841 -342.051295 
L 223.352088 -341.838949 
L 220.051334 -343.314586 
L 216.750581 -343.413729 
L 213.449827 -343.566841 
L 210.149074 -344.156832 
L 206.84832 -343.956024 
L 203.547567 -344.560637 
L 200.246813 -343.712714 
L 196.94606 -344.342935 
L 193.645306 -345.518095 
L 190.344553 -346.290572 
L 187.043799 -344.925224 
L 183.743046 -345.391274 
L 180.442292 -343.934323 
L 177.141539 -346.349527 
L 173.840785 -346.984807 
L 170.540032 -349.566556 
L 167.239278 -350.677934 
L 163.938525 -355.36958 
L 160.637772 -354.931829 
L 157.337018 -352.398519 
L 154.036265 -353.482041 
L 150.735511 -358.199495 
L 147.434758 -361.574527 
L 144.134004 -360.738011 
L 140.833251 -367.942385 
L 137.532497 -370.705317 
L 134.231744 -378.530779 
L 130.93099 -397.370622 
L 127.630237 -421.639667 
L 124.329483 -455.261008 
L 121.02873 -508.739448 
L 117.727976 -516.817973 
z
" style="stroke: #f68917; stroke-opacity: 0.4"/>
    </defs>
    <g clip-path="url(#pee75583855)">
     <use xlink:href="#mda35765717" x="0" y="576" style="fill: #f68917; fill-opacity: 0.4; stroke: #f68917; stroke-opacity: 0.4"/>
    </g>
   </g>
   <g id="PolyCollection_3">
    <defs>
     <path id="m9d8defd3d4" d="M 117.727976 -517.036364 
L 117.727976 -516.639792 
L 121.02873 -516.021809 
L 124.329483 -513.520247 
L 127.630237 -509.659788 
L 130.93099 -498.31136 
L 134.231744 -479.025596 
L 137.532497 -453.195491 
L 140.833251 -439.871777 
L 144.134004 -422.8848 
L 147.434758 -416.646743 
L 150.735511 -404.779213 
L 154.036265 -403.519215 
L 157.337018 -394.038477 
L 160.637772 -391.524098 
L 163.938525 -388.090075 
L 167.239278 -390.965475 
L 170.540032 -381.925746 
L 173.840785 -379.79361 
L 177.141539 -376.712754 
L 180.442292 -378.936056 
L 183.743046 -374.478757 
L 187.043799 -372.976517 
L 190.344553 -367.983234 
L 193.645306 -367.558151 
L 196.94606 -368.257803 
L 200.246813 -365.697382 
L 203.547567 -365.782618 
L 206.84832 -366.069331 
L 210.149074 -362.354634 
L 213.449827 -363.886757 
L 216.750581 -360.565281 
L 220.051334 -362.03293 
L 223.352088 -359.669865 
L 226.652841 -360.507719 
L 229.953595 -356.846864 
L 233.254348 -356.904918 
L 236.555102 -359.468679 
L 239.855855 -358.003655 
L 243.156609 -359.435016 
L 246.457362 -356.848795 
L 249.758116 -359.608713 
L 253.058869 -356.833075 
L 256.359622 -356.075559 
L 259.660376 -356.929591 
L 262.961129 -357.312684 
L 266.261883 -352.590288 
L 269.562636 -355.483796 
L 272.86339 -355.293447 
L 276.164143 -353.970441 
L 279.464897 -352.960138 
L 282.76565 -353.494918 
L 286.066404 -354.172421 
L 289.367157 -352.836447 
L 292.667911 -352.670447 
L 295.968664 -352.680426 
L 299.269418 -352.061986 
L 302.570171 -350.701656 
L 305.870925 -350.352028 
L 309.171678 -355.724188 
L 312.472432 -351.434592 
L 315.773185 -352.195938 
L 319.073939 -348.936222 
L 322.374692 -350.971444 
L 325.675446 -350.789775 
L 328.976199 -350.11529 
L 332.276953 -350.227671 
L 335.577706 -348.601228 
L 338.87846 -349.660959 
L 342.179213 -350.597779 
L 345.479966 -348.088004 
L 348.78072 -347.412911 
L 352.081473 -351.363871 
L 355.382227 -349.888873 
L 358.68298 -348.426397 
L 361.983734 -349.882344 
L 365.284487 -349.238282 
L 368.585241 -347.430206 
L 371.885994 -348.044968 
L 375.186748 -347.734723 
L 378.487501 -346.625628 
L 378.487501 -363.015198 
L 378.487501 -363.015198 
L 375.186748 -360.44068 
L 371.885994 -363.092534 
L 368.585241 -362.052075 
L 365.284487 -364.384877 
L 361.983734 -364.845432 
L 358.68298 -363.754017 
L 355.382227 -366.155771 
L 352.081473 -365.539856 
L 348.78072 -367.802059 
L 345.479966 -365.967601 
L 342.179213 -364.346339 
L 338.87846 -369.230628 
L 335.577706 -365.425757 
L 332.276953 -369.124518 
L 328.976199 -369.073475 
L 325.675446 -370.346055 
L 322.374692 -364.535981 
L 319.073939 -366.65941 
L 315.773185 -366.793513 
L 312.472432 -366.416194 
L 309.171678 -369.445393 
L 305.870925 -371.38065 
L 302.570171 -368.581444 
L 299.269418 -371.228344 
L 295.968664 -370.008046 
L 292.667911 -369.99713 
L 289.367157 -374.016892 
L 286.066404 -372.15372 
L 282.76565 -369.514359 
L 279.464897 -373.084027 
L 276.164143 -370.111843 
L 272.86339 -372.84073 
L 269.562636 -373.854305 
L 266.261883 -376.286773 
L 262.961129 -374.482506 
L 259.660376 -376.569701 
L 256.359622 -379.302572 
L 253.058869 -378.908396 
L 249.758116 -379.366181 
L 246.457362 -378.02752 
L 243.156609 -377.946039 
L 239.855855 -376.722511 
L 236.555102 -382.926868 
L 233.254348 -379.453647 
L 229.953595 -379.052455 
L 226.652841 -381.747666 
L 223.352088 -385.091018 
L 220.051334 -386.450459 
L 216.750581 -383.849467 
L 213.449827 -388.001285 
L 210.149074 -387.019758 
L 206.84832 -387.511166 
L 203.547567 -384.777624 
L 200.246813 -391.299051 
L 196.94606 -393.738631 
L 193.645306 -391.541189 
L 190.344553 -398.682109 
L 187.043799 -400.378014 
L 183.743046 -403.208224 
L 180.442292 -408.298031 
L 177.141539 -405.80193 
L 173.840785 -409.792569 
L 170.540032 -418.070519 
L 167.239278 -417.676839 
L 163.938525 -418.212443 
L 160.637772 -426.409241 
L 157.337018 -428.868737 
L 154.036265 -441.970408 
L 150.735511 -444.085506 
L 147.434758 -454.049259 
L 144.134004 -459.057277 
L 140.833251 -468.649351 
L 137.532497 -481.063777 
L 134.231744 -492.573671 
L 130.93099 -506.816248 
L 127.630237 -512.435732 
L 124.329483 -515.221603 
L 121.02873 -516.323353 
L 117.727976 -517.036364 
z
" style="stroke: #6e0385; stroke-opacity: 0.4"/>
    </defs>
    <g clip-path="url(#pee75583855)">
     <use xlink:href="#m9d8defd3d4" x="0" y="576" style="fill: #6e0385; fill-opacity: 0.4; stroke: #6e0385; stroke-opacity: 0.4"/>
    </g>
   </g>
   <g id="matplotlib.axis_1">
    <g id="xtick_1">
     <g id="line2d_1">
      <defs>
       <path id="ma7912c66cb" d="M 0 0 
L 0 3.5 
" style="stroke: #000000; stroke-width: 0.8"/>
      </defs>
      <g>
       <use xlink:href="#ma7912c66cb" x="117.727976" y="248.88" style="stroke: #000000; stroke-width: 0.8"/>
      </g>
     </g>
     <g id="text_1">
      <!-- 0 -->
      <g transform="translate(110.729226 272.596562) scale(0.22 -0.22)">
       <defs>
        <path id="DejaVuSans-30" d="M 2034 4250 
Q 1547 4250 1301 3770 
Q 1056 3291 1056 2328 
Q 1056 1369 1301 889 
Q 1547 409 2034 409 
Q 2525 409 2770 889 
Q 3016 1369 3016 2328 
Q 3016 3291 2770 3770 
Q 2525 4250 2034 4250 
z
M 2034 4750 
Q 2819 4750 3233 4129 
Q 3647 3509 3647 2328 
Q 3647 1150 3233 529 
Q 2819 -91 2034 -91 
Q 1250 -91 836 529 
Q 422 1150 422 2328 
Q 422 3509 836 4129 
Q 1250 4750 2034 4750 
z
" transform="scale(0.015625)"/>
       </defs>
       <use xlink:href="#DejaVuSans-30"/>
      </g>
     </g>
    </g>
    <g id="xtick_2">
     <g id="line2d_2">
      <g>
       <use xlink:href="#ma7912c66cb" x="249.758116" y="248.88" style="stroke: #000000; stroke-width: 0.8"/>
      </g>
     </g>
     <g id="text_2">
      <!-- 1000 -->
      <g transform="translate(221.763116 272.596562) scale(0.22 -0.22)">
       <defs>
        <path id="DejaVuSans-31" d="M 794 531 
L 1825 531 
L 1825 4091 
L 703 3866 
L 703 4441 
L 1819 4666 
L 2450 4666 
L 2450 531 
L 3481 531 
L 3481 0 
L 794 0 
L 794 531 
z
" transform="scale(0.015625)"/>
       </defs>
       <use xlink:href="#DejaVuSans-31"/>
       <use xlink:href="#DejaVuSans-30" x="63.623047"/>
       <use xlink:href="#DejaVuSans-30" x="127.246094"/>
       <use xlink:href="#DejaVuSans-30" x="190.869141"/>
      </g>
     </g>
    </g>
    <g id="xtick_3">
     <g id="line2d_3">
      <g>
       <use xlink:href="#ma7912c66cb" x="381.788255" y="248.88" style="stroke: #000000; stroke-width: 0.8"/>
      </g>
     </g>
     <g id="text_3">
      <!-- 2000 -->
      <g transform="translate(353.793255 272.596562) scale(0.22 -0.22)">
       <defs>
        <path id="DejaVuSans-32" d="M 1228 531 
L 3431 531 
L 3431 0 
L 469 0 
L 469 531 
Q 828 903 1448 1529 
Q 2069 2156 2228 2338 
Q 2531 2678 2651 2914 
Q 2772 3150 2772 3378 
Q 2772 3750 2511 3984 
Q 2250 4219 1831 4219 
Q 1534 4219 1204 4116 
Q 875 4013 500 3803 
L 500 4441 
Q 881 4594 1212 4672 
Q 1544 4750 1819 4750 
Q 2544 4750 2975 4387 
Q 3406 4025 3406 3419 
Q 3406 3131 3298 2873 
Q 3191 2616 2906 2266 
Q 2828 2175 2409 1742 
Q 1991 1309 1228 531 
z
" transform="scale(0.015625)"/>
       </defs>
       <use xlink:href="#DejaVuSans-32"/>
       <use xlink:href="#DejaVuSans-30" x="63.623047"/>
       <use xlink:href="#DejaVuSans-30" x="127.246094"/>
       <use xlink:href="#DejaVuSans-30" x="190.869141"/>
      </g>
     </g>
    </g>
    <g id="text_4">
     <!-- Iterations -->
     <g transform="translate(195.71852 297.888437) scale(0.22 -0.22)">
      <defs>
       <path id="DejaVuSans-49" d="M 628 4666 
L 1259 4666 
L 1259 0 
L 628 0 
L 628 4666 
z
" transform="scale(0.015625)"/>
       <path id="DejaVuSans-74" d="M 1172 4494 
L 1172 3500 
L 2356 3500 
L 2356 3053 
L 1172 3053 
L 1172 1153 
Q 1172 725 1289 603 
Q 1406 481 1766 481 
L 2356 481 
L 2356 0 
L 1766 0 
Q 1100 0 847 248 
Q 594 497 594 1153 
L 594 3053 
L 172 3053 
L 172 3500 
L 594 3500 
L 594 4494 
L 1172 4494 
z
" transform="scale(0.015625)"/>
       <path id="DejaVuSans-65" d="M 3597 1894 
L 3597 1613 
L 953 1613 
Q 991 1019 1311 708 
Q 1631 397 2203 397 
Q 2534 397 2845 478 
Q 3156 559 3463 722 
L 3463 178 
Q 3153 47 2828 -22 
Q 2503 -91 2169 -91 
Q 1331 -91 842 396 
Q 353 884 353 1716 
Q 353 2575 817 3079 
Q 1281 3584 2069 3584 
Q 2775 3584 3186 3129 
Q 3597 2675 3597 1894 
z
M 3022 2063 
Q 3016 2534 2758 2815 
Q 2500 3097 2075 3097 
Q 1594 3097 1305 2825 
Q 1016 2553 972 2059 
L 3022 2063 
z
" transform="scale(0.015625)"/>
       <path id="DejaVuSans-72" d="M 2631 2963 
Q 2534 3019 2420 3045 
Q 2306 3072 2169 3072 
Q 1681 3072 1420 2755 
Q 1159 2438 1159 1844 
L 1159 0 
L 581 0 
L 581 3500 
L 1159 3500 
L 1159 2956 
Q 1341 3275 1631 3429 
Q 1922 3584 2338 3584 
Q 2397 3584 2469 3576 
Q 2541 3569 2628 3553 
L 2631 2963 
z
" transform="scale(0.015625)"/>
       <path id="DejaVuSans-61" d="M 2194 1759 
Q 1497 1759 1228 1600 
Q 959 1441 959 1056 
Q 959 750 1161 570 
Q 1363 391 1709 391 
Q 2188 391 2477 730 
Q 2766 1069 2766 1631 
L 2766 1759 
L 2194 1759 
z
M 3341 1997 
L 3341 0 
L 2766 0 
L 2766 531 
Q 2569 213 2275 61 
Q 1981 -91 1556 -91 
Q 1019 -91 701 211 
Q 384 513 384 1019 
Q 384 1609 779 1909 
Q 1175 2209 1959 2209 
L 2766 2209 
L 2766 2266 
Q 2766 2663 2505 2880 
Q 2244 3097 1772 3097 
Q 1472 3097 1187 3025 
Q 903 2953 641 2809 
L 641 3341 
Q 956 3463 1253 3523 
Q 1550 3584 1831 3584 
Q 2591 3584 2966 3190 
Q 3341 2797 3341 1997 
z
" transform="scale(0.015625)"/>
       <path id="DejaVuSans-69" d="M 603 3500 
L 1178 3500 
L 1178 0 
L 603 0 
L 603 3500 
z
M 603 4863 
L 1178 4863 
L 1178 4134 
L 603 4134 
L 603 4863 
z
" transform="scale(0.015625)"/>
       <path id="DejaVuSans-6f" d="M 1959 3097 
Q 1497 3097 1228 2736 
Q 959 2375 959 1747 
Q 959 1119 1226 758 
Q 1494 397 1959 397 
Q 2419 397 2687 759 
Q 2956 1122 2956 1747 
Q 2956 2369 2687 2733 
Q 2419 3097 1959 3097 
z
M 1959 3584 
Q 2709 3584 3137 3096 
Q 3566 2609 3566 1747 
Q 3566 888 3137 398 
Q 2709 -91 1959 -91 
Q 1206 -91 779 398 
Q 353 888 353 1747 
Q 353 2609 779 3096 
Q 1206 3584 1959 3584 
z
" transform="scale(0.015625)"/>
       <path id="DejaVuSans-6e" d="M 3513 2113 
L 3513 0 
L 2938 0 
L 2938 2094 
Q 2938 2591 2744 2837 
Q 2550 3084 2163 3084 
Q 1697 3084 1428 2787 
Q 1159 2491 1159 1978 
L 1159 0 
L 581 0 
L 581 3500 
L 1159 3500 
L 1159 2956 
Q 1366 3272 1645 3428 
Q 1925 3584 2291 3584 
Q 2894 3584 3203 3211 
Q 3513 2838 3513 2113 
z
" transform="scale(0.015625)"/>
       <path id="DejaVuSans-73" d="M 2834 3397 
L 2834 2853 
Q 2591 2978 2328 3040 
Q 2066 3103 1784 3103 
Q 1356 3103 1142 2972 
Q 928 2841 928 2578 
Q 928 2378 1081 2264 
Q 1234 2150 1697 2047 
L 1894 2003 
Q 2506 1872 2764 1633 
Q 3022 1394 3022 966 
Q 3022 478 2636 193 
Q 2250 -91 1575 -91 
Q 1294 -91 989 -36 
Q 684 19 347 128 
L 347 722 
Q 666 556 975 473 
Q 1284 391 1588 391 
Q 1994 391 2212 530 
Q 2431 669 2431 922 
Q 2431 1156 2273 1281 
Q 2116 1406 1581 1522 
L 1381 1569 
Q 847 1681 609 1914 
Q 372 2147 372 2553 
Q 372 3047 722 3315 
Q 1072 3584 1716 3584 
Q 2034 3584 2315 3537 
Q 2597 3491 2834 3397 
z
" transform="scale(0.015625)"/>
      </defs>
      <use xlink:href="#DejaVuSans-49"/>
      <use xlink:href="#DejaVuSans-74" x="29.492188"/>
      <use xlink:href="#DejaVuSans-65" x="68.701172"/>
      <use xlink:href="#DejaVuSans-72" x="130.224609"/>
      <use xlink:href="#DejaVuSans-61" x="171.337891"/>
      <use xlink:href="#DejaVuSans-74" x="232.617188"/>
      <use xlink:href="#DejaVuSans-69" x="271.826172"/>
      <use xlink:href="#DejaVuSans-6f" x="299.609375"/>
      <use xlink:href="#DejaVuSans-6e" x="360.791016"/>
      <use xlink:href="#DejaVuSans-73" x="424.169922"/>
     </g>
    </g>
   </g>
   <g id="matplotlib.axis_2">
    <g id="ytick_1">
     <g id="line2d_4">
      <defs>
       <path id="m21bcd93472" d="M 0 0 
L -3.5 0 
" style="stroke: #000000; stroke-width: 0.8"/>
      </defs>
      <g>
       <use xlink:href="#m21bcd93472" x="104.69" y="243.003672" style="stroke: #000000; stroke-width: 0.8"/>
      </g>
     </g>
     <g id="text_5">
      <!-- 0.00 -->
      <g transform="translate(48.705625 251.361953) scale(0.22 -0.22)">
       <defs>
        <path id="DejaVuSans-2e" d="M 684 794 
L 1344 794 
L 1344 0 
L 684 0 
L 684 794 
z
" transform="scale(0.015625)"/>
       </defs>
       <use xlink:href="#DejaVuSans-30"/>
       <use xlink:href="#DejaVuSans-2e" x="63.623047"/>
       <use xlink:href="#DejaVuSans-30" x="95.410156"/>
       <use xlink:href="#DejaVuSans-30" x="159.033203"/>
      </g>
     </g>
    </g>
    <g id="ytick_2">
     <g id="line2d_5">
      <g>
       <use xlink:href="#m21bcd93472" x="104.69" y="197.028111" style="stroke: #000000; stroke-width: 0.8"/>
      </g>
     </g>
     <g id="text_6">
      <!-- 0.25 -->
      <g transform="translate(48.705625 205.386393) scale(0.22 -0.22)">
       <defs>
        <path id="DejaVuSans-35" d="M 691 4666 
L 3169 4666 
L 3169 4134 
L 1269 4134 
L 1269 2991 
Q 1406 3038 1543 3061 
Q 1681 3084 1819 3084 
Q 2600 3084 3056 2656 
Q 3513 2228 3513 1497 
Q 3513 744 3044 326 
Q 2575 -91 1722 -91 
Q 1428 -91 1123 -41 
Q 819 9 494 109 
L 494 744 
Q 775 591 1075 516 
Q 1375 441 1709 441 
Q 2250 441 2565 725 
Q 2881 1009 2881 1497 
Q 2881 1984 2565 2268 
Q 2250 2553 1709 2553 
Q 1456 2553 1204 2497 
Q 953 2441 691 2322 
L 691 4666 
z
" transform="scale(0.015625)"/>
       </defs>
       <use xlink:href="#DejaVuSans-30"/>
       <use xlink:href="#DejaVuSans-2e" x="63.623047"/>
       <use xlink:href="#DejaVuSans-32" x="95.410156"/>
       <use xlink:href="#DejaVuSans-35" x="159.033203"/>
      </g>
     </g>
    </g>
    <g id="ytick_3">
     <g id="line2d_6">
      <g>
       <use xlink:href="#m21bcd93472" x="104.69" y="151.052551" style="stroke: #000000; stroke-width: 0.8"/>
      </g>
     </g>
     <g id="text_7">
      <!-- 0.50 -->
      <g transform="translate(48.705625 159.410832) scale(0.22 -0.22)">
       <use xlink:href="#DejaVuSans-30"/>
       <use xlink:href="#DejaVuSans-2e" x="63.623047"/>
       <use xlink:href="#DejaVuSans-35" x="95.410156"/>
       <use xlink:href="#DejaVuSans-30" x="159.033203"/>
      </g>
     </g>
    </g>
    <g id="ytick_4">
     <g id="line2d_7">
      <g>
       <use xlink:href="#m21bcd93472" x="104.69" y="105.076991" style="stroke: #000000; stroke-width: 0.8"/>
      </g>
     </g>
     <g id="text_8">
      <!-- 0.75 -->
      <g transform="translate(48.705625 113.435272) scale(0.22 -0.22)">
       <defs>
        <path id="DejaVuSans-37" d="M 525 4666 
L 3525 4666 
L 3525 4397 
L 1831 0 
L 1172 0 
L 2766 4134 
L 525 4134 
L 525 4666 
z
" transform="scale(0.015625)"/>
       </defs>
       <use xlink:href="#DejaVuSans-30"/>
       <use xlink:href="#DejaVuSans-2e" x="63.623047"/>
       <use xlink:href="#DejaVuSans-37" x="95.410156"/>
       <use xlink:href="#DejaVuSans-35" x="159.033203"/>
      </g>
     </g>
    </g>
    <g id="ytick_5">
     <g id="line2d_8">
      <g>
       <use xlink:href="#m21bcd93472" x="104.69" y="59.10143" style="stroke: #000000; stroke-width: 0.8"/>
      </g>
     </g>
     <g id="text_9">
      <!-- 1.00 -->
      <g transform="translate(48.705625 67.459712) scale(0.22 -0.22)">
       <use xlink:href="#DejaVuSans-31"/>
       <use xlink:href="#DejaVuSans-2e" x="63.623047"/>
       <use xlink:href="#DejaVuSans-30" x="95.410156"/>
       <use xlink:href="#DejaVuSans-30" x="159.033203"/>
      </g>
     </g>
    </g>
    <g id="text_10">
     <!-- nMSE -->
     <g transform="translate(40.130313 179.796094) rotate(-90) scale(0.22 -0.22)">
      <defs>
       <path id="DejaVuSans-4d" d="M 628 4666 
L 1569 4666 
L 2759 1491 
L 3956 4666 
L 4897 4666 
L 4897 0 
L 4281 0 
L 4281 4097 
L 3078 897 
L 2444 897 
L 1241 4097 
L 1241 0 
L 628 0 
L 628 4666 
z
" transform="scale(0.015625)"/>
       <path id="DejaVuSans-53" d="M 3425 4513 
L 3425 3897 
Q 3066 4069 2747 4153 
Q 2428 4238 2131 4238 
Q 1616 4238 1336 4038 
Q 1056 3838 1056 3469 
Q 1056 3159 1242 3001 
Q 1428 2844 1947 2747 
L 2328 2669 
Q 3034 2534 3370 2195 
Q 3706 1856 3706 1288 
Q 3706 609 3251 259 
Q 2797 -91 1919 -91 
Q 1588 -91 1214 -16 
Q 841 59 441 206 
L 441 856 
Q 825 641 1194 531 
Q 1563 422 1919 422 
Q 2459 422 2753 634 
Q 3047 847 3047 1241 
Q 3047 1584 2836 1778 
Q 2625 1972 2144 2069 
L 1759 2144 
Q 1053 2284 737 2584 
Q 422 2884 422 3419 
Q 422 4038 858 4394 
Q 1294 4750 2059 4750 
Q 2388 4750 2728 4690 
Q 3069 4631 3425 4513 
z
" transform="scale(0.015625)"/>
       <path id="DejaVuSans-45" d="M 628 4666 
L 3578 4666 
L 3578 4134 
L 1259 4134 
L 1259 2753 
L 3481 2753 
L 3481 2222 
L 1259 2222 
L 1259 531 
L 3634 531 
L 3634 0 
L 628 0 
L 628 4666 
z
" transform="scale(0.015625)"/>
      </defs>
      <use xlink:href="#DejaVuSans-6e"/>
      <use xlink:href="#DejaVuSans-4d" x="63.378906"/>
      <use xlink:href="#DejaVuSans-53" x="149.658203"/>
      <use xlink:href="#DejaVuSans-45" x="213.134766"/>
     </g>
    </g>
   </g>
   <g id="line2d_9">
    <path d="M 117.727976 59.339067 
L 121.02873 74.582011 
L 124.329483 123.944184 
L 127.630237 159.411137 
L 130.93099 180.738435 
L 134.231744 194.030162 
L 137.532497 204.508806 
L 140.833251 212.987069 
L 144.134004 216.840254 
L 147.434758 219.007633 
L 150.735511 222.946362 
L 154.036265 225.638816 
L 157.337018 225.513675 
L 160.637772 225.764399 
L 163.938525 227.497521 
L 167.239278 227.84765 
L 170.540032 227.704677 
L 173.840785 229.516762 
L 177.141539 229.924077 
L 180.442292 229.250221 
L 183.743046 230.521945 
L 187.043799 231.619561 
L 190.344553 232.259248 
L 193.645306 233.566787 
L 196.94606 233.498226 
L 200.246813 232.91926 
L 203.547567 233.895278 
L 206.84832 234.286015 
L 210.149074 234.648747 
L 213.449827 233.147219 
L 216.750581 235.157602 
L 220.051334 234.733111 
L 223.352088 233.901731 
L 226.652841 235.410789 
L 229.953595 235.732556 
L 233.254348 235.997557 
L 236.555102 235.954113 
L 239.855855 236.271713 
L 243.156609 235.289403 
L 246.457362 236.038788 
L 249.758116 236.232697 
L 253.058869 236.757161 
L 256.359622 236.486901 
L 259.660376 236.257442 
L 262.961129 236.817816 
L 266.261883 237.050223 
L 269.562636 236.512307 
L 272.86339 237.219289 
L 276.164143 236.9865 
L 279.464897 236.919358 
L 282.76565 237.492097 
L 286.066404 236.719735 
L 289.367157 237.087481 
L 292.667911 236.675838 
L 295.968664 237.682357 
L 299.269418 237.428035 
L 302.570171 237.681808 
L 305.870925 237.96551 
L 309.171678 237.45473 
L 312.472432 237.612345 
L 315.773185 238.261756 
L 319.073939 237.843877 
L 322.374692 237.752128 
L 325.675446 237.82487 
L 328.976199 237.762898 
L 332.276953 237.696424 
L 335.577706 238.35054 
L 338.87846 238.031373 
L 342.179213 237.870306 
L 345.479966 238.183665 
L 348.78072 238.249309 
L 352.081473 237.513248 
L 355.382227 238.655185 
L 358.68298 238.448116 
L 361.983734 238.621816 
L 365.284487 238.61812 
L 368.585241 238.561685 
L 371.885994 238.75118 
L 375.186748 238.616171 
L 378.487501 238.492921 
" clip-path="url(#pee75583855)" style="fill: none; stroke: #23aa00; stroke-width: 1.5; stroke-linecap: square"/>
   </g>
   <g id="line2d_10">
    <path d="M 117.727976 59.330682 
L 121.02873 76.544973 
L 124.329483 139.730568 
L 127.630237 173.26736 
L 130.93099 192.035816 
L 134.231744 203.695432 
L 137.532497 212.512093 
L 140.833251 217.200363 
L 144.134004 218.748807 
L 147.434758 220.997836 
L 150.735511 223.966226 
L 154.036265 224.94219 
L 157.337018 227.474773 
L 160.637772 227.384863 
L 163.938525 226.612379 
L 167.239278 229.210187 
L 170.540032 230.684616 
L 173.840785 230.892976 
L 177.141539 232.304858 
L 180.442292 233.050873 
L 183.743046 231.640765 
L 187.043799 233.005813 
L 190.344553 233.310469 
L 193.645306 232.941969 
L 196.94606 234.058089 
L 200.246813 234.119016 
L 203.547567 234.590633 
L 206.84832 234.152028 
L 210.149074 234.252848 
L 213.449827 235.264854 
L 216.750581 234.508024 
L 220.051334 234.893464 
L 223.352088 235.593147 
L 226.652841 235.744436 
L 229.953595 234.593694 
L 233.254348 234.94903 
L 236.555102 236.499523 
L 239.855855 236.6633 
L 243.156609 236.809778 
L 246.457362 236.355136 
L 249.758116 236.732319 
L 253.058869 236.246487 
L 256.359622 236.891269 
L 259.660376 237.120585 
L 262.961129 235.722417 
L 266.261883 237.045764 
L 269.562636 236.942665 
L 272.86339 237.496031 
L 276.164143 237.711741 
L 279.464897 237.506871 
L 282.76565 237.740138 
L 286.066404 237.840454 
L 289.367157 237.962703 
L 292.667911 237.880584 
L 295.968664 237.375415 
L 299.269418 237.568017 
L 302.570171 238.037477 
L 305.870925 238.060952 
L 309.171678 238.575759 
L 312.472432 237.92791 
L 315.773185 238.101346 
L 319.073939 237.858802 
L 322.374692 238.033908 
L 325.675446 238.350916 
L 328.976199 238.383136 
L 332.276953 238.252632 
L 335.577706 237.721869 
L 338.87846 238.585921 
L 342.179213 238.772252 
L 345.479966 238.30301 
L 348.78072 238.569095 
L 352.081473 238.51934 
L 355.382227 238.686644 
L 358.68298 238.846209 
L 361.983734 239.00731 
L 365.284487 238.693979 
L 368.585241 238.279941 
L 371.885994 238.253895 
L 375.186748 238.631191 
L 378.487501 238.880841 
" clip-path="url(#pee75583855)" style="fill: none; stroke: #f68917; stroke-width: 1.5; stroke-linecap: square"/>
   </g>
   <g id="line2d_11">
    <path d="M 117.727976 59.141887 
L 121.02873 59.812103 
L 124.329483 61.351579 
L 127.630237 64.796017 
L 130.93099 73.211228 
L 134.231744 89.483204 
L 137.532497 107.509051 
L 140.833251 122.190081 
L 144.134004 136.738457 
L 147.434758 142.655919 
L 150.735511 153.545275 
L 154.036265 155.927611 
L 157.337018 166.5397 
L 160.637772 168.656397 
L 163.938525 173.467628 
L 167.239278 174.501373 
L 170.540032 178.407124 
L 173.840785 182.561793 
L 177.141539 185.298795 
L 180.442292 184.528378 
L 183.743046 188.921284 
L 187.043799 190.258541 
L 190.344553 195.435008 
L 193.645306 196.9517 
L 196.94606 195.81958 
L 200.246813 197.871941 
L 203.547567 200.301989 
L 206.84832 200.602938 
L 210.149074 202.288528 
L 213.449827 201.057114 
L 216.750581 204.415269 
L 220.051334 202.741958 
L 223.352088 204.029899 
L 226.652841 205.982548 
L 229.953595 208.00289 
L 233.254348 208.793402 
L 236.555102 206.31863 
L 239.855855 207.639496 
L 243.156609 208.915669 
L 246.457362 208.654393 
L 249.758116 208.27085 
L 253.058869 209.892544 
L 256.359622 209.625737 
L 259.660376 211.185112 
L 262.961129 211.24636 
L 266.261883 212.37017 
L 269.562636 213.352242 
L 272.86339 214.135797 
L 276.164143 215.360448 
L 279.464897 214.502481 
L 282.76565 216.403404 
L 286.066404 214.567193 
L 289.367157 214.265283 
L 292.667911 215.393792 
L 295.968664 216.914749 
L 299.269418 215.690839 
L 302.570171 217.349352 
L 305.870925 216.979049 
L 309.171678 215.416968 
L 312.472432 218.706638 
L 315.773185 217.445754 
L 319.073939 219.330786 
L 322.374692 219.291859 
L 325.675446 217.417262 
L 328.976199 219.278173 
L 332.276953 218.499281 
L 335.577706 220.434521 
L 338.87846 216.979567 
L 342.179213 219.380525 
L 345.479966 219.792032 
L 348.78072 219.825151 
L 352.081473 220.243811 
L 355.382227 219.49513 
L 358.68298 220.726642 
L 361.983734 220.098991 
L 365.284487 220.546497 
L 368.585241 222.693376 
L 371.885994 221.282049 
L 375.186748 223.288085 
L 378.487501 222.547136 
" clip-path="url(#pee75583855)" style="fill: none; stroke: #6e0385; stroke-width: 1.5; stroke-linecap: square"/>
   </g>
   <g id="patch_3">
    <path d="M 104.69 248.88 
L 104.69 49.92 
" style="fill: none; stroke: #000000; stroke-width: 0.8; stroke-linejoin: miter; stroke-linecap: square"/>
   </g>
   <g id="patch_4">
    <path d="M 104.69 248.88 
L 391.525478 248.88 
" style="fill: none; stroke: #000000; stroke-width: 0.8; stroke-linejoin: miter; stroke-linecap: square"/>
   </g>
   <g id="text_11">
    <!-- Pattern Generation -->
    <g transform="translate(122.788176 43.92) scale(0.264 -0.264)">
     <defs>
      <path id="DejaVuSans-50" d="M 1259 4147 
L 1259 2394 
L 2053 2394 
Q 2494 2394 2734 2622 
Q 2975 2850 2975 3272 
Q 2975 3691 2734 3919 
Q 2494 4147 2053 4147 
L 1259 4147 
z
M 628 4666 
L 2053 4666 
Q 2838 4666 3239 4311 
Q 3641 3956 3641 3272 
Q 3641 2581 3239 2228 
Q 2838 1875 2053 1875 
L 1259 1875 
L 1259 0 
L 628 0 
L 628 4666 
z
" transform="scale(0.015625)"/>
      <path id="DejaVuSans-20" transform="scale(0.015625)"/>
      <path id="DejaVuSans-47" d="M 3809 666 
L 3809 1919 
L 2778 1919 
L 2778 2438 
L 4434 2438 
L 4434 434 
Q 4069 175 3628 42 
Q 3188 -91 2688 -91 
Q 1594 -91 976 548 
Q 359 1188 359 2328 
Q 359 3472 976 4111 
Q 1594 4750 2688 4750 
Q 3144 4750 3555 4637 
Q 3966 4525 4313 4306 
L 4313 3634 
Q 3963 3931 3569 4081 
Q 3175 4231 2741 4231 
Q 1884 4231 1454 3753 
Q 1025 3275 1025 2328 
Q 1025 1384 1454 906 
Q 1884 428 2741 428 
Q 3075 428 3337 486 
Q 3600 544 3809 666 
z
" transform="scale(0.015625)"/>
     </defs>
     <use xlink:href="#DejaVuSans-50"/>
     <use xlink:href="#DejaVuSans-61" x="55.802734"/>
     <use xlink:href="#DejaVuSans-74" x="117.082031"/>
     <use xlink:href="#DejaVuSans-74" x="156.291016"/>
     <use xlink:href="#DejaVuSans-65" x="195.5"/>
     <use xlink:href="#DejaVuSans-72" x="257.023438"/>
     <use xlink:href="#DejaVuSans-6e" x="296.386719"/>
     <use xlink:href="#DejaVuSans-20" x="359.765625"/>
     <use xlink:href="#DejaVuSans-47" x="391.552734"/>
     <use xlink:href="#DejaVuSans-65" x="469.042969"/>
     <use xlink:href="#DejaVuSans-6e" x="530.566406"/>
     <use xlink:href="#DejaVuSans-65" x="593.945312"/>
     <use xlink:href="#DejaVuSans-72" x="655.46875"/>
     <use xlink:href="#DejaVuSans-61" x="696.582031"/>
     <use xlink:href="#DejaVuSans-74" x="757.861328"/>
     <use xlink:href="#DejaVuSans-69" x="797.070312"/>
     <use xlink:href="#DejaVuSans-6f" x="824.853516"/>
     <use xlink:href="#DejaVuSans-6e" x="886.035156"/>
    </g>
   </g>
   <g id="legend_1">
    <g id="patch_5">
     <path d="M 214.769228 164.395625 
L 376.125478 164.395625 
Q 380.525478 164.395625 380.525478 159.995625 
L 380.525478 65.32 
Q 380.525478 60.92 376.125478 60.92 
L 214.769228 60.92 
Q 210.369228 60.92 210.369228 65.32 
L 210.369228 159.995625 
Q 210.369228 164.395625 214.769228 164.395625 
z
" style="fill: #ffffff; opacity: 0.8; stroke: #cccccc; stroke-linejoin: miter"/>
    </g>
    <g id="line2d_12">
     <path d="M 219.169228 78.736562 
L 241.169228 78.736562 
L 263.169228 78.736562 
" style="fill: none; stroke: #23aa00; stroke-width: 1.5; stroke-linecap: square"/>
    </g>
    <g id="text_12">
     <!-- Local -->
     <g transform="translate(280.769228 86.436562) scale(0.22 -0.22)">
      <defs>
       <path id="DejaVuSans-4c" d="M 628 4666 
L 1259 4666 
L 1259 531 
L 3531 531 
L 3531 0 
L 628 0 
L 628 4666 
z
" transform="scale(0.015625)"/>
       <path id="DejaVuSans-63" d="M 3122 3366 
L 3122 2828 
Q 2878 2963 2633 3030 
Q 2388 3097 2138 3097 
Q 1578 3097 1268 2742 
Q 959 2388 959 1747 
Q 959 1106 1268 751 
Q 1578 397 2138 397 
Q 2388 397 2633 464 
Q 2878 531 3122 666 
L 3122 134 
Q 2881 22 2623 -34 
Q 2366 -91 2075 -91 
Q 1284 -91 818 406 
Q 353 903 353 1747 
Q 353 2603 823 3093 
Q 1294 3584 2113 3584 
Q 2378 3584 2631 3529 
Q 2884 3475 3122 3366 
z
" transform="scale(0.015625)"/>
       <path id="DejaVuSans-6c" d="M 603 4863 
L 1178 4863 
L 1178 0 
L 603 0 
L 603 4863 
z
" transform="scale(0.015625)"/>
      </defs>
      <use xlink:href="#DejaVuSans-4c"/>
      <use xlink:href="#DejaVuSans-6f" x="53.962891"/>
      <use xlink:href="#DejaVuSans-63" x="115.144531"/>
      <use xlink:href="#DejaVuSans-61" x="170.125"/>
      <use xlink:href="#DejaVuSans-6c" x="231.404297"/>
     </g>
    </g>
    <g id="line2d_13">
     <path d="M 219.169228 111.028437 
L 241.169228 111.028437 
L 263.169228 111.028437 
" style="fill: none; stroke: #f68917; stroke-width: 1.5; stroke-linecap: square"/>
    </g>
    <g id="text_13">
     <!-- Sparse -->
     <g transform="translate(280.769228 118.728437) scale(0.22 -0.22)">
      <defs>
       <path id="DejaVuSans-70" d="M 1159 525 
L 1159 -1331 
L 581 -1331 
L 581 3500 
L 1159 3500 
L 1159 2969 
Q 1341 3281 1617 3432 
Q 1894 3584 2278 3584 
Q 2916 3584 3314 3078 
Q 3713 2572 3713 1747 
Q 3713 922 3314 415 
Q 2916 -91 2278 -91 
Q 1894 -91 1617 61 
Q 1341 213 1159 525 
z
M 3116 1747 
Q 3116 2381 2855 2742 
Q 2594 3103 2138 3103 
Q 1681 3103 1420 2742 
Q 1159 2381 1159 1747 
Q 1159 1113 1420 752 
Q 1681 391 2138 391 
Q 2594 391 2855 752 
Q 3116 1113 3116 1747 
z
" transform="scale(0.015625)"/>
      </defs>
      <use xlink:href="#DejaVuSans-53"/>
      <use xlink:href="#DejaVuSans-70" x="63.476562"/>
      <use xlink:href="#DejaVuSans-61" x="126.953125"/>
      <use xlink:href="#DejaVuSans-72" x="188.232422"/>
      <use xlink:href="#DejaVuSans-73" x="229.345703"/>
      <use xlink:href="#DejaVuSans-65" x="281.445312"/>
     </g>
    </g>
    <g id="line2d_14">
     <path d="M 219.169228 143.320312 
L 241.169228 143.320312 
L 263.169228 143.320312 
" style="fill: none; stroke: #6e0385; stroke-width: 1.5; stroke-linecap: square"/>
    </g>
    <g id="text_14">
     <!-- Shuffled -->
     <g transform="translate(280.769228 151.020312) scale(0.22 -0.22)">
      <defs>
       <path id="DejaVuSans-68" d="M 3513 2113 
L 3513 0 
L 2938 0 
L 2938 2094 
Q 2938 2591 2744 2837 
Q 2550 3084 2163 3084 
Q 1697 3084 1428 2787 
Q 1159 2491 1159 1978 
L 1159 0 
L 581 0 
L 581 4863 
L 1159 4863 
L 1159 2956 
Q 1366 3272 1645 3428 
Q 1925 3584 2291 3584 
Q 2894 3584 3203 3211 
Q 3513 2838 3513 2113 
z
" transform="scale(0.015625)"/>
       <path id="DejaVuSans-75" d="M 544 1381 
L 544 3500 
L 1119 3500 
L 1119 1403 
Q 1119 906 1312 657 
Q 1506 409 1894 409 
Q 2359 409 2629 706 
Q 2900 1003 2900 1516 
L 2900 3500 
L 3475 3500 
L 3475 0 
L 2900 0 
L 2900 538 
Q 2691 219 2414 64 
Q 2138 -91 1772 -91 
Q 1169 -91 856 284 
Q 544 659 544 1381 
z
M 1991 3584 
L 1991 3584 
z
" transform="scale(0.015625)"/>
       <path id="DejaVuSans-66" d="M 2375 4863 
L 2375 4384 
L 1825 4384 
Q 1516 4384 1395 4259 
Q 1275 4134 1275 3809 
L 1275 3500 
L 2222 3500 
L 2222 3053 
L 1275 3053 
L 1275 0 
L 697 0 
L 697 3053 
L 147 3053 
L 147 3500 
L 697 3500 
L 697 3744 
Q 697 4328 969 4595 
Q 1241 4863 1831 4863 
L 2375 4863 
z
" transform="scale(0.015625)"/>
       <path id="DejaVuSans-64" d="M 2906 2969 
L 2906 4863 
L 3481 4863 
L 3481 0 
L 2906 0 
L 2906 525 
Q 2725 213 2448 61 
Q 2172 -91 1784 -91 
Q 1150 -91 751 415 
Q 353 922 353 1747 
Q 353 2572 751 3078 
Q 1150 3584 1784 3584 
Q 2172 3584 2448 3432 
Q 2725 3281 2906 2969 
z
M 947 1747 
Q 947 1113 1208 752 
Q 1469 391 1925 391 
Q 2381 391 2643 752 
Q 2906 1113 2906 1747 
Q 2906 2381 2643 2742 
Q 2381 3103 1925 3103 
Q 1469 3103 1208 2742 
Q 947 2381 947 1747 
z
" transform="scale(0.015625)"/>
      </defs>
      <use xlink:href="#DejaVuSans-53"/>
      <use xlink:href="#DejaVuSans-68" x="63.476562"/>
      <use xlink:href="#DejaVuSans-75" x="126.855469"/>
      <use xlink:href="#DejaVuSans-66" x="190.234375"/>
      <use xlink:href="#DejaVuSans-66" x="225.439453"/>
      <use xlink:href="#DejaVuSans-6c" x="260.644531"/>
      <use xlink:href="#DejaVuSans-65" x="288.427734"/>
      <use xlink:href="#DejaVuSans-64" x="349.951172"/>
     </g>
    </g>
   </g>
  </g>
  <g id="axes_2">
   <g id="patch_6">
    <path d="M 104.69 524.36 
L 391.525478 524.36 
L 391.525478 325.4 
L 104.69 325.4 
z
" style="fill: #ffffff"/>
   </g>
   <g id="matplotlib.axis_3">
    <g id="xtick_4">
     <g id="line2d_15">
      <g>
       <use xlink:href="#ma7912c66cb" x="152.495913" y="524.36" style="stroke: #000000; stroke-width: 0.8"/>
      </g>
     </g>
     <g id="text_15">
      <!-- Local -->
      <g transform="translate(123.983569 548.076563) scale(0.22 -0.22)">
       <use xlink:href="#DejaVuSans-4c"/>
       <use xlink:href="#DejaVuSans-6f" x="53.962891"/>
       <use xlink:href="#DejaVuSans-63" x="115.144531"/>
       <use xlink:href="#DejaVuSans-61" x="170.125"/>
       <use xlink:href="#DejaVuSans-6c" x="231.404297"/>
      </g>
     </g>
    </g>
    <g id="xtick_5">
     <g id="line2d_16">
      <g>
       <use xlink:href="#ma7912c66cb" x="248.107739" y="524.36" style="stroke: #000000; stroke-width: 0.8"/>
      </g>
     </g>
     <g id="text_16">
      <!-- Sparse -->
      <g transform="translate(210.379458 548.076563) scale(0.22 -0.22)">
       <use xlink:href="#DejaVuSans-53"/>
       <use xlink:href="#DejaVuSans-70" x="63.476562"/>
       <use xlink:href="#DejaVuSans-61" x="126.953125"/>
       <use xlink:href="#DejaVuSans-72" x="188.232422"/>
       <use xlink:href="#DejaVuSans-73" x="229.345703"/>
       <use xlink:href="#DejaVuSans-65" x="281.445312"/>
      </g>
     </g>
    </g>
    <g id="xtick_6">
     <g id="line2d_17">
      <g>
       <use xlink:href="#ma7912c66cb" x="343.719565" y="524.36" style="stroke: #000000; stroke-width: 0.8"/>
      </g>
     </g>
     <g id="text_17">
      <!-- Shuffled -->
      <g transform="translate(298.24144 548.076563) scale(0.22 -0.22)">
       <use xlink:href="#DejaVuSans-53"/>
       <use xlink:href="#DejaVuSans-68" x="63.476562"/>
       <use xlink:href="#DejaVuSans-75" x="126.855469"/>
       <use xlink:href="#DejaVuSans-66" x="190.234375"/>
       <use xlink:href="#DejaVuSans-66" x="225.439453"/>
       <use xlink:href="#DejaVuSans-6c" x="260.644531"/>
       <use xlink:href="#DejaVuSans-65" x="288.427734"/>
       <use xlink:href="#DejaVuSans-64" x="349.951172"/>
      </g>
     </g>
    </g>
   </g>
   <g id="matplotlib.axis_4">
    <g id="ytick_6">
     <g id="line2d_18">
      <g>
       <use xlink:href="#m21bcd93472" x="104.69" y="479.325909" style="stroke: #000000; stroke-width: 0.8"/>
      </g>
     </g>
     <g id="text_18">
      <!-- 0.05 -->
      <g transform="translate(48.705625 487.68419) scale(0.22 -0.22)">
       <use xlink:href="#DejaVuSans-30"/>
       <use xlink:href="#DejaVuSans-2e" x="63.623047"/>
       <use xlink:href="#DejaVuSans-30" x="95.410156"/>
       <use xlink:href="#DejaVuSans-35" x="159.033203"/>
      </g>
     </g>
    </g>
    <g id="ytick_7">
     <g id="line2d_19">
      <g>
       <use xlink:href="#m21bcd93472" x="104.69" y="420.237848" style="stroke: #000000; stroke-width: 0.8"/>
      </g>
     </g>
     <g id="text_19">
      <!-- 0.10 -->
      <g transform="translate(48.705625 428.596129) scale(0.22 -0.22)">
       <use xlink:href="#DejaVuSans-30"/>
       <use xlink:href="#DejaVuSans-2e" x="63.623047"/>
       <use xlink:href="#DejaVuSans-31" x="95.410156"/>
       <use xlink:href="#DejaVuSans-30" x="159.033203"/>
      </g>
     </g>
    </g>
    <g id="ytick_8">
     <g id="line2d_20">
      <g>
       <use xlink:href="#m21bcd93472" x="104.69" y="361.149786" style="stroke: #000000; stroke-width: 0.8"/>
      </g>
     </g>
     <g id="text_20">
      <!-- 0.15 -->
      <g transform="translate(48.705625 369.508067) scale(0.22 -0.22)">
       <use xlink:href="#DejaVuSans-30"/>
       <use xlink:href="#DejaVuSans-2e" x="63.623047"/>
       <use xlink:href="#DejaVuSans-31" x="95.410156"/>
       <use xlink:href="#DejaVuSans-35" x="159.033203"/>
      </g>
     </g>
    </g>
    <g id="text_21">
     <!-- nMSE -->
     <g transform="translate(40.130313 455.276094) rotate(-90) scale(0.22 -0.22)">
      <use xlink:href="#DejaVuSans-6e"/>
      <use xlink:href="#DejaVuSans-4d" x="63.378906"/>
      <use xlink:href="#DejaVuSans-53" x="149.658203"/>
      <use xlink:href="#DejaVuSans-45" x="213.134766"/>
     </g>
    </g>
   </g>
   <g id="patch_7">
    <path d="M 145.325026 512.322278 
L 159.6668 512.322278 
L 159.6668 504.834491 
L 145.325026 504.834491 
L 145.325026 512.322278 
z
" clip-path="url(#paa473fff7e)" style="fill: #23aa00; stroke: #23aa00; stroke-linejoin: miter"/>
   </g>
   <g id="line2d_21">
    <path d="M 152.495913 512.322278 
L 152.495913 514.314128 
" clip-path="url(#paa473fff7e)" style="fill: none; stroke: #000000; stroke-linecap: square"/>
   </g>
   <g id="line2d_22">
    <path d="M 152.495913 504.834491 
L 152.495913 503.497048 
" clip-path="url(#paa473fff7e)" style="fill: none; stroke: #000000; stroke-linecap: square"/>
   </g>
   <g id="line2d_23">
    <path d="M 148.910469 514.314128 
L 156.081356 514.314128 
" clip-path="url(#paa473fff7e)" style="fill: none; stroke: #000000; stroke-linecap: square"/>
   </g>
   <g id="line2d_24">
    <path d="M 148.910469 503.497048 
L 156.081356 503.497048 
" clip-path="url(#paa473fff7e)" style="fill: none; stroke: #000000; stroke-linecap: square"/>
   </g>
   <g id="line2d_25"/>
   <g id="patch_8">
    <path d="M 240.936852 514.075885 
L 255.278626 514.075885 
L 255.278626 511.207209 
L 240.936852 511.207209 
L 240.936852 514.075885 
z
" clip-path="url(#paa473fff7e)" style="fill: #f68917; stroke: #f68917; stroke-linejoin: miter"/>
   </g>
   <g id="line2d_26">
    <path d="M 248.107739 514.075885 
L 248.107739 515.316364 
" clip-path="url(#paa473fff7e)" style="fill: none; stroke: #000000; stroke-linecap: square"/>
   </g>
   <g id="line2d_27">
    <path d="M 248.107739 511.207209 
L 248.107739 511.207209 
" clip-path="url(#paa473fff7e)" style="fill: none; stroke: #000000; stroke-linecap: square"/>
   </g>
   <g id="line2d_28">
    <path d="M 244.522295 515.316364 
L 251.693182 515.316364 
" clip-path="url(#paa473fff7e)" style="fill: none; stroke: #000000; stroke-linecap: square"/>
   </g>
   <g id="line2d_29">
    <path d="M 244.522295 511.207209 
L 251.693182 511.207209 
" clip-path="url(#paa473fff7e)" style="fill: none; stroke: #000000; stroke-linecap: square"/>
   </g>
   <g id="line2d_30">
    <defs>
     <path id="m77badc83d6" d="M 0 3 
C 0.795609 3 1.55874 2.683901 2.12132 2.12132 
C 2.683901 1.55874 3 0.795609 3 0 
C 3 -0.795609 2.683901 -1.55874 2.12132 -2.12132 
C 1.55874 -2.683901 0.795609 -3 0 -3 
C -0.795609 -3 -1.55874 -2.683901 -2.12132 -2.12132 
C -2.683901 -1.55874 -3 -0.795609 -3 0 
C -3 0.795609 -2.683901 1.55874 -2.12132 2.12132 
C -1.55874 2.683901 -0.795609 3 0 3 
z
" style="stroke: #000000"/>
    </defs>
    <g clip-path="url(#paa473fff7e)">
     <use xlink:href="#m77badc83d6" x="248.107739" y="505.651056" style="fill-opacity: 0; stroke: #000000"/>
    </g>
   </g>
   <g id="patch_9">
    <path d="M 336.548678 434.970613 
L 350.890452 434.970613 
L 350.890452 389.784597 
L 336.548678 389.784597 
L 336.548678 434.970613 
z
" clip-path="url(#paa473fff7e)" style="fill: #6e0385; stroke: #6e0385; stroke-linejoin: miter"/>
   </g>
   <g id="line2d_31">
    <path d="M 343.719565 434.970613 
L 343.719565 454.796952 
" clip-path="url(#paa473fff7e)" style="fill: none; stroke: #000000; stroke-linecap: square"/>
   </g>
   <g id="line2d_32">
    <path d="M 343.719565 389.784597 
L 343.719565 334.443636 
" clip-path="url(#paa473fff7e)" style="fill: none; stroke: #000000; stroke-linecap: square"/>
   </g>
   <g id="line2d_33">
    <path d="M 340.134121 454.796952 
L 347.305008 454.796952 
" clip-path="url(#paa473fff7e)" style="fill: none; stroke: #000000; stroke-linecap: square"/>
   </g>
   <g id="line2d_34">
    <path d="M 340.134121 334.443636 
L 347.305008 334.443636 
" clip-path="url(#paa473fff7e)" style="fill: none; stroke: #000000; stroke-linecap: square"/>
   </g>
   <g id="line2d_35"/>
   <g id="line2d_36">
    <path d="M 145.325026 512.170807 
L 159.6668 512.170807 
" clip-path="url(#paa473fff7e)" style="fill: none; stroke: #000000"/>
   </g>
   <g id="line2d_37">
    <path d="M 240.936852 513.352178 
L 255.278626 513.352178 
" clip-path="url(#paa473fff7e)" style="fill: none; stroke: #000000"/>
   </g>
   <g id="line2d_38">
    <path d="M 336.548678 420.802542 
L 350.890452 420.802542 
" clip-path="url(#paa473fff7e)" style="fill: none; stroke: #000000"/>
   </g>
   <g id="patch_10">
    <path d="M 104.69 524.36 
L 104.69 325.4 
" style="fill: none; stroke: #000000; stroke-width: 0.8; stroke-linejoin: miter; stroke-linecap: square"/>
   </g>
   <g id="patch_11">
    <path d="M 104.69 524.36 
L 391.525478 524.36 
" style="fill: none; stroke: #000000; stroke-width: 0.8; stroke-linejoin: miter; stroke-linecap: square"/>
   </g>
  </g>
 </g>
 <defs>
  <clipPath id="pee75583855">
   <rect x="104.69" y="49.92" width="286.835478" height="198.96"/>
  </clipPath>
  <clipPath id="paa473fff7e">
   <rect x="104.69" y="325.4" width="286.835478" height="198.96"/>
  </clipPath>
 </defs>
</svg>
