<?xml version="1.0" encoding="utf-8" standalone="no"?>
<!DOCTYPE svg PUBLIC "-//W3C//DTD SVG 1.1//EN"
  "http://www.w3.org/Graphics/SVG/1.1/DTD/svg11.dtd">
<svg xmlns:xlink="http://www.w3.org/1999/xlink" width="460.8pt" height="345.6pt" viewBox="0 0 460.8 345.6" xmlns="http://www.w3.org/2000/svg" version="1.1">
 <metadata>
  <rdf:RDF xmlns:dc="http://purl.org/dc/elements/1.1/" xmlns:cc="http://creativecommons.org/ns#" xmlns:rdf="http://www.w3.org/1999/02/22-rdf-syntax-ns#">
   <cc:Work>
    <dc:type rdf:resource="http://purl.org/dc/dcmitype/StillImage"/>
    <dc:date>2024-11-11T10:56:53.478441</dc:date>
    <dc:format>image/svg+xml</dc:format>
    <dc:creator>
     <cc:Agent>
      <dc:title>Matplotlib v3.8.4, https://matplotlib.org/</dc:title>
     </cc:Agent>
    </dc:creator>
   </cc:Work>
  </rdf:RDF>
 </metadata>
 <defs>
  <style type="text/css">*{stroke-linejoin: round; stroke-linecap: butt}</style>
 </defs>
 <g id="figure_1">
  <g id="patch_1">
   <path d="M 0 345.6 
L 460.8 345.6 
L 460.8 0 
L 0 0 
z
" style="fill: #ffffff"/>
  </g>
  <g id="axes_1">
   <g id="patch_2">
    <path d="M 57.6 307.584 
L 414.72 307.584 
L 414.72 41.472 
L 57.6 41.472 
z
" style="fill: #ffffff"/>
   </g>
   <g id="matplotlib.axis_1">
    <g id="xtick_1">
     <g id="line2d_1">
      <defs>
       <path id="m2cf6ff66fc" d="M 0 0 
L 0 3.5 
" style="stroke: #000000; stroke-width: 0.8"/>
      </defs>
      <g>
       <use xlink:href="#m2cf6ff66fc" x="73.832746" y="307.584" style="stroke: #000000; stroke-width: 0.8"/>
      </g>
     </g>
     <g id="text_1">
      <!-- 0.1 -->
      <g transform="translate(65.881184 322.182437) scale(0.1 -0.1)">
       <defs>
        <path id="DejaVuSans-30" d="M 2034 4250 
Q 1547 4250 1301 3770 
Q 1056 3291 1056 2328 
Q 1056 1369 1301 889 
Q 1547 409 2034 409 
Q 2525 409 2770 889 
Q 3016 1369 3016 2328 
Q 3016 3291 2770 3770 
Q 2525 4250 2034 4250 
z
M 2034 4750 
Q 2819 4750 3233 4129 
Q 3647 3509 3647 2328 
Q 3647 1150 3233 529 
Q 2819 -91 2034 -91 
Q 1250 -91 836 529 
Q 422 1150 422 2328 
Q 422 3509 836 4129 
Q 1250 4750 2034 4750 
z
" transform="scale(0.015625)"/>
        <path id="DejaVuSans-2e" d="M 684 794 
L 1344 794 
L 1344 0 
L 684 0 
L 684 794 
z
" transform="scale(0.015625)"/>
        <path id="DejaVuSans-31" d="M 794 531 
L 1825 531 
L 1825 4091 
L 703 3866 
L 703 4441 
L 1819 4666 
L 2450 4666 
L 2450 531 
L 3481 531 
L 3481 0 
L 794 0 
L 794 531 
z
" transform="scale(0.015625)"/>
       </defs>
       <use xlink:href="#DejaVuSans-30"/>
       <use xlink:href="#DejaVuSans-2e" x="63.623047"/>
       <use xlink:href="#DejaVuSans-31" x="95.410156"/>
      </g>
     </g>
    </g>
    <g id="xtick_2">
     <g id="line2d_2">
      <g>
       <use xlink:href="#m2cf6ff66fc" x="127.308435" y="307.584" style="stroke: #000000; stroke-width: 0.8"/>
      </g>
     </g>
     <g id="text_2">
      <!-- 0.2 -->
      <g transform="translate(119.356873 322.182437) scale(0.1 -0.1)">
       <defs>
        <path id="DejaVuSans-32" d="M 1228 531 
L 3431 531 
L 3431 0 
L 469 0 
L 469 531 
Q 828 903 1448 1529 
Q 2069 2156 2228 2338 
Q 2531 2678 2651 2914 
Q 2772 3150 2772 3378 
Q 2772 3750 2511 3984 
Q 2250 4219 1831 4219 
Q 1534 4219 1204 4116 
Q 875 4013 500 3803 
L 500 4441 
Q 881 4594 1212 4672 
Q 1544 4750 1819 4750 
Q 2544 4750 2975 4387 
Q 3406 4025 3406 3419 
Q 3406 3131 3298 2873 
Q 3191 2616 2906 2266 
Q 2828 2175 2409 1742 
Q 1991 1309 1228 531 
z
" transform="scale(0.015625)"/>
       </defs>
       <use xlink:href="#DejaVuSans-30"/>
       <use xlink:href="#DejaVuSans-2e" x="63.623047"/>
       <use xlink:href="#DejaVuSans-32" x="95.410156"/>
      </g>
     </g>
    </g>
    <g id="xtick_3">
     <g id="line2d_3">
      <g>
       <use xlink:href="#m2cf6ff66fc" x="180.784124" y="307.584" style="stroke: #000000; stroke-width: 0.8"/>
      </g>
     </g>
     <g id="text_3">
      <!-- 0.3 -->
      <g transform="translate(172.832561 322.182437) scale(0.1 -0.1)">
       <defs>
        <path id="DejaVuSans-33" d="M 2597 2516 
Q 3050 2419 3304 2112 
Q 3559 1806 3559 1356 
Q 3559 666 3084 287 
Q 2609 -91 1734 -91 
Q 1441 -91 1130 -33 
Q 819 25 488 141 
L 488 750 
Q 750 597 1062 519 
Q 1375 441 1716 441 
Q 2309 441 2620 675 
Q 2931 909 2931 1356 
Q 2931 1769 2642 2001 
Q 2353 2234 1838 2234 
L 1294 2234 
L 1294 2753 
L 1863 2753 
Q 2328 2753 2575 2939 
Q 2822 3125 2822 3475 
Q 2822 3834 2567 4026 
Q 2313 4219 1838 4219 
Q 1578 4219 1281 4162 
Q 984 4106 628 3988 
L 628 4550 
Q 988 4650 1302 4700 
Q 1616 4750 1894 4750 
Q 2613 4750 3031 4423 
Q 3450 4097 3450 3541 
Q 3450 3153 3228 2886 
Q 3006 2619 2597 2516 
z
" transform="scale(0.015625)"/>
       </defs>
       <use xlink:href="#DejaVuSans-30"/>
       <use xlink:href="#DejaVuSans-2e" x="63.623047"/>
       <use xlink:href="#DejaVuSans-33" x="95.410156"/>
      </g>
     </g>
    </g>
    <g id="xtick_4">
     <g id="line2d_4">
      <g>
       <use xlink:href="#m2cf6ff66fc" x="234.259813" y="307.584" style="stroke: #000000; stroke-width: 0.8"/>
      </g>
     </g>
     <g id="text_4">
      <!-- 0.4 -->
      <g transform="translate(226.30825 322.182437) scale(0.1 -0.1)">
       <defs>
        <path id="DejaVuSans-34" d="M 2419 4116 
L 825 1625 
L 2419 1625 
L 2419 4116 
z
M 2253 4666 
L 3047 4666 
L 3047 1625 
L 3713 1625 
L 3713 1100 
L 3047 1100 
L 3047 0 
L 2419 0 
L 2419 1100 
L 313 1100 
L 313 1709 
L 2253 4666 
z
" transform="scale(0.015625)"/>
       </defs>
       <use xlink:href="#DejaVuSans-30"/>
       <use xlink:href="#DejaVuSans-2e" x="63.623047"/>
       <use xlink:href="#DejaVuSans-34" x="95.410156"/>
      </g>
     </g>
    </g>
    <g id="xtick_5">
     <g id="line2d_5">
      <g>
       <use xlink:href="#m2cf6ff66fc" x="287.735501" y="307.584" style="stroke: #000000; stroke-width: 0.8"/>
      </g>
     </g>
     <g id="text_5">
      <!-- 0.5 -->
      <g transform="translate(279.783939 322.182437) scale(0.1 -0.1)">
       <defs>
        <path id="DejaVuSans-35" d="M 691 4666 
L 3169 4666 
L 3169 4134 
L 1269 4134 
L 1269 2991 
Q 1406 3038 1543 3061 
Q 1681 3084 1819 3084 
Q 2600 3084 3056 2656 
Q 3513 2228 3513 1497 
Q 3513 744 3044 326 
Q 2575 -91 1722 -91 
Q 1428 -91 1123 -41 
Q 819 9 494 109 
L 494 744 
Q 775 591 1075 516 
Q 1375 441 1709 441 
Q 2250 441 2565 725 
Q 2881 1009 2881 1497 
Q 2881 1984 2565 2268 
Q 2250 2553 1709 2553 
Q 1456 2553 1204 2497 
Q 953 2441 691 2322 
L 691 4666 
z
" transform="scale(0.015625)"/>
       </defs>
       <use xlink:href="#DejaVuSans-30"/>
       <use xlink:href="#DejaVuSans-2e" x="63.623047"/>
       <use xlink:href="#DejaVuSans-35" x="95.410156"/>
      </g>
     </g>
    </g>
    <g id="xtick_6">
     <g id="line2d_6">
      <g>
       <use xlink:href="#m2cf6ff66fc" x="341.21119" y="307.584" style="stroke: #000000; stroke-width: 0.8"/>
      </g>
     </g>
     <g id="text_6">
      <!-- 0.6 -->
      <g transform="translate(333.259628 322.182437) scale(0.1 -0.1)">
       <defs>
        <path id="DejaVuSans-36" d="M 2113 2584 
Q 1688 2584 1439 2293 
Q 1191 2003 1191 1497 
Q 1191 994 1439 701 
Q 1688 409 2113 409 
Q 2538 409 2786 701 
Q 3034 994 3034 1497 
Q 3034 2003 2786 2293 
Q 2538 2584 2113 2584 
z
M 3366 4563 
L 3366 3988 
Q 3128 4100 2886 4159 
Q 2644 4219 2406 4219 
Q 1781 4219 1451 3797 
Q 1122 3375 1075 2522 
Q 1259 2794 1537 2939 
Q 1816 3084 2150 3084 
Q 2853 3084 3261 2657 
Q 3669 2231 3669 1497 
Q 3669 778 3244 343 
Q 2819 -91 2113 -91 
Q 1303 -91 875 529 
Q 447 1150 447 2328 
Q 447 3434 972 4092 
Q 1497 4750 2381 4750 
Q 2619 4750 2861 4703 
Q 3103 4656 3366 4563 
z
" transform="scale(0.015625)"/>
       </defs>
       <use xlink:href="#DejaVuSans-30"/>
       <use xlink:href="#DejaVuSans-2e" x="63.623047"/>
       <use xlink:href="#DejaVuSans-36" x="95.410156"/>
      </g>
     </g>
    </g>
    <g id="xtick_7">
     <g id="line2d_7">
      <g>
       <use xlink:href="#m2cf6ff66fc" x="394.686879" y="307.584" style="stroke: #000000; stroke-width: 0.8"/>
      </g>
     </g>
     <g id="text_7">
      <!-- 0.7 -->
      <g transform="translate(386.735317 322.182437) scale(0.1 -0.1)">
       <defs>
        <path id="DejaVuSans-37" d="M 525 4666 
L 3525 4666 
L 3525 4397 
L 1831 0 
L 1172 0 
L 2766 4134 
L 525 4134 
L 525 4666 
z
" transform="scale(0.015625)"/>
       </defs>
       <use xlink:href="#DejaVuSans-30"/>
       <use xlink:href="#DejaVuSans-2e" x="63.623047"/>
       <use xlink:href="#DejaVuSans-37" x="95.410156"/>
      </g>
     </g>
    </g>
    <g id="text_8">
     <!-- $d_{ji}$ -->
     <g transform="translate(230.86 335.862125) scale(0.1 -0.1)">
      <defs>
       <path id="DejaVuSans-Oblique-64" d="M 2675 525 
Q 2444 222 2128 65 
Q 1813 -91 1428 -91 
Q 903 -91 598 267 
Q 294 625 294 1247 
Q 294 1766 478 2236 
Q 663 2706 1013 3078 
Q 1244 3325 1534 3454 
Q 1825 3584 2144 3584 
Q 2481 3584 2739 3421 
Q 2997 3259 3138 2956 
L 3513 4863 
L 4091 4863 
L 3144 0 
L 2566 0 
L 2675 525 
z
M 891 1350 
Q 891 897 1095 644 
Q 1300 391 1663 391 
Q 1931 391 2161 520 
Q 2391 650 2566 903 
Q 2750 1166 2856 1509 
Q 2963 1853 2963 2188 
Q 2963 2622 2758 2865 
Q 2553 3109 2194 3109 
Q 1922 3109 1687 2981 
Q 1453 2853 1288 2613 
Q 1106 2353 998 2009 
Q 891 1666 891 1350 
z
" transform="scale(0.015625)"/>
       <path id="DejaVuSans-Oblique-6a" d="M 928 3500 
L 1503 3500 
L 813 -63 
L 809 -78 
Q 694 -675 544 -897 
Q 403 -1106 132 -1218 
Q -138 -1331 -506 -1331 
L -722 -1331 
L -628 -844 
L -481 -844 
Q -144 -844 -1 -703 
Q 141 -563 238 -63 
L 928 3500 
z
M 1197 4863 
L 1772 4863 
L 1631 4134 
L 1056 4134 
L 1197 4863 
z
" transform="scale(0.015625)"/>
       <path id="DejaVuSans-Oblique-69" d="M 1172 4863 
L 1747 4863 
L 1606 4134 
L 1031 4134 
L 1172 4863 
z
M 909 3500 
L 1484 3500 
L 800 0 
L 225 0 
L 909 3500 
z
" transform="scale(0.015625)"/>
      </defs>
      <use xlink:href="#DejaVuSans-Oblique-64" transform="translate(0 0.015625)"/>
      <use xlink:href="#DejaVuSans-Oblique-6a" transform="translate(63.476562 -16.390625) scale(0.7)"/>
      <use xlink:href="#DejaVuSans-Oblique-69" transform="translate(82.924805 -16.390625) scale(0.7)"/>
     </g>
    </g>
   </g>
   <g id="matplotlib.axis_2">
    <g id="ytick_1">
     <g id="line2d_8">
      <defs>
       <path id="mf7150d88b5" d="M 0 0 
L -3.5 0 
" style="stroke: #000000; stroke-width: 0.8"/>
      </defs>
      <g>
       <use xlink:href="#mf7150d88b5" x="57.6" y="295.488" style="stroke: #000000; stroke-width: 0.8"/>
      </g>
     </g>
     <g id="text_9">
      <!-- 0.0 -->
      <g transform="translate(34.696875 299.287219) scale(0.1 -0.1)">
       <use xlink:href="#DejaVuSans-30"/>
       <use xlink:href="#DejaVuSans-2e" x="63.623047"/>
       <use xlink:href="#DejaVuSans-30" x="95.410156"/>
      </g>
     </g>
    </g>
    <g id="ytick_2">
     <g id="line2d_9">
      <g>
       <use xlink:href="#mf7150d88b5" x="57.6" y="246.594711" style="stroke: #000000; stroke-width: 0.8"/>
      </g>
     </g>
     <g id="text_10">
      <!-- 0.1 -->
      <g transform="translate(34.696875 250.39393) scale(0.1 -0.1)">
       <use xlink:href="#DejaVuSans-30"/>
       <use xlink:href="#DejaVuSans-2e" x="63.623047"/>
       <use xlink:href="#DejaVuSans-31" x="95.410156"/>
      </g>
     </g>
    </g>
    <g id="ytick_3">
     <g id="line2d_10">
      <g>
       <use xlink:href="#mf7150d88b5" x="57.6" y="197.701423" style="stroke: #000000; stroke-width: 0.8"/>
      </g>
     </g>
     <g id="text_11">
      <!-- 0.2 -->
      <g transform="translate(34.696875 201.500642) scale(0.1 -0.1)">
       <use xlink:href="#DejaVuSans-30"/>
       <use xlink:href="#DejaVuSans-2e" x="63.623047"/>
       <use xlink:href="#DejaVuSans-32" x="95.410156"/>
      </g>
     </g>
    </g>
    <g id="ytick_4">
     <g id="line2d_11">
      <g>
       <use xlink:href="#mf7150d88b5" x="57.6" y="148.808134" style="stroke: #000000; stroke-width: 0.8"/>
      </g>
     </g>
     <g id="text_12">
      <!-- 0.3 -->
      <g transform="translate(34.696875 152.607353) scale(0.1 -0.1)">
       <use xlink:href="#DejaVuSans-30"/>
       <use xlink:href="#DejaVuSans-2e" x="63.623047"/>
       <use xlink:href="#DejaVuSans-33" x="95.410156"/>
      </g>
     </g>
    </g>
    <g id="ytick_5">
     <g id="line2d_12">
      <g>
       <use xlink:href="#mf7150d88b5" x="57.6" y="99.914846" style="stroke: #000000; stroke-width: 0.8"/>
      </g>
     </g>
     <g id="text_13">
      <!-- 0.4 -->
      <g transform="translate(34.696875 103.714064) scale(0.1 -0.1)">
       <use xlink:href="#DejaVuSans-30"/>
       <use xlink:href="#DejaVuSans-2e" x="63.623047"/>
       <use xlink:href="#DejaVuSans-34" x="95.410156"/>
      </g>
     </g>
    </g>
    <g id="ytick_6">
     <g id="line2d_13">
      <g>
       <use xlink:href="#mf7150d88b5" x="57.6" y="51.021557" style="stroke: #000000; stroke-width: 0.8"/>
      </g>
     </g>
     <g id="text_14">
      <!-- 0.5 -->
      <g transform="translate(34.696875 54.820776) scale(0.1 -0.1)">
       <use xlink:href="#DejaVuSans-30"/>
       <use xlink:href="#DejaVuSans-2e" x="63.623047"/>
       <use xlink:href="#DejaVuSans-35" x="95.410156"/>
      </g>
     </g>
    </g>
    <g id="text_15">
     <!-- P($A_{ji}=1$) -->
     <g transform="translate(27.596875 196.278) rotate(-90) scale(0.1 -0.1)">
      <defs>
       <path id="DejaVuSans-50" d="M 1259 4147 
L 1259 2394 
L 2053 2394 
Q 2494 2394 2734 2622 
Q 2975 2850 2975 3272 
Q 2975 3691 2734 3919 
Q 2494 4147 2053 4147 
L 1259 4147 
z
M 628 4666 
L 2053 4666 
Q 2838 4666 3239 4311 
Q 3641 3956 3641 3272 
Q 3641 2581 3239 2228 
Q 2838 1875 2053 1875 
L 1259 1875 
L 1259 0 
L 628 0 
L 628 4666 
z
" transform="scale(0.015625)"/>
       <path id="DejaVuSans-28" d="M 1984 4856 
Q 1566 4138 1362 3434 
Q 1159 2731 1159 2009 
Q 1159 1288 1364 580 
Q 1569 -128 1984 -844 
L 1484 -844 
Q 1016 -109 783 600 
Q 550 1309 550 2009 
Q 550 2706 781 3412 
Q 1013 4119 1484 4856 
L 1984 4856 
z
" transform="scale(0.015625)"/>
       <path id="DejaVuSans-Oblique-41" d="M 2356 4666 
L 3072 4666 
L 3938 0 
L 3278 0 
L 3084 1197 
L 984 1197 
L 325 0 
L -341 0 
L 2356 4666 
z
M 2584 4044 
L 1275 1722 
L 2988 1722 
L 2584 4044 
z
" transform="scale(0.015625)"/>
       <path id="DejaVuSans-3d" d="M 678 2906 
L 4684 2906 
L 4684 2381 
L 678 2381 
L 678 2906 
z
M 678 1631 
L 4684 1631 
L 4684 1100 
L 678 1100 
L 678 1631 
z
" transform="scale(0.015625)"/>
       <path id="DejaVuSans-29" d="M 513 4856 
L 1013 4856 
Q 1481 4119 1714 3412 
Q 1947 2706 1947 2009 
Q 1947 1309 1714 600 
Q 1481 -109 1013 -844 
L 513 -844 
Q 928 -128 1133 580 
Q 1338 1288 1338 2009 
Q 1338 2731 1133 3434 
Q 928 4138 513 4856 
z
" transform="scale(0.015625)"/>
      </defs>
      <use xlink:href="#DejaVuSans-50" transform="translate(0 0.125)"/>
      <use xlink:href="#DejaVuSans-28" transform="translate(60.302734 0.125)"/>
      <use xlink:href="#DejaVuSans-Oblique-41" transform="translate(99.316406 0.125)"/>
      <use xlink:href="#DejaVuSans-Oblique-6a" transform="translate(167.724609 -16.28125) scale(0.7)"/>
      <use xlink:href="#DejaVuSans-Oblique-69" transform="translate(187.172852 -16.28125) scale(0.7)"/>
      <use xlink:href="#DejaVuSans-3d" transform="translate(228.837891 0.125)"/>
      <use xlink:href="#DejaVuSans-31" transform="translate(332.109375 0.125)"/>
      <use xlink:href="#DejaVuSans-29" transform="translate(395.732422 0.125)"/>
     </g>
    </g>
   </g>
   <g id="line2d_14">
    <path d="M 73.832727 53.568 
L 73.832743 53.568 
L 73.832747 53.568 
L 73.832751 53.568 
L 73.832759 53.568 
L 95.983074 56.11386 
L 95.983089 56.11386 
L 95.983089 56.11386 
L 95.983097 56.11386 
L 95.983097 56.11386 
L 95.983097 56.11386 
L 95.983105 56.11386 
L 95.983105 56.11386 
L 95.983113 56.11386 
L 95.983113 56.11386 
L 95.983121 56.11386 
L 127.308429 61.201762 
L 127.308437 61.201762 
L 127.308445 61.201762 
L 127.308461 61.201762 
L 139.932323 63.742697 
L 139.932323 63.742697 
L 139.932331 63.742697 
L 139.932331 63.742697 
L 139.932339 63.742697 
L 139.932339 63.742697 
L 139.932347 63.742697 
L 139.932355 63.742697 
L 139.932355 63.742697 
L 139.932363 63.742697 
L 171.609137 71.34672 
L 171.609137 71.346734 
L 171.609153 71.346734 
L 171.609153 71.346734 
L 171.609169 71.346734 
L 171.609169 71.346734 
L 171.609185 71.346734 
L 180.784098 73.873375 
L 180.784114 73.873375 
L 180.78413 73.873375 
L 189.462001 76.395104 
L 189.462017 76.395104 
L 189.462017 76.395104 
L 189.462017 76.395104 
L 189.462032 76.395104 
L 189.462032 76.395104 
L 189.462048 76.395104 
L 213.166371 83.925498 
L 213.166387 83.925512 
L 213.166387 83.925512 
L 213.166403 83.925512 
L 213.166419 83.925512 
L 234.2598 91.392826 
L 234.259816 91.392856 
L 234.259832 91.392856 
L 240.842959 93.865567 
L 240.842959 93.865567 
L 240.842975 93.865567 
L 240.842975 93.865597 
L 240.842991 93.865597 
L 247.235161 96.329303 
L 247.235161 96.329303 
L 247.235177 96.329303 
L 247.235193 96.329303 
L 247.235193 96.329303 
L 259.507589 101.227793 
L 259.507605 101.227793 
L 259.507605 101.227793 
L 259.507621 101.227793 
L 259.507621 101.227808 
L 259.507637 101.227808 
L 287.73547 113.283533 
L 287.735486 113.283533 
L 287.735486 113.283548 
L 287.735501 113.283548 
L 287.735501 113.283562 
L 293.030633 115.6585 
L 293.030633 115.6585 
L 308.332445 122.703508 
L 308.332445 122.703508 
L 308.332477 122.703523 
L 322.861217 129.620623 
L 322.861217 129.620638 
L 322.861249 129.620652 
L 322.861249 129.620652 
L 332.171196 134.15617 
L 332.171228 134.156184 
L 332.171228 134.156184 
L 362.76851 149.512419 
L 362.768542 149.512434 
L 362.768542 149.512434 
L 398.487241 167.960328 
L 398.487273 167.960342 
L 398.487273 167.960357 
" clip-path="url(#pca28a42b7b)" style="fill: none; stroke: #1f77b4; stroke-width: 1.5; stroke-linecap: square"/>
   </g>
   <g id="line2d_15">
    <path d="M 73.832727 76.395075 
L 73.832743 76.395104 
L 73.832747 76.395104 
L 73.832751 76.395104 
L 73.832759 76.395104 
L 95.983074 101.227749 
L 95.983089 101.227778 
L 95.983089 101.227793 
L 95.983097 101.227793 
L 95.983097 101.227793 
L 95.983097 101.227793 
L 95.983105 101.227793 
L 95.983105 101.227808 
L 95.983113 101.227808 
L 95.983113 101.227808 
L 95.983121 101.227822 
L 127.308429 147.370316 
L 127.308437 147.370331 
L 127.308445 147.370346 
L 127.308461 147.37036 
L 139.932323 167.960328 
L 139.932323 167.960328 
L 139.932331 167.960342 
L 139.932331 167.960342 
L 139.932339 167.960357 
L 139.932339 167.960357 
L 139.932347 167.960357 
L 139.932355 167.960386 
L 139.932355 167.9604 
L 139.932363 167.9604 
L 171.609137 217.811657 
L 171.609137 217.811671 
L 171.609153 217.811671 
L 171.609153 217.811693 
L 171.609169 217.8117 
L 171.609169 217.8117 
L 171.609185 217.811715 
L 180.784098 230.477375 
L 180.784114 230.477397 
L 180.78413 230.477411 
L 189.462001 241.349737 
L 189.462017 241.349748 
L 189.462017 241.349748 
L 189.462017 241.349758 
L 189.462032 241.349769 
L 189.462032 241.349769 
L 189.462048 241.349784 
L 213.166371 264.93778 
L 213.166387 264.937794 
L 213.166387 264.937802 
L 213.166403 264.937809 
L 213.166419 264.937816 
L 234.2598 278.646605 
L 234.259816 278.646614 
L 234.259832 278.646622 
L 240.842959 281.724699 
L 240.842959 281.724702 
L 240.842975 281.724708 
L 240.842975 281.724711 
L 240.842991 281.724714 
L 247.235161 284.253595 
L 247.235161 284.2536 
L 247.235177 284.253602 
L 247.235193 284.253606 
L 247.235193 284.253608 
L 259.507589 288.023382 
L 259.507605 288.023385 
L 259.507605 288.023385 
L 259.507621 288.023389 
L 259.507621 288.023392 
L 259.507637 288.023392 
L 287.73547 292.827705 
L 287.735486 292.827705 
L 287.735486 292.827707 
L 287.735501 292.827708 
L 287.735501 292.827709 
L 293.030633 293.325798 
L 293.030633 293.325799 
L 308.332445 294.328273 
L 308.332445 294.328274 
L 308.332477 294.328274 
L 322.861217 294.866558 
L 322.861217 294.866558 
L 322.861249 294.866559 
L 322.861249 294.866559 
L 332.171196 295.078142 
L 332.171228 295.078143 
L 332.171228 295.078143 
L 362.76851 295.392596 
L 362.768542 295.392596 
L 362.768542 295.392596 
L 398.487241 295.473367 
L 398.487273 295.473367 
L 398.487273 295.473367 
" clip-path="url(#pca28a42b7b)" style="fill: none; stroke: #ff7f0e; stroke-width: 1.5; stroke-linecap: square"/>
   </g>
   <g id="line2d_16">
    <path d="M 73.832727 241.349704 
L 73.832743 241.349758 
L 73.832747 241.349784 
L 73.832751 241.349784 
L 73.832759 241.349817 
L 95.983074 288.023364 
L 95.983089 288.023372 
L 95.983089 288.023375 
L 95.983097 288.023378 
L 95.983097 288.023382 
L 95.983097 288.023385 
L 95.983105 288.023389 
L 95.983105 288.023389 
L 95.983113 288.023392 
L 95.983113 288.023396 
L 95.983121 288.023399 
L 127.308429 295.370504 
L 127.308437 295.370504 
L 127.308445 295.370504 
L 127.308461 295.370504 
L 139.932323 295.473367 
L 139.932323 295.473367 
L 139.932331 295.473367 
L 139.932331 295.473367 
L 139.932339 295.473367 
L 139.932339 295.473367 
L 139.932347 295.473367 
L 139.932355 295.473367 
L 139.932355 295.473367 
L 139.932363 295.473367 
L 171.609137 295.487972 
L 171.609137 295.487972 
L 171.609153 295.487972 
L 171.609153 295.487972 
L 171.609169 295.487972 
L 171.609169 295.487972 
L 171.609185 295.487972 
L 180.784098 295.487996 
L 180.784114 295.487996 
L 180.78413 295.487996 
L 189.462001 295.488 
L 189.462017 295.488 
L 189.462017 295.488 
L 189.462017 295.488 
L 189.462032 295.488 
L 189.462032 295.488 
L 189.462048 295.488 
L 213.166371 295.488 
L 213.166387 295.488 
L 213.166387 295.488 
L 213.166403 295.488 
L 213.166419 295.488 
L 234.2598 295.488 
L 234.259816 295.488 
L 234.259832 295.488 
L 240.842959 295.488 
L 240.842959 295.488 
L 240.842975 295.488 
L 240.842975 295.488 
L 240.842991 295.488 
L 247.235161 295.488 
L 247.235161 295.488 
L 247.235177 295.488 
L 247.235193 295.488 
L 247.235193 295.488 
L 259.507589 295.488 
L 259.507605 295.488 
L 259.507605 295.488 
L 259.507621 295.488 
L 259.507621 295.488 
L 259.507637 295.488 
L 287.73547 295.488 
L 287.735486 295.488 
L 287.735486 295.488 
L 287.735501 295.488 
L 287.735501 295.488 
L 293.030633 295.488 
L 293.030633 295.488 
L 308.332445 295.488 
L 308.332445 295.488 
L 308.332477 295.488 
L 322.861217 295.488 
L 322.861217 295.488 
L 322.861249 295.488 
L 322.861249 295.488 
L 332.171196 295.488 
L 332.171228 295.488 
L 332.171228 295.488 
L 362.76851 295.488 
L 362.768542 295.488 
L 362.768542 295.488 
L 398.487241 295.488 
L 398.487273 295.488 
L 398.487273 295.488 
" clip-path="url(#pca28a42b7b)" style="fill: none; stroke: #2ca02c; stroke-width: 1.5; stroke-linecap: square"/>
   </g>
   <g id="patch_3">
    <path d="M 57.6 307.584 
L 57.6 41.472 
" style="fill: none; stroke: #000000; stroke-width: 0.8; stroke-linejoin: miter; stroke-linecap: square"/>
   </g>
   <g id="patch_4">
    <path d="M 414.72 307.584 
L 414.72 41.472 
" style="fill: none; stroke: #000000; stroke-width: 0.8; stroke-linejoin: miter; stroke-linecap: square"/>
   </g>
   <g id="patch_5">
    <path d="M 57.6 307.584 
L 414.72 307.584 
" style="fill: none; stroke: #000000; stroke-width: 0.8; stroke-linejoin: miter; stroke-linecap: square"/>
   </g>
   <g id="patch_6">
    <path d="M 57.6 41.472 
L 414.72 41.472 
" style="fill: none; stroke: #000000; stroke-width: 0.8; stroke-linejoin: miter; stroke-linecap: square"/>
   </g>
   <g id="text_16">
    <!-- Probability of connection between two neurons as function of distance -->
    <g transform="translate(24.8175 35.472) scale(0.12 -0.12)">
     <defs>
      <path id="DejaVuSans-72" d="M 2631 2963 
Q 2534 3019 2420 3045 
Q 2306 3072 2169 3072 
Q 1681 3072 1420 2755 
Q 1159 2438 1159 1844 
L 1159 0 
L 581 0 
L 581 3500 
L 1159 3500 
L 1159 2956 
Q 1341 3275 1631 3429 
Q 1922 3584 2338 3584 
Q 2397 3584 2469 3576 
Q 2541 3569 2628 3553 
L 2631 2963 
z
" transform="scale(0.015625)"/>
      <path id="DejaVuSans-6f" d="M 1959 3097 
Q 1497 3097 1228 2736 
Q 959 2375 959 1747 
Q 959 1119 1226 758 
Q 1494 397 1959 397 
Q 2419 397 2687 759 
Q 2956 1122 2956 1747 
Q 2956 2369 2687 2733 
Q 2419 3097 1959 3097 
z
M 1959 3584 
Q 2709 3584 3137 3096 
Q 3566 2609 3566 1747 
Q 3566 888 3137 398 
Q 2709 -91 1959 -91 
Q 1206 -91 779 398 
Q 353 888 353 1747 
Q 353 2609 779 3096 
Q 1206 3584 1959 3584 
z
" transform="scale(0.015625)"/>
      <path id="DejaVuSans-62" d="M 3116 1747 
Q 3116 2381 2855 2742 
Q 2594 3103 2138 3103 
Q 1681 3103 1420 2742 
Q 1159 2381 1159 1747 
Q 1159 1113 1420 752 
Q 1681 391 2138 391 
Q 2594 391 2855 752 
Q 3116 1113 3116 1747 
z
M 1159 2969 
Q 1341 3281 1617 3432 
Q 1894 3584 2278 3584 
Q 2916 3584 3314 3078 
Q 3713 2572 3713 1747 
Q 3713 922 3314 415 
Q 2916 -91 2278 -91 
Q 1894 -91 1617 61 
Q 1341 213 1159 525 
L 1159 0 
L 581 0 
L 581 4863 
L 1159 4863 
L 1159 2969 
z
" transform="scale(0.015625)"/>
      <path id="DejaVuSans-61" d="M 2194 1759 
Q 1497 1759 1228 1600 
Q 959 1441 959 1056 
Q 959 750 1161 570 
Q 1363 391 1709 391 
Q 2188 391 2477 730 
Q 2766 1069 2766 1631 
L 2766 1759 
L 2194 1759 
z
M 3341 1997 
L 3341 0 
L 2766 0 
L 2766 531 
Q 2569 213 2275 61 
Q 1981 -91 1556 -91 
Q 1019 -91 701 211 
Q 384 513 384 1019 
Q 384 1609 779 1909 
Q 1175 2209 1959 2209 
L 2766 2209 
L 2766 2266 
Q 2766 2663 2505 2880 
Q 2244 3097 1772 3097 
Q 1472 3097 1187 3025 
Q 903 2953 641 2809 
L 641 3341 
Q 956 3463 1253 3523 
Q 1550 3584 1831 3584 
Q 2591 3584 2966 3190 
Q 3341 2797 3341 1997 
z
" transform="scale(0.015625)"/>
      <path id="DejaVuSans-69" d="M 603 3500 
L 1178 3500 
L 1178 0 
L 603 0 
L 603 3500 
z
M 603 4863 
L 1178 4863 
L 1178 4134 
L 603 4134 
L 603 4863 
z
" transform="scale(0.015625)"/>
      <path id="DejaVuSans-6c" d="M 603 4863 
L 1178 4863 
L 1178 0 
L 603 0 
L 603 4863 
z
" transform="scale(0.015625)"/>
      <path id="DejaVuSans-74" d="M 1172 4494 
L 1172 3500 
L 2356 3500 
L 2356 3053 
L 1172 3053 
L 1172 1153 
Q 1172 725 1289 603 
Q 1406 481 1766 481 
L 2356 481 
L 2356 0 
L 1766 0 
Q 1100 0 847 248 
Q 594 497 594 1153 
L 594 3053 
L 172 3053 
L 172 3500 
L 594 3500 
L 594 4494 
L 1172 4494 
z
" transform="scale(0.015625)"/>
      <path id="DejaVuSans-79" d="M 2059 -325 
Q 1816 -950 1584 -1140 
Q 1353 -1331 966 -1331 
L 506 -1331 
L 506 -850 
L 844 -850 
Q 1081 -850 1212 -737 
Q 1344 -625 1503 -206 
L 1606 56 
L 191 3500 
L 800 3500 
L 1894 763 
L 2988 3500 
L 3597 3500 
L 2059 -325 
z
" transform="scale(0.015625)"/>
      <path id="DejaVuSans-20" transform="scale(0.015625)"/>
      <path id="DejaVuSans-66" d="M 2375 4863 
L 2375 4384 
L 1825 4384 
Q 1516 4384 1395 4259 
Q 1275 4134 1275 3809 
L 1275 3500 
L 2222 3500 
L 2222 3053 
L 1275 3053 
L 1275 0 
L 697 0 
L 697 3053 
L 147 3053 
L 147 3500 
L 697 3500 
L 697 3744 
Q 697 4328 969 4595 
Q 1241 4863 1831 4863 
L 2375 4863 
z
" transform="scale(0.015625)"/>
      <path id="DejaVuSans-63" d="M 3122 3366 
L 3122 2828 
Q 2878 2963 2633 3030 
Q 2388 3097 2138 3097 
Q 1578 3097 1268 2742 
Q 959 2388 959 1747 
Q 959 1106 1268 751 
Q 1578 397 2138 397 
Q 2388 397 2633 464 
Q 2878 531 3122 666 
L 3122 134 
Q 2881 22 2623 -34 
Q 2366 -91 2075 -91 
Q 1284 -91 818 406 
Q 353 903 353 1747 
Q 353 2603 823 3093 
Q 1294 3584 2113 3584 
Q 2378 3584 2631 3529 
Q 2884 3475 3122 3366 
z
" transform="scale(0.015625)"/>
      <path id="DejaVuSans-6e" d="M 3513 2113 
L 3513 0 
L 2938 0 
L 2938 2094 
Q 2938 2591 2744 2837 
Q 2550 3084 2163 3084 
Q 1697 3084 1428 2787 
Q 1159 2491 1159 1978 
L 1159 0 
L 581 0 
L 581 3500 
L 1159 3500 
L 1159 2956 
Q 1366 3272 1645 3428 
Q 1925 3584 2291 3584 
Q 2894 3584 3203 3211 
Q 3513 2838 3513 2113 
z
" transform="scale(0.015625)"/>
      <path id="DejaVuSans-65" d="M 3597 1894 
L 3597 1613 
L 953 1613 
Q 991 1019 1311 708 
Q 1631 397 2203 397 
Q 2534 397 2845 478 
Q 3156 559 3463 722 
L 3463 178 
Q 3153 47 2828 -22 
Q 2503 -91 2169 -91 
Q 1331 -91 842 396 
Q 353 884 353 1716 
Q 353 2575 817 3079 
Q 1281 3584 2069 3584 
Q 2775 3584 3186 3129 
Q 3597 2675 3597 1894 
z
M 3022 2063 
Q 3016 2534 2758 2815 
Q 2500 3097 2075 3097 
Q 1594 3097 1305 2825 
Q 1016 2553 972 2059 
L 3022 2063 
z
" transform="scale(0.015625)"/>
      <path id="DejaVuSans-77" d="M 269 3500 
L 844 3500 
L 1563 769 
L 2278 3500 
L 2956 3500 
L 3675 769 
L 4391 3500 
L 4966 3500 
L 4050 0 
L 3372 0 
L 2619 2869 
L 1863 0 
L 1184 0 
L 269 3500 
z
" transform="scale(0.015625)"/>
      <path id="DejaVuSans-75" d="M 544 1381 
L 544 3500 
L 1119 3500 
L 1119 1403 
Q 1119 906 1312 657 
Q 1506 409 1894 409 
Q 2359 409 2629 706 
Q 2900 1003 2900 1516 
L 2900 3500 
L 3475 3500 
L 3475 0 
L 2900 0 
L 2900 538 
Q 2691 219 2414 64 
Q 2138 -91 1772 -91 
Q 1169 -91 856 284 
Q 544 659 544 1381 
z
M 1991 3584 
L 1991 3584 
z
" transform="scale(0.015625)"/>
      <path id="DejaVuSans-73" d="M 2834 3397 
L 2834 2853 
Q 2591 2978 2328 3040 
Q 2066 3103 1784 3103 
Q 1356 3103 1142 2972 
Q 928 2841 928 2578 
Q 928 2378 1081 2264 
Q 1234 2150 1697 2047 
L 1894 2003 
Q 2506 1872 2764 1633 
Q 3022 1394 3022 966 
Q 3022 478 2636 193 
Q 2250 -91 1575 -91 
Q 1294 -91 989 -36 
Q 684 19 347 128 
L 347 722 
Q 666 556 975 473 
Q 1284 391 1588 391 
Q 1994 391 2212 530 
Q 2431 669 2431 922 
Q 2431 1156 2273 1281 
Q 2116 1406 1581 1522 
L 1381 1569 
Q 847 1681 609 1914 
Q 372 2147 372 2553 
Q 372 3047 722 3315 
Q 1072 3584 1716 3584 
Q 2034 3584 2315 3537 
Q 2597 3491 2834 3397 
z
" transform="scale(0.015625)"/>
      <path id="DejaVuSans-64" d="M 2906 2969 
L 2906 4863 
L 3481 4863 
L 3481 0 
L 2906 0 
L 2906 525 
Q 2725 213 2448 61 
Q 2172 -91 1784 -91 
Q 1150 -91 751 415 
Q 353 922 353 1747 
Q 353 2572 751 3078 
Q 1150 3584 1784 3584 
Q 2172 3584 2448 3432 
Q 2725 3281 2906 2969 
z
M 947 1747 
Q 947 1113 1208 752 
Q 1469 391 1925 391 
Q 2381 391 2643 752 
Q 2906 1113 2906 1747 
Q 2906 2381 2643 2742 
Q 2381 3103 1925 3103 
Q 1469 3103 1208 2742 
Q 947 2381 947 1747 
z
" transform="scale(0.015625)"/>
     </defs>
     <use xlink:href="#DejaVuSans-50"/>
     <use xlink:href="#DejaVuSans-72" x="58.552734"/>
     <use xlink:href="#DejaVuSans-6f" x="97.416016"/>
     <use xlink:href="#DejaVuSans-62" x="158.597656"/>
     <use xlink:href="#DejaVuSans-61" x="222.074219"/>
     <use xlink:href="#DejaVuSans-62" x="283.353516"/>
     <use xlink:href="#DejaVuSans-69" x="346.830078"/>
     <use xlink:href="#DejaVuSans-6c" x="374.613281"/>
     <use xlink:href="#DejaVuSans-69" x="402.396484"/>
     <use xlink:href="#DejaVuSans-74" x="430.179688"/>
     <use xlink:href="#DejaVuSans-79" x="469.388672"/>
     <use xlink:href="#DejaVuSans-20" x="528.568359"/>
     <use xlink:href="#DejaVuSans-6f" x="560.355469"/>
     <use xlink:href="#DejaVuSans-66" x="621.537109"/>
     <use xlink:href="#DejaVuSans-20" x="656.742188"/>
     <use xlink:href="#DejaVuSans-63" x="688.529297"/>
     <use xlink:href="#DejaVuSans-6f" x="743.509766"/>
     <use xlink:href="#DejaVuSans-6e" x="804.691406"/>
     <use xlink:href="#DejaVuSans-6e" x="868.070312"/>
     <use xlink:href="#DejaVuSans-65" x="931.449219"/>
     <use xlink:href="#DejaVuSans-63" x="992.972656"/>
     <use xlink:href="#DejaVuSans-74" x="1047.953125"/>
     <use xlink:href="#DejaVuSans-69" x="1087.162109"/>
     <use xlink:href="#DejaVuSans-6f" x="1114.945312"/>
     <use xlink:href="#DejaVuSans-6e" x="1176.126953"/>
     <use xlink:href="#DejaVuSans-20" x="1239.505859"/>
     <use xlink:href="#DejaVuSans-62" x="1271.292969"/>
     <use xlink:href="#DejaVuSans-65" x="1334.769531"/>
     <use xlink:href="#DejaVuSans-74" x="1396.292969"/>
     <use xlink:href="#DejaVuSans-77" x="1435.501953"/>
     <use xlink:href="#DejaVuSans-65" x="1517.289062"/>
     <use xlink:href="#DejaVuSans-65" x="1578.8125"/>
     <use xlink:href="#DejaVuSans-6e" x="1640.335938"/>
     <use xlink:href="#DejaVuSans-20" x="1703.714844"/>
     <use xlink:href="#DejaVuSans-74" x="1735.501953"/>
     <use xlink:href="#DejaVuSans-77" x="1774.710938"/>
     <use xlink:href="#DejaVuSans-6f" x="1856.498047"/>
     <use xlink:href="#DejaVuSans-20" x="1917.679688"/>
     <use xlink:href="#DejaVuSans-6e" x="1949.466797"/>
     <use xlink:href="#DejaVuSans-65" x="2012.845703"/>
     <use xlink:href="#DejaVuSans-75" x="2074.369141"/>
     <use xlink:href="#DejaVuSans-72" x="2137.748047"/>
     <use xlink:href="#DejaVuSans-6f" x="2176.611328"/>
     <use xlink:href="#DejaVuSans-6e" x="2237.792969"/>
     <use xlink:href="#DejaVuSans-73" x="2301.171875"/>
     <use xlink:href="#DejaVuSans-20" x="2353.271484"/>
     <use xlink:href="#DejaVuSans-61" x="2385.058594"/>
     <use xlink:href="#DejaVuSans-73" x="2446.337891"/>
     <use xlink:href="#DejaVuSans-20" x="2498.4375"/>
     <use xlink:href="#DejaVuSans-66" x="2530.224609"/>
     <use xlink:href="#DejaVuSans-75" x="2565.429688"/>
     <use xlink:href="#DejaVuSans-6e" x="2628.808594"/>
     <use xlink:href="#DejaVuSans-63" x="2692.1875"/>
     <use xlink:href="#DejaVuSans-74" x="2747.167969"/>
     <use xlink:href="#DejaVuSans-69" x="2786.376953"/>
     <use xlink:href="#DejaVuSans-6f" x="2814.160156"/>
     <use xlink:href="#DejaVuSans-6e" x="2875.341797"/>
     <use xlink:href="#DejaVuSans-20" x="2938.720703"/>
     <use xlink:href="#DejaVuSans-6f" x="2970.507812"/>
     <use xlink:href="#DejaVuSans-66" x="3031.689453"/>
     <use xlink:href="#DejaVuSans-20" x="3066.894531"/>
     <use xlink:href="#DejaVuSans-64" x="3098.681641"/>
     <use xlink:href="#DejaVuSans-69" x="3162.158203"/>
     <use xlink:href="#DejaVuSans-73" x="3189.941406"/>
     <use xlink:href="#DejaVuSans-74" x="3242.041016"/>
     <use xlink:href="#DejaVuSans-61" x="3281.25"/>
     <use xlink:href="#DejaVuSans-6e" x="3342.529297"/>
     <use xlink:href="#DejaVuSans-63" x="3405.908203"/>
     <use xlink:href="#DejaVuSans-65" x="3460.888672"/>
    </g>
   </g>
   <g id="legend_1">
    <g id="patch_7">
     <path d="M 322.02 93.506375 
L 407.72 93.506375 
Q 409.72 93.506375 409.72 91.506375 
L 409.72 48.472 
Q 409.72 46.472 407.72 46.472 
L 322.02 46.472 
Q 320.02 46.472 320.02 48.472 
L 320.02 91.506375 
Q 320.02 93.506375 322.02 93.506375 
z
" style="fill: #ffffff; opacity: 0.8; stroke: #cccccc; stroke-linejoin: miter"/>
    </g>
    <g id="line2d_17">
     <path d="M 324.02 54.570438 
L 334.02 54.570438 
L 344.02 54.570438 
" style="fill: none; stroke: #1f77b4; stroke-width: 1.5; stroke-linecap: square"/>
    </g>
    <g id="text_17">
     <!-- $\sigma=$0.12 -->
     <g transform="translate(352.02 58.070438) scale(0.1 -0.1)">
      <defs>
       <path id="DejaVuSans-Oblique-3c3" d="M 2219 3044 
Q 1744 3044 1422 2700 
Q 1081 2341 969 1747 
Q 844 1119 1044 756 
Q 1241 397 1706 397 
Q 2166 397 2503 759 
Q 2844 1122 2966 1747 
Q 3075 2319 2881 2700 
Q 2700 3044 2219 3044 
z
M 2309 3503 
L 4219 3500 
L 4106 2925 
L 3463 2925 
Q 3706 2438 3575 1747 
Q 3406 888 2884 400 
Q 2359 -91 1609 -91 
Q 856 -91 525 400 
Q 194 888 363 1747 
Q 528 2609 1050 3097 
Q 1484 3503 2309 3503 
z
" transform="scale(0.015625)"/>
      </defs>
      <use xlink:href="#DejaVuSans-Oblique-3c3" transform="translate(0 0.78125)"/>
      <use xlink:href="#DejaVuSans-3d" transform="translate(82.861328 0.78125)"/>
      <use xlink:href="#DejaVuSans-30" transform="translate(186.132812 0.78125)"/>
      <use xlink:href="#DejaVuSans-2e" transform="translate(249.755859 0.78125)"/>
      <use xlink:href="#DejaVuSans-31" transform="translate(281.542969 0.78125)"/>
      <use xlink:href="#DejaVuSans-32" transform="translate(345.166016 0.78125)"/>
     </g>
    </g>
    <g id="line2d_18">
     <path d="M 324.02 69.248563 
L 334.02 69.248563 
L 344.02 69.248563 
" style="fill: none; stroke: #ff7f0e; stroke-width: 1.5; stroke-linecap: square"/>
    </g>
    <g id="text_18">
     <!-- $\sigma=$0.012 -->
     <g transform="translate(352.02 72.748563) scale(0.1 -0.1)">
      <use xlink:href="#DejaVuSans-Oblique-3c3" transform="translate(0 0.78125)"/>
      <use xlink:href="#DejaVuSans-3d" transform="translate(82.861328 0.78125)"/>
      <use xlink:href="#DejaVuSans-30" transform="translate(186.132812 0.78125)"/>
      <use xlink:href="#DejaVuSans-2e" transform="translate(249.755859 0.78125)"/>
      <use xlink:href="#DejaVuSans-30" transform="translate(281.542969 0.78125)"/>
      <use xlink:href="#DejaVuSans-31" transform="translate(345.166016 0.78125)"/>
      <use xlink:href="#DejaVuSans-32" transform="translate(408.789062 0.78125)"/>
     </g>
    </g>
    <g id="line2d_19">
     <path d="M 324.02 83.926688 
L 334.02 83.926688 
L 344.02 83.926688 
" style="fill: none; stroke: #2ca02c; stroke-width: 1.5; stroke-linecap: square"/>
    </g>
    <g id="text_19">
     <!-- $\sigma=$0.0012 -->
     <g transform="translate(352.02 87.426688) scale(0.1 -0.1)">
      <use xlink:href="#DejaVuSans-Oblique-3c3" transform="translate(0 0.78125)"/>
      <use xlink:href="#DejaVuSans-3d" transform="translate(82.861328 0.78125)"/>
      <use xlink:href="#DejaVuSans-30" transform="translate(186.132812 0.78125)"/>
      <use xlink:href="#DejaVuSans-2e" transform="translate(249.755859 0.78125)"/>
      <use xlink:href="#DejaVuSans-30" transform="translate(281.542969 0.78125)"/>
      <use xlink:href="#DejaVuSans-30" transform="translate(345.166016 0.78125)"/>
      <use xlink:href="#DejaVuSans-31" transform="translate(408.789062 0.78125)"/>
      <use xlink:href="#DejaVuSans-32" transform="translate(472.412109 0.78125)"/>
     </g>
    </g>
   </g>
  </g>
 </g>
 <defs>
  <clipPath id="pca28a42b7b">
   <rect x="57.6" y="41.472" width="357.12" height="266.112"/>
  </clipPath>
 </defs>
</svg>
